<?xml version="1.0" encoding="UTF-8" standalone="no"?>
<svg xmlns:dc="http://purl.org/dc/elements/1.1/" xmlns:cc="http://creativecommons.org/ns#" xmlns:rdf="http://www.w3.org/1999/02/22-rdf-syntax-ns#" xmlns:svg="http://www.w3.org/2000/svg" xmlns="http://www.w3.org/2000/svg" id="svg3605" version="1.1" viewBox="0 0 264.5833272454602 81.14886042697654" height="306.704345703125" width="1000">
 <defs id="defs3599" />
 <metadata id="metadata3602">
  <rdf:RDF>
   <cc:Work rdf:about="">
    <dc:format>image/svg+xml</dc:format>
    <dc:type rdf:resource="http://purl.org/dc/dcmitype/StillImage" />
    <dc:title></dc:title>
   </cc:Work>
  </rdf:RDF>
 </metadata>
 <g transform="translate(60.47671964285709,-36.44358890987134)" id="layer1">
  <g transform="matrix(0.2645822750042333,0,0,0.2645822750042333,-9.147229127485815,-27.75650637308087)" id="g3567">
   <path style="fill:white" d="M -51.326,549.19 C -77.53999999999999,547.0159999999998 -101.99,538.7659999999998 -123.761,524.7550000000001 -141.417,513.3940000000001 -159.434,494.9980000000001 -170.866,476.6660000000001 -199.324,431.0330000000001 -201.448,372.8470000000001 -176.4,325.1040000000001 -152.702,279.9360000000001 -107.326,248.9050000000001 -56.97899999999997,243.4380000000001 -49.52499999999997,242.6280000000001 -31.13299999999997,242.6150000000001 -23.93499999999997,243.4140000000001 -1.393999999999973,245.9140000000001 20.93600000000003,253.6420000000001 40.26000000000002,265.6300000000001 65.75000000000001,281.4410000000001 87.69400000000001,306.4970000000001 99.632,333.4220000000001 125.568,391.9160000000002 113.139,459.0220000000002 67.99300000000002,504.2490000000001 44.25900000000002,528.0280000000001 14.59600000000003,542.8909999999998 -19.36899999999997,548.022 -25.634,548.969 -45.317,549.6879999999996 -51.326,549.19 Z" id="path3552" />
   <path style="fill:#32a4da" d="M -17.688,547.9569999999996 C 3.651,544.3949999999997 20.76,538.258 38.22,527.898 50.324,520.7129999999998 64.07899999999999,509.5820000000001 72.51399999999999,500.134 L 77.18099999999998,494.908 71.953,499.23 C 48.789,518.3869999999999 19.248,530.4039999999996 -16.45699999999999,535.1939999999998 -26.48399999999999,536.5389999999996 -55.664,537.1059999999996 -66.04999999999998,536.1549999999997 -90.39199999999999,533.9289999999997 -110.155,528.7019999999995 -128.21,519.7189999999999 -138.577,514.5569999999999 -137.943,515.4209999999999 -125.051,524.0319999999999 -103.768,538.2469999999998 -82.36199999999996,545.7509999999997 -53.46499999999998,549.1319999999999 -48.27000000000001,549.7419999999998 -23.493,548.9279999999996 -17.688,547.9569999999996 Z" id="path3550" />
   <path style="fill:#32a4da" d="M -6.828000000000002,523.648 C 28.337,518.7889999999996 59.74,504.406 82.54699999999999,482.716 90.49599999999999,475.156 94.11699999999999,470.268 98.60899999999999,461.032 101.628,454.821 108.166,437.284 108.166,435.391 108.166,435.139 106.423,437.579 104.291,440.8149999999999 82.078,474.536 30.43899999999999,497.1719999999999 -43.21000000000001,505.4809999999999 -53.46800000000001,506.639 -81.47199999999999,505.901 -92.75199999999999,504.173 -119.109,500.1379999999999 -138.017,493.4259999999999 -155.359,481.946 -162.66,477.1129999999999 -175.184,465.102 -179.012,459.264 -180.34,457.24 -181.531,455.686 -181.658,455.814 -181.785,455.9399999999999 -181.119,457.742 -180.178,459.816 -174.35,472.653 -160.329,486.931 -143.804,496.854 -124.021,508.738 -83.739,521.013 -55.059,523.9019999999999 -51.193,524.2909999999999 -47.02600000000001,524.7229999999999 -45.796,524.8649999999995 -40.681,525.4469999999995 -13.754,524.6049999999999 -6.826000000000004,523.6499999999997 V 523.648 Z" id="path3548" />
   <path style="fill:#32a4da" d="M 4.352000000000002,481.216 C 51.425,474.847 85.352,457.527 103.607,430.542 104.731,428.884 106.935,424.857 108.505,421.5990000000001 112.472,413.3680000000001 113.547,406.193 113.027,391.3970000000001 112.818,385.4250000000001 112.382,379.6750000000001 112.058,378.621 111.622,377.205 111.455,377.05 111.414,378.0310000000001 111.337,379.8640000000001 108.645,387.6320000000001 106.884,391.0910000000001 101.249,402.1750000000001 88.694,414.7740000000001 74.53999999999999,423.5530000000001 53.55199999999999,436.5690000000001 27.59499999999999,445.547 -12.57900000000001,453.681 -64.608,464.2160000000001 -93.813,463.297 -133.961,449.8580000000001 -162.633,440.2610000000001 -184.121,421.3380000000001 -191.868,398.8650000000001 L -194.002,392.6750000000001 V 398.7460000000001 C -194.002,407.4000000000001 -193.127,411.7460000000001 -190.167,417.7410000000001 -182.701,432.8670000000001 -164,448.4780000000001 -141.039,458.7570000000001 -119.027,468.6100000000001 -79.70999999999996,478.4290000000002 -47.44999999999999,482.1320000000001 -36.20299999999999,483.4210000000001 -8.300999999999987,482.9300000000001 4.352000000000011,481.2170000000001 H 4.352000000000002 Z" id="path3546" />
   <path style="fill:#32a4da" d="M 17.449,423.751 C 61.33400000000001,417.173 90.32599999999999,401.705 102.676,378.282 106.569,370.897 108.383,364 107.862,358.559 107.368,353.389 103.972,342.84 99.67399999999999,333.123 L 96.34599999999997,325.596 95.98599999999997,330.067 C 95.16099999999997,340.264 90.20599999999997,348.414 79.39399999999999,357.353 64.44399999999997,369.715 35.26099999999999,382.437 -0.8560000000000087,392.34 -46.95900000000001,404.98 -91.37800000000001,405.104 -129.178,392.6970000000001 -153.032,384.8700000000001 -171.792,371.5820000000001 -178.823,357.537 -181,353.187 -181.825,350.456 -182.731,344.6180000000001 L -183.502,339.65 -185.978,346.997 C -189.348,356.994 -189.729,362.645 -187.381,367.772 -182.471,378.497 -170.597,389.87 -156.075,397.754 -128.932,412.487 -85.89399999999996,422.008 -33.34199999999997,424.901 -16.824,425.813 7.345,425.263 17.449,423.751 Z" id="path3544" />
   <path style="fill:#32a4da" d="M 1.159,361.021 C 44.6,358.072 74.08000000000001,346.474 83.42500000000001,328.653 87.83499999999999,320.246 87.879,312.991 83.56300000000001,305.827 80.94000000000001,301.471 74.56700000000002,293.784 69.24700000000001,288.562 L 65.36199999999999,284.749 65.349,287.2840000000001 C 65.32699999999998,291.179 63.23000000000001,294.9640000000001 58.497,299.6520000000001 53.055,305.044 46.921,309.0510000000001 36.33100000000001,314.143 -7.477999999999997,335.197 -70.91599999999999,343.088 -111.281,332.504 -124.746,328.972 -134.715,323.821 -141.967,316.646 -148.248,310.432 -150.254,306.234 -150.242,299.333 -150.233,294.562 -150.027,293.734 -147.629,288.91 L -145.024,283.669 -149.466,288.0220000000001 C -158.942,297.309 -169.278,311.008 -170.095,315.3630000000001 -171.389,322.2650000000001 -161.444,331.9780000000001 -145.174,339.696 -127.72,347.978 -108.837,352.821 -79.41900000000001,356.56 -44.37700000000001,361.017 -19.24800000000001,362.408 1.156999999999982,361.021 Z" id="path3542" />
   <path style="fill:#32a4da" d="M -17.688,303.259 C 11.546,299.732 34.87900000000001,291.526 43.149,281.863 45.688,278.897 47.094,274.882 46.515,272.247 45.021,265.445 18.632,252.249 -4.591999999999999,246.689 -17.298,243.649 -26.175,242.647 -40.367,242.647 -59.27300000000001,242.647 -73.11199999999999,244.933 -90.83799999999999,250.987 -106.143,256.216 -125.104,266.547 -129.165,271.87 -131.44,274.852 -131.947,278.902 -130.441,282.074 -125.342,292.819 -99.17,301.714 -64.64499999999999,304.434 -57.071,305.033 -25.918,304.252 -17.688,303.259 Z" id="path3540" />
   <path id="path3553" d="M 229.242,464.478 C 201.258,464.478 179.416,445.707 179.416,416.7 V 327.626 H 206.036 V 416.018 C 206.036,431.716 215.25,440.931 229.583,440.931 243.917,440.931 253.132,431.716 253.132,416.018 V 327.626 H 279.41 V 416.7 C 279.068,445.707 256.886,464.478 229.242,464.478 Z" />
   <path id="path3555" d="M 297.498,420.452 V 397.246 H 356.197 V 420.452 Z" />
   <path id="path3557" d="M 415.58,463.453 H 396.127 L 359.609,364.1419999999999 H 385.889 L 406.022,425.5699999999999 426.158,364.1419999999999 H 452.438 Z" />
   <path id="path3559" d="M 479.057,421.477 C 479.057,434.105 486.908,443.659 500.9,443.659 511.8200000000001,443.659 517.2809999999999,440.589 523.422,434.445 L 538.441,449.121 C 528.201,459.358 518.6459999999998,464.819 500.5580000000001,464.819 477.0090000000001,464.819 454.4870000000001,454.239 454.4870000000001,413.9689999999999 454.4870000000001,381.5469999999999 471.8890000000001,363.1179999999999 497.8280000000001,363.1179999999999 525.4710000000001,363.1179999999999 541.1689999999997,383.2529999999999 541.1689999999997,410.555 V 421.477 Z M 514.5499999999999,393.833 C 511.8199999999999,388.032 506.358,383.595 497.8269999999999,383.595 489.2939999999999,383.595 483.836,388.032 481.1039999999999,393.833 479.7389999999999,397.5870000000001 479.0559999999999,399.977 478.7149999999999,404.413 H 516.5969999999997 C 516.5979999999999,399.977 515.9149999999998,397.246 514.5499999999999,393.833 Z" />
   <path id="path3561" d="M 609.4239999999997,391.103 C 605.672,387.349 602.259,385.301 596.114,385.301 588.6079999999999,385.301 580.0739999999999,391.103 580.0739999999999,403.73 V 463.454 H 555.163 V 363.802 H 579.392 V 373.357 C 584.171,367.556 593.725,362.778 604.307,362.778 613.8619999999998,362.778 621.0299999999997,365.1659999999999 627.8529999999999,371.992 Z" />
   <path id="path3563" d="M 668.125,464.478 C 652.426,464.478 638.4349999999999,462.771 625.8049999999999,450.145 L 641.8449999999999,434.105 C 650.0369999999999,442.295 660.6159999999996,443.318 668.4659999999995,443.318 676.9959999999997,443.318 685.8709999999997,440.589 685.8709999999997,433.081 685.8709999999997,427.961 683.1409999999998,424.549 675.2899999999998,423.866 L 659.5909999999995,422.501 C 641.5029999999999,420.795 630.5839999999999,412.945 630.5839999999999,394.516 630.5839999999999,374.039 648.6719999999999,362.778 668.8079999999996,362.778 684.1639999999996,362.778 697.133,365.507 706.6899999999999,374.381 L 691.3339999999999,389.7379999999999 C 685.5309999999999,384.62 676.9969999999998,382.913 668.1259999999997,382.913 658.2269999999997,382.913 654.134,387.35 654.134,392.4689999999999 654.134,396.223 655.499,400.3179999999999 664.3709999999997,401 L 680.0689999999998,402.365 C 699.8639999999999,404.413 709.759,414.6519999999999 709.759,431.374 710.441,453.897 691.6739999999997,464.478 668.125,464.478 Z" />
   <path id="path3565" d="M 743.8869999999999,421.477 C 743.8869999999999,434.105 751.7379999999999,443.659 765.7299999999999,443.659 776.6529999999999,443.659 782.1109999999996,440.589 788.2549999999996,434.445 L 803.2709999999998,449.121 C 793.0339999999996,459.358 783.4759999999995,464.819 765.3879999999998,464.819 741.8419999999996,464.819 719.3169999999995,454.239 719.3169999999995,413.9689999999999 719.3169999999995,381.5469999999999 736.7219999999997,363.1179999999999 762.6579999999994,363.1179999999999 790.3039999999997,363.1179999999999 806.0019999999998,383.2529999999999 806.0019999999998,410.555 V 421.477 Z M 779.3799999999996,393.833 C 776.652,388.032 771.191,383.595 762.657,383.595 754.1269999999999,383.595 748.6649999999998,388.032 745.9339999999998,393.833 744.5689999999998,397.5870000000001 743.8859999999998,399.977 743.5439999999997,404.413 H 781.4270000000001 C 781.4279999999996,399.977 780.745,397.246 779.3799999999996,393.833 Z" />
  </g>
 </g>
</svg>
