<svg xmlns="http://www.w3.org/2000/svg" xmlns:xlink="http://www.w3.org/1999/xlink" viewBox="0 0 2281.6 1398.63"><defs><linearGradient id="a5c8f192-f167-4871-94ff-0534702cec16" x1="16.89" y1="661.52" x2="2281.6" y2="661.52" gradientUnits="userSpaceOnUse"><stop offset="0" stop-color="#dae3fe"/><stop offset="1" stop-color="#e9effd"/></linearGradient><linearGradient id="a1cb9099-047b-4890-bdb2-a4269e6c3496" x1="494.53" y1="1407.89" x2="1362.74" y2="403.32" gradientUnits="userSpaceOnUse"><stop offset="0" stop-color="#09005d"/><stop offset="1" stop-color="#1a0f91"/></linearGradient><linearGradient id="1d9d0096-a3af-488e-9cd9-c62bb3e2a3b2" x1="633.51" y1="705.79" x2="1609.77" y2="705.79" xlink:href="#a5c8f192-f167-4871-94ff-0534702cec16"/><linearGradient id="15590775-4b7f-454f-a87a-593c6c13c2ba" x1="1272.02" y1="416.73" x2="1476.56" y2="682.64" gradientUnits="userSpaceOnUse"><stop offset="0" stop-color="#4042e2"/><stop offset="1" stop-color="#4f52ff"/></linearGradient><linearGradient id="10caf8a7-3ec0-4e5f-a1f4-aeeaadb5604a" x1="378.57" y1="237.15" x2="706.57" y2="229.15" xlink:href="#15590775-4b7f-454f-a87a-593c6c13c2ba"/><linearGradient id="a871757e-e835-4785-9f27-64788c6b74eb" x1="1224.51" y1="1304.96" x2="1429.05" y2="1570.86" xlink:href="#15590775-4b7f-454f-a87a-593c6c13c2ba"/><linearGradient id="fe7f9800-e3ed-43b2-bdaf-41d272d7b4f0" x1="1087.33" y1="702.34" x2="1116.88" y2="1097.79" xlink:href="#15590775-4b7f-454f-a87a-593c6c13c2ba"/><linearGradient id="391a5914-30a0-4a50-8dd8-beaebdf063bd" x1="800.21" y1="682.76" x2="1057.02" y2="577.07" gradientTransform="translate(714.86 -629.47) rotate(44.86)" gradientUnits="userSpaceOnUse"><stop offset="0" stop-color="#e1473d"/><stop offset="1" stop-color="#e9605a"/></linearGradient><linearGradient id="aa60fecf-9490-4a94-8652-c011573f799e" x1="1117.38" y1="735.44" x2="1120.41" y2="515.75" gradientTransform="translate(714.86 -629.47) rotate(44.86)" gradientUnits="userSpaceOnUse"><stop offset="0" stop-color="#fe7062"/><stop offset="1" stop-color="#ff928e"/></linearGradient><linearGradient id="0a20c720-ed01-4ab0-995c-0f2eed8f55b5" x1="1268.27" y1="652.6" x2="1326.61" y2="720.02" xlink:href="#15590775-4b7f-454f-a87a-593c6c13c2ba"/><linearGradient id="8465c404-0361-40be-9b22-755607a71eb1" x1="1414.05" y1="930.89" x2="1414.05" y2="762.71" gradientTransform="matrix(1, 0, 0, 1, 0, 0)" xlink:href="#aa60fecf-9490-4a94-8652-c011573f799e"/><linearGradient id="4ed42504-cd74-48df-b0c9-336156b1db2f" x1="975.1" y1="652.6" x2="1033.43" y2="720.02" xlink:href="#15590775-4b7f-454f-a87a-593c6c13c2ba"/><linearGradient id="6ca90f6f-458a-4b59-a89d-90c9d22dccdd" x1="1120.87" y1="930.89" x2="1120.87" y2="762.71" gradientTransform="matrix(1, 0, 0, 1, 0, 0)" xlink:href="#aa60fecf-9490-4a94-8652-c011573f799e"/><linearGradient id="29f80b78-2437-403f-b0da-c1bfa3e72fd4" x1="675.1" y1="652.6" x2="733.43" y2="720.02" xlink:href="#15590775-4b7f-454f-a87a-593c6c13c2ba"/><linearGradient id="77075c12-789b-414d-ac42-3dc45ff5587e" x1="820.88" y1="930.89" x2="820.88" y2="762.71" gradientTransform="matrix(1, 0, 0, 1, 0, 0)" xlink:href="#aa60fecf-9490-4a94-8652-c011573f799e"/><linearGradient id="71f95968-7f65-44b7-847f-b166ccba4204" x1="2653.37" y1="-2748.11" x2="2576.79" y2="-2711.68" gradientTransform="translate(-1608.41 -2243.27) rotate(90)" xlink:href="#a1cb9099-047b-4890-bdb2-a4269e6c3496"/><linearGradient id="bd26a072-3bb2-41b8-854a-567694d8fc0c" x1="2657.19" y1="-2720.35" x2="2646.36" y2="-2743.12" gradientTransform="translate(-1608.41 -2243.27) rotate(90)" xlink:href="#a1cb9099-047b-4890-bdb2-a4269e6c3496"/><linearGradient id="1cc9dc65-f32b-4658-bb6b-bbeeddcbfa51" x1="2975.92" y1="-2743.7" x2="2917.87" y2="-2716.09" gradientTransform="translate(-1608.41 -2243.27) rotate(90)" xlink:href="#a1cb9099-047b-4890-bdb2-a4269e6c3496"/><linearGradient id="34d2d4da-36c7-483f-867e-845e11f47cca" x1="2977.64" y1="-2720.35" x2="2966.81" y2="-2743.12" gradientTransform="translate(-1608.41 -2243.27) rotate(90)" xlink:href="#a1cb9099-047b-4890-bdb2-a4269e6c3496"/><linearGradient id="49b61994-af02-4674-8743-3b334592985c" x1="3280.84" y1="-2743.12" x2="3206.11" y2="-2707.58" gradientTransform="translate(-1608.41 -2243.27) rotate(90)" xlink:href="#a1cb9099-047b-4890-bdb2-a4269e6c3496"/><linearGradient id="6ceeddc7-5ca8-4be8-a890-bdae38c2fdbf" x1="3284.45" y1="-2716.86" x2="3273.62" y2="-2739.63" gradientTransform="translate(-1608.41 -2243.27) rotate(90)" xlink:href="#a1cb9099-047b-4890-bdb2-a4269e6c3496"/><linearGradient id="3b090f5b-1324-45f0-a438-3d7bb07fdaf4" x1="997.62" y1="542.27" x2="775.53" y2="647.92" xlink:href="#a1cb9099-047b-4890-bdb2-a4269e6c3496"/><linearGradient id="7916eda3-e6f9-4210-8830-28db4904789b" x1="2966.28" y1="-2409" x2="2955.45" y2="-2431.76" gradientTransform="translate(-1608.41 -2243.27) rotate(90)" xlink:href="#a1cb9099-047b-4890-bdb2-a4269e6c3496"/><linearGradient id="bec49522-45a7-4e19-b599-e5af15107d86" x1="-864.16" y1="542.55" x2="-1086.25" y2="648.2" gradientTransform="matrix(-1, 0, 0, 1, 383.46, -0.28)" xlink:href="#a1cb9099-047b-4890-bdb2-a4269e6c3496"/><linearGradient id="c3424cbb-61cc-49ff-883b-49ce9532a9af" x1="2966.55" y1="-548.38" x2="2955.72" y2="-571.15" gradientTransform="matrix(0, 1, 1, 0, 1991.87, -2243.55)" xlink:href="#a1cb9099-047b-4890-bdb2-a4269e6c3496"/><linearGradient id="57f018bb-9de0-4694-9d57-c3d777aa5cab" x1="804.44" y1="926.91" x2="1436.25" y2="926.91" xlink:href="#a1cb9099-047b-4890-bdb2-a4269e6c3496"/><linearGradient id="d9e1a59d-d0c1-4218-af0f-096dd7b35de9" x1="1020.13" y1="128.07" x2="638.32" y2="200.8" xlink:href="#15590775-4b7f-454f-a87a-593c6c13c2ba"/><linearGradient id="6f14ad01-0a2c-4ce1-8f5f-f536d3f56f30" x1="1020.13" y1="193.98" x2="638.32" y2="266.71" xlink:href="#15590775-4b7f-454f-a87a-593c6c13c2ba"/><linearGradient id="8d8ab3ac-8808-49cf-9ab6-68dce147fe6a" x1="1491.52" y1="538.34" x2="2061.8" y2="538.34" xlink:href="#15590775-4b7f-454f-a87a-593c6c13c2ba"/><linearGradient id="806737f5-7ed1-4f0f-8589-87eb04d630fa" x1="1521.49" y1="545.83" x2="2036.38" y2="545.83" xlink:href="#a5c8f192-f167-4871-94ff-0534702cec16"/><linearGradient id="62b48a24-c149-4201-8cec-a0181f803f88" x1="566.2" y1="441.62" x2="-86.76" y2="2142.18" xlink:href="#15590775-4b7f-454f-a87a-593c6c13c2ba"/><linearGradient id="23dfa7cf-8aef-46e5-b04e-2232e913e929" x1="168.34" y1="732.82" x2="480.99" y2="732.82" xlink:href="#a5c8f192-f167-4871-94ff-0534702cec16"/><linearGradient id="aac39269-63bd-481f-af98-2d2aff4a4223" x1="201.52" y1="766.93" x2="476.85" y2="766.93" xlink:href="#a5c8f192-f167-4871-94ff-0534702cec16"/><linearGradient id="ffef447e-75e0-4437-b0bf-4ae9d505091e" x1="144.01" y1="1057.09" x2="549.42" y2="1057.09" xlink:href="#a5c8f192-f167-4871-94ff-0534702cec16"/><linearGradient id="38ef176e-cebb-474a-8d50-1a08acafccc2" x1="148.57" y1="846.07" x2="540.93" y2="846.07" xlink:href="#a5c8f192-f167-4871-94ff-0534702cec16"/><linearGradient id="f37dcbb0-fd60-4b81-b16f-43e5e908edaa" x1="188.58" y1="1182.83" x2="236.33" y2="1182.83" xlink:href="#a5c8f192-f167-4871-94ff-0534702cec16"/><linearGradient id="bd7a599e-8edd-49ce-88bc-82c5ddf3cfa0" x1="310.48" y1="1172.46" x2="358.86" y2="1172.46" xlink:href="#a5c8f192-f167-4871-94ff-0534702cec16"/><linearGradient id="e9bf55a8-2a71-4649-9588-66ad3bb1bceb" x1="248.27" y1="1155.81" x2="296.03" y2="1155.81" xlink:href="#a5c8f192-f167-4871-94ff-0534702cec16"/><linearGradient id="06f7ce7e-2500-4031-86ac-db91f6e8593a" x1="455" y1="1117.17" x2="502.76" y2="1117.17" xlink:href="#a5c8f192-f167-4871-94ff-0534702cec16"/><linearGradient id="daf06401-a99e-4442-8190-408b0cc77f7f" x1="384" y1="1138.22" x2="431.75" y2="1138.22" xlink:href="#a5c8f192-f167-4871-94ff-0534702cec16"/><linearGradient id="55f95a6f-5f08-429c-8848-0c4104b24fa5" x1="209.9" y1="989.93" x2="443.9" y2="989.93" xlink:href="#a5c8f192-f167-4871-94ff-0534702cec16"/><linearGradient id="74024cae-376f-4304-9b72-2857f48e5805" x1="203.52" y1="1036.8" x2="217.19" y2="1036.8" xlink:href="#a5c8f192-f167-4871-94ff-0534702cec16"/><linearGradient id="fb1188dd-c6b8-4921-8aa1-40808f2c24f3" x1="266.67" y1="1002.29" x2="280.34" y2="1002.29" xlink:href="#a5c8f192-f167-4871-94ff-0534702cec16"/><linearGradient id="edd76743-269e-46f3-b15e-20752c1a59d3" x1="325.91" y1="1027.03" x2="339.58" y2="1027.03" xlink:href="#a5c8f192-f167-4871-94ff-0534702cec16"/><linearGradient id="1a1f7640-5e85-4514-bbf3-bd0761f7246d" x1="375.39" y1="978.2" x2="389.06" y2="978.2" xlink:href="#a5c8f192-f167-4871-94ff-0534702cec16"/><linearGradient id="6684a0ba-6649-4ca3-bcbc-99312c60d979" x1="436.58" y1="943.05" x2="450.26" y2="943.05" xlink:href="#a5c8f192-f167-4871-94ff-0534702cec16"/><linearGradient id="59974f59-fea5-4049-81be-e39d2351f4a2" x1="484.17" y1="1135.99" x2="821.41" y2="1618.53" gradientTransform="matrix(1, 0, 0, 1, 0, 0)" xlink:href="#aa60fecf-9490-4a94-8652-c011573f799e"/><linearGradient id="8c4b0a4f-963d-400a-95c1-e5521b7e8da1" x1="442.72" y1="364.35" x2="520.73" y2="907.4" gradientUnits="userSpaceOnUse"><stop offset="0" stop-color="#ff928e"/><stop offset="1" stop-color="#feb3b1"/></linearGradient><linearGradient id="fe34b55e-e74b-48f1-87e5-99b891708a2a" x1="420.55" y1="1201.28" x2="708.38" y2="1201.28" gradientTransform="matrix(1, 0, 0, 1, 0, 0)" xlink:href="#aa60fecf-9490-4a94-8652-c011573f799e"/><linearGradient id="5d45e99b-fe6c-49ec-9ac5-c94569e36cd3" x1="424.63" y1="1244.28" x2="699.47" y2="1244.28" gradientTransform="matrix(1, 0, 0, 1, 0, 0)" xlink:href="#aa60fecf-9490-4a94-8652-c011573f799e"/><linearGradient id="b8136cef-6bb8-4cff-927b-7e530b422243" x1="614.92" y1="-284.09" x2="384.73" y2="55.61" xlink:href="#15590775-4b7f-454f-a87a-593c6c13c2ba"/><linearGradient id="e2d4b85e-1e1d-4374-921a-dedf4d68a596" x1="92.93" y1="647.65" x2="-60.09" y2="977.68" xlink:href="#15590775-4b7f-454f-a87a-593c6c13c2ba"/><linearGradient id="e0da03b4-4214-4c20-a3dc-738e2d037fc5" x1="428.17" y1="43.01" x2="398.17" y2="400.05" gradientTransform="matrix(1, 0, 0, 1, 0, 0)" xlink:href="#391a5914-30a0-4a50-8dd8-beaebdf063bd"/><linearGradient id="a0587eea-d4a8-4fe1-833e-bfda4febac72" x1="343.9" y1="499.67" x2="146.48" y2="621.1" gradientTransform="matrix(1, 0, 0, 1, 0, 0)" xlink:href="#aa60fecf-9490-4a94-8652-c011573f799e"/><linearGradient id="c4247e80-9632-4d5b-b16c-4bae9588e425" x1="408.38" y1="505.63" x2="465.75" y2="598.75" gradientTransform="matrix(1, 0, 0, 1, 0, 0)" xlink:href="#391a5914-30a0-4a50-8dd8-beaebdf063bd"/><linearGradient id="bbf7f628-f56f-46a8-a7c1-c63433bb74f0" x1="513.7" y1="474.78" x2="653.76" y2="488.19" gradientTransform="matrix(1, 0, 0, 1, 0, 0)" xlink:href="#391a5914-30a0-4a50-8dd8-beaebdf063bd"/><linearGradient id="7c648494-4776-4984-951f-f91611ac72c0" x1="669.7" y1="535.85" x2="678.7" y2="871.89" gradientTransform="matrix(1, 0, 0, 1, 0, 0)" xlink:href="#aa60fecf-9490-4a94-8652-c011573f799e"/><linearGradient id="5ca54edb-f71d-40f6-9d97-654a5e46f33b" x1="1161.45" y1="25.25" x2="837.42" y2="346.29" gradientTransform="matrix(1, 0, 0, 1, 0, 0)" xlink:href="#391a5914-30a0-4a50-8dd8-beaebdf063bd"/><linearGradient id="7cb593d8-2fb5-4270-a4c8-9d280436a890" x1="-275.22" y1="503.02" x2="221.68" y2="493.34" gradientTransform="matrix(1, 0, 0, 1, 0, 0)" xlink:href="#aa60fecf-9490-4a94-8652-c011573f799e"/><linearGradient id="e919acc8-b558-42e1-937d-ce250b3e65a3" x1="730.99" y1="620.06" x2="821" y2="899.09" gradientTransform="matrix(1, 0, 0, 1, 0, 0)" xlink:href="#aa60fecf-9490-4a94-8652-c011573f799e"/><linearGradient id="e183e286-efa4-4706-8a97-7dde6d2a8875" x1="12963.82" y1="1356.24" x2="13004.41" y2="1100.92" gradientTransform="translate(-11107.11)" xlink:href="#aa60fecf-9490-4a94-8652-c011573f799e"/><linearGradient id="34436174-46e1-47aa-b30a-6dc6e5e0efe5" x1="1800.6" y1="1450.64" x2="1863.6" y2="1729.63" xlink:href="#a1cb9099-047b-4890-bdb2-a4269e6c3496"/><linearGradient id="0734a3e6-68e7-4792-b913-88cf0c8c5048" x1="-665.22" y1="1309.87" x2="-634.15" y2="1309.87" gradientTransform="matrix(-1, 0, 0, 1, 1139.11, 0)" xlink:href="#8c4b0a4f-963d-400a-95c1-e5521b7e8da1"/><linearGradient id="389aa906-15ac-4622-8c85-c07454251d54" x1="-708.22" y1="1227.65" x2="-576.17" y2="1042.57" gradientTransform="matrix(-1, 0, 0, 1, 1139.11, 0)" xlink:href="#a1cb9099-047b-4890-bdb2-a4269e6c3496"/><linearGradient id="fad095ea-cd71-43b6-987f-352994e51d10" x1="1776.12" y1="1165.94" x2="1777.62" y2="1366.93" xlink:href="#a1cb9099-047b-4890-bdb2-a4269e6c3496"/><linearGradient id="d8ebdf05-c18b-41f4-8f4a-afe0496a6ccb" x1="-678.13" y1="1378.11" x2="-594.57" y2="1378.11" gradientTransform="matrix(-1, 0, 0, 1, 1139.11, 0)" xlink:href="#15590775-4b7f-454f-a87a-593c6c13c2ba"/><linearGradient id="b135870c-0769-4467-bbad-f46123aaaca5" x1="-687.69" y1="1338.55" x2="-658.53" y2="1338.55" gradientTransform="matrix(-1, 0, 0, 1, 1139.11, 0)" xlink:href="#8c4b0a4f-963d-400a-95c1-e5521b7e8da1"/><linearGradient id="d1e4a385-0114-48d5-a53d-4eb654ee2a7b" x1="-755.82" y1="1319.88" x2="-748.54" y2="1072.41" gradientTransform="matrix(-1, 0, 0, 1, 1139.11, 0)" xlink:href="#a1cb9099-047b-4890-bdb2-a4269e6c3496"/><linearGradient id="c8c1c516-ed9a-4783-9436-2f37ee1d813b" x1="-575.41" y1="1079.21" x2="-647.15" y2="966.92" gradientTransform="matrix(-1, 0, 0, 1, 1139.11, 0)" xlink:href="#15590775-4b7f-454f-a87a-593c6c13c2ba"/><linearGradient id="67a6c919-50c3-435f-b43e-0eb326523349" x1="-598.58" y1="1002.24" x2="-496.85" y2="1002.24" gradientTransform="matrix(-1, 0, 0, 1, 1139.11, 0)" xlink:href="#8c4b0a4f-963d-400a-95c1-e5521b7e8da1"/><linearGradient id="df848fa4-b208-4538-a691-f2db27a8c966" x1="-645.5" y1="880.41" x2="-874.25" y2="1046.77" gradientTransform="matrix(-1, 0, 0, 1, 1139.11, 0)" xlink:href="#15590775-4b7f-454f-a87a-593c6c13c2ba"/><linearGradient id="c9f6770f-6054-4c67-8054-55ee31ac370a" x1="-695.65" y1="852.11" x2="-628.15" y2="852.11" gradientTransform="matrix(-1, 0, 0, 1, 1139.11, 0)" xlink:href="#8c4b0a4f-963d-400a-95c1-e5521b7e8da1"/><linearGradient id="9e70ac32-2e76-4efc-b18d-770bd429e6f0" x1="-678.31" y1="835.31" x2="-907.06" y2="1001.67" gradientTransform="matrix(-1, 0, 0, 1, 1139.11, 0)" xlink:href="#15590775-4b7f-454f-a87a-593c6c13c2ba"/><linearGradient id="fedf1e02-f7c5-44cd-91db-df6425b69faa" x1="-842.37" y1="938.81" x2="-642.74" y2="927.37" gradientTransform="matrix(-1, 0, 0, 1, 1139.11, 0)" xlink:href="#a1cb9099-047b-4890-bdb2-a4269e6c3496"/><linearGradient id="3c02c923-f67f-47d7-b6d8-2e5e963ca79d" x1="2027.13" y1="912.93" x2="1851.64" y2="1062.93" xlink:href="#8c4b0a4f-963d-400a-95c1-e5521b7e8da1"/><linearGradient id="b1437181-9b21-4c5c-a587-b04991fdb4d1" x1="1895.6" y1="755.78" x2="1765.1" y2="805.28" xlink:href="#8c4b0a4f-963d-400a-95c1-e5521b7e8da1"/><linearGradient id="575b90a5-82b5-4487-b745-c7a35f76df12" x1="-357.02" y1="-904.74" x2="-256.23" y2="-904.74" gradientTransform="matrix(-0.97, -0.25, -0.25, 0.97, 1244.22, 1604.96)" xlink:href="#a1cb9099-047b-4890-bdb2-a4269e6c3496"/><linearGradient id="907d6c7a-25af-4587-b948-074eb7e1ffc3" x1="-416.16" y1="-843.26" x2="-348.48" y2="-912.7" gradientTransform="matrix(-0.97, -0.25, -0.25, 0.97, 1244.22, 1604.96)" xlink:href="#8c4b0a4f-963d-400a-95c1-e5521b7e8da1"/><linearGradient id="113bc36b-471e-4280-afaf-4141f13ae0c4" x1="12869.25" y1="1727.65" x2="12736.93" y2="1763.92" gradientTransform="translate(-11092.35 -91.73) rotate(-2.83)" xlink:href="#a1cb9099-047b-4890-bdb2-a4269e6c3496"/><linearGradient id="c51e6fe7-bf9b-43ab-9f8c-e66021a0df04" x1="12774.83" y1="912.63" x2="12680.94" y2="1011.87" gradientTransform="translate(-11107.11)" xlink:href="#a1cb9099-047b-4890-bdb2-a4269e6c3496"/><linearGradient id="ca085fa7-cf13-4aa8-8804-72cd8e6808a7" x1="1521.97" y1="1224.43" x2="1680.52" y2="1224.43" gradientTransform="matrix(1, 0, 0, 1, 0, 0)" xlink:href="#aa60fecf-9490-4a94-8652-c011573f799e"/><linearGradient id="cd76bdb7-7e2b-43b7-9b36-0b3d8cf9d678" x1="1540.28" y1="1224.43" x2="1698.83" y2="1224.43" gradientTransform="matrix(1, 0, 0, 1, 0, 0)" xlink:href="#aa60fecf-9490-4a94-8652-c011573f799e"/><linearGradient id="4b8da604-ed4d-4478-9e9d-6a3d8b71da72" x1="1970" y1="1224.43" x2="2128.54" y2="1224.43" gradientTransform="matrix(1, 0, 0, 1, 0, 0)" xlink:href="#aa60fecf-9490-4a94-8652-c011573f799e"/><linearGradient id="82f5de4c-69e3-4c13-84b8-0c4d85fe44d0" x1="1988.31" y1="1224.43" x2="2146.85" y2="1224.43" gradientTransform="matrix(1, 0, 0, 1, 0, 0)" xlink:href="#aa60fecf-9490-4a94-8652-c011573f799e"/><linearGradient id="c3a35536-7845-438d-9b60-38398247a39c" x1="1484.59" y1="1058.04" x2="2157.05" y2="1058.04" gradientTransform="matrix(1, 0, 0, 1, 0, 0)" xlink:href="#aa60fecf-9490-4a94-8652-c011573f799e"/><linearGradient id="de47877b-1bc9-4760-8c04-74cdc914d335" x1="160.74" y1="1289" x2="465.97" y2="1024.85" xlink:href="#a1cb9099-047b-4890-bdb2-a4269e6c3496"/><linearGradient id="a104bb0b-c7c8-4b35-bb39-99bf7ca8c20b" x1="343.86" y1="1053.39" x2="649.43" y2="1053.39" gradientTransform="translate(171.23 -64.82) rotate(9.02)" xlink:href="#a5c8f192-f167-4871-94ff-0534702cec16"/><linearGradient id="2587fe8b-6e8e-45a4-ac0f-258eda39a46b" x1="1293.79" y1="1280.2" x2="1633.93" y2="1280.2" gradientTransform="matrix(0.99, -0.16, 0.16, 0.99, -1149.67, 18.45)" xlink:href="#a1cb9099-047b-4890-bdb2-a4269e6c3496"/></defs><title>automation</title><g id="9b8c1679-9e5c-439a-9615-eae709e1d245" data-name="Layer 2"><g id="790a0a51-6908-4370-b4e0-5d90caa0159e" data-name="Illustration"><path d="M2191.07,921.15c-208.19-133.38-198-49.54-165.58-233.77s70.79-709-383.93-686.69S1165.38,274.92,804.12,108-9.1,378.25,233.31,649.53C467.23,911.3-324.92,925.06,201,1281.76c39,26.42,84.25,41.29,131,41.29l1787.16-4.9C2309.8,1317.63,2331.13,1010.89,2191.07,921.15Z" style="fill:url(#a5c8f192-f167-4871-94ff-0534702cec16)"/><path d="M2220.83,695.94c.68-7-10.56-11.51-15.15-6.12-44.34,52.11-166.34,185-294,232-207.9,76.44-395.58,256.73-338.67,407.87C1573,1329.66,2146.86,1454.64,2220.83,695.94Z" style="fill:#bdd0fb"/><path d="M2172.75,776c-1,2-2,3.51-3,5.22l-3.08,4.92-6.3,9.73c-4.25,6.45-8.6,12.83-13,19.2-8.75,12.73-17.79,25.25-26.88,37.74q-27.52,37.29-57,73.08a1695.59,1695.59,0,0,1-125.22,136.67c-22.11,21.63-45.11,42.32-68.59,62.45s-47.92,39.15-72.92,57.36q-37.76,27-77.78,50.59c-13.55,7.48-26.95,15.2-40.88,21.93-13.68,7.23-27.93,13.26-42,19.61a1.14,1.14,0,0,1-1-2.06l0,0a919.46,919.46,0,0,0,81.41-43.52q39.37-24.11,76.58-51.48c24.66-18.4,48.85-37.43,72.19-57.5s45.94-41,68.13-62.31,43.58-43.51,64.51-66.1l15.59-17,15.34-17.27c10.15-11.58,20.28-23.19,30.18-35q29.79-35.32,57.85-72.08c9.33-12.26,18.61-24.56,27.61-37.07q6.76-9.37,13.36-18.85l6.55-9.51,3.2-4.8c1-1.58,2.16-3.31,2.95-4.69l.16-.28a1.12,1.12,0,0,1,2,1.06Z" style="fill:#dce5fe"/><path d="M376.67,190.56C497,242.74,1184.75,575,988.88,1276.41c0,0-509.09-102.19-627.65-1074.36A11.1,11.1,0,0,1,376.67,190.56Z" style="fill:#bdd0fb"/><path d="M442.49,304.68c28.9,30.37,57.14,61.3,85.13,92.48s55.57,62.71,82.81,94.55C664.9,555.38,718,620.28,769,686.78S869.05,821.38,914.34,892q34.12,52.87,64.32,108.22c20,36.91,38.65,74.68,54.2,113.85a4.55,4.55,0,0,1-8.45,3.36v0c-15.17-38.78-33.44-76.37-53.16-113.15s-41-72.81-63.46-108C863,825.58,814.39,757.39,763.85,690.71S660.58,558.95,606.5,495.06q-40.57-47.92-82.24-94.89c-27.79-31.3-55.87-62.37-84.55-92.82h0a1.93,1.93,0,0,1,2.8-2.65Z" style="fill:#dce5fe"/><path d="M723.45,1337.58S705.28,1267,622.3,1227.13c-77-37-264-118.37-318.86-187.12-2.43-3-7.35.6-6.41,4.77,10.07,44.67,43.37,152.71,140.22,229C562.14,1372.24,723.45,1337.58,723.45,1337.58Z" style="fill:#bdd0fb"/><path d="M346.28,1107.89a164.13,164.13,0,0,0,13.55,23.18c2.45,3.74,5.18,7.29,7.84,10.86s5.65,6.91,8.41,10.4a279.64,279.64,0,0,0,38.41,37l5.17,4.2c1.74,1.38,3.58,2.63,5.37,3.95,3.62,2.58,7.16,5.26,10.82,7.77l11.24,7.15c3.68,2.49,7.58,4.62,11.45,6.8s7.71,4.41,11.63,6.49l12,5.82c7.9,4,16.23,7.48,24.38,11.18q24.65,10.78,49.61,20.84c16.64,6.72,33.38,13.2,50.14,19.74,8.39,3.25,16.78,6.5,25.13,9.92q6.28,2.51,12.52,5.15l6.24,2.63,6.18,2.81c8.25,3.7,16.35,7.83,24.26,12.31a125.66,125.66,0,0,1,22,16.09,1.14,1.14,0,0,1-1.48,1.73l0,0a142.46,142.46,0,0,0-22.45-14.27c-8-4-16.12-7.59-24.47-10.82-16.62-6.61-33.61-12.45-50.52-18.59l-25.4-9.19c-8.43-3.18-16.87-6.33-25.27-9.63s-16.78-6.61-25.13-10-16.63-7-24.89-10.63c-33.06-14.22-65.78-31.79-93.11-55.94a256.63,256.63,0,0,1-37.4-39.58,229.67,229.67,0,0,1-15-22.67A143.12,143.12,0,0,1,346,1108a.14.14,0,0,1,.09-.18A.15.15,0,0,1,346.28,1107.89Z" style="fill:#dce5fe"/><path d="M283.74,599.14c-.22-6.88,9-9.49,12.36-3.5,32.92,57.87,124,206.9,223.63,273.23,162.21,108,303.45,313.76,251,451.56C770.75,1320.43,307.34,1349.1,283.74,599.14Z" style="fill:#bdd0fb"/><path d="M320.32,684.33c.57,1.48,1.37,3.24,2.08,4.89l2.27,5,4.66,10,9.52,19.88q9.68,19.8,19.8,39.38,20.14,39.21,41.72,77.64c28.92,51.14,59.25,101.49,92.2,150.1,16.57,24.23,33.28,48.37,51,71.79s35.92,46.42,55.05,68.66,38.87,44,59.82,64.52a854.37,854.37,0,0,0,65.71,58.53h0a1.14,1.14,0,0,1-1.39,1.8,766.22,766.22,0,0,1-67.6-57c-21.39-20.32-41.56-41.86-61.16-63.9A1415.54,1415.54,0,0,1,486.87,995c-16.48-24.44-32.14-49.4-47.44-74.58s-30-50.7-44.05-76.6-27.73-52-40.69-78.41q-9.68-19.85-19-39.89c-3.06-6.7-6.12-13.39-9.08-20.14l-4.37-10.15-2.13-5.1c-.68-1.75-1.39-3.34-2.05-5.33a1.13,1.13,0,0,1,2.12-.76Z" style="fill:#dce5fe"/><path d="M1640.54,50.28a47.51,47.51,0,0,0-34.1-14.4l-973.1.57a47.51,47.51,0,0,0-47.46,49l38.57,1243.09c.8,25.65,21.82,45.54,47.48,45.54h898c25.69,0,46.73-19.93,47.49-45.62L1654,84.53A46.94,46.94,0,0,0,1640.54,50.28Z" style="fill:url(#a1cb9099-047b-4890-bdb2-a4269e6c3496)"/><path d="M1597.49,107.49a43.42,43.42,0,0,0-31.17-13.16l-889.42.52a43.42,43.42,0,0,0-43.37,44.76l35.26,1136c.73,23.44,19.94,41.58,43.4,41.58H1533c23.48,0,42.71-18.18,43.4-41.65l33.38-1136.82A42.85,42.85,0,0,0,1597.49,107.49Z" style="fill:url(#1d9d0096-a3af-488e-9cd9-c62bb3e2a3b2)"/><circle cx="1119.92" cy="219.01" r="96.21" style="fill:url(#15590775-4b7f-454f-a87a-593c6c13c2ba)"/><circle cx="1122.2" cy="219.01" r="89.39" style="fill:url(#10caf8a7-3ec0-4e5f-a1f4-aeeaadb5604a)"/><circle cx="1119.92" cy="1168.99" r="96.21" style="fill:url(#a871757e-e835-4785-9f27-64788c6b74eb)"/><circle cx="1122.2" cy="1168.99" r="89.39" style="fill:url(#fe7f9800-e3ed-43b2-bdaf-41d272d7b4f0)"/><rect x="1041.38" y="472.65" width="157.09" height="157.09" transform="translate(-62.72 950.44) rotate(-44.86)" style="fill:url(#391a5914-30a0-4a50-8dd8-beaebdf063bd)"/><rect x="1047.81" y="479.07" width="144.23" height="144.23" transform="translate(-62.72 950.44) rotate(-44.86)" style="fill:url(#aa60fecf-9490-4a94-8652-c011573f799e)"/><path d="M1515.79,821.8a61.36,61.36,0,0,1-61.36,61.36h-79.54a61.36,61.36,0,0,1-61.36-61.36h0a61.36,61.36,0,0,1,61.36-61.36h79.54a61.36,61.36,0,0,1,61.36,61.36Z" style="fill:url(#0a20c720-ed01-4ab0-995c-0f2eed8f55b5)"/><path d="M1507.42,821.8A56.44,56.44,0,0,1,1451,878.61h-73.83a56.44,56.44,0,0,1-56.46-56.82h0A56.44,56.44,0,0,1,1377.13,765H1451a56.44,56.44,0,0,1,56.46,56.82Z" style="fill:url(#8465c404-0361-40be-9b22-755607a71eb1)"/><path d="M1222.62,821.8a61.36,61.36,0,0,1-61.36,61.36h-79.54a61.36,61.36,0,0,1-61.36-61.36h0a61.36,61.36,0,0,1,61.36-61.36h79.54a61.36,61.36,0,0,1,61.36,61.36Z" style="fill:url(#4ed42504-cd74-48df-b0c9-336156b1db2f)"/><path d="M1214.24,821.8a56.44,56.44,0,0,1-56.46,56.82H1084a56.44,56.44,0,0,1-56.46-56.82h0A56.44,56.44,0,0,1,1084,765h73.83a56.44,56.44,0,0,1,56.46,56.82Z" style="fill:url(#6ca90f6f-458a-4b59-a89d-90c9d22dccdd)"/><path d="M922.62,821.8a61.36,61.36,0,0,1-61.36,61.36H781.71a61.36,61.36,0,0,1-61.36-61.36h0a61.36,61.36,0,0,1,61.36-61.36h79.54a61.36,61.36,0,0,1,61.36,61.36Z" style="fill:url(#29f80b78-2437-403f-b0da-c1bfa3e72fd4)"/><path d="M914.24,821.8a56.44,56.44,0,0,1-56.46,56.82H784a56.44,56.44,0,0,1-56.46-56.82h0A56.44,56.44,0,0,1,784,765h73.83a56.44,56.44,0,0,1,56.46,56.82Z" style="fill:url(#77075c12-789b-414d-ac42-3dc45ff5587e)"/><path d="M1121.48,418.39a3.41,3.41,0,0,1-3.41-3.41V328.62a3.41,3.41,0,1,1,6.82,0V415A3.41,3.41,0,0,1,1121.48,418.39Z" style="fill:url(#71f95968-7f65-44b7-847f-b166ccba4204)"/><polygon points="1133.88 401.35 1119.92 425.53 1105.96 401.35 1133.88 401.35" style="fill:url(#bd26a072-3bb2-41b8-854a-567694d8fc0c)"/><path d="M1121.48,738.84a3.41,3.41,0,0,1-3.41-3.41V671.8a3.41,3.41,0,0,1,6.82,0v63.64A3.41,3.41,0,0,1,1121.48,738.84Z" style="fill:url(#1cc9dc65-f32b-4658-bb6b-bbeeddcbfa51)"/><polygon points="1133.88 721.8 1119.92 745.98 1105.96 721.8 1133.88 721.8" style="fill:url(#34d2d4da-36c7-483f-867e-845e11f47cca)"/><path d="M1116.94,1045.66a3.41,3.41,0,0,1-3.41-3.41V958.16a3.41,3.41,0,0,1,6.82,0v84.09A3.41,3.41,0,0,1,1116.94,1045.66Z" style="fill:url(#49b61994-af02-4674-8743-3b334592985c)"/><polygon points="1130.39 1028.61 1116.43 1052.79 1102.47 1028.61 1130.39 1028.61" style="fill:url(#6ceeddc7-5ca8-4be8-a890-bdae38c2fdbf)"/><path d="M810.12,716.12a3.41,3.41,0,0,1-3.41-3.41V550.21a3.41,3.41,0,0,1,3.41-3.41h187.5a3.41,3.41,0,1,1,0,6.82H813.53V712.71A3.41,3.41,0,0,1,810.12,716.12Z" style="fill:url(#3b090f5b-1324-45f0-a438-3d7bb07fdaf4)"/><polygon points="822.52 710.43 808.57 734.62 794.6 710.43 822.52 710.43" style="fill:url(#7916eda3-e6f9-4210-8830-28db4904789b)"/><path d="M1435.11,716.12a3.41,3.41,0,0,1-3.41-3.41V553.62H1247.62a3.41,3.41,0,1,1,0-6.82h187.5a3.41,3.41,0,0,1,3.41,3.41v162.5A3.41,3.41,0,0,1,1435.11,716.12Z" style="fill:url(#bec49522-45a7-4e19-b599-e5af15107d86)"/><polygon points="1421.54 710.43 1435.5 734.62 1449.46 710.43 1421.54 710.43" style="fill:url(#c3424cbb-61cc-49ff-883b-49ce9532a9af)"/><path d="M1432.84,960.43h-625a3.41,3.41,0,0,1-3.41-3.41V896.8a3.41,3.41,0,1,1,6.82,0v56.82h618.17V896.8a3.41,3.41,0,1,1,6.82,0V957A3.41,3.41,0,0,1,1432.84,960.43Z" style="fill:url(#57f018bb-9de0-4694-9d57-c3d777aa5cab)"/><rect x="688.53" y="151.35" width="263.63" height="29.55" rx="14.39" ry="14.39" style="fill:url(#d9e1a59d-d0c1-4218-af0f-096dd7b35de9)"/><rect x="688.53" y="217.26" width="263.63" height="29.55" rx="14.39" ry="14.39" style="fill:url(#6f14ad01-0a2c-4ce1-8f5f-f536d3f56f30)"/><path d="M1807.67,304.42a5.36,5.36,0,0,1-4.62-2.65L1792,282.87a106.81,106.81,0,0,1-30.35-6l-17.43,13.3a5.36,5.36,0,0,1-6.22.2l-23.76-15.8a5.36,5.36,0,0,1-2.22-5.82l5.53-21.22a106.89,106.89,0,0,1-17.25-25.68L1678.51,219a5.37,5.37,0,0,1-4.54-4.25l-5.63-28a5.37,5.37,0,0,1,2.55-5.69l18.9-11.09a106.85,106.85,0,0,1,6-30.35l-13.3-17.43a5.37,5.37,0,0,1-.2-6.23l15.8-23.76A5.37,5.37,0,0,1,1703.9,90l21.22,5.53a106.8,106.8,0,0,1,25.68-17.25l2.92-21.72A5.37,5.37,0,0,1,1758,52l28-5.63a5.37,5.37,0,0,1,5.68,2.54l11.09,18.9a106.85,106.85,0,0,1,30.35,6l17.43-13.3a5.38,5.38,0,0,1,6.22-.2l23.76,15.8a5.36,5.36,0,0,1,2.22,5.82l-5.53,21.22a106.85,106.85,0,0,1,17.25,25.68l21.72,2.92a5.37,5.37,0,0,1,4.54,4.26l5.63,28a5.37,5.37,0,0,1-2.55,5.69l-18.9,11.09a106.85,106.85,0,0,1-6,30.35l13.3,17.43a5.37,5.37,0,0,1,.2,6.22l-15.8,23.76a5.36,5.36,0,0,1-5.82,2.22l-21.22-5.53a106.83,106.83,0,0,1-25.68,17.25L1841,294.15a5.37,5.37,0,0,1-4.26,4.54l-28,5.63A5.39,5.39,0,0,1,1807.67,304.42Zm-47.23-35.22,1.76.66a100.1,100.1,0,0,0,31.86,6.28l1.88.06,12.46,21.23,25.94-5.22,3.28-24.4,1.71-.78a100,100,0,0,0,27-18.11l1.37-1.29,23.84,6.21,14.65-22-14.94-19.58.66-1.76a100.06,100.06,0,0,0,6.28-31.86l.06-1.88,21.24-12.46-5.22-25.94-24.4-3.28-.78-1.71a100.09,100.09,0,0,0-18.11-27l-1.29-1.37,6.21-23.84-22-14.65-19.58,14.94-1.76-.66a100.12,100.12,0,0,0-31.86-6.28l-1.88-.06-12.46-21.24-25.94,5.22-3.28,24.4-1.71.78a100.06,100.06,0,0,0-27,18.11L1727,103l-23.84-6.21-14.65,22,14.94,19.58-.66,1.76a100.06,100.06,0,0,0-6.28,31.86l-.06,1.88-21.24,12.46,5.22,25.94,24.4,3.28.78,1.71a100.12,100.12,0,0,0,18.11,27l1.29,1.37-6.21,23.84,22,14.65Zm-81-57Zm118.29,35.71a72.32,72.32,0,0,1-70.7-58,72.89,72.89,0,0,1-1.42-15.32,3.45,3.45,0,0,1,3.46-3.36,3.41,3.41,0,0,1,3.36,3.46,65.94,65.94,0,0,0,1.29,13.88,65.42,65.42,0,1,0,20.14-61.35,3.41,3.41,0,0,1-4.59-5,72.27,72.27,0,1,1,62.86,124.33A73,73,0,0,1,1797.72,247.91Z" style="fill:#91b3fa"/><path d="M1797.38,204.08a28.78,28.78,0,0,1-26-16.35h0a28.75,28.75,0,1,1,26,16.35Zm-19.83-19.29a21.93,21.93,0,1,0,10.33-29.24,22,22,0,0,0-10.33,29.24Z" style="fill:#91b3fa"/><path d="M1983.13,338.83a4.34,4.34,0,0,1-1.25-.18l-13.14-4a4.35,4.35,0,0,1-3.09-4l-.38-9.59a53.14,53.14,0,0,1-10.45-8.53l-9.47,1.54a4.36,4.36,0,0,1-4.53-2.23l-6.5-12.09a4.36,4.36,0,0,1,.63-5l6.51-7.05a53.12,53.12,0,0,1-1.35-13.42l-7.79-5.61a4.35,4.35,0,0,1-1.62-4.78l4-13.14a4.35,4.35,0,0,1,4-3.09l9.6-.38a53.18,53.18,0,0,1,8.53-10.45l-1.54-9.47a4.35,4.35,0,0,1,2.23-4.53l12.09-6.5a4.35,4.35,0,0,1,5,.63l7.05,6.51a52.8,52.8,0,0,1,13.42-1.35l5.61-7.79a4.35,4.35,0,0,1,4.78-1.62l13.14,4a4.35,4.35,0,0,1,3.09,4l.38,9.59a53.15,53.15,0,0,1,10.45,8.53l9.47-1.54a4.35,4.35,0,0,1,4.53,2.23l6.5,12.09a4.35,4.35,0,0,1-.64,5l-6.5,7a53.16,53.16,0,0,1,1.35,13.42l7.79,5.61a4.36,4.36,0,0,1,1.62,4.78l-4,13.14a4.35,4.35,0,0,1-4,3.09l-9.6.38a53.17,53.17,0,0,1-8.53,10.45l1.54,9.47a4.35,4.35,0,0,1-2.23,4.53l-12.09,6.5a4.36,4.36,0,0,1-5-.63l-7.05-6.51a53.12,53.12,0,0,1-13.42,1.35l-5.61,7.79A4.34,4.34,0,0,1,1983.13,338.83Zm-2-5.79h0Zm-8.74-4.37,9.77,2.94,6.76-9.38,1.88.12a46.61,46.61,0,0,0,15-1.5l1.82-.49,8.49,7.84,9-4.83-1.85-11.41,1.41-1.25a46.41,46.41,0,0,0,9.51-11.66l.94-1.63,11.55-.46,2.94-9.77-9.38-6.76.12-1.88a46.41,46.41,0,0,0-1.5-15l-.49-1.82,7.84-8.49-4.83-9-11.41,1.85-1.25-1.41a46.38,46.38,0,0,0-11.66-9.51l-1.63-.94-.46-11.55-9.77-2.94-6.76,9.38-1.88-.12a46.4,46.4,0,0,0-15,1.5l-1.82.49-8.49-7.84-9,4.83,1.85,11.41-1.41,1.25a46.4,46.4,0,0,0-9.51,11.66l-.94,1.63-11.55.46-2.94,9.77,9.38,6.76-.12,1.88a46.35,46.35,0,0,0,1.5,15l.49,1.82-7.84,8.49,4.83,9,11.41-1.85,1.25,1.41a46.38,46.38,0,0,0,11.66,9.51l1.63.94Zm-27.59-17.91h0ZM2047.33,252h0ZM1994,312.3a36.6,36.6,0,0,1-35.16-26.45,3.41,3.41,0,1,1,6.55-1.89,29.94,29.94,0,0,0,2.39,5.86,29.7,29.7,0,1,0,.66-29.31,3.41,3.41,0,0,1-5.86-3.49A36.52,36.52,0,1,1,1994,312.3Z" style="fill:#91b3fa"/><path d="M2119.24,877.41l-357-31.68a28.16,28.16,0,0,1-25.67-27.9l-1.32-240.69a28.16,28.16,0,0,1,30.11-28.25l380.12,26.45a28.16,28.16,0,0,1,26.09,30.58l-21.82,245.92A28.16,28.16,0,0,1,2119.24,877.41Z" style="fill:#7d97f4"/><path d="M1756.2,600.44l-2.36,207.82a17.42,17.42,0,0,0,15.69,17.53l342.3,34A17.42,17.42,0,0,0,2130.91,844l19.72-222.21a17.42,17.42,0,0,0-16.4-18.93l-359.66-19.6A17.42,17.42,0,0,0,1756.2,600.44Z" style="fill:#bdd0fb"/><path d="M1918.47,782l193.72,11.37a3.53,3.53,0,0,1,3.31,3.83l-.28,3.11a3.53,3.53,0,0,1-3.78,3.21L1918,789a3.53,3.53,0,0,1-3.25-3.83h0A3.53,3.53,0,0,1,1918.47,782Z" style="fill:#91b3fa"/><path d="M1913.32,801.42l-.12,1.33a3.53,3.53,0,0,0,3.2,3.82l193.21,17.15a3.53,3.53,0,0,0,3.82-3.2l.12-1.33a3.53,3.53,0,0,0-3.2-3.82l-193.21-17.15A3.53,3.53,0,0,0,1913.32,801.42Z" style="fill:#91b3fa"/><path d="M1970.42,823.94l-.05.58a3.53,3.53,0,0,0,3.2,3.82l134.57,11.94a3.53,3.53,0,0,0,3.82-3.2l.24-2.74a3.53,3.53,0,0,0-3.26-3.83l-134.76-9.79A3.53,3.53,0,0,0,1970.42,823.94Z" style="fill:#91b3fa"/><path d="M2089.31,791.42,1668,782.85a33.11,33.11,0,0,1-32.35-30.67l-20.82-282.23a33.11,33.11,0,0,1,33.06-35.54l448,.59A33.11,33.11,0,0,1,2129,468.77L2123.09,759A33.11,33.11,0,0,1,2089.31,791.42Z" style="fill:#7d97f4"/><path d="M1641.28,495.6l13.87,244A20.48,20.48,0,0,0,1675,758.87l404.26,12.47a20.48,20.48,0,0,0,21.1-20.05L2105.66,489a20.48,20.48,0,0,0-20.75-20.89L1661.44,474A20.48,20.48,0,0,0,1641.28,495.6Z" style="fill:#bdd0fb"/><path d="M1846.17,695.59l228.15-2.18a4.15,4.15,0,0,1,4.19,4.23l-.07,3.67a4.15,4.15,0,0,1-4.17,4.06l-228.08-1.49a4.15,4.15,0,0,1-4.12-4.23h0A4.15,4.15,0,0,1,1846.17,695.59Z" style="fill:#7d97f4"/><rect x="1954.88" y="603.78" width="9.86" height="236.35" rx="4.15" ry="4.15" transform="translate(1198.18 2666.69) rotate(-88.84)" style="fill:#7d97f4"/><path d="M1910.46,740.62v.69a4.15,4.15,0,0,0,4.06,4.23l158.81,3.23a4.15,4.15,0,0,0,4.23-4.06l.07-3.23a4.15,4.15,0,0,0-4.13-4.23l-158.86-.69A4.15,4.15,0,0,0,1910.46,740.62Z" style="fill:#7d97f4"/><path d="M2025.08,736.05H1557.7a36.72,36.72,0,0,1-36.56-33.28l-29.46-312.51a36.72,36.72,0,0,1,35.86-40.16l496.83-9.46a36.72,36.72,0,0,1,37.42,36.72v322A36.72,36.72,0,0,1,2025.08,736.05Z" style="fill:url(#8d8ab3ac-8808-49cf-9ab6-68dce147fe6a)"/><path d="M1521.56,418.12l20.89,270.23a22.71,22.71,0,0,0,22.41,21l448.58,4.7a22.71,22.71,0,0,0,23-22.71V400.37a22.71,22.71,0,0,0-23.49-22.7l-469.47,16A22.71,22.71,0,0,0,1521.56,418.12Z" style="fill:url(#806737f5-7ed1-4f0f-8589-87eb04d630fa)"/><path d="M1761,415.65l253-7.57a4.6,4.6,0,0,1,4.74,4.6v4.07a4.6,4.6,0,0,1-4.54,4.6l-253,3.49a4.6,4.6,0,0,1-4.66-4.6h0A4.6,4.6,0,0,1,1761,415.65Z" style="fill:#7d97f4"/><rect x="1756.57" y="436.85" width="262.16" height="10.93" rx="4.6" ry="4.6" style="fill:#7d97f4"/><path d="M1694.79,668.93a2.06,2.06,0,0,1-2.06-2.06l0-6.19a2.06,2.06,0,0,1,2.06-2.07h0a2.06,2.06,0,0,1,2.06,2.06l0,6.19a2.06,2.06,0,0,1-2.06,2.07Zm-.05-20.64a2.06,2.06,0,0,1-2.06-2.06l0-6.19a2.06,2.06,0,0,1,2.06-2.07h0a2.06,2.06,0,0,1,2.06,2.06l0,6.19a2.06,2.06,0,0,1-2.06,2.07Zm-.05-20.64a2.06,2.06,0,0,1-2.06-2.06l0-6.19a2.06,2.06,0,0,1,2.06-2.07h0a2.06,2.06,0,0,1,2.06,2.06l0,6.19a2.06,2.06,0,0,1-2.06,2.07Zm-.05-20.64a2.06,2.06,0,0,1-2.06-2.06l0-6.19a2.06,2.06,0,0,1,2.06-2.07h0a2.06,2.06,0,0,1,2.06,2.06l0,6.19a2.06,2.06,0,0,1-2.06,2.07Z" style="fill:#7d97f4"/><path d="M1798.45,663a2.06,2.06,0,0,1-2.06-2.06v-6.19a2.06,2.06,0,0,1,4.13,0V661A2.06,2.06,0,0,1,1798.45,663Zm0-20.64a2.06,2.06,0,0,1-2.06-2.06v-6.19a2.06,2.06,0,0,1,4.13,0v6.19A2.06,2.06,0,0,1,1798.45,642.41Zm0-20.64a2.06,2.06,0,0,1-2.06-2.06v-6.19a2.06,2.06,0,0,1,4.13,0v6.19A2.06,2.06,0,0,1,1798.45,621.77Zm0-20.64a2.06,2.06,0,0,1-2.06-2.06v-6.19a2.06,2.06,0,0,1,4.13,0v6.19A2.06,2.06,0,0,1,1798.45,601.13Zm0-20.64a2.06,2.06,0,0,1-2.06-2.06v-6.19a2.06,2.06,0,1,1,4.13,0v6.19A2.06,2.06,0,0,1,1798.45,580.49Z" style="fill:#7d97f4"/><path d="M1877.51,680.1a2.06,2.06,0,0,1-2.06-2l-.11-3.7a2.07,2.07,0,0,1,2-2.13,2,2,0,0,1,2.13,2l.11,3.7a2.07,2.07,0,0,1-2,2.13Zm-.56-18.13a2.06,2.06,0,0,1-2.06-2l-.19-6.19a2.06,2.06,0,1,1,4.13-.13l.19,6.19a2.07,2.07,0,0,1-2,2.13Zm-.64-20.63a2.06,2.06,0,0,1-2.06-2l-.19-6.19a2.06,2.06,0,0,1,2-2.13,2.12,2.12,0,0,1,2.13,2l.19,6.19a2.06,2.06,0,0,1-2,2.13Zm-.64-20.63a2.06,2.06,0,0,1-2.06-2l-.19-6.19a2.06,2.06,0,1,1,4.13-.13l.19,6.19a2.06,2.06,0,0,1-2,2.13Zm-.64-20.63a2.06,2.06,0,0,1-2.06-2l-.19-6.19a2.06,2.06,0,1,1,4.13-.13l.19,6.19a2.07,2.07,0,0,1-2,2.13Zm-.64-20.63a2.06,2.06,0,0,1-2.06-2l-.19-6.19a2.07,2.07,0,0,1,2-2.13,2,2,0,0,1,2.13,2l.19,6.19a2.07,2.07,0,0,1-2,2.13Zm-.64-20.63a2.06,2.06,0,0,1-2.06-2l-.19-6.19a2.07,2.07,0,0,1,2-2.13,2,2,0,0,1,2.13,2l.19,6.19a2.07,2.07,0,0,1-2,2.13Z" style="fill:#7d97f4"/><path d="M1952.66,668.55a2.06,2.06,0,0,1-2.06-2.06v-6.19a2.06,2.06,0,0,1,4.13,0v6.19A2.06,2.06,0,0,1,1952.66,668.55Zm0-20.64a2.06,2.06,0,0,1-2.06-2.06v-6.19a2.06,2.06,0,0,1,4.13,0v6.19A2.06,2.06,0,0,1,1952.66,647.91Zm0-20.64a2.06,2.06,0,0,1-2.06-2.06V619a2.06,2.06,0,0,1,4.13,0v6.19A2.06,2.06,0,0,1,1952.66,627.27Zm0-20.64a2.06,2.06,0,0,1-2.06-2.06v-6.19a2.06,2.06,0,0,1,4.13,0v6.19A2.06,2.06,0,0,1,1952.66,606.63Zm0-20.64a2.06,2.06,0,0,1-2.06-2.06v-6.19a2.06,2.06,0,0,1,4.13,0v6.19A2.06,2.06,0,0,1,1952.66,586Zm0-20.64a2.06,2.06,0,0,1-2.06-2.06V557.1a2.06,2.06,0,1,1,4.13,0v6.19A2.06,2.06,0,0,1,1952.66,565.36Zm0-20.64a2.06,2.06,0,0,1-2.06-2.06v-6.19a2.06,2.06,0,0,1,4.13,0v6.19A2.06,2.06,0,0,1,1952.66,544.72Zm0-20.64a2.06,2.06,0,0,1-2.06-2.06v-6.19a2.06,2.06,0,1,1,4.13,0V522A2.06,2.06,0,0,1,1952.66,524.08Zm0-20.64a2.06,2.06,0,0,1-2.06-2.06v-6.19a2.06,2.06,0,1,1,4.13,0v6.19A2.06,2.06,0,0,1,1952.66,503.44Z" style="fill:#7d97f4"/><path d="M1583.84,692.91a3.1,3.1,0,0,1-3.08-2.83L1559.6,440.22a3.1,3.1,0,1,1,6.17-.52l21.16,249.86a3.1,3.1,0,0,1-2.82,3.35Z" style="fill:#7d97f4"/><polygon points="1553.27 453.13 1562.84 441.78 1574.18 451.36 1573.43 442.48 1562.09 432.91 1552.51 444.25 1553.27 453.13" style="fill:#7d97f4"/><path d="M2003.13,681.13H1567.79a3.1,3.1,0,0,1,0-6.19h435.34a3.1,3.1,0,0,1,0,6.19Z" style="fill:#7d97f4"/><polygon points="1990.8 688.53 2001.3 678.03 1990.8 667.54 1999.71 667.54 2010.21 678.03 1999.71 688.53 1990.8 688.53" style="fill:#7d97f4"/><path d="M1601.95,609.34a3.1,3.1,0,0,1-.4-6.17c2.29-.3,230.22-31.52,355-123.52a3.1,3.1,0,1,1,3.67,5c-126.07,93-355.56,124.37-357.86,124.68Z" style="fill:#7d97f4"/><path d="M1959.34,498.61h-.25a3.1,3.1,0,0,1-2.84-3.33l1-12.16-17.14-1a3.1,3.1,0,0,1-2.91-3.27,3.06,3.06,0,0,1,3.27-2.91l20.29,1.2a3.09,3.09,0,0,1,2.9,3.33l-1.2,15.31A3.1,3.1,0,0,1,1959.34,498.61Z" style="fill:#7d97f4"/><path d="M131.47,1364.88H563.32a24.93,24.93,0,0,0,24.93-24.93V693.15a24.93,24.93,0,0,0-24.87-24.93L128.09,667a24.93,24.93,0,0,0-25,25.07l3.45,648A24.93,24.93,0,0,0,131.47,1364.88Z" style="fill:url(#62b48a24-c149-4201-8cec-a0181f803f88)"/><path d="M152.64,699l386.13,2.38a25.3,25.3,0,0,1,25.14,25.42l-2.69,580.52a25.3,25.3,0,0,1-24.84,25.18l-375.18,6.85a25.3,25.3,0,0,1-25.76-24.94l-8.26-589.75A25.3,25.3,0,0,1,152.64,699Z" style="fill:#91b3fa"/><rect x="168.34" y="723.92" width="312.65" height="17.8" rx="7.57" ry="7.57" style="fill:url(#23dfa7cf-8aef-46e5-b04e-2232e913e929)"/><path d="M201.53,765h0a7.57,7.57,0,0,0,7.42,7.16l260.19,4.74a7.57,7.57,0,0,0,7.71-7.57v-.62a7.57,7.57,0,0,0-7.45-7.57L209.21,757A7.57,7.57,0,0,0,201.53,765Z" style="fill:url(#aac39269-63bd-481f-af98-2d2aff4a4223)"/><path d="M175,1320.43a22.58,22.58,0,0,1-22.52-22.12L144,823.51a22.56,22.56,0,0,1,22.08-22.92l351.31-6.84a22.52,22.52,0,0,1,23,22.09l9.06,477.41a22.52,22.52,0,0,1-22.25,22.95l-351.92,4.22ZM517.85,802.84h-.27l-351.31,6.84a13.45,13.45,0,0,0-13.17,13.67h0l8.44,474.8A13.47,13.47,0,0,0,175,1311.34h.16l351.92-4.22a13.43,13.43,0,0,0,13.27-13.68L531.27,816a13.44,13.44,0,0,0-13.42-13.18Z" style="fill:url(#ffef447e-75e0-4437-b0bf-4ae9d505091e)"/><path d="M536.39,850.61H153.12a4.55,4.55,0,0,1,0-9.09H536.39a4.55,4.55,0,0,1,0,9.09Z" style="fill:url(#38ef176e-cebb-474a-8d50-1a08acafccc2)"/><rect x="188.58" y="1096.12" width="47.76" height="173.43" rx="4.82" ry="4.82" style="opacity:0.6000000000000001;fill:url(#f37dcbb0-fd60-4b81-b16f-43e5e908edaa)"/><path d="M353.36,1075.38h-38c-2.66,0-4.87,2.56-4.87,5.55v182.88c0,3,2.21,5.74,4.87,5.74h38a6,6,0,0,0,5.5-5.74V1080.93A5.84,5.84,0,0,0,353.36,1075.38Z" style="opacity:0.6000000000000001;fill:url(#bd7a599e-8edd-49ce-88bc-82c5ddf3cfa0)"/><rect x="248.27" y="1042.08" width="47.76" height="227.47" rx="4.82" ry="4.82" style="opacity:0.6000000000000001;fill:url(#e9bf55a8-2a71-4649-9588-66ad3bb1bceb)"/><rect x="455" y="964.79" width="47.76" height="304.75" rx="4.82" ry="4.82" style="opacity:0.6000000000000001;fill:url(#06f7ce7e-2500-4031-86ac-db91f6e8593a)"/><rect x="384" y="1006.89" width="47.76" height="262.65" rx="4.82" ry="4.82" style="opacity:0.6000000000000001;fill:url(#daf06401-a99e-4442-8190-408b0cc77f7f)"/><g style="opacity:0.6000000000000001"><polygon points="210.81 1037.62 209.9 1035.97 273.46 1001.24 332.54 1027.21 383.27 977.45 383.37 977.39 442.94 942.24 443.9 943.86 384.43 978.96 332.95 1029.45 273.55 1003.34 210.81 1037.62" style="fill:url(#55f95a6f-5f08-429c-8848-0c4104b24fa5)"/><circle cx="210.35" cy="1036.8" r="6.84" style="fill:url(#74024cae-376f-4304-9b72-2857f48e5805)"/><circle cx="273.5" cy="1002.29" r="6.84" style="fill:url(#fb1188dd-c6b8-4921-8aa1-40808f2c24f3)"/><circle cx="332.75" cy="1027.03" r="6.84" style="fill:url(#edd76743-269e-46f3-b15e-20752c1a59d3)"/><circle cx="382.22" cy="978.2" r="6.84" style="fill:url(#1a1f7640-5e85-4514-bbf3-bd0761f7246d)"/><circle cx="443.42" cy="943.05" r="6.84" style="fill:url(#6684a0ba-6649-4ca3-bcbc-99312c60d979)"/></g><path d="M366.54,1162.88l3,177.11a25.21,25.21,0,0,0,25.21,24.79H742.33a25.21,25.21,0,0,0,25.21-25.21V1173.8a25.21,25.21,0,0,0-24.4-25.2l-350.59-11.35A25.21,25.21,0,0,0,366.54,1162.88Z" style="fill:url(#59974f59-fea5-4049-81be-e39d2351f4a2)"/><path d="M395.31,1180.14,402.85,1343a11.57,11.57,0,0,0,11.76,11l316.54-5.57a11.57,11.57,0,0,0,11.37-11.57V1195.65a11.57,11.57,0,0,0-11-11.56l-324.08-16A11.57,11.57,0,0,0,395.31,1180.14Z" style="fill:url(#8c4b0a4f-963d-400a-95c1-e5521b7e8da1)"/><path d="M420.55,1195.41v11.73a7.4,7.4,0,0,0,7.52,7.4l273-4.45a7.4,7.4,0,0,0,7.28-7.4h0a7.4,7.4,0,0,0-7.21-7.4l-273-7.28A7.4,7.4,0,0,0,420.55,1195.41Z" style="fill:url(#fe34b55e-e74b-48f1-87e5-99b891708a2a)"/><path d="M424.63,1239.73v10.76a7.4,7.4,0,0,0,7.66,7.4l260-9.06a7.4,7.4,0,0,0,7.15-7.4v-3.36a7.4,7.4,0,0,0-7.45-7.4l-260,1.65A7.4,7.4,0,0,0,424.63,1239.73Z" style="fill:url(#5d45e99b-fe6c-49ec-9ac5-c94569e36cd3)"/><path d="M108.21,416.51a61.73,61.73,0,0,1,37.74,12.82L168.06,398a98.6,98.6,0,0,0-57.75-18.59c-2.85,0-5.71.16-8.55.41l5.68,36.67Z" style="fill:#7d97f4"/><path d="M108.21,540.55c-34.25,0-69-25.52-69-59.77,0-34,34.27-63.8,68.27-64.25l-5.68-36.67C49.94,384.5,0,430.26,0,482.13c0,54.72,55.59,95.49,110.31,95.49a98.68,98.68,0,0,0,40.27-8.56L128.31,537.2A61.91,61.91,0,0,1,108.21,540.55Z" style="fill:url(#b8136cef-6bb8-4cff-927b-7e530b422243)"/><path d="M209.39,478.53A98.93,98.93,0,0,0,168.06,398l-22.11,31.29A62,62,0,0,1,128.31,537.2l22.27,31.86A99.08,99.08,0,0,0,209.39,478.53Z" style="fill:url(#e2d4b85e-1e1d-4374-921a-dedf4d68a596)"/><path d="M391,416.51a62,62,0,0,1,55.53,34.41l25.56-32.19a98.92,98.92,0,0,0-79-39.28c-25.31,0-50.79,10.27-70.88,26.71l22.64,28.58C357.66,423.58,374.38,416.51,391,416.51Z" style="fill:url(#e0da03b4-4214-4c20-a3dc-738e2d037fc5)"/><path d="M321.93,480.78c0-17.65,9.25-34.17,22.9-46l-22.64-28.58c-23.36,19.11-39.43,46.56-39.43,76,0,54,54.19,94.43,108.23,95.44l-1.74-37.06C355.57,539.68,321.93,514.47,321.93,480.78Z" style="fill:url(#a0587eea-d4a8-4fe1-833e-bfda4febac72)"/><path d="M391,540.55c-.57,0-1.14,0-1.71,0L391,577.57c.69,0,1.38,0,2.08,0a99.05,99.05,0,0,0,88.16-53.88c-9.48-4.28-23.55-10.4-35.72-15.66A62,62,0,0,1,391,540.55Z" style="fill:url(#c4247e80-9632-4d5b-b16c-4bae9588e425)"/><path d="M472.06,418.72,446.5,450.92a62.06,62.06,0,0,1-1,57.16c12.17,5.26,26.24,11.38,35.72,15.66a99,99,0,0,0-9.18-105Z" style="fill:url(#bbf7f628-f56f-46a8-a7c1-c63433bb74f0)"/><path d="M673.74,416.51a61.71,61.71,0,0,1,35.56,11.22l20-32.62a98.58,98.58,0,0,0-53.45-15.67c-26.17,0-52.53,11-72.92,28.42l23.71,27.71C639.58,423.93,656.72,416.51,673.74,416.51Z" style="fill:url(#7c648494-4776-4984-951f-f91611ac72c0)"/><path d="M735.65,475l38.6-7.8a99,99,0,0,0-45-72l-20,32.62A61.94,61.94,0,0,1,735.65,475Z" style="fill:url(#5ca54edb-f71d-40f6-9d97-654a5e46f33b)"/><path d="M604.69,480.78c0-17.24,8.82-33.4,21.94-45.2l-23.71-27.71c-22.24,19-37.39,45.71-37.39,74.26,0,35.46,23.35,65,54.66,81.48l19.37-31.47C619.63,521.91,604.69,503.22,604.69,480.78Z" style="fill:url(#7cb593d8-2fb5-4270-a4c8-9d280436a890)"/><path d="M735.65,475c.07,1.18.11,2.37.11,3.56a62,62,0,0,1-62,62,75.59,75.59,0,0,1-34.18-8.42l-19.37,31.47a120.84,120.84,0,0,0,55.65,14,99,99,0,0,0,98.41-110.45Z" style="fill:url(#e919acc8-b558-42e1-937d-ce250b3e65a3)"/><path d="M130.6,394.93a5.06,5.06,0,0,0,3.49-1.39l69-65.32a32,32,0,0,1,22.11-8.81H459.9a5.08,5.08,0,0,0,0-10.16H225.17a42.15,42.15,0,0,0-29.1,11.59l-69,65.32a5.08,5.08,0,0,0,3.49,8.77Z" style="fill:#7d97f4"/><path d="M261.21,287.9H459.9a5.08,5.08,0,0,0,0-10.16H261.21a5.08,5.08,0,0,0,0,10.16Z" style="fill:#7d97f4"/><path d="M293.54,256.4H459.9a5.08,5.08,0,0,0,0-10.16H293.54a5.08,5.08,0,0,0,0,10.16Z" style="fill:#7d97f4"/><path d="M1640.19,196.92l11.4-.34a2.27,2.27,0,0,1,.13,4.53h0l-11.29.34h-.07a2.27,2.27,0,0,1-.14-4.54Z" style="fill:#7d97f4"/><path d="M1663,196.42l11.38,0a2.26,2.26,0,0,1,0,4.52h0l-11.33,0h0a2.26,2.26,0,1,1,0-4.53Z" style="fill:#7d97f4"/><path d="M1685.73,196.46l11.38.18a2.25,2.25,0,0,1-.07,4.5h0l-11.34-.17h0a2.25,2.25,0,0,1,.07-4.51Z" style="fill:#7d97f4"/><path d="M1708.48,196.93l11.37.39a2.24,2.24,0,0,1-.15,4.48h0l-11.33-.38h0a2.24,2.24,0,1,1,.15-4.49Z" style="fill:#7d97f4"/><path d="M1731.22,197.82l11.36.6a2.23,2.23,0,1,1-.24,4.46h0l-11.32-.59h0a2.24,2.24,0,0,1,.23-4.47Z" style="fill:#7d97f4"/><path d="M1753.95,199.13l11.35.82a2.22,2.22,0,1,1-.32,4.43h0l-11.31-.8h0a2.23,2.23,0,0,1,.32-4.44Z" style="fill:#7d97f4"/><path d="M1776.64,200.87l11.34,1a2.21,2.21,0,1,1-.4,4.41h0l-11.29-1h0a2.22,2.22,0,0,1,.4-4.42Z" style="fill:#7d97f4"/><path d="M1799.3,203.07l11.31,1.28a2.2,2.2,0,0,1-.5,4.38h0l-11.27-1.27h0a2.21,2.21,0,1,1,.49-4.39Z" style="fill:#7d97f4"/><path d="M1821.91,205.76l11.28,1.54a2.19,2.19,0,1,1-.59,4.35h0l-11.23-1.53h0a2.2,2.2,0,0,1,.59-4.36Z" style="fill:#7d97f4"/><path d="M1844.46,209l11.24,1.83a2.18,2.18,0,0,1-.7,4.31h0l-11.19-1.81h0a2.19,2.19,0,1,1,.7-4.32Z" style="fill:#7d97f4"/><path d="M1866.93,212.78l11.19,2.14a2.18,2.18,0,0,1-.82,4.27h0l-11.13-2.12h0a2.18,2.18,0,0,1,.81-4.28Z" style="fill:#7d97f4"/><path d="M1889.28,217.23l11.12,2.49a2.17,2.17,0,1,1-.95,4.23h0l-11.06-2.46h0a2.17,2.17,0,0,1,.94-4.24Z" style="fill:#7d97f4"/><path d="M1911.49,222.39l11,2.88a2.16,2.16,0,0,1-1.09,4.17h0l-11-2.85h0a2.16,2.16,0,1,1,1.09-4.18Z" style="fill:#7d97f4"/><path d="M1933.51,228.37l10.92,3.33a2.15,2.15,0,0,1-1.25,4.11h0l-10.83-3.29h0a2.15,2.15,0,1,1,1.25-4.12Z" style="fill:#7d97f4"/><path d="M1955.26,235.27l10.76,3.84a2.14,2.14,0,0,1-1.44,4l-.05,0-10.66-3.79-.05,0a2.14,2.14,0,0,1,1.44-4Z" style="fill:#7d97f4"/><path d="M1976.67,243.24l10.53,4.43a2.13,2.13,0,0,1-1.65,3.93l-.06,0-10.42-4.38-.06,0a2.13,2.13,0,1,1,1.65-3.93Z" style="fill:#7d97f4"/><path d="M1997.6,252.44l10.23,5.13a2.12,2.12,0,0,1-1.9,3.79l-.07,0-10.09-5.05-.07,0a2.12,2.12,0,0,1,1.9-3.8Z" style="fill:#7d97f4"/><path d="M2017.86,263.09l9.8,5.94a2.11,2.11,0,0,1-2.19,3.61l-.08,0-9.64-5.83-.08,0a2.12,2.12,0,1,1,2.19-3.62Z" style="fill:#7d97f4"/><path d="M2037.22,275.25l9.43,6.42a2.1,2.1,0,0,1-2.37,3.47l0,0-9.36-6.36,0,0a2.11,2.11,0,1,1,2.37-3.48Z" style="fill:#7d97f4"/><path d="M2055.94,288.31l9.12,6.87a2.09,2.09,0,1,1-2.52,3.34l0,0-9-6.79,0,0a2.1,2.1,0,1,1,2.52-3.35Z" style="fill:#7d97f4"/><path d="M2074,302.29l8.72,7.39a2.08,2.08,0,1,1-2.69,3.18l-.05,0-8.63-7.3-.05,0a2.09,2.09,0,0,1,2.7-3.19Z" style="fill:#7d97f4"/><path d="M2091.19,317.37l8.18,8a2.07,2.07,0,1,1-2.9,3l-.06-.06-8.07-7.89-.06-.06a2.08,2.08,0,1,1,2.91-3Z" style="fill:#7d97f4"/><path d="M2107.2,333.74l7.42,8.75a2.06,2.06,0,1,1-3.15,2.67l-.07-.08-7.29-8.58-.07-.08a2.07,2.07,0,0,1,3.15-2.68Z" style="fill:#7d97f4"/><path d="M2121.56,351.65l6.34,9.6a2.05,2.05,0,0,1-3.43,2.26l-.08-.12-6.2-9.36-.08-.12a2.06,2.06,0,1,1,3.43-2.27Z" style="fill:#7d97f4"/><path d="M2133.53,371.3l4.77,10.51a2,2,0,0,1-3.72,1.69l-.08-.17-4.63-10.17-.07-.16a2,2,0,0,1,3.73-1.7Z" style="fill:#7d97f4"/><path d="M2142.06,392.74a104.51,104.51,0,0,1,2.59,11.29,2,2,0,0,1-4,.69,100.42,100.42,0,0,0-2.5-10.85,2,2,0,0,1,3.92-1.13Z" style="fill:#7d97f4"/><path d="M2145.92,415.55a95.18,95.18,0,0,1-.12,11.6,2,2,0,0,1-4-.29,91.23,91.23,0,0,0,.11-11.11,2,2,0,1,1,4.06-.21Z" style="fill:#7d97f4"/><path d="M2144.28,438.65a102.28,102.28,0,0,1-2.85,11.23,2,2,0,0,1-3.85-1.21,98.13,98.13,0,0,0,2.73-10.79,2,2,0,0,1,4,.77Z" style="fill:#7d97f4"/><path d="M2137.38,460.71l-5.08,10.36a2,2,0,0,1-3.6-1.77l.08-.16,4.91-10,.08-.17a2,2,0,0,1,3.61,1.77Z" style="fill:#7d97f4"/><path d="M2126.35,480.94l-6.68,9.37a2,2,0,0,1-3.26-2.32l.08-.11,6.5-9.14.08-.12a2,2,0,1,1,3.27,2.32Z" style="fill:#7d97f4"/><path d="M2112.4,499.19l-7.76,8.44a2,2,0,1,1-2.93-2.69l.07-.08,7.61-8.29.07-.08a2,2,0,0,1,2.94,2.7Z" style="fill:#7d97f4"/><path d="M2096.47,515.66l-8.51,7.65a2,2,0,1,1-2.65-2.95l.06-.05,8.38-7.54.06-.06a2,2,0,0,1,2.66,3Z" style="fill:#7d97f4"/><path d="M2079.17,530.62l-8.91,7.05h0a2,2,0,0,1-2.45-3.09l8.9-7.06h0a2,2,0,1,1,2.46,3.1Z" style="fill:#7d97f4"/><path d="M2061.44,544.81l-8.69,7.28,0,0a2,2,0,0,1-2.52-3l8.74-7.33a2,2,0,0,1,2.53,3h0Z" style="fill:#7d97f4"/><path d="M2044.2,559.53l-8.36,7.63,0,0a2,2,0,0,1-2.63-2.89l8.43-7.7a2,2,0,1,1,2.64,2.89h0Z" style="fill:#7d97f4"/><path d="M2027.7,575l-7.84,8.13-.06.06a1.94,1.94,0,0,1-2.8-2.7l7.94-8.25a1.95,1.95,0,1,1,2.81,2.7h0Z" style="fill:#7d97f4"/><path d="M2012.42,591.61l-6.91,8.87-.08.11a1.93,1.93,0,0,1-3.05-2.38l7.06-9.08a1.94,1.94,0,1,1,3.06,2.38h0Z" style="fill:#7d97f4"/><path d="M1999.34,609.82a94,94,0,0,0-5.14,9.87,1.93,1.93,0,0,1-3.52-1.56,97.85,97.85,0,0,1,5.34-10.29,1.93,1.93,0,0,1,3.32,2Z" style="fill:#7d97f4"/><path d="M1990.47,630.11a62.77,62.77,0,0,0-2,10.83,1.92,1.92,0,0,1-3.82-.35,66.6,66.6,0,0,1,2.08-11.49,1.92,1.92,0,0,1,3.71,1Z" style="fill:#7d97f4"/><path d="M1988.48,652a76.4,76.4,0,0,0,1.75,10.94,1.91,1.91,0,0,1-3.72.87,80.2,80.2,0,0,1-1.85-11.48,1.91,1.91,0,0,1,3.81-.32Z" style="fill:#7d97f4"/><path d="M1993.36,673.6l4.07,10.46,0,.11a1.9,1.9,0,0,1-3.54,1.38l-4.17-10.7a1.9,1.9,0,0,1,3.54-1.38h0Z" style="fill:#7d97f4"/><path d="M2002.09,694.34l5,10.16,0,0a1.89,1.89,0,0,1-3.39,1.67l-5-10.23a1.89,1.89,0,1,1,3.4-1.67h0Z" style="fill:#7d97f4"/><path d="M2012.2,714.7l4.39,10.66a1.88,1.88,0,1,1-3.47,1.43l-.06-.15-4.27-10.34-.07-.17a1.88,1.88,0,0,1,3.48-1.44Z" style="fill:#7d97f4"/><path d="M2020.12,736.28l2.81,11.12a1.87,1.87,0,0,1-3.63.92l0-.11-2.76-10.9,0-.11a1.87,1.87,0,0,1,3.63-.92Z" style="fill:#7d97f4"/><path d="M2025.08,758.66l1.53,11.36a1.86,1.86,0,0,1-3.69.5v-.1l-1.51-11.16v-.1a1.87,1.87,0,1,1,3.7-.5Z" style="fill:#7d97f4"/><path d="M2027.53,781.44l.31,11.45a1.85,1.85,0,1,1-3.7.1v-.1l-.32-11.25v-.1a1.86,1.86,0,1,1,3.71-.1Z" style="fill:#7d97f4"/><path d="M2027.55,804.34l-.9,11.42a1.84,1.84,0,1,1-3.67-.29v-.1l.88-11.23v-.1a1.85,1.85,0,0,1,3.68.29Z" style="fill:#7d97f4"/><path d="M2025.13,827.12,2023,838.37a1.83,1.83,0,0,1-3.6-.68l0-.1,2.08-11.06,0-.1a1.84,1.84,0,0,1,3.61.68Z" style="fill:#7d97f4"/><path d="M2020.25,849.5l-3.35,11a1.82,1.82,0,1,1-3.49-1.07l0-.09,3.28-10.77,0-.1a1.83,1.83,0,0,1,3.5,1.07Z" style="fill:#7d97f4"/><path d="M2012.95,871.21l-4.54,10.52a1.81,1.81,0,1,1-3.33-1.44l0-.09,4.45-10.34,0-.09a1.82,1.82,0,0,1,3.34,1.44Z" style="fill:#7d97f4"/><path d="M2003.31,892l-5.64,10a1.81,1.81,0,1,1-3.14-1.78l0-.08,5.54-9.81,0-.08a1.81,1.81,0,1,1,3.15,1.78Z" style="fill:#7d97f4"/><path d="M1991.51,911.61l-6.64,9.32a1.8,1.8,0,0,1-2.93-2.09l.05-.07,6.53-9.18.05-.07a1.8,1.8,0,1,1,2.94,2.09Z" style="fill:#7d97f4"/><path d="M1977.77,929.91l-7.52,8.63a1.79,1.79,0,1,1-2.7-2.35l.05-.06,7.4-8.51.06-.06a1.79,1.79,0,1,1,2.7,2.35Z" style="fill:#7d97f4"/><path d="M1962.35,946.81l-8.26,7.91a1.78,1.78,0,1,1-2.46-2.57l.05-.05,8.14-7.81.06-.05a1.78,1.78,0,1,1,2.47,2.57Z" style="fill:#7d97f4"/><path d="M1945.5,962.27l-8.87,7.2a1.77,1.77,0,1,1-2.23-2.75l.05,0,8.76-7.12.05,0a1.77,1.77,0,1,1,2.24,2.75Z" style="fill:#7d97f4"/><path d="M1927.49,976.32l-9.38,6.52a1.76,1.76,0,1,1-2-2.89l0,0,9.27-6.45.05,0a1.76,1.76,0,1,1,2,2.9Z" style="fill:#7d97f4"/><path d="M1908.52,989l-9.79,5.88a1.75,1.75,0,0,1-1.8-3l0,0,9.69-5.83,0,0a1.76,1.76,0,1,1,1.81,3Z" style="fill:#7d97f4"/><path d="M1888.77,1000.48l-10.11,5.28a1.74,1.74,0,1,1-1.61-3.09l0,0,10-5.24,0,0a1.75,1.75,0,1,1,1.62,3.09Z" style="fill:#7d97f4"/><path d="M1868.42,1010.77,1858,1015.5a1.73,1.73,0,1,1-1.44-3.15l0,0,10.29-4.71,0,0a1.74,1.74,0,0,1,1.45,3.16Z" style="fill:#7d97f4"/><path d="M1847.56,1020l-10.58,4.24a1.72,1.72,0,0,1-1.28-3.2h0l10.51-4.22h0a1.73,1.73,0,0,1,1.29,3.21Z" style="fill:#7d97f4"/><path d="M1826.3,1028.23l-10.75,3.78a1.71,1.71,0,1,1-1.14-3.23h0l10.68-3.77h0a1.72,1.72,0,1,1,1.14,3.24Z" style="fill:#7d97f4"/><polygon points="1600.37 167.43 1606.4 204.2 1578.9 192.47 1600.37 167.43" style="fill:#7d97f4"/><path d="M1431.56,173.43l113.58,70.82a9.43,9.43,0,0,0,13.17-3.32l66.81-116.72a3.78,3.78,0,0,0-4.33-5.51Z" style="fill:#91b3fa"/><polygon points="1600.36 167.44 1431.56 173.43 1589.64 186.31 1591.74 196.43 1600.36 167.44" style="fill:#7d97f4"/><polygon points="1583.19 197.44 1606.4 204.2 1589.64 186.31 1583.19 197.44" style="fill:#7d97f4"/><rect x="1877.61" y="1164.88" width="17.67" height="191.09" style="fill:#7d97f4"/><path d="M1963.83,1359.65H1809.07v-8.81a2.69,2.69,0,0,1,2.69-2.69h149.17a2.9,2.9,0,0,1,2.9,2.9Z" style="fill:#7d97f4"/><rect x="1786.3" y="1119.37" width="206.8" height="58.65" rx="20.2" ry="20.2" style="fill:url(#e183e286-efa4-4706-8a97-7dde6d2a8875)"/><path d="M1788,1322.12s-50.46,36.37-41.7,60.8c0,0,55.21-23.82,61.88-42.58s-1.13-27.05-1.13-27.05Z" style="fill:url(#34436174-46e1-47aa-b30a-6dc6e5e0efe5)"/><path d="M1795.61,1291.64l8.25,23.85a8.29,8.29,0,0,1-3.22,9.73,21.66,21.66,0,0,1-6.83,2.64,9.66,9.66,0,0,1-10.68-4.85l-9.87-18.58Z" style="fill:url(#0734a3e6-68e7-4792-b913-88cf0c8c5048)"/><path d="M1875.9,1076.95s-103.64,18-148.1,59,40.81,172.07,40.81,172.07,14-.09,30.9-14.6c0,0-50.55-98.53-7-127.26,49-32.3,105.43-39.58,105.43-39.58l-21.05-46.5Z" style="fill:url(#389aa906-15ac-4622-8c85-c07454251d54)"/><path d="M1755.1,1369.41c11.1-5.14,42.52-27.13,47.81-28.1s14.48,5.25,14.48,5.25,2.23,4-.16,11c-7.37,8.92-23.75,25.93-45.76,32.27-16.19,4.66-27.52.32-34.57-4.77A46.78,46.78,0,0,1,1755.1,1369.41Z" style="fill:url(#fad095ea-cd71-43b6-987f-352994e51d10)"/><path d="M1771.48,1389.86c22-6.34,38.39-23.35,45.76-32.27-1.62,4.74-5.34,10.84-13.3,18-19.74,17.74-57.43,24.13-65.46,22.9-6.43-1-5.83-6.92-1.58-13.39C1744,1390.18,1755.29,1394.52,1771.48,1389.86Z" style="fill:url(#d8ebdf05-c18b-41f4-8f4a-afe0496a6ccb)"/><path d="M1826.81,1331c-.12,3.06-6.37,13.54-10,19.43a9.52,9.52,0,0,1-8.07,4.51,24.51,24.51,0,0,1-6.67-.8,6.18,6.18,0,0,1-4.15-7.69l7.14-24.37Z" style="fill:url(#b135870c-0769-4467-bbad-f46123aaaca5)"/><path d="M1975.67,1045.84s23,61.54,0,80.26-77.92,39.79-90.19,77.07-33.08,109.73-60.94,135.38c0,0-19.57-1.9-26.9-9.69,0,0,15.86-108.15,26.33-135.9,9.06-24,22.41-58.72,48-78.11,7.32-5.55,6-14.34,2.65-22.88l-6.18-15.55Z" style="fill:url(#d1e4a385-0114-48d5-a53d-4eb654ee2a7b)"/><path d="M1735.62,997.6c38.59,2.33,26.57-59.33,25.87-61.78l58.57,41.37s-3.1,33-51.8,50.27a60.52,60.52,0,0,1-33.54,2.43A53.28,53.28,0,0,0,1735.62,997.6Z" style="fill:url(#c8c1c516-ed9a-4783-9436-2f37ee1d813b)"/><path d="M1661,979c14.38-10,30.67,0,30.67,0,19.23,12.58,33.45,17.92,43.95,18.56a53.28,53.28,0,0,1-.89,32.29c-21.54-4.63-37-20.22-43.65-28.22a7,7,0,0,0-9.63-1.05c-3,2.36-5.9,5.6-5.38,9,1,6.72-6.76,8.86-7.35,6.42s2.67-16.89,2.67-16.89-15.6,15.68-21.68,21.71-13.74,0-13.74,0S1646.62,989,1661,979Z" style="fill:url(#67a6c919-50c3-435f-b43e-0eb326523349)"/><path d="M1915.57,840.61s-56.14-22.48-160.63,63.78c0,0-8.73,18.07.79,34.14S1856,1033,1868.44,1076.41c0,0,54,17.56,109.94-24.08C1978.38,1052.33,1973.44,931.41,1915.57,840.61Z" style="fill:url(#df848fa4-b208-4538-a691-f2db27a8c966)"/><path d="M1804.57,820.55l27.64,33.51a11,11,0,0,1,1.45,11.83c-3.84,7.83-12.94,19.22-33.13,17.64a17,17,0,0,1-13.95-9.51l-19.33-40Z" style="fill:url(#c9f6770f-6054-4c67-8054-55ee31ac370a)"/><path d="M1959,984.11c6.52-26.54-59.5-85.72-59.5-85.72l16-57.78s142.56,94.9,106.23,171.22c-5.21,10.94-12.12,18.6-20.14,23.73C1990.17,1004.65,1971.88,990.48,1959,984.11Z" style="fill:url(#9e70ac32-2e76-4efc-b18d-770bd429e6f0)"/><path d="M1959.08,980.24a1.56,1.56,0,0,0,1.51-1.19c6.66-27.14-57.25-84.81-60-87.25a1.56,1.56,0,0,0-2.08,2.32c.65.58,65.25,58.85,59,84.19a1.56,1.56,0,0,0,1.52,1.93Z" style="fill:url(#fedf1e02-f7c5-44cd-91db-df6425b69faa)"/><path d="M1859,981.82s78.27,30.39,97.38,7.53a12.82,12.82,0,0,0,2.61-5.25c12.84,6.38,31.14,20.55,42.62,51.45-41.17,26.31-111.53-14.63-130.56-26.7a14.21,14.21,0,0,0-10.51-1.93c-7.34,1.52-20,3.76-26.85,2.71-10-1.54-24.37,33.74-40.58,22.86C1793.14,1032.49,1807,971.16,1859,981.82Z" style="fill:url(#3c02c923-f67f-47d7-b6d8-2e5e963ca79d)"/><path d="M1744.44,771.33c-.28,1.08,6.48,74.32,6.48,74.32l41.74-4.75,3.91-70.37S1749.09,753.3,1744.44,771.33Z" style="fill:url(#b1437181-9b21-4c5c-a587-b04991fdb4d1)"/><path d="M1785.69,785.12l.84,37.21a5.13,5.13,0,0,1-.16,1.4c-.73,2.83-3.94,12.38-13.51,8.5-8.69-3.52-16.66-6.61-22.53-5.5a5.19,5.19,0,0,0-4.21,5.58c.62,6.65,2.28,21.62,5.71,34.41a5.18,5.18,0,0,0,5.92,3.73c8-1.4,24.7-4.84,37.51-10.75a5.2,5.2,0,0,0,3-4.37c.63-9.3,2.63-37.56,4.41-45.35,1.67-7.31,11.24-10.75,15.36-11.91a5.11,5.11,0,0,0,3.14-2.53c2.33-4.38,6-14.71-6.87-20.52a5.21,5.21,0,0,1-2.54-7.05c2.58-5.29,4.34-13.61-5.49-19.37-10-5.86-18.45-1.12-23.19,3a5.2,5.2,0,0,1-6.67.05,4.11,4.11,0,0,0-4.67-.35,5.12,5.12,0,0,1-7-3c-1.95-5.44-6.47-11.53-16.95-10.9-18.59,1.12-22.88,21.12-19.37,33.5s23.6,10,34.09,5.12c8-3.72,17.14,2.1,21.08,5.11A5.15,5.15,0,0,1,1785.69,785.12Z" style="fill:url(#575b90a5-82b5-4487-b745-c7a35f76df12)"/><path d="M1802.88,823.53s-5.2-21.83,3.08-26.13,19.4-.37,15.21,14.57C1816,830.56,1802.88,823.53,1802.88,823.53Z" style="fill:url(#907d6c7a-25af-4587-b948-074eb7e1ffc3)"/><path d="M1818.94,1041.75h-.38l-164.23-.18a7.35,7.35,0,1,1,0-14.7l164.23.18a7.35,7.35,0,0,1,.36,14.69Z" style="fill:url(#113bc36b-471e-4280-afaf-4141f13ae0c4)"/><path d="M1506.7,892.64h136.77A26.07,26.07,0,0,1,1667,907.59l63.23,134.07h-170a15.84,15.84,0,0,1-14.73-10l-49-124.07A10.92,10.92,0,0,1,1506.7,892.64Z" style="fill:url(#c51e6fe7-bf9b-43ab-9f8c-e66021a0df04)"/><path d="M1528.87,1394a7.08,7.08,0,0,1-2.72-.55,6.6,6.6,0,0,1-3.61-8.78l144.74-325.74a7,7,0,0,1,9.07-3.5,6.6,6.6,0,0,1,3.61,8.78l-144.74,325.74A6.91,6.91,0,0,1,1528.87,1394Z" style="fill:url(#ca085fa7-cf13-4aa8-8804-72cd8e6808a7)"/><path d="M1691.93,1394a6.91,6.91,0,0,1-6.34-4L1540.85,1064.2a6.6,6.6,0,0,1,3.61-8.78,7,7,0,0,1,9.07,3.5l144.74,325.74a6.6,6.6,0,0,1-3.61,8.78A7.08,7.08,0,0,1,1691.93,1394Z" style="fill:url(#cd76bdb7-7e2b-43b7-9b36-0b3d8cf9d678)"/><path d="M1976.9,1394a7.09,7.09,0,0,1-2.72-.55,6.6,6.6,0,0,1-3.61-8.78l144.74-325.74a7,7,0,0,1,9.07-3.5,6.6,6.6,0,0,1,3.61,8.78l-144.74,325.74A6.92,6.92,0,0,1,1976.9,1394Z" style="fill:url(#4b8da604-ed4d-4478-9e9d-6a3d8b71da72)"/><path d="M2140,1394a6.91,6.91,0,0,1-6.34-4L1988.87,1064.2a6.6,6.6,0,0,1,3.61-8.78,7,7,0,0,1,9.07,3.5l144.74,325.74a6.6,6.6,0,0,1-3.61,8.78A7.08,7.08,0,0,1,2140,1394Z" style="fill:url(#82f5de4c-69e3-4c13-84b8-0c4d85fe44d0)"/><path d="M2156.93,1048.86a7.94,7.94,0,0,0-1.37-6,6.26,6.26,0,0,0-5-2.65H1492.08a7.34,7.34,0,0,0-6.31,3.87,9.27,9.27,0,0,0-.49,8l7.14,17.29a10,10,0,0,0,9.07,6.49H2146c3.62,0,6.74-2.88,7.43-6.86Z" style="fill:url(#c3a35536-7845-438d-9b60-38398247a39c)"/><path d="M366.73,1142.64,78.62,1302.45a23.7,23.7,0,0,0-8.28,33.8l1.25,1.89a22,22,0,0,0,30.65,6.15l275.1-184.46Z" style="fill:url(#de47877b-1bc9-4760-8c04-74cdc914d335)"/><ellipse cx="496.65" cy="1053.39" rx="152.83" ry="150.07" transform="translate(-158.96 90.86) rotate(-9.02)" style="opacity:0.42;fill:url(#a104bb0b-c7c8-4b35-bb39-99bf7ca8c20b)"/><path d="M470.47,888.47C377.71,903.19,314.24,989,328.69,1080s101.37,153,194.13,138.27,156.24-100.49,141.78-191.58S563.23,873.75,470.47,888.47ZM519,1194.09c-79.13,12.56-153.28-40.26-165.61-118s41.82-150.88,121-163.44,153.28,40.26,165.61,118S598.11,1181.54,519,1194.09Z" style="fill:url(#2587fe8b-6e8e-45a4-ac0f-258eda39a46b)"/><path d="M344.52,1098.46a1.14,1.14,0,0,1-1.09-.82c-1.12-3.82-2.1-7.75-2.92-11.66a1.14,1.14,0,1,1,2.22-.47c.81,3.86,1.78,7.72,2.88,11.49a1.14,1.14,0,0,1-1.09,1.46Zm-6.17-46.3h0a1.14,1.14,0,0,1-1.11-1.16,153.82,153.82,0,0,1,4.14-32.45h0C356.25,956,407.57,908.92,472.1,898.68a161.1,161.1,0,0,1,88.42,10.75,1.14,1.14,0,0,1-.89,2.09,158.82,158.82,0,0,0-87.18-10.6C408.84,911,358.25,957.4,343.57,1019.08h0a151.49,151.49,0,0,0-4.08,32A1.14,1.14,0,0,1,338.36,1052.16Z" style="fill:#bdd0fb"/><path d="M90.85,1341.69l-.2,0c-12.6-2.23-16.49-8.85-17.54-14a18.41,18.41,0,0,1,9.08-19.4l34.44-20.14a1.14,1.14,0,0,1,1.15,2l-34.44,20.14a16.14,16.14,0,0,0-8,17c1.32,6.49,6.61,10.6,15.71,12.22a1.14,1.14,0,0,1-.2,2.25Z" style="fill:#bdd0fb"/><path d="M127.82,1284a1.14,1.14,0,0,1-.57-2.12l4.46-2.61a1.14,1.14,0,0,1,1.15,2l-4.46,2.61A1.14,1.14,0,0,1,127.82,1284Z" style="fill:#bdd0fb"/></g></g></svg>