<svg xmlns="http://www.w3.org/2000/svg" width="3041.76" height="1706.87" viewBox="0 0 3041.76 1706.87"><title>careers_1</title><g id="fcecdcec-907a-4de5-8f76-106f8591dbed" data-name="Layer 2"><g id="99ef70b6-0853-42e9-832b-7290074f90e3" data-name="Слой 1"><path d="M441.1,158.23C856.58,4,1278.85,140.35,1565.24,437.36s887.43-205,1206.2,91.52c217.54,202.36,117.9,722.64-180.39,948-405.44,306.29-1638.42,150.88-1905.14,98.75C378.64,1515.56,154,1333.36,62.73,1112.22-157.2,579.38,257.5,226.39,441.1,158.23Z" style="fill:#e7f3fe"/><path d="M1861.21,372.51a344.58,344.58,0,0,0,2.15-38.29c0-6.83-.22-13.61-.62-20.34l-63.28-20.47a278.12,278.12,0,0,0-22.4-75.82L1819,166a341.8,341.8,0,0,0-33.24-48.31l-63.29,20.65a281.23,281.23,0,0,0-62.65-48.16l3.6-66.49a338.57,338.57,0,0,0-55.24-19.58L1569.13,58a281.35,281.35,0,0,0-79-2.07L1453.95,0a338.42,338.42,0,0,0-56.21,16.61l.08,66.59A280.71,280.71,0,0,0,1332.71,128l-62.09-24a342.37,342.37,0,0,0-35.75,46.49l39.18,53.79a278.13,278.13,0,0,0-26.41,74.52l-64.26,17.1a344.57,344.57,0,0,0-2.15,38.29c0,6.83.22,13.61.62,20.34L1245.12,375a278.14,278.14,0,0,0,22.4,75.82l-42,51.63a341.8,341.8,0,0,0,33.24,48.31l63.29-20.65a281.18,281.18,0,0,0,62.65,48.16l-3.6,66.49a338.51,338.51,0,0,0,55.24,19.58l39.08-53.93a281.4,281.4,0,0,0,79,2.07l36.18,55.92a338.41,338.41,0,0,0,56.21-16.61l-.08-66.59a280.72,280.72,0,0,0,65.11-44.79l62.09,24a342.32,342.32,0,0,0,35.75-46.49l-39.18-53.79A278.11,278.11,0,0,0,1797,389.61ZM1522.29,468a133.78,133.78,0,1,1,133.78-133.77A133.78,133.78,0,0,1,1522.29,468Z" style="fill:#9ec8ff"/><path d="M1704.75,486.79a5,5,0,0,1-3.84-8.2,226.32,226.32,0,0,0,39.88-218,5,5,0,0,1,9.46-3.26A236.32,236.32,0,0,1,1708.6,485,5,5,0,0,1,1704.75,486.79Z" style="fill:#fff"/><path d="M1685.38,171a5,5,0,0,1-3.43-1.36,224.62,224.62,0,0,0-77.78-47.93,5,5,0,1,1,3.41-9.4,234.58,234.58,0,0,1,81.23,50,5,5,0,0,1-3.43,8.64Z" style="fill:#fff"/><path d="M1470.41,115.29a5,5,0,0,1-1.22-9.85,236.86,236.86,0,0,1,57.92-7.16,5,5,0,0,1,0,10,226.84,226.84,0,0,0-55.47,6.86A5,5,0,0,1,1470.41,115.29Z" style="fill:#fff"/><path d="M786,1219.55a238.71,238.71,0,0,0,1.49-26.52c0-4.73-.16-9.43-.43-14.09l-43.83-14.18a192.66,192.66,0,0,0-15.52-52.51l29.06-35.76a236.76,236.76,0,0,0-23-33.46l-43.83,14.3A194.8,194.8,0,0,0,646.55,1024L649,977.91a234.54,234.54,0,0,0-38.26-13.56l-27.07,37.35a194.93,194.93,0,0,0-54.72-1.43l-25.06-38.73A234.48,234.48,0,0,0,465,973l.06,46.12a194.44,194.44,0,0,0-45.1,31l-43-16.59a237.25,237.25,0,0,0-24.77,32.2L379.33,1103a192.67,192.67,0,0,0-18.3,51.61l-44.51,11.84A238.71,238.71,0,0,0,315,1193c0,4.73.16,9.43.43,14.09l43.83,14.18a192.61,192.61,0,0,0,15.52,52.51l-29.06,35.76a236.74,236.74,0,0,0,23,33.46l43.83-14.3A194.75,194.75,0,0,0,456,1362.09l-2.49,46.05a234.44,234.44,0,0,0,38.26,13.56l27.07-37.35a194.83,194.83,0,0,0,54.72,1.43l25.06,38.73a234.39,234.39,0,0,0,38.93-11.5l-.06-46.12a194.42,194.42,0,0,0,45.1-31l43,16.59a237.13,237.13,0,0,0,24.77-32.2L723.22,1283a192.65,192.65,0,0,0,18.3-51.61Zm-234.75,66.13A92.66,92.66,0,1,1,643.93,1193,92.66,92.66,0,0,1,551.27,1285.68Z" style="fill:#9ec8ff"/><path d="M677.65,1300.24a5,5,0,0,1-3.84-8.2,155.22,155.22,0,0,0,27.35-149.5,5,5,0,0,1,9.46-3.26,165.22,165.22,0,0,1-29.11,159.15A5,5,0,0,1,677.65,1300.24Z" style="fill:#fff"/><path d="M664.23,1081.54a5,5,0,0,1-3.43-1.36,154.06,154.06,0,0,0-53.35-32.87,5,5,0,1,1,3.41-9.4,164,164,0,0,1,56.79,35,5,5,0,0,1-3.43,8.64Z" style="fill:#fff"/><path d="M515.33,1042.92a5,5,0,0,1-1.22-9.85,165.58,165.58,0,0,1,40.5-5,5,5,0,0,1,0,10,155.59,155.59,0,0,0-38,4.7A5,5,0,0,1,515.33,1042.92Z" style="fill:#fff"/><path d="M2065.46,627.28q0-3.88-.21-7.7l32.84-26.37a174.89,174.89,0,0,0-11.93-37.72l-42.4-3.21a141.07,141.07,0,0,0-36.7-38.95l-.14-42.25a175,175,0,0,0-37.6-14.5l-29,31.19a141,141,0,0,0-52.11,4.09L1855,465.53a176.05,176.05,0,0,0-35.15,20.38l6.29,41.89a140.58,140.58,0,0,0-29.6,43.2l-41.34,9.58a176,176,0,0,0-6.11,39.85l36.41,21.05a139.39,139.39,0,0,0,15.57,51.45l-18.23,38.18a177.24,177.24,0,0,0,26.79,29.15l39-15.29a139.5,139.5,0,0,0,51.48,20.42l18.4,37.89c2.19.08,4.39.14,6.61.14a177.15,177.15,0,0,0,32.29-3l12.41-40.13a140.18,140.18,0,0,0,48.45-28.12l41,9.22a176.54,176.54,0,0,0,21.86-32.29l-23.78-34.93A140.09,140.09,0,0,0,2065.46,627.28Zm-141.87,61.83A59.11,59.11,0,1,1,1982.7,630,59.11,59.11,0,0,1,1923.59,689.11Z" style="fill:#9ec8ff"/><g style="opacity:0.8"><path d="M2611.85,286.76h-50.8a35.62,35.62,0,0,1-35.58-35.58v-50.8a35.62,35.62,0,0,1,35.58-35.58h50.8a35.62,35.62,0,0,1,35.58,35.58v50.8A35.62,35.62,0,0,1,2611.85,286.76Zm-50.8-108a21.6,21.6,0,0,0-21.58,21.58v50.8a21.6,21.6,0,0,0,21.58,21.58h50.8a21.6,21.6,0,0,0,21.58-21.58v-50.8a21.6,21.6,0,0,0-21.58-21.58Z" style="fill:#9ec8ff"/></g><g style="opacity:0.8"><path d="M2372.82,286.76H2322a35.62,35.62,0,0,1-35.58-35.58v-50.8A35.62,35.62,0,0,1,2322,164.8h50.8a35.62,35.62,0,0,1,35.58,35.58v50.8A35.62,35.62,0,0,1,2372.82,286.76Zm-50.8-108a21.6,21.6,0,0,0-21.58,21.58v50.8A21.6,21.6,0,0,0,2322,272.76h50.8a21.6,21.6,0,0,0,21.58-21.58v-50.8a21.6,21.6,0,0,0-21.58-21.58Z" style="fill:#9ec8ff"/></g><path d="M2350.59,257.18h-.29a6,6,0,0,1-4.47-2.34l-36.51-47.63a6,6,0,0,1,9.52-7.3l32.2,42,84.07-90.07a6,6,0,0,1,8.77,8.19L2355,255.27A6,6,0,0,1,2350.59,257.18Z" style="fill:#f37168"/><path d="M2779.77,1598.7c-208-10.17-915.46,7.06-1130.63,13.77s-464.93-8.86-594.67-31.76-879.67,1.95-845.64,63.53,334.13,27.55,674.45,52.3,1105.7-3.09,1278.34,0,331-6.19,553.45-18.56S2900.33,1604.59,2779.77,1598.7Z" style="fill:#cce2ff"/><rect x="219.28" y="311.03" width="434.74" height="712.57" style="fill:#99bbeb"/><rect x="242.05" y="325.55" width="397.68" height="670.89" style="fill:#fff"/><path d="M361,594.58c15-32.2,40.3-42.51,81.9-42.51,49.53,0,75.25,17.94,82.54,44.07C436.74,597.35,361,594.58,361,594.58Z" style="fill:#9bd6e8"/><path d="M425.61,395.46c-21,5.89-20,17.67-27,28.6s-22.18,18.23-24,25.52,4.68,22.48-3,31-10.33,12.76-7.29,21.26,9.72,21.87,10.33,23.69,9.11,14.58,19.44,16.4,29.77,4.86,39.49,9.11,41-5.44,58.33-4.84S521,534,519.78,525.52s12.79-25.52,12.76-40.1c0-15.66-18.23-27.34-23.09-37.67s.61-28.56-17.62-39.35c-11.52-6.82-19.44-6.22-28.56-9.25S439,391.7,425.61,395.46Z" style="fill:#3a384d"/><path d="M451.12,577.77c-4.74,7-8.22,7.29-13.37,0-4.09-5.8-12.15-19-12.15-25.65v-66.7a12.19,12.19,0,0,1,12.15-12.15h13.37a12.19,12.19,0,0,1,12.15,12.15v66.7C463.27,558.81,455.38,571.5,451.12,577.77Z" style="fill:#f09959"/><path d="M451.12,473.27H437.76a12.19,12.19,0,0,0-12.15,12.15v59.51c15,4.78,28.71-4.72,37.67-15.42V485.42A12.19,12.19,0,0,0,451.12,473.27Z" style="fill:#e38540"/><ellipse cx="444.44" cy="473.95" rx="40.4" ry="55.05" style="fill:#f09959"/><path d="M463.27,430.14C437.76,473.27,400.09,469,400.09,469s.91-57.11,30.83-60.15,47.54,9,53.62,28.79,0,32.88,0,32.88A52.46,52.46,0,0,1,470,450.79,141.83,141.83,0,0,1,463.27,430.14Z" style="fill:#3a384d"/><ellipse cx="398.57" cy="477.66" rx="10.63" ry="15.95" transform="translate(-166.38 217.19) rotate(-25.41)" style="fill:#f09959"/><ellipse cx="488.49" cy="477.66" rx="15.95" ry="10.63" transform="translate(-152.55 713.98) rotate(-64.59)" style="fill:#f09959"/><path d="M459.63,503.81s-6.8,8.82-15.19,8.82-15.19-8.82-15.19-8.82Z" style="fill:#fff"/><path d="M492.54,681.92h-102a11.86,11.86,0,0,1,0-23.73h102a11.86,11.86,0,0,1,0,23.73Z" style="fill:#99bbeb"/><path d="M511.22,718.37H371.82a11.86,11.86,0,0,1,0-23.73H511.22a11.86,11.86,0,0,1,0,23.73Z" style="fill:#99bbeb"/><path d="M611.06,849.46H272a6.88,6.88,0,0,1,0-13.77H611.06a6.88,6.88,0,0,1,0,13.77Z" style="fill:#99bbeb"/><path d="M611.06,881.46H272a6.88,6.88,0,0,1,0-13.77H611.06a6.88,6.88,0,0,1,0,13.77Z" style="fill:#99bbeb"/><path d="M611.06,913.46H272a6.88,6.88,0,0,1,0-13.77H611.06a6.88,6.88,0,0,1,0,13.77Z" style="fill:#99bbeb"/><path d="M563.63,602.5H319.41a12.3,12.3,0,0,1-12.29-12.29V365.12a12.3,12.3,0,0,1,12.29-12.29H563.63a12.3,12.3,0,0,1,12.29,12.29V590.21A12.3,12.3,0,0,1,563.63,602.5ZM319.41,362.82a2.32,2.32,0,0,0-2.29,2.29V590.21a2.32,2.32,0,0,0,2.29,2.29H563.63a2.32,2.32,0,0,0,2.29-2.29V365.12a2.32,2.32,0,0,0-2.29-2.29Z" style="fill:#99bbeb"/><polygon points="354.65 749.32 361.72 763.65 377.53 765.94 366.09 777.1 368.79 792.84 354.65 785.41 340.51 792.84 343.21 777.1 331.77 765.94 347.58 763.65 354.65 749.32" style="fill:#99bbeb"/><polygon points="412.56 749.32 419.63 763.65 435.44 765.94 424 777.1 426.7 792.84 412.56 785.41 398.42 792.84 401.12 777.1 389.68 765.94 405.49 763.65 412.56 749.32" style="fill:#99bbeb"/><polygon points="470.48 749.32 477.55 763.65 493.36 765.94 481.92 777.1 484.62 792.84 470.48 785.41 456.33 792.84 459.04 777.1 447.6 765.94 463.41 763.65 470.48 749.32" style="fill:#99bbeb"/><polygon points="528.39 749.32 535.46 763.65 551.27 765.94 539.83 777.1 542.53 792.84 528.39 785.41 514.25 792.84 516.95 777.1 505.51 765.94 521.32 763.65 528.39 749.32" style="fill:#99bbeb"/><rect x="1188.5" y="311.03" width="434.74" height="712.57" style="fill:#99bbeb"/><rect x="1211.26" y="325.55" width="397.68" height="670.89" style="fill:#fff"/><path d="M1349.1,470.31c0,31.92,19.22,83.41,64.55,81.76s55.36-50.74,57.11-64.59S1349.1,470.31,1349.1,470.31Z" style="fill:#7a4e34"/><path d="M1330.22,594.58c15-32.2,40.3-42.51,81.9-42.51,49.53,0,75.25,17.94,82.54,44.07C1406,597.35,1330.22,594.58,1330.22,594.58Z" style="fill:#d54a41"/><path d="M1420.34,577.77c-4.74,7-8.22,7.29-13.37,0-4.09-5.8-12.15-19-12.15-25.65v-66.7A12.19,12.19,0,0,1,1407,473.27h13.37a12.19,12.19,0,0,1,12.15,12.15v66.7C1432.49,558.81,1424.59,571.5,1420.34,577.77Z" style="fill:#f09959"/><path d="M1420.34,473.27H1407a12.19,12.19,0,0,0-12.15,12.15v59.51c15,4.78,28.71-4.72,37.67-15.42V485.42A12.19,12.19,0,0,0,1420.34,473.27Z" style="fill:#e38540"/><ellipse cx="1413.65" cy="473.95" rx="40.4" ry="55.05" style="fill:#f09959"/><path d="M1435.86,432.1c-4.8,16.93-15.32,16.73-30,22.29s-21.68,11.15-26.48,22c-6.12,13.81,2.78,54.08,2.78,54.08s-37.15-27.8-32.85-71.51,30.07-60.65,54.33-60.65,33.48,14.78,33.48,14.78,12.92.05,25.14,14.53c16.43,19.46,11.37,66.71,0,83.64s-19,22.24-18.7,21.48,10.61-39.64,5.05-63.68S1435.86,432.1,1435.86,432.1Z" style="fill:#7a4e34"/><path d="M1428.84,503.81s-6.8,8.82-15.19,8.82-15.19-8.82-15.19-8.82Z" style="fill:#fff"/><path d="M1461.75,681.92h-102a11.86,11.86,0,1,1,0-23.73h102a11.86,11.86,0,1,1,0,23.73Z" style="fill:#99bbeb"/><path d="M1480.43,718.37H1341a11.86,11.86,0,1,1,0-23.73h139.39a11.86,11.86,0,1,1,0,23.73Z" style="fill:#99bbeb"/><path d="M1580.27,849.46H1241.2a6.88,6.88,0,1,1,0-13.77h339.08a6.88,6.88,0,0,1,0,13.77Z" style="fill:#99bbeb"/><path d="M1580.27,881.46H1241.2a6.88,6.88,0,1,1,0-13.77h339.08a6.88,6.88,0,0,1,0,13.77Z" style="fill:#99bbeb"/><path d="M1580.27,913.46H1241.2a6.88,6.88,0,1,1,0-13.77h339.08a6.88,6.88,0,0,1,0,13.77Z" style="fill:#99bbeb"/><path d="M1532.85,602.5H1288.62a12.3,12.3,0,0,1-12.29-12.29V365.12a12.3,12.3,0,0,1,12.29-12.29h244.23a12.3,12.3,0,0,1,12.29,12.29V590.21A12.3,12.3,0,0,1,1532.85,602.5ZM1288.62,362.82a2.32,2.32,0,0,0-2.29,2.29V590.21a2.32,2.32,0,0,0,2.29,2.29h244.23a2.32,2.32,0,0,0,2.29-2.29V365.12a2.32,2.32,0,0,0-2.29-2.29Z" style="fill:#99bbeb"/><polygon points="1323.86 749.32 1330.93 763.65 1346.74 765.94 1335.3 777.1 1338 792.84 1323.86 785.41 1309.72 792.84 1312.42 777.1 1300.98 765.94 1316.79 763.65 1323.86 749.32" style="fill:#99bbeb"/><polygon points="1381.78 749.32 1388.85 763.65 1404.66 765.94 1393.22 777.1 1395.92 792.84 1381.78 785.41 1367.63 792.84 1370.34 777.1 1358.89 765.94 1374.71 763.65 1381.78 749.32" style="fill:#99bbeb"/><polygon points="1439.69 749.32 1446.76 763.65 1462.57 765.94 1451.13 777.1 1453.83 792.84 1439.69 785.41 1425.55 792.84 1428.25 777.1 1416.81 765.94 1432.62 763.65 1439.69 749.32" style="fill:#99bbeb"/><polygon points="1497.61 749.32 1504.68 763.65 1520.49 765.94 1509.05 777.1 1511.75 792.84 1497.61 785.41 1483.46 792.84 1486.16 777.1 1474.72 765.94 1490.53 763.65 1497.61 749.32" style="fill:#99bbeb"/><polygon points="1237.37 1016.48 551.27 1016.48 599.8 313.68 1262.11 313.68 1237.37 1016.48" style="fill:#99bbeb;opacity:0.2"/><rect x="623.34" y="180.69" width="593.79" height="973.26" style="fill:#99bbeb"/><rect x="654.44" y="200.52" width="543.18" height="916.34" style="fill:#fff"/><path d="M875.41,393c-.38-1.14-9.89-55.72-11-76.95s34.11-24.26,34.11-24.26,28.81-15.54,49.66-7.58,35,21.35,44.51,38-8.34,68.66-8.34,68.66Z" style="fill:#2e2d3d"/><path d="M810.05,568.36c-.13-.9,2.43-22.38,2.53-23.25,4.8-45.23,60.56-58,116.2-58,65.37,0,109.72,12,116.79,59,.21,1.38,4,22.91,3.79,24.36C928.2,572.15,810.05,568.36,810.05,568.36Z" style="fill:#d5e1e8"/><path d="M940,522.27c-6.48,9.56-11.23,10-18.26,0-5.59-7.92-24.26-26-24.26-35.11l7.66-91a16.65,16.65,0,0,1,16.6-16.6H940a16.65,16.65,0,0,1,16.6,16.6l3.56,91C960.16,496.29,945.81,513.7,940,522.27Z" style="fill:#f09959"/><path d="M940,379.54H921.74a16.65,16.65,0,0,0-16.6,16.6l-6.65,80.75c20.5,6.53,48.18-6.74,60.42-21.35l-2.32-59.4A16.65,16.65,0,0,0,940,379.54Z" style="fill:#e38540"/><path d="M868.22,493.8l29.27,54.1s15.67-12.89,17.18-10.36S911.89,572,911.89,572s34.87.47,36.39-1-7.08-34.64-3.54-34.64,14.18,9.6,14.18,9.6L991.6,493.8,984.42,492l-53.54,28.81-57.27-28.18Z" style="fill:#bdccd4"/><polygon points="901.69 518.73 923.43 533.31 916.69 572.02 946 570.39 938.68 535.17 956.7 518.73 948.24 510.75 910.15 510.75 901.69 518.73" style="fill:#d54a41"/><path d="M899,467.28l-26.88,25.58s27.39,48.71,28.91,48.71,23.24-26.86,23.24-26.86l13.91-.24,22,23.06,25.54-45.18-26-27.6s-22.24,43-26.28,44-4.07,1.52-7.34-1S899,467.28,899,467.28Z" style="fill:#d5e1e8"/><ellipse cx="930.87" cy="380.46" rx="55.18" ry="75.19" style="fill:#f09959"/><ellipse cx="868.22" cy="385.53" rx="14.52" ry="21.78" transform="translate(-81.44 409.77) rotate(-25.41)" style="fill:#f09959"/><ellipse cx="991.04" cy="385.53" rx="21.78" ry="14.52" transform="translate(217.61 1115.32) rotate(-64.59)" style="fill:#f09959"/><path d="M955.35,411.31s-11,17.75-24.48,17.75-24.48-17.75-24.48-17.75Z" style="fill:#fff"/><path d="M898.5,329.31c22.74-15.92,33-13.27,50,12.89s37.53,26.62,37.53,26.62l2.65-27.12S963.3,292.54,929.19,299s-53.51,37.15-53.51,37.15-1.66,57.55,3.1,59.51,5.31-18.57,8.72-22.74-3.41-23.88,1.14-33S898.5,329.31,898.5,329.31Z" style="fill:#2e2d3d"/><path d="M971.65,358.88c7.94,8.69,4.93,43.21,9.1,42.83s5.69-33,4.55-36.39S971.65,358.88,971.65,358.88Z" style="fill:#2e2d3d"/><path d="M1053.62,687.26H800.14a16.2,16.2,0,0,1,0-32.41h253.48a16.2,16.2,0,0,1,0,32.41Z" style="fill:#99bbeb"/><path d="M1022.08,737H831.69a16.2,16.2,0,1,1,0-32.41h190.39a16.2,16.2,0,0,1,0,32.41Z" style="fill:#99bbeb"/><path d="M1158.45,916.1H695.32a9.4,9.4,0,1,1,0-18.81h463.13a9.4,9.4,0,1,1,0,18.81Z" style="fill:#99bbeb"/><path d="M1158.45,959.8H695.32a9.4,9.4,0,1,1,0-18.81h463.13a9.4,9.4,0,1,1,0,18.81Z" style="fill:#99bbeb"/><path d="M1158.45,1003.5H695.32a9.4,9.4,0,0,1,0-18.81h463.13a9.4,9.4,0,0,1,0,18.81Z" style="fill:#99bbeb"/><path d="M1093.67,577H760.09a15,15,0,0,1-15-15V254.56a15,15,0,0,1,15-15h333.58a15,15,0,0,1,15,15V562A15,15,0,0,1,1093.67,577ZM760.09,249.6a5,5,0,0,0-5,5V562a5,5,0,0,0,5,5h333.58a5,5,0,0,0,5-5V254.56a5,5,0,0,0-5-5Z" style="fill:#99bbeb"/><polygon points="768.05 779.32 777.71 798.89 799.3 802.02 783.68 817.26 787.37 838.76 768.05 828.61 748.74 838.76 752.42 817.26 736.8 802.02 758.39 798.89 768.05 779.32" style="fill:#99bbeb"/><polygon points="847.15 779.32 856.81 798.89 878.4 802.02 862.78 817.26 866.47 838.76 847.15 828.61 827.84 838.76 831.53 817.26 815.9 802.02 837.5 798.89 847.15 779.32" style="fill:#99bbeb"/><polygon points="926.25 779.32 935.91 798.89 957.51 802.02 941.88 817.26 945.57 838.76 926.25 828.61 906.94 838.76 910.63 817.26 895 802.02 916.6 798.89 926.25 779.32" style="fill:#99bbeb"/><polygon points="1005.36 779.32 1015.01 798.89 1036.61 802.02 1020.98 817.26 1024.67 838.76 1005.36 828.61 986.04 838.76 989.73 817.26 974.1 802.02 995.7 798.89 1005.36 779.32" style="fill:#99bbeb"/><polygon points="1085.71 779.32 1095.37 798.89 1116.97 802.02 1101.34 817.26 1105.03 838.76 1085.71 828.61 1066.4 838.76 1070.09 817.26 1054.46 802.02 1076.06 798.89 1085.71 779.32" style="fill:#99bbeb"/><rect x="1400.54" y="1093.66" width="778.55" height="29.01" rx="8.29" ry="8.29" style="fill:#2e5b9a"/><path d="M2367,704.84c10.32,36.4-14.89,73.91-42.67,81.79s-47.6-16.85-57.92-53.25,3.82-72.29,31.6-80.17S2356.66,668.45,2367,704.84Z" style="fill:#f09959"/><path d="M2211.25,1410.15s71.19,110.57,80.8,115.38,33.65,6,24.64,24-12.62,88.94-21,92.54-80.52,12-69.71,0,17.47-6,22.93-27.64,13.13-62.5,2.91-70.91-72.71-84.13-72.71-84.13Z" style="fill:#f09959"/><path d="M1853,1457.63s-86.54,142.63-102.56,155.45-68.91,32.05-25.64,35.26,64.1-14.42,91.34-22.44,60.9-12.82,48.08-33.65-7.5-66.31,20.14-95.16S1853,1457.63,1853,1457.63Z" style="fill:#f09959"/><path d="M2294.56,1126.9s-214.22-5.6-299.15,64.1c-49.68,75.32-169.86,297.55-179.2,322,6.41,6.41,42.47,18,58.49,16.37,47.27-56.37,109.76-105.1,134.61-149.32,30.63-54.49,40.06-81.73,89.74-86.54s161.86-20.83,195.51-20.83S2294.56,1126.9,2294.56,1126.9Z" style="fill:#6791c9"/><polygon points="2481.37 1648.72 2470.14 1648.72 2389.62 1312.76 2414.32 1312.76 2481.37 1648.72" style="fill:#2e5b9a"/><polygon points="2144.99 1648.72 2156.22 1648.72 2248.62 1300.88 2223.92 1300.88 2144.99 1648.72" style="fill:#2e5b9a"/><path d="M2416.6,1112.23l-124.55,21.5s-165.51,1.52-241.16,15.61c-68.83,12.82-79,91,0,198.71,44.86,61.17,82.79,110,160.36,165,19.73-14.49,27.28-20,32.73-54.82-5.61-7.7-20.15-55.87-24.66-65.3-42.9-89.68-100.17-122.3-101-131.12,9.62-15.62,254.68,81.44,303.41,24.34C2468.3,1231.63,2416.6,1112.23,2416.6,1112.23Z" style="fill:#75a1de"/><path d="M2421.77,830.27c-32.8-4.6-66.21,1.63-97.45,24.25-27.3,27.83-58.2,73.73-56.3,149.43,2.4,96.15-14.88,102.32,3.15,128.76,75.19,31,203.79,164.45,173.5,21.43-21.93-103.56,48.09-180.75-8.39-295.62C2431.68,849.18,2425.93,840.11,2421.77,830.27Z" style="fill:#f37168"/><path d="M2268,1040.13c-1.46,50.12-8.54,64.89-3.13,80.6,30.65,3.13,86.72,15.4,100.73,35,16,22.43,32.05,25.64,24.57,9.08s-27.24-40.06,3.21-120.72,44.87-135.15,15-191.23Z" style="fill:#d54a41"/><path d="M2421.77,830.27c-20.2-47.82-25.16-101.54-25.16-101.54l-52.88,15.62s30,67.3,1.2,91.34a275.48,275.48,0,0,0-20.62,18.83C2355.57,831.9,2389,825.66,2421.77,830.27Z" style="fill:#f09959"/><path d="M2398.21,741.46c-3.13-2.79-7.05-6.27-11.17-9.9l-43.13,12.74-.09.23c1,2.38,12,28,13.47,52.68,12.85-7.8,26.93-20.51,43-42.72C2399.44,749.56,2398.75,745.16,2398.21,741.46Z" style="fill:#e38540"/><path d="M2384.6,845.3c-54.46,19-48.42,76.43-98.55,161-25.94,43.79-50,43.14-50,43.14a1160.52,1160.52,0,0,1-134.43-8.51c-46.08-5.63-49,8.08-17,19.54,64.64,23.11,131.71,48,185.8,42s146.58-144,151.35-179.92C2428.37,872.9,2412,835.71,2384.6,845.3Z" style="fill:#f09959"/><path d="M2356.55,1326.76q-5.08,0-10.41-.13c-44.39-1.1-74.6-7.24-98.88-12.17-28.35-5.76-44-8.93-62.14-.25a14,14,0,1,1-12.07-25.26c26.63-12.73,48.93-8.2,79.78-1.92,23.2,4.72,52.08,10.58,94,11.62,46.92,1.17,75.53-5.79,90-21.87,12.92-14.33,16.7-38.4,11.9-75.75-1.64-12.78-3.29-23.42-4.74-32.8-4.09-26.47-6.8-44-3.45-71,3.11-25.1,11.42-58.54,30.67-123.37a14,14,0,0,1,26.84,8c-35.87,120.81-34.05,132.58-26.4,182.1,1.48,9.55,3.15,20.37,4.84,33.51,5.92,46.07-.07,77.23-18.87,98.08C2438.29,1317,2406.87,1326.76,2356.55,1326.76Z" style="fill:#2e5b9a"/><path d="M1858.83,1577.84c-57.42,28.08-88.32,44.17-106.73,42.64-4.35-.36-7.95-.81-11-1.28-20.48,12.1-53.16,26.4-16.39,29.13,43.27,3.2,64.1-14.42,91.34-22.44s60.9-12.82,48.08-33.65A43.83,43.83,0,0,1,1858.83,1577.84Z" style="fill:#d54a41"/><path d="M2298.32,1527.87c-1.4,45.46-7.65,90.51-35.46,99a46.72,46.72,0,0,1-20,1.79c-4.37,5.41-9.71,5.47-16.87,13.42-10.82,12,61.29,3.61,69.71,0s12-74.51,21-92.54C2324.1,1534.75,2309.2,1531.29,2298.32,1527.87Z" style="fill:#d54a41"/><path d="M2077.14,1097.63H1894.73a14,14,0,0,1-12.7-8.1l-73.72-158.65a14,14,0,0,1,25.39-11.8l70,150.55h173.48a14,14,0,0,1,0,28Z" style="fill:#75a1de"/><path d="M2115.31,1042.57c-36.86-.53-73.41-22.5-91.58-19.3s-77.46,44.34-70,45.94,54.49-22.76,56.09-23.13,11.75,16.87,36.86,23.21.18-18.82,78,4.69C2175.31,1089.26,2115.31,1042.57,2115.31,1042.57Z" style="fill:#f09959"/><path d="M2416.35,786.63l5.42,43.64s-47.7,2.84-71.43,16.19-58.76,51.94-58.76,51.94l28.62-49.27,4.12-31.52Z" style="fill:#f2e5de"/><path d="M2396.05,840c-35.43-6.64-51.81,25.11-74.78,76.92s-62.18,114.75-70,122.86-131.41,0-131.41,0-3.74,35.79,0,40.06,25.11,3.74,25.11,3.74,8.55,6.82,16.56,12.23,75.85,15.55,107.37,13.95,60.36-4.27,64.63-9.08,90.28-137.28,95.62-184.83S2414.13,843.44,2396.05,840Z" style="fill:#f2e5de"/><path d="M2291.58,622.1c-67,3.21-56.49,104-56.49,104s17.4,5.37,53.86-.64c-2.8-10.82-1.6-38.46-1.6-38.46s4.24,22.44,9.62,36.06c7.71,3.53,16.43.4,31.25-3.18,7.61,32,29.12,45.56,43.85,50.19,16.27,5.12,33.5,11.22,52.73,1.6s8.66-107.9-1.56-127.67c-15.33-29.67-40.8-56.22-84.87-42.2C2316.26,608.84,2291.58,622.1,2291.58,622.1Z" style="fill:#303c60"/><path d="M2408.1,741.81l27.39,40s-30.36,75.85,57.94,110.22c69.15,26.91,61,74.34,29.76,122s18.7,89.34,18.7,89.34,7.62-52.83,74.8-62.8c91.61-13.6,117.55-136.59,49.13-198.09-56.62-50.89-73.85-8.75-112.18-54.42S2443,773.28,2443,773.28l-26.52-38.67Z" style="fill:#303c60"/><path d="M2697.33,966.41a2.44,2.44,0,0,1-2.14-3.61c23-42.1,4.24-93.1-5.21-106.91-1-1.46-2-2.95-3-4.52-9.29-14.5-20.85-32.54-82.53-43.65-14.86-2.67-26.88-11.5-39.62-20.85-26.3-19.31-56.12-41.2-120.89-11.38a2.44,2.44,0,0,1-2-4.43c67.38-31,98.43-8.23,125.81,11.88,12.27,9,23.85,17.51,37.6,20,63.78,11.48,76,30.52,85.77,45.81,1,1.54,1.92,3,2.88,4.4,9.9,14.47,29.6,67.91,5.47,112A2.44,2.44,0,0,1,2697.33,966.41Z" style="fill:#303c60"/><path d="M2393.47,782.81a96.41,96.41,0,0,1-14.23-1.15c-23.44-3.51-54.89-16.83-57.35-91.64a2.44,2.44,0,0,1,4.87-.16c1,30.83,7.13,53.65,18.18,67.81,8.39,10.76,19.52,16.85,35,19.17,21.69,3.25,36.07-.76,42.73-11.91a2.44,2.44,0,1,1,4.18,2.5C2420.77,777.66,2409.56,782.81,2393.47,782.81Z" style="fill:#303c60"/><polygon points="1482.21 1648.72 1500.21 1648.72 1570.24 1113.41 1530.64 1113.41 1482.21 1648.72" style="fill:#2e5b9a"/><polygon points="2093.06 1648.72 2075.06 1648.72 2005.03 1113.41 2044.64 1113.41 2093.06 1648.72" style="fill:#2e5b9a"/><path d="M2799,1196.87c31.14,28.44,17.6,56.87-5.42,109.68s-27.08,247.81-27.08,247.81l19-2.71s-2.71-200.41,23-254.58,36.56-81.25,59.58-63.64S2799,1196.87,2799,1196.87Z" style="fill:#74b570"/><path d="M2781.91,1160c3.78-16.85,26.25-35.09,56.28-50.56-4.47,24.86-18.79,65.5-4,73.83,20,11.24,1.95-45.5,9.66-76.69a371.08,371.08,0,0,1,93.38-30.63c0,.12-.08.23-.13.34-17.6,44.69-40.62,62.29-31.14,69.06,7.13,5.09,30.36-46.53,61-73,23-1.23,42.5,1.89,54,11,17.81,14.1,29.76,26.61,11.85,69.54-10.23,7.31-23.49,12.55-38.89,14.09-40.62,4.06-59.58,5.42-31.15,19,13.93,6.63,37.27-.37,56.19-4.64-6.14,11.31-13.69,24.12-22.86,38.7a143.76,143.76,0,0,1-19,24.22c-13.09,2.51-24.51,2.54-30.55-.05-19-8.12-67.71-33.85-79.89-23-11.93,10.6,90.28,17.32,83.2,44.26-49.54,28.54-106.23,15-116.25-11.25C2820.21,1219.06,2770.52,1210.78,2781.91,1160Z" style="fill:#9cd499"/><path d="M2884.33,1352.59c-54.17-40.62-109.69-2.71-138.12,40.62s-8.12,140.83-8.12,140.83,10.83,0,10.83-4.06-29.79-115.1,40.62-165.21c44.05-31.34,75.83-16.25,79.89-1.35s-17.6,42-17.6,42Z" style="fill:#74b570"/><path d="M2759.75,1269.09c54.17,0,71.77,84,56.87,132.71s-35.21,139.48-35.21,139.48l-13.54-13.54s51.46-127.29,39.27-184.16-42-66.35-47.4-66.35S2759.75,1269.09,2759.75,1269.09Z" style="fill:#9cd499"/><path d="M2805.18,1402.17a39.24,39.24,0,0,1,14.26-12,107,107,0,0,1-2.81,11.6c-6.79,22.21-14.7,53.13-21.3,80.22l-3-17.06c-.34-1.95-.6-4.06-.79-6.3A525.16,525.16,0,0,0,2805.18,1402.17Z" style="fill:#74b570"/><path d="M2820,1402.58c102.91-43.33,48.69-102.79,139.42-63.53,6.39,2.77,14.18,9.74,22,19.36a67.55,67.55,0,0,1-28.75,2.31c-27.08-4.06-17.6,17.6,27.08,23a100.38,100.38,0,0,1,20.94,4.42c21.29,40.89,30.88,94.69-14.17,113.39-8.88,3.69-19.85,5.79-32.06,6.58-13.9-11,3.39-75-18-66.16-20.58,8.47,6.45,54.81,2.75,66.49-20.31-.37-42.8-3.69-64.29-9-8.5-4.77-15-11.16-17-19.56-6.77-28.44,37.92-46,39.27-70.41,1.25-22.41-16.38,49.3-63.07,59.85C2791.83,1449.6,2771.88,1422.83,2820,1402.58Z" style="fill:#9cd499"/><path d="M2746.66,1326c10.83-23-17.6-28.44-16.25-10.83,1.2,15.6,1.33,53.52-14.67,63.84-27.59-3-65.13-14.11-93.51-31.05a11.5,11.5,0,0,1,1.19-7.06c12.19-24.37,90.73-44.69,66.35-52.81-19.41-6.47-53.43,31.72-80.84,51-16.46-12.49-27.49-27.38-27.49-44,0-22.5,27.34-48,62.68-60.13,15.91,1.6,30.69,10.3,53.77,23.38,34.1,19.32,26.21-11.92-6-30.46,27.83,1.44,55.58,13.33,76,41.74,0,0-1.94,12.14,10.92,30.93,35.06,51.25-5.4,81.16-53.77,79.22C2727.81,1366.17,2739.17,1341.87,2746.66,1326Z" style="fill:#9cd499"/><path d="M2881.07,1350.3c26.48,20.46,55.9,44.39,92,60.64s28.89,69.21,28.89,69.21,5.42-45.74-24.68-61.39-50-34.31-72.83-37.92-35.51-7.22-35.51-7.22,7.22-14.45,3-19.86S2881.07,1350.3,2881.07,1350.3Z" style="fill:#74b570"/><path d="M3011.6,1110c-96.9,25.88-167.92,87.87-181.16,102.92s-13.24,19.26-13.24,19.26l10.23,19.26,4.81-2.41s-7.82-16.25,12.64-37.32c35.29-36.33,78.24-65,107.73-77.64S3011.6,1110,3011.6,1110Z" style="fill:#74b570"/><path d="M2744.12,1513.64h37a47.67,47.67,0,0,1,47.67,47.67v85.06a0,0,0,0,1,0,0H2696.45a0,0,0,0,1,0,0v-85.06A47.67,47.67,0,0,1,2744.12,1513.64Z" transform="translate(5525.26 3160.01) rotate(180)" style="fill:#75a1de"/><rect x="2696.45" y="1528.85" width="132.35" height="9.32" style="fill:#fff"/><rect x="2696.45" y="1545.84" width="132.35" height="5.48" style="fill:#fff"/><rect x="317.68" y="1480.41" width="55.73" height="50.16" rx="12.08" ry="12.08" transform="translate(691.1 3010.98) rotate(180)" style="fill:#9ec8ff"/><rect x="216.35" y="1480.41" width="55.73" height="50.16" rx="12.08" ry="12.08" transform="translate(488.44 3010.98) rotate(180)" style="fill:#9ec8ff"/><rect x="115.02" y="1480.41" width="55.73" height="50.16" rx="12.08" ry="12.08" transform="translate(285.78 3010.98) rotate(180)" style="fill:#9ec8ff"/><path d="M2969.93,555h31.58a12.08,12.08,0,0,1,12.08,12.08v26a12.08,12.08,0,0,1-12.08,12.08h-31.58a12.08,12.08,0,0,1-12.08-12.08v-26A12.07,12.07,0,0,1,2969.93,555Z" transform="translate(3565.79 -2405.66) rotate(90)" style="fill:#9ec8ff"/><path d="M2969.93,656.32h31.58a12.07,12.07,0,0,1,12.07,12.07v26a12.08,12.08,0,0,1-12.08,12.08h-31.58a12.08,12.08,0,0,1-12.08-12.08v-26a12.07,12.07,0,0,1,12.07-12.07Z" transform="translate(3667.12 -2304.33) rotate(90)" style="fill:#9ec8ff"/><path d="M2969.93,757.65h31.58a12.07,12.07,0,0,1,12.07,12.07v26a12.08,12.08,0,0,1-12.08,12.08h-31.58a12.07,12.07,0,0,1-12.07-12.07v-26A12.07,12.07,0,0,1,2969.93,757.65Z" transform="translate(3768.45 -2203) rotate(90)" style="fill:#9ec8ff"/></g></g></svg>