<?xml version="1.0" encoding="UTF-8" standalone="no"?>
<svg
   xmlns:dc="http://purl.org/dc/elements/1.1/"
   xmlns:cc="http://creativecommons.org/ns#"
   xmlns:rdf="http://www.w3.org/1999/02/22-rdf-syntax-ns#"
   xmlns:svg="http://www.w3.org/2000/svg"
   xmlns="http://www.w3.org/2000/svg"
   xmlns:sodipodi="http://sodipodi.sourceforge.net/DTD/sodipodi-0.dtd"
   xmlns:inkscape="http://www.inkscape.org/namespaces/inkscape"
   version="1.1"
   id="svg2"
   xml:space="preserve"
   width="486.66666"
   height="153.37334"
   viewBox="0 0 486.66666 153.37334"
   sodipodi:docname="charter-communications-seeklogo.com.eps"><metadata
     id="metadata8"><rdf:RDF><cc:Work
         rdf:about=""><dc:format>image/svg+xml</dc:format><dc:type
           rdf:resource="http://purl.org/dc/dcmitype/StillImage" /></cc:Work></rdf:RDF></metadata><defs
     id="defs6" /><sodipodi:namedview
     pagecolor="#ffffff"
     bordercolor="#666666"
     borderopacity="1"
     objecttolerance="10"
     gridtolerance="10"
     guidetolerance="10"
     inkscape:pageopacity="0"
     inkscape:pageshadow="2"
     inkscape:window-width="640"
     inkscape:window-height="480"
     id="namedview4" /><g
     id="g10"
     inkscape:groupmode="layer"
     inkscape:label="ink_ext_XXXXXX"
     transform="matrix(1.3333333,0,0,-1.3333333,0,153.37333)"><g
       id="g12"
       transform="scale(0.1)"><path
         d="m 980.82,927.195 c -71.722,0 -132.328,-23.968 -179.144,-69.328 V 1150.27 H 694.684 V 292.457 h 106.992 v 355.281 c 0,102.52 72.058,176.907 171.32,176.907 96.774,0 154.584,-62.778 154.584,-167.997 V 292.457 h 106.96 v 374.25 c 0,155.797 -101.96,260.488 -253.72,260.488"
         style="fill:#2e5da0;fill-opacity:1;fill-rule:nonzero;stroke:none"
         id="path14" /><path
         d="m 1559.46,922.711 c -89.88,0 -158.09,-26.051 -212.99,-51.508 l -22.79,-10.617 40.68,-97.242 25.15,12.82 c 57.25,29.281 110.22,42.91 166.63,42.91 71.66,0 156.54,-24.621 160.89,-139 -42.75,9.688 -93.3,17.293 -162.04,17.293 -167.04,0 -274.93,-83.023 -274.93,-211.402 v -2.238 c 0,-132.946 126.71,-204.664 245.93,-204.664 88.71,0 150.37,32.878 191.41,67.992 v -54.614 h 105.87 v 380.957 c 0,156.137 -98.63,249.313 -263.81,249.313 M 1390.38,489.285 c 0,66.781 60.29,106.617 161.29,106.617 68.68,0 123.72,-9.996 166.82,-20.179 v -43.996 c 0,-84.977 -81.32,-149.028 -189.15,-149.028 -69.08,0 -138.96,35.828 -138.96,104.383 v 2.203"
         style="fill:#2e5da0;fill-opacity:1;fill-rule:nonzero;stroke:none"
         id="path16" /><path
         d="m 1992.12,817.039 v 96.742 H 1885.13 V 292.426 h 106.99 v 259.371 c 0,178.465 110.68,258.348 220.41,258.348 h 31.7 v 112.394 h -25.12 c -86.28,0 -169.12,-36.324 -226.99,-105.5"
         style="fill:#2e5da0;fill-opacity:1;fill-rule:nonzero;stroke:none"
         id="path18" /><path
         d="m 2545.72,386.047 c -60.6,0 -87.61,25.957 -87.61,84.266 v 339.816 h 199.63 V 922.551 H 2458.11 V 1095.64 H 2351.12 V 922.551 h -72.19 V 810.129 h 72.19 V 464.754 c 0,-112.488 71.1,-182.375 185.66,-182.375 37.94,0 69.89,6.953 103.55,22.476 l 15.24,7.051 v 108.481 l -36.88,-16.551 c -28.94,-12.977 -48.72,-17.789 -72.97,-17.789"
         style="fill:#2e5da0;fill-opacity:1;fill-rule:nonzero;stroke:none"
         id="path20" /><path
         d="m 2946.98,927.195 c -166.04,0 -296.13,-141.855 -296.13,-322.957 v -2.234 c 0,-184.082 131.15,-322.961 305.04,-322.961 130.62,0 204.7,61.723 254.63,115.469 l 18.22,19.683 -77.12,67.993 -17.33,-18.567 c -51.57,-55.203 -107.51,-80.91 -176.13,-80.91 -81.84,0 -173.18,54.055 -193.55,171.914 h 467.14 l 1.15,23.004 1.31,23.258 v 2.203 c 0,190.816 -118.08,324.105 -287.23,324.105 m -2.2,-102.55 c 109.57,0 160.95,-82.68 174.77,-168.622 h -353.98 c 18.63,99.043 90.16,168.622 179.21,168.622"
         style="fill:#2e5da0;fill-opacity:1;fill-rule:nonzero;stroke:none"
         id="path22" /><path
         d="m 3624.91,922.719 c -86.84,3.445 -169.22,-36.516 -227.03,-105.688 v 96.778 h -106.99 v -621.36 h 106.99 V 551.82 c 0,178.434 110.72,258.317 220.38,258.317 h 31.73 v 111.586 l -25.08,0.996"
         style="fill:#2e5da0;fill-opacity:1;fill-rule:nonzero;stroke:none"
         id="path24" /><path
         d="m 563.793,454.254 c -56.727,-47.16 -112.609,-68.149 -181.289,-68.149 -153.098,0 -273.031,141.887 -273.031,323.083 0,182.933 117.39,320.812 273.031,320.812 65.762,0 119.504,-19.43 174.305,-63.023 l 18.254,-14.563 78.988,78.986 -21.828,18.35 c -44.774,37.72 -119.254,87.89 -248.66,87.89 -218.672,0 -383.5356562,-185.195 -383.5356562,-430.749 0,-244.254 163.4996562,-428.43 380.3676562,-428.43 132.109,0 209.23,56.105 255.738,98.328 l 20.336,18.441 -74.328,74.27 -18.348,-15.246"
         style="fill:#2e5da0;fill-opacity:1;fill-rule:nonzero;stroke:none"
         id="path26" /><path
         d="m 63.918,83.2109 v 0.4688 c 0,45.9803 34.4336,83.6753 83.457,83.6753 29.805,0 47.844,-10.402 63.305,-25.214 l -18.254,-21.02 c -12.949,12.02 -26.793,20.09 -45.297,20.09 -30.738,0 -53.4063,-25.402 -53.4063,-57.0626 v -0.4687 c 0,-31.668 22.4183,-57.3086 53.4063,-57.3086 19.867,0 32.598,7.8477 46.445,20.8008 L 211.859,28.6602 C 194.973,11.0898 176.496,0.0117188 146.195,0.0117188 99.0664,0.0117188 63.918,36.7383 63.918,83.2109"
         style="fill:#8a868a;fill-opacity:1;fill-rule:nonzero;stroke:none"
         id="path28" /><path
         d="m 313.145,83.2109 v 0.4688 c 0,45.5193 35.144,83.6753 84.82,83.6753 49.711,0 84.359,-37.695 84.359,-83.2066 v -0.4687 c 0,-45.5508 -35.117,-83.6679812 -84.824,-83.6679812 -49.676,0 -84.355,37.6601812 -84.355,83.1991812 m 139.371,0 v 0.4688 c 0,31.4223 -22.879,57.5313 -55.016,57.5313 -32.133,0 -54.551,-25.641 -54.551,-57.0626 v -0.4687 c 0,-31.4492 22.883,-57.3086 55.016,-57.3086 32.137,0 54.551,25.3906 54.551,56.8398"
         style="fill:#8a868a;fill-opacity:1;fill-rule:nonzero;stroke:none"
         id="path30" /><path
         d="m 600.051,164.566 h 30.269 l 49.243,-76.5074 49.242,76.5074 h 30.269 V 2.78125 H 730.637 V 118.801 L 679.563,42.5195 h -0.93 l -50.61,75.8125 V 2.78125 H 600.051 V 164.566"
         style="fill:#8a868a;fill-opacity:1;fill-rule:nonzero;stroke:none"
         id="path32" /><path
         d="m 883.723,164.566 h 30.273 l 49.242,-76.5074 49.242,76.5074 h 30.27 V 2.78125 h -28.44 V 118.801 L 963.238,42.5195 h -0.933 L 911.699,118.332 V 2.78125 H 883.723 V 164.566"
         style="fill:#8a868a;fill-opacity:1;fill-rule:nonzero;stroke:none"
         id="path34" /><path
         d="M 1164.85,71.4297 V 164.57 h 28.44 V 72.5781 c 0,-30.0586 15.46,-46.0078 40.89,-46.0078 25.21,0 40.7,15.0195 40.7,44.8594 V 164.57 h 28.41 V 72.8008 c 0,-48.2813 -27.26,-72.562519 -69.57,-72.562519 -42.04,0 -68.87,24.281219 -68.87,71.191419"
         style="fill:#8a868a;fill-opacity:1;fill-rule:nonzero;stroke:none"
         id="path36" /><path
         d="m 1425.4,164.566 h 26.36 L 1538.41,52.6992 V 164.566 h 27.98 V 2.78125 h -23.82 L 1453.37,117.871 V 2.78125 H 1425.4 V 164.566"
         style="fill:#8a868a;fill-opacity:1;fill-rule:nonzero;stroke:none"
         id="path38" /><path
         d="m 1692.88,164.555 h 28.44 V 2.76953 h -28.44 V 164.555"
         style="fill:#8a868a;fill-opacity:1;fill-rule:nonzero;stroke:none"
         id="path40" /><path
         d="m 1840.61,83.2109 v 0.4688 c 0,45.9803 34.44,83.6753 83.43,83.6753 29.84,0 47.88,-10.402 63.34,-25.214 l -18.26,-21.02 c -12.95,12.02 -26.79,20.09 -45.3,20.09 -30.73,0 -53.37,-25.402 -53.37,-57.0626 v -0.4687 c 0,-31.668 22.42,-57.3086 53.37,-57.3086 19.9,0 32.6,7.8477 46.48,20.8008 l 18.26,-18.5117 c -16.89,-17.5704 -35.37,-28.6484812 -65.67,-28.6484812 -47.13,0 -82.28,36.7265812 -82.28,83.1991812"
         style="fill:#8a868a;fill-opacity:1;fill-rule:nonzero;stroke:none"
         id="path42" /><path
         d="m 2158.96,165.727 h 26.33 L 2256.48,2.78906 h -30.02 l -16.43,39.06254 h -76.5 L 2116.89,2.78906 h -29.12 z m 40.67,-98.6957 -27.97,64.6987 -27.73,-64.6987 z"
         style="fill:#8a868a;fill-opacity:1;fill-rule:nonzero;stroke:none"
         id="path44" /><path
         d="m 2386.45,138.219 h -51.32 v 26.363 h 131.3 v -26.363 h -51.32 V 2.78906 h -28.66 V 138.219"
         style="fill:#8a868a;fill-opacity:1;fill-rule:nonzero;stroke:none"
         id="path46" /><path
         d="m 2581.12,164.555 h 28.44 V 2.76953 h -28.44 V 164.555"
         style="fill:#8a868a;fill-opacity:1;fill-rule:nonzero;stroke:none"
         id="path48" /><path
         d="m 2728.85,83.2109 v 0.4688 c 0,45.5193 35.15,83.6753 84.82,83.6753 49.71,0 84.36,-37.695 84.36,-83.2066 v -0.4687 c 0,-45.5508 -35.12,-83.6679812 -84.82,-83.6679812 -49.68,0 -84.36,37.6601812 -84.36,83.1991812 m 139.37,0 v 0.4688 c 0,31.4223 -22.88,57.5313 -55.01,57.5313 -32.14,0 -54.55,-25.641 -54.55,-57.0626 v -0.4687 c 0,-31.4492 22.88,-57.3086 55.01,-57.3086 32.14,0 54.55,25.3906 54.55,56.8398"
         style="fill:#8a868a;fill-opacity:1;fill-rule:nonzero;stroke:none"
         id="path50" /><path
         d="m 3015.74,164.566 h 26.36 L 3128.79,52.6992 V 164.566 h 27.94 V 2.78125 h -23.81 L 3043.72,117.871 V 2.78125 h -27.98 V 164.566"
         style="fill:#8a868a;fill-opacity:1;fill-rule:nonzero;stroke:none"
         id="path52" /><path
         d="m 3270.53,26.3516 17.1,20.3398 c 15.5,-13.4101 31.21,-21.0195 51.08,-21.0195 17.57,0 28.65,8.289 28.65,20.3398 v 0.4297 c 0,11.5781 -6.45,17.8203 -36.51,24.75 -34.43,8.3203 -53.87,18.5 -53.87,48.3086 v 0.461 c 0,27.758 23.13,46.914 55.27,46.914 23.56,0 42.29,-7.172 58.71,-20.336 l -15.28,-21.488 c -14.56,10.871 -29.12,16.648 -43.9,16.648 -16.64,0 -26.36,-8.57 -26.36,-19.187 v -0.473 c 0,-12.48 7.39,-18.039 38.6,-25.4296 34.21,-8.3203 51.78,-20.5781 51.78,-47.3711 v -0.4688 c 0,-30.2695 -23.81,-48.308562 -57.78,-48.308562 -24.74,0 -48.09,8.570312 -67.49,25.890662"
         style="fill:#8a868a;fill-opacity:1;fill-rule:nonzero;stroke:none"
         id="path54" /></g></g></svg>
