<?xml version="1.0" encoding="utf-8"?>
<!-- Generator: Adobe Illustrator 24.3.0, SVG Export Plug-In . SVG Version: 6.00 Build 0)  -->
<svg version="1.1" id="Layer_1" xmlns="http://www.w3.org/2000/svg" xmlns:xlink="http://www.w3.org/1999/xlink" x="0px" y="0px"
	 viewBox="0 0 512 512" style="enable-background:new 0 0 512 512;" xml:space="preserve">
<style type="text/css">
	.st0{fill:#1B619A;}
	.st1{fill:#8F8B8D;}
</style>
<g>
	<path id="XMLID_6_" class="st0" d="M137.66,206.62c-10.1,0-18.51,3.37-25.1,9.68v-40.95H97.55v120.32h15.01v-49.78
		c0-14.44,10.1-24.82,23.98-24.82c13.6,0,21.74,8.83,21.74,23.56v51.05h15.01v-52.45C173.28,221.34,158.98,206.62,137.66,206.62"/>
	<path id="XMLID_9_" class="st0" d="M195.02,268.04c0-9.4,8.41-15.01,22.58-15.01c9.68,0,17.39,1.4,23.42,2.8v6.17
		c0,11.92-11.36,20.9-26.5,20.9c-9.68,0-19.49-5.05-19.49-14.58L195.02,268.04L195.02,268.04z M218.72,207.18
		c-12.62,0-22.16,3.65-29.87,7.29l-3.23,1.54l5.75,13.6l3.51-1.82c7.99-4.07,15.43-6.03,23.42-6.03c10.1,0,22.02,3.51,22.58,19.49
		c-6.03-1.4-13.04-2.38-22.72-2.38c-23.42,0-38.56,11.64-38.56,29.59v0.28c0,18.65,17.81,28.75,34.5,28.75
		c12.48,0,21.04-4.63,26.79-9.54v7.71h14.86v-53.43C255.74,220.36,242,207.18,218.72,207.18"/>
	<path id="XMLID_10_" class="st0" d="M279.44,222.04v-13.6h-15.01v87.09h15.01v-36.32c0-24.96,15.57-36.18,30.85-36.18h4.49v-15.71
		h-3.51C299.21,207.32,287.57,212.37,279.44,222.04"/>
	<path id="XMLID_11_" class="st0" d="M357.13,282.48c-8.55,0-12.34-3.65-12.34-11.78v-47.68h28.05v-15.71h-28.05v-24.26h-15.01
		v24.26h-10.1v15.71h10.1v48.38c0,15.71,9.96,25.52,26.08,25.52c5.33,0,9.82-0.98,14.58-3.09l2.1-0.98v-15.15l-5.19,2.38
		C363.3,281.78,360.5,282.48,357.13,282.48"/>
	<path id="XMLID_14_" class="st0" d="M413.08,221.06c15.43,0,22.58,11.64,24.54,23.7h-49.64
		C390.51,230.74,400.6,221.06,413.08,221.06 M413.36,206.62c-23.28,0-41.51,19.91-41.51,45.3v0.28c0,25.8,18.37,45.3,42.77,45.3
		c18.37,0,28.75-8.69,35.76-16.13l2.52-2.8l-10.8-9.54l-2.38,2.66c-7.29,7.71-15.15,11.36-24.68,11.36
		c-11.5,0-24.26-7.57-27.21-24.12h65.49l0.14-3.23l0.14-3.23v-0.28C453.61,225.27,437.06,206.62,413.36,206.62"/>
	<path id="XMLID_15_" class="st0" d="M508.44,207.18c-12.2-0.42-23.7,5.19-31.83,14.86v-13.6h-15.01v87.09h15.01v-36.32
		c0-24.96,15.57-36.18,30.85-36.18h4.49v-15.71L508.44,207.18z"/>
	<path id="XMLID_16_" class="st0" d="M79.18,272.95c-7.99,6.59-15.85,9.54-25.38,9.54c-21.46,0-38.28-19.91-38.28-45.3
		c0-25.66,16.41-45.02,38.28-45.02c9.26,0,16.83,2.66,24.4,8.83l2.52,2.1l11.08-11.08l-3.09-2.52
		c-6.31-5.33-16.69-12.34-34.92-12.34c-30.71,0-53.85,25.94-53.85,60.44c0,34.22,22.86,60.02,53.29,60.02
		c18.51,0,29.31-7.85,35.9-13.74l2.8-2.52l-10.38-10.38L79.18,272.95z"/>
	<path id="XMLID_17_" class="st1" d="M9.07,324.98L9.07,324.98c0-6.45,4.77-11.78,11.64-11.78c4.21,0,6.73,1.4,8.83,3.51l-2.52,2.94
		c-1.82-1.68-3.79-2.8-6.31-2.8c-4.35,0-7.43,3.51-7.43,7.99l0,0c0,4.49,3.09,7.99,7.43,7.99c2.8,0,4.63-1.12,6.45-2.94l2.52,2.66
		c-2.38,2.52-4.91,4.07-9.26,4.07C13.97,336.62,9.07,331.43,9.07,324.98"/>
	<path id="XMLID_20_" class="st1" d="M63.62,324.98L63.62,324.98c0-4.49-3.23-8.13-7.71-8.13s-7.71,3.65-7.71,7.99l0,0
		c0,4.35,3.23,7.99,7.71,7.99C60.39,332.97,63.62,329.32,63.62,324.98 M43.98,324.98L43.98,324.98c0-6.45,4.91-11.78,11.92-11.78
		s11.78,5.33,11.78,11.64l0,0c0,6.45-4.91,11.78-11.92,11.78C48.89,336.62,43.98,331.29,43.98,324.98"/>
	<polygon id="XMLID_21_" class="st1" points="84.23,313.62 88.44,313.62 95.45,324.27 102.32,313.62 106.53,313.62 106.53,336.19 
		102.6,336.19 102.6,319.93 95.45,330.73 95.31,330.73 88.16,320.07 88.16,336.19 84.23,336.19 	"/>
	<polygon id="XMLID_22_" class="st1" points="124.06,313.62 128.27,313.62 135.14,324.27 142.01,313.62 146.36,313.62 
		146.36,336.19 142.29,336.19 142.29,319.93 135.14,330.73 135,330.73 127.99,320.07 127.99,336.19 124.06,336.19 	"/>
	<path id="XMLID_23_" class="st1" d="M163.46,326.66v-13.04h3.93v12.9c0,4.21,2.1,6.45,5.75,6.45c3.51,0,5.75-2.1,5.75-6.31v-13.04
		h3.93v12.9c0,6.73-3.79,10.24-9.82,10.24C167.25,336.62,163.46,333.25,163.46,326.66"/>
	<polygon id="XMLID_24_" class="st1" points="199.93,313.62 203.71,313.62 215.77,329.18 215.77,313.62 219.7,313.62 219.7,336.19 
		216.47,336.19 203.85,320.07 203.85,336.19 199.93,336.19 	"/>
	<rect id="XMLID_25_" x="237.51" y="313.62" class="st1" width="3.93" height="22.72"/>
	<path id="XMLID_26_" class="st1" d="M258.26,324.98L258.26,324.98c0-6.45,4.77-11.78,11.64-11.78c4.21,0,6.73,1.4,8.83,3.51
		l-2.52,2.94c-1.82-1.68-3.79-2.8-6.31-2.8c-4.35,0-7.43,3.51-7.43,7.99l0,0c0,4.49,3.09,7.99,7.43,7.99c2.8,0,4.63-1.12,6.45-2.94
		l2.52,2.66c-2.38,2.52-4.91,4.07-9.26,4.07C263.17,336.62,258.26,331.43,258.26,324.98"/>
	<path id="XMLID_29_" class="st1" d="M308.61,327.22l-3.93-9.12l-3.93,9.12H308.61z M302.86,313.34h3.65l9.96,22.86h-4.21
		l-2.24-5.47h-10.8l-2.38,5.47h-4.07L302.86,313.34z"/>
	<polygon id="XMLID_30_" class="st1" points="334.69,317.26 327.54,317.26 327.54,313.62 345.91,313.62 345.91,317.26 
		338.76,317.26 338.76,336.19 334.69,336.19 	"/>
	<rect id="XMLID_31_" x="362.04" y="313.62" class="st1" width="3.93" height="22.72"/>
	<path id="XMLID_34_" class="st1" d="M402.29,324.98L402.29,324.98c0-4.49-3.23-8.13-7.71-8.13c-4.49,0-7.71,3.65-7.71,7.99l0,0
		c0,4.35,3.23,7.99,7.71,7.99C399.2,332.97,402.29,329.32,402.29,324.98 M382.79,324.98L382.79,324.98
		c0-6.45,4.91-11.78,11.92-11.78s11.78,5.33,11.78,11.64l0,0c0,6.45-4.91,11.78-11.92,11.78
		C387.7,336.62,382.79,331.29,382.79,324.98"/>
	<polygon id="XMLID_35_" class="st1" points="423.04,313.62 426.69,313.62 438.89,329.18 438.89,313.62 442.81,313.62 
		442.81,336.19 439.45,336.19 426.97,320.07 426.97,336.19 423.04,336.19 	"/>
	<path id="XMLID_36_" class="st1" d="M458.8,332.97l2.38-2.8c2.1,1.82,4.35,2.94,7.15,2.94c2.52,0,4.07-1.12,4.07-2.8l0,0
		c0-1.68-0.84-2.52-5.19-3.51c-4.77-1.12-7.57-2.66-7.57-6.73l0,0c0-3.93,3.23-6.59,7.71-6.59c3.37,0,5.89,0.98,8.27,2.8l-2.1,2.94
		c-2.1-1.54-4.07-2.38-6.17-2.38c-2.38,0-3.65,1.26-3.65,2.66l0,0c0,1.68,0.98,2.52,5.47,3.51c4.77,1.12,7.29,2.94,7.29,6.59l0,0
		c0,4.21-3.37,6.73-8.13,6.73C464.69,336.62,461.47,335.35,458.8,332.97"/>
</g>
</svg>
