<?xml version="1.0" encoding="utf-8"?>

<svg version="1.1" id="Icons" xmlns="http://www.w3.org/2000/svg" xmlns:xlink="http://www.w3.org/1999/xlink" x="0px" y="0px"
	 viewBox="0 0 32 32" style="enable-background:new 0 0 32 32;" xml:space="preserve">
<style type="text/css">
	.st0{fill:none;stroke:#000000;stroke-width:2;stroke-linejoin:round;stroke-miterlimit:10;}
	.st1{fill:none;stroke:#000000;stroke-width:2;stroke-linecap:round;stroke-linejoin:round;stroke-miterlimit:10;}
	.st2{fill:none;stroke:#000000;stroke-width:2;stroke-miterlimit:10;}
</style>
<path class="st0" d="M28.8,22c-0.8,0.2-1.6,0-1.9-0.6c-0.3-0.6-0.1-1.4,0.5-2c-0.7-0.7-1.5-1.2-2.5-1.5c-0.2,0.8-0.8,1.4-1.4,1.4
	s-1.2-0.6-1.4-1.4c-0.9,0.3-1.8,0.8-2.5,1.5c0.6,0.6,0.8,1.4,0.5,2C19.8,22,19,22.2,18.2,22c-0.1,0.5-0.2,1-0.2,1.5s0.1,1,0.2,1.5
	c0.8-0.2,1.6,0,1.9,0.6c0.3,0.6,0.1,1.4-0.5,2c0.7,0.7,1.5,1.2,2.5,1.5c0.2-0.8,0.8-1.4,1.4-1.4s1.2,0.6,1.4,1.4
	c0.9-0.3,1.8-0.8,2.5-1.5c-0.6-0.6-0.8-1.4-0.5-2c0.3-0.6,1.1-0.8,1.9-0.6c0.1-0.5,0.2-1,0.2-1.5S28.9,22.5,28.8,22z"/>
<circle class="st0" cx="23.5" cy="23.5" r="0.5"/>
<path class="st0" d="M28,16V5H4v17c0,0,0,5,0,6l0,0c2.7-2.3,5.8-4,9.2-5"/>
<line class="st1" x1="11" y1="12" x2="17" y2="12"/>
<line class="st1" x1="11" y1="16" x2="14" y2="16"/>
</svg>
