<?xml version="1.0" standalone="no"?>
<!DOCTYPE svg PUBLIC "-//W3C//DTD SVG 20010904//EN"
 "http://www.w3.org/TR/2001/REC-SVG-20010904/DTD/svg10.dtd">
<svg version="1.0" xmlns="http://www.w3.org/2000/svg"
 width="512.000000pt" height="512.000000pt" viewBox="0 0 512.000000 512.000000"
 preserveAspectRatio="xMidYMid meet">

<g transform="translate(0.000000,512.000000) scale(0.100000,-0.100000)"
fill="#000000" stroke="none">
<path d="M0 2560 l0 -2560 2560 0 2560 0 0 2560 0 2560 -1245 0 -1244 0 24
-25 c29 -28 31 -42 9 -73 -18 -26 -75 -30 -94 -7 -20 24 -15 67 10 87 21 17
-22 18 -1279 18 l-1301 0 0 -2560z m4727 2205 c32 -32 35 -39 30 -78 -16 -116
-170 -133 -207 -23 -23 70 26 136 102 136 32 0 47 -7 75 -35z m-3894 -409 c30
-12 80 -61 89 -86 2 -7 15 -7 40 1 53 14 106 -3 148 -46 33 -35 35 -40 35
-109 0 -69 1 -73 29 -92 71 -47 92 -133 50 -205 -23 -40 -93 -79 -144 -79 -19
0 -49 -9 -67 -20 -52 -31 -67 -65 -73 -154 l-5 -81 -31 -3 -32 -3 -3 83 c-3
66 -9 89 -26 114 -40 56 -72 64 -250 64 -145 0 -163 2 -203 23 -62 32 -85 67
-85 132 0 60 20 96 73 130 27 17 31 24 25 50 -26 127 66 225 181 194 30 -8 41
-8 44 0 8 25 58 74 87 87 39 17 78 17 118 0z m2117 -73 c205 -33 427 -129 601
-260 593 -446 735 -1269 326 -1891 -53 -81 -107 -143 -221 -257 -163 -163
-235 -257 -297 -391 -67 -142 -91 -252 -96 -446 l-5 -168 -439 0 -439 0 0 -25
c0 -30 -47 -27 498 -27 l372 0 0 -29 0 -29 -435 0 -435 0 0 -30 0 -30 435 0
435 0 0 -25 0 -25 -435 0 -435 0 0 -30 0 -30 435 0 435 0 0 -160 0 -160 -115
0 c-70 0 -115 4 -115 10 0 6 -110 10 -310 10 -200 0 -310 -4 -310 -10 0 -6
-45 -10 -115 -10 l-115 0 0 160 0 160 65 0 65 0 0 30 0 30 -65 0 c-63 0 -65 1
-65 25 0 24 2 25 65 25 l65 0 0 30 0 30 -65 0 -65 0 0 31 c0 29 2 30 38 28 77
-5 92 -1 92 26 0 24 -2 25 -70 25 l-70 0 0 139 c0 154 -16 262 -57 374 -67
187 -140 294 -329 482 -204 203 -298 342 -377 555 -223 600 -2 1286 527 1642
311 208 651 281 1026 221z m-1928 -1193 c174 -49 184 -294 16 -365 -53 -21
-96 -19 -154 10 -121 60 -145 215 -47 307 54 52 114 67 185 48z m3516 -16
c171 -85 125 -335 -67 -361 -142 -19 -254 139 -192 272 23 50 56 81 106 99 59
21 95 19 153 -10z m-4394 -1067 c19 -26 19 -30 5 -55 -18 -33 -68 -42 -93 -17
-24 24 -20 71 7 90 30 21 56 16 81 -18z m4831 -107 c26 -52 55 -143 55 -177
l0 -23 -220 0 c-121 0 -220 2 -220 4 0 2 69 72 153 155 l152 152 28 -33 c16
-18 39 -53 52 -78z m-720 -160 l160 -160 -84 -84 c-72 -73 -83 -87 -71 -100 7
-9 18 -16 24 -16 6 0 47 36 91 80 l80 80 247 0 248 0 0 -23 c0 -97 -109 -315
-153 -305 -7 2 -31 -11 -52 -28 -94 -74 -186 -105 -309 -105 -360 0 -597 384
-435 704 24 46 77 117 87 117 4 0 79 -72 167 -160z m-3064 -348 c80 -38 150
-110 187 -190 34 -75 42 -196 18 -270 l-17 -50 -55 58 c-140 147 -360 171
-533 60 -32 -21 -71 -54 -86 -74 -15 -20 -31 -36 -35 -36 -8 0 -26 58 -35 116
-3 23 -1 70 6 103 l12 62 28 -27 c28 -27 29 -27 49 -9 l21 19 -36 36 -35 35
19 30 c23 39 99 108 142 131 66 34 113 44 199 41 71 -3 96 -8 151 -35z m-511
-590 c0 -23 99 -105 163 -137 167 -81 358 -45 487 91 l51 54 10 -27 c23 -62
27 -228 5 -250 -3 -4 -17 4 -31 17 -24 23 -25 23 -45 5 -21 -19 -21 -19 15
-55 l35 -35 -19 -30 c-32 -52 -104 -113 -166 -142 -79 -36 -197 -44 -281 -17
-159 50 -268 199 -269 369 0 71 20 165 36 165 5 0 9 -4 9 -8z m3624 -448 c20
-20 21 -68 1 -84 -19 -16 -61 -16 -80 0 -8 7 -15 24 -15 38 0 52 59 81 94 46z"/>
<path d="M2566 3949 c-227 -33 -439 -140 -602 -303 -127 -126 -214 -276 -271
-461 -25 -84 -27 -103 -27 -275 -1 -163 2 -195 22 -270 28 -101 93 -243 151
-329 172 -252 465 -427 769 -456 l71 -8 6 -41 c4 -22 5 -59 3 -81 l-3 -40
-108 -3 c-105 -3 -108 -3 -105 -25 l3 -22 235 0 235 0 3 23 c3 22 2 22 -102
22 l-106 0 0 84 0 83 72 7 c288 29 564 184 740 416 65 84 152 264 178 363 91
360 -4 729 -257 998 -230 243 -579 366 -907 318z m396 -73 c476 -122 797 -582
747 -1069 -60 -590 -609 -1000 -1188 -888 -380 74 -680 354 -783 731 -20 73
-23 108 -23 255 0 203 17 282 95 440 151 307 433 507 785 559 78 11 272 -3
367 -28z"/>
<path d="M2646 3804 c-86 -27 -187 -151 -241 -296 -17 -45 -19 -47 -49 -40
-17 4 -85 7 -151 7 -103 0 -127 -4 -170 -23 -118 -54 -162 -144 -130 -265 19
-75 63 -160 116 -227 28 -35 39 -57 33 -65 -48 -63 -117 -177 -134 -223 -26
-68 -29 -165 -7 -208 23 -44 67 -84 117 -107 53 -23 225 -35 306 -20 l51 10
32 -78 c18 -43 52 -106 77 -139 160 -218 356 -173 493 112 l46 96 120 -5 c142
-7 215 6 277 47 76 51 107 131 88 227 -17 81 -60 161 -154 287 -5 8 9 35 40
76 27 36 65 99 83 140 75 161 30 297 -113 347 -54 19 -247 26 -313 11 -30 -7
-32 -5 -44 30 -20 63 -80 170 -121 217 -76 87 -162 117 -252 89z m131 -55 c58
-28 117 -98 164 -195 21 -44 39 -85 39 -90 0 -9 -243 -95 -270 -95 -8 0 -72
19 -142 43 -145 49 -139 37 -82 153 43 88 101 157 156 184 54 26 80 26 135 0z
m-413 -330 c3 -2 -4 -40 -15 -84 -10 -43 -21 -105 -25 -137 -6 -56 -9 -61 -63
-105 -31 -26 -80 -70 -109 -97 l-53 -51 -35 40 c-19 22 -53 77 -76 122 -79
158 -51 257 88 309 29 11 71 13 162 11 67 -2 124 -6 126 -8z m982 -4 c91 -27
143 -103 129 -191 -8 -56 -73 -187 -119 -239 l-34 -40 -54 51 c-29 28 -79 72
-110 99 -42 34 -58 54 -58 72 0 14 -9 70 -20 125 -12 56 -22 106 -23 111 -5
27 208 36 289 12z m-812 -46 c53 -17 96 -34 96 -38 0 -3 -42 -29 -93 -58 -50
-29 -107 -62 -126 -75 l-34 -22 7 45 c13 83 38 179 46 179 4 0 51 -14 104 -31z
m485 -58 c33 -140 34 -138 -57 -83 -42 26 -99 58 -125 72 -26 14 -47 28 -47
31 0 7 175 67 197 68 6 1 20 -38 32 -88z m-214 -57 c104 -54 225 -129 243
-152 8 -11 12 -68 12 -199 0 -181 0 -184 -24 -206 -27 -25 -207 -133 -279
-168 l-47 -23 -88 45 c-136 71 -249 146 -256 172 -8 29 -8 335 0 364 7 26 93
84 239 160 55 29 102 52 105 53 3 0 46 -21 95 -46z m-500 -353 l0 -149 -45 38
c-25 21 -62 56 -83 78 l-38 39 76 71 c43 40 80 72 84 72 3 0 6 -67 6 -149z
m903 74 l77 -75 -50 -45 c-27 -25 -66 -58 -85 -74 l-35 -29 0 149 c0 82 3 149
8 149 4 0 42 -34 85 -75z m-1067 -151 c18 -20 66 -62 105 -95 71 -57 71 -59
78 -116 4 -33 15 -95 25 -138 11 -44 17 -82 14 -85 -2 -3 -66 -5 -142 -5 -126
0 -140 2 -186 25 -96 50 -117 143 -59 269 25 57 110 181 123 181 4 0 23 -16
42 -36z m1228 -17 c53 -70 100 -173 107 -233 8 -72 -25 -130 -91 -164 -46 -23
-60 -25 -186 -25 -76 0 -139 2 -142 5 -3 3 6 52 19 110 13 58 24 119 24 137 0
27 10 40 73 91 39 33 88 76 106 96 19 20 38 36 43 36 4 0 25 -24 47 -53z
m-756 -313 c9 -3 17 -9 17 -14 0 -8 -177 -70 -199 -70 -9 0 -35 97 -46 172
l-7 47 108 -65 c60 -35 117 -67 127 -70z m407 10 c-12 -52 -26 -94 -31 -94
-19 0 -199 61 -199 68 0 4 28 22 63 40 34 17 89 49 122 70 45 29 61 35 63 24
2 -8 -6 -57 -18 -108z m-163 -108 c67 -23 122 -45 123 -50 0 -5 -18 -47 -41
-94 -75 -156 -176 -231 -271 -203 -60 18 -134 97 -180 191 -58 119 -59 111 30
138 42 13 102 34 132 47 30 13 62 21 70 18 8 -4 70 -25 137 -47z"/>
<path d="M2470 1545 l0 -25 240 0 240 0 0 25 0 25 -240 0 -240 0 0 -25z"/>
</g>
</svg>
