<svg xmlns="http://www.w3.org/2000/svg" xmlns:xlink="http://www.w3.org/1999/xlink" viewBox="0 0 2187.25 1329.52"><defs><linearGradient id="dddce8ae-5e7b-469c-9eeb-35ca69285fe5" x1="1770.41" y1="689.27" x2="-427.39" y2="697.57" gradientTransform="matrix(0.96, -0.02, 0.02, 1, 180.51, 16.9)" gradientUnits="userSpaceOnUse"><stop offset="0" stop-color="#dae3fe"/><stop offset="1" stop-color="#e9effd"/></linearGradient><linearGradient id="4be88176-ba92-4a35-a2ae-721503aac7d0" x1="2494.92" y1="269.05" x2="2222.92" y2="613.05" gradientUnits="userSpaceOnUse"><stop offset="0" stop-color="#09005d"/><stop offset="1" stop-color="#1a0f91"/></linearGradient><linearGradient id="40508abf-745f-4ec5-b7ce-da6eb77ae40a" x1="2683.25" y1="-388.58" x2="2271.25" y2="131.42" xlink:href="#4be88176-ba92-4a35-a2ae-721503aac7d0"/><linearGradient id="ab56c27b-41e4-47b0-9fda-2b9849ad357f" x1="2706.17" y1="-370.42" x2="2294.17" y2="149.58" xlink:href="#4be88176-ba92-4a35-a2ae-721503aac7d0"/><linearGradient id="d88e963e-0bda-4355-88ca-cc0f3d0f9f19" x1="244.98" y1="746" x2="320.21" y2="746" gradientTransform="matrix(1, 0, 0, 1, 0, 0)" xlink:href="#dddce8ae-5e7b-469c-9eeb-35ca69285fe5"/><linearGradient id="930920e9-132b-4643-be04-842f5b95b804" x1="40.96" y1="1128.76" x2="284.24" y2="1128.76" gradientTransform="matrix(1, 0, 0, 1, 0, 0)" xlink:href="#dddce8ae-5e7b-469c-9eeb-35ca69285fe5"/><linearGradient id="25e5918f-82e2-4c6b-9845-59f73e81f2ee" x1="1516.28" y1="599.81" x2="1591.5" y2="599.81" gradientTransform="matrix(1, 0, 0, 1, 0, 0)" xlink:href="#dddce8ae-5e7b-469c-9eeb-35ca69285fe5"/><linearGradient id="1f5f21cc-b033-4e58-b9bb-ae321b73c1b1" x1="2658.44" y1="2419.68" x2="2813.4" y2="2419.68" gradientTransform="matrix(0.85, 0.53, -0.53, 0.85, 676.22, -2553.54)" xlink:href="#4be88176-ba92-4a35-a2ae-721503aac7d0"/><linearGradient id="ed56c90a-b728-4f31-94eb-e8d3c2116d96" x1="870.44" y1="1552.78" x2="450.44" y2="2964.79" gradientUnits="userSpaceOnUse"><stop offset="0" stop-color="#4042e2"/><stop offset="1" stop-color="#4f52ff"/></linearGradient><linearGradient id="88fe7395-6156-4c2a-bf8a-74d8736171d8" x1="1799.39" y1="-650" x2="1495.39" y2="6" xlink:href="#ed56c90a-b728-4f31-94eb-e8d3c2116d96"/><linearGradient id="6e7a27c6-7860-4b0e-bda3-e52a2d4cd8d2" x1="1349.46" y1="413.8" x2="1047.46" y2="923.8" gradientUnits="userSpaceOnUse"><stop offset="0" stop-color="#fe7062"/><stop offset="1" stop-color="#ff928e"/></linearGradient><linearGradient id="033f7b0d-8e94-4703-8353-c45def199a9c" x1="1050.79" y1="41.7" x2="1074.79" y2="427.7" gradientUnits="userSpaceOnUse"><stop offset="0" stop-color="#ff928e"/><stop offset="1" stop-color="#feb3b1"/></linearGradient><linearGradient id="89bc363f-48fc-4424-9b6d-486e01e705dd" x1="1051.65" y1="41.64" x2="1075.65" y2="427.64" xlink:href="#033f7b0d-8e94-4703-8353-c45def199a9c"/><linearGradient id="a31e2c82-974f-4ac9-936e-5a8c56a2faa5" x1="838.28" y1="532.58" x2="802.28" y2="698.58" xlink:href="#6e7a27c6-7860-4b0e-bda3-e52a2d4cd8d2"/><linearGradient id="a32f9278-1f6e-4f7e-a90b-f6d6c09a0de5" x1="678.67" y1="464.83" x2="714.67" y2="827.81" xlink:href="#033f7b0d-8e94-4703-8353-c45def199a9c"/><linearGradient id="721b5617-a2a4-4660-bcb3-653b92a4f62a" x1="679.05" y1="464.79" x2="715.04" y2="827.77" xlink:href="#033f7b0d-8e94-4703-8353-c45def199a9c"/><linearGradient id="53c6bc28-c5f5-46cd-87bf-222c0741062f" x1="1313.99" y1="407.64" x2="1097.99" y2="829.64" xlink:href="#6e7a27c6-7860-4b0e-bda3-e52a2d4cd8d2"/><linearGradient id="3d01b69b-194d-4940-8c22-d0a4b5909d8e" x1="1219.75" y1="159.58" x2="1230.24" y2="354.57" xlink:href="#033f7b0d-8e94-4703-8353-c45def199a9c"/><linearGradient id="3f46b681-4c34-4c46-9faf-fed074bd2d04" x1="1220.01" y1="159.57" x2="1230.51" y2="354.56" xlink:href="#033f7b0d-8e94-4703-8353-c45def199a9c"/><linearGradient id="fd1d6880-5943-4f60-81ee-a89057f5d72c" x1="562.2" y1="696.91" x2="559.2" y2="763.91" xlink:href="#4be88176-ba92-4a35-a2ae-721503aac7d0"/><linearGradient id="d5f31e97-40e9-438a-a2d2-3e2784e5adb3" x1="531.46" y1="864.95" x2="575.85" y2="864.95" xlink:href="#4be88176-ba92-4a35-a2ae-721503aac7d0"/><linearGradient id="8382e639-7b9e-4619-993e-92e5299cd9fd" x1="535.68" y1="852.45" x2="548.55" y2="852.45" xlink:href="#033f7b0d-8e94-4703-8353-c45def199a9c"/><linearGradient id="8b31373e-f9c4-4028-958a-17f0dd7faabd" x1="457.2" y1="692.21" x2="454.2" y2="759.21" xlink:href="#4be88176-ba92-4a35-a2ae-721503aac7d0"/><linearGradient id="2e8ebe73-0c16-4e09-b674-a983ab9c6bcc" x1="440.53" y1="859.44" x2="466.22" y2="859.44" xlink:href="#4be88176-ba92-4a35-a2ae-721503aac7d0"/><linearGradient id="8b54caa0-1d4e-45ec-91b0-fd2c75918a62" x1="453.88" y1="841.73" x2="469.26" y2="841.73" xlink:href="#033f7b0d-8e94-4703-8353-c45def199a9c"/><linearGradient id="dbe9ca0a-99d9-41c8-a589-db0215b39e47" x1="418.27" y1="886.69" x2="620.26" y2="658.16" xlink:href="#4be88176-ba92-4a35-a2ae-721503aac7d0"/><linearGradient id="ba213bb2-629e-40c8-8d6d-7d570b48d170" x1="647.26" y1="520.74" x2="294.76" y2="827.33" xlink:href="#6e7a27c6-7860-4b0e-bda3-e52a2d4cd8d2"/><linearGradient id="a61139c6-611f-4867-a8b5-0bfcb6b09783" x1="552.67" y1="677.36" x2="573.17" y2="588.36" xlink:href="#ed56c90a-b728-4f31-94eb-e8d3c2116d96"/><linearGradient id="add88b6e-c9bf-4a83-bf77-66105592f377" x1="538.99" y1="551.12" x2="504.49" y2="634.62" xlink:href="#033f7b0d-8e94-4703-8353-c45def199a9c"/><linearGradient id="b3e53805-c23f-4d82-bf08-76aeb519612a" x1="617.87" y1="488.25" x2="266.96" y2="793.45" xlink:href="#6e7a27c6-7860-4b0e-bda3-e52a2d4cd8d2"/><linearGradient id="435d6e14-b9db-4911-9d7e-8dec58e6beff" x1="673.03" y1="551.67" x2="322.12" y2="856.88" xlink:href="#6e7a27c6-7860-4b0e-bda3-e52a2d4cd8d2"/><linearGradient id="7162db28-50be-4b0c-affb-013f0ce72420" x1="626.94" y1="622.18" x2="670.05" y2="622.18" xlink:href="#033f7b0d-8e94-4703-8353-c45def199a9c"/><linearGradient id="c6e26598-7d44-4344-82df-1d62011bb0f3" x1="585.04" y1="506.98" x2="584.57" y2="587.48" xlink:href="#033f7b0d-8e94-4703-8353-c45def199a9c"/><linearGradient id="e017aa3d-dccb-473f-85f2-4aa3665640c0" x1="659.88" y1="604.94" x2="512.55" y2="680.27" xlink:href="#4be88176-ba92-4a35-a2ae-721503aac7d0"/><linearGradient id="86d9a6cc-91b8-4e1c-8c5a-06e52c171bd3" x1="666.86" y1="553.66" x2="897.43" y2="553.66" xlink:href="#4be88176-ba92-4a35-a2ae-721503aac7d0"/><linearGradient id="1b843a21-8895-4eb6-8fbb-3124f0d305d2" x1="698.25" y1="507.17" x2="639.59" y2="507.17" xlink:href="#033f7b0d-8e94-4703-8353-c45def199a9c"/><linearGradient id="4249587a-7de6-4fb3-a085-9e5abc5fbf85" x1="256.82" y1="2173.72" x2="304.16" y2="2173.72" gradientTransform="translate(18.43 -1604.08) rotate(-8.21)" xlink:href="#4be88176-ba92-4a35-a2ae-721503aac7d0"/><linearGradient id="53db6c63-04e6-4c31-8058-6c8ddf3fef59" x1="229.05" y1="2202.59" x2="260.83" y2="2169.98" gradientTransform="translate(18.43 -1604.08) rotate(-8.21)" xlink:href="#033f7b0d-8e94-4703-8353-c45def199a9c"/><linearGradient id="dedee027-fade-46d1-89bf-6a36a6457e07" x1="566.25" y1="562.39" x2="531.75" y2="645.89" xlink:href="#033f7b0d-8e94-4703-8353-c45def199a9c"/><linearGradient id="7529b720-667d-4607-8d8a-ba6c254952ca" x1="665.47" y1="617.12" x2="680.91" y2="617.12" xlink:href="#033f7b0d-8e94-4703-8353-c45def199a9c"/><linearGradient id="3189b5a4-c908-4fe8-98d2-07fd5f3ea725" x1="9055" y1="1075.75" x2="9055.5" y2="1166.75" gradientTransform="matrix(-1, 0, 0, 1, 10664.21, 0)" xlink:href="#4be88176-ba92-4a35-a2ae-721503aac7d0"/><linearGradient id="6d08fe34-83d8-4ccf-8b9d-7b2ff800e9f4" x1="9031.52" y1="1299.05" x2="9044.54" y2="1299.05" gradientTransform="matrix(-1, 0, 0, 1, 10664.21, 0)" xlink:href="#033f7b0d-8e94-4703-8353-c45def199a9c"/><linearGradient id="12f098bf-a404-42c9-8ef8-2dfdb17ae2a3" x1="9000.63" y1="1199.45" x2="9043.7" y2="1199.45" gradientTransform="matrix(-1, 0, 0, 1, 10664.21, 0)" xlink:href="#4be88176-ba92-4a35-a2ae-721503aac7d0"/><linearGradient id="ed34f990-5e22-4426-8241-19ecb450c934" x1="8990.97" y1="1076.1" x2="8991.47" y2="1167.1" gradientTransform="matrix(-1, 0, 0, 1, 10664.21, 0)" xlink:href="#4be88176-ba92-4a35-a2ae-721503aac7d0"/><linearGradient id="2fbb7231-453c-4a37-b158-7bf97b790514" x1="8984.57" y1="1298.39" x2="8995.82" y2="1298.39" gradientTransform="matrix(-1, 0, 0, 1, 10664.21, 0)" xlink:href="#033f7b0d-8e94-4703-8353-c45def199a9c"/><linearGradient id="19b5ea21-1e7f-4bc8-a63a-afa4abc9f353" x1="8972.45" y1="1198.05" x2="9033.6" y2="1198.05" gradientTransform="matrix(-1, 0, 0, 1, 10664.21, 0)" xlink:href="#4be88176-ba92-4a35-a2ae-721503aac7d0"/><linearGradient id="8db98282-407a-43b5-987b-02baebf85afa" x1="12845.76" y1="1028.59" x2="12936.74" y2="1121.76" gradientTransform="matrix(-1, 0, 0, 1, 14490.21, 0)" xlink:href="#6e7a27c6-7860-4b0e-bda3-e52a2d4cd8d2"/><linearGradient id="fd82e25f-6320-467d-86fa-f88df1525cce" x1="1477.34" y1="845.15" x2="1554.34" y2="966.65" xlink:href="#033f7b0d-8e94-4703-8353-c45def199a9c"/><linearGradient id="3fd4c197-3a88-44c8-bb0b-913515779a25" x1="1471.6" y1="848.79" x2="1548.6" y2="970.29" xlink:href="#033f7b0d-8e94-4703-8353-c45def199a9c"/><linearGradient id="ba60fb01-012a-48ca-92a5-b8830d70a84e" x1="1544.31" y1="870.57" x2="1501.81" y2="919.57" xlink:href="#033f7b0d-8e94-4703-8353-c45def199a9c"/><linearGradient id="539a2504-f25d-49c1-93e5-39abc0fae330" x1="8999.31" y1="1048.57" x2="9090.28" y2="1141.73" gradientTransform="matrix(-1, 0, 0, 1, 10664.21, 0)" xlink:href="#6e7a27c6-7860-4b0e-bda3-e52a2d4cd8d2"/><linearGradient id="995311ed-b6ae-4ddf-ba0a-6ed09fa51991" x1="8939.5" y1="1053.49" x2="9023.72" y2="1053.49" gradientTransform="matrix(-1, 0, 0, 1, 10664.21, 0)" xlink:href="#033f7b0d-8e94-4703-8353-c45def199a9c"/><linearGradient id="50042a83-dfaa-479f-945b-d517f06ba7e8" x1="1664.41" y1="945.7" x2="1628.41" y2="1000.7" xlink:href="#4be88176-ba92-4a35-a2ae-721503aac7d0"/><linearGradient id="1441e52e-1894-418a-a42b-99c38c588795" x1="8428.75" y1="3563.74" x2="8420.25" y2="3597.74" gradientTransform="matrix(-1, 0, 0, 1, 10664.21, 0)" xlink:href="#ed56c90a-b728-4f31-94eb-e8d3c2116d96"/><linearGradient id="7b74b4ab-0e98-4e73-bf93-390de66d44dc" x1="8429" y1="3563.79" x2="8420.5" y2="3597.79" gradientTransform="matrix(-1, 0, 0, 1, 10664.21, 0)" xlink:href="#ed56c90a-b728-4f31-94eb-e8d3c2116d96"/><linearGradient id="bd20ad38-6653-458a-bfc0-b3f141963a56" x1="1665.47" y1="1004.81" x2="1643.97" y2="1032.31" xlink:href="#033f7b0d-8e94-4703-8353-c45def199a9c"/><linearGradient id="4b6eba20-7155-4386-af74-91ee23c15cd1" x1="1635.4" y1="914.1" x2="1652.9" y2="1023.6" xlink:href="#033f7b0d-8e94-4703-8353-c45def199a9c"/><linearGradient id="73bf200c-27c5-46d2-83e5-c4e60630f73d" x1="2276.56" y1="1117.83" x2="2241.56" y2="1188.33" gradientTransform="matrix(-0.75, -0.67, -0.67, 0.75, 4963.88, -1616.13)" xlink:href="#033f7b0d-8e94-4703-8353-c45def199a9c"/><linearGradient id="eee55d4b-156e-4991-beb1-05bfc9175927" x1="780.59" y1="4064.8" x2="791" y2="4124.16" gradientTransform="matrix(-0.75, -0.67, -0.67, 0.75, 4963.88, -1616.13)" xlink:href="#4be88176-ba92-4a35-a2ae-721503aac7d0"/><linearGradient id="8e2fd411-e6a8-4a24-be34-644c38c52e7b" x1="2264.96" y1="1112.05" x2="2229.96" y2="1182.55" gradientTransform="matrix(-0.75, -0.67, -0.67, 0.75, 4963.88, -1616.13)" xlink:href="#033f7b0d-8e94-4703-8353-c45def199a9c"/><linearGradient id="b69fd1b8-122c-421a-b22b-b9b408507fee" x1="1554.2" y1="591.76" x2="2190.35" y2="109.01" xlink:href="#6e7a27c6-7860-4b0e-bda3-e52a2d4cd8d2"/></defs><title>cloud-services</title><g id="5aced6f9-7877-4c4c-b803-5c22ddcdecc3" data-name="Layer 2"><g id="367a2f4f-2612-45a3-b8f2-ceb79f82b836" data-name="Illustration"><path d="M2103.71,787.53l-46.59-55.35S1848,539.71,1840.37,322.68,1740.2,76.41,1518.71,62.62C1331.46,50.95,1115,18.11,941.1,141.14c-76.31,54-166.65,81.4-258.27,78l-201.94-7.4c-96.35-3.53-191.14,26.87-269.44,86.65-116.08,88.63-241,251.85-189.8,529.65,8.7,47.17,14.21,96.62,15.11,144.66l2.2,118c1.93,103.65,79.75,187.37,176.9,189.66l1515.7,35.67c155.82,3.67,305.56-63.05,412.52-183.71,28.52-32.17,44-75,43.15-119.37C2185.67,929.68,2156,849.63,2103.71,787.53Z" style="fill:url(#dddce8ae-5e7b-469c-9eeb-35ca69285fe5)"/><path d="M886,264.91H424.48A17.86,17.86,0,0,1,406.62,247h0a17.86,17.86,0,0,1,17.86-17.86H886A17.86,17.86,0,0,1,903.91,247h0A17.86,17.86,0,0,1,886,264.91Z" style="fill:#bdd0fb"/><path d="M941.51,334.87H479.94A17.86,17.86,0,0,1,462.08,317h0a17.86,17.86,0,0,1,17.86-17.86H941.51A17.86,17.86,0,0,1,959.37,317h0A17.86,17.86,0,0,1,941.51,334.87Z" style="fill:#bdd0fb"/><path d="M810.25,474.79H479.94a17.86,17.86,0,0,1-17.86-17.86h0a17.86,17.86,0,0,1,17.86-17.86H810.25a17.86,17.86,0,0,1,17.86,17.86h0A17.86,17.86,0,0,1,810.25,474.79Z" style="fill:#bdd0fb"/><path d="M993.27,404.83H531.7A17.86,17.86,0,0,1,513.84,387h0a17.86,17.86,0,0,1,17.86-17.86H993.27A17.86,17.86,0,0,1,1011.13,387h0A17.86,17.86,0,0,1,993.27,404.83Z" style="fill:#bdd0fb"/><path d="M2040.13,335.44l37.7,2.36a35,35,0,0,1,32.82,35.46l-13.16,895a36.73,36.73,0,0,1-37.51,36.19l-259-5.53Z" style="fill:url(#4be88176-ba92-4a35-a2ae-721503aac7d0)"/><path d="M1587.82,336.19l478.1-23.11a17,17,0,0,1,17.77,17.48L2054.2,1252.8a35.45,35.45,0,0,1-36.86,34.29l-336-13.51Z" style="fill:#91b3fa"/><path d="M1613.34,355.58l420.5-53.65A17.82,17.82,0,0,1,2053.92,320l-20.45,930.18a24.64,24.64,0,0,1-23.91,24.09l-309.36,9Z" style="fill:#bdd0fb"/><path d="M1502.82,309.34l461-28.7a39.92,39.92,0,0,1,42.4,39.84v949.87a34.88,34.88,0,0,1-34.88,34.88H1546.31a37.74,37.74,0,0,1-37.69-35.71l-49.08-911.57A46.21,46.21,0,0,1,1502.82,309.34Z" style="fill:url(#40508abf-745f-4ec5-b7ce-da6eb77ae40a)"/><rect x="1970.41" y="371.27" width="71.67" height="283.46" rx="12.05" ry="12.05" style="fill:url(#ab56c27b-41e4-47b0-9fda-2b9849ad357f)"/><path d="M260.57,939.33a11.58,11.58,0,0,1-19.05-2.6c-20.07-40.7-66.43-160.9-1.1-303.29,55.17-120.24,73.65-190.68,79.83-223.24a7.26,7.26,0,0,1,13.68-1.79C367.45,478.08,457.73,715.85,260.57,939.33Z" style="fill:#bdd0fb"/><path d="M249.51,936.68a4.51,4.51,0,0,1-4.51-4.43c0-2-2.74-203.23,66.51-374.12a4.51,4.51,0,0,1,8.36,3.39C251.31,730.73,254,930.1,254,932.09a4.51,4.51,0,0,1-4.43,4.59Z" style="fill:url(#d88e963e-0bda-4355-88ca-cc0f3d0f9f19)"/><path d="M49.5,401.12c-11.13,89.52-66.79,641.51,226.78,817.65a13.93,13.93,0,0,0,21-10.94c4.76-65.79,7.74-274.86-113-521.62C97.19,508.18,65.26,427.92,55.19,400.47A3,3,0,0,0,49.5,401.12Z" style="fill:#91b3fa"/><path d="M297.33,1212.34a4.51,4.51,0,0,1-4-2.36C215.18,1066.24,161.79,908.81,130.77,802,97.71,688.26,80.28,598.57,82.1,592.78a4.51,4.51,0,0,1,8.76,2.07c0,14.76,63.22,340.18,210.43,610.83a4.51,4.51,0,0,1-4,6.67ZM90.71,595.46h0Z" style="fill:#bdd0fb"/><path d="M273.19,1240.08c-59.47,6.44-232.94-.7-273.11-292.86-1.14-8.3,9.43-12.74,14.52-6.09,23.84,31.14,66.44,84.26,104.82,102.68,118.92,57.07,157.16,136.31,168.92,172.92A17.94,17.94,0,0,1,273.19,1240.08Z" style="fill:#bdd0fb"/><path d="M279.72,1234.47a4.51,4.51,0,0,1-1.61-.3c-162.39-62-235.93-203.13-236.66-204.55a4.51,4.51,0,0,1,8-4.1c.71,1.39,72.8,139.46,231.84,200.23a4.51,4.51,0,0,1-1.61,8.73Z" style="fill:url(#930920e9-132b-4643-be04-842f5b95b804)"/><path d="M1575.91,793.15a11.58,11.58,0,0,0,19.05-2.6c20.07-40.7,66.43-160.9,1.1-303.29C1540.9,367,1522.41,296.57,1516.23,264a7.26,7.26,0,0,0-13.68-1.79C1469,331.89,1378.75,569.66,1575.91,793.15Z" style="fill:#bdd0fb"/><path d="M1587,790.49h-.08a4.51,4.51,0,0,1-4.43-4.59c0-2,2.69-201.42-65.85-370.57a4.51,4.51,0,1,1,8.36-3.39c69.25,170.9,66.55,372.11,66.51,374.12A4.51,4.51,0,0,1,1587,790.49Z" style="fill:url(#25e5918f-82e2-4c6b-9845-59f73e81f2ee)"/><path d="M1787,254.93c11.13,89.52,66.79,641.51-226.78,817.65a13.93,13.93,0,0,1-21-10.94c-4.76-65.79-7.74-274.86,113-521.62,87.12-178,119.05-258.29,129.12-285.74A3,3,0,0,1,1787,254.93Z" style="fill:#91b3fa"/><path d="M1539.15,1066.15a4.51,4.51,0,0,1-4-6.67c147.2-270.62,210.44-596.07,210.43-610.83a4.51,4.51,0,0,1,8.76-2.06c1.81,5.8-15.62,95.49-48.67,209.27-31,106.76-84.41,264.2-162.59,407.94A4.51,4.51,0,0,1,1539.15,1066.15Zm206.62-616.88h0Zm0,0h0Zm-.14-.75Z" style="fill:#bdd0fb"/><path d="M1563.29,1093.89c59.47,6.44,232.94-.7,273.11-292.86,1.14-8.3-9.43-12.74-14.52-6.09-23.84,31.14-66.44,84.26-104.82,102.68-118.92,57.07-157.16,136.31-168.92,172.92A17.94,17.94,0,0,0,1563.29,1093.89Z" style="fill:url(#1f5f21cc-b033-4e58-b9bb-ae321b73c1b1)"/><path d="M1556.76,1088.28a4.51,4.51,0,0,1-1.61-8.73c159.19-60.82,231.13-198.84,231.84-200.22a4.51,4.51,0,0,1,8,4.1c-.72,1.42-74.27,142.51-236.66,204.55A4.51,4.51,0,0,1,1556.76,1088.28Z" style="fill:#2a6fae"/><path d="M1567.23,697.74a11.7,11.7,0,0,1-11.43-11.48c-1.17-64.27-21.22-383.38-302.25-450.06C940.68,162,797.5,480.13,797.5,480.13S410.39,331.65,336.14,729.37C93.42,787.63,30.35,1104.62,188.23,1259.52a135.7,135.7,0,0,0,93.85,38.84L1802.19,1312a100.08,100.08,0,0,0,96.85-71.58C1946.53,1080.2,2008.76,708.08,1567.23,697.74Z" style="fill:url(#ed56c90a-b728-4f31-94eb-e8d3c2116d96)"/><path d="M1532.48,704.56a11.7,11.7,0,0,1-11.42-11.45c-1.25-61.64-21.1-357.54-285.78-419.57-295.84-69.33-431.23,227.8-431.23,227.8S438,362.67,367.81,734.08c-227.32,53.88-288,344.77-144.1,490.87a135.76,135.76,0,0,0,95.52,40.49l1431,12.73a100.08,100.08,0,0,0,96.92-71.85C1891.76,1054.13,1944.72,714.42,1532.48,704.56Z" style="fill:url(#88fe7395-6156-4c2a-bf8a-74d8736171d8)"/><g style="opacity:0.64"><path d="M813.51,924.66a3.38,3.38,0,0,1-3.25-2.43q-1.28-4.37-2.43-8.79a3.38,3.38,0,1,1,6.55-1.71q1.13,4.32,2.38,8.59a3.39,3.39,0,0,1-3.25,4.34Z" style="fill:#fff"/><path d="M805.26,888.18a3.39,3.39,0,0,1-3.34-2.85c-.93-5.79-1.7-11.69-2.29-17.53a3.38,3.38,0,1,1,6.73-.68c.58,5.71,1.33,11.48,2.24,17.14a3.38,3.38,0,0,1-3.35,3.92Zm-3.75-45.7a3.39,3.39,0,0,1-3.38-3.37v-1.59c0-5.33.14-10.75.43-16.09a3.34,3.34,0,0,1,3.56-3.2,3.38,3.38,0,0,1,3.2,3.56c-.28,5.22-.42,10.52-.42,15.74v1.54a3.38,3.38,0,0,1-3.37,3.4Zm3.24-45.73a3.33,3.33,0,0,1-.5,0,3.39,3.39,0,0,1-2.86-3.84c.86-5.82,1.9-11.67,3.09-17.4a3.38,3.38,0,1,1,6.63,1.38c-1.17,5.6-2.18,11.33-3,17A3.39,3.39,0,0,1,804.75,796.75Zm10.15-44.7a3.39,3.39,0,0,1-3.23-4.39c1.73-5.59,3.66-11.21,5.73-16.72a3.38,3.38,0,1,1,6.34,2.38c-2,5.39-3.9,10.88-5.6,16.35A3.38,3.38,0,0,1,814.9,752.05Zm16.91-42.61a3.38,3.38,0,0,1-3-4.87c2.58-5.28,5.36-10.55,8.25-15.66a3.38,3.38,0,1,1,5.89,3.33c-2.82,5-5.54,10.15-8.07,15.31A3.38,3.38,0,0,1,831.81,709.45Zm23.3-39.52a3.38,3.38,0,0,1-2.77-5.32c3.36-4.8,6.9-9.58,10.55-14.2a3.38,3.38,0,0,1,5.31,4.19c-3.57,4.52-7,9.19-10.32,13.88A3.38,3.38,0,0,1,855.11,669.93Zm29.07-35.47a3.38,3.38,0,0,1-2.45-5.72c4-4.23,8.28-8.41,12.59-12.41a3.38,3.38,0,1,1,4.61,5c-4.21,3.92-8.35,8-12.31,12.14A3.38,3.38,0,0,1,884.18,634.46Zm34.14-30.61a3.38,3.38,0,0,1-2.06-6.07c4.66-3.58,9.48-7.06,14.32-10.35a3.38,3.38,0,0,1,3.8,5.6c-4.73,3.21-9.45,6.62-14,10.12A3.37,3.37,0,0,1,918.32,603.85Zm38.39-25a3.38,3.38,0,0,1-1.63-6.35c5.14-2.82,10.43-5.52,15.73-8a3.38,3.38,0,1,1,2.9,6.12c-5.18,2.46-10.35,5.1-15.38,7.85A3.36,3.36,0,0,1,956.71,578.81ZM1237.9,576a3.37,3.37,0,0,1-1.56-.39c-5.08-2.65-10.31-5.19-15.55-7.54a3.38,3.38,0,1,1,2.77-6.17c5.36,2.41,10.71,5,15.91,7.72a3.38,3.38,0,0,1-1.57,6.38Zm-239.43-16a3.39,3.39,0,0,1-1.15-6.57c5.5-2,11.14-3.85,16.76-5.52a3.38,3.38,0,0,1,1.93,6.49c-5.49,1.63-11,3.45-16.38,5.39A3.37,3.37,0,0,1,998.47,559.93Zm197.27-2a3.39,3.39,0,0,1-1.08-.18c-5.42-1.84-11-3.53-16.53-5.05a3.38,3.38,0,1,1,1.78-6.53c5.67,1.55,11.36,3.29,16.91,5.17a3.38,3.38,0,0,1-1.08,6.59Zm-153.12-10.25A3.38,3.38,0,0,1,1042,541c5.76-1.12,11.63-2.09,17.44-2.87a3.38,3.38,0,0,1,.9,6.71c-5.68.76-11.42,1.71-17,2.8A3.36,3.36,0,0,1,1042.62,547.71Zm108.67-1a3.38,3.38,0,0,1-.58,0c-5.65-1-11.4-1.81-17.11-2.46a3.38,3.38,0,1,1,.77-6.72c5.84.67,11.72,1.51,17.5,2.51a3.38,3.38,0,0,1-.57,6.72Zm-63.14-4.23a3.38,3.38,0,0,1-.13-6.77c5.84-.22,11.77-.28,17.68-.16a3.38,3.38,0,1,1-.14,6.77c-5.78-.12-11.58-.06-17.29.16Z" style="fill:#fff"/><path d="M1270.08,595.46a3.37,3.37,0,0,1-1.93-.61q-3.65-2.54-7.39-5a3.38,3.38,0,0,1,3.69-5.67q3.83,2.49,7.57,5.1a3.38,3.38,0,0,1-1.94,6.16Z" style="fill:#fff"/></g><g style="opacity:0.64"><path d="M1394,790a3.39,3.39,0,0,1-3.33-2.81q-.76-4.4-1.64-8.76a3.38,3.38,0,1,1,6.63-1.35q.91,4.46,1.68,9a3.38,3.38,0,0,1-2.76,3.91A3.34,3.34,0,0,1,1394,790Z" style="fill:#fff"/><path d="M1100.21,1139c-3.8,0-7.65-.07-11.46-.21a3.38,3.38,0,1,1,.26-6.76c6.05.23,12.16.27,18.17.13a3.38,3.38,0,1,1,.16,6.77Q1103.79,1139,1100.21,1139Zm36.82-2.27a3.38,3.38,0,0,1-.41-6.74c6-.74,12-1.68,17.95-2.8a3.38,3.38,0,1,1,1.25,6.65c-6.06,1.14-12.24,2.1-18.36,2.86Zm-77.89-.53a3.46,3.46,0,0,1-.46,0c-6.13-.84-12.29-1.88-18.34-3.09a3.38,3.38,0,0,1,1.33-6.64c5.9,1.18,11.93,2.2,17.92,3a3.38,3.38,0,0,1-.45,6.74Zm125.07-9.28a3.38,3.38,0,0,1-1-6.63c5.78-1.7,11.58-3.61,17.23-5.66a3.38,3.38,0,1,1,2.31,6.36c-5.79,2.1-11.72,4.05-17.63,5.79A3.4,3.4,0,0,1,1184.21,1127Zm-172.16-1.09a3.39,3.39,0,0,1-1-.15c-5.9-1.81-11.82-3.83-17.59-6a3.38,3.38,0,1,1,2.38-6.33c5.64,2.12,11.43,4.1,17.2,5.87a3.38,3.38,0,0,1-1,6.62Zm217.1-16.23a3.38,3.38,0,0,1-1.47-6.43c5.43-2.62,10.85-5.43,16.11-8.38a3.38,3.38,0,1,1,3.3,5.9c-5.38,3-10.92,5.9-16.47,8.57A3.37,3.37,0,0,1,1229.15,1109.64ZM967.28,1108a3.37,3.37,0,0,1-1.5-.35c-5.52-2.74-11-5.7-16.39-8.78a3.38,3.38,0,1,1,3.38-5.86c5.23,3,10.62,5.9,16,8.58a3.38,3.38,0,0,1-1.51,6.42Zm303.46-22.71a3.38,3.38,0,0,1-1.94-6.16c4.94-3.45,9.84-7.11,14.56-10.86a3.38,3.38,0,1,1,4.21,5.3c-4.83,3.84-9.84,7.58-14.9,11.11A3.38,3.38,0,0,1,1270.73,1085.3Zm37.15-30.7a3.38,3.38,0,0,1-2.36-5.81c4.33-4.2,8.58-8.59,12.64-13.05a3.38,3.38,0,0,1,5,4.56c-4.16,4.56-8.51,9.06-12.93,13.35A3.37,3.37,0,0,1,1307.88,1054.6Zm31.76-36.26a3.38,3.38,0,0,1-2.71-5.4c3.6-4.85,7.1-9.87,10.39-14.92a3.38,3.38,0,1,1,5.67,3.69c-3.36,5.17-6.94,10.3-10.62,15.27A3.38,3.38,0,0,1,1339.65,1018.35Zm25.53-40.9a3.38,3.38,0,0,1-3-4.94c2.77-5.37,5.41-10.89,7.84-16.42a3.38,3.38,0,1,1,6.19,2.73c-2.49,5.66-5.19,11.31-8,16.79A3.38,3.38,0,0,1,1365.17,977.44Zm18.57-44.51a3.39,3.39,0,0,1-3.22-4.43c1.85-5.72,3.56-11.59,5.06-17.44a3.38,3.38,0,0,1,6.56,1.69c-1.54,6-3.28,12-5.18,17.85A3.39,3.39,0,0,1,1383.74,932.94ZM1394.85,886a3.43,3.43,0,0,1-.52,0,3.38,3.38,0,0,1-2.83-3.86c.91-6,1.65-12,2.19-18a3.38,3.38,0,0,1,6.74.61c-.56,6.15-1.32,12.35-2.25,18.44A3.38,3.38,0,0,1,1394.85,886Zm3.46-48.07a3.38,3.38,0,0,1-3.38-3.36c0-6-.28-12.15-.7-18.16A3.38,3.38,0,1,1,1401,816c.43,6.14.67,12.39.72,18.58a3.38,3.38,0,0,1-3.36,3.41Z" style="fill:#fff"/><path d="M925.81,1083a3.37,3.37,0,0,1-2-.64q-3.7-2.67-7.32-5.44a3.38,3.38,0,0,1,4.12-5.37q3.53,2.71,7.16,5.32a3.38,3.38,0,0,1-2,6.13Z" style="fill:#fff"/></g><path d="M938.78,1000.29a3.58,3.58,0,0,0,4,1.1l40.91-15a189.87,189.87,0,0,0,54.16,29.17l10,42.4a3.58,3.58,0,0,0,3.13,2.74l52,5.27a3.58,3.58,0,0,0,3.61-2.06l18.28-39.54a189.88,189.88,0,0,0,58.91-17.71l37.06,22.94a3.58,3.58,0,0,0,4.15-.27l40.51-33.06a3.58,3.58,0,0,0,1.1-4l-15-40.91a189.87,189.87,0,0,0,29.17-54.16l42.4-10a3.58,3.58,0,0,0,2.74-3.12l5.27-52a3.58,3.58,0,0,0-2.06-3.61l-39.54-18.28a189.84,189.84,0,0,0-17.71-58.91l22.94-37.06a3.58,3.58,0,0,0-.27-4.15l-33.06-40.51a3.58,3.58,0,0,0-4-1.1l-40.91,15a189.85,189.85,0,0,0-54.16-29.17l-10-42.4a3.58,3.58,0,0,0-3.12-2.74l-52-5.27a3.58,3.58,0,0,0-3.61,2.06l-18.28,39.54a189.85,189.85,0,0,0-58.91,17.71l-37.06-22.94a3.58,3.58,0,0,0-4.15.27l-40.51,33.06a3.58,3.58,0,0,0-1.1,4l15,40.91a189.87,189.87,0,0,0-29.17,54.16l-42.4,10a3.58,3.58,0,0,0-2.74,3.13l-5.27,52a3.58,3.58,0,0,0,2.06,3.61l39.54,18.28a189.89,189.89,0,0,0,17.71,58.91l-22.94,37.06a3.58,3.58,0,0,0,.27,4.15Z" style="fill:url(#6e7a27c6-7860-4b0e-bda3-e52a2d4cd8d2)"/><path d="M1100,884.71a49.88,49.88,0,1,1,7.37-.54h0A50.43,50.43,0,0,1,1100,884.71Zm.13-92.87a43.27,43.27,0,0,0-6.3.46,43,43,0,0,0,12.55,85.17h0a43,43,0,0,0-6.25-85.63Z" style="fill:url(#033f7b0d-8e94-4703-8353-c45def199a9c)"/><path d="M1101,963.67a130.23,130.23,0,0,1-13.15-.67h0a130.39,130.39,0,0,1-27-5.66,3.38,3.38,0,0,1-2.34-3.22,3.33,3.33,0,0,1,.17-1,3.39,3.39,0,0,1,4.26-2.18,123.64,123.64,0,0,0,25.59,5.37h0a122.86,122.86,0,0,0,134.28-107.61c.09-.72.17-1.45.24-2.17a125.31,125.31,0,0,0,.64-12.62,122.78,122.78,0,0,0-244.94-12.13,122.81,122.81,0,0,0,11,64.47,3.32,3.32,0,0,1,.32,1.44,3.38,3.38,0,0,1-6.45,1.44,129.56,129.56,0,1,1,246.88-55.24,132,132,0,0,1-.67,13.31C1223,913.82,1166.61,963.67,1101,963.67Z" style="fill:url(#89bc363f-48fc-4424-9b6d-486e01e705dd)"/><g style="opacity:0.64"><path d="M609.17,1056a2.26,2.26,0,0,1-2.16-1.62q-.81-2.75-1.5-5.54a2.26,2.26,0,1,1,4.38-1.08q.67,2.69,1.45,5.35a2.26,2.26,0,0,1-2.16,2.89Z" style="fill:#fff"/><path d="M605.46,1039.45a2.25,2.25,0,0,1-2.23-1.91c-.59-3.79-1-7.67-1.26-11.51a2.26,2.26,0,1,1,4.5-.29c.24,3.71.65,7.44,1.21,11.11a2.26,2.26,0,0,1-1.89,2.57ZM604,1016.78h-.05a2.26,2.26,0,0,1-2.21-2.31c0-2.05.14-4.11.29-6.18q.19-2.7.48-5.36a2.26,2.26,0,0,1,4.49.5q-.29,2.57-.46,5.18-.21,3-.28,6A2.26,2.26,0,0,1,604,1016.78Zm2.49-22.58a2.26,2.26,0,0,1-2.21-2.7c.75-3.77,1.68-7.55,2.76-11.23a2.26,2.26,0,1,1,4.33,1.27c-1,3.55-1.94,7.2-2.66,10.85A2.26,2.26,0,0,1,606.48,994.19Zm6.39-21.8a2.26,2.26,0,0,1-2.1-3.08c1.4-3.57,3-7.13,4.69-10.58a2.26,2.26,0,0,1,4,2c-1.66,3.33-3.19,6.77-4.54,10.21A2.25,2.25,0,0,1,612.86,972.4ZM623,952.06a2.26,2.26,0,0,1-1.92-3.44c2-3.28,4.19-6.5,6.48-9.58a2.26,2.26,0,0,1,3.62,2.69c-2.21,3-4.32,6.09-6.26,9.26A2.26,2.26,0,0,1,623,952.06Zm13.54-18.24a2.26,2.26,0,0,1-1.69-3.75c2.56-2.88,5.27-5.67,8.06-8.31A2.26,2.26,0,1,1,646,925c-2.69,2.54-5.31,5.24-7.78,8A2.25,2.25,0,0,1,636.54,933.81Zm16.52-15.6a2.26,2.26,0,0,1-1.4-4c3-2.38,6.16-4.66,9.37-6.78a2.26,2.26,0,0,1,2.48,3.77c-3.1,2-6.15,4.25-9.06,6.55A2.24,2.24,0,0,1,653.06,918.21Zm19-12.49a2.26,2.26,0,0,1-1.07-4.24c3.39-1.83,6.89-3.52,10.42-5a2.25,2.25,0,1,1,1.78,4.14c-3.4,1.46-6.79,3.1-10.05,4.86A2.26,2.26,0,0,1,672,905.72Zm120.29-1.17a2.23,2.23,0,0,1-1-.25c-3.31-1.7-6.73-3.27-10.16-4.66a2.26,2.26,0,1,1,1.7-4.18c3.55,1.44,7.09,3.07,10.52,4.83a2.26,2.26,0,0,1-1,4.26Zm-99.42-7.8a2.26,2.26,0,0,1-.71-4.4c3.65-1.2,7.4-2.25,11.14-3.13a2.26,2.26,0,0,1,1,4.4c-3.61.84-7.23,1.86-10.75,3A2.25,2.25,0,0,1,692.9,896.75Zm78.37-.75a2.26,2.26,0,0,1-.66-.1c-3.54-1.09-7.18-2-10.82-2.8a2.26,2.26,0,1,1,.93-4.41c3.77.8,7.53,1.77,11.2,2.9a2.26,2.26,0,0,1-.66,4.41ZM715,891.59a2.26,2.26,0,0,1-.32-4.49c3.81-.54,7.68-.91,11.51-1.11a2.28,2.28,0,0,1,2.37,2.13,2.26,2.26,0,0,1-2.14,2.37c-3.7.19-7.44.56-11.11,1.08Zm34-.31-.28,0c-2.21-.27-4.47-.49-6.72-.64q-2.22-.15-4.42-.23a2.26,2.26,0,0,1,.15-4.51q2.28.08,4.58.24c2.33.16,4.67.38,7,.66a2.26,2.26,0,0,1-.27,4.5Z" style="fill:#fff"/><path d="M807,913.38a2.24,2.24,0,0,1-1.28-.4q-2.27-1.58-4.62-3.06a2.26,2.26,0,1,1,2.41-3.81q2.43,1.53,4.78,3.17a2.26,2.26,0,0,1-1.29,4.11Z" style="fill:#fff"/></g><g style="opacity:0.64"><path d="M861,999.38a2.26,2.26,0,0,1-2.22-1.9q-.44-2.75-1-5.45a2.26,2.26,0,0,1,4.42-.9q.57,2.8,1,5.64a2.25,2.25,0,0,1-1.87,2.58Z" style="fill:#fff"/><path d="M733.45,1148.95h-.52a2.26,2.26,0,0,1,0-4.51h.51c3.48,0,7-.15,10.48-.43a2.26,2.26,0,0,1,.37,4.5C740.71,1148.79,737.05,1148.95,733.45,1148.95Zm-11.68-.52h-.2c-3.78-.34-7.58-.84-11.29-1.49a2.26,2.26,0,0,1,.78-4.44c3.58.63,7.25,1.12,10.9,1.44a2.26,2.26,0,0,1-.2,4.5Zm33.45-1.33a2.26,2.26,0,0,1-.38-4.48c3.6-.62,7.22-1.4,10.74-2.33a2.26,2.26,0,0,1,1.15,4.36c-3.65,1-7.39,1.77-11.12,2.41A2.18,2.18,0,0,1,755.22,1147.1Zm-55.48-2.56a2.26,2.26,0,0,1-.58-.08c-3.66-1-7.32-2.13-10.86-3.42a2.26,2.26,0,0,1,1.54-4.24c3.42,1.24,7,2.35,10.48,3.3a2.26,2.26,0,0,1-.58,4.44Zm77.09-3.12a2.26,2.26,0,0,1-.76-4.38c3.43-1.23,6.86-2.63,10.17-4.15a2.26,2.26,0,0,1,1.89,4.1c-3.43,1.58-7,3-10.53,4.3A2.26,2.26,0,0,1,776.83,1141.42Zm-98.11-4.52a2.25,2.25,0,0,1-.95-.21c-3.43-1.6-6.83-3.36-10.11-5.25a2.26,2.26,0,0,1,2.25-3.91c3.17,1.82,6.45,3.53,9.76,5.07a2.26,2.26,0,0,1-1,4.3Zm118.42-4.82a2.26,2.26,0,0,1-1.12-4.22c3.17-1.8,6.3-3.77,9.31-5.84a2.26,2.26,0,1,1,2.56,3.71c-3.11,2.15-6.36,4.18-9.64,6.05A2.24,2.24,0,0,1,797.14,1132.09Zm18.4-12.69a2.26,2.26,0,0,1-1.44-4c2.82-2.33,5.57-4.8,8.17-7.35a2.26,2.26,0,1,1,3.16,3.22c-2.69,2.64-5.54,5.2-8.46,7.61A2.25,2.25,0,0,1,815.55,1119.4Zm16-15.66a2.26,2.26,0,0,1-1.71-3.72c2.38-2.77,4.66-5.68,6.79-8.65a2.26,2.26,0,0,1,3.67,2.63c-2.2,3.07-4.57,6.08-7,9A2.25,2.25,0,0,1,831.5,1103.74Zm13-18.16a2.23,2.23,0,0,1-1.15-.32,2.26,2.26,0,0,1-.79-3.09c1.87-3.15,3.62-6.41,5.2-9.69a2.25,2.25,0,1,1,4.06,2c-1.63,3.39-3.45,6.77-5.38,10A2.26,2.26,0,0,1,844.54,1085.58Zm9.7-20.15a2.23,2.23,0,0,1-.8-.15,2.26,2.26,0,0,1-1.31-2.91c1.29-3.4,2.45-6.91,3.44-10.44a2.26,2.26,0,0,1,4.34,1.22c-1,3.65-2.23,7.29-3.56,10.81A2.26,2.26,0,0,1,854.24,1065.43Zm6.06-21.51a2.23,2.23,0,0,1-.42,0,2.26,2.26,0,0,1-1.8-2.64c.68-3.58,1.21-7.24,1.58-10.88a2.26,2.26,0,0,1,4.49.46c-.39,3.77-.94,7.56-1.64,11.26A2.26,2.26,0,0,1,860.3,1043.92Zm2.27-22.24h0a2.26,2.26,0,0,1-2.22-2.29q0-1.08,0-2.15c0-2.95-.1-5.92-.3-8.85a2.26,2.26,0,0,1,4.5-.31c.21,3,.31,6.11.31,9.16q0,1.11,0,2.22A2.26,2.26,0,0,1,862.57,1021.68Z" style="fill:#fff"/><path d="M659.24,1125.67a2.24,2.24,0,0,1-1.29-.41q-2.35-1.65-4.63-3.39a2.26,2.26,0,0,1,2.75-3.58q2.19,1.68,4.47,3.27a2.26,2.26,0,0,1-1.3,4.1Z" style="fill:#fff"/></g><path d="M663.45,1088a1.55,1.55,0,0,0,1.74.48l17.73-6.52a82.28,82.28,0,0,0,23.47,12.64l4.32,18.38a1.55,1.55,0,0,0,1.35,1.19l22.54,2.28a1.55,1.55,0,0,0,1.57-.89l7.92-17.14a82.29,82.29,0,0,0,25.53-7.68l16.06,9.94a1.55,1.55,0,0,0,1.8-.12L805,1086.27a1.55,1.55,0,0,0,.48-1.74L799,1066.8a82.29,82.29,0,0,0,12.64-23.47L830,1039a1.55,1.55,0,0,0,1.19-1.35l2.28-22.54a1.55,1.55,0,0,0-.89-1.57l-17.14-7.92a82.28,82.28,0,0,0-7.68-25.53L817.72,964a1.55,1.55,0,0,0-.12-1.8l-14.33-17.55a1.55,1.55,0,0,0-1.74-.48l-17.73,6.52a82.27,82.27,0,0,0-23.47-12.64L756,919.71a1.55,1.55,0,0,0-1.35-1.19l-22.54-2.28a1.55,1.55,0,0,0-1.57.89l-7.92,17.14a82.27,82.27,0,0,0-25.53,7.68L681,932a1.55,1.55,0,0,0-1.8.12l-17.56,14.33a1.55,1.55,0,0,0-.48,1.74l6.52,17.73a82.28,82.28,0,0,0-12.64,23.47l-18.38,4.32a1.55,1.55,0,0,0-1.19,1.35l-2.28,22.54a1.55,1.55,0,0,0,.89,1.57l17.14,7.92a82.29,82.29,0,0,0,7.68,25.53L649,1068.68a1.55,1.55,0,0,0,.12,1.8Z" style="fill:url(#a31e2c82-974f-4ac9-936e-5a8c56a2faa5)"/><path d="M733.32,1038.73a22.4,22.4,0,1,1,3.31-.24A22.67,22.67,0,0,1,733.32,1038.73Zm.06-40.24A17.86,17.86,0,1,0,751,1013.75,17.9,17.9,0,0,0,733.38,998.49Z" style="fill:url(#a32f9278-1f6e-4f7e-a90b-f6d6c09a0de5)"/><path d="M733.75,1073a57.43,57.43,0,0,1-17.13-2.61l-.52-.17a2.26,2.26,0,1,1,1.39-4.29A52.48,52.48,0,0,0,774.41,1049a52.4,52.4,0,1,0-88.17-10.76,2.26,2.26,0,0,1-4.08,1.92,56.74,56.74,0,0,1-5.37-24.12,57.67,57.67,0,0,1,.29-5.78A56.93,56.93,0,0,1,790.64,1016a57.63,57.63,0,0,1-.29,5.79A57,57,0,0,1,733.75,1073Z" style="fill:url(#721b5617-a2a4-4660-bcb3-653b92a4f62a)"/><g style="opacity:0.64"><path d="M1150.33,580.16a2.26,2.26,0,0,1-2.16-1.62c-.55-1.85-1-3.73-1.46-5.59a2.25,2.25,0,1,1,4.4-1c.4,1.76.87,3.55,1.39,5.32a2.26,2.26,0,0,1-2.16,2.89Z" style="fill:#fff"/><path d="M1147,563.25a2.26,2.26,0,0,1-2.24-2,96.54,96.54,0,0,1-.49-9.75q0-1.06,0-2.12a2.26,2.26,0,0,1,2.26-2.21h.05a2.26,2.26,0,0,1,2.21,2.31q0,1,0,2a92.09,92.09,0,0,0,.47,9.3,2.26,2.26,0,0,1-2,2.47Zm.5-23.16-.32,0a2.26,2.26,0,0,1-1.91-2.56,97,97,0,0,1,2.41-11.63,2.26,2.26,0,1,1,4.35,1.19,92.51,92.51,0,0,0-2.3,11.09A2.25,2.25,0,0,1,1147.52,540.09Zm6.1-22.35a2.26,2.26,0,0,1-2.09-3.12,96,96,0,0,1,5.2-10.69,2.26,2.26,0,1,1,3.93,2.22,91.59,91.59,0,0,0-5,10.19A2.26,2.26,0,0,1,1153.63,517.74Zm11.4-20.17a2.26,2.26,0,0,1-1.81-3.6,96.9,96.9,0,0,1,7.66-9.09,2.26,2.26,0,1,1,3.26,3.11,92.36,92.36,0,0,0-7.3,8.67A2.25,2.25,0,0,1,1165,497.56Zm16-16.77a2.26,2.26,0,0,1-1.43-4,97.26,97.26,0,0,1,9.63-7,2.26,2.26,0,1,1,2.41,3.81,92.86,92.86,0,0,0-9.18,6.63A2.25,2.25,0,0,1,1181,480.79Zm19.57-12.38a2.26,2.26,0,0,1-1-4.3,96.51,96.51,0,0,1,11-4.4,2.26,2.26,0,0,1,1.41,4.29,92,92,0,0,0-10.51,4.19A2.25,2.25,0,0,1,1200.59,468.41Zm78.78-.71a2.25,2.25,0,0,1-.92-.2,91.61,91.61,0,0,0-10.6-4,2.26,2.26,0,1,1,1.33-4.31,96.2,96.2,0,0,1,11.12,4.19,2.26,2.26,0,0,1-.93,4.31Zm-56.78-6.52a2.26,2.26,0,0,1-.43-4.47,96.12,96.12,0,0,1,11.78-1.55,2.26,2.26,0,1,1,.31,4.5,91.62,91.62,0,0,0-11.23,1.48A2.28,2.28,0,0,1,1222.58,461.18Zm34.64-.3a2.28,2.28,0,0,1-.39,0,93.23,93.23,0,0,0-9.75-1.19l-1.51-.09a2.26,2.26,0,0,1-2.13-2.37,2.28,2.28,0,0,1,2.37-2.13l1.58.1a98,98,0,0,1,10.22,1.25,2.26,2.26,0,0,1-.39,4.48Z" style="fill:#fff"/><path d="M1294.45,476.24a2.24,2.24,0,0,1-1.29-.4c-1.49-1-3-2-4.61-3a2.26,2.26,0,0,1,2.35-3.85c1.65,1,3.27,2.07,4.83,3.15a2.26,2.26,0,0,1-1.29,4.11Z" style="fill:#fff"/></g><g style="opacity:0.64"><path d="M1334,540.39a2.26,2.26,0,0,1-2.23-1.94c-.26-1.83-.57-3.65-.93-5.42a2.26,2.26,0,0,1,4.42-.9c.38,1.86.7,3.77,1,5.69a2.26,2.26,0,0,1-1.92,2.55Z" style="fill:#fff"/><path d="M1242.08,647.81a2.26,2.26,0,0,1,0-4.51,92,92,0,0,0,11.11-.82,2.26,2.26,0,1,1,.6,4.47,96.89,96.89,0,0,1-11.65.86Zm-11.4-.53h-.24a97.08,97.08,0,0,1-11.53-1.94,2.26,2.26,0,1,1,1-4.39,93.25,93.25,0,0,0,11,1.85,2.26,2.26,0,0,1-.24,4.5Zm34-2.52a2.26,2.26,0,0,1-.57-4.44,91.91,91.91,0,0,0,10.59-3.48,2.26,2.26,0,1,1,1.67,4.19,96.32,96.32,0,0,1-11.11,3.65A2.25,2.25,0,0,1,1264.65,644.76Zm-56.19-2.62a2.23,2.23,0,0,1-.77-.14,96.32,96.32,0,0,1-10.72-4.66,2.26,2.26,0,1,1,2-4,92.29,92.29,0,0,0,10.22,4.44,2.26,2.26,0,0,1-.77,4.38Zm77.36-5.8a2.26,2.26,0,0,1-1.08-4.24,92.5,92.5,0,0,0,9.44-5.92,2.26,2.26,0,0,1,2.63,3.67,97.1,97.1,0,0,1-9.9,6.21A2.24,2.24,0,0,1,1285.83,636.34Zm18.53-13.25a2.26,2.26,0,0,1-1.52-3.92,92.13,92.13,0,0,0,7.75-8,2.26,2.26,0,0,1,3.43,2.94,97.32,97.32,0,0,1-8.13,8.4A2.25,2.25,0,0,1,1304.36,623.09Zm14.83-17.31a2.26,2.26,0,0,1-1.87-3.51,91,91,0,0,0,5.6-9.63,2.26,2.26,0,1,1,4,2,96,96,0,0,1-5.88,10.11A2.26,2.26,0,0,1,1319.19,605.78Zm10.24-20.37a2.26,2.26,0,0,1-2.12-3,92.41,92.41,0,0,0,3.11-10.7,2.26,2.26,0,0,1,4.4,1,96.67,96.67,0,0,1-3.26,11.22A2.26,2.26,0,0,1,1329.43,585.41Zm5-22.23h-.23a2.26,2.26,0,0,1-2-2.47q.15-1.49.26-3c.15-2.13.22-4.3.22-6.44q0-.86,0-1.71a2.26,2.26,0,0,1,2.21-2.3,2.28,2.28,0,0,1,2.3,2.21q0,.9,0,1.8c0,2.25-.08,4.52-.23,6.75q-.11,1.57-.27,3.13A2.26,2.26,0,0,1,1334.45,563.18Z" style="fill:#fff"/><path d="M1188.07,631.74a2.24,2.24,0,0,1-1.26-.39c-1.57-1.06-3.15-2.2-4.68-3.37a2.26,2.26,0,1,1,2.74-3.58c1.46,1.12,3,2.2,4.46,3.22a2.26,2.26,0,0,1-1.26,4.13Z" style="fill:#fff"/></g><path d="M1189.87,602.84a1.13,1.13,0,0,0,1.27.35l12.91-4.75a59.93,59.93,0,0,0,17.1,9.21L1224.3,621a1.13,1.13,0,0,0,1,.87l16.42,1.66a1.13,1.13,0,0,0,1.14-.65l5.77-12.48a59.94,59.94,0,0,0,18.6-5.59l11.7,7.24a1.13,1.13,0,0,0,1.31-.09L1293,601.56a1.13,1.13,0,0,0,.35-1.27l-4.75-12.91a59.93,59.93,0,0,0,9.21-17.1l13.39-3.15a1.13,1.13,0,0,0,.87-1l1.66-16.42a1.13,1.13,0,0,0-.65-1.14l-12.48-5.77a59.93,59.93,0,0,0-5.59-18.6l7.24-11.7a1.13,1.13,0,0,0-.09-1.31l-10.43-12.79a1.13,1.13,0,0,0-1.27-.35l-12.91,4.75a59.93,59.93,0,0,0-17.1-9.21l-3.15-13.39a1.13,1.13,0,0,0-1-.87l-16.42-1.66a1.13,1.13,0,0,0-1.14.65L1233,490.83a59.93,59.93,0,0,0-18.6,5.59l-11.7-7.24a1.13,1.13,0,0,0-1.31.09l-12.79,10.44a1.13,1.13,0,0,0-.35,1.27l4.75,12.91a59.93,59.93,0,0,0-9.21,17.1l-13.39,3.15a1.13,1.13,0,0,0-.87,1l-1.66,16.42a1.13,1.13,0,0,0,.65,1.14l12.48,5.77a60,60,0,0,0,5.59,18.6l-7.24,11.7a1.13,1.13,0,0,0,.09,1.31Z" style="fill:url(#53c6bc28-c5f5-46cd-87bf-222c0741062f)"/><path d="M1240.77,567.54a16.93,16.93,0,1,1,2.5-.18h0A17.09,17.09,0,0,1,1240.77,567.54Zm2.17-2.42h0Zm-2.11-26.9a12.57,12.57,0,0,0-1.83.13,12.36,12.36,0,1,0,1.83-.13Z" style="fill:url(#3d01b69b-194d-4940-8c22-d0a4b5909d8e)"/><path d="M1241.09,592.47a42.47,42.47,0,0,1-12.39-1.85h0l-.4-.12-.25-.08a2.26,2.26,0,0,1,1.39-4.29,37.72,37.72,0,0,0,7.83,1.64h0l.39,0a37.58,37.58,0,0,0,40.65-32.53s0-.06,0-.09c0-.34.08-.68.12-1a37.57,37.57,0,0,0-74.76-7.57,37.51,37.51,0,0,0,3.35,19.73,2.26,2.26,0,0,1-4.08,1.92,42,42,0,0,1-4-17.83,42.7,42.7,0,0,1,.22-4.27,42.08,42.08,0,1,1,41.9,46.32Z" style="fill:url(#3f46b681-4c34-4c46-9faf-fed074bd2d04)"/><path d="M575.85,871.69c-7.83.68-21.41,1.78-32.11,2.25-6.44.28-10.14-.35-12.27-1.2,0,.24,0,.47,0,.68a2.21,2.21,0,0,0,2.1,2.09,376.1,376.1,0,0,0,42,0,1.58,1.58,0,0,0,1.28-2.37A12.88,12.88,0,0,0,575.85,871.69Z" style="fill:url(#fd1d6880-5943-4f60-81ee-a89057f5d72c)"/><path d="M543.74,873.94c10.71-.47,24.29-1.57,32.11-2.25-7.69-9.44-32.11-15.8-32.11-15.8h-6.9a28.93,28.93,0,0,0-5.38,16.85C533.6,873.59,537.3,874.22,543.74,873.94Z" style="fill:url(#d5f31e97-40e9-438a-a2d2-3e2784e5adb3)"/><path d="M535.68,844.63l.65,12.77a2.92,2.92,0,0,0,2.49,2.74,11.34,11.34,0,0,0,5.18-.43,3.45,3.45,0,0,0,2.32-2.65l2.23-12.43Z" style="fill:url(#8382e639-7b9e-4619-993e-92e5299cd9fd)"/><path d="M446.1,873.84c-3.39-.47-4.93-2.24-5.57-4.12v.05c-.5,2,.66,4,3,5a19.42,19.42,0,0,0,8.23,1.29,8.18,8.18,0,0,0,6.17-2.85l0,0C455.35,874.48,451.76,874.63,446.1,873.84Z" style="fill:url(#8b31373e-f9c4-4028-958a-17f0dd7faabd)"/><path d="M462.1,844.55h-5.69c-8.66-.18-14.1,18.1-15.88,25.17.64,1.88,2.18,3.65,5.57,4.12,5.66.79,9.25.64,11.8-.62,4.68-6.16,7-15.18,8.12-20.44A7.18,7.18,0,0,0,462.1,844.55Z" style="fill:url(#2e8ebe73-0c16-4e09-b674-a983ab9c6bcc)"/><path d="M457.15,832.7,454,845.26a3.41,3.41,0,0,0,1.77,3.86,12.1,12.1,0,0,0,6.54,1.58,2.85,2.85,0,0,0,2.32-1.9l4.64-13.22Z" style="fill:url(#8b54caa0-1d4e-45ec-91b0-fd2c75918a62)"/><path d="M453.38,836.33c3.93,3.49,16.71,3.95,16.71,3.95,46-110.5,64.87-126.19,64.87-126.19-6.65,41.71-1.07,134-1.07,134,7.6,3.35,17.39,0,17.39,0a711.69,711.69,0,0,1,23.51-174.77c-31.12-.7-47.66-11.35-53.07-15.62C495.78,699.55,453.38,836.33,453.38,836.33Z" style="fill:url(#dbe9ca0a-99d9-41c8-a589-db0215b39e47)"/><path d="M529.62,530.66c-5.89,29.38-3.78,82-2.39,105.94.39,6.74-4.32,16.09-8.12,22.46a2,2,0,0,0,.81,2.81c6.37,3.27,27.94,13.42,52.94,14.68a3.57,3.57,0,0,0,3.59-2.66c18.55-69.25,40.09-113.5,40.09-113.5C592.76,522.41,529.62,530.66,529.62,530.66Z" style="fill:url(#ba213bb2-629e-40c8-8d6d-7d570b48d170)"/><path d="M538.1,711.46a1.47,1.47,0,0,1-1.26-2.24,46.25,46.25,0,0,1,18.25-15.85,1.47,1.47,0,1,1,1.28,2.66,44.1,44.1,0,0,0-17,14.73A1.47,1.47,0,0,1,538.1,711.46Z" style="fill:url(#a61139c6-611f-4867-a8b5-0bfcb6b09783)"/><path d="M492.68,615c1.89,13.69,7.48,28.61,18.66,44.47l4.25-3.47a131.25,131.25,0,0,1-2.12-42.5C506.58,612.13,498.43,613.52,492.68,615Z" style="fill:url(#add88b6e-c9bf-4a83-bf77-66105592f377)"/><path d="M536.2,566.91l-6.58-36.25s-44,33.6-36.94,84.31c5.75-1.45,13.9-2.84,20.8-1.5C515.49,597.2,521.49,579.53,536.2,566.91Z" style="fill:url(#b3e53805-c23f-4d82-bf08-76aeb519612a)"/><path d="M616.54,560.39l-17,36.54c2.74,22.06,14.59,31.6,27.37,35.26a77.53,77.53,0,0,1,5.7-23.79C616.32,591.53,616.54,560.39,616.54,560.39Z" style="fill:url(#435d6e14-b9db-4911-9d7e-8dec58e6beff)"/><path d="M632.64,608.39a77.53,77.53,0,0,0-5.7,23.79c34.09,13.23,43.11-12.42,43.11-12.42l-6.3-1.11C649.52,620.14,639.59,615.56,632.64,608.39Z" style="fill:url(#7162db28-50be-4b0c-affb-013f0ce72420)"/><path d="M600.91,515.28l-8.19,30.11a5.86,5.86,0,0,1-7.83,3.9,118.89,118.89,0,0,1-11.81-5.39,7.89,7.89,0,0,1-2.78-11.34l17-25.39Z" style="fill:url(#c6e26598-7d44-4344-82df-1d62011bb0f3)"/><path d="M685.68,599.61,475.8,676a16.07,16.07,0,0,0-9.13,21.75l.64,1.4a14.94,14.94,0,0,0,19.87,7.37L691,612.25Z" style="fill:url(#e017aa3d-dccb-473f-85f2-4aa3665640c0)"/><g style="opacity:0.41000000000000003"><ellipse cx="782.14" cy="553.66" rx="103.6" ry="101.73" style="fill:#bdd0fb"/></g><path d="M782.14,440.46c-63.67,0-115.28,50.68-115.28,113.2s51.61,113.2,115.28,113.2,115.28-50.68,115.28-113.2S845.81,440.46,782.14,440.46Zm0,209.78c-54.32,0-98.35-43.24-98.35-96.57s44-96.57,98.35-96.57,98.35,43.24,98.35,96.57S836.46,650.23,782.14,650.23Z" style="fill:url(#86d9a6cc-91b8-4e1c-8c5a-06e52c171bd3)"/><path d="M675.62,568a1.13,1.13,0,0,1-1.12-1c-.34-2.68-.58-5.42-.72-8.14a1.13,1.13,0,0,1,1.07-1.18A1.12,1.12,0,0,1,676,558.8c.13,2.66.37,5.35.71,8a1.13,1.13,0,0,1-1,1.26Zm.8-31.65-.2,0a1.13,1.13,0,0,1-.91-1.31,104.81,104.81,0,0,1,6.24-21.36h0c16.67-40.45,56.16-66.59,100.6-66.59a109.59,109.59,0,0,1,58.25,16.65,1.13,1.13,0,0,1-1.2,1.91,107.33,107.33,0,0,0-57.05-16.3c-43.52,0-82.19,25.59-98.51,65.19h0a102.4,102.4,0,0,0-6.1,20.9A1.13,1.13,0,0,1,676.42,536.38Z" style="fill:#bdd0fb"/><path d="M618.83,492.4c.07.52-6.83,34.36-6.83,34.36l-19.24-4.35,1.78-33S617.58,483.75,618.83,492.4Z" style="fill:url(#1b843a21-8895-4eb6-8fbb-3124f0d305d2)"/><path d="M598.86,496.72,596.56,514a2.4,2.4,0,0,0,0,.66c.19,1.36,1.2,6,5.87,4.66,4.23-1.2,8.12-2.23,10.8-1.41a2.44,2.44,0,0,1,1.68,2.82,105.47,105.47,0,0,1-4.43,15.77,2.43,2.43,0,0,1-3,1.44c-3.65-1.06-11.28-3.52-17-6.94a2.44,2.44,0,0,1-1.19-2.2c.18-4.37.7-17.67.27-21.39-.4-3.5-4.7-5.59-6.56-6.34a2.4,2.4,0,0,1-1.34-1.34c-.86-2.16-2.05-7.17,4.26-9.22a2.44,2.44,0,0,0,1.55-3.16c-.93-2.6-1.33-6.57,3.55-8.76s8.67.42,10.67,2.57a2.44,2.44,0,0,0,3.11.37,1.93,1.93,0,0,1,2.2.07,2.4,2.4,0,0,0,3.4-1c1.19-2.44,3.61-5.05,8.47-4.22,8.62,1.48,9.6,11,7.32,16.63s-11.53,3.47-16.17.64c-3.53-2.15-8.11.1-10.1,1.3A2.42,2.42,0,0,0,598.86,496.72Z" style="fill:url(#4249587a-7de6-4fb3-a085-9e5abc5fbf85)"/><path d="M588.87,513.78s3.54-9.93-.1-12.36-9-1.17-7.85,6C582.4,516.38,588.87,513.78,588.87,513.78Z" style="fill:url(#53db6c63-04e6-4c31-8058-6c8ddf3fef59)"/><path d="M513.84,655.37l19.84-1.62,8.59,7.92s-2,2.81-8.39,1.19a91,91,0,0,0-15.06-2s-8.77,4-8.88-3.45Z" style="fill:url(#dedee027-fade-46d1-89bf-6a36a6457e07)"/><path d="M667.53,624.45c1.72,1.34,7.59-1.46,11.19-3.39a4.14,4.14,0,0,0,2-4.89c-.87-2.73-2.31-6.25-4.09-6.7C673.68,608.73,660.45,618.93,667.53,624.45Z" style="fill:url(#7529b720-667d-4607-8d8a-ba6c254952ca)"/><path d="M479.94,703.94a1.13,1.13,0,0,1-.37-.06c-8.39-2.9-10.34-7.89-10.5-11.56a12.84,12.84,0,0,1,8.37-12.37l25.2-9.83a1.13,1.13,0,0,1,.82,2.1L478.26,682a10.58,10.58,0,0,0-6.93,10.18c.19,4.33,3.21,7.53,9,9.53a1.13,1.13,0,0,1-.37,2.19Z" style="fill:#bdd0fb"/><path d="M510.82,669.27a1.13,1.13,0,0,1-.41-2.18l3.26-1.27a1.13,1.13,0,1,1,.82,2.1l-3.26,1.27A1.12,1.12,0,0,1,510.82,669.27Z" style="fill:#bdd0fb"/><path d="M596.2,1326.73a3.69,3.69,0,0,1-3.69-3.69V882.45a3.69,3.69,0,0,1,7.37,0V1323A3.69,3.69,0,0,1,596.2,1326.73Z" style="fill:#91b3fa"/><path d="M496.31,1326.73a3.69,3.69,0,0,1-3.69-3.69V882.45a3.69,3.69,0,0,1,7.37,0V1323A3.69,3.69,0,0,1,496.31,1326.73Z" style="fill:#91b3fa"/><path d="M250.89,1329.52a3.69,3.69,0,0,1-3.39-5.13L436,881a3.69,3.69,0,0,1,6.78,2.89l-188.5,443.39A3.69,3.69,0,0,1,250.89,1329.52Z" style="fill:#91b3fa"/><path d="M367.32,1329.52a3.69,3.69,0,0,1-3.39-5.13L552.43,881a3.69,3.69,0,0,1,6.78,2.89l-188.5,443.39A3.69,3.69,0,0,1,367.32,1329.52Z" style="fill:#91b3fa"/><path d="M601.92,886.5H429.26a5.2,5.2,0,0,1-5.2-5.2h0a5.2,5.2,0,0,1,5.2-5.2H601.92a5.2,5.2,0,0,1,5.2,5.2h0A5.2,5.2,0,0,1,601.92,886.5Z" style="fill:#91b3fa"/><path d="M527.34,953.93H410.57a3.69,3.69,0,0,1,0-7.37H527.34a3.69,3.69,0,1,1,0,7.37Z" style="fill:#91b3fa"/><rect x="374.74" y="1030.41" width="116.78" height="7.37" style="fill:#91b3fa"/><rect x="340.05" y="1114.27" width="116.78" height="7.37" style="fill:#91b3fa"/><path d="M420.45,1205.5H303.67a3.69,3.69,0,1,1,0-7.37H420.45a3.69,3.69,0,1,1,0,7.37Z" style="fill:#91b3fa"/><path d="M385.28,1289.36H268.5a3.69,3.69,0,0,1,0-7.37H385.28a3.69,3.69,0,1,1,0,7.37Z" style="fill:#91b3fa"/><path d="M1765.91,1061.48H1409.29a13.8,13.8,0,0,1-13.8-13.8h0a13.8,13.8,0,0,1,13.8-13.8h356.62a13.8,13.8,0,0,1,13.8,13.8h0A13.8,13.8,0,0,1,1765.91,1061.48Z" style="fill:#7d97f4"/><path d="M1808.76,1115.53H1452.14a13.8,13.8,0,0,1-13.8-13.8h0a13.8,13.8,0,0,1,13.8-13.8h356.62a13.8,13.8,0,0,1,13.8,13.8h0A13.8,13.8,0,0,1,1808.76,1115.53Z" style="fill:#7d97f4"/><path d="M1707.35,1223.64H1452.14a13.8,13.8,0,0,1-13.8-13.8h0a13.8,13.8,0,0,1,13.8-13.8h255.21a13.8,13.8,0,0,1,13.8,13.8h0A13.8,13.8,0,0,1,1707.35,1223.64Z" style="fill:#7d97f4"/><path d="M1848.75,1169.59H1492.13a13.8,13.8,0,0,1-13.8-13.8h0a13.8,13.8,0,0,1,13.8-13.8h356.62a13.8,13.8,0,0,1,13.8,13.8h0A13.8,13.8,0,0,1,1848.75,1169.59Z" style="fill:#7d97f4"/><path d="M1631.45,1299.09s1.52,8.6,2.26,17.11a5.86,5.86,0,0,1-5.61,6.35c-11.33.47-35.58,1.39-44.28,1a1.91,1.91,0,0,1-1.68-2.61h0a4.27,4.27,0,0,1,2.18-2.3l40-18.4Z" style="fill:url(#3189b5a4-c908-4fe8-98d2-07fd5f3ea725)"/><path d="M1632.69,1294l-1.22,10.28s-7,3.27-11.81-.41l2.9-11.46Z" style="fill:url(#6d08fe34-83d8-4ccf-8b9d-7b2ff800e9f4)"/><path d="M1631.77,1100.7c.53,2.69,2.83,134-11.21,192.87a2,2,0,0,0,1.17,2.32,34.78,34.78,0,0,0,11.43,2.32,3.44,3.44,0,0,0,3.41-2.47c4-13.65,23.24-82.07,25.75-147.42,2.8-73,0-2.49,0-2.49l-1.64-45.14Z" style="fill:url(#12f098bf-a404-42c9-8ef8-2dfdb17ae2a3)"/><path d="M1677.51,1303.57s2.42,4.34,4.76,15.87a3.58,3.58,0,0,1-3.15,4.28c-3.74.37-9.5.84-14.12.81a3.57,3.57,0,0,1-3.53-4c.51-4.21,2.1-11.12,7-16.5Z" style="fill:url(#ed34f990-5e22-4426-8241-19ecb450c934)"/><path d="M1679.63,1290.35l-2.85,15.55s-2.82,2.1-8.4.58l1.36-16.73Z" style="fill:url(#2fbb7231-453c-4a37-b158-7bf97b790514)"/><path d="M1687.34,1104.73c11.48,69.29-2.49,171.26-7.2,191.22a3.11,3.11,0,0,1-2.51,2.36,20.9,20.9,0,0,1-9-.36,2.85,2.85,0,0,1-2.05-2.63c-.63-16.13.51-115.19-10.19-154.33a8.89,8.89,0,0,0-3.43-4.91l-20.76-14.76-1.59-23.86Z" style="fill:url(#19b5ea21-1e7f-4bc8-a63a-afa4abc9f353)"/><path d="M1614.18,973.44c34.41-.57,72.37,9,72.37,9,10.26,59.84,1.79,128.87,1.79,128.87-26.64,7-56.69-4.27-56.69-4.27-4.43-25-25.08-95.41-25.08-95.41-16.81-2.09-30.66-6.94-42.07-13.35,8.7-10.08,12.8-22.92,14.58-30.5C1591.25,971.59,1603.56,973.61,1614.18,973.44Z" style="fill:url(#8db98282-407a-43b5-987b-02baebf85afa)"/><path d="M1512.54,922.76a6.58,6.58,0,0,1,7.66-2.15c5.06,21.39,31.61,38.73,58.89,47.21-1.78,7.58-5.88,20.42-14.58,30.5C1519.24,972.86,1512.54,922.76,1512.54,922.76Z" style="fill:url(#fd82e25f-6320-467d-86fa-f88df1525cce)"/><path d="M1513.36,923.79c-.35,1.12,3.74,2.84,6.15-1.76.08-2.2,1.42-11.65.11-13.44C1512.61,899,1499,887,1499,887a3.24,3.24,0,0,0-.4,4.5l6.6,6.87c-1.38,2.49-3.06,4.6-3.85,7.61a9.24,9.24,0,0,0,.92,6.8c1.16,2.09,2.74,4.8,4.23,6.92A9.13,9.13,0,0,0,1513.36,923.79Z" style="fill:url(#3fd4c197-3a88-44c8-bb0b-913515779a25)"/><path d="M1508.09,902.87l6,5.1L1516,913l-5.36,5.95s-1.8-10.07-3.14-12.25S1506.84,903.51,1508.09,902.87Z" style="fill:url(#ba60fb01-012a-48ca-92a5-b8830d70a84e)"/><path d="M1673.35,1015.79l13.2-33.32s32.14,21.84,37.42,49.52a76.05,76.05,0,0,0-27.94,7.49C1693.66,1026.41,1673.35,1015.79,1673.35,1015.79Z" style="fill:url(#539a2504-f25d-49c1-93e5-39abc0fae330)"/><path d="M1645.27,1047.14s36.08,20.39,48.26,3a13.69,13.69,0,0,0,2.51-10.63A76.05,76.05,0,0,1,1724,1032a38.21,38.21,0,0,1-4.15,26.2c-21.33,39-79.33-2.16-79.33-2.16Z" style="fill:url(#995311ed-b6ae-4ddf-ba0a-6ed09fa51991)"/><path d="M1649.6,1072.94l-19.69-68.77a2,2,0,0,0-1.7-1.44c-3.57-.42-13.91-1.59-25.84-2.59-14.38-1.22-31.08-2.2-41.05-1.36a2,2,0,0,0-1.64,2.9c5.67,11.48,29,58.18,40.7,73.47a2,2,0,0,0,1.62.8l45.69-.43A2,2,0,0,0,1649.6,1072.94Z" style="fill:url(#50042a83-dfaa-479f-945b-d517f06ba7e8)"/><path d="M1600.33,994.16,1586,991.78a1,1,0,0,0-1.14,1.33l1.41,4.28a1,1,0,0,0,.84.69l13.74,1.84a1,1,0,0,0,1.13-1.25l-.88-3.74A1,1,0,0,0,1600.33,994.16Z" style="fill:url(#1441e52e-1894-418a-a42b-99c38c588795)"/><path d="M1611,1006.25l-1.18-6.13a1.42,1.42,0,0,0-1.25-1.14l-28.84-2.93a1.42,1.42,0,0,0-1.52,1.74l1.83,7.63a1.42,1.42,0,0,0,1.31,1.08l28.18,1.42A1.42,1.42,0,0,0,1611,1006.25Z" style="fill:url(#7b74b4ab-0e98-4e73-bf93-390de66d44dc)"/><path d="M1644.84,1056.32s2.74-11.28,1.64-15.28-3.25-9.15-10.4-8a104.59,104.59,0,0,0-15.58,4.15s.43,5.21,5.86,3.53l-3.37,2.61s.48,4.17,5.07,1.94l-3.13,3.46s2,3.43,5.35,1.23S1635.27,1057.68,1644.84,1056.32Z" style="fill:url(#bd20ad38-6653-458a-bfc0-b3f141963a56)"/><path d="M1649,945.5,1660,977.16a1.14,1.14,0,0,1-.52,1.37c-3,1.65-13.74,6.42-26.69-1.8a5.37,5.37,0,0,1-2.47-3.84l-3.55-27.4Z" style="fill:url(#4b6eba20-7155-4386-af74-91ee23c15cd1)"/><path d="M1625.21,916.18s-12,22.63-10.48,31.77,16.44,8.48,29.45,1.06l9.09-24.44Z" style="fill:url(#73bf200c-27c5-46d2-83e5-c4e60630f73d)"/><path d="M1643.6,937a.93.93,0,0,1-.41-1.37,24.35,24.35,0,0,0,3.34-7.1s2.16-1.38-5.5-3.22-19.09-4.68-21.49-11.2c-2.34-6.36,3.81-22.35,13.63-9.61a.93.93,0,0,0,1.48,0c1.61-2.09,5.84-6.44,11.71-3.81,5.5,2.47,6.12,6.49,6,8.52a.93.93,0,0,0,1.1.95c2.78-.53,9.45-1,12.56,5.86,2.56,5.63.9,8.82-.62,10.38a.93.93,0,0,0,.4,1.54c1.83.56,4.18,2.11,3.95,6.39-.33,5.91-6.94,5.39-8.82,5.12a.93.93,0,0,0-.83.29c-1.61,1.79-8.89,9.37-16.76,10.29a.94.94,0,0,1-1-1.24l3.41-9.9a.94.94,0,0,0-.51-1.16Z" style="fill:url(#eee55d4b-156e-4991-beb1-05bfc9175927)"/><path d="M1642.23,938.42s8.56-5.87,9.19-.93-7.71,7.16-11.84,5.32Z" style="fill:url(#8e2fd411-e6a8-4a24-be34-644c38c52e7b)"/><path d="M1084.21,165.79a3.73,3.73,0,0,1-2.85-1.15,2.5,2.5,0,0,1-.57-2.17l.61-2.75a3.48,3.48,0,0,1,3.26-2.54l8.16-.67,1.33-21c-14.73.42-27.92.76-36.56,1a11.34,11.34,0,0,1-11.55-11l-3.5-68.8a8.42,8.42,0,0,1,7.77-9.13c23.07-1.7,88-3.06,114.84-3.57a9,9,0,0,1,9,7.2h0c3.7,17.8,4.92,56.55,5.27,72.39a8.8,8.8,0,0,1-8.23,9c-8.38.55-22.23,1.16-42.3,1.84l4.15,18.75,6.31-.54a3.47,3.47,0,0,1,3.73,2.08l1.54,4.43a2.5,2.5,0,0,1-.29,2.26,3.81,3.81,0,0,1-3,1.49l-56.88,2.9Zm11.14-32.57a1.13,1.13,0,0,1,1.13,1.2l-1.47,23.2a1.13,1.13,0,0,1-1,1.05l-9.13.75a1.34,1.34,0,0,0-1.24.76l-.61,2.75a.25.25,0,0,0,.07.23,1.6,1.6,0,0,0,1.28.36l56.88-2.9a1.65,1.65,0,0,0,1.25-.51.25.25,0,0,0,0-.26l-1.54-4.43a1.35,1.35,0,0,0-1.41-.57l-7.29.62a1.09,1.09,0,0,1-1.2-.88l-4.66-21a1.13,1.13,0,0,1,1.06-1.37c20.78-.71,35-1.33,43.58-1.89a6.55,6.55,0,0,0,6.13-6.69c-.35-15.77-1.56-54.36-5.22-72h0a6.8,6.8,0,0,0-6.77-5.41c-26.83.51-91.71,1.87-114.72,3.57a6.21,6.21,0,0,0-5.68,6.77l3.5,68.8a9,9,0,0,0,9.24,8.86c8.89-.22,22.57-.57,37.79-1Z" style="fill:#7d97f4"/><path d="M1056.73,128.35a7.22,7.22,0,0,1-7.17-6.82l-3.33-65.37h0a5.8,5.8,0,0,1,5.64-6.09l113.55-3a5.48,5.48,0,0,1,5.58,5.18l3.08,64.79a7,7,0,0,1-6.76,7.35l-110.32,4ZM1048.47,56l3.33,65.37a5,5,0,0,0,5.1,4.67l110.32-4a4.77,4.77,0,0,0,4.59-5l-3.08-64.79a3.18,3.18,0,0,0-3.26-3l-113.55,3a3.54,3.54,0,0,0-3.45,3.72Z" style="fill:#7d97f4"/><path d="M1109.35,132.88a2.65,2.65,0,1,1,.14,0Zm0-3.05h0a.39.39,0,0,0-.38.41.41.41,0,0,0,.13.28.31.31,0,0,0,.29.1.39.39,0,0,0,.28-.13.4.4,0,0,0,.1-.28h0a.4.4,0,0,0-.13-.27A.39.39,0,0,0,1109.36,129.83Z" style="fill:#7d97f4"/><path d="M1115.85,160.5a1.13,1.13,0,0,1-.07-2.25l2.35-.14a1.13,1.13,0,0,1,.13,2.25l-2.35.14Z" style="fill:#7d97f4"/><path d="M1085,164.38a1.1,1.1,0,0,1-.27,0,1.13,1.13,0,0,1-.83-1.36l.28-1.14c.26-1.07,1.5-1.84,3.08-1.94l24.91-1.46a1.11,1.11,0,0,1,1.19,1.06,1.13,1.13,0,0,1-1.06,1.19l-24.91,1.46a1.84,1.84,0,0,0-1.07.34l-.23,1A1.13,1.13,0,0,1,1085,164.38Z" style="fill:#7d97f4"/><path d="M1079.5,192.53c-8.58,0-16.37-.26-22.89-.81-15.13-1.26-23.24-3.84-24.79-7.9-5.3-13.89-22.61-142.18-5.09-161.35a1.13,1.13,0,0,1,.74-.36c16.37-1.35,160.29-12.92,170.5-2.37,5.62,5.81,7.47,43.45,7.34,76.73-.13,32.69-2.26,71.26-6.62,78.68s-41.29,12.07-57,13.8A594.18,594.18,0,0,1,1079.5,192.53Zm-51.4-168.2c-15.27,18.4-.73,141.55,5.82,158.69.54,1.41,3.85,4.87,22.87,6.45,45.47,3.79,134.41-6,139.94-15.46,3.5-6,6.15-38.56,6.31-77.54.17-40.63-2.53-70.83-6.71-75.15C1189.21,13.93,1092,19.06,1028.11,24.33Z" style="fill:#7d97f4"/><path d="M737.18,160.23a6.41,6.41,0,0,1-6.38-5.93c-1.92-26.14-3.32-99.8-3.7-121.75a7.87,7.87,0,0,1,7.06-8c19.29-2.07,58.48-.15,74.44.77a8.37,8.37,0,0,1,7.82,7.3h0c3.63,28.55,5.27,89.86,5.8,114.9a10,10,0,0,1-9.17,10.18c-22.12,1.86-60.39,2.4-75.82,2.55ZM757.87,25.87c-8.94,0-17.26.25-23.47.91a5.62,5.62,0,0,0-5,5.73c.38,21.94,1.77,95.55,3.69,121.63a4.15,4.15,0,0,0,4.13,3.84h0c15.42-.15,53.63-.68,75.67-2.54a7.76,7.76,0,0,0,7.1-7.88c-.54-25-2.17-86.22-5.79-114.66h0a6.11,6.11,0,0,0-5.71-5.33C797.74,26.94,776.45,25.87,757.87,25.87ZM757.26,142c-6.66,0-12.45-.07-16.45-.13a7.13,7.13,0,0,1-7-6.61C732.14,114,732,56.14,732.05,38.91A6.93,6.93,0,0,1,738.35,32c15.91-1.54,51.22-.11,65.67.57a7.8,7.8,0,0,1,7.41,7.19c1.61,21.24,1.11,76.21.92,92.56a7.93,7.93,0,0,1-6.94,7.76C792.37,141.67,772.55,142,757.26,142Zm1.43-108.47c-7.84,0-15,.18-20.12.68a4.69,4.69,0,0,0-4.25,4.67c0,17.21.09,75,1.72,96.2a4.89,4.89,0,0,0,4.81,4.53c13.14.21,45.71.47,64.29-1.81a5.67,5.67,0,0,0,5-5.55h0c.19-16.32.69-71.21-.92-92.36a5.54,5.54,0,0,0-5.26-5.1C794.19,34.36,775,33.56,758.69,33.56Z" style="fill:#7d97f4"/><path d="M772.75,156.38a6.76,6.76,0,1,1,6.77-7h0a6.77,6.77,0,0,1-6.47,7Zm0-11.27h-.19a4.51,4.51,0,0,0-2.86,7.82,4.57,4.57,0,0,0,3.24,1.19,4.51,4.51,0,0,0,4.31-4.69h0A4.51,4.51,0,0,0,772.76,145.11Z" style="fill:#7d97f4"/><path d="M778.35,30.81h0c-4.09-.06-13.25-.16-16.5-.19a2.36,2.36,0,0,1-2.34-2.26h0a2.35,2.35,0,0,1,2.17-2.46,156.51,156.51,0,0,1,16.78.05,2.38,2.38,0,0,1,2.19,1.82,2.44,2.44,0,0,1-.42,2.16A2.35,2.35,0,0,1,778.35,30.81Zm-10.23-2.87c-2.21,0-4.43.05-6.29.2l-.09.12a.11.11,0,0,0,.11.1c3.25,0,12.41.13,16.51.19l.07-.28C776.72,28.15,772.42,27.94,768.12,27.94Z" style="fill:#7d97f4"/><path d="M778.42,175.86c-26,0-51.67-1.62-68.56-4.43-15-2.5-22.86-5.74-24.07-9.9C681.64,147.25,674.9,18,693.93.3l.32-.3h.44c16.45,0,160.81.25,170.12,11.61,5.12,6.25,3.89,43.92,1,77.08-2.81,32.57-8.09,70.83-13,77.87s-42.13,8.65-57.94,9.08C789.42,175.78,783.91,175.86,778.42,175.86ZM695.15,2.26c-16.73,17.08-12.32,141-7.2,158.64.42,1.45,3.43,5.17,22.27,8.3,45,7.5,134.45,5,140.73-3.94,4-5.65,9.29-37.93,12.64-76.77,3.49-40.48,3.28-70.8-.53-75.45C856.56,5.09,759.29,2.24,695.15,2.26Z" style="fill:#7d97f4"/><path d="M740.78,85.63a1.13,1.13,0,0,1-1.13-1.08l-1.47-36.88a1.13,1.13,0,0,1,1.08-1.17,1.14,1.14,0,0,1,1.17,1.08l1.47,36.88a1.13,1.13,0,0,1-1.08,1.17Z" style="fill:#7d97f4"/><path d="M1441.23,234.88c-11.22,0-39.6-13.35-52.29-19.61-28-13.8-56.72-30.84-73.22-43.41-12.08-9.2-17.52-15.73-16.65-20,3-14.56,57.36-132,82.45-138.78L1382,13l.39.21c14.54,7.66,142.1,75.28,145,89.67,1.61,7.92-17.06,40.65-35.06,68.65-17.69,27.5-40.22,58.87-47.88,62.78A7.17,7.17,0,0,1,1441.23,234.88ZM1381.7,15.4c-22.77,7.3-76.71,119-80.41,136.94-.31,1.48.63,6.17,15.81,17.73,36.3,27.64,116.59,67.19,126.31,62.21,6.15-3.14,25.92-29.21,47-62,22-34.17,35.95-61.09,34.75-67C1523.12,93.24,1438.4,45.31,1381.7,15.4Z" style="fill:#7d97f4"/><path d="M1448.89,198.41a8.53,8.53,0,0,1-3-.55h0c-27.59-10.43-83.91-38.4-106.84-49.94a10.24,10.24,0,0,1-4.8-13.15c8.95-20.95,26.84-55.86,34.12-69.89a6.54,6.54,0,0,1,8.43-3c24.54,10.79,92,44.93,112,55.14a8,8,0,0,1,3.85,10.2c-7.39,18.47-28,53-36.45,67A8.56,8.56,0,0,1,1448.89,198.41Zm-2.22-2.66a6.3,6.3,0,0,0,7.61-2.63c8.47-14,29-48.41,36.29-66.72a5.8,5.8,0,0,0-2.78-7.35c-20.07-10.2-87.44-44.32-111.93-55.09a4.28,4.28,0,0,0-5.51,1.95c-7.27,14-25.13,48.86-34,69.74A8,8,0,0,0,1340,145.9c22.9,11.53,79.13,39.46,106.63,49.85Zm-1.67-5.2a8.36,8.36,0,0,1-3.37-.72c-20.4-9-71.22-36.52-86.31-44.74h0a8.15,8.15,0,0,1-3.91-9.9c6.6-17.6,22.11-46.27,28.48-57.78a7.25,7.25,0,0,1,9.37-3c20.52,9,74.25,37.43,90.23,45.91a7.11,7.11,0,0,1,3.43,8.91c-6,14.78-23.82,45.16-31.2,57.54A7.76,7.76,0,0,1,1445,190.54Zm-88.61-47.44c15.07,8.21,65.83,35.69,86.14,44.66a5.69,5.69,0,0,0,7.23-2.09c7.36-12.33,25.1-42.6,31.05-57.23a4.87,4.87,0,0,0-2.4-6.07c-16-8.48-69.63-36.84-90.08-45.84a5,5,0,0,0-6.49,2c-6.34,11.47-21.79,40-28.34,57.48a5.89,5.89,0,0,0,2.88,7.12Z" style="fill:#7d97f4"/><path d="M1359.92,104.44a4.91,4.91,0,0,1-2.12-.48h0a4.94,4.94,0,1,1,2.12.48Zm-1.15-2.52a2.68,2.68,0,1,0-1.26-3.57,2.68,2.68,0,0,0,1.26,3.57Z" style="fill:#7d97f4"/><path d="M1465.1,125a1.12,1.12,0,0,1-.49-.11l-34.11-16.38a1.13,1.13,0,1,1,1-2l34.11,16.38a1.13,1.13,0,0,1-.49,2.14Z" style="fill:#7d97f4"/><path d="M1666.17,224.91a5.81,5.81,0,0,1,1.31,1.57c.54,1,.88,2.57,1.61,3.93a44.32,44.32,0,0,1,2.34,5.23l0,0c.43.87.62,1.68-.31,2.18a1.59,1.59,0,0,1-2.24-.78s-1.25-2.61-2.63-5.16c-.34-.64-.61-1.31-.92-1.92s-.47-1-.67-1.41a7.4,7.4,0,0,0-.48-1c-.16-.27-.25-.43-.25-.43l-.4-.69a1.52,1.52,0,0,1,.43-2.26,1.49,1.49,0,0,1,2.19.69Z" style="fill:#7d97f4"/><path d="M1678.25,245l6.23,9.72a1.78,1.78,0,0,1-.66,2.46,1.85,1.85,0,0,1-2.54-.48L1675,247a1.79,1.79,0,0,1,.66-2.47,1.86,1.86,0,0,1,2.56.48Z" style="fill:#7d97f4"/><path d="M1690.21,265l7.44,8.71a1.45,1.45,0,0,1-.25,2.24,1.76,1.76,0,0,1-2.47-.4l-7-9.22c-.59-.76-.76-1.44.07-2s1.38.34,2.2.71Z" style="fill:#7d97f4"/><path d="M1704,283.85l8.57,7.59c.65.7.89,1.34.12,2a1.68,1.68,0,0,1-2.4-.3l-7.79-8.63c-.65-.7-1.21-.94-.43-1.61s1.14.94,1.93.94Z" style="fill:#7d97f4"/><path d="M1723.69,295.13l7.64,9.41c.71.63.17,2.57-.54,3.29s-2.13,1.22-2.85.59l-8.9-7.49c-.72-.63.31-3.32,1-4a8.12,8.12,0,0,1,3.62-1.77Z" style="fill:#7d97f4"/><path d="M1739,315.43l9.8,5.65c.78.54,1,1.09.37,1.87a1.82,1.82,0,0,1-2.49.17l-9.64-6.8c-.78-.54-1.06-.64-.44-1.42s1.68-1.72,2.4.54Z" style="fill:#7d97f4"/><path d="M1760.87,324.45l9.52,6.19c.85.43.61,1.85.1,2.69a2.33,2.33,0,0,1-2.71.92l-10.67-5.31c-.85-.43-.17-2.2.34-3s.29-1.46,3.42-1.46Z" style="fill:#7d97f4"/><path d="M1780.06,335.73l11.34,4.06a1.63,1.63,0,0,1,1,2.2,1.9,1.9,0,0,1-2.32,1l-11.29-4a1.68,1.68,0,0,1-1-2.24,2.36,2.36,0,0,1,2.29-1.1Z" style="fill:#7d97f4"/><path d="M1802.25,343.9l11.74,3.42a1.57,1.57,0,0,1,1.14,2,1.8,1.8,0,0,1-2.21,1.06l-11.45-3.55a1.59,1.59,0,0,1-1.25-2c.35-.89,1.76-1.57,2-1Z" style="fill:#7d97f4"/><path d="M1825,351.52l12.08,2.29c.92.22,1.61.84,1.32,1.73a1.69,1.69,0,0,1-2.1,1.07l-11.68-2.91c-.92-.22-1.77-.6-1.48-1.49s1.17-.69,1.86-.69Z" style="fill:#7d97f4"/><path d="M1849.39,355.06l11.93,2a1.63,1.63,0,0,1,1.28,2,1.93,1.93,0,0,1-2.08,1.45l-12-1.7a1.73,1.73,0,0,1-1.24-2.13c.2-.9,1.34-2,2.16-1.65Z" style="fill:#7d97f4"/><path d="M1873.06,358.29s3.12,0,6.19,0l6-.32h.13a1.56,1.56,0,0,1,1.71,1.54,1.8,1.8,0,0,1-1.73,1.72l-6.32.33-6.14,0a1.57,1.57,0,0,1-1.65-1.62,1.89,1.89,0,0,1,1.79-1.61Z" style="fill:#7d97f4"/><path d="M1896.71,355.34a6,6,0,0,0,2.07-.25c.55-.17,1.34-.2,2-.45s1.38-.42,2.07-.68c1.35-.63,2.77-1.15,3.72-1.73s1.64-.88,1.64-.88l.14-.06a1.69,1.69,0,0,1,2.3.56,1.64,1.64,0,0,1-.72,2.22l-1.79,1a44.84,44.84,0,0,1-4,1.95l-2.27.85c-.74.29-1.37.46-1.94.64l-1.86.57a2,2,0,0,1-2.29-1.36c-.24-.85,1-1.6,1-2.37Z" style="fill:#7d97f4"/><path d="M1917,343.8a10.39,10.39,0,0,1,.93-1.67,13.41,13.41,0,0,0,.88-1.64c.16-.29.29-.6.45-.91.06-.1.21-.43.18-.35l.2-.53c.13-.34.3-.72.39-1l.21-.85c.16-.54.19-1.17.28-1.65.07-1,.09-1.67.09-1.67v-.08a1.78,1.78,0,0,1,1.74-1.66,1.53,1.53,0,0,1,1.64,1.54s0,.8-.11,2a19.19,19.19,0,0,1-.36,2.09l-.33,1.23c-.12.39-.27.71-.41,1.07l-.21.52c-.2.41-.22.42-.34.65l-.57,1a16.14,16.14,0,0,1-1,1.75l-1.06,1.59a1.67,1.67,0,0,1-2.22.68c-.78-.44-.34-1.47-.34-2.12Z" style="fill:#7d97f4"/><path d="M1917.34,323.37a41.79,41.79,0,0,0-2.25-5.31c-1.56-2.27-2.91-4.65-2.91-4.65v-.19a1.51,1.51,0,0,1,.65-2.11c.78-.51,1.27-1.53,2.39.49h0s1.64,2.35,3.35,4.84l2.64,5c.4.77-.38,1.91-1.21,2.35s-2.29.33-2.67-.45Z" style="fill:#7d97f4"/><path d="M1905.39,303.76a2.23,2.23,0,0,1-1.93-.22c-.45-.28-1.2-.33-1.76-.59s-1.26-.42-1.86-.74a17.75,17.75,0,0,0-1.91-.66,6.62,6.62,0,0,0-1.69-.46c-1-.21-1.66-.33-1.66-.33l-.31-.05a1.46,1.46,0,0,1-1.13-1.87,1.77,1.77,0,0,1,2-1.19l2,.43a9,9,0,0,1,2,.62,21.12,21.12,0,0,1,2.18.9l2.07,1.12a16.27,16.27,0,0,1,1.61,1l1.51,1c.73.49,1.28.66.71,1.39s-1.16-.06-1.92-.4Z" style="fill:#7d97f4"/><path d="M1885.43,303.54a6.25,6.25,0,0,0-2.46.77c-.24.16-.93.18-1.21.37a9.85,9.85,0,0,0-.93.54c-.48.43-1.1.84-1.61,1.3s-1,1.06-1.47,1.56a16.78,16.78,0,0,0-1.38,1.32,6.4,6.4,0,0,1-1.28,1.34l-.1.12a1.55,1.55,0,0,1-2.1.61,1.39,1.39,0,0,1-.27-2.09s.52-.62,1.23-1.6a15.33,15.33,0,0,1,1.31-1.61l1.62-1.78c.63-.58,1.3-1.14,1.91-1.68a10.79,10.79,0,0,1,1.68-1.25l1.63-1.07a2.94,2.94,0,0,1,3.11.66,4.43,4.43,0,0,1,.31,2.5Z" style="fill:#7d97f4"/><path d="M1869.64,320.84a53.68,53.68,0,0,1-1.52,6c-.7,2.8-1.22,5.76-1.22,5.76l.06.18a1.73,1.73,0,0,1-1.92,1.3,1.42,1.42,0,0,1-1.18-1.78s.75-3,1.49-5.93c.93-2.84,1.87-5.68,1.87-5.68.27-.84.85-1.64,1.71-1.43s.72.8.72,1.6Z" style="fill:#7d97f4"/><path d="M1866.85,342.5a47.54,47.54,0,0,0-.95,6.69c0,2.86-.25,6.13-.25,6.13l-.17.29a1.87,1.87,0,0,1-1.68,1.76,1.47,1.47,0,0,1-1.68-1.36s-.07-3-.12-5.95c.12-2.93.23-5.85.23-5.85a3.41,3.41,0,0,1,2.38-2.41c.9,0,1.6.69,2.25.69Z" style="fill:#7d97f4"/><path d="M1866.61,365.06l2.07,12.42a2.28,2.28,0,0,1-1.35,2.36c-.87.2-1.73,0-1.89-.86l-2.21-11.25c-.16-.82.52-2.62,1.4-2.82s3.17-2.1,2,.16Z" style="fill:#7d97f4"/><path d="M1871.53,389.87l3.75,10.73a1.48,1.48,0,0,1-1,1.86,1.54,1.54,0,0,1-2-.91l-3.75-10.95a1.39,1.39,0,0,1,1-1.78c.84-.31,1.28,1,2,1Z" style="fill:#7d97f4"/><path d="M1879.55,411l.71,1.65,1.62,3.59,2.38,5.25a1.55,1.55,0,0,1-.84,2,1.53,1.53,0,0,1-2.06-.67L1879,417.6l-1.64-3.64-.72-1.65a1.56,1.56,0,0,1,.88-2,1.53,1.53,0,0,1,2.06.71Z" style="fill:#7d97f4"/><path d="M1889.26,431.83l5.33,10.23a1.59,1.59,0,0,1-2.81,1.45l-5.35-10.22a1.59,1.59,0,0,1,2.82-1.46Z" style="fill:#7d97f4"/><path d="M1900.21,452l6,9.87a1.49,1.49,0,0,1-.6,2,1.53,1.53,0,0,1-2.1-.44l-6-9.86a1.49,1.49,0,0,1,.6-2,1.54,1.54,0,0,1,2.11.44Z" style="fill:#7d97f4"/><path d="M1912.47,471.48l6.7,9.42a1.45,1.45,0,0,1-.45,2,1.54,1.54,0,0,1-2.12-.3l-6.71-9.41a1.46,1.46,0,0,1,.45-2,1.55,1.55,0,0,1,2.13.3Z" style="fill:#7d97f4"/><path d="M1926.49,489.81l7.34,8.91a1.48,1.48,0,0,1-.35,2.07,1.59,1.59,0,0,1-2.16-.12l-7.52-8.82a1.54,1.54,0,0,1,.42-2.12c.67-.53,1.94-.62,2.28.07Z" style="fill:#7d97f4"/><path d="M1941.3,507.54l7.43,8.89a1.41,1.41,0,0,1-.29,2,1.53,1.53,0,0,1-2.1-.15l-7.44-8.88a1.42,1.42,0,0,1,.29-2,1.54,1.54,0,0,1,2.11.15Z" style="fill:#7d97f4"/><path d="M1956,525.5l7,9.17a1.4,1.4,0,0,1-.37,2,1.5,1.5,0,0,1-2.07-.23l-7.06-9.17a1.41,1.41,0,0,1,.37-2,1.51,1.51,0,0,1,2.08.23Z" style="fill:#7d97f4"/><path d="M1969.93,544l6.64,9.46a1.4,1.4,0,0,1-.45,2,1.48,1.48,0,0,1-2-.3l-6.65-9.45a1.41,1.41,0,0,1,.45-2,1.49,1.49,0,0,1,2,.3Z" style="fill:#7d97f4"/><path d="M1983,563.15l6.2,9.74a1.4,1.4,0,0,1-.53,1.93,1.45,1.45,0,0,1-2-.38l-6.21-9.73a1.41,1.41,0,0,1,.53-1.94,1.46,1.46,0,0,1,2,.38Z" style="fill:#7d97f4"/><path d="M1995.21,582.82l5.73,10a1.4,1.4,0,0,1-.61,1.89,1.43,1.43,0,0,1-2-.46l-5.74-10a1.4,1.4,0,0,1,.61-1.9,1.44,1.44,0,0,1,2,.46Z" style="fill:#7d97f4"/><path d="M2006.46,603l5.24,10.28a1.46,1.46,0,0,1-2.59,1.31l-5.25-10.27a1.46,1.46,0,0,1,2.6-1.32Z" style="fill:#7d97f4"/><path d="M2016.7,623.77l4.71,10.53a1.39,1.39,0,0,1-.77,1.8,1.38,1.38,0,0,1-1.85-.62L2014.07,625a1.4,1.4,0,0,1,.77-1.81,1.38,1.38,0,0,1,1.86.62Z" style="fill:#7d97f4"/><path d="M2025.88,645l4.16,10.76a1.39,1.39,0,0,1-.85,1.75,1.35,1.35,0,0,1-1.79-.7l-4.18-10.76a1.4,1.4,0,0,1,.85-1.76,1.36,1.36,0,0,1,1.8.7Z" style="fill:#7d97f4"/><path d="M2033.94,666.71l3.58,11a1.39,1.39,0,0,1-.92,1.7,1.32,1.32,0,0,1-1.73-.77l-3.59-11a1.4,1.4,0,0,1,.93-1.71,1.33,1.33,0,0,1,1.74.78Z" style="fill:#7d97f4"/><path d="M2040.82,688.84l3,11.19a1.39,1.39,0,0,1-1,1.64,1.3,1.3,0,0,1-1.66-.85l-3-11.19a1.4,1.4,0,0,1,1-1.65,1.3,1.3,0,0,1,1.67.86Z" style="fill:#7d97f4"/><path d="M2046.46,711.38l2.33,11.36a1.39,1.39,0,0,1-1.08,1.58,1.27,1.27,0,0,1-1.59-.93L2043.78,712a1.39,1.39,0,0,1,1.08-1.59,1.28,1.28,0,0,1,1.6.93Z" style="fill:#7d97f4"/><path d="M2050.79,734.25l1.65,11.5a1.39,1.39,0,0,1-1.15,1.51,1.25,1.25,0,0,1-1.51-1l-1.66-11.5a1.39,1.39,0,0,1,1.16-1.52,1.25,1.25,0,0,1,1.52,1Z" style="fill:#7d97f4"/><path d="M2053.74,757.38l.49,5.81c.12,1.43.25,2.93.31,4l.12,1.82a1.39,1.39,0,0,1-1.24,1.42,1.22,1.22,0,0,1-1.41-1.1l-.12-1.82c-.06-1.1-.19-2.5-.31-4l-.5-5.8a1.39,1.39,0,0,1,1.22-1.44,1.23,1.23,0,0,1,1.44,1.08Z" style="fill:#7d97f4"/><path d="M2055.2,780.75l.14,11.69a1.38,1.38,0,0,1-1.3,1.34,1.2,1.2,0,0,1-1.33-1.16l-.16-11.69a1.39,1.39,0,0,1,1.31-1.35,1.21,1.21,0,0,1,1.34,1.16Z" style="fill:#7d97f4"/><path d="M2055.08,804.24l-.68,11.73a1.37,1.37,0,0,1-1.37,1.25,1.17,1.17,0,0,1-1.23-1.23l.66-11.73a1.38,1.38,0,0,1,1.38-1.26,1.18,1.18,0,0,1,1.24,1.24Z" style="fill:#7d97f4"/><path d="M2053.29,827.78l-1.56,11.7a1.37,1.37,0,0,1-1.44,1.14,1.15,1.15,0,0,1-1.11-1.3l1.54-11.7a1.38,1.38,0,0,1,1.45-1.15,1.16,1.16,0,0,1,1.12,1.31Z" style="fill:#7d97f4"/><path d="M2049.7,851.24l-2.5,11.61a1.36,1.36,0,0,1-1.5,1,1.13,1.13,0,0,1-1-1.37l2.48-11.61a1.37,1.37,0,0,1,1.51-1,1.14,1.14,0,0,1,1,1.38Z" style="fill:#7d97f4"/><path d="M2044.19,874.48l-3.49,11.43a1.35,1.35,0,0,1-1.56.9,1.12,1.12,0,0,1-.85-1.43l3.48-11.43a1.36,1.36,0,0,1,1.57-.91,1.12,1.12,0,0,1,.86,1.44Z" style="fill:#7d97f4"/><path d="M2036.65,897.32l-4.53,11.15a1.34,1.34,0,0,1-1.61.76,1.1,1.1,0,0,1-.7-1.49l4.52-11.16a1.34,1.34,0,0,1,1.62-.77,1.11,1.11,0,0,1,.7,1.5Z" style="fill:#7d97f4"/><path d="M2027,919.54l-4.61,8.89a1.32,1.32,0,0,1-1.65.61,1.09,1.09,0,0,1-.54-1.54l4.6-8.89a1.33,1.33,0,0,1,1.66-.62,1.1,1.1,0,0,1,.54,1.55Z" style="fill:#7d97f4"/><polygon points="1676.09 180.03 1652.83 202.16 1647.84 176.89 1676.09 180.03" style="fill:#7d97f4"/><path d="M1589.91,62.73,1594.59,178a8.13,8.13,0,0,0,8.75,7.77l115.53-9.06a3.26,3.26,0,0,0,1.82-5.76Z" style="fill:#91b3fa"/><polygon points="1676.08 180.02 1589.91 62.73 1657.44 181.54 1651.25 187.95 1676.08 180.02" style="fill:#7d97f4"/><polygon points="1646.38 182.36 1652.83 202.16 1657.44 181.54 1646.38 182.36" style="fill:#7d97f4"/><path d="M690.75,1282.29H658.31a2.26,2.26,0,0,1-2.26-2.26v-97a2.26,2.26,0,0,1,2.26-2.26h32.44A2.26,2.26,0,0,1,693,1183v97A2.26,2.26,0,0,1,690.75,1282.29Zm-30.18-4.51h27.93v-92.54H660.57Z" style="fill:#bdd0fb"/><path d="M754.69,1282.29H710.35a2.26,2.26,0,0,1-2.26-2.26v-160.2a2.26,2.26,0,0,1,2.26-2.26h44.34a2.26,2.26,0,0,1,2.26,2.26V1280A2.26,2.26,0,0,1,754.69,1282.29Zm-42.08-4.51h39.82V1122.09H712.61Z" style="fill:#bdd0fb"/><path d="M838.26,1282.29H776.71a2.26,2.26,0,0,1-2.26-2.26v-194.1a2.26,2.26,0,0,1,2.26-2.26h61.55a2.26,2.26,0,0,1,2.26,2.26V1280A2.26,2.26,0,0,1,838.26,1282.29ZM779,1277.78h57V1088.2H779Z" style="fill:#bdd0fb"/><path d="M949.66,1282.29H876a2.26,2.26,0,0,1-2.26-2.26V1045.22A2.26,2.26,0,0,1,876,1043h73.7a2.26,2.26,0,0,1,2.26,2.26V1280A2.26,2.26,0,0,1,949.66,1282.29Zm-71.44-4.51H947.4V1047.47H878.22Z" style="fill:#bdd0fb"/><path d="M299.59,340.18c-5.51,0-8.95-1-10.4-3-8.62-12.1-57.67-131.9-45.54-154.87a1.13,1.13,0,0,1,.63-.54c15.51-5.43,151.89-52.85,164.41-45.21,6.9,4.21,18.17,40.17,26.42,72.41,8.1,31.67,15.75,69.53,13.4,77.81-2.31,8.12-36.92,22.07-51.69,27.7-29.15,11.1-61.19,20.55-81.64,24.09A95.18,95.18,0,0,1,299.59,340.18ZM245.45,183.7C235.31,205.35,280.38,320.88,291,335.82c.88,1.23,4.95,3.74,23.77.49,45-7.78,128.56-39.67,131.54-50.18,1.89-6.64-3.76-38.87-13.41-76.63-10.07-39.37-20.28-67.92-25.41-71C398.74,133.09,306,162.52,245.45,183.7Z" style="fill:#7d97f4"/><path d="M308.83,303.3a6.59,6.59,0,0,1-3.37-.6c-6.75-4.53-29.69-56-27.19-79.9.65-6.19,3-10.13,6.92-11.72l4.35-1.76c13.88-5.63,39.73-16.1,62.18-23.55.48-.55.67-4.43.78-6.75.24-5,.47-7.93,2.25-8.48,26.58-8.28,31.75-6.36,33.27-3.75,4.23,7.22,41.74,94.32,34.55,101.77C416.41,274.92,328.5,303.3,308.83,303.3ZM286,213.17c-3.11,1.25-5,4.57-5.52,9.86-2.49,23.76,20.77,74.14,26.2,77.79,2.46,1.65,21.18-1.68,57.46-12.83,28.59-8.78,54.05-18.21,56.77-21,.59-.61,2.7-5.76-13.24-47.88-9.16-24.22-19.09-46.84-21.64-51.18-.71-1.22-5.13-3.19-30.66,4.77-.38.52-.56,4.23-.67,6.44-.25,5.2-.48,8.17-2.32,8.78-22.38,7.43-48.18,17.88-62,23.5Z" style="fill:#7d97f4"/><path d="M292,228.14a1.13,1.13,0,0,1-1.08-.8c-.35-1.15-.26-2.88,2.11-4.62a20,20,0,0,1,5.72-2.61,1.13,1.13,0,1,1,.65,2.16,17.2,17.2,0,0,0-5,2.27c-1,.77-1.48,1.49-1.28,2.15a1.13,1.13,0,0,1-1.08,1.45Z" style="fill:#7d97f4"/><path d="M313.53,216.46a1.13,1.13,0,0,1-.49-2.14c.21-.1,20.85-10,37.38-12.78a1.14,1.14,0,0,1,1.3.92,1.13,1.13,0,0,1-.93,1.3c-16.21,2.74-36.57,12.49-36.78,12.58A1.12,1.12,0,0,1,313.53,216.46Z" style="fill:#7d97f4"/><path d="M1642.09,538.07a8.59,8.59,0,0,0-6.64-2.29c-26.08,2.35-67-24.42-106.53-42.75a8.6,8.6,0,0,0-8.76.91c-35.37,26.43-94,31.91-114.34,33a8.59,8.59,0,0,0-8.06,7.69c-18.51,178.74,97.87,243.52,122,254.95a8.61,8.61,0,0,0,8.22-.48c120.3-74.93,115.15-172.38,116.82-244.58A8.6,8.6,0,0,0,1642.09,538.07Z" style="fill:url(#b69fd1b8-122c-421a-b22b-b9b408507fee)"/><path d="M1520.29,780a2.25,2.25,0,0,1-1.26-.39c-.33-.22-33.41-22.81-62.74-61.78-27.14-36.06-56.57-94-42.68-164.93a2.28,2.28,0,0,1,2.38-1.82,208.83,208.83,0,0,0,44.59-2.7c22-3.75,51.77-13,68.59-35.76a2.26,2.26,0,0,1,1.75-.91,2.23,2.23,0,0,1,1.8.81c.3.36,30.41,36.05,54.16,44.6s40.9,4.88,41.07,4.84a2.26,2.26,0,0,1,2.74,2.15c0,1.36,2,137-109.09,215.48A2.25,2.25,0,0,1,1520.29,780ZM1417.66,555.69C1405,624.12,1433.51,680,1459.8,715c25.64,34.11,54.18,55.47,60.47,60,99.42-71.28,105.55-189.22,105.87-208.17-6,.76-21.25,1.6-40.82-5.45-21.71-7.81-47.24-35.79-54.26-43.83-14.29,17.78-38.36,30-69.85,35.32A214.88,214.88,0,0,1,1417.66,555.69Z" style="fill:#fff;opacity:0.78"/><g style="opacity:0.84"><path d="M1557,701.18h-73.93c-6.12,0-10.61-3.89-10.92-9.46h0l-3.95-70.18a10,10,0,0,1,2.88-7.57,11.06,11.06,0,0,1,7.76-3.55l78.21-2.55a11.74,11.74,0,0,1,8.38,3.07c2.76,2.67,4.16,5.31,4.16,7.86V692C1569.61,698,1563.27,701.18,1557,701.18Zm-80.35-9.72c.22,3.84,3.6,5.21,6.42,5.21H1557c3.13,0,8.09-1.28,8.09-4.71V618.8c0-1.24-1-2.88-2.79-4.62a7.47,7.47,0,0,0-5.1-1.81L1479,614.93a6.52,6.52,0,0,0-4.58,2.09,5.47,5.47,0,0,0-1.7,4.27Z" style="fill:#fff"/><path d="M1488.32,614.62a2.26,2.26,0,0,1-2.23-1.93c-2.51-17.09-.1-30.55,7.15-40a32,32,0,0,1,20.06-12.19c20.57-2.4,36.09,9.76,40.48,31.74a2.2,2.2,0,0,1,0,.27l1.35,17.57a2.26,2.26,0,0,1-2.08,2.42,2.28,2.28,0,0,1-2.42-2.08L1549.33,593c-4-19.67-17.26-30.13-35.51-28a28,28,0,0,0-17.06,10.53c-6.44,8.45-8.53,20.74-6.21,36.53a2.26,2.26,0,0,1-1.9,2.56Z" style="fill:#fff"/><path d="M1501.11,614.62a2.26,2.26,0,0,1-2.23-1.91c-.12-.75-2.73-18.55,5.85-28.55,3.71-4.33,8.9-6.52,15.42-6.52,6.71,0,11.93,2.22,15.52,6.59,7.93,9.64,4.77,26.24,4.63,26.94a2.26,2.26,0,0,1-4.43-.87c0-.15,2.88-15.23-3.7-23.22-2.74-3.32-6.67-4.93-12-4.93-5.21,0-9.13,1.62-12,4.94-7.23,8.41-4.85,24.77-4.82,24.94a2.26,2.26,0,0,1-1.89,2.57Z" style="fill:#fff"/><path d="M1518.94,687.65h-.67c-4.16,0-7.31-3.52-7.31-8.19V650.76c-5.36-2.63-8.76-7.38-8.76-12.35,0-7.92,7.72-14.36,17.2-14.36s17.19,6.44,17.19,14.36c0,6.2-3.56,10.87-9.84,13v28A8,8,0,0,1,1518.94,687.65Zm-5.49-40.7a2.26,2.26,0,0,1,2,2.23v30.27c0,1.77.87,3.68,2.79,3.68h.67a3.51,3.51,0,0,0,3.3-3.68v-29.7a2.26,2.26,0,0,1,1.7-2.19c5.32-1.35,8.14-4.51,8.14-9.15,0-5.43-5.69-9.85-12.67-9.85s-12.69,4.42-12.69,9.85C1506.71,641.8,1509.35,645.12,1513.45,646.95Z" style="fill:#fff"/></g></g></g></svg>