<svg xmlns="http://www.w3.org/2000/svg" width="438.52" height="375.59" viewBox="0 0 438.52 375.59"><title>contact</title><g id="a0ad65da-93f5-4ae3-a601-b8263e8a688e" data-name="Layer 2"><g id="58c8858a-4948-491a-b86e-069ebd5c1476" data-name="OBJECTS"><path d="M394,353c-22.23-16.89-60.24-58.79-10.18-124.58,61.91-81.35-12.23-114.73-83.3-111.24C243.34,119.94,179,48.07,114.81,60.91,29.61,78,84.93,151.33,27.16,190.86-22.1,224.57-.95,327.28,63.17,353Z" style="fill:#dcedf9"/><path d="M432.41,203.39c-.34-12.06-11.58-16.74-19.08-8a37.65,37.65,0,0,0-9.17,21.81c-1.72,21.51,17.1,15.28,24.13,3.76C431.29,216,432.59,209.49,432.41,203.39Z" style="fill:#dcedf9"/><path d="M204.25,43.94c-12.06.32-16.76,11.55-8,19.07A37.65,37.65,0,0,0,218,72.22c21.5,1.76,15.31-17.07,3.8-24.12C216.9,45.09,210.35,43.78,204.25,43.94Z" style="fill:#dcedf9"/><path d="M39.05,161.13c4.74-11.1-3.5-20.05-14-15.27a37.65,37.65,0,0,0-17.47,16C-3,180.62,16.74,182.85,28,175.34,32.73,172.14,36.66,166.74,39.05,161.13Z" style="fill:#dcedf9"/><ellipse cx="220.03" cy="359.23" rx="203.25" ry="16.36" style="fill:#dcedf9"/><path d="M359.33,356.39a18.88,18.88,0,0,0,1.41,4.4h33c1.3-3.1,1.3-6.32-.63-9.06-12-17.13,2.81-16.79,5.16-28.49,2.58-12.84-9.66-6.2-5.95-23.4,5-23.31-5.87-34.5-11.39-21-5.21,12.69-2.53,17.89-15.26,27.4-10.56,7.89,7.87,20.52-2.59,33C358.63,344.5,358.28,350.85,359.33,356.39Z" style="fill:#007fe9"/><path d="M373.54,360.79c3.75-30.2,10.34-63.2,10.42-63.64a.83.83,0,0,0-1.63-.33c-.09.44-6.71,33.63-10.47,64Z" style="fill:#0050db"/><path d="M413.63,360.79c-.07-.25-.14-.5-.22-.74-8.69-25.47,9.5-19.71,16.61-33.32,7.8-14.93-9.69-11.13,1.07-31,14.59-27,5.15-44.71-6.5-30.08-11,13.8-9.55,21.17-28.69,28.34-15.87,5.95,2.34,28.16-15.06,39.8-7.42,5-10.14,12.67-10.82,19.89a24.08,24.08,0,0,0,.37,7.13Z" style="fill:#00a8ff"/><path d="M387.45,360.79c15.25-34.91,34-70.92,34.27-71.42a1.07,1.07,0,1,0-1.9-1c-.26.5-19.35,37.14-34.71,72.41Z" style="fill:#007fe9"/><path d="M80.26,356.39a18.88,18.88,0,0,1-1.41,4.4h-33c-1.3-3.1-1.3-6.32.63-9.06,12-17.13-2.81-16.79-5.16-28.49-2.58-12.84,9.66-6.2,5.95-23.4-5-23.31,5.87-34.5,11.39-21,5.21,12.69,2.53,17.89,15.26,27.4,10.56,7.89-7.87,20.52,2.59,33C81,344.5,81.32,350.85,80.26,356.39Z" style="fill:#007fe9"/><path d="M66.05,360.79c-3.75-30.2-10.34-63.2-10.42-63.64a.83.83,0,0,1,1.63-.33c.09.44,6.71,33.63,10.47,64Z" style="fill:#0050db"/><path d="M26,360.79c.07-.25.14-.5.22-.74,8.69-25.47-9.5-19.71-16.61-33.32-7.8-14.93,9.69-11.13-1.07-31-14.59-27-5.15-44.71,6.5-30.08,11,13.8,9.55,21.17,28.69,28.34,15.87,5.95-2.34,28.16,15.06,39.8,7.42,5,10.14,12.67,10.82,19.89a24.07,24.07,0,0,1-.37,7.13Z" style="fill:#00a8ff"/><path d="M52.14,360.79c-15.25-34.91-34-70.92-34.27-71.42a1.07,1.07,0,1,1,1.9-1c.26.5,19.35,37.14,34.71,72.41Z" style="fill:#007fe9"/><path d="M121.86,360.78h2.51L120.52,350a50.85,50.85,0,0,1,6.93-19.27c7.17-12,9-20.44,3-20.39-7.78.06-13.37,19-11.74,34.6l-9.18-25.72c.37-3.33,1.74-9.68,6.57-17.67,6.4-10.57,11.34-23,3.47-22.3S106,298.94,107.93,314.73l-7.65-21.44a27.82,27.82,0,0,1,4.15-11.18c4-6.66,7.15-14.48,2.18-14.06S98,280.54,99.29,290.51L97.67,286C96.18,272.27,86.73,257.1,81,258.36s-.11,10,7.37,17.71A44.48,44.48,0,0,1,95,285.64l3.15,8.82c-5.62-6.86-13.86-11.78-17.43-9.34-4.11,2.82,3.25,6.89,10.59,9.5a30.62,30.62,0,0,1,8.49,4.47l9.72,27.22c-8.84-12.22-23.59-21.67-29.71-17.48C73.33,313.3,85,319.77,96.66,323.9a46.43,46.43,0,0,1,15,8.36l7.57,21.2c-8.53-13.36-24.84-24.36-31.36-19.9S93,344.5,104.7,348.63c8.7,3.08,13.76,7.08,16.19,9.43Z" style="fill:#00a8ff"/><path d="M311.13,309.51l-2.47-.46,5.76-9.92a50.85,50.85,0,0,0-3.31-20.21c-4.87-13.07-5.14-21.73.75-20.59,7.64,1.48,9.69,21.11,5.25,36.16l13.7-23.62c.24-3.34.05-9.84-3.25-18.57-4.37-11.56-7-24.66.65-22.56s9.77,21.86,5,37l11.43-19.7a27.83,27.83,0,0,0-2-11.75c-2.76-7.29-4.4-15.54.41-14.22s6.17,13.85,3.12,23.42l2.42-4.17c4-13.2,16-26.4,21.45-24.11s-1.7,9.82-10.46,16.08a44.48,44.48,0,0,0-8.34,8.19l-4.7,8.1c6.78-5.72,15.77-9.07,18.84-6,3.53,3.52-4.45,6.19-12.14,7.41a30.62,30.62,0,0,0-9.16,2.86l-14.5,25c10.91-10.41,27.14-17,32.39-11.79,5.6,5.58-7.06,9.82-19.26,11.76a46.43,46.43,0,0,0-16.3,5.49L315,302.8c10.82-11.59,28.86-19.44,34.45-13.87s-7.06,9.82-19.26,11.76c-9.11,1.45-14.82,4.46-17.63,6.33Z" style="fill:#00a8ff"/><rect x="217.36" y="269.71" width="79.39" height="114.93" transform="translate(-70.48 583.75) rotate(-89.92)" style="fill:#ffaa01"/><polygon points="314.57 287.56 314.57 292.65 257.03 343.5 199.64 292.49 199.65 287.4 257.04 338.58 314.57 287.56" style="fill:#f88800"/><polygon points="245.98 328.54 202.87 366.79 199.54 366.78 199.54 364.76 243.51 325.76 245.98 328.54" style="fill:#f88800"/><polygon points="314.46 365.19 314.46 366.94 310.83 366.94 267.82 328.57 270.31 325.8 314.46 365.19" style="fill:#f88800"/><polygon points="199.65 287.39 257.04 338.58 314.57 287.56 199.65 287.39" style="fill:#fdcc50"/><path d="M244.86,15.7a.68.68,0,0,1-.34,0c-1.16-.49-1.85-.72-1.85-.72a.68.68,0,0,1,.43-1.29s.73.25,2,.76a.68.68,0,0,1-.19,1.31Z" style="fill:#dcedf9"/><path d="M279.56,52.23c.46,1.24.9,2.51,1.29,3.79a.68.68,0,0,0,.72.48l.13,0a.68.68,0,0,0,.45-.85c-.4-1.3-.84-2.6-1.32-3.87a.68.68,0,0,0-1.28.48Z" style="fill:#dcedf9"/><path d="M281.92,59.88c.31,1.28.59,2.6.84,3.92a.68.68,0,0,0,.74.55h.05a.68.68,0,0,0,.55-.79c-.25-1.34-.54-2.69-.85-4a.68.68,0,0,0-1.32.32Z" style="fill:#dcedf9"/><path d="M284.79,80.44a.68.68,0,0,0,.61-.67c0-1.37,0-2.74,0-4.08a.68.68,0,1,0-1.36,0c0,1.32,0,2.67,0,4a.68.68,0,0,0,.67.69Z" style="fill:#dcedf9"/><path d="M284,67a.68.68,0,0,0-.59.76c.08.62.15,1.24.22,1.85s.14,1.43.2,2.14a.68.68,0,0,0,.73.63h0a.68.68,0,0,0,.61-.73c-.06-.73-.12-1.46-.2-2.18s-.14-1.26-.22-1.88A.68.68,0,0,0,284,67Z" style="fill:#dcedf9"/><path d="M278,48.53a.68.68,0,0,0,1.24-.56c-.56-1.24-1.16-2.48-1.79-3.68a.68.68,0,0,0-1.21.63C276.91,46.1,277.5,47.31,278,48.53Z" style="fill:#dcedf9"/><path d="M248.14,17.34c1.17.6,2.35,1.25,3.51,1.93a.68.68,0,0,0,.69-1.17c-1.18-.7-2.39-1.36-3.58-2a.68.68,0,1,0-.62,1.21Z" style="fill:#dcedf9"/><path d="M258.29,23.75a.68.68,0,0,0,.83-1.08c-1.08-.82-2.2-1.63-3.32-2.38a.68.68,0,1,0-.76,1.13C256.13,22.16,257.23,22.95,258.29,23.75Z" style="fill:#dcedf9"/><path d="M264.35,29a.68.68,0,1,0,1-1c-1-.94-2-1.87-3-2.76a.68.68,0,0,0-.89,1C262.41,27.15,263.4,28.06,264.35,29Z" style="fill:#dcedf9"/><path d="M269.73,34.9a.68.68,0,1,0,1.06-.85c-.85-1.06-1.74-2.1-2.65-3.11a.68.68,0,1,0-1,.92C268,32.85,268.9,33.87,269.73,34.9Z" style="fill:#dcedf9"/><path d="M274.32,41.45a.68.68,0,1,0,1.16-.71c-.71-1.16-1.46-2.31-2.24-3.42a.68.68,0,0,0-1.12.78C272.89,39.19,273.63,40.32,274.32,41.45Z" style="fill:#dcedf9"/><polygon points="244.84 11.04 247.82 0 211.3 0.31 244.84 11.04" style="fill:#fdcc50"/><polygon points="211.3 0.31 243.07 13.7 243.15 13.74 244.52 16 244.84 11.04 211.3 0.31" style="fill:#ffaa01"/><polygon points="244.52 16 241.56 15.54 243.15 13.74 244.52 16" style="fill:#f88800"/><polygon points="239.16 12.05 243.15 13.74 234.92 23.02 211.3 0.31 239.16 12.05" style="fill:#fdcc50"/><path d="M425.33,78.86a5.3,5.3,0,1,1-5.3,5.3A5.31,5.31,0,0,1,425.33,78.86Zm0,8.95a3.64,3.64,0,1,0-3.64-3.64A3.64,3.64,0,0,0,425.33,87.81Z" style="fill:#00a8ff"/><path d="M406.24,60.25a5.3,5.3,0,1,1-5.3,5.3A5.31,5.31,0,0,1,406.24,60.25Zm0,8.95a3.64,3.64,0,1,0-3.64-3.64A3.64,3.64,0,0,0,406.24,69.2Z" style="fill:#ffaa01"/><path d="M399.68,43a.83.83,0,0,1,.83.83v3.67a.83.83,0,1,1-1.66,0V43.85A.83.83,0,0,1,399.68,43Z" style="fill:#00a8ff"/><path d="M399.68,36.59a.83.83,0,0,1,.83.83v3.67a.83.83,0,0,1-1.66,0V37.42A.83.83,0,0,1,399.68,36.59Z" style="fill:#00a8ff"/><path d="M394.53,41.64h3.3a.83.83,0,0,1,0,1.66h-3.3a.83.83,0,0,1,0-1.66Z" style="fill:#00a8ff"/><path d="M401.54,41.64h3.3a.83.83,0,1,1,0,1.66h-3.3a.83.83,0,1,1,0-1.66Z" style="fill:#00a8ff"/><path d="M429,63.58a.83.83,0,0,1,.83.83v3.67a.83.83,0,0,1-1.66,0V64.41A.83.83,0,0,1,429,63.58Z" style="fill:#ffaa01"/><path d="M429,57.15a.83.83,0,0,1,.83.83v3.67a.83.83,0,0,1-1.66,0V58A.83.83,0,0,1,429,57.15Z" style="fill:#ffaa01"/><path d="M423.82,62.2h3.3a.83.83,0,1,1,0,1.66h-3.3a.83.83,0,1,1,0-1.66Z" style="fill:#ffaa01"/><path d="M430.83,62.2h3.3a.83.83,0,1,1,0,1.66h-3.3a.83.83,0,1,1,0-1.66Z" style="fill:#ffaa01"/><path d="M68.28,51.94a5.3,5.3,0,1,1-5.3,5.3A5.31,5.31,0,0,1,68.28,51.94Zm0,1.66a3.64,3.64,0,1,0,3.64,3.64A3.64,3.64,0,0,0,68.28,53.6Z" style="fill:#00a8ff"/><path d="M49,34.41a5.3,5.3,0,1,1-5.3,5.3A5.31,5.31,0,0,1,49,34.41Zm0,1.66a3.64,3.64,0,1,0,3.64,3.64A3.64,3.64,0,0,0,49,36.08Z" style="fill:#ffaa01"/><path d="M42,64.74a.83.83,0,0,0,.83.83h3.67a.83.83,0,1,0,0-1.66H42.8A.83.83,0,0,0,42,64.74Z" style="fill:#00a8ff"/><path d="M35.54,64.74a.83.83,0,0,0,.83.83H40a.83.83,0,1,0,0-1.66H36.38A.83.83,0,0,0,35.54,64.74Z" style="fill:#00a8ff"/><path d="M40.59,59.59v3.3a.83.83,0,1,0,1.66,0v-3.3a.83.83,0,1,0-1.66,0Z" style="fill:#00a8ff"/><path d="M40.59,66.59v3.3a.83.83,0,1,0,1.66,0v-3.3a.83.83,0,1,0-1.66,0Z" style="fill:#00a8ff"/><path d="M80.82,36.08a.83.83,0,0,0,.83.83h3.67a.83.83,0,0,0,0-1.66H81.66A.83.83,0,0,0,80.82,36.08Z" style="fill:#ffaa01"/><path d="M74.4,36.08a.83.83,0,0,0,.83.83H78.9a.83.83,0,0,0,0-1.66H75.23A.83.83,0,0,0,74.4,36.08Z" style="fill:#ffaa01"/><path d="M79.45,30.93v3.3a.83.83,0,0,0,1.66,0v-3.3a.83.83,0,0,0-1.66,0Z" style="fill:#ffaa01"/><path d="M79.45,37.93v3.3a.83.83,0,0,0,1.66,0v-3.3a.83.83,0,0,0-1.66,0Z" style="fill:#ffaa01"/><rect x="24.41" y="100.1" width="23.41" height="23.41" rx="4.26" ry="4.26" style="fill:#ffaa01"/><path d="M42.73,107l-.12-.48a3.62,3.62,0,0,0-.8-1.51,3.7,3.7,0,0,0-1-.79,1.09,1.09,0,0,0-1.42.28l-1.95,2.37a1.13,1.13,0,0,0,.16,1.59c.35.31.72.6,1.08.9l.14.09a10.44,10.44,0,0,1-4.44,5.42l-.79-.66-.41-.34a1.12,1.12,0,0,0-1.35-.07,1.72,1.72,0,0,0-.36.36l-1.76,2.14a1.5,1.5,0,0,0-.35.76l0,.32a2.42,2.42,0,0,0,.31.53,4,4,0,0,0,1.18.86,3.32,3.32,0,0,0,1.66.33,6.33,6.33,0,0,0,1.14-.22,9.11,9.11,0,0,0,2.64-1.27,13.86,13.86,0,0,0,2.22-1.88,22.55,22.55,0,0,0,2.46-3.07,11.19,11.19,0,0,0,1.41-2.75,6.23,6.23,0,0,0,.31-1.53c0-.21,0-.42,0-.63Z" style="fill:#fff"/><rect x="384.07" y="235.58" width="23.76" height="23.76" rx="3.4" ry="3.4" style="fill:#ffaa01"/><path d="M403.55,247c0,3-1.66,4.5-3.65,4.5a2.5,2.5,0,0,1-2.45-1.35,2.42,2.42,0,0,1-2.36,1.35c-1.67,0-3.29-1.47-3.29-3.86s1.57-3.85,3.29-3.85a2.45,2.45,0,0,1,1.91.76v-.62h3v4.44c0,.65.26.85.61.85s.79-.43.79-2.17c0-2.81-2.09-4.79-5.29-4.79a5.06,5.06,0,0,0-5.32,5.18,5,5,0,0,0,5.26,5.21,7.47,7.47,0,0,0,3.13-.68l.65,1.91a9.45,9.45,0,0,1-3.79.74c-4.67,0-7.66-3.12-7.66-7.18s3-7.15,7.73-7.15C400.56,240.29,403.55,243.29,403.55,247Zm-6.48.64c0-.93-.48-1.41-1.12-1.41s-1.1.48-1.1,1.41.46,1.43,1.1,1.43S397.07,248.59,397.07,247.65Z" style="fill:#fff"/><path d="M399.53,106.82v75.81a12.82,12.82,0,0,1-12.82,12.82H205.08V65.83H358.54a41,41,0,0,1,41,41Z" style="fill:#00a8ff"/><path d="M399.53,166.57v16.05a12.82,12.82,0,0,1-12.82,12.82H234.88V166.57Z" style="fill:#28baff"/><path d="M247.9,102.35v93.1H165.78v-93.1A36.62,36.62,0,0,1,202.4,65.73h9.11A36.62,36.62,0,0,1,247.9,102.35Z" style="fill:#007fe9"/><path d="M247.9,102.35v93.1h-73v-93.1a36.62,36.62,0,0,1,36.39-36.62h.23A36.62,36.62,0,0,1,247.9,102.35Z" style="fill:#0050db"/><path d="M165.78,195.45,134.5,250.51c-11.49,20.22-4.4,36.62,15.82,36.62h9.11c20.19-.12,45.74-16.47,57.19-36.62l31.27-55.06Z" style="fill:#007fe9"/><rect x="165.78" y="190.13" width="82.12" height="5.32" style="fill:#007fe9"/><circle cx="333.71" cy="98.84" r="13.17" style="fill:#007fe9"/><circle cx="333.71" cy="96.33" r="13.17" style="fill:#2e3052"/><circle cx="333.71" cy="96.33" r="7.65" style="fill:#524e84"/><path d="M335.91,8.25V96.06a2.2,2.2,0,0,1-4.41,0V8.25Z" style="fill:#ffaa01"/><polygon points="367.17 24.61 331.5 24.61 331.5 4.75 367.17 4.75 359.06 14.68 367.17 24.61" style="fill:#2e3052"/><polygon points="335.91 24.61 335.91 25.81 331.5 27.35 331.5 24.61 335.91 24.61" style="fill:#f88800"/><rect x="284.6" y="195.47" width="17.56" height="168.06" style="fill:#007fe9"/><path d="M332.3,367H254.46v-3.81a10.7,10.7,0,0,1,10.7-10.7h56.43a10.7,10.7,0,0,1,10.7,10.7Z" style="fill:#00a8ff"/><polygon points="302.15 195.47 302.15 200 284.6 206.15 284.6 195.47 302.15 195.47" style="fill:#0050db"/><path d="M141.61,134.24c6.51,23.69,28,30.31,28,30.31a64.46,64.46,0,0,0,19.25-7.31c-1.59-3.8-2.27-7.66-3.15-12.67-7.9,2.2-14.73,3.37-14.73,3.37-16.68-7.73-26.8-44.74-26.8-44.74C134.23,112.61,141.61,134.24,141.61,134.24Z" style="fill:#007fe9"/><path d="M85.49,324.62l-7.06,9.44s1.29,4.22,6.52,7.47l8.44-10.86Z" style="fill:#fba691"/><path d="M83.78,338.61s3.3-.71,4.43.43,4,16.67,6.62,20.07,0,5.2-1.65,5.89-25-22.69-25-22.69,5.78-8,8.57-9.54S80.82,337,83.78,338.61Z" style="fill:#ffaa01"/><path d="M84.21,347.67a.6.6,0,0,1-.34-.33.63.63,0,0,1,.32-.81,9.06,9.06,0,0,1,4.45-.74,4.11,4.11,0,0,1,3.24,2.77.62.62,0,0,1-.41.76.59.59,0,0,1-.74-.42A2.93,2.93,0,0,0,88.42,347a8,8,0,0,0-3.76.66A.58.58,0,0,1,84.21,347.67Z" style="fill:#fff"/><path d="M83.83,345.19a.59.59,0,0,1-.34-.33.63.63,0,0,1,.32-.81,9.06,9.06,0,0,1,4.45-.74,4.11,4.11,0,0,1,3.24,2.78.62.62,0,0,1-.41.76.59.59,0,0,1-.74-.42A2.93,2.93,0,0,0,88,344.51a8,8,0,0,0-3.76.66A.58.58,0,0,1,83.83,345.19Z" style="fill:#fff"/><path d="M85.3,350.29A.59.59,0,0,1,85,350a.63.63,0,0,1,.32-.81,9.07,9.07,0,0,1,4.45-.74A4.11,4.11,0,0,1,93,351.18a.62.62,0,0,1-.41.76.59.59,0,0,1-.74-.42,2.93,2.93,0,0,0-2.31-1.91,8,8,0,0,0-3.76.66A.58.58,0,0,1,85.3,350.29Z" style="fill:#fff"/><path d="M128.79,340.83l1.07,11.74s3.78,2.27,9.84,1.2l-1-13.72Z" style="fill:#fba691"/><path d="M137.56,352.12s2.06-2.86,3.74-2.76,14.72,10.17,19.15,11,3.62,4,2.83,5.72-35.09.71-35.09.71-1.26-11.07-.18-14.23S134.12,352.91,137.56,352.12Z" style="fill:#ffaa01"/><path d="M146.05,359.59a.6.6,0,0,1-.47,0,.63.63,0,0,1-.27-.83,9.06,9.06,0,0,1,3-3.41,4.11,4.11,0,0,1,4.26.07.62.62,0,0,1,.17.85.59.59,0,0,1-.83.15,2.93,2.93,0,0,0-3,0,8,8,0,0,0-2.47,2.91A.58.58,0,0,1,146.05,359.59Z" style="fill:#fff"/><path d="M144.17,357.93a.59.59,0,0,1-.47,0,.63.63,0,0,1-.27-.83,9.06,9.06,0,0,1,3-3.41,4.11,4.11,0,0,1,4.26.07.62.62,0,0,1,.17.85.59.59,0,0,1-.83.15,2.93,2.93,0,0,0-3,0,8,8,0,0,0-2.47,2.91A.58.58,0,0,1,144.17,357.93Z" style="fill:#fff"/><path d="M148.55,360.92a.59.59,0,0,1-.47,0,.63.63,0,0,1-.27-.83,9.07,9.07,0,0,1,3-3.41,4.11,4.11,0,0,1,4.26.07.62.62,0,0,1,.17.85.59.59,0,0,1-.83.15,2.93,2.93,0,0,0-3,0,8,8,0,0,0-2.47,2.91A.58.58,0,0,1,148.55,360.92Z" style="fill:#fff"/><path d="M122.21,213.41l-7.13,59a197.19,197.19,0,0,0-12.49,19.78c-5.12,9.32-18.75,33.51-18.75,33.51L92.08,332l45.17-46.81,12-72.34Z" style="fill:#001030"/><path d="M94.11,331.83A9.1,9.1,0,0,1,90.37,336l-9.58-8.09a14.42,14.42,0,0,1,3.26-4.43Z" style="fill:#2e3052"/><path d="M85.73,215.85S98.45,247.12,115,271.51c0,0,2.47,23.73,6.69,36.37,1.85,5.53,5.43,31.74,5.43,31.74l12.54-.57-3.24-72.88-13.27-52.78Z" style="fill:#2e3052"/><path d="M140.81,338.62a10.54,10.54,0,0,1,0,6.51l-14.51.41a16.7,16.7,0,0,1-.6-6.34Z" style="fill:#524e84"/><path d="M144.15,103.2c1.89,2.36,5.68,26.4,6.28,50.8,0,.56,0,1.12,0,1.69q.09,3.87.17,7.77t.14,7.65c.07,4.15.13,8.24.18,12.17,0,.45,0,.89,0,1.34,0,3.84.08,7.52.11,11,0,.45,0,.89,0,1.34,0,5.16.06,9.73.07,13.39h0c0,.51,0,1,0,1.48,0,2.56,0,4.6,0,6a128.82,128.82,0,0,1-18.22,3.55l-.48.06-.81.09-.2,0c-1.05.12-2.1.22-3.16.3a122,122,0,0,1-15.66.28l-1.37-.07-1.23-.08-.56,0-1-.08a127.17,127.17,0,0,1-23-4c0-3-.08-9.18-.09-17.11,0-.44,0-.88,0-1.32,0-8.76,0-19.5.13-30.57,0-.88,0-1.75,0-2.63s0-2,0-3.06c0-.17,0-.35,0-.52s0-.48,0-.72c0-.48,0-1,0-1.44q0-1.05,0-2.1c0-.53,0-1.06,0-1.59,0-1.05,0-2.11,0-3.16.37-22,1.11-42.16,2.52-47.3a3.78,3.78,0,0,1,.41-1,6.49,6.49,0,0,1,.55-.7,11.67,11.67,0,0,1,.91-.92c2.35-2.17,6.43-4.68,10.57-7.07L102,95.7c.07,0,11.25-3.81,11.32-3.85l11.69.82S141.37,99.73,144.15,103.2Z" style="fill:#00a8ff"/><path d="M97,134.85a.61.61,0,0,0-1.09-.37,60.36,60.36,0,0,0-9.21,18.26c-.43,1.37-.8,2.7-1.12,4,0,.53,0,1.06,0,1.59q0,1,0,2.1c0,.48,0,1,0,1.44,0,.24,0,.48,0,.72s0,.35,0,.52a73.82,73.82,0,0,1,2.38-10,59.12,59.12,0,0,1,9-17.86.61.61,0,0,0,.12-.37Z" style="fill:#007fe9"/><path d="M99.37,198.61h0c12.62-.06,23.39-5.8,30.21-10.61a69.16,69.16,0,0,0,11.88-10.52.61.61,0,0,0-.93-.78A67.89,67.89,0,0,1,128.86,187c-6.67,4.7-17.19,10.31-29.49,10.37a.61.61,0,0,0,0,1.21Z" style="fill:#007fe9"/><path d="M112.53,202.9c11,0,21.87-6.24,22.37-6.53a.61.61,0,0,0-.61-1.05c-.13.07-13,7.41-24.37,6.23a.61.61,0,0,0-.13,1.21A26.58,26.58,0,0,0,112.53,202.9Z" style="fill:#007fe9"/><path d="M109.39,111.87C119.94,108.94,128.8,100,129.2,99.6a.61.61,0,0,0-.87-.85c-.1.11-10.53,10.61-21.82,12.52a.61.61,0,0,0,.2,1.2A26.6,26.6,0,0,0,109.39,111.87Z" style="fill:#007fe9"/><path d="M100.56,62.61c0,10.67,6.57,18,17.24,18s18.11-7.91,18.11-18.58-6.32-18.75-17-18.75C106.12,43.3,100.56,51.94,100.56,62.61Z" style="fill:#2e3052"/><path d="M100.8,65.44s-3.73-5.64-1.76-10c2-4.5,1-3.51,1.51-6.89s3-4.77,5.92-5.26.93-3.88,5-5.1,7.36,3,10,1.14,9.08-2.85,10.89,0,3.42,2.83,5.36,2.74c2.33-.11,5.44,3.56,3.34,6.93s-5.65,2-5.16,4.36,3.49,6.42-.53,11.63C134.16,66.58,100.8,65.44,100.8,65.44Z" style="fill:#2e3052"/><path d="M103,67.2s-3-4-5.17-.68.91,12.92,6.31,10.57Z" style="fill:#fb876b"/><path d="M102.92,74.1a.46.46,0,0,1-.44-.33,7.05,7.05,0,0,0-4-4.2.46.46,0,0,1,.32-.85,7.86,7.86,0,0,1,4.51,4.81.46.46,0,0,1-.32.56Z" style="fill:#d45c48"/><path d="M99.8,72.6a.46.46,0,0,1-.38-.7,4.16,4.16,0,0,1,1.71-1.38.46.46,0,1,1,.37.83,3.3,3.3,0,0,0-1.32,1A.46.46,0,0,1,99.8,72.6Z" style="fill:#d45c48"/><path d="M133.51,67.2s3-4,5.17-.68-.91,12.92-6.31,10.57Z" style="fill:#fb876b"/><path d="M133.55,74.1a.46.46,0,0,0,.44-.33,7.05,7.05,0,0,1,4-4.2.46.46,0,0,0-.32-.85,7.86,7.86,0,0,0-4.51,4.81.46.46,0,0,0,.32.56Z" style="fill:#d45c48"/><path d="M136.66,72.6a.46.46,0,0,0,.38-.7,4.16,4.16,0,0,0-1.71-1.38.46.46,0,0,0-.37.83,3.3,3.3,0,0,1,1.32,1A.46.46,0,0,0,136.66,72.6Z" style="fill:#d45c48"/><path d="M125.53,85.27V95.43a7,7,0,0,1-4.77,2.74c-4.45.53-9.27-4.18-9.27-4.18v-8Z" style="fill:#fba691"/><path d="M125.53,85.27v4.26c-2.6,2.88-7.21,3.6-14,2.6V85.95Z" style="fill:#fb876b"/><path d="M101.38,67c0,.56.08,1.12.14,1.69.14,1.43.34,2.9.6,4.36l0,.15c1.29,7.08,4.19,14,10.43,16.27,14.15,5.05,19.2-7.08,21.22-14.15.22-.78.43-1.66.6-2.59l0-.12c.2-1,.37-2.16.51-3.31.11-.85.2-1.71.28-2.58.21-2.11.34-4.23.43-6.11a10,10,0,0,0-6.4-9.8c-5.8-2.23-14.62-4-23,.74a10,10,0,0,0-5.09,8.53C101.16,62,101.19,64.44,101.38,67Z" style="fill:#fba691"/><path d="M101.38,67c0,.56.08,1.12.14,1.69.14,1.43.34,2.9.6,4.36l0,.15c1.29,7.08,4.19,14,10.43,16.27,14.15,5.05,19.2-7.08,21.22-14.15.22-.78.43-1.66.6-2.59l0-.12c.2-1,.37-2.16.51-3.31.11-.85.2-1.71.28-2.58l-2.12.55c-.61,3.2-1.51,7.87-2.7,10-1.86-4.53-12.17-.79-12.17-.79s-9.2-3.27-12.31,0a85.68,85.68,0,0,1-2.8-9.24Zm16.56,11.19c7.42-1,9.27.88,9.62,3.08a12.77,12.77,0,0,1-6.32,3.8c-2.55.58-7.71.53-11.47-2.44C109.37,80.94,108.94,75.95,117.94,78.21Z" style="fill:#2e3052"/><ellipse cx="112.24" cy="67.76" rx="1.18" ry="1.86" style="fill:#2e3052"/><ellipse cx="125.93" cy="67.76" rx="1.18" ry="1.86" style="fill:#2e3052"/><path d="M129.27,61.4s-3.72-1.47-6.59-.23l.29,1.59s4.21-.36,6.33.5A2.76,2.76,0,0,0,129.27,61.4Z" style="fill:#2e3052"/><path d="M107.58,61.4s3.72-1.47,6.59-.23l-.29,1.59s-4.21-.36-6.33.5A2.77,2.77,0,0,1,107.58,61.4Z" style="fill:#2e3052"/><path d="M118.69,75.81a4.86,4.86,0,0,1-1.68-.14.46.46,0,0,1,.24-.88,2.74,2.74,0,0,0,1.84-.05.5.5,0,0,0,.17-.45,69,69,0,0,0-1.12-6.9.46.46,0,0,1,.89-.18,67.55,67.55,0,0,1,1.14,7.07,1.39,1.39,0,0,1-.52,1.19A1.92,1.92,0,0,1,118.69,75.81Z" style="fill:#fb876b"/><path d="M112.46,78.55c.37,1.88,1.61,5.33,5.79,5.33s5.36-3.15,5.76-5.33Z" style="fill:#fff"/><path d="M135.17,67.28H133.1A15,15,0,0,0,132,61c-1.41-3.79,1.59-5.46-.84-7.36s-8.48-1.09-12.69-1.22-11-.08-12.69.31-.75,3.13-.14,5.26-2,4.48-2.47,6.68a9.71,9.71,0,0,0,0,2.59H101.4c-.2-2.68-.24-5.18-.2-7.2a10,10,0,0,1,5.09-8.53c8.35-4.73,17.16-3,23-.74a10,10,0,0,1,6.4,9.8C135.55,62.66,135.4,65,135.17,67.28Z" style="fill:#2e3052"/><rect x="93.19" y="106.22" width="115.96" height="80.1" transform="translate(-57.88 169.66) rotate(-50.44)" style="fill:#ffaa01"/><polygon points="157.21 76.07 161.17 79.34 163.87 156.76 87.33 168.74 83.37 165.47 160.04 153.61 157.21 76.07" style="fill:#f88800"/><polygon points="145.13 155.78 147.26 213.89 145.12 216.48 143.54 215.18 141.38 155.92 145.13 155.78" style="fill:#f88800"/><polygon points="217.6 125.95 218.97 127.08 216.63 129.9 159.17 138.79 158.59 135.07 217.6 125.95" style="fill:#f88800"/><polygon points="83.36 165.47 160.04 153.61 157.21 76.07 83.36 165.47" style="fill:#fdcc50"/><path d="M144.06,188h2.13a4.65,4.65,0,0,0,4.21-2.82,27.68,27.68,0,0,1,1.25-2.6c1-1.33,3.71-3.56,4.73-3.62s.83,1.83.11,2.66a17.09,17.09,0,0,0-2.46,3.06c-.61,1.17,5,3.55,7.25,4.11s6.25-.66,6.64,1.22-2.6,2.16-2.6,2.16.88,1.7-1.6,3.1a2.29,2.29,0,0,1-1.16,2.55,2.56,2.56,0,0,1-1.68,2.66c-1.86.55-7.67,2.24-19.07-4.68Z" style="fill:#fba691"/><path d="M104.94,139.61c4.3,16.27,8.53,23.46,8.53,23.46a60.14,60.14,0,0,0,14.75,14.36,193.58,193.58,0,0,0,18,10.58c-1.91,2.48-3.26,7.4-2.52,8.86-23,0-43.17-21.82-43.17-21.82-16.11-28-17.16-50.88-16.9-59.2a15.88,15.88,0,0,1,2.56-8.25,8.24,8.24,0,0,1,3.1-3,16.78,16.78,0,0,1,9.31,10.68C101,123.39,104.94,139.61,104.94,139.61Z" style="fill:#007fe9"/><path d="M207.49,141s-5.12-1.81-7.48-.83,4.17,4.51,4.17,4.51-7.91-4.21-9.27-2.51,6.2,6,6.2,6-5.79-2-7-.84,4.22,4.57,4.22,4.57-4.75-1.15-5.75-.34,3.22,4.19,5.9,5.09,3.11-2.87,3.11-2.87,2.52-2.22,2.18-3.75c0,0,2.61-1.76,2.79-3.56C206.6,146.52,210.29,143.27,207.49,141Z" style="fill:#fba691"/></g></g></svg>