<svg xmlns="http://www.w3.org/2000/svg" xmlns:xlink="http://www.w3.org/1999/xlink" viewBox="0 0 627.52 414.91"><defs><clipPath id="67a73cb3-5df4-4904-b4d3-c705d38fd731"><ellipse cx="312.37" cy="239.84" rx="135.96" ry="139.37" style="fill:none"/></clipPath></defs><title>csr-banner</title><g style="isolation:isolate"><g id="b22b0a47-585d-4b98-8dc6-f1671d5bbba1" data-name="Layer 2"><g id="2b1f9b23-0e76-491c-a65e-5e598edd2a2a" data-name="OBJECTS"><g style="mix-blend-mode:multiply"><g style="opacity:0.46"><path d="M61.13,381.94c-24.39-28.22-45-60.45-55-96.4s-8.43-76,9.26-108.79c7.85-14.58,20-28.3,36.24-31.57,17.87-3.6,35.48,6.18,50.67,16.26,34.2,22.69,68.11,49.68,108.81,55,41.67,5.44,82.74-13.11,118.3-35.51s68.89-49.36,108.3-64c24-8.9,53.85-11.82,72.57,5.61,7.87,7.33,12.65,17.37,16.39,27.46,10,27,14.93,58,36.59,77,15.08,13.19,36.29,18.39,49.87,33.11,15.25,16.53,17.36,42,11,63.55s-19.75,40.26-33,58.46" style="fill:#e1f2fa"/></g><path d="M130.28,67.2a8.44,8.44,0,0,1,1.26.1,15.61,15.61,0,0,1,29-5.65,10.9,10.9,0,0,1,13.22,9,5.16,5.16,0,0,1,6.59,5H121.88A8.41,8.41,0,0,1,130.28,67.2Z" style="fill:#e1f2fa"/><path d="M473.17,56.41a10.18,10.18,0,0,0-1.51.12,18.83,18.83,0,0,0-35-6.81,13.15,13.15,0,0,0-15.94,10.83,6.23,6.23,0,0,0-8,6h70.54A10.14,10.14,0,0,0,473.17,56.41Z" style="fill:#e1f2fa"/><circle cx="90.48" cy="185.93" r="2" style="fill:#71b0cd"/><circle cx="407.73" cy="95.48" r="3.33" style="fill:#71b0cd"/><circle cx="278.7" cy="50.92" r="2" style="fill:#71b0cd"/><circle cx="488.2" cy="102.13" r="2" style="fill:#71b0cd"/><circle cx="178.28" cy="154" r="7.32" style="fill:#e1f2fa"/><circle cx="29.3" cy="343.55" r="7.32" style="fill:#e1f2fa"/><circle cx="250.1" cy="96.14" r="5.99" style="fill:#e1f2fa"/><circle cx="575.99" cy="261.08" r="3.33" style="fill:#e1f2fa"/><circle cx="411.72" cy="372.15" r="2.66" style="fill:#e1f2fa"/><circle cx="166.97" cy="114.77" r="3.99" style="fill:none;stroke:#71b0cd;stroke-miterlimit:10;stroke-width:0.5px"/><circle cx="48.58" cy="47.59" r="6.65" style="fill:none;stroke:#71b0cd;stroke-miterlimit:10;stroke-width:0.5px"/><circle cx="77.18" cy="295.67" r="5.32" style="fill:none;stroke:#71b0cd;stroke-miterlimit:10;stroke-width:0.5px"/><circle cx="353.86" cy="81.51" r="4.66" style="fill:none;stroke:#71b0cd;stroke-miterlimit:10;stroke-width:0.5px"/><circle cx="493.52" cy="193.24" r="6.65" style="fill:none;stroke:#71b0cd;stroke-miterlimit:10;stroke-width:0.5px"/><circle cx="571.34" cy="370.82" r="6.65" style="fill:none;stroke:#71b0cd;stroke-miterlimit:10;stroke-width:0.5px"/></g><line x1="1.79" y1="383.41" x2="615.33" y2="383.41" style="fill:none;stroke:#2e4166;stroke-linecap:round;stroke-linejoin:round;stroke-width:0.5px"/><path d="M140.12,141.45c-10.71-1.36-13.77,5.62-13.77,5.62-6.9-2.52-2.26,13.13-2.26,13.13l0,.08,3.11,1.91.1-.18h0l.1-.18-.24-.15,5.26-4.92a8.74,8.74,0,0,0,3.27-3c.94-1.53,2.7-.61,4-1,.58-.19.75.74,1.15.24.83-.45.76-.21,1.17-1.1C143.94,151.26,144.69,142,140.12,141.45Zm-15,18.88a3.43,3.43,0,0,1,1.36.94l-.68-.42Z" style="fill:#020f2b"/><path d="M192.47,186.9S180.9,217,176,218.71,128,194,135.89,184.83c0,0,1-3.71,4.45-2.92s13.21,2,32.56,18.55c0,0,11.43-18.55,12.17-20.29" style="fill:#f27294"/><path d="M170.92,195.91s-34-28.37-41.63-11c-4.24,9.73,39.85,37.93,47.18,39l17-32.74-9.42-9.27Z" style="fill:#003a69"/><path d="M142.48,179.82c-5.76-1.29-10.79-.36-13.19,5.14-3.66,8.39,28.57,30.48,42.25,37.12Q156.55,201.27,142.48,179.82Z" style="opacity:0.21;mix-blend-mode:soft-light"/><line x1="180.1" y1="186.1" x2="190.75" y2="196.74" style="fill:none;stroke:#fff;stroke-miterlimit:10;stroke-width:0.328322px"/><polygon points="146.65 369.37 150.02 382.69 172.46 382.69 172.46 381.08 159.7 374.35 158.13 369.61 146.65 369.37" style="fill:#f27294"/><path d="M159.7,374.35c-.74-.43-13-5-13-5l11.49.24Z" style="fill:#bd4064"/><path d="M159.86,374.35l-3.8,3.69a2.65,2.65,0,0,1-3.62.07l-4.32-3.91,2.05,8.49h22.43v-1.61Z" style="fill:#323a8a;stroke:#323a8a;stroke-miterlimit:10;stroke-width:1.28664px"/><polygon points="110.43 368.39 107.57 382.55 85.14 382.55 85.14 380.94 97.89 374.2 98.13 369.46 110.43 368.39" style="fill:#f27294"/><polygon points="97.89 374.2 98.13 369.46 110.58 368.82 97.89 374.2" style="fill:#bd4064"/><path d="M97.65,374.2l3.8,3.69a2.65,2.65,0,0,0,3.62.07l3.86-3.92-1.6,8.5H84.89v-1.61Z" style="fill:#323a8a;stroke:#323a8a;stroke-miterlimit:10;stroke-width:1.28664px"/><path d="M145.66,256.29l16.75,113.47-16.61.77-16.4-79.15a3.3,3.3,0,0,0-6.28,0L111,368.82l-13.93.9s-.19-66.79,4.09-115.14Z" style="fill:#323a8a"/><line x1="112.57" y1="363.12" x2="97.08" y2="363.12" style="fill:none;stroke:#fff;stroke-miterlimit:10;stroke-width:0.560238px"/><line x1="161.56" y1="363.55" x2="145.54" y2="363.55" style="fill:none;stroke:#fff;stroke-miterlimit:10;stroke-width:0.560238px"/><polygon points="101.59 266.13 150.37 287.52 147.37 266.13 101.59 266.13" style="mix-blend-mode:soft-light"/><path d="M121.07,177s-16.8,5.11-18.64,18.9-4.55,70.24-4.55,70.24l52.79.44,3.12-55.63a64.46,64.46,0,0,0-7-23.53c-1.59-2.83-3.47-6-4.62-6.25l-16.93-7Z" style="fill:#003a69"/><g style="opacity:0.21;mix-blend-mode:multiply"><path d="M131.14,229.25c-5.38-9.84-10.72-19.64-16.54-29.22-2.73-4.5-5.41-9-7.9-13.62a18.62,18.62,0,0,0-4.26,9.49c-1.84,13.79-4.55,70.24-4.55,70.24l52.46.44.5-5.33C144.59,250.86,137,239.87,131.14,229.25Z"/></g><path d="M125.85,164.92l-1.65,10.21,4.61,4.48c2.08,3.07,6.82,1.66,7.3.46h0l-.34-8.54-8.1-8.21a8.35,8.35,0,0,0-1.55,1.19A1.91,1.91,0,0,1,125.85,164.92Z" style="fill:#f27294"/><path d="M127.67,163.32l8.1,8.21.32,5.09s-7.63-2.57-7.53-9" style="fill:#993c5c"/><polygon points="121.07 176.98 124.57 172.46 133.88 181.02 130.89 188.59 121.07 176.98" style="fill:#fff"/><polygon points="135.96 175.54 133.72 180.86 135.88 187.76 139.12 179.36 135.96 175.54" style="fill:#fff"/><polygon points="135.49 186.48 131.72 186.59 133.72 180.86 135.49 186.48" style="fill:#d3296e"/><path d="M127,160.41a.39.39,0,0,1-.65.11c-.66-.72-2-1.74-2.64,1-.88,3.65,3,3.24,3.28,3.75.57,1,2.37,4.54,5.27,6a9,9,0,0,0,7.6.05c1.82-1,2.41-4.16,2.08-19.62l-2-1.27c-1.33.38-6.12,6.52-10.18,2.14C129,154.44,127.7,158.84,127,160.41Z" style="fill:#f27294"/><path d="M124.31,161.23l1.95,1.65S125.7,159.13,124.31,161.23Z" style="fill:#bd4064"/><ellipse cx="138.45" cy="159.99" rx="0.81" ry="0.39" transform="translate(-29.11 289.17) rotate(-86.76)" style="fill:#04092b"/><ellipse cx="141.11" cy="159.91" rx="0.81" ry="0.39" transform="translate(-26.52 291.75) rotate(-86.76)" style="fill:#04092b"/><path d="M135.88,156.35c-.61.37.41-1.41,1.21-1.57a1.38,1.38,0,0,1,1.69,1A4.26,4.26,0,0,0,135.88,156.35Z" style="fill:#04092b"/><path d="M141.87,156.5a4.27,4.27,0,0,0-1.44,0,1.45,1.45,0,0,1,1.51-1.06" style="fill:#04092b"/><path d="M139.95,159.67l1,3.47a.09.09,0,0,1-.08.12l-1.42,0a.08.08,0,0,1-.08-.1l.42-3.5A.08.08,0,0,1,139.95,159.67Z" style="fill:#bd4064"/><path d="M137.37,163.73c.26.05,3.74.17,3.74.17s-.67,2.33-2,2.24S137,163.65,137.37,163.73Z" style="fill:#fff"/><path d="M185.07,180.17s-1.34-11,1.24-9.92c.32.14,1.55,5.28,1.55,5.28s5-9,6.35-8.62c1.56.4-3.29,6.87-3.29,6.87s4.38-6.29,5.43-5.79-3.66,7.5-3.66,7.5,5-8,5.24-6.36-3.55,7.82-3.55,7.82,3.21-5.08,4.67-5.26c1.78-.23-7.19,15.71-7.19,15.71" style="fill:#f27294"/><path d="M163.8,184.17a18.75,18.75,0,0,1-6.63-11.27,26.21,26.21,0,0,1,1.38-13.16A12.25,12.25,0,0,1,163,164.6c3.2,5.75,3.33,13.39.88,19.5" style="fill:#7cbfb1"/><path d="M159.7,167c5,11.7,5.88,27.31,4.19,39.82,0,.11.15.16.17,0,1.68-12.49.81-28.24-4.21-40,0-.1-.19,0-.15.09Z"/><path d="M166.71,192.41a15.42,15.42,0,0,1,2.4-7.08,8.07,8.07,0,0,1,1.65-1.84,10.36,10.36,0,0,1,5.05-1.67,8.45,8.45,0,0,1-3,7,19.16,19.16,0,0,1-3,2l-3,1.72" style="fill:#7cbfb1"/><path d="M172.91,184.89a34.83,34.83,0,0,0-8.45,11.52c0,.1.1.19.15.09A34.73,34.73,0,0,1,173,185c.08-.07,0-.2-.12-.12Z"/><path d="M149.76,228.29,157.82,202a4.21,4.21,0,0,1,2.4-2.65l15.56-6.5c1.93-.81,3.37,1.18,2.67,3.16l-7.19,21.57a5.41,5.41,0,0,1-2.83,3.22L151.73,229C151.2,229.21,149.58,228.86,149.76,228.29Z" style="fill:#fff"/><path d="M151.23,229.26,159.6,202a3.31,3.31,0,0,1,1.84-2l15.6-6.37c1.17-.48,2.07.84,1.71,2L171.24,218a4.25,4.25,0,0,1-2.4,2.94C163.79,223.45,151.08,229.71,151.23,229.26Z" style="fill:#66cfff"/><path d="M143.25,236.48a208.86,208.86,0,0,0,24.08-19c.88-.78,3.3-3.42,3.1-3.86-.45-1-5.36,4.18-5.24,3.83s6.32-5.71,6-6.53c-.51-1.25-7.32,4.86-7.44,5-1.81,1.48,6.74-5.59,6.59-6.53s-4.27,2-4.42,2.11-3.38,2.74-3.63,2.53,5.54-8,4.52-8.15-4.9,4.4-6.07,5.51-3.78,2-4.75,2.71c-1.34,1-1.35-2.5-.79-3.75a21.59,21.59,0,0,0-3.41,5.49,22.15,22.15,0,0,0-.74,3l-12.15,8Z" style="fill:#f27294"/><path d="M118.87,191.09s-5.88-9.25-11.28-5.94c-9.14,5.59-10.66,27.52,8.08,55.1,4.25,6.26,16.14,7.3,21.47,1.93l19.52-12.05-8.32-13.06-12.69,8.51Z" style="fill:#003a69"/><line x1="143.83" y1="220.26" x2="151.47" y2="233.26" style="fill:none;stroke:#fff;stroke-miterlimit:10;stroke-width:0.328322px"/><path d="M326,112.76a9.25,9.25,0,0,0-2.65-5.37,4,4,0,0,0-4.39-.21,8.07,8.07,0,0,0-3.08,3.41,4,4,0,0,0-1.67-1.91,4.79,4.79,0,0,0-3.55-.35c-3.31.55-3.64,3.12-3.81,4.51" style="fill:#55a695"/><path d="M311,80.36A62.2,62.2,0,0,1,287.69,43.8c-3-14.48-1.5-29.7,3-43.8,6.54,3.4,11.49,9.27,15.3,15.58,11.3,18.68,12.65,44,5.28,64.56" style="fill:#7cbfb1"/><path d="M296,23.87c12.51,27.9,17.75,58.31,14.23,88.75,0,.36.53.36.57,0,3.53-30.55-1.75-61-14.31-89-.15-.34-.64,0-.49.29Z"/><path d="M317.9,87c.89-9.14,3.86-18.6,9.24-26a29.87,29.87,0,0,1,6.43-6.74c5.64-4.12,12.89-5.14,19.82-6,1.08,9.75-4.07,19.52-11.73,25.65A74.49,74.49,0,0,1,330,81.06l-11.7,6.26" style="fill:#7cbfb1"/><path d="M342.14,59.52a114.08,114.08,0,0,0-30.78,39.67c-.14.3.31.57.45.26a113.84,113.84,0,0,1,30.7-39.57c.26-.21-.11-.58-.37-.37Z"/><path d="M302.76,99.51A39.89,39.89,0,0,0,291,82.36a22.81,22.81,0,0,0-6-3.84c-4.93-2-10.49-1.49-15.8-.91,1,7.43,6.54,13.75,13.32,16.92a56.9,56.9,0,0,0,9.95,3.24l9.81,2.54" style="fill:#7cbfb1"/><path d="M280.4,83.59A154.54,154.54,0,0,1,310.62,108c.23.24.6-.13.37-.37a155,155,0,0,0-30.33-24.53c-.29-.18-.55.28-.26.45Z"/><path d="M296.4,112.87a9.09,9.09,0,0,1,2.44-5.17,3.56,3.56,0,0,1,4-.2,7.67,7.67,0,0,1,2.83,3.29,3.79,3.79,0,0,1,1.54-1.84,4.23,4.23,0,0,1,3.27-.33c3,.53,3.35,3,3.51,4.35" style="fill:#7cbfb1"/><ellipse cx="312.37" cy="239.84" rx="135.96" ry="139.37" style="fill:#71b0cd"/><g style="clip-path:url(#67a73cb3-5df4-4904-b4d3-c705d38fd731)"><path d="M164.55,160.45c-1.18,6.63-7.14,11.66-7.89,18.35-.43,3.85.94,7.65,2.31,11.26q6,15.86,12.27,31.59c.72,1.81,1.52,3.71,3,4.89,3,2.34,7.37.81,11.15,1.36,4,.58,7.28,3.54,10.79,5.66,5.46,3.3,11.8,4.67,18,6l-6.45,19a9.09,9.09,0,0,0-.71,4,9,9,0,0,0,2.49,4.45l18,21.2a24.1,24.1,0,0,1,4.21,6.16c1.25,3,1.25,6.42,1.15,9.7a225.25,225.25,0,0,1-3.71,34.52c-.35,1.9-.73,3.91-.12,5.74a11,11,0,0,0,3.49,4.45l17,15.27c3.26,2.92,8.85,5.62,11.23,1.91-2.34-5-8.48-7.87-9.51-13.35-.7-3.74,1.28-7.4,3.19-10.67q14-24,28.46-47.76c-2.93-1.59-1.79-6.1-.26-9.11l6.52-12.79c.86-1.68,1.74-3.55,1.3-5.39a7,7,0,0,0-2.7-3.59,26.24,26.24,0,0,0-18.56-5.62c-1,.09-2.28.17-2.93-.66-.81-1-.1-2.51,0-3.82.15-2.61-2.26-4.52-4.41-5.92L243.29,235c-2.25-1.48-4.85-3-7.44-2.36-1.15.29-2.21,1-3.4,1-1.53,0-2.8-1.17-4.22-1.76-2.92-1.22-6.18.07-9.22.93s-6.88,1-8.73-1.59a30.18,30.18,0,0,0,5.69-11c-1.17-1.14-3-.1-4.41.76a16.84,16.84,0,0,1-19.18-1.28c-.12-5.68.28-11.84,3.87-16.17s11.44-5.1,14.16-.15c1.61,2.93,2.42,7.91,5.62,7.2,1.76-.39,2.52-2.61,2.34-4.44s-1-3.57-1-5.41c-.14-4,3.14-7.24,6.44-9.41s7.06-4.05,9-7.55c.87-1.59,1.29-3.4,2.2-5,1.52-2.59,4.22-4.17,6.8-5.64l24.49-13.92,2.13,2.86c3-.29,3.76-4.46,3.48-7.56a78.86,78.86,0,0,0-4.95-21.3l-4.23,3c-1.56-3.59-6.78-2.44-10.23-.71s-8.66,2.9-10.23-.69a38.68,38.68,0,0,1,17.55-5.53,3.9,3.9,0,0,0,1.74-.37c1.25-.73,1.28-2.6.77-4-1.28-3.48-4.76-5.71-8.31-6.44s-7.23-.22-10.82.3l-11.51,1.66c-2.56.37-5.29.72-7.65-.38s-3.77-3.25-5.61-5-4.59-3-6.75-1.72a12.05,12.05,0,0,0-2.58,2.64c-3.79,4.21-10.15,4.27-15.74,4l-31.37-1.39a19.16,19.16,0,0,0-7.06.57c-2.61.89-4.72,2.85-6.75,4.76l-15.17,14.31c-1.24,1.17-2.6,2.69-2.22,4.38s2.36,2.47,4,2.21a15.09,15.09,0,0,0,4.55-2.08c7.62-4.13,16.85-2.71,25.34-1.18a31.48,31.48,0,0,1,.92,13l1.78-6.11" style="fill:#4892b5"/><path d="M164.25,160.37c-1.77,7.67-8.8,13.42-7.87,21.76.51,4.58,2.66,9,4.29,13.3q2.85,7.48,5.77,14.93c2.26,5.78,4,17,11.64,17.8,4.76.51,8.32-.37,12.79,2.26,3.86,2.27,7.27,4.83,11.53,6.36a63.64,63.64,0,0,0,6.66,1.93c3.2.77,4.15.78,3.7,4.19-.69,5.16-3.79,10.53-5.28,15.53-2.29,7.69,5.65,13.21,10.21,18.58,3.53,4.16,7.19,8.25,10.61,12.51,4.5,5.6,4.47,11.52,4.15,18.35-.51,10.85-2.63,21.36-3.82,32.11-.41,3.72.5,5.91,3.18,8.48,4.29,4.12,8.87,8,13.3,11.94,3.47,3.11,11.16,11.37,15.93,5.72a.33.33,0,0,0,0-.38c-2.23-4.15-6.77-6.73-8.71-11-3.35-7.37,5.09-17.35,8.69-23.46q11-18.58,22.15-37a.32.32,0,0,0-.11-.43c-5.41-4.11,4.37-17.23,6.37-21.47,1.83-3.88,2-6.42-1.45-9.36a25.8,25.8,0,0,0-13.83-5.67c-1.2-.12-3.85.31-4.94,0-5.93-1.94-1.69-3.17-2.76-5.42a9.78,9.78,0,0,0-2.24-3.32c-4.57-4.28-10.92-7.35-16.15-10.77-4.59-3-7.94-6-13.47-5-3,.53-5.07-1.1-7.89-1.57-2.39-.4-4.8.51-7.05,1.13-2.7.74-4.23,1.26-6.53-.65s-1.77-1.16-.37-3.42a33.12,33.12,0,0,0,3.47-7.89.31.31,0,0,0-.14-.35c-1.4-.68-2.09-.52-3.55.09-3.46,1.45-6.07,3.11-10.08,3-3.84-.1-9.31-1.28-9.83-5.7a21.06,21.06,0,0,1,2.56-11.79c2.38-4,8.14-7.11,12.65-4.33,2.89,1.78,3,5.21,4.74,7.76,1.08,1.58,2.74,2.69,4.55,1.37a4.44,4.44,0,0,0,1.49-3.1c.47-3.93-2.21-6.39,0-10.55,2.92-5.46,10-6.68,13.51-11.55,1.95-2.67,2.37-6,4.82-8.43,2.67-2.59,6.57-4.27,9.77-6.09l10.61-6c3.14-1.79,7.86-6.14,10.68-2.36a.33.33,0,0,0,.35.14c3.5-1,3.87-4.69,3.71-7.86-.37-7.27-2.44-14.6-5-21.38a.32.32,0,0,0-.46-.19c-1.27.91-2.75,2.49-4.43,2.14-.62-.13-1.55-1.1-2.33-1.32-2.39-.68-5,.39-7.16,1.26-2.5,1-5.42,3-7.6.56-2-2.22-.73-1.72,1.62-2.75a38.13,38.13,0,0,1,4.71-1.75c2.71-.79,5.46-.9,8.2-1.44.6-.12,1.41,0,1.93-.44,4-3.26-2-8.81-5-10.11-8.07-3.55-18.4.72-26.66,1.29a11,11,0,0,1-9.36-3.28A24.89,24.89,0,0,0,217.3,114c-1.8-1.16-3.94-1.78-5.93-.72s-3.14,3.51-5.2,4.7a17.45,17.45,0,0,1-7.9,1.91c-5.23.27-10.56-.28-15.78-.52l-16.66-.74c-4.22-.19-8.73-.86-12.65,1.09-3.62,1.8-6.54,5.33-9.44,8.06-3.88,3.66-8.63,7.18-12,11.35-3.19,4,.26,7.26,4.68,5.65,3-1.11,5.61-3,8.88-3.71a34.48,34.48,0,0,1,9.54-.42c2.85.21,8.3.05,9.91,3,1.5,2.74.77,8.16.45,11.14,0,.36.52.41.61.08l1.78-6.11a.31.31,0,0,0-.6-.17c-.1.33-1.07,4.5-1.34,4.58,1-.33.46-2.22.45-3.08a35.18,35.18,0,0,0-1.22-8.43.31.31,0,0,0-.22-.22c-6.87-1.22-14.2-2.51-21.07-.59a23.36,23.36,0,0,0-3.07,1.09,27.37,27.37,0,0,0-2.92,1.55q-9.54-.88-4.5-4.85c3-3.19,6.46-6.09,9.65-9.11s6.74-7.39,10.69-9.26c4.78-2.27,11.13-1.06,16.26-.83,9,.4,18.09,1.22,27.09,1.12a22.72,22.72,0,0,0,7.81-1.17c2.92-1.11,3.86-3.26,6.21-4.91,5.58-3.89,9.2,4.28,12.94,6,2.49,1.13,5.18.77,7.81.43,8.39-1.1,21.23-5.7,28.17,1q3.7,2.93,0,7.2-1.68.11-3.35.36c-1.14.17-2.27.39-3.39.67a41.64,41.64,0,0,0-11,4.54.32.32,0,0,0-.11.43c4.87,7.92,15.85-6.16,20.46,1.4a.31.31,0,0,0,.43.11c2.46-1.76,3.52-2.84,5,.22,1.14,2.34,1.63,5.42,2.18,7.92a73.08,73.08,0,0,1,1.43,8.94,9.78,9.78,0,0,1,0,3.31q.29,2-2,2.38-2,2.56-3-.24a.32.32,0,0,0-.43-.11c-8.16,4.64-16.38,9.18-24.49,13.92-2.16,1.27-4.47,2.53-6.06,4.53a15.88,15.88,0,0,0-2,3.76,15.92,15.92,0,0,1-6.13,7.44c-4,2.73-9.43,5.3-10.28,10.63-.26,1.61.41,2.77.39,4.26q1.6,3.83-4.33,5.16a20.41,20.41,0,0,1-1.47-3.21,10.33,10.33,0,0,0-2.58-4.13c-3.17-2.64-8.16-1.93-11.31.34-4.59,3.32-5.57,9.62-5.73,14.88-.11,3.3-.37,3.42,2.59,5a17.38,17.38,0,0,0,14.45.95c2.82-1.1,7.5-3.59,5,1.9a32.52,32.52,0,0,1-4,6.52.32.32,0,0,0,0,.44c2.53,2.66,5.64,2.48,9,1.68,1-.25,2-.65,3.09-.89,3.57-.84,5.41.89,8.65,1.37,2,.3,1.92.08,4-.26,6.87-1.14,13.66,5.42,19.19,9,2.58,1.69,5.23,3.31,7.75,5.08,3,2.13,3.07,2,4,7,.27,1.35-.7,1.36.23,2.6,1.31,1.74,4.72.74,6.53.81a25.91,25.91,0,0,1,10.93,2.94c1.67.87,4.14,2.22,5.26,3.69,2.76,3.61.89,6.12-.61,9.18-2.22,4.52-5.49,9.15-6.83,14-.8,2.92.54,4.54.53,7,0,2.72-3.7,6.81-5.1,9.12L271.8,312q-5.42,9-10.77,18.13c-4,6.86-13.75,17.63-8.57,26a25.17,25.17,0,0,0,3.35,3.94c.9.94,1.85,1.84,2.68,2.85l1.47,2-2.73,2.46c-3.32.66-7.4-3.61-9.54-5.53l-8.52-7.64c-2.46-2.21-5.16-4.31-7.44-6.7-3.6-3.77-2.33-8.1-1.55-12.71q1.61-9.56,2.4-19.24c.51-6.26,1.79-13.65,0-19.81-1.56-5.39-6.46-9.77-10-13.89l-7.71-9.09c-2.7-3.18-6.46-6.26-7-10.47-.48-4,1.49-7.72,2.77-11.48l3.81-11.21a.31.31,0,0,0-.22-.38c-5-1.08-10.17-2.14-14.88-4.34-3.85-1.8-7-4.86-11-6.45-3-1.22-5.73-.8-8.9-.88-7.61-.18-9.23-9-11.52-14.77-3.54-9-8-18.21-10.42-27.58-2.6-10.11,5.12-15.69,7.2-24.71.09-.39-.51-.56-.6-.17Z" style="fill:#4892b5"/><path d="M263.13,103.92l-5.95.51c-1.35,1.13-.55,3.6,1,4.39s3.43.43,5.13.06l14.17-3.1-3,4.2c3.05,2.17,8.38,1.32,9.61,4.91a5.81,5.81,0,0,1,0,3.12c-.85,3.84-3.07,7.31-3.51,11.22s2.12,8.7,5.93,8.27c2-.23,3.6-1.83,5-3.35l4.16-4.48a6.64,6.64,0,0,1,2.63-2,7.68,7.68,0,0,1,3.25,0c7.51.87,14.8-2.46,21.66-5.72L318,118a8.65,8.65,0,0,0,9.7-5.66,12.5,12.5,0,0,1,1.15-3.22c1.08-1.59,3.14-2,4.9-2.73s3.57-2.43,3-4.27l-12.46-.59c-3-.14-6-.28-9-.17-4.15.15-8.28.77-12.42,1-12.19.68-24.53-2-36.57.11" style="fill:#4892b5"/><path d="M263.13,103.61c-2,.17-5.83-.77-6.8,1.52-.61,1.44.46,3.23,1.68,3.94,2.1,1.21,5,.19,7.18-.27l7.09-1.55c4.06-.89,4.44-.9,1.94,2.58a.31.31,0,0,0,.11.43c3.87,2.25,9.71,1.07,9.46,7.68-.15,3.84-3.19,7.31-3.51,11.22-.27,3.33,1.25,8,5.09,8.64,6.57,1,8.87-9.6,15.36-9.91,4-.19,7.21.13,11.14-1a75.58,75.58,0,0,0,11.49-4.69c.24-.11.17-.41,0-.54-.32-.24-4.13-3-4-3.16a24.11,24.11,0,0,0,2.74-.38,9.08,9.08,0,0,0,5-3.76c.62-1,.73-2.07,1.26-3,2.39-4.28,3.51-3.39,6.23-5,1.8-1.07,2.54-2.14,2.52-4.19a.32.32,0,0,0-.31-.31c-5.94-.28-11.9-.7-17.84-.78-5.69-.08-11.3.83-17,1.07-11.94.51-23.79-1.78-35.69.08-.4.06-.23.66.17.6,9-1.4,17.84-.48,26.84-.11,7.74.32,15.26-.84,23-1,3.88-.08,7.76.18,11.63.36,1.62.08,3.85-.26,5.34.25l1.78.08q-.72,3.95-4,4.78c-1.17,1-2.13,1.37-2.88,2.85-.55,1.07-.61,2.4-1.19,3.47a8.56,8.56,0,0,1-8.88,4.24c-.35,0-.37.42-.16.58,1.4,1.06,4.31,2.18,3.58,4.12-.36.94-5.44,2.4-6.43,2.76a35.28,35.28,0,0,1-13.48,2.16c-2.51,0-3.45-.24-5.31,1.3a37.9,37.9,0,0,0-3.39,3.61c-2.21,2.38-6.43,8-10.63,2.58-5.19-6.69,4.73-13.59,2.15-20.1a5,5,0,0,0-3.22-2.8c-1.06-.42-2.38-.4-3.39-.92-3-1.54-1.56-2.89,0-5.08.17-.24-.11-.51-.35-.46l-10.63,2.33c-1.25.27-5.22,1.74-6.08,1.17l-1.55-4.4,4-.34c.4,0,.4-.66,0-.62Z" style="fill:#4892b5"/><path d="M522.1,412.54c5.71-2.15,11.47-4.16,17.2-6.24L535.68,399a13.17,13.17,0,0,1-15.35.87l29.22-15.09c1.34-2.84-3.35-4.5-6.35-3.76s-7.55.77-7.64-2.39c-3.73,3.34-9.41,1.83-14.27.84A92,92,0,0,0,505,378.06q-16.72-.38-33.44.19c-5.63.19-11.33.48-16.71,2.18-10.23,3.24-19.46,11.54-30.1,10.31a30.19,30.19,0,0,1,7.76-7.53c-5.45-5.68-14-6.94-21.72-6.22s-15.3,3.08-23.06,3.4c-6,.24-12.05-.76-18.09-1-21.16-.76-41.4,8.07-60.82,16.72a8.44,8.44,0,0,0,12.37,1.26c1.32-.11,1.85,2,1,3s-2.34,1.17-3.66,1.24A166.91,166.91,0,0,1,267,396.12l10.55-5.41c-4.12-1.86-5.37-7.05-7.22-11.26s-6.68-8.31-10.4-5.71L263.8,385a134.14,134.14,0,0,1-36.27-.49,5.48,5.48,0,0,0,0,5.9c-3.54,2.87-9.57,1.35-11.4-2.88l-30.66,3.95a5,5,0,0,0-2.74.92c-2.24,2,.26,5.74,3,6.8s6.22,1.47,7.55,4.16c.77,1.55.54,3.42,1.07,5.07s2.67,3,3.86,1.78C198.22,410.18,506.85,418.29,522.1,412.54Z" style="fill:#4892b5"/><path d="M522.18,412.84c5.71-2.14,11.47-4.17,17.2-6.24a.32.32,0,0,0,.19-.46l-3.63-7.31a.31.31,0,0,0-.43-.11,13.37,13.37,0,0,1-11.37,2.49c-6-1.55,2.65-4.34,4.93-5.52l10.31-5.33,5.16-2.66c.79-.41,4.71-1.92,5.16-2.66.82-1.38.11-2.66-1.11-3.52-3.36-2.34-11.75,2-12.74-3a.31.31,0,0,0-.46-.19c-5,3.68-11.19,1.19-16.71.34a106.91,106.91,0,0,0-13.66-1q-16.72-.4-33.44.19c-8.84.32-16.76,1.62-24.75,5.55-4.36,2.15-8.64,4.62-13.32,6a26.76,26.76,0,0,1-2.89.71l-2.86.33q-2.25.72-1.17-1c.1-2.18,4.69-5.07,6.08-6.05a.32.32,0,0,0,.06-.49c-6.4-6.13-15.24-7.13-23.72-6.12-5.37.64-10.62,2-16,2.69-6.35.85-12.51.31-18.87-.18-23.29-1.81-44.66,7.2-65.5,16.49a.32.32,0,0,0-.06.49,8.92,8.92,0,0,0,9.12,3.23c.32-.08,2.51-1.22,2.72-1.17l.06,0q-.72,3.66-3.84,3c-3.21.85-7.82.15-11.14,0A167.15,167.15,0,0,1,281.61,399c-3.35-.59-7.83-.86-10.91-2.29-2.89-1.34-1.7-1.29.87-2.61l6.16-3.16a.31.31,0,0,0,0-.54c-5.7-3.23-5.35-10.33-9.52-14.78-2.37-2.53-5.22-3.82-8.42-2.19a.31.31,0,0,0-.14.35c.89,2.6,4.58,8.9,2.25,11.06-1.36,1.26-8.77.67-10.5.72a139,139,0,0,1-23.78-1.41.32.32,0,0,0-.35.14c-1,2-.16,3.21-.58,5-1.18,5.11-8.68.95-10.28-2a.3.3,0,0,0-.27-.15l-24,3.09c-2.68.35-10.16-.24-10.62,3.8-.34,3,3,5,5.31,5.82s5.28,2.19,6.53,4.73c.55,1.11.14,2.68.66,3.86a3.86,3.86,0,0,0,2.32,2.37c.87.19,2.59-.28,3.68-.31,2.28,0,4.58.12,6.85.17q33,.83,66,1.54,49.72,1.08,99.45,1.86c31.7.48,63.41.87,95.12.79,11.33,0,22.66-.1,34-.43,6.2-.18,12.76,0,18.88-1.2a12.17,12.17,0,0,0,1.86-.43c.37-.13.21-.74-.17-.6-4.45,1.6-10.14,1.22-14.78,1.41-10.19.42-20.39.52-30.59.59-30.2.2-60.4-.14-90.59-.56Q336,413,285.92,411.91q-36.19-.76-72.37-1.65c-4.57-.11-10.18.62-14.67-.37-4.72-1-4.15-7.14-8.14-9.28a24.51,24.51,0,0,0-3.08-1.12c-.61-.23-2.43-.58-2.78-1.1l1.25-3.43q-.4-3.66,2.21-3.56c3.25-1.5,8.88-1.14,12.46-1.6,3.8-.49,7.67-1.26,11.5-1.48,3.58-.21,3.68.7,6.2,2.42a8.05,8.05,0,0,0,9.2-.07.32.32,0,0,0,.11-.43c-4.33-8.72.89-4.79,2.57-5,1.44-.2,3.27.39,4.76.53q4.77.44,9.56.54a140.91,140.91,0,0,0,19.11-1,.32.32,0,0,0,.3-.39l-2.25-6.55-1-2.81q3.58-3,5.84-.32c3.24,1.9,4,6.43,5.51,9.65a17.21,17.21,0,0,0,2,3.56c-.09-.12,1.92,1.83,1.92,1.87,0,2.1-7.72,4.75-9.34,5.58a.32.32,0,0,0,.07.57,170.36,170.36,0,0,0,46,5.72c2.16,0,9.43,1,9.94-2.65.6-4.23-3.64-1-4.77-.64a8.69,8.69,0,0,1-6.54-.66c-2.72-1.52-1.23-2.21.74-3.27a128.34,128.34,0,0,1,12.58-5.37,155.79,155.79,0,0,1,22.5-7.42,84.6,84.6,0,0,1,25-2.25c7.31.47,14.39,1.26,21.69.19,8.91-1.32,17.9-4.14,26.95-2.37,2.48.48,11.28,2.83,10.09,6.15-.33.91-2.81,2.35-3.56,3.11a36.8,36.8,0,0,0-3,3.64c-.16.21.06.45.27.47,13,1,23.23-9.51,35.66-11.6,8.45-1.42,17.37-1.13,25.91-1.21,8-.07,16.11-.11,24.14.31,6.51.34,13.37,3,19.85,2.42,1.2-.1,4.18-1.56,5.14-1.28.53.16,1.43,1.5,2.25,1.78a11.06,11.06,0,0,0,4.52.07c1.54-.13,8.54-1.38,5.44,3.86-.44.74-4.37,2.26-5.16,2.66L520.17,399.6a.31.31,0,0,0,0,.54,14.14,14.14,0,0,0,6.6,2.09c2.9.13,4.76-1.26,7.37-1.8,2-.4,3,1.12,3.45,3.11.7,2.86.15,3-2.67,4-4.31,1.54-8.61,3.09-12.9,4.69C521.64,412.38,521.8,413,522.18,412.84Z" style="fill:#4892b5"/><path d="M319.39,126.65a14.1,14.1,0,0,1,6.84.67,2.33,2.33,0,0,0,1.68.19,2.21,2.21,0,0,0,.87-.91l2.07-3.21,2.67,1.6a50.62,50.62,0,0,1-3.13,7.58,2.84,2.84,0,0,1-3.77,2q-5.39-1-10.77-2a14.31,14.31,0,0,1,3-7" style="fill:#4892b5"/><path d="M319.39,127a16,16,0,0,1,6.2.49c.71.2,1.62.68,2.4.37,1.31-.53,3.44-6.06,4.67-2.43.48,1.43-1.23,4.87-2,6-2,2.83-5.55,2.57-8.66,2-1.39-.25-5.17-.26-5.65-1.82s1.87-4.66,2.76-5.88c.24-.32-.3-.64-.54-.31a16.08,16.08,0,0,0-3,7.12.32.32,0,0,0,.22.38l8.75,1.59c1.25.22,3.11.89,4.39.3,2.74-1.28,4.08-7.15,4.92-9.68a.32.32,0,0,0-.14-.35l-2.67-1.6a.32.32,0,0,0-.43.11c-.47.74-1.37,2.68-2.07,3.21-1.15.87-2.67.37-3.87.1a15.76,15.76,0,0,0-5.25-.21c-.39,0-.4.67,0,.62Z" style="fill:#4892b5"/><path d="M428.87,279.52a167.23,167.23,0,0,1-9.12,29.93l-5.78-2.7c1.56-1.11,3.31-3.07,2.26-4.69-.43-.66-1.26-1-1.49-1.8a2.7,2.7,0,0,1,.52-2.05l8.88-15.4c.55-.95,2-1.91,2.45-.92" style="fill:#4892b5"/><path d="M428.57,279.44a176.13,176.13,0,0,1-4.69,17.82q-1.27,3.94-2.74,7.82c-.54,1.43-.84,3.19-2.67,3.42a4.47,4.47,0,0,1-3-1.93c-.2-1,1.2-2,1.38-3.17.08-.52-.33-1.09-.39-1.56-.39-3-1-3.28.56-6l2.47-4.28c.75-1.3,5.24-10.34,7-9.36a.31.31,0,0,0,.31-.54c-3.26-1.86-6.76,7.77-7.81,9.59s-4.4,5.9-4.47,8c-.09,2.65,2.27,4.81-.72,7.32a.31.31,0,0,0,.06.49l5.78,2.7a.32.32,0,0,0,.46-.19,177.17,177.17,0,0,0,9.12-29.93c.08-.39-.52-.56-.6-.17Z" style="fill:#4892b5"/><path d="M391.84,190.32l-3.59,2.43c1.38-2.53-1-5.42-3.23-7.25l-9.49-7.95c-2.09-1.75-4.31-3.57-7-4.09s-5.86.74-6.59,3.41a23.58,23.58,0,0,1,5.26,5.16c-3.74,3.7-9.9,1.34-14.47-1.18-1.33-.73-2.78-1.62-3.16-3.12s.58-3.19,1.06-4.78-.08-3.9-1.7-3.9A59.22,59.22,0,0,1,324,186.85c-2.89-.74-4.3-4.38-3.72-7.37s2.57-5.47,4.5-7.8a6.91,6.91,0,0,0,9.14.53l-4.81-7.11,3.34-4.48c.18-1.89-2.55-2.51-4.25-1.77s-3.4,2.12-5.18,1.6c-2.24-.66-2.65-4-1.51-6s3.21-3.43,4.77-5.21c1.19-1.36,2.12-3,3.63-4s3.92-.83,4.63.84a5.84,5.84,0,0,1,.16,2.58,11.31,11.31,0,0,0,4.7,9.68,85,85,0,0,1,28.09-9.66l-2.42-3.11a109.08,109.08,0,0,0-16.58,7.77,58.31,58.31,0,0,1-5.34-11.77,146.42,146.42,0,0,0,15.9-14.5l5.35-3a55.73,55.73,0,0,1,21.21,1,7,7,0,0,1-7.7,4.44c.26,2.36,2.67,4,5,4.06s4.5-1,6.47-2.29a45.29,45.29,0,0,0,13.86-13.78c-1.28,2.63,2,5.38,4.83,5.49s5.77-1.09,8.54-.36a6.76,6.76,0,0,1,4.81,5.55c4.74.23,7.45-7.37,3.68-10.33,19.14-10,42.13-4.82,62.95.54,4,1,9,3.8,7.74,7.79,4.25-.34,8.71-.75,12.24-3.2a15.51,15.51,0,0,1,3.8-2.43,9.17,9.17,0,0,1,3.18-.25,269.57,269.57,0,0,1,47.4,6.17c2.48.55,5,1.18,7.07,2.74s3.4,4.34,2.61,6.82c-.43,1.34-1.45,2.56-1.28,4,.26,2.15,3.11,3.11,3.58,5.22.31,1.44-.6,2.83-1.46,4l-8.68,11.88-10.29-14c2.88-.51,2.32-5.55-.4-6.65s-5.72.33-8.31,1.73l-12.21,6.62c3.5,2.41,7.08,4.91,9.48,8.47s3.38,8.46,1.31,12.23a8,8,0,0,0-1.31,2.86c-.3,2.82,3.32,4.15,4.93,6.47s1,5.6-.67,7.85-4.12,3.67-6.52,5c-.45-2.33-1-4.77-2.48-6.57s-4.4-2.62-6.18-1.1c-2.36,2-1.07,6,.78,8.46s4.24,5.28,3.51,8.33a9.09,9.09,0,0,1-2.54,3.89L516,223.24a55.75,55.75,0,0,1,5.06,7,3.58,3.58,0,0,1,.71,2,3.46,3.46,0,0,1-1.51,2.26c-2.5,2.06-5.58,3.74-8.76,3.34s-6.11-3.65-5.23-6.81a6.47,6.47,0,0,0-4.64,3.13,97.05,97.05,0,0,0-18.31-18.55c-3,2.32-6.08,4.69-8.23,7.86s-3.25,7.34-1.93,11c.92,2.51,2.93,4.66,3.09,7.33.21,3.52-3.69,6.57-6.95,5.45-2.56-.88-4-3.55-5.28-6l-9-17.77-1.53-7.15a300.15,300.15,0,0,0-40.21-15.83c1.92,3.07,3.89,6.21,6.7,8.44s6.67,3.44,10,2.15c2.16.19,3.2,3.12,2.39,5.19s-2.73,3.39-4.56,4.59l-8.65,5.69a5.12,5.12,0,0,1-2.64,1.09c-1.71,0-2.94-1.61-3.88-3.07l-9.33-14.47c-1.56-2.42-3.26-5-5.86-6.1s-6.3-.08-6.93,2.74c-.45,2,.73,4,1.87,5.63a235.68,235.68,0,0,0,17.07,22.08,3.4,3.4,0,0,0,2.14,1.43c1.51.09,2.36-1.73,3.61-2.59,2.53-1.74,6.09,1.2,6.24,4.32s-1.81,5.88-3.67,8.36l-15.36,20.42a8.17,8.17,0,0,0-2,4.27c-.1,2,1.18,3.68,2,5.47,2,4.5,1,9.95-1.4,14.24s-6.1,7.67-9.71,11c4,.43,5.91,5.89,4.4,9.74s-5.11,6.33-8.52,8.57l-17,11.22a3.32,3.32,0,0,1-2.26.79,3,3,0,0,1-1.54-1c-6-6.32-4.35-16.52-5-25.32a84.18,84.18,0,0,0-2.83-14.42l-7-27.07a10.59,10.59,0,0,1-.46-5c.5-2.11,2.24-3.73,2.71-5.84.91-4.07-3.52-7.65-7.6-7.61s-7.73,2.4-11.37,4.28a54.38,54.38,0,0,1-13,4.72,6.29,6.29,0,0,1-3.7,0,6.66,6.66,0,0,1-2.71-2.58,94.37,94.37,0,0,1-10-18.3c-1-2.36-1.87-4.87-1.64-7.43s1.66-5,3-7.27c8.78-14.35,18.63-29.63,34.12-35.51a9.09,9.09,0,0,1,4.47-.78,10.9,10.9,0,0,1,4.14,1.93,125.16,125.16,0,0,0,31,14.37l7.89-6.11" style="fill:#4892b5"/><path d="M391.68,190c-.53.36-2.12,1.74-2.57,1.56-.62-.25.58-.45-.29-1.45-.47-.54-1-2.11-1.44-2.71-2.89-3.9-7.89-7.06-11.63-10.11s-11.15-7.32-14-.62a.33.33,0,0,0,.11.43c.4.3,4,2.93,4.28,3.95,1,3.85-6.58,2.21-7.82,1.86-5.21-1.45-7.66-3.23-7.61-9.13,0-2.13,1.14-4.24-1.63-5.08a.31.31,0,0,0-.3.08,63.28,63.28,0,0,1-11.27,10.52c-3.32,2.39-12.46,9.3-16,5.08-2.13-2.52-.37-8,1.75-10.2,1.93-2,1.86-1.05,3.59-.83,3,.38,4.64.88,7.33-.92a.32.32,0,0,0,.11-.43c-2-2.92-4.9-5.46-3.14-9,.68-1.37,2.28-1.85,1.49-3.46-.88-1.81-3-1-4.46-1a6,6,0,0,0-.68.33q-3.24,2-6-3.28c0-1.48,2.62-3.7,3.63-4.69,1.86-1.83,6.41-9.6,9.4-2.29.68,1.66.28,3.74,1.15,5.54a12.28,12.28,0,0,0,3.64,4.36.33.33,0,0,0,.38,0,89.22,89.22,0,0,1,28-9.62c.26,0,.26-.36.14-.52l-2.42-3.11a.3.3,0,0,0-.3-.08c-2.88,1.09-5.73,2.26-8.52,3.57a46.1,46.1,0,0,1-4.92,2.46c-2.59.84-2.74,1-4.36-.93a17.65,17.65,0,0,1-2.64-5.82c-.57-2.6,0-3.2,1.62-5,2.55-2.81,5.95-5.13,8.69-7.78,3.12-3,6.09-6.32,10.44-7.44,3.26-.84,7.33-.58,10.65-.37,1.85.12,5.69-.22,7,.89q1.93-.07,1,2.37a6.64,6.64,0,0,1-6,2,.31.31,0,0,0-.3.39c2.9,10.85,17.15-1.48,20.79-5.39.46-.5,4.06-5.66,4.25-5.66-.57,0,.88,2.48.83,2.41,4.64,6.61,15-3.52,17.64,7.31a.31.31,0,0,0,.3.23,6.44,6.44,0,0,0,5.74-7.26c-.22-2.1-1.4-2.16-.38-3.87.74-1.24,6.19-2.43,7.74-2.86a54.47,54.47,0,0,1,8-1.56c9-1.07,18.09-.12,26.94,1.51,4.54.84,9,1.87,13.51,3,4.28,1.06,13.51,2.37,12.49,8.66,0,.18.08.41.3.39,3.19-.27,6.52-.51,9.52-1.72,3.9-1.58,5.09-3.86,9.71-4.16,8.6-.56,18.09,1.21,26.59,2.41,7.8,1.1,16.2,2,23.7,4.5,4.61,1.52,6.44,4.67,6,9.66-.16,1.69-.63.85-.68,2.13-.07,1.83.86,2.14,1.73,3.52,2.7,4.31-.31,7.15-2.9,10.69-1.08,1.47-2.33,4.14-3.8,5.2-2.37,1.71-3-.43-4.52-2.44s-6.6-6.83-6.21-9.2c.12-.74,1.2-1.4,1.3-2.51,1.05-11.83-20.8,2.63-23.28,4a.32.32,0,0,0,0,.54c5.48,3.8,11.56,8.31,11.75,15.66.09,3.36-3.63,6.63-1.81,9.9.82,1.48,2.76,2.09,3.61,3.48a7.85,7.85,0,0,1-1.26,9.87c-.6.57-3,2.89-3.87,2.76-1.76-.28-2.53-5.72-4.74-7-4.89-2.83-7.54,2.19-5.85,6.45.76,1.92,2.37,3.26,3.28,5.06,1.33,2.61.09,7.58-1.54,10a33.54,33.54,0,0,1-3.34,3.56L515.8,223a.32.32,0,0,0,0,.44c1.08,1.31,2.14,2.65,3.12,4,1.57,2.23,2.08,2.45.9,5.31-1,2.46-1.38,3.06-3.82,3.9-3.84,1.33-10-.23-9.4-5.67a.31.31,0,0,0-.39-.3c-1,.27-3.21,2-3.93,2.08-2.26.15-3.49-2.79-4.8-4.3a100.83,100.83,0,0,0-13.92-13.12.32.32,0,0,0-.38,0c-5.45,4.21-12.27,10-10.69,17.8a17.74,17.74,0,0,0,1.91,4.47,15.88,15.88,0,0,1,1.34,2.95l-8.44,5c-1.09-.47-2.15-2.93-2.68-3.92-2.95-5.45-5.7-11.05-8.45-16.61-1.24-2.51-1-5.89-2.27-8.23s-5.47-3.25-8-4.36a308.85,308.85,0,0,0-32.59-12.31.32.32,0,0,0-.35.46c2.72,4.33,5.79,9.16,11,10.78,1.24.39,2.66.1,3.81.43-3.1-.89.92,0,.83-.07l1.06,3.21q2.56,2.74.07,4c-1,1.23-3,2.14-4.25,3-1.73,1.14-3.85,3.13-5.77,3.79-7.89,2.72-13.93-13.28-17.79-18.3-2.15-2.79-5.65-5.59-9.34-3.67-3.42,1.78-2.52,5.3-.87,8,3.95,6.54,9,12.69,13.92,18.55,1.27,1.53,2.91,4.38,4.72,5.28s1.86,0,3.39-.53c2.69-.91-3.19-1.71,3.8-.25l3,.62-.4,6.34a16.94,16.94,0,0,1-2.59,3.94c-2.7,3.7-5.51,7.33-8.27,11-3.47,4.61-10.72,10.51-8.48,16.81,1,2.79,2.38,5,2.35,8.07a18.2,18.2,0,0,1-2.42,8.52c-2.4,4.27-6.09,7.63-9.66,10.91a.31.31,0,0,0,.14.52c4.87,1.1,5.6,6.94,3.55,10.66-1.47,2.66-4,4.52-6.46,6.22-5,3.5-10.16,6.7-15.22,10-3,2-5.87,3.41-8.21-.31a21.41,21.41,0,0,1-2.74-9.33c-.49-4.82-.14-9.68-.61-14.5-1.09-11.1-5-22.15-7.74-32.92-.78-3-2-6.25-2.29-9.37s1.11-5.1,2.14-7.84a5.9,5.9,0,0,0-1.18-6.42c-5.12-5.7-12.49-1.16-17.83,1.53-6.12,3.08-14.63,7.33-19.95.86-3.56-4.34-6.16-10.14-8.37-15.26-1.45-3.36-2.65-6.61-2-10.36.47-2.81,2.85-5.86,4.34-8.26,2.45-4,5-7.89,7.7-11.66,6.07-8.37,14.34-18,24.63-21.09,6.58-2,13.67,4.53,19.33,7.4a125.53,125.53,0,0,0,16.66,7c3,1,3,1.49,5.11,0s4.34-3.36,6.5-5c.32-.25-.13-.68-.44-.44-2.13,1.65-4.38,4.08-6.78,5.26-2,1-3.65-.11-5.92-.92a124.09,124.09,0,0,1-11.58-4.78q-4.89-2.31-9.58-5c-2.35-1.37-4.76-3.47-7.34-4.36-4-1.37-8.19,1-11.6,2.92-9.35,5.27-16.29,13.87-22.2,22.63-3.07,4.55-7,9.54-8.92,14.71-1.64,4.38-.21,8.27,1.56,12.37,2.56,5.92,5.68,12.16,9.75,17.2,2.35,2.91,4.65,2.63,8.06,1.77,6.1-1.55,11.15-4.69,16.87-7.12,4.25-1.8,11.48-2.56,13,3.55.81,3.33-2.06,5.28-2.68,8.12s.76,6.23,1.47,9l2.74,10.63c1.84,7.13,4,14.27,5.33,21.52,1.56,8.69-1.84,24.24,5.86,30.92,2.84,2.46,5.43-.56,8.06-2.29,5.62-3.7,11.74-7.1,17-11.35,2.79-2.28,5.33-5.17,5.38-9a8.52,8.52,0,0,0-.9-4c-.54-1-2.91-2.28-3.11-3-.36-1.2,4-4.49,4.87-5.46a29,29,0,0,0,4.28-6.05c2.4-4.72,2.32-8.81,1.05-13.75-.9-3.51-4.09-.57-.9-8.19.65-1.55,2.3-3.13,3.3-4.46l6.5-8.64c3.28-4.36,9.32-9.88,10.11-15.54.36-2.55-.68-5.45-3.28-6.44a3.63,3.63,0,0,0-2.34-.21c-1.94.5-.13.39-1.94,1.27-2.53,1.23-3.66.63-5.65-1-2.7-2.24-4.91-5.87-7.07-8.64q-3.7-4.74-7.14-9.67c-.74-1.05-2.08-2.37-2.43-3.61-3-10.78,6.28-6.66,8.73-4.12,2.67,2.77,4.55,6.67,6.64,9.9,1.91,3,4.68,10.29,8.65,11.12,1.39.29,2.27-.36,3.47-1a85.49,85.49,0,0,0,8.65-5.69c2.4-1.65,5.45-3.77,4.92-7.12-.61-3.92-3.08-2.73-5.86-2.7-3.05,0-5.82-1.59-8-3.6-.43-.4-5.12-5.46-4.67-6.05.83-1.09,8,2.16,9.51,2.71q12.37,4.38,24.33,9.84c1,.47,4.39,1.43,5,2.37a10.49,10.49,0,0,1,.63,2.92,32.87,32.87,0,0,0,.87,4.06c1.2,3.37,3.37,6.65,5,9.85,1.75,3.45,3.27,7.22,5.42,10.45,1.85,2.78,4.63,5,8,3.36s3.94-5,2.71-8.11c-1.57-4-3.81-6.9-2.36-11.61,1-3.38,6.39-11.6,11-10.56,2.48.56,6,5.2,7.78,7a103.1,103.1,0,0,1,9.11,10.46.32.32,0,0,0,.54,0c.13-.18,3.89-1.87,3.92-1.85s.46,1.75.58,2a6.53,6.53,0,0,0,2.34,2.65c2.29,1.49,5.05,1.26,7.49.28,1.79-.72,4.94-2.35,5.6-4.44,1-3-2.85-5.39-3.92-7.85-1.73-4,5.06-8.82,7.68-11.61,3.11-3.32,7.09-6.6,9.57-10.42a6.3,6.3,0,0,0,.25-6.76c-.91-1.86-2.47-3.31-3.47-5.11q-3.1-3.93,2.68-3.64,3.66-3.11,4.24.16a14.08,14.08,0,0,1,1.14,4.07.31.31,0,0,0,.46.19c3.86-2.21,8.82-5.39,8.24-10.58-.23-2-1.28-3.2-2.72-4.58-2.46-2.36-3-1.63-1.83-7.15.26-1.26.72-1.46,1-2.77,1-5.15-1.88-10-5.48-13.44-.79-.75-1.65-1.43-2.51-2.11-2.59-2-3.33-2-.42-4.15a47.88,47.88,0,0,1,5.23-2.84l3.49-1.89q4.7-3.34,8.46,4.35c-.17.07-.32.28-.19.46l10.29,14a.32.32,0,0,0,.54,0l7.06-9.66c1.28-1.75,3.56-4,3.13-6.4a4.68,4.68,0,0,0-.45-1.13c-1.16-2.29-1.33-.81-2-4.14-.48-2.47.67-4.14.24-6.52-.86-4.76-6-6.32-10-7.26-7.48-1.74-15.09-3-22.7-4-8.12-1.09-16.57-2.21-24.78-2.16-2.86,0-4.18.65-6.53,2.27-2.16,1.48-9.77,5.27-12.21,2.84-.46-.45-.73-2.58-1.3-3.28a11.78,11.78,0,0,0-5-3.14c-6.63-2.49-14.2-3.73-21.16-5-14.81-2.65-30.1-3-43.86,3.88a.31.31,0,0,0-.06.49,5.84,5.84,0,0,1,.9,6.91c-.78,1.21-2.76,2.76-4.36,1.84-.78-.44-1.4-2.56-2.35-3.29a7.28,7.28,0,0,0-4.1-1.45c-3-.21-13.34,3-11.43-4.5a.31.31,0,0,0-.57-.24c-4.22,6.31-10.5,13.58-18.2,15.16q-4,2.18-5.49-2.57h.08c.24-.21,2.19-.42,2.71-.66a8,8,0,0,0,3.81-4,.32.32,0,0,0-.19-.46c-6.93-1.57-16.84-3.52-23.33.08-7.34,4.07-12.84,11.23-19.43,16.48a.3.3,0,0,0-.08.3,66.5,66.5,0,0,0,5.38,11.85.32.32,0,0,0,.43.11c2.66-1.5,5.36-2.94,8.13-4.24,1.83-.86,3.85-2.28,5.81-2.51,1.16-.14,4.48-.45,3.09,1.81-.51.82-7.26,1.61-8.54,2a86,86,0,0,0-8.3,2.85q-2.89,1.16-5.69,2.54c-1.26.62-3.08,1.86-4.61,1.21s-2.77-3.93-3.12-5.2c-.63-2.31.71-6.44-2.25-7.57-2.17-.83-4.1.9-5.41,2.37-2.19,2.46-6.13,5.29-7,8.61-.5,1.92,0,4.54,2.09,5.26a3.41,3.41,0,0,0,2.21-.09c.57-.13,1.52-.89,2-.87l4,2.2-2.23,3a.3.3,0,0,0,0,.31c1,1.4,2.91,3.36,3.37,5,1.36,4.78-5,3.1-7.2,1.22a.32.32,0,0,0-.44,0c-2.66,3.26-8.3,12-1.93,15.13,2.14,1.06,4-.39,6-1.36a59.28,59.28,0,0,0,11.13-6.86,60,60,0,0,0,4.93-4.29c.51-.5,2.08-2.68,2.83-3q.81-1.51,1.67.56,1.69.72.83,2c.05,2.74-1.75,3.87.57,6.16,4,4,12.19,6.14,16.82,2.43a.32.32,0,0,0,0-.44c-.95-1.19-3.59-3-4.12-4.29-1-2.67,2.21-4,4.06-3.86,2.47.14,4.76,1.67,6.64,3.12,3.6,2.76,15.56,10.47,13.9,15.9a.32.32,0,0,0,.46.35l3.59-2.43c.33-.22,0-.76-.31-.54Z" style="fill:#4892b5"/><path d="M517.76,250.34c-1.57-.25-1.68-2.52-2.61-3.85s-2.52-1.62-4-1.89l-8.89-1.6q8.92,14.06,18.6,27.59" style="fill:#4892b5"/><path d="M517.92,250.08c-2.19-1-2-4-4.38-5.17-3.19-1.54-7.73-1.59-11.2-2.21-.25,0-.51.21-.35.46q8.94,14,18.6,27.59c.23.32.77,0,.54-.31q-8.05-11.29-15.61-22.92l-2-3.11q.43-1.65,2.21-.46a17.87,17.87,0,0,1,5.33,1c3.33,1.2,3.87,4.46,6.54,5.71.36.17.68-.37.31-.54Z" style="fill:#4892b5"/><path d="M523.48,267.86c.61-2.73-2.37-4.68-4.27-6.7a10.67,10.67,0,0,1-1.69-11.67" style="fill:#4892b5"/><path d="M523.8,267.86c.2-2.29-1.08-3.68-2.63-5.24-3.65-3.69-5.57-7.85-3.37-13,.16-.36-.38-.68-.54-.31a11.31,11.31,0,0,0-.25,8.85c1.38,3.44,6.5,5.79,6.17,9.68,0,.4.59.4.62,0Z" style="fill:#4892b5"/><path d="M528.71,254.35l16.05-17.05a1.75,1.75,0,0,1,.66-.51c1.25-.43,1.74,1.94,3,2.26-2.54,2.08-5.29,4.6-5.4,7.93-.05,1.72.63,3.37.78,5.09.28,3.36-1.52,6.48-3.25,9.34a2.26,2.26,0,0,1-1.18,1.15,2.18,2.18,0,0,1-1.3-.2l-6.84-2.55a6.48,6.48,0,0,1-2.58-1.45,2.33,2.33,0,0,1-.43-2.77" style="fill:#4892b5"/><path d="M528.93,254.57l12.71-13.5c.78-.82,6-5.05,5.9-2.2,0,1.17-2.66,3-3.34,4-1.79,2.69-1.16,4.61-1,7.55.18,2.57-.5,11.49-5.06,11.62-2.21.06-10.46-3.76-9.63-6.39.12-.38-.48-.55-.6-.17-.6,1.91.22,3,1.81,4s7.94,3.9,9.8,3.31c2.2-.7,3.75-5.42,4.24-7.41a14.1,14.1,0,0,0,.06-5.14c-.29-3.21-.45-5.41,1.66-8.07a22.37,22.37,0,0,1,3.16-2.95.31.31,0,0,0-.06-.49c-2.67-1.55-2.06-3.45-4.73-1-5.45,5-10.3,10.94-15.38,16.34-.28.29.17.73.44.44Z" style="fill:#4892b5"/><path d="M568.8,259a52.92,52.92,0,0,1,7.94,12.44,2.33,2.33,0,0,0,.82,1.13,2,2,0,0,0,1.81-.19c1.59-.81,3.08-2.17,4.84-2s3.15,2,4.67,3.11,4.33,1.22,4.68-.68a3.63,3.63,0,0,0-.68-2.36c-2-3.61-4.3-7.42-8-9.21a20,20,0,0,0-4.19-1.32l-11.59-2.74" style="fill:#4892b5"/><path d="M568.58,259.23a57.85,57.85,0,0,1,4.79,6.57c1,1.69,1.81,4.38,3.1,5.81,1.06,1.17.52,1.38,2.07,1.41,4.57.08-1.34-5.41,9-.26,1.33.66.82,1,2.09,1.51,1.11.43,2.88.64,3.74-.43,2.14-2.66-2.86-8.11-4.55-9.94-4.72-5.13-13.2-5.51-19.62-7-.39-.09-.56.51-.17.6,5.26,1.24,12.27,1.72,16.88,4.69,2.47,1.59,4.16,4.15,5.64,6.62q.54.9,1,1.81L588,272.32c-.44-.08-1.27-1.14-1.74-1.42-3.23-1.93-6.48,2.22-9.25.4-1.4-.92-2.94-5.62-4-7.2a60.68,60.68,0,0,0-4-5.31c-.26-.31-.7.13-.44.44Z" style="fill:#4892b5"/><path d="M567.39,257.64" style="fill:#4892b5"/><path d="M567.39,257.95a.31.31,0,0,0,0-.62.31.31,0,0,0,0,.62Z" style="fill:#4892b5"/><path d="M570.65,279.47c-1.22,4.84,2,10.39,6.71,11.62a70.1,70.1,0,0,0,2.17-11.76c2.28-.29,4.38,1.49,5.47,3.56s1.45,4.46,2.2,6.68c2.1,6.25,7.11,11,10.31,16.7a7.26,7.26,0,0,1,1.2,4.24,8.11,8.11,0,0,1-2,3.89L571.83,346a12.67,12.67,0,0,1-.14-10.59c-2.37,0-4.11-2.39-4.81-4.71s-.77-4.84-1.73-7.06c-2.34-5.35-9.11-7.1-14.77-6.25-2.16.32-4.42,1-5.8,2.74a8.45,8.45,0,0,1-1.65,2,4.58,4.58,0,0,1-2.13.57l-14,1.39a7.84,7.84,0,0,0,1.75-6.32A20.43,20.43,0,0,0,530,305.26c-.27-1.31-.66-2.7-.2-4,.53-1.46,2-2.25,3.41-2.9,5.48-2.62,11-5.2,16.26-8.21a117.35,117.35,0,0,0,16.73-11.55" style="fill:#4892b5"/><path d="M570.35,279.39a10.46,10.46,0,0,0,6.93,12,.32.32,0,0,0,.38-.22c.51-1.93,1-3.87,1.33-5.83.16-.85.14-3.74.66-4.27,4.14-4.21,6.94,8,7.81,10.08a40.09,40.09,0,0,0,4.65,7.74c.89,1.24,1.81,2.45,2.68,3.7,1.88,2.72,2.44,3.64,2.48,7.15,0,4-1.44,5.23-3.77,8.2l-4.14,5.26-7.1,9-7.1,9c-.79,1-1.94,3.6-3.62,3.21-1.88-.44,0-7.86.45-9a.31.31,0,0,0-.22-.38c-6.24-1.33-4.59-10-7.78-13.9a13,13,0,0,0-8.24-4.14c-3.45-.49-7.48-.17-10.41,1.88-2.37,1.67-3.12,3.24-6.3,3.58-2.63.28-7.1,1.59-9.63,1-2.08-.53-1.16-1-.6-3a75.87,75.87,0,0,0,1.61-8,32.14,32.14,0,0,0,.12-5.7c-.05-2.93-2.54-3.83,1.77-7.6a15.49,15.49,0,0,1,3.5-1.7c10.9-5.21,21.19-11,30.59-18.63.31-.25-.13-.69-.44-.44a122.39,122.39,0,0,1-17.46,11.95c-5.34,3-11.31,5.1-16.51,8.29-2.29,1.41-2.76,2.75-2.59,5.36.26,4,1,7.39-.32,11.42-.89,2.77-.88,6.1-2.57,8.47a.31.31,0,0,0,.27.47l10.51-1c1.79-.18,4.14-.08,5.79-1,.42-.22.64-.74,1-1,2.31-1.8,3.24-3.09,6.34-3.6A15.07,15.07,0,0,1,561.65,320c5,3.68,3.34,10.27,7.3,14.62,1.61,1.76,1.63.89,1.52,3.76a16.29,16.29,0,0,0,1.06,7.7c.08.19.36.34.52.14l17.75-22.56c2.38-3,4.92-6,7.15-9.09,1.33-1.87,2.33-3.22,2-5.6-.88-6.15-7.65-11.27-10.31-16.76-2.29-4.71-2.28-12.88-9.09-13.18a.32.32,0,0,0-.31.31c-.18,1.68-.26,8.67-1.73,10-1.77,1.63-4.22-1-5.09-2.31a10,10,0,0,1-1.45-7.5c.07-.39-.53-.56-.6-.17Z" style="fill:#4892b5"/></g><path d="M437.09,184.29c1.81,7.25,3.25,14.57,4.4,21.8,2.17,13.61,1.8,56-12.92,79-14.15,22.05-35.74,37.41-59.28,48.23-10.37,4.77-21.64,8.68-38.36,8.05-11-.42-22.15-1.32-32.61-4.76-21.68-7.14-41.64-20.69-57.05-37.81-13.39-14.88-22.53-32.38-25.55-52.46-2.95-19.59-1.57-39.71,2.48-59,4.21-20.1,11.52-39.9,22.39-57.23a125.66,125.66,0,0,1,10.85-14.85c-44.49,22.91-75,70.1-75,124.61,0,77,60.87,139.37,136,139.37s136-62.4,136-139.37A141.88,141.88,0,0,0,437.09,184.29Z" style="fill:#3497b5;opacity:0.28;mix-blend-mode:multiply"/><path d="M280.26,223.95H251.94l-9.07,8.63V199.51a8.81,8.81,0,0,1,8.81-8.81h28.58a8.81,8.81,0,0,1,8.81,8.81v15.63A8.81,8.81,0,0,1,280.26,223.95Z" style="fill:#fff;opacity:0.51"/><rect x="252.49" y="200.88" width="8.31" height="15.96" style="fill:#323a8a"/><rect x="262.8" y="203.79" width="8.31" height="13.04" style="fill:#d3296e"/><rect x="273.11" y="196.34" width="8.31" height="20.49" style="fill:#fff"/><circle cx="242.18" cy="241.78" r="3.16" style="fill:#fff;opacity:0.51"/><path d="M341.38,266.07H369.7l9.07,8.63V241.64a8.81,8.81,0,0,0-8.81-8.81H341.38a8.81,8.81,0,0,0-8.81,8.81v15.63A8.81,8.81,0,0,0,341.38,266.07Z" style="fill:#fff;opacity:0.51"/><circle cx="379.46" cy="283.9" r="3.16" style="fill:#fff;opacity:0.51"/><circle cx="357.13" cy="250.43" r="10.98" transform="translate(-60.24 123.7) rotate(-18.15)" style="fill:#003a69"/><path d="M367.56,247a11,11,0,1,1-20.86,6.84Z" style="fill:#71b0cd"/><path d="M367.59,247a11,11,0,0,0-13.85-7l3.43,10.48Z" style="fill:#e1f2fa"/><path d="M357.31,250.37l-4.15-12.67a13.23,13.23,0,0,0-7.71,6.62Z" style="fill:#d3296e"/><g style="mix-blend-mode:multiply"><g style="mix-blend-mode:multiply"><circle cx="66" cy="130.61" r="26.31" style="fill:#e1f2fa;opacity:0.46"/><circle cx="60.01" cy="133.93" r="26.31" style="fill:none;stroke:#71b0cd;stroke-linecap:round;stroke-miterlimit:10;stroke-width:0.33788599999999996px"/><circle cx="78.31" cy="122.84" r="18.82" transform="translate(-34.37 30.5) rotate(-18.15)" style="fill:#003a69"/><path d="M96.19,117A18.82,18.82,0,1,1,60.43,128.7Z" style="fill:#71b0cd"/><path d="M96.25,116.87a18.82,18.82,0,0,0-23.74-12l5.89,18Z" style="fill:#e1f2fa"/><path d="M78.62,122.74,71.5,101a22.68,22.68,0,0,0-13.21,11.34Z" style="fill:#d3296e"/></g><g style="mix-blend-mode:multiply"><circle cx="538.87" cy="196.45" r="26.31" style="fill:none;stroke:#71b0cd;stroke-linecap:round;stroke-miterlimit:10;stroke-width:0.33788599999999996px"/><circle cx="545.52" cy="194.45" r="26.31" style="fill:#e1f2fa;opacity:0.46"/><g style="opacity:0.88"><path d="M553.76,189.14a11.59,11.59,0,0,1,11.59-11.37V167.42a22,22,0,0,0-21.95,21.95C543.41,189.08,548.49,189.07,553.76,189.14Z" style="fill:#7cbfb1"/><path d="M576.95,189.37A11.59,11.59,0,0,1,565.35,201v10.35a22,22,0,0,0,21.95-21.95Z" style="fill:#7cbfb1"/><path d="M553.76,189.37c0-.08,0-.15,0-.23-5.27-.06-10.36-.05-10.36.23a22,22,0,0,0,21.95,21.95V201A11.59,11.59,0,0,1,553.76,189.37Z" style="fill:#323a8a"/><path d="M576.95,189.37H587.3a22,22,0,0,0-21.95-21.95v10.35A11.59,11.59,0,0,1,576.95,189.37Z" style="fill:#323a8a"/><path d="M565.35,182.57a6.8,6.8,0,0,0-6.79,6.67c3.33,0,6.79.13,6.79.13Z" style="fill:#656fd6"/><path d="M565.35,196.16a6.8,6.8,0,0,0,6.8-6.8h-6.8Z" style="fill:#656fd6"/><path d="M558.56,189.23s0,.09,0,.13a6.8,6.8,0,0,0,6.8,6.8v-6.8S561.89,189.27,558.56,189.23Z" style="fill:#656fd6"/><path d="M565.35,182.57v6.8h6.8A6.8,6.8,0,0,0,565.35,182.57Z" style="fill:#656fd6"/></g></g><g style="mix-blend-mode:multiply"><circle cx="525.57" cy="113.98" r="26.31" style="fill:#e1f2fa;opacity:0.46"/><rect x="492.43" y="123.01" width="10.11" height="17.76" style="fill:#71b0cd"/><rect x="505.74" y="113.1" width="10.11" height="27.67" style="fill:#d3296e"/><rect x="519.04" y="100.13" width="10.11" height="40.64" style="fill:#003a69"/><polyline points="488.71 120.37 488.71 142.9 535.37 142.9" style="fill:none;stroke:#71b0cd;stroke-linecap:round;stroke-miterlimit:10;stroke-width:0.40010599999999996px"/></g><g style="mix-blend-mode:multiply"><circle cx="63.34" cy="235.02" r="26.31" style="fill:#e1f2fa;opacity:0.46"/><rect x="37.6" y="221.88" width="8.54" height="15" style="fill:#7cbfb1"/><rect x="48.84" y="213.5" width="8.54" height="23.37" style="fill:#d3296e"/><rect x="60.07" y="202.56" width="8.54" height="34.32" style="fill:#656fd6"/><polyline points="34.46 219.65 34.46 238.67 73.86 238.67" style="fill:none;stroke:#71b0cd;stroke-linecap:round;stroke-miterlimit:10;stroke-width:0.33788599999999996px"/></g><g style="mix-blend-mode:multiply"><circle cx="149.13" cy="310.18" r="26.31" style="fill:#e1f2fa;opacity:0.46"/><g style="opacity:0.55;mix-blend-mode:multiply"><path d="M140.6,308.36l-1.45,1.76a1.23,1.23,0,0,0,.09,1.65,17.9,17.9,0,0,0,4.77,3.41,1.23,1.23,0,0,0,1.59-.45l1.21-2a1.2,1.2,0,0,1,1.35-.53,14,14,0,0,0,2.7.49,1.2,1.2,0,0,1,1,.84l.8,2.51a1.23,1.23,0,0,0,1.31.84,18.25,18.25,0,0,0,5.8-1.65,1.23,1.23,0,0,0,.65-1.47l-.73-2.32a1.2,1.2,0,0,1,.43-1.34,13.76,13.76,0,0,0,1.09-.87q.49-.44.94-.92a1.2,1.2,0,0,1,1.34-.28l2.35,1a1.23,1.23,0,0,0,1.5-.49,18.25,18.25,0,0,0,2.31-5.56,1.23,1.23,0,0,0-.73-1.42l-2.31-.93a1.21,1.21,0,0,1-.76-1.17,14,14,0,0,0-.18-2.91,1.21,1.21,0,0,1,.7-1.31l2.06-.92a1.23,1.23,0,0,0,.65-1.53,17.92,17.92,0,0,0-2.91-5.22,1.23,1.23,0,0,0-1.49-.36l-2.48,1.18a1.2,1.2,0,0,1-1.28-.15,13.77,13.77,0,0,0-2.18-1.5,1.21,1.21,0,0,1-.58-1.34l.54-2.23a1.22,1.22,0,0,0-.79-1.44,18.34,18.34,0,0,0-5.88-1,1.23,1.23,0,0,0-1.21,1l-.49,2.55a1.2,1.2,0,0,1-.94,1,13.83,13.83,0,0,0-2.59.76,1.2,1.2,0,0,1-1.38-.36l-1.52-1.84a1.22,1.22,0,0,0-1.6-.25,18.27,18.27,0,0,0-4.42,3.94,1.23,1.23,0,0,0,.07,1.63l1.66,1.69a1.21,1.21,0,0,1,.2,1.42A13.83,13.83,0,0,0,138.7,295a1.21,1.21,0,0,1-1.16.87h-2.36a1.23,1.23,0,0,0-1.21,1.1,18.34,18.34,0,0,0,.33,5.91,1.23,1.23,0,0,0,1.31,1l2.37-.23a1.21,1.21,0,0,1,1.23.73,13.78,13.78,0,0,0,1.43,2.59A1.21,1.21,0,0,1,140.6,308.36Zm2.15-10.2c2.39-11.64,17.55-10.75,18.56,1.09a1.37,1.37,0,0,1,0,.39c-2.39,11.63-17.54,10.74-18.56-1.09A1.36,1.36,0,0,1,142.75,298.16Z" style="fill:none;stroke:#4892b5;stroke-miterlimit:10"/><path d="M166.58,331.93l-1.17,1.42a1,1,0,0,0,.07,1.33,14.43,14.43,0,0,0,3.85,2.75,1,1,0,0,0,1.28-.36l1-1.58a1,1,0,0,1,1.09-.43,11.26,11.26,0,0,0,2.17.4,1,1,0,0,1,.83.68l.64,2a1,1,0,0,0,1.05.68,14.7,14.7,0,0,0,4.67-1.33,1,1,0,0,0,.52-1.19l-.59-1.87a1,1,0,0,1,.35-1.08,11.09,11.09,0,0,0,.88-.7q.4-.35.76-.74a1,1,0,0,1,1.08-.23l1.89.78a1,1,0,0,0,1.21-.39,14.7,14.7,0,0,0,1.86-4.48,1,1,0,0,0-.59-1.14l-1.86-.75a1,1,0,0,1-.61-.94,11.24,11.24,0,0,0-.14-2.34,1,1,0,0,1,.56-1.05l1.66-.74a1,1,0,0,0,.52-1.24,14.44,14.44,0,0,0-2.34-4.21,1,1,0,0,0-1.2-.29l-2,.95a1,1,0,0,1-1-.12,11.09,11.09,0,0,0-1.75-1.21,1,1,0,0,1-.47-1.08l.43-1.8a1,1,0,0,0-.64-1.16,14.78,14.78,0,0,0-4.74-.8,1,1,0,0,0-1,.8l-.39,2.05a1,1,0,0,1-.76.77,11.14,11.14,0,0,0-2.09.61,1,1,0,0,1-1.11-.29l-1.23-1.49A1,1,0,0,0,168,312a14.74,14.74,0,0,0-3.57,3.18,1,1,0,0,0,.06,1.31l1.33,1.37a1,1,0,0,1,.16,1.14,11.16,11.16,0,0,0-.9,2.18,1,1,0,0,1-.93.7h-1.9a1,1,0,0,0-1,.88,14.78,14.78,0,0,0,.26,4.76,1,1,0,0,0,1.06.77l1.91-.19a1,1,0,0,1,1,.59,11.09,11.09,0,0,0,1.16,2.08A1,1,0,0,1,166.58,331.93Zm1.73-8.22c1.92-9.38,14.14-8.66,15,.88a1.1,1.1,0,0,1,0,.31c-1.93,9.37-14.14,8.66-15-.88A1.1,1.1,0,0,1,168.31,323.71Z" style="fill:none;stroke:#e1f2fa;stroke-miterlimit:10"/><path d="M141.38,335.13l-.81,1a.69.69,0,0,0,0,.93,10,10,0,0,0,2.67,1.91.69.69,0,0,0,.89-.25l.68-1.1a.67.67,0,0,1,.76-.3,7.83,7.83,0,0,0,1.51.28.67.67,0,0,1,.58.47l.45,1.41a.69.69,0,0,0,.73.47,10.22,10.22,0,0,0,3.25-.92.69.69,0,0,0,.36-.82l-.41-1.3a.67.67,0,0,1,.24-.75,7.71,7.71,0,0,0,.61-.49q.28-.25.53-.51a.67.67,0,0,1,.75-.16l1.31.54a.69.69,0,0,0,.84-.27,10.22,10.22,0,0,0,1.3-3.11.69.69,0,0,0-.41-.79l-1.29-.52a.68.68,0,0,1-.43-.65,7.83,7.83,0,0,0-.1-1.63.68.68,0,0,1,.39-.73l1.15-.52a.69.69,0,0,0,.36-.86,10,10,0,0,0-1.63-2.93.69.69,0,0,0-.84-.2l-1.39.66a.67.67,0,0,1-.72-.08,7.71,7.71,0,0,0-1.22-.84.68.68,0,0,1-.33-.75l.3-1.25a.69.69,0,0,0-.44-.81,10.27,10.27,0,0,0-3.3-.55.69.69,0,0,0-.68.56l-.27,1.43a.67.67,0,0,1-.53.54,7.74,7.74,0,0,0-1.45.43.67.67,0,0,1-.77-.2l-.85-1a.69.69,0,0,0-.9-.14,10.24,10.24,0,0,0-2.48,2.21.69.69,0,0,0,0,.91l.93.95a.68.68,0,0,1,.11.8,7.75,7.75,0,0,0-.63,1.52.68.68,0,0,1-.65.49h-1.32a.69.69,0,0,0-.68.61,10.27,10.27,0,0,0,.18,3.31.69.69,0,0,0,.74.54l1.33-.13a.68.68,0,0,1,.69.41,7.7,7.7,0,0,0,.8,1.45A.68.68,0,0,1,141.38,335.13Zm1.2-5.71c1.34-6.52,9.83-6,10.39.61a.76.76,0,0,1,0,.22c-1.34,6.52-9.83,6-10.39-.61A.76.76,0,0,1,142.58,329.42Z" style="fill:none;stroke:#71b0cd;stroke-miterlimit:10"/></g></g><g style="mix-blend-mode:multiply"><circle cx="541.53" cy="298.87" r="26.31" style="fill:#e1f2fa;opacity:0.46"/><g style="mix-blend-mode:multiply"><path d="M512.38,294.39l-1.45,1.76a1.23,1.23,0,0,0,.09,1.65,17.9,17.9,0,0,0,4.77,3.41,1.23,1.23,0,0,0,1.59-.45l1.21-2a1.21,1.21,0,0,1,1.35-.53,14,14,0,0,0,2.7.49,1.2,1.2,0,0,1,1,.84l.8,2.51a1.23,1.23,0,0,0,1.31.84,18.24,18.24,0,0,0,5.8-1.65,1.23,1.23,0,0,0,.65-1.47l-.73-2.32a1.2,1.2,0,0,1,.43-1.34,13.76,13.76,0,0,0,1.09-.87q.49-.44.94-.92a1.2,1.2,0,0,1,1.34-.28l2.35,1a1.23,1.23,0,0,0,1.5-.49,18.25,18.25,0,0,0,2.31-5.56,1.23,1.23,0,0,0-.73-1.42l-2.31-.93a1.21,1.21,0,0,1-.76-1.17,14,14,0,0,0-.18-2.91,1.21,1.21,0,0,1,.7-1.31l2.06-.92a1.23,1.23,0,0,0,.65-1.53,17.92,17.92,0,0,0-2.91-5.22,1.23,1.23,0,0,0-1.49-.36L534,274.45a1.2,1.2,0,0,1-1.28-.15,13.78,13.78,0,0,0-2.18-1.5,1.21,1.21,0,0,1-.58-1.34l.54-2.23a1.22,1.22,0,0,0-.79-1.44,18.34,18.34,0,0,0-5.88-1,1.23,1.23,0,0,0-1.21,1l-.49,2.55a1.2,1.2,0,0,1-.94,1,13.83,13.83,0,0,0-2.59.76,1.2,1.2,0,0,1-1.38-.36l-1.52-1.84a1.22,1.22,0,0,0-1.6-.25,18.28,18.28,0,0,0-4.42,3.94,1.23,1.23,0,0,0,.07,1.63l1.66,1.69a1.21,1.21,0,0,1,.2,1.42,13.84,13.84,0,0,0-1.12,2.71,1.21,1.21,0,0,1-1.16.87H507a1.23,1.23,0,0,0-1.21,1.1,18.34,18.34,0,0,0,.33,5.91,1.23,1.23,0,0,0,1.31,1l2.37-.23a1.21,1.21,0,0,1,1.23.73,13.77,13.77,0,0,0,1.43,2.59A1.21,1.21,0,0,1,512.38,294.39Zm2.15-10.2c2.39-11.64,17.55-10.75,18.56,1.09a1.37,1.37,0,0,1,0,.39c-2.39,11.63-17.54,10.74-18.56-1.09A1.37,1.37,0,0,1,514.53,284.19Z" style="fill:#4892b5;stroke:#4892b5;stroke-miterlimit:10;stroke-width:0.20791px"/><path d="M538.36,318l-1.17,1.42a1,1,0,0,0,.07,1.33,14.43,14.43,0,0,0,3.85,2.75,1,1,0,0,0,1.28-.36l1-1.58a1,1,0,0,1,1.09-.43,11.28,11.28,0,0,0,2.17.4,1,1,0,0,1,.83.68l.64,2a1,1,0,0,0,1.05.68,14.7,14.7,0,0,0,4.67-1.33,1,1,0,0,0,.52-1.19l-.59-1.87a1,1,0,0,1,.35-1.08,11,11,0,0,0,.88-.7q.4-.35.76-.74a1,1,0,0,1,1.08-.23l1.89.78a1,1,0,0,0,1.21-.39,14.7,14.7,0,0,0,1.86-4.48,1,1,0,0,0-.59-1.14l-1.86-.75a1,1,0,0,1-.61-.94,11.24,11.24,0,0,0-.14-2.34,1,1,0,0,1,.56-1.05l1.66-.74a1,1,0,0,0,.52-1.24,14.44,14.44,0,0,0-2.34-4.21,1,1,0,0,0-1.2-.29l-2,.95a1,1,0,0,1-1-.12,11.1,11.1,0,0,0-1.75-1.21,1,1,0,0,1-.47-1.08l.43-1.8a1,1,0,0,0-.64-1.16,14.78,14.78,0,0,0-4.74-.8,1,1,0,0,0-1,.8l-.39,2.05a1,1,0,0,1-.76.77,11.14,11.14,0,0,0-2.09.61,1,1,0,0,1-1.11-.29L541,298.19a1,1,0,0,0-1.29-.2,14.74,14.74,0,0,0-3.57,3.18,1,1,0,0,0,.06,1.31l1.33,1.37a1,1,0,0,1,.16,1.14,11.15,11.15,0,0,0-.9,2.18,1,1,0,0,1-.93.7H534a1,1,0,0,0-1,.88,14.78,14.78,0,0,0,.26,4.76,1,1,0,0,0,1.06.77l1.91-.19a1,1,0,0,1,1,.59,11.09,11.09,0,0,0,1.16,2.08A1,1,0,0,1,538.36,318Zm1.73-8.22c1.92-9.38,14.14-8.66,15,.88a1.1,1.1,0,0,1,0,.31c-1.93,9.37-14.14,8.66-15-.88A1.1,1.1,0,0,1,540.09,309.75Z" style="fill:#e1f2fa"/><path d="M513.16,321.17l-.81,1a.69.69,0,0,0,0,.93,10,10,0,0,0,2.67,1.91.69.69,0,0,0,.89-.25l.68-1.1a.67.67,0,0,1,.76-.3,7.84,7.84,0,0,0,1.51.28.67.67,0,0,1,.58.47l.45,1.41a.69.69,0,0,0,.73.47,10.22,10.22,0,0,0,3.25-.92.69.69,0,0,0,.36-.82l-.41-1.3a.67.67,0,0,1,.24-.75,7.7,7.7,0,0,0,.61-.49q.28-.25.53-.51A.67.67,0,0,1,526,321l1.31.54a.69.69,0,0,0,.84-.27,10.22,10.22,0,0,0,1.3-3.11.69.69,0,0,0-.41-.79l-1.29-.52a.68.68,0,0,1-.43-.65,7.83,7.83,0,0,0-.1-1.63.68.68,0,0,1,.39-.73l1.15-.52a.69.69,0,0,0,.36-.86,10,10,0,0,0-1.63-2.93.69.69,0,0,0-.84-.2l-1.39.66a.67.67,0,0,1-.72-.08,7.71,7.71,0,0,0-1.22-.84.68.68,0,0,1-.33-.75l.3-1.25a.69.69,0,0,0-.44-.81,10.27,10.27,0,0,0-3.3-.55.69.69,0,0,0-.68.56l-.27,1.43a.67.67,0,0,1-.53.54,7.74,7.74,0,0,0-1.45.43.67.67,0,0,1-.77-.2l-.85-1a.69.69,0,0,0-.9-.14,10.25,10.25,0,0,0-2.48,2.21.69.69,0,0,0,0,.91l.93.95a.68.68,0,0,1,.11.8,7.75,7.75,0,0,0-.63,1.52.68.68,0,0,1-.65.49h-1.32a.69.69,0,0,0-.68.61,10.27,10.27,0,0,0,.18,3.31.69.69,0,0,0,.74.54l1.33-.13a.68.68,0,0,1,.69.41,7.71,7.71,0,0,0,.8,1.45A.68.68,0,0,1,513.16,321.17Zm1.2-5.71c1.34-6.52,9.83-6,10.39.61a.76.76,0,0,1,0,.22c-1.34,6.52-9.83,6-10.39-.61A.76.76,0,0,1,514.36,315.46Z" style="fill:#71b0cd"/></g></g></g><rect x="409.2" y="319.01" width="73.8" height="5.33" style="fill:#2e4166"/><polyline points="440.98 383.46 410.23 324.54 482.79 324.54 513.14 383.46" style="fill:none;stroke:#2e4166;stroke-miterlimit:10;stroke-width:0.616445px"/><line x1="421.3" y1="345.04" x2="493.45" y2="345.04" style="fill:none;stroke:#2e4166;stroke-miterlimit:10;stroke-width:0.616445px"/><line x1="434.01" y1="369.64" x2="506.16" y2="369.64" style="fill:none;stroke:#2e4166;stroke-miterlimit:10;stroke-width:0.616445px"/><line x1="389.11" y1="383.46" x2="410.23" y2="324.54" style="fill:none;stroke:#2e4166;stroke-miterlimit:10;stroke-width:0.616445px"/><line x1="464.26" y1="383.13" x2="482.59" y2="324.54" style="fill:none;stroke:#2e4166;stroke-miterlimit:10;stroke-width:0.616445px"/><path d="M445.4,127" style="fill:#020f2b"/><path d="M426,132.72l2.39-26.61c-.5-1.59,1.38-7.3,2.66-8.37,3.5-2.95,7.35-3.27,11.93-3.16,0,0,8.28.42,10.65,7.47s2,14,5.46,15.87c4.41,2.41,11.14,12.46,11.14,17.46" style="fill:#020f2b"/><path d="M444.24,108.91a.39.39,0,0,0,.45.33c.91-.17,2.71-.65,3.39,1.68a2.43,2.43,0,0,1-1.33,2.85,4.45,4.45,0,0,1-2.46.34c-.66,1-1.38,9.25-.86,10,3.19,4.7,4.15,4.81,4.15,4.81S428.95,151,431.9,132.71c0,0,.46-14.36.36-14.36-1.35,0-5.69-.6-4.64-10.25,1-8.94,7.3-9.46,8.93-9.46C437.93,98.64,442.62,98.09,444.24,108.91Z" style="fill:#f38697"/><path d="M431,99s4.37,10.59,13.56,11.57C444.52,110.59,447.71,87.68,431,99Z" style="fill:#020f2b"/><path d="M444.38,111.63c1.78-3.45,2.84-.51,2.84-.51Z" style="fill:#d65a6f"/><circle cx="436.05" cy="112.07" r="2.16" transform="matrix(0.99, -0.16, 0.16, 0.99, -12.13, 69.23)" style="fill:#f3687e"/><path d="M427.83,113.66a2.16,2.16,0,0,0,1.38-2.36c-.13-.8-1-1.34-1.68-1.61A9.21,9.21,0,0,0,427.83,113.66Z" style="fill:#f3687e"/><path d="M429.5,112.27l3.68.19s-1,1.72-2.07,1.48S429.5,112.27,429.5,112.27Z" style="fill:#fff"/><path d="M431.51,108.61v2.82l-1.25-.09a.3.3,0,0,1-.23-.47Z" style="fill:#de647e"/><path d="M434.89,106.79c.4.28-.22-1-.77-1.12a1,1,0,0,0-1.22.6A3,3,0,0,1,434.89,106.79Z"/><path d="M428.25,106.65c-.4.28.21-1,.76-1.13a1,1,0,0,1,1.23.59A3,3,0,0,0,428.25,106.65Z"/><ellipse cx="433.31" cy="109.04" rx="0.77" ry="0.37" transform="translate(306.31 537.43) rotate(-87.61)"/><ellipse cx="429.96" cy="108.7" rx="0.74" ry="0.36" transform="translate(303.45 533.76) rotate(-87.61)"/><path d="M435,300.3l-1.74,15s-4.09,4.5-6.23,1.88c-1.07-1.31-4.48-2.79-5-3.57,1.17-.65,4-2.53,4-2.53L425.3,300Z" style="fill:#f38697"/><path d="M429.35,300.68l.16,3.15s3.7,12.13,4,10.7l1.18-13.11Z" style="fill:#b85369"/><path d="M426.06,310.83l-10.25,6.68c-.44.32-.28,1.64.35,1.65l15.8-.06.89-2.6,1.33,2.65a9.2,9.2,0,0,0,1.16-.15c.06-.28-.34-6.29-1.41-8-.12-.19-3.14,1.42-5,1.94C428,312.57,426.35,310.62,426.06,310.83Z" style="fill:#d3296e"/><path d="M474.94,300.52l3.6,13.42s-4.28,5.86-6.42,3.24c-1.07-1.31-4.48-2.79-5-3.57,1.17-.65,4-2.53,4-2.53l-4-10.77Z" style="fill:#f38697"/><path d="M471.93,300.33l.19,1.17s6.23,14.46,6.55,13l-2.27-14.2Z" style="fill:#b85369"/><path d="M471,310.83l-10.25,6.68c-.44.32-.28,1.64.35,1.65l15.8-.06.89-2.6,1.33,2.65a9.19,9.19,0,0,0,1.16-.15c.06-.28-1-6.51-2.05-8.26-.12-.19-2.51,1.64-4.32,2.16C472.88,312.57,471.25,310.62,471,310.83Z" style="fill:#d3296e"/><path d="M452.31,165.47a74.77,74.77,0,0,1,8.24,20.8c2.61,10.21,22.08,96.57,23.31,115.14-3.22.78-18.65.66-20.69.55-3.89-18.36-20-78.73-22.75-90.4-.43-1.79-3.2-1.4-3,.43,1.57,13.33,5.89,72.78,7.45,93-1.69.86-18.78.67-20.73.42-2.12-22.87-13.93-112.45,3-140.51C435,163.83,444.44,165.23,452.31,165.47Z" style="fill:#003a69"/><path d="M428.12,165.64a145.84,145.84,0,0,0-6.83,43.57c0,24.15,7.92,85.35,7.92,85.35" style="fill:none;stroke:#fff;stroke-miterlimit:10;stroke-width:0.302656px"/><line x1="476.1" y1="294.56" x2="448.48" y2="167.16" style="fill:none;stroke:#fff;stroke-miterlimit:10;stroke-width:0.302656px"/><path d="M443.64,167.83s-.4,22.61,9.53,20.87" style="fill:none;stroke:#fff;stroke-miterlimit:10;stroke-width:0.302656px"/><path d="M426,167.53l36.25,25.38s-3-14.06-8.65-24.72Z" style="opacity:0.21;mix-blend-mode:multiply"/><path d="M423,189.23c9.93,1.74,8.53-22.48,8.53-22.48" style="fill:none;stroke:#fff;stroke-miterlimit:10;stroke-width:0.302656px"/><path d="M442.17,127.69s2-.59,1.69-.15a8.45,8.45,0,0,1-1.77,1.39Z" style="fill:#e20000"/><line x1="444.11" y1="294.69" x2="422.64" y2="294.7" style="fill:none;stroke:#fff;stroke-miterlimit:10;stroke-width:0.302656px"/><line x1="482.73" y1="294.45" x2="462.01" y2="294.49" style="fill:none;stroke:#fff;stroke-miterlimit:10;stroke-width:0.302656px"/><path d="M433.48,131.09c-.92-.81-29.7,1.16-29.7,1.16l-18.12-20.74a27.42,27.42,0,0,0-.4-4.53,8.33,8.33,0,0,1,.34-3.64.35.35,0,0,0-.42-.44,1.61,1.61,0,0,0-1.21,1.27c-.21.91-.85,2.19-1,2.91a.22.22,0,0,1-.35.15c-.71-.4-1-.89-1.87-1.84a14.4,14.4,0,0,1-1.84-2.83c-.75-1.55-1.77-3.7-2.31-3.05-.38.46.9,3.63,1.14,4.08a14.88,14.88,0,0,1,1,2.85c0,.3-1.84-2.05-2.6-3.46s-1.44-2.88-1.95-2.9,0,1.38,0,1.38-.85-.9-1.14-.62.49,2.42,1,3.9c-1.21-1.14-1.31-.42-1.31-.42s1.62,3.55,2.5,4.29A9.64,9.64,0,0,1,377,111a21.43,21.43,0,0,0,4.83,5c1.78,3.24,15.88,29.65,18.8,29.37C426.48,142.88,440.53,137.28,433.48,131.09Z" style="fill:#f38697"/><path d="M433.48,131.09c-1.14-1.7-29.7,1.16-29.7,1.16l-16-18.28c-1.19,1.14-2.33,2.34-3.57,3.42-.37.32-1.69,1.32-2.08,1.63,4,7.33,15.92,26.11,18.46,26.33C442.66,148.92,438.72,138.87,433.48,131.09Z" style="fill:#323a8a"/><path d="M374.1,104.64a10.89,10.89,0,0,0,1.37,1.57l.81.68a6.59,6.59,0,0,1,.76.8l-.4-.06a12.25,12.25,0,0,1,2.16-1.07,12.25,12.25,0,0,1-1.83,1.58l-.22.16-.18-.22c-.44-.53-1-.93-1.48-1.49A4.5,4.5,0,0,1,374.1,104.64Z" style="fill:#c45366"/><path d="M383.06,107.69c0,.66,0,1.24,0,1.84s-.1,1.16-.14,1.82a2.61,2.61,0,0,1-.49-1.86A3,3,0,0,1,383.06,107.69Z" style="fill:#c45366"/><path d="M374.29,101.66a18.47,18.47,0,0,0,1.61,2.58,11.67,11.67,0,0,1,1.57,2.68,15.71,15.71,0,0,1-2.09-2.31A5.15,5.15,0,0,1,374.29,101.66Z" style="fill:#c45366"/><path d="M431.95,127.27c.23.55-9.16,18.51-8.89,23.88s2.74,16.49,2.74,16.49,24.39,1,28,.89c1.75-16,3.56-33.44-.72-36,0,0-7.68-7-9.64-7.15l-6.73,4.82c-2.59,2.33-4.62.71-4.79-2.77Z" style="fill:#323a8a"/><path d="M453.14,132.57c-1.33,3.39-2.5,6.86-4.11,10.13a86.87,86.87,0,0,1-7.81,12.79c-3.1,4.26-6.44,8.32-9.8,12.38,7.43.29,19.88.74,22.41.66C455.59,152.6,457.39,135.14,453.14,132.57Z" style="opacity:0.21;mix-blend-mode:multiply"/><path d="M434.6,131.28s-2.5,7.7,2.91,5.41,9.79-9.29,9.79-9.29l-4-4.49S438.14,130.86,434.6,131.28Z" style="fill:#656fd6"/><path d="M434.6,131.28s-3.12,6-4.58,5-.68-7.88-.68-7.88l2.74-3.08S432.73,131.07,434.6,131.28Z" style="fill:#656fd6"/><path d="M452.79,102c1,5,2.57,11.21,6.68,14.63,3.11,2.59,6.42,4.46,8.65,8A34.25,34.25,0,0,1,472,135.11c.06.27.49.16.42-.12-1.39-6-3.56-11.42-8.36-15.48-2.6-2.2-5.38-3.72-7.18-6.75a34.35,34.35,0,0,1-3.7-10.91c-.05-.28-.48-.16-.42.12Z"/><polygon points="432.04 118.61 435.64 118.52 432.34 124.25 432.04 118.61" style="fill:#d65a6f"/><path d="M467.07,157.6c7.37-2.6,15.33-2.36,20.32-3.62a47.35,47.35,0,0,1,6-3.69s3-2,2.76-.64c-.05.28-3.25,3.53-2.94,3.51s8.7-.94,8.8-.15-5.23.82-5.18,1.21,5.4-.3,5.68.35-5.18,1.21-4.95,1.46,5.16-.54,5.33,0-5.18,1.21-5.25,1.48,4.86-.52,5.33,0-4.37,1.07-5.73,1.65a56.89,56.89,0,0,1-8.78,2.91c-2,1.28-22.78,9.86-31.79,8.05,0,0-1.52-2.22-2.22-8Z" style="fill:#f38697"/><path d="M484.71,153.67c-5.35,1-11.82.75-17.67,2.69-1.59-5.58-8.27-27.15-16.21-25.18-9.12,2.25,5.28,39.79,5.28,39.79,7.74,1.55,24.69-5.45,30.45-8C485.9,160.12,485.62,156.43,484.71,153.67Z" style="fill:#323a8a"/><path d="M367.61,109.71c-4.6-2-11.35-4.87-14.85-6.4v0L348.64,99l-4.4,10.17,6.38-.13,0-.08c4,1.73,11,4.75,14.6,6.29Z" style="fill:#656fd6"/><polygon points="383.79 110 366.7 119.4 358.5 97.59 369.58 91.51 383.79 110" style="fill:#656fd6"/><path d="M371,94l2.2-1.21a4.58,4.58,0,0,1,6.23,1.81l3.06,5.56a4.59,4.59,0,0,1-1.81,6.23l-1.62.89" style="fill:none;stroke:#656fd6;stroke-miterlimit:10;stroke-width:2px"/></g></g></g></svg>