<svg xmlns="http://www.w3.org/2000/svg" viewBox="0 0 2584.75 1124.19"><title>culture</title><g id="1dea99de-e4c4-4e7d-83b8-e3e2e330e128" data-name="Layer 2"><g id="8076494a-8ac3-4a6b-86a2-2c501112d16a" data-name="Слой 1"><path d="M2584.75,1106.46H3.06S.84,1085.15.18,1050.72c-.37-20.05-.24-44.57,1.2-71.91.12-2.23.25-4.49.38-6.77.75-12.53,1.77-25.63,3.14-39.12.12-1.19.25-2.4.38-3.6,1.49-14.11,3.35-28.76,5.66-43.83,1.88-12.24,4.05-24.76,6.6-37.47.17-.89.35-1.79.54-2.69q2-9.71,4.22-19.56.88-3.86,1.8-7.74,1.81-7.57,3.79-15.2,4.82-18.68,10.77-37.58c.4-1.27.81-2.57,1.21-3.87q2.71-8.4,5.66-16.85,4.5-12.83,9.58-25.67c2.11-5.36,4.33-10.71,6.61-16.06,21.65-50.63,50.65-100.21,89.37-144.58,88.7-101.66,228.41-176.11,447.64-173.93,44.07.43,85-.72,123.25-3.25H722q17.44-1.15,34.12-2.69h.11c253.23-23.29,380.11-110.12,495.47-194.81l12.39-9.11c40.35-29.72,79.78-58.87,123.29-84.61q16.7-9.89,34.31-19.06C1493.84,33.38,1579.19,6.23,1697.15.38A293.94,293.94,0,0,1,1730.8.6q6.27.4,12.4,1.08c45.86,5,86.42,21.35,120.41,47.17C1952,116,1996,247.46,1973,411.54c-15.57,111.12,19.61,171.37,79.85,210.75C2219.6,731.34,2578.43,680.57,2584.75,1106.46Z" style="fill:#f8fbff"/><polygon points="1336.6 681.25 1336.6 630.52 1324.7 630.52 1324.7 543.28 1260.93 543.28 1260.93 630.52 1201.31 630.52 1201.31 488.37 1135.51 488.37 1135.51 580.64 1120.51 580.64 1120.51 470.48 1054.71 470.48 1054.71 677.03 971.5 677.03 971.5 797.48 940.41 797.48 940.41 743.86 869 743.86 869 775.57 828 775.57 828 633.59 777.35 633.59 777.35 738.68 726.7 738.68 726.7 1123.75 777.35 1123.75 820.76 1123.75 828 1123.75 869 1123.75 892.17 1123.75 929.29 1123.75 940.41 1123.75 971.5 1123.75 1000.71 1123.75 1054.71 1123.75 1071.25 1123.75 1104.16 1123.75 1120.51 1123.75 1135.51 1123.75 1169.95 1123.75 1193.4 1123.75 1201.31 1123.75 1260.93 1123.75 1323.64 1123.75 1324.7 1123.75 1336.6 1123.75 1387.41 1123.75 1387.41 681.25 1336.6 681.25" style="fill:#e7f1fb"/><polygon points="2050.7 855.63 2050.7 1123.74 1412.22 1123.74 1412.22 890.42 1461.16 890.42 1461.16 826.75 1510.1 826.75 1510.1 912.78 1549.73 912.78 1549.73 893.56 1618.74 893.56 1618.74 926.05 1648.79 926.05 1648.79 853.07 1729.2 853.07 1729.2 727.92 1792.78 727.92 1792.78 794.66 1807.28 794.66 1807.28 738.76 1870.86 738.76 1870.86 824.89 1928.47 824.89 1928.47 772.03 1990.11 772.03 1990.11 824.89 2001.6 824.89 2001.6 855.63 2050.7 855.63" style="fill:#e7f1fb"/><polygon points="733.17 750.52 733.17 1122.39 151.08 1122.39 151.08 798.79 195.7 798.79 195.7 710.48 240.32 710.48 240.32 829.79 276.44 829.79 276.44 803.13 339.37 803.13 339.37 848.2 366.76 848.2 366.76 746.99 440.06 746.99 440.06 573.41 498.03 573.41 498.03 665.98 511.25 665.98 511.25 588.43 569.21 588.43 569.21 707.89 621.75 707.89 621.75 634.58 677.93 634.58 677.93 707.89 688.41 707.89 688.41 750.52 733.17 750.52" style="fill:#e7f1fb"/><path d="M1421.71,70.77V1121.31h-34.3V89.83Q1404.11,79.93,1421.71,70.77Z" style="fill:#deedff"/><polygon points="756.26 378.36 756.26 1106.46 756.26 1121.31 721.97 1121.31 721.97 1106.46 721.97 381.06 756.26 378.36" style="fill:#deedff"/><path d="M1264.12,174.44v81.67c0,10.28-2.6,18.66-5.78,18.66h-.82c-3.18,0-5.78-8.38-5.78-18.66V183.55Z" style="fill:#f99746"/><path d="M1254.7,241.82c-45.14,0-81.73,38.69-81.73,86.43h163.47C1336.43,280.52,1299.84,241.82,1254.7,241.82Z" style="fill:#f99746"/><path d="M1261.21,242.88a33.64,33.64,0,0,0-7.18-.78c-29.41,0-53.25,38.57-53.25,86.15h14.36C1215.13,284.6,1235.19,248.55,1261.21,242.88Z" style="fill:#ffb278"/><path d="M1743.19,1.68V236.36c0,2.06,0,4.07-.08,6-.44,18.3-2.84,32.38-5.72,32.38h-.82c-2.67,0-4.92-12.11-5.58-28.47-.06-1.35-.1-2.72-.13-4.13,0-.1,0-.19,0-.3,0-1.8-.06-3.64-.06-5.52V.6Q1737.06,1,1743.19,1.68Z" style="fill:#f99746"/><path d="M1733.77,241.82c-45.14,0-81.74,38.69-81.74,86.43H1815.5C1815.5,280.52,1778.91,241.82,1733.77,241.82Z" style="fill:#f99746"/><path d="M1740.28,242.88a33.65,33.65,0,0,0-7.18-.78c-29.41,0-53.25,38.57-53.25,86.15h14.36C1694.21,284.6,1714.26,248.55,1740.28,242.88Z" style="fill:#ffb278"/><path d="M2584.75,1122.61h-534v.16H1863.61V48.85C1952,117.05,1996,250.49,1973,417.07c-15.57,112.82,19.61,174,79.85,214C2219.6,741.75,2578.43,690.21,2584.75,1122.61Z" style="fill:#deedff"/><path d="M2254.94,995.75s-20.61-24-1.27-39.31c0,0,14.13-8.55,25.64-7.86,0,0-16.32,27.37-11,30.09s16-31.81,16-31.81,32.14-3.12,42.48,1.85c0,0-27.48,22.49-21.69,23.83s35.47-20.73,35.47-20.73,29.92,5.09,28.32,23.34-11.9,23.89-16.43,23.4-31-10.6-31.61-6.89,15.38,15.84,26.55,16.41c0,0-21.09,23.26-35.11,16.55s-15.21-17.36-24-21.35-16.2-4-12.59.09,19.42,8,24.42,16.87,9.48,14.8-5,12.62S2257,1020,2256,1007.9Z" style="fill:#82b378"/><path d="M2354.15,975.64s-81.26-3.13-99.2,20.11c0,0-4,11.89-16.18,22.71l-1.9,5.19s14.08-14.85,19.12-15.74C2256,1007.9,2248.1,979.11,2354.15,975.64Z" style="fill:#82b378"/><path d="M2238.76,1018.45s-17.44,12.9-18.65,35.95l3.17.28s5.57-23.83,15.64-33.15S2238.76,1018.45,2238.76,1018.45Z" style="fill:#82b378"/><path d="M2182.89,965.51s32.78-18.36,17.48-43.27c0,0-12.24-15.3-25.35-19.23,0,0,7,37.15,0,38s-4.81-42-4.81-42-34.53-16.61-48.08-15.3c0,0,21.42,36.28,14.42,35.41s-31-37.59-31-37.59S2070.11,875,2064.43,896s3.5,31.47,8.74,32.78,38.9.87,38,5.25-23.6,11.36-36.28,7.43c0,0,14,34.53,32.35,32.78s24-13.11,35.41-14,19.67,2.19,14,5.25-24.92,1-34.1,8.81-16.61,12.61.44,16.11,47.65,1.31,53.76-11.8Z" style="fill:#a8d29f"/><path d="M2080.6,902.56s91.79,29.72,102.28,62.94c0,0-.44,14.86,8.74,31.91V1004s-9.62-22.29-14.86-25.35C2176.77,978.62,2197.31,949.77,2080.6,902.56Z" style="fill:#82b378"/><path d="M2191.63,997.42s14.16,21.5,6.09,47.66l-3.64-1s3.54-28.82-3.87-43.32S2191.63,997.42,2191.63,997.42Z" style="fill:#82b378"/><path d="M2235,940.19s-43.21-24.2-23-57c0,0,16.13-20.17,33.42-25.35,0,0-9.22,49,0,50.13s6.34-55.31,6.34-55.31,45.52-21.9,63.38-20.17c0,0-28.23,47.82-19,46.67S2337,829.56,2337,829.56s46.67-8.64,54.16,19-4.61,41.49-11.52,43.21-51.28,1.15-50.13,6.92,31.11,15,47.82,9.79c0,0-18.44,45.52-42.64,43.21s-31.69-17.29-46.67-18.44-25.93,2.88-18.44,6.91,32.84,1.32,44.94,11.61,21.89,16.63-.58,21.23-62.8,1.73-70.87-15.56Z" style="fill:#a8d29f"/><path d="M2369.87,857.22s-121,39.18-134.83,83c0,0,.58,19.59-11.52,42.06v8.64s12.68-29.39,19.59-33.42C2243.11,957.48,2216,919.45,2369.87,857.22Z" style="fill:#82b378"/><path d="M2223.52,982.25s-18.66,28.34-8,62.83l4.8-1.29s-4.66-38,5.1-57.1S2223.52,982.25,2223.52,982.25Z" style="fill:#82b378"/><path d="M2233.59,1119.88a84.65,84.65,0,0,0,84.65-84.65h-169.3A84.65,84.65,0,0,0,2233.59,1119.88Z" style="fill:#f1a34f"/><path d="M2254.42,1119.23a84.71,84.71,0,0,1-95.16-84h21A84.66,84.66,0,0,0,2254.42,1119.23Z" style="fill:#ffb973"/><path d="M2319.41,1124.19H2147.77a10.44,10.44,0,0,1,10.44-10.44H2309a10.44,10.44,0,0,1,10.44,10.44Z" style="fill:#f1a34f"/><rect x="2146.15" y="1035.23" width="174.01" height="2.6" style="fill:#d86713"/><path d="M1877.75,858.93c1.54-37.3,4.85-69.75,8.82-92.38,6.33-36.07,12-56.83,12.08-57,.83-3.17,12.87-16,39.63-15.61s24.22,17.23,24.22,17.23h0a5.36,5.36,0,0,1-.19,1.5c-.26.87-24.82,88.72-23.76,202.14,0,1.59.2,4.35.08,6.18,0,0-62,1.58-62,0C1874.45,911,1875.51,883.55,1877.75,858.93Z" style="fill:#d1a586"/><path d="M1870,914.2c0,1.58.86,2.85,1.9,2.85h0c1,0,1.85-1.29,1.87-2.85h53.14c0,1.58.86,2.85,1.9,2.85h0c1,0,1.88-1.33,1.87-2.93a781.14,781.14,0,0,1,4.41-89.55c7.06-66.73,20.13-111.33,20.31-112a5.49,5.49,0,0,0,.19-1.5s2.54-16.83-24.22-17.23-38.8,12.44-39.63,15.61c0,.17-3.27,11.92-7.56,33-1.42,7-3,15-4.53,24-4,22.63-7.28,55.08-8.82,92.38C1868.59,883.55,1867.79,904.29,1870,914.2Z" style="fill:#e5bd9e"/><path d="M1870,914.2c0,1.58.86,2.85,1.9,2.85h0c1,0,1.85-1.29,1.87-2.85h53.14c0,1.58.86,2.85,1.9,2.85h0c1,0,1.88-1.33,1.87-2.93a781.14,781.14,0,0,1,4.41-89.55c-8.79-42.35-42.74-74.74-50.91-82-1.42,7-3,15-4.53,24-4,22.63-7.28,55.08-8.82,92.38C1868.59,883.55,1867.79,904.29,1870,914.2Z" style="fill:#dfb697"/><path d="M1923.52,913.66l-.15-.1s-.08-.05-.1-.27h0a1.41,1.41,0,0,0-.42-1.1c-1.67-1.71-8.11-1.64-16.27-1.55-8.89.1-20,.22-31-1.69-5.7-1-1.85-44.32,2.2-84.86.69-6.88,1.23-12.32,1.48-15.52,2.64-34.49,17.9-95.7,18-96.18.68-2.58,9.85-12.14,29.75-11.82,7.53.11,12.86,2,15.85,5.49a10.28,10.28,0,0,1,2.45,7.67,4.08,4.08,0,0,1-.15,1.15c-.08.33-13.84,79.51-16.08,98.5-3.71,31.34-5.18,96.14-5.25,99.76,0,0,0,.09,0,.14v.18ZM1911.64,910c6,0,10.15.27,11.61,1.77h0c0-1.5.1-4.29.25-9.56.17-6.2.47-15.88.91-26.8.76-19.11,2.09-45.39,4.07-62.1,2.3-19.47,16-98.36,16.1-98.61a3.74,3.74,0,0,0,.13-1,9.87,9.87,0,0,0-2.32-7.24c-2.88-3.38-8.05-5.16-15.39-5.26-19.57-.26-28.51,8.89-29.16,11.38-.15.56-15.37,61.51-18,96.06-.25,3.21-.79,8.65-1.48,15.54-2.7,27-8.33,83.23-2.7,84.2,11,1.9,22,1.77,30.89,1.68C1908.36,910,1910.06,910,1911.64,910Z" style="fill:#d1a586"/><path d="M1934.6,917H1726.26s4.85-19.37,125.51-16.48C1937.16,902.6,1934.6,917,1934.6,917Z" style="fill:#e5bd9e"/><path d="M1951.56,1119.33c-24.16-120.63-17.95-194.64-17.91-195.58.06-1.86-3.41-3.54-5.28-3.6s-10.23-.55-11.19,1c-1.26,2.08-6.13,93.28,29.88,198.14Z" style="fill:#d1a586"/><path d="M1757,1119.33c24.16-120.63,17.95-194.64,17.91-195.58-.06-1.86,3.41-3.54,5.28-3.6s10.23-.55,11.19,1c1.26,2.08,6.13,93.28-29.87,198.14Z" style="fill:#d1a586"/><path d="M1718.48,1119.33c24.16-120.63,17.95-194.64,17.91-195.58-.06-1.86,3.41-3.54,5.28-3.6s10.23-.55,11.19,1c1.26,2.08,6.13,93.28-29.87,198.14Z" style="fill:#a0795f"/><path d="M1912.75,1119.33c-24.16-120.63-17.95-194.64-17.91-195.58.06-1.86-3.41-3.54-5.28-3.6s-10.23-.55-11.19,1c-1.26,2.08-6.13,93.28,29.87,198.14Z" style="fill:#a0795f"/><rect x="1721.86" y="912.04" width="216.88" height="11.19" rx="4.24" ry="4.24" transform="translate(3660.61 1835.26) rotate(180)" style="fill:#d1a586"/><path d="M1089.26,855.31c1.54-37.82,4.85-70.71,8.82-93.66,6.32-36.57,12-57.61,12.08-57.83.83-3.22,12.87-16.23,39.63-15.83S1174,705.46,1174,705.46h0a5.52,5.52,0,0,1-.19,1.52c-.26.88-24.82,89.94-23.76,204.93,0,1.62.2,4.41.08,6.26,0,0-62,1.6-62,0C1086,908.12,1087,880.27,1089.26,855.31Z" style="fill:#d1a586"/><path d="M1081.46,911.34c0,1.6.86,2.89,1.9,2.89h0c1,0,1.85-1.31,1.86-2.89h53.14c0,1.6.86,2.89,1.9,2.89h0c1,0,1.88-1.35,1.87-3a802.67,802.67,0,0,1,4.41-90.78c7.06-67.65,20.12-112.87,20.31-113.5a5.65,5.65,0,0,0,.19-1.52s2.54-17.06-24.22-17.47-38.8,12.61-39.63,15.83c0,.17-3.27,12.08-7.56,33.5-1.42,7.1-3,15.23-4.53,24.33-4,22.94-7.28,55.84-8.82,93.66C1080.09,880.27,1079.3,901.29,1081.46,911.34Z" style="fill:#e5bd9e"/><path d="M1081.46,911.34c0,1.6.86,2.89,1.9,2.89h0c1,0,1.85-1.31,1.86-2.89h53.14c0,1.6.86,2.89,1.9,2.89h0c1,0,1.88-1.35,1.87-3a802.67,802.67,0,0,1,4.41-90.78c-8.79-42.93-42.74-75.77-50.91-83.15-1.42,7.1-3,15.23-4.53,24.33-4,22.94-7.28,55.84-8.82,93.66C1080.09,880.27,1079.3,901.29,1081.46,911.34Z" style="fill:#dfb697"/><path d="M1135,910.79l-.15-.1s-.08-.05-.1-.27h0a1.45,1.45,0,0,0-.43-1.12c-1.69-1.72-8.12-1.65-16.26-1.56-8.89.1-20,.23-31-1.71-5.7-1-1.86-44.92,2.2-86,.69-7,1.23-12.5,1.48-15.75,2.63-34.78,17.9-97,18-97.51.68-2.62,9.85-12.31,29.76-12,7.48.11,12.8,2,15.8,5.5a10.52,10.52,0,0,1,2.5,7.84,4.16,4.16,0,0,1-.15,1.17c-.08.34-13.83,80.59-16.08,99.87-3.7,31.72-5.18,97.48-5.25,101.14,0,0,0,.09,0,.14v.18Zm-11.87-3.71c5.94,0,10.12.27,11.6,1.78h0c0-1.52.1-4.35.25-9.69.17-6.29.47-16.1.91-27.17.76-19.37,2.09-46,4.07-63,2.3-19.7,16-99.72,16.1-100a3.84,3.84,0,0,0,.13-1,10.12,10.12,0,0,0-2.37-7.41c-2.89-3.39-8-5.17-15.34-5.28h-.9c-18.93,0-27.61,9.06-28.26,11.54-.15.57-15.38,62.39-18,97.39l-.3,0,.3,0c-.25,3.25-.79,8.77-1.48,15.76-2.7,27.39-8.32,84.37-2.7,85.36,11,1.93,22,1.8,30.89,1.7C1119.87,907.1,1121.57,907.08,1123.15,907.08Z" style="fill:#d1a586"/><path d="M1146.11,914.23H937.76s4.85-19.63,125.51-16.71C1148.67,899.59,1146.11,914.23,1146.11,914.23Z" style="fill:#e5bd9e"/><path d="M1163.07,1119.31C1138.91,997,1145.12,922,1145.15,921c.06-1.88-3.41-3.59-5.28-3.65s-10.23-.55-11.19,1.06c-1.26,2.11-6.13,94.57,29.87,200.88Z" style="fill:#d1a586"/><path d="M968.54,1119.31C992.69,997,986.48,922,986.45,921c-.06-1.88,3.41-3.59,5.28-3.65s10.23-.55,11.19,1.06c1.26,2.11,6.13,94.57-29.87,200.88Z" style="fill:#d1a586"/><path d="M930,1119.31C954.14,997,947.93,922,947.9,921c-.06-1.88,3.41-3.59,5.28-3.65s10.23-.55,11.19,1.06c1.26,2.11,6.13,94.57-29.87,200.88Z" style="fill:#a0795f"/><path d="M1124.26,1119.31C1100.1,997,1106.31,922,1106.34,921c.06-1.88-3.41-3.59-5.28-3.65s-10.23-.55-11.19,1.06c-1.26,2.11-6.13,94.57,29.87,200.88Z" style="fill:#a0795f"/><rect x="933.37" y="909.15" width="216.88" height="11.34" rx="4.27" ry="4.27" transform="translate(2083.63 1829.65) rotate(180)" style="fill:#d1a586"/><path d="M1225.24,756.07s17.22,7,29.45-10.57C1254.7,745.5,1234.83,742.13,1225.24,756.07Z" style="fill:#6bb7bf"/><path d="M1224,748.86s-1.21-6.15-8.42-6.36C1215.61,742.5,1218.33,748.73,1224,748.86Z" style="fill:#6bb7bf"/><path d="M1227.66,712.85s8.35.89,11.47-8.25C1239.14,704.6,1230.09,705.61,1227.66,712.85Z" style="fill:#6bb7bf"/><path d="M1247.47,591.92c-16.84-3.61-17.13-17.39-17.13-17.39C1250.18,580.81,1247.47,591.92,1247.47,591.92Z" style="fill:#6bb7bf"/><path d="M1248.63,588.78s10.51,4.27,18-6.45C1266.61,582.33,1254.48,580.27,1248.63,588.78Z" style="fill:#6bb7bf"/><path d="M1225.57,796.47l-2.18,2.5a.55.55,0,0,1-1-.36c.12-70.91,9.13-133.91,16.69-171.08,8.25-40.57,16.62-64.55,16.71-64.79h0c-.08.24-7.63,24.61-15.86,65.06-7.57,37.23-16.24,85.9-14,167.72A1.41,1.41,0,0,1,1225.57,796.47Z" style="fill:#6bb7bf"/><path d="M1255.69,553.07c-2.69,2.16-13,11.36-3,18.45,0,0,7.65,2.42,10.18-3.47a37.49,37.49,0,0,0,2.59-11.63,1,1,0,0,0-.93-1.07,8.12,8.12,0,0,1-2.16-.49c-.95-.37-1.43-1.8-2.71-2.11a7.56,7.56,0,0,0-2.55-.28A2.69,2.69,0,0,0,1255.69,553.07Z" style="fill:#f99746"/><path d="M1250,569a6.19,6.19,0,0,1,1.92,6.34l0,1.44a6.83,6.83,0,0,1,4.55-4.72S1253,572.4,1250,569Z" style="fill:#6bb7bf"/><path d="M1247.47,591.92c-16.84-3.61-17.13-17.39-17.13-17.39S1243.68,581.86,1247.47,591.92Z" style="fill:#8ad8db"/><path d="M1231.29,582.49s-10.59,4.05-17.84-6.81C1213.44,575.68,1225.61,573.86,1231.29,582.49Z" style="fill:#6bb7bf"/><path d="M1250.18,790.6l2.13,2.55a.55.55,0,0,0,1-.34c1.3-70.9-6.44-134.07-13.26-171.39-7.44-40.73-15.33-64.87-15.4-65.11h0c.08.24,7.14,24.75,14.55,65.36,6.83,37.38,14.51,86.21,10.68,168A1.42,1.42,0,0,0,1250.18,790.6Z" style="fill:#6bb7bf"/><path d="M1224.94,546.64c2.64,2.21,12.74,11.62,2.62,18.51,0,0-7.69,2.27-10.11-3.67a37.49,37.49,0,0,1-2.36-11.68,1,1,0,0,1,1-1.05,8.11,8.11,0,0,0,2.17-.45c1-.35,1.46-1.77,2.75-2.06a7.57,7.57,0,0,1,2.55-.23A2.69,2.69,0,0,1,1224.94,546.64Z" style="fill:#f99746"/><path d="M1230.33,562.64a6.19,6.19,0,0,0-2,6.3v1.44a6.82,6.82,0,0,0-4.45-4.81S1227.2,566,1230.33,562.64Z" style="fill:#6bb7bf"/><path d="M1235.78,570.07s11.19,1.87,16.14-10.22C1251.92,559.85,1239.64,560.49,1235.78,570.07Z" style="fill:#6bb7bf"/><path d="M1258.57,777.79,1257,780.7a.55.55,0,0,1-1-.14c-15.34-69.23-20.3-132.68-21-170.61-.79-41.39,2.15-66.62,2.18-66.87h0c0,.25-2.08,25.68-1.29,67,.73,38,2.89,87.37,22.87,166.74A1.42,1.42,0,0,1,1258.57,777.79Z" style="fill:#6bb7bf"/><path d="M1234.89,533.68c-2.15,2.69-10.18,13.91,1.1,18.66,0,0,8,.7,9.18-5.61a37.48,37.48,0,0,0,0-11.92A1,1,0,0,0,1244,534a8.1,8.1,0,0,1-2.21,0c-1-.15-1.79-1.44-3.1-1.47a7.57,7.57,0,0,0-2.55.28A2.69,2.69,0,0,0,1234.89,533.68Z" style="fill:#f99746"/><path d="M1232.78,550.43a6.19,6.19,0,0,1,3.26,5.77l.28,1.42a6.82,6.82,0,0,1,3.41-5.6S1236.52,553.11,1232.78,550.43Z" style="fill:#6bb7bf"/><path d="M1245,557.61s0-8.86,7.63-11.64C1252.64,546,1254.32,553.37,1245,557.61Z" style="fill:#6bb7bf"/><path d="M1227.09,543.38s.22-6.76-6-8.71C1221.06,534.67,1219.55,541,1227.09,543.38Z" style="fill:#ed9f4a"/><path d="M1247.6,584c.23.2,3.26-6.58-2.91-12C1244.68,572,1242.1,579.27,1247.6,584Z" style="fill:#ed9f4a"/><path d="M1251.92,583.51a3.66,3.66,0,0,1,3.16-3.86S1255.62,582.49,1251.92,583.51Z" style="fill:#6bb7bf"/><path d="M1219.95,572s-2.71-5.6-11.37-4.63C1208.58,567.39,1209.88,573.4,1219.95,572Z" style="fill:#6bb7bf"/><path d="M1267.82,804.77H1212.3a6.12,6.12,0,0,1-6.06-7l25.84-178.12a3.38,3.38,0,0,1,3.35-2.9h8.25a3.61,3.61,0,0,1,3.57,3.08l26.46,178.11A6,6,0,0,1,1267.82,804.77Z" style="fill:#f99746"/><path d="M1224.6,799.38l13.72-182.59a3.37,3.37,0,0,0-2.9,2.85l-25.84,178.12a6.12,6.12,0,0,0,6.06,7h11.1A6.57,6.57,0,0,1,1224.6,799.38Z" style="fill:#ffb278"/><path d="M1769.09,785.32s-38.09,43.5-45.88,42.79c-8-.72-12.83-3.23-19.75,0-5,2.33-20.72,15-16.5,14.15s11.88-1.82,13.89-2c2.78-.26,7.24-.33,10.27-.85,1.92-.33,8.83-.53,11.14-.6,10-.33,57.44-28,57.44-28Z" style="fill:#ffb27d"/><path d="M1706.42,738.86c-1.51-.93-4.46-.57-6.59-.12v-3.09a16.2,16.2,0,0,0-.13-2h-32a16,16,0,0,0-.13,2v6.28a16.12,16.12,0,0,0,28.24,10.64h0s7.62-1.87,10-4.71S1709,740.43,1706.42,738.86Zm-1.69,5.81c-.81,2.09-4.44,3.21-6.23,3.65a16,16,0,0,0,1.29-5.31c1.11-1.51,2.85-2.4,4.13-2.17S1705.75,742,1704.73,744.67Z" style="fill:#c45446"/><path d="M1670.17,735.65v6.28a16.19,16.19,0,0,0,16.13,16.14,14.86,14.86,0,0,0,2.17-.16,16.18,16.18,0,0,1-14-16v-6.28a15.88,15.88,0,0,1,.13-2h-4.34A15.88,15.88,0,0,0,1670.17,735.65Z" style="fill:#e37970"/><rect x="1677.09" y="756.66" width="13.17" height="1.97" style="fill:#c45446"/><path d="M1795.51,564.42s1.72-21.85,33.15-16.18c8.31,1.5,14-13.32,27.62-8,29.29,11.37,31-3.64,39.47,17.42,3.54,8.82,26.07,19.08,19.19,34.32s4.63,25.49-3.46,37.43c-4.19,6.18-2.48,17.22-22.23,17.62-9.84.2-25.15,18.42-36.19,21.73s-44.18-1.46-42.93-16.61c1-11.81-12.8-10.83-21.27-24.41-7.4-11.87,5.8-14.86-1.26-34.05C1782.44,579.58,1795.92,576.16,1795.51,564.42Z" style="fill:#1c468a"/><path d="M1622.75,1101.92c.67,7.31-9.5,9.09-21.29,9.67s-8.22,3-24.37,5.92-22.62-1.49-23.79-3.68c-1-1.94,6.47-5,14.47-8.38l3-1.31c9-4,14.06-12,21.08-19.53,6.65-7.09,13-29.8,13-29.8l21.95-4.69s-6.16,20.44-8.3,29.16c-1.26,5.13.6,10.87,2.25,15.24A28.7,28.7,0,0,1,1622.75,1101.92Z" style="fill:#ffb27d"/><path d="M1601.47,1111.59c-11.78.59-8.22,3-24.37,5.92s-22.62-1.49-23.79-3.68c-1-1.94,6.47-5,14.47-8.38l.13.14a46,46,0,0,0,24.46.29c10.68-2.9,21-9.29,28.37-11.35a28.7,28.7,0,0,1,2,7.38C1623.43,1109.23,1613.25,1111,1601.47,1111.59Z" style="fill:#c65447"/><path d="M1817.09,825.23S1695.46,830.7,1668,848s-71.49,219.15-71.49,219.15,2.72,2.18,8.79,2.83c5.65.61,18.08-2.71,18.08-2.71s63.28-90.3,67.74-113.05,3.37-43,13.52-43.59,136.67,15.38,155.81-18.33S1817.09,825.23,1817.09,825.23Z" style="fill:#163560"/><path d="M1672.93,1102.74c.67,7.31-9.5,9.09-21.29,9.67s-8.22,3-24.37,5.93-22.62-1.5-23.79-3.68c-1-1.94,6.47-5,14.47-8.39l3-1.31c9-4,14.06-12,21.08-19.52,6.65-7.09,13-29.8,13-29.8L1677,1051s-6.16,20.44-8.3,29.17c-1.26,5.13.6,10.87,2.25,15.24A28.73,28.73,0,0,1,1672.93,1102.74Z" style="fill:#ffb27d"/><path d="M1651.65,1112.41c-11.78.59-8.22,3-24.37,5.93s-22.62-1.5-23.79-3.68c-1-1.94,6.47-5,14.47-8.39l.13.14a46,46,0,0,0,24.46.29c10.68-2.9,21-9.29,28.37-11.35a28.73,28.73,0,0,1,2,7.38C1673.6,1110,1663.43,1111.83,1651.65,1112.41Z" style="fill:#c65447"/><path d="M1864.23,828.11s-129.55,6.13-156.31,24.51-62.9,221.77-62.9,221.77,2.8,2.07,8.89,2.49c5.66.39,18-3.41,18-3.41s59.72-92.7,63.29-115.6,1.69-43.15,11.81-44.09,137.17,10,155-24.38S1864.23,828.11,1864.23,828.11Z" style="fill:#1c468a"/><path d="M1903,662.59a2.31,2.31,0,0,0-.16-.2,20.44,20.44,0,0,0-3.61-3.17l0,0h0c-10.58-7.39-29.49-9-29.49-9h0s-2.07-.2-5.34-.34a98,98,0,0,1-6.18-29.84l-1.87.5L1824.76,629s1.4,10,2,19.47c.14,2.07.25,4.12.3,6-.91.33-20.53,3.1-24.79,7.68s-12.79,35.11-14.94,40.52l121.36,2S1911.78,673,1903,662.59Z" style="fill:#ffb27d"/><path d="M1907.49,879.64c-14.37,1.37-62.79-27.87-78.93-37.38l-.81-.48c-6.72-3.95-16.17-5.81-25.16-7.3-11.45-1.87-22.14-3.13-25.56-7.23-4.07-4.87,7.91-10.28,17.53-15.88,4.85-2.83,9.11-5.72,10.44-8.59,1-2.27.95-7.23.26-13.57h0c-.11-1.19-.27-2.42-.44-3.7a41.12,41.12,0,0,1-2.89,5,73.2,73.2,0,0,1-10.29,12c-4.57,4.33-9.12,7.55-11.95,8.24a9.41,9.41,0,0,1-5.71-.52c-5-2-9.9-7.51-13.76-12.86-.91-1.26-1.77-2.52-2.55-3.72-2.64-4-4.51-7.31-5.22-8.1-2.15-2.38,8.65-7.09,13.09-10.63s21.83-72.25,21.83-72.25c2.15-5.41,10.68-35.93,14.94-40.53,0,0,16.63,20.31,38.2,19.15,21.41-1.15,58.09-21.8,58.65-22.13a13.35,13.35,0,0,1,3.84,3.4c8.77,10.38,5.73,42.09,5.73,42.09s-16.79,74-16.79,81.44c0,13.69,11.32,45.16,16.72,67.82C1912.1,868.3,1913.16,879.11,1907.49,879.64Z" style="fill:#6bb7bf"/><path d="M1824.76,629s1.4,10,2,19.47c17.84-1.7,26.2-18.63,29.47-27.93Z" style="fill:#f4a269"/><path d="M1819.39,638.35s42.34-2.12,40.61-28.47,2.57-44.36-24.53-44.12-31.69,10.64-33.25,19.57S1808.34,638.23,1819.39,638.35Z" style="fill:#ffb27d"/><path d="M1817.61,575.15s10.12-2.36,13.43,2.56.94,7.68,8.33,9.74,9.89,1.92,9.15,7.09,7.42,9,7.77,13.14,3.75,6.2,7,6.5,1.77-53.3-10.78-55.66-24.66.44-28.35,3.4S1817.61,575.15,1817.61,575.15Z" style="fill:#1c468a"/><path d="M1817.61,575.15s-9.84-.69-11.61,4.92.59,6.94-1.92,10.33-1.06,9.42-1.06,9.42-19.46-35.84,1.06-38.21S1824.06,563.43,1817.61,575.15Z" style="fill:#1c468a"/><path d="M1804.75,777.06c-2.81,8.45-7.84,17.74-13.11,25.46-4.57,4.33-9.12,7.55-11.95,8.24a9.41,9.41,0,0,1-5.71-.52c-5-2-9.9-7.51-13.76-12.86-.91-1.26-1.77-2.52-2.55-3.72,13.45-10.79,38.94-35.48,41.59-69.27C1802.89,678.25,1804.94,779.18,1804.75,777.06Z" style="fill:#599dad"/><path d="M1774,810.25c4.69-7.16,14.24-14.21,27.94-19.76-6.31,9.44-17.1,19-22.23,20.27A9.41,9.41,0,0,1,1774,810.25Z" style="fill:#599dad"/><path d="M1885.92,721.44s-10.57,106.24-57.35,120.82l-.81-.48c-6.72-3.95-16.17-5.81-25.16-7.3-11.45-1.87-22.14-3.13-25.56-7.23-4.07-4.87,7.91-10.28,17.53-15.88,4.85-2.83,9.11-5.72,10.44-8.59,1-2.27.95-7.23.26-13.57h0C1850.65,772.41,1885.92,721.44,1885.92,721.44Z" style="fill:#599dad"/><path d="M1897.82,690c-4.9-22.08-27.13-9.41-27.13-9.41-7.71-1.76-64.28,89.94-68.81,92-3.84,1.76-56-13.38-71.81-18-4.09-3.21-18.45-14.35-21-14.54-2.94-.22-22.55,4.82-22.43,7.93s4.72,7.68,12,8.84c5.49.88,14.8,4.49,20.73,5.39h0s57.55,39.2,82,44C1823.46,810.44,1902.72,712.06,1897.82,690Z" style="fill:#ffb27d"/><path d="M1767.4,764.92S1754.14,799,1770,812s50.38,8.6,88.15-44.08,53.15-81.36,33.54-89.73-35.81,4.76-45.87,25.25c-10.46,21.3-29.72,50.79-41.29,51.91S1767.4,764.92,1767.4,764.92Z" style="fill:#6bb7bf"/><path d="M1434.83,444.56l0,5.15s-1.4,16.09,18.41,18.44,36.07,2,35.53-10.37c-1.79-9.62-5-24.54-5.12-32.49a56,56,0,0,1,.7-9.64l-38.4-.77-11.31,1.85Z" style="fill:#ffb27d"/><path d="M1434.68,416.73l.15,27.83a32.47,32.47,0,0,0,13.84,3.05c17.65,0,29.05-12.94,35-22.33a56,56,0,0,1,.7-9.64l-38.4-.77Z" style="fill:#e2915a"/><path d="M1487.33,409.47c-4.45,24-35.39,23.19-48.76,21.68-3.76-.42-6.13-.9-6.13-.9-4.24-1.13-6.61-7.81-7.71-16.57-2.18-17.32.58-42.75,3.5-49.25,4.41-9.79,12.7-20.37,43.85-12.73S1493,378.75,1487.33,409.47Z" style="fill:#ffb27d"/><path d="M1512.64,1119.32h-43.84a105.85,105.85,0,0,1,3.5-15.74,44.6,44.6,0,0,1,2.48-6.32c4.26-8.51,31.34-3.1,31.34-3.1s2.52,2.16,4.48,10.39A87.18,87.18,0,0,1,1512.64,1119.32Z" style="fill:#233862"/><path d="M1380.17,1105.49c-.12,6-.87,11.61-3,13.84h-86.71c1.1-3.14,4.22-7.86,13.13-9.3,10.12-1.64,25.88-6.51,35.09-16.24a26.11,26.11,0,0,0,6.79-12.3c4.08-18.16,33.73,5.56,33.73,5.56A146.93,146.93,0,0,1,1380.17,1105.49Z" style="fill:#233862"/><path d="M1437.85,909.15a136.61,136.61,0,0,0-2.18,16c-2.76,53.77-45.26,176.71-52.86,179.58-11.76,4.44-30.29-5-40-8.08a8.31,8.31,0,0,1-5.83-9.44c21-96.77,28.79-236.11,31.6-318.6,1.42-41.55,8.55-70.26,8.55-70.26s103.67-27.66,104.28,7.33C1482,736.65,1447.09,858.08,1437.85,909.15Z" style="fill:#2b478b"/><path d="M1437.85,909.15l-69.25-140.54c1.42-41.55,8.55-70.26,8.55-70.26s103.67-27.66,104.28,7.33C1482,736.65,1447.09,858.08,1437.85,909.15Z" style="fill:#233862"/><path d="M1414.78,705.81l54.8,397.19s24.07,5.8,42.79,1.16c0,0,16-211.25,14.71-262.32s11.52-136.65-2.93-146.09S1414.78,705.81,1414.78,705.81Z" style="fill:#2b478b"/><path d="M1418.67,341.61a103.07,103.07,0,0,0,29.89-8.09c13.13-5.71,29.69.58,35.07,3.41a8,8,0,0,0-1.31-3.23s2.41,1.71,2.77,4.1c.25.18.36.31.3.35a9.25,9.25,0,0,1,4.49.29s-1.23-.18-1.67.62a.72.72,0,0,1-.2.22c20.48,9.9,22.37,42.26,15.78,49.75-7.93,9-17.44,29.3-17.44,29.3s-3.47-4.79-2-12.72-5.41-7.93-14.06-11.53-1.44-13.69-9-19.82-35.32-2.52-35-7.21C1416,363.29,1418.67,342.66,1418.67,341.61Z" style="fill:#233862"/><path d="M1493.47,464.68,1480.85,735.4s-105.31,1.72-102.3-22.11,38-240.32,38-240.32Z" style="fill:#e9f3fe"/><path d="M1531.07,618.13c-6.27,18.8,5.55,81.86,9.76,103.23.92,4.52,1.54,7.19,1.54,7.19-14.59,23.72-68,23.42-68,23.42-10.27-45.4-15.61-117.71-15.61-117.71l41-179.65,51.56,47.66s-3.9,29.07-8.73,58.65C1538.77,584.34,1534.46,608.17,1531.07,618.13Z" style="fill:#22407a"/><path d="M1443.43,413.41s-1,3.09-8.81,2c0,0-6.55-.95-6.07-4.4C1428.56,411,1435.15,409,1443.43,413.41Z" style="fill:#fff"/><path d="M1384.24,468.54l0,.11c-2.49,2.41-72.79,70.67-86.41,97.4-13.87,27.12,63.37,81.14,63.37,81.14s5,2,8.42,1.2c-3.64,30-7.73,57.65-5.31,69.46,4.38,21.34,24.12,28.51,24.12,26.87,0-.52,7.22-77.56,11.14-117.76C1408,540.77,1429,455.16,1429,455.16,1406,457.55,1384.24,468.54,1384.24,468.54Zm-41.86,109.23a.63.63,0,0,1-.1-.41c0-3.9,14.89-12.53,31-22.7l.31-.31,0,0c-.29,8.31-.26,16.46.24,24,.91,14.07-.11,30.89-1.81,48C1364.39,614.4,1343.89,582.18,1342.38,577.76Z" style="fill:#22407a"/><path d="M1496.46,454.29c.13-2.58-12.11-6.15-12.11-6.15s-14,19.42-37.08,19.76c0,0,6.58,12.8,14.33,16.11C1461.59,484,1495.69,469.63,1496.46,454.29Z" style="fill:#d9e9f9"/><path d="M1447.26,467.43s-12.22-7.25-12.27-15.1c0,0-7.9-1-11.34,2.84,0,0-2.9,13.47.95,21.29C1424.6,476.46,1442.2,473.77,1447.26,467.43Z" style="fill:#d9e9f9"/><path d="M1455.56,466.27l-16.58-4s-2.16.19-2.11,2.89,4.67,10.59,6.71,11.22S1459.48,471.73,1455.56,466.27Z" style="fill:#ba4c43"/><path d="M1494.53,453c.13-2.58-8.15-7.91-8.15-7.91s-16,18.74-39.11,19.07c0,0,6.58,12.8,14.33,16.11C1461.59,480.23,1493.76,468.29,1494.53,453Z" style="fill:#e9f3fe"/><path d="M1447.26,464.12s-12.36-6.55-12.41-14.41c0,0-7.46,3.28-10.91,7.11,0,0-3.19,8.5.65,16.32C1424.6,473.14,1442.2,470.46,1447.26,464.12Z" style="fill:#e9f3fe"/><path d="M1414.86,650.86a25.55,25.55,0,0,0,8.14,16.52l7.34,6.77a4.3,4.3,0,0,0,6.29-.5l9.1-11.55a15.34,15.34,0,0,0,3.21-10.94c-.85-8.74-2.44-25.58-3.71-41.84-1-13.17-1.86-26-1.92-33.75-.2-24.85,4.73-104.1,4.73-104.1l-6,.31a319.11,319.11,0,0,0-22.54,72.62,277,277,0,0,0-4.12,32.63S1412.31,622.28,1414.86,650.86Z" style="fill:#c65447"/><path d="M1414.86,650.86a25.55,25.55,0,0,0,8.14,16.52l7.34,6.77a4.3,4.3,0,0,0,6.29-.5l9.1-11.55a15.34,15.34,0,0,0,3.21-10.94c-.85-8.74-2.44-25.58-3.71-41.84-16.46-18.5-23.14-44.06-25.7-64.92a277,277,0,0,0-4.12,32.63S1412.31,622.28,1414.86,650.86Z" style="fill:#ba4c43"/><path d="M1356.26,651.59a11.4,11.4,0,0,1,12.89-11.4,7.05,7.05,0,0,1,4.79,2.64c4.7,6.25,9.16,24.43.84,25.28-3.39.35-7.74-2-11.09-4.58s-7.43-6.64-7.43-10.91Z" style="fill:#ffb27d"/><path d="M1540.83,721.36c-15.1-15.72-41.19-46.63-40.26-72,1.23-35.54,42-88.43,42-88.43-3.8,23.42-8.11,47.25-11.5,57.21C1524.8,636.92,1536.62,700,1540.83,721.36Z" style="fill:#233862"/><path d="M1540.35,659.54s-10.85,5.43-17.44,2.71-14.34-4.75-21.71,3.63-8.92,14.2-7.37,17.3,18.72,1.94,21.57,0,7.36-6.71,10.21-5.88c7.89,2.29,14.53-3.72,18.25-8.52C1546.11,665.9,1540.06,664.5,1540.35,659.54Z" style="fill:#ffb27d"/><path d="M1499.74,454.61s43.23,4.79,53.43,23.61,63.21,95.13,61.48,126.84-72.32,67.26-72.32,67.26-15.63-6.61-15.87-13.71,48.8-49.59,45.83-57.51-57-70.63-62.17-91.3S1499.74,454.61,1499.74,454.61Z" style="fill:#22407a"/><path d="M1373.61,554.34l-.31.31c-16.13,10.17-31,18.79-31,22.7-2.16-6.88,18.8-35.64,25.58-41.5S1373.61,554.34,1373.61,554.34Z" style="fill:#233862"/><path d="M1486.37,445s-32.82,137.47-27.6,189.25c0,0,12.07-55.34,41.11-100.66,0,0-10.6-9.32-10-12.76,0,0,7.87-2.33,15.5-.76,0,0-.84-59.25-5.6-65.52S1486.37,445,1486.37,445Z" style="fill:#233862"/><path d="M1434.86,449.71c.67-.39-32.53,134.33-35.3,177.26,0,0,3.29-76.61,3-98.69,0,0,13.63-7.22,13.63-9.75s-14.54-9.38-14.54-9.38,9.21-47.18,14.23-52.38S1434.86,449.71,1434.86,449.71Z" style="fill:#233862"/><path d="M1007.92,1045.15a6.15,6.15,0,0,1,1.1,6.58.05.05,0,0,1,0,0c-1.59,4.39-6.83,9.29-12.92,14.18-.78.63-1.47,1.2-2.07,1.73l-.47.42-.36.32c-5.68,5.24-3.54,6.44-13.75,17.06-11.64,12.11-19.65,12.33-21.93,11.22-1.93-.94,2-7.36,6.33-14.58l.63-1.05c.58-1,1.15-1.93,1.73-2.9,5.09-8.69,3.78-12.76,2.58-25.69-1-10.51-16.34-58.69-16.34-58.69l22.3-3.84s6.72,38.37,14.12,44.28c4,3.15,8.39,3.19,12.19,5.52l.79.5A29.28,29.28,0,0,1,1007.92,1045.15Z" style="fill:#ffb27d"/><path d="M1007.92,1045.15a6.15,6.15,0,0,1,1.1,6.58.05.05,0,0,1,0,0c-1.94,4.38-7.06,9.26-12.95,14.13-.77.64-1.45,1.23-2.05,1.77l-.47.42-.36.32c-5.68,5.24-3.54,6.44-13.75,17.06-11.64,12.11-19.65,12.33-21.93,11.22-1.93-.94,2-7.36,6.33-14.58a49.59,49.59,0,0,0,20.75-15.29c7-8.94,11.68-20.43,16.45-27.09l.79.5A29.28,29.28,0,0,1,1007.92,1045.15Z" style="fill:#c65447"/><path d="M828.09,1031.22c-1.38,6.88-11.19,5.74-22.15,3.06s-8.36.51-24-1.22-20.33-7.54-20.81-9.87c-.43-2.06,7.28-2.78,15.55-3.74l3.13-.37c9.34-1.17,16.17-7.2,24.65-12.14,8-4.69,20-23.78,20-23.78l21.4,1.69s-11.23,17.06-15.57,24.47c-2.55,4.36-2.42,10.13-2.1,14.58A27.46,27.46,0,0,1,828.09,1031.22Z" style="fill:#ffb27d"/><path d="M805.94,1034.28c-11-2.68-8.36.51-24-1.22s-20.33-7.54-20.81-9.87c-.43-2.06,7.28-2.78,15.55-3.74l.08.16a44,44,0,0,0,22.35,6.95c10.59.26,21.8-2.78,29.11-2.66a27.46,27.46,0,0,1-.16,7.32C826.71,1038.1,816.9,1037,805.94,1034.28Z" style="fill:#c65447"/><path d="M875.7,716.93s-5.1-12.49-10.71-13-23.45-3.31-24.73-.76,0,11.73,3.82,15,27.53,8.67,27.53,8.67Z" style="fill:#ffb27d"/><path d="M910.09,894.39l46.12,124.11a42.23,42.23,0,0,0,13.88-1.27c6.25-1.8,13.41-6.53,13.41-6.53s-11.44-119.17-32.41-144S910.09,894.39,910.09,894.39Z" style="fill:#aa413e"/><path d="M1092.5,844.18S960,799.38,930.43,808.91,812.14,995,812.14,995s2,2.66,7.47,4.71c5.08,1.91,17.39,1.79,17.39,1.79s80.08-68.64,89.61-88.66S940,873.74,949.5,875.64s123,46.71,148.72,20,19-61.38,19-61.38Z" style="fill:#c65447"/><path d="M1011.52,635.73c-2.12-4.37-4.48-12.13-5.64-26,.18,1.37,2.56,18.82,9.27,28.7,27.56,18.09,80.38,78.51,79.34,90,0,0,18.61-31.56,18.93-31.75,0,0,34.32-43.64-6.36-68.64-20.67-12.71-20.57-29-19.71-43.18s-5.64-75.15-47.05-59.19c0,0-6.65-3-9.62-2.51a8.13,8.13,0,0,1,3.67,1.74c-4.8-.28-11.67.07-17.39,3.33C1001.77,536.85,988.18,614.25,1011.52,635.73Z" style="fill:#b5453c"/><path d="M1016.78,639.37c-.14.06,13.31,7,23.42,4.28,9.51-2.59,15.73-14.93,15.6-15-4-.8-5.19-6.34-5.1-30.12l-1.82.36L1018.25,605s.7,9.64.72,18.71C1019,631.33,1018.53,638.55,1016.78,639.37Z" style="fill:#ffb27d"/><path d="M1018.25,605s.7,9.64.72,18.71c17.13-.48,26.19-16.11,29.9-24.78Z" style="fill:#ed975d"/><path d="M1052,595.59s9-14.19,11.14-26.32c1.54-8.66-2.87-40.77-35.14-36.14a43.83,43.83,0,0,0-18.18,6.87c-7,4.73-17.11,14.95-5.81,43l2.94,9.46Z" style="fill:#b5453c"/><path d="M1012.53,613.58s40.54.67,40.57-24.58,5.28-42.17-20.6-43.67-30.92,8.14-33,16.56S1002,612.76,1012.53,613.58Z" style="fill:#ffb27d"/><path d="M1014,544.71s11.1,29.63,28.14,34,24.42-.18,24.42-.18a48.24,48.24,0,0,1-15.78-28.5S1022.4,530.61,1014,544.71Z" style="fill:#b5453c"/><path d="M1016.78,547.12s-8.29,6.61-10.31,13-2.93,19.67-6.79,19.22c0,0-8.36-20.14,1-31.53C1010.69,535.77,1016.78,547.12,1016.78,547.12Z" style="fill:#b5453c"/><path d="M1123.59,844.88c-2.19,6.07-8.89,7.63-17.88,6.58-17.14-2-42.59-13.51-60.94-21.46-28-12.12-40.68-.73-49.58-8.45s10.17-24.87-6.36-104.53c-5.61-27,29.91-84.93,29.91-84.93s3.07,16.77,37-3.4c1.2-.71,14.57,19.09,27.46,43.51,14.2,26.94,27.8,59.47,23.8,76.24C1099.43,780.4,1129.94,827.24,1123.59,844.88Z" style="fill:#699dee"/><path d="M1018.75,632.09,997.8,718s-2.61,4.64-6.69,11.24c-9.59,15.51-27.34,41.85-38.71,44.53-5.61,1.32-17.53-3.34-30.72-10-24.95-12.6-54.45-32.36-54.45-32.36-1.91-11.44,8-20.77,8-20.77S935,733.12,941,733.54c12.93.92,26.1-61.51,38.19-82.31C987.89,636.19,1018.75,632.09,1018.75,632.09Z" style="fill:#699dee"/><path d="M1021.54,598.28s-.76,3.21-8.74,2.71c0,0-6.7-.41-6.5-3.94C1006.31,597,1012.81,594.54,1021.54,598.28Z" style="fill:#fff"/><path d="M1123.59,844.88c-2.19,6.07-8.89,7.63-17.88,6.58-11.86-5.17-63.1-25-62.52-38.47.85-19.91,9.85-20.55,3.5-45.13-5.1-19.74,42.24-56.43,49.79-64.41,14.2,26.94,14.59,28.21,10.59,45C1099.43,780.4,1129.94,827.24,1123.59,844.88Z" style="fill:#4a75cb"/><path d="M991.11,729.27c-9.59,15.51-27.34,41.85-38.71,44.53-5.61,1.32-17.53-3.34-30.72-10,9.63,2.48,19,2.42,28.07,1.54,9.85-1,12.71-13,28.28-31.14C988.13,722.43,990.61,725.39,991.11,729.27Z" style="fill:#4a75cb"/><path d="M1038.58,767.39s-8.58-6.67-16.68-5.09-12.08,7.15-11.76,9.69,4.61,9.69,10.8,10.33,23.83-3.81,23.83-3.81Z" style="fill:#ffb27d"/><path d="M1055.8,628.69s33,2,44.48,18c16.1,22.46,44.07,114.14,36.44,135.12l-100.53-.42s-2.44-11.39,1-16.9,58.48-14.41,61-16.95-31.78-49.58-31.78-57.2S1055.8,628.69,1055.8,628.69Z" style="fill:#699dee"/><polygon points="1029.95 804.94 908.24 804.94 886.3 728.43 1007.82 728.43 1029.95 804.94" style="fill:#1c468a"/><rect x="908.66" y="801.96" width="159.11" height="2.98" style="fill:#163560"/><path d="M946.89,765.44c-.77-2.69.78-4.87,3.47-4.87a7,7,0,0,1,6.27,4.87c.77,2.69-.78,4.87-3.47,4.87A7,7,0,0,1,946.89,765.44Z" style="fill:#163560"/><path d="M647.52,631.3s13.3-10.87,18.08-10.93,13.86-2.45,13.5-.89-8,3.58-6.69,4.3,12.43-2.27,15.53-.48,10.39,9.2,4.54,12.43-23.42,8.36-28,7.77-14.82-1.31-14.82-1.31Z" style="fill:#ffb27d"/><polygon points="477.63 1035.59 488.79 1082.58 505.5 1082.48 506.11 1035.59 477.63 1035.59" style="fill:#ffb27d"/><polygon points="618.2 1037.59 649.95 1082.58 662.32 1066.69 643.21 1031.4 618.2 1037.59" style="fill:#ffb27d"/><path d="M553.14,469.41h0a2.05,2.05,0,0,0,0-.34c-.21-2.34-.48-4.65-.79-7h0a152.32,152.32,0,0,0-4-19.87c-1-3.47-2-6.71-3.15-9.63-.17-.45-.34-.87-.51-1.3h0c-2.71-6.62-5.81-11.38-9-13.18-5.77-3.28-12.68-3.63-17.52-3.35a8.21,8.21,0,0,1,3.7-1.75c-3-.45-9.69,2.52-9.69,2.52-41.71-16.07-48.27,45.35-47.39,59.62s-14,18.93-35.72,30.17c-41.41,21.45-45,50.17-45,50.17.32.19.66.41,1,.66,2.06-3.48,6.29-10,9.85-11a146.48,146.48,0,0,0-5.74,14c5.23,4,12.39,10,20.13,16.78h0c10.36,9,21.75,19.35,30.86,27.7-.07-2.86,0-6.9,1.09-9L442.95,605l.23,1.37c5.81,5.34,10.39,9.61,12.71,11.79l.64.59,1,1c-.33-3.66,4.81-12.31,12.87-23,.55-.75,1.14-1.5,1.73-2.26,2.59-3.37,5.45-6.89,8.5-10.52,1.1-1.31,2.21-2.62,3.35-3.95h0c.92-1.07,1.84-2.13,2.8-3.21h0c2.26-2.56,4.58-5.13,6.94-7.7,6.12-6.66,12.52-13.23,18.77-19.19,9.08-8.69,17.83-16.12,24.92-20.77.27-.39.53-.79.76-1.2a43.17,43.17,0,0,0,3.41-7c.3-.75.57-1.5.83-2.26a102.26,102.26,0,0,0,4.29-18.07,104.78,104.78,0,0,1-3,18.41c-.27,1-.54,1.87-.81,2.71h0a38.29,38.29,0,0,1-1.85,4.68,25.62,25.62,0,0,0,3.35-3.79,30.06,30.06,0,0,0,1.88-2.93C553.33,507.53,554.84,488.1,553.14,469.41Z" style="fill:#163560"/><path d="M535.84,530c.14.06-13.4,7.09-23.59,4.31-9.58-2.61-15.84-15-15.71-15.06,4.06-.81,5.23-6.38,5.14-30.34l1.83.36,30.84,6.11s-.7,9.71-.72,18.85C533.61,521.94,534.08,529.22,535.84,530Z" style="fill:#ffb27d"/><path d="M501,428.15s15.21-16.2,34.31-.83C535.28,427.33,524.16,425.4,501,428.15Z" style="fill:#e37970"/><path d="M534.36,495.41s-.7,9.71-.72,18.85c-17.26-.49-26.38-16.23-30.12-25Z" style="fill:#ed975d"/><path d="M500.33,485.95s-9-14.29-11.21-26.51c-1.55-8.72,2.89-41.06,35.39-36.4A44.15,44.15,0,0,1,542.81,430c7.06,4.77,17.24,15.05,5.85,43.27l-3,9.53Z" style="fill:#163560"/><path d="M657.28,1054.36l-16.35.5-17.7.54s-40.87-45.51-63.8-118.46q-.8-2.54-1.7-5.15c-12.55-36.59-38.56-82.51-52.27-124.08-2.18-6.62-4.14-12.85-5.9-18.75-.56-1.89-1.11-3.74-1.63-5.57-10.1-35.1-13-58.15-15.72-82.77l99,.79S597.18,869.55,657.28,1054.36Z" style="fill:#2b478b"/><path d="M567.35,644.54c-.25,47.1,6.91,67.31,6.91,67.31s-42.38,21.53-92.75,5.68c-.59-.19-41.71-9.57-41.71-9.57.84-1.91,8.34-33.65,9.16-35.4,10.63-22.84,18.71-32.85,20-39.87a149.32,149.32,0,0,0,1.22-39.46,316.64,316.64,0,0,0-12.21-62c13.72-3.12,26.58-8.61,40.86-14,3.29,4.09,13.33,8.37,22,8.18,10-.22,13.29-4.52,12.77-9.21,10.69,5.95,19.22,11.57,19.22,11.57,9.09,15.79,27.52,31.11,28.85,55.33C582,589.11,567.35,643.22,567.35,644.54Z" style="fill:#e7f1fd"/><path d="M540.12,504.07s-40.83.67-40.86-24.76-5.32-42.48,20.75-44,31.15,8.19,33.22,16.68S550.74,503.24,540.12,504.07Z" style="fill:#ffb27d"/><path d="M538.61,434.7S527.43,464.54,510.27,469s-24.6-.19-24.6-.19a48.59,48.59,0,0,0,15.89-28.7S530.18,420.5,538.61,434.7Z" style="fill:#163560"/><path d="M535.84,437.12s8.35,6.66,10.38,13.14,3,19.81,6.84,19.36c0,0,8.42-20.28-1-31.76C542,425.7,535.84,437.12,535.84,437.12Z" style="fill:#163560"/><path d="M488.22,1079.95a45.28,45.28,0,0,1-2.13,19.27s-2.74,12.46,9.54,12.69,15.28-.93,13.9-8.57-4-20.86-4-20.86Z" style="fill:#ffb27d"/><path d="M511.15,1119.31H484.27c-1.1-5.53,1.33-17.32,1.74-19.58,0-.17.06-.3.08-.38a1.13,1.13,0,0,1,0-.12c13.89,12.73,22.59-.33,22.59-.33l0,.07C510.75,1103.95,511.18,1117.36,511.15,1119.31Z" style="fill:#c45446"/><path d="M691.89,1104.59s-22.63-25.12-29.58-37.9l-16.83,8.62,37.61,35.32,8.8-1.16Z" style="fill:#ffb27d"/><path d="M706.27,1119.31H677.8c-4.19,0-7.54-6.95-12.06-16-1.85-3.7-6-5.73-10.25-6.85l.11,22.83H649l-6-24.14c-4-7.36-.32-14,2.5-19.86,3.28,0,12.1,2.24,28.82,21.07,5.5,6.18,11.56,8.39,17.58,8.21a1.41,1.41,0,0,0,.25.13C706,1111,706.27,1119.31,706.27,1119.31Z" style="fill:#c45446"/><path d="M640.93,1054.86l-17.7.54s-40.87-45.51-63.8-118.46q-.8-2.54-1.7-5.15c-12.55-36.59-38.56-82.51-52.27-124.08-2.18-6.62-4.14-12.85-5.9-18.75-.56-1.89-1.11-3.74-1.63-5.57l14.58-11.06s43.76,70.87,57.31,137.56C581.6,967.82,628.73,1037.52,640.93,1054.86Z" style="fill:#233862"/><path d="M514,916.1c.25,32.43-1.39,107-5.61,137.86H492.75c-8.66,0-13-.12-13-.12-10.6-53.67-18.13-98.08-23.62-136.35-4.5-31.4-8.5-58.33-11.58-81.5s-5.25-42.85-6-59.35c-.12-2.6-.21-5.13-.26-7.58s-.06-4.86,0-7.19l85.53-8.34C522.69,810.35,513.9,897.25,514,916.1Z" style="fill:#2b478b"/><path d="M492.75,1054c-8.66,0-13-.12-13-.12-10.6-53.67-18.13-98.08-23.62-136.35-4.5-31.4-8.5-58.33-11.58-81.5s-5.25-42.85-6-59.35l31.38,18.46s-20,7.07-12.39,60.56S482.12,1046.39,492.75,1054Z" style="fill:#233862"/><path d="M496.79,776.1s-6,21.77-26.87,19-50.48-15.28-50.48-15.28,8.91-28.15,20-65.12C452.83,669.92,456.17,607,464,570.61c2.2-10.2,17-13.51,17.51-19.61l17.29-33.55s25.78,57.87,27.17,72.46S496.79,776.1,496.79,776.1Z" style="fill:#f99746"/><path d="M482.22,632.87c-.93,23.62-9.2,63.91-42.4,81.63l-.4.19c13.41-44.76,13.24-87.71,21.06-124.11C478.33,586.86,482.73,619.87,482.22,632.87Z" style="fill:#ed7d2b"/><path d="M697.87,618.75h-32c0,.15,0,.76-.1,1.63-.12,2.9-.32,8.58-.29,9.11.45,6.79,5.17,10.53,9.74,12.32h0l.07,0a21.52,21.52,0,0,0,3.16.95,18.06,18.06,0,0,0,2.16.33,11.69,11.69,0,0,0,1.24.07,16,16,0,0,0,6.57-1.41A16.19,16.19,0,0,0,698,627.05v-6.29A15.79,15.79,0,0,0,697.87,618.75Z" style="fill:#c45446"/><path d="M695.25,618.75h-4.34a15.67,15.67,0,0,1,.13,2v6.29a16.12,16.12,0,0,1-4.63,11.29,16.34,16.34,0,0,1-5,3.44,16.12,16.12,0,0,1-3,1c-.45.1-.91.18-1.38.25a14.72,14.72,0,0,0,2.17.15,13,13,0,0,0,1.37-.07,15.52,15.52,0,0,0,5.19-1.34A16.32,16.32,0,0,0,693,635.4h0a16.22,16.22,0,0,0,1.62-3.59,15.92,15.92,0,0,0,.72-4.75v-6.29A15.69,15.69,0,0,0,695.25,618.75Z" style="fill:#e37970"/><rect x="675.29" y="641.78" width="13.17" height="1.97" transform="translate(1363.75 1285.53) rotate(180)" style="fill:#c45446"/><path d="M445.75,685.32s14.89-3.22,18.72,1,6,11,2.15,13.38-14.9-4.14-18.88-1.51c-2.85,1.88-3.75,6.67-6.62,5s-5.89-12.64-5.89-12.64Z" style="fill:#ffb27d"/><path d="M498.8,517.45s-40.18,1.77-49.84,10.73-67.49,78.27-68.44,96.43,50.66,69.78,50.66,69.78,14.34-3.45,20.55-12.48c0,0-32-57.1-30.11-59.59s56.16-46.94,60.6-37.08C486.05,593.75,498.8,517.45,498.8,517.45Z" style="fill:#f99746"/><path d="M651.67,625.41s-45.88,15.29-51.62,14S586.12,576,581.69,554.68c-5.7-27.44-27.45-32.9-27.45-32.9l-20.63-5.52s23.62,58.36,24.32,70.17,2.78,193.15,2.78,193.15-1.39,8.34,14.59,4.86,20.15-6.95,20.15-6.95-6.93-50.69-10.18-95.69c16.28-2.78,68.63-29.31,68.63-29.31C662,639.73,651.67,625.41,651.67,625.41Z" style="fill:#f99746"/><path d="M779.9,821.17l-8.36,47.35h0L748.47,999.32l-20.63,116.92a3.76,3.76,0,0,1-3.73,3.07,2.64,2.64,0,0,1-2.67-3l17.79-132.55,19-141.78,2.87-21.39Z" style="fill:#c69d7f"/><path d="M871.25,821.17l-8.36,47.35h0L839.82,999.32l-20.63,116.92a3.76,3.76,0,0,1-3.73,3.07,2.64,2.64,0,0,1-2.67-3l17.79-132.55,19-141.78,2.87-21.39Z" style="fill:#c69d7f"/><path d="M771.55,868.52c1.1-20.35-13.29-26.5-13.29-26.5l2.87-21.39,18.78.54Z" style="fill:#a0795f"/><path d="M1568,1119.31a3.77,3.77,0,0,1-3.74-3.07l-18.33-103.88L1519.55,863l-7.37-41.78,18.78-.54,3.26,24.25,22.87,170.44,13.56,101A2.65,2.65,0,0,1,1568,1119.31Z" style="fill:#c69d7f"/><path d="M1534.22,844.89c-12.16,5.37-14.66,18.06-14.66,18.06l-7.37-41.78,18.78-.54Z" style="fill:#a0795f"/><path d="M1673.26,1119.31a3.77,3.77,0,0,1-3.74-3.07l-18.33-103.88L1624.83,863l-7.37-41.78,18.78-.54,3.26,24.25,22.88,170.44,13.56,101A2.65,2.65,0,0,1,1673.26,1119.31Z" style="fill:#c69d7f"/><path d="M1639.49,844.89c-12.17,5.37-14.66,18.06-14.66,18.06l-7.37-41.78,18.78-.54Z" style="fill:#a0795f"/><path d="M691,804.77h979.72A16.24,16.24,0,0,1,1687,821v.34a16.24,16.24,0,0,1-16.24,16.24H691a16.23,16.23,0,0,1-16.23-16.23V821A16.24,16.24,0,0,1,691,804.77Z" style="fill:#e0b594"/><path d="M885.64,785c-1.51-.93-4.46-.57-6.59-.12v-3.09a16.08,16.08,0,0,0-.13-2h-32a16.18,16.18,0,0,0-.13,2v6.28A16.12,16.12,0,0,0,875,798.74h0s7.62-1.87,10-4.71S888.18,786.6,885.64,785Zm-1.69,5.81c-.81,2.09-4.44,3.21-6.23,3.65a16,16,0,0,0,1.29-5.31c1.11-1.51,2.85-2.4,4.13-2.17S885,788.2,883.94,790.84Z" style="fill:#c45446"/><path d="M849.39,781.82v6.28a16.19,16.19,0,0,0,16.13,16.14,14.88,14.88,0,0,0,2.17-.16,16.18,16.18,0,0,1-14-16v-6.28a15.74,15.74,0,0,1,.13-2h-4.34A15.74,15.74,0,0,0,849.39,781.82Z" style="fill:#e37970"/><rect x="856.31" y="802.83" width="13.17" height="1.97" style="fill:#c45446"/><path d="M1340.55,785c-1.51-.93-4.46-.57-6.59-.12v-3.09a16.16,16.16,0,0,0-.13-2h-32a16,16,0,0,0-.13,2v6.28a16.12,16.12,0,0,0,28.24,10.64h0s7.62-1.87,10-4.71S1343.09,786.6,1340.55,785Zm-1.69,5.81c-.81,2.09-4.44,3.21-6.23,3.65a16,16,0,0,0,1.29-5.31c1.11-1.51,2.85-2.4,4.13-2.17S1339.89,788.2,1338.86,790.84Z" style="fill:#c45446"/><path d="M1304.31,781.82v6.28a16.19,16.19,0,0,0,16.13,16.14,14.86,14.86,0,0,0,2.17-.16,16.18,16.18,0,0,1-14-16v-6.28a15.67,15.67,0,0,1,.13-2h-4.34A15.85,15.85,0,0,0,1304.31,781.82Z" style="fill:#e37970"/><rect x="1311.23" y="802.83" width="13.17" height="1.97" style="fill:#c45446"/><path d="M151.08,558.24v561.07H3.06S.84,1097.49.18,1062.26c-.37-20.52-.24-45.62,1.2-73.6.12-2.28.25-4.6.38-6.93.75-12.83,1.77-26.23,3.14-40,.12-1.22.25-2.46.38-3.69,1.49-14.44,3.35-29.44,5.66-44.85,1.88-12.52,4.05-25.34,6.6-38.35.17-.91.35-1.83.54-2.75q2-9.93,4.22-20,.88-3.95,1.8-7.92,1.81-7.75,3.79-15.55,4.82-19.12,10.77-38.46c.4-1.3.81-2.63,1.21-4q2.71-8.6,5.66-17.25,4.5-13.13,9.58-26.27c2.11-5.49,4.33-11,6.61-16.44C83.36,654.38,112.36,603.65,151.08,558.24Z" style="fill:#deedff"/></g></g></svg>