<svg xmlns="http://www.w3.org/2000/svg" width="2599.73" height="1800.93" viewBox="0 0 2599.73 1800.93"><title>Asset 1</title><g style="isolation:isolate"><g id="268b9d14-11e7-4c7f-9e22-dabce735db87" data-name="Layer 2"><g id="f65a2770-9524-451b-8561-05934a08da39" data-name="Layer 1"><path d="M1855.29,401.5c-38.55,151.69,53.5,306.45,205.18,345s306.45-53.5,345-205.18-53.5-306.45-205.18-345S1893.84,249.81,1855.29,401.5Zm70.1,8.22h0c34.07-113.21,153.46-177.37,266.67-143.3h0c113.21,34.07,177.37,153.46,143.3,266.67h0c-34.07,113.21-153.46,177.37-266.67,143.3h0C1955.49,642.32,1891.33,522.93,1925.4,409.72Z" style="fill:#f7cc7f"/><path d="M1658.61,401.94c1.34,6.78,7.47,9.15,22.61,15.15,27.08,10.74,54.18,21.49,80.86,33.17,4.2,1.84,8.4,8.38,8.92,13.15,3.09,28.35,4.46,56.9,7.83,85.21,1,8.77.19,13.44-7.69,18.39-31.52,19.8-62.48,40.49-93.31,60.63,7.71,33.06,46.53,107.35,67.28,128.13,32.69-13.75,66.31-27.3,99.34-42.15,10.28-4.62,15.53-3.73,24.1,4.46,19.88,19,41.55,36.24,63.44,53,8.87,6.77,13.59,12.07,10.72,24.26-7.45,31.6-13,63.64-19.89,95.38-1.86,8.53-.24,13.86,8.18,16.47q59.42,18.4,118.87,36.72c9.74,3,11.24-5,13.67-10.73,12.31-29,24.78-58,36.1-87.41,4.25-11,10-14.68,21.95-15.06,31.75-1,63.44-4.06,97.59-6.48l65.42,99.33c46-15.24,87.46-38.06,126.71-68.23l-44.8-107.63c23.51-29.78,45.89-56.88,66.63-85.18,6-8.19,10.71-9.54,19.71-7.56,31.26,6.87,62.73,12.76,94,19.41,6.77,1.44,11.73,1.7,15.2-5.69,17.52-37.37,31.65-75.7,37.36-116.91,1.27-9.19-2-12.81-9.59-15.94-30.46-12.58-60.67-25.74-91.18-38.2-7.39-3-10.48-6.15-11.16-15.17-2.33-31.27-6-62.48-10.48-93.52-1.14-7.93,1.38-11,7-14.69,31.1-20.48,62-41.19,93.84-62.36-16.13-45.29-36.71-87.33-66.18-126l-112.17,46.68-91.69-76.05c5.6-28,12.29-60.11,18.43-92.38,5-26.48,8.84-23-17.76-34.16-2.54-1.07-4.69-3.05-7-4.61L2230.09,3.85c-5.56-.63-11.4-.4-16.63-2.06-13.62-4.32-21.29-1.22-26.72,13.37-11.31,30.4-24.53,60.1-37.68,89.78-1.72,3.89-7.38,7.94-11.65,8.48-27.84,3.52-56.07,4.64-83.61,9.6-13.48,2.43-19.15-1.25-25.8-11.76-18.86-29.8-39-58.83-60.53-91.11L1841.06,86.52c3.31,8.39,5.13,13.25,7.13,18,12.3,29.54,24.33,59.19,37.16,88.5,3.64,8.32,1.79,13-3.91,19.77-19.58,23.26-37.66,47.79-57.08,71.19-3,3.63-10.46,6.18-15.18,5.36-25.86-4.49-51.46-10.41-77.23-15.42-20.85-4.05-28.61-5.48-35.21,1.33ZM1845.54,399a293.89,293.89,0,1,1,32.24,222.61A292,292,0,0,1,1845.54,399Z" style="fill:#f7cc7f"/><path d="M55,794.71c4.37,3.41,9.34,1.63,21.7-2.69,22.09-7.71,44.2-15.43,66.54-22.37,3.52-1.09,9.51.67,12.33,3.3,16.78,15.6,32.62,32.21,49.55,47.63,5.25,4.78,7.18,8.06,5,15.21-8.73,28.59-16.65,57.43-24.79,85.87,22.06,16,84.69,40.72,108.21,42.43,12.62-25.54,25.91-51.44,38.16-77.81,3.81-8.21,7.47-10.43,17-10,22.06,1.09,44.28.17,66.36-1.2,8.94-.55,14.6.19,19.26,9.1,12.09,23.1,25.58,45.47,38.06,68.37,3.35,6.16,7.14,8.54,13.63,5.7q45.75-20.07,91.48-40.19c7.5-3.29,4.2-8.94,2.66-13.71-7.79-24.09-15.45-48.25-24-72.06-3.22-8.94-1.67-14.14,5.41-20.68,18.76-17.3,36.39-35.81,55.85-55.23l91.95,25.92c19.93-33.44,33.1-69.09,41.07-108l-83.78-41.81c-1.38-30.44-2-58.66-4.32-86.75-.66-8.13,1.48-11.42,8-15,22.59-12.26,44.8-25.23,67.31-37.65,4.87-2.69,8-5.14,6.24-11.45-9-31.9-20.58-62.61-38.77-90.63-4.06-6.25-8-6.71-14.2-4.63-25.11,8.37-50.38,16.26-75.45,24.74-6.07,2.05-9.6,1.78-14.75-3.35-17.85-17.76-36.49-34.78-55.53-51.28-4.86-4.22-5-7.41-3.5-12.58,8.12-28.79,16-57.63,24.2-87.2-33.61-19-68.2-33.73-106.42-41.71l-43.57,87.31-95.66,2c-11.29-19.92-24.14-43-37.37-65.79C272,219.86,276.12,220,254.09,227.19c-2.1.69-4.45.61-6.69.89l-54.63,24.48c-3.71,2.54-7.13,5.75-11.18,7.49-10.54,4.54-13.57,10.45-9.2,22.16,9.11,24.4,16.7,49.39,24.32,74.32,1,3.27-.31,8.7-2.61,11.27-15.05,16.78-31.6,32.29-45.72,49.79-6.91,8.56-12.29,9.31-21.85,6.42-27.12-8.18-54.58-15.25-84.65-23.51L0,507.27c6.42,3.36,10.08,5.35,13.81,7.21,23,11.47,45.89,23.15,69.08,34.21,6.59,3.14,7.92,7,8,14.06.34,24.42,2.25,48.81,2.76,73.23.08,3.79-3.1,9.25-6.4,11.23-18.06,10.86-36.72,20.73-55,31.24C17.48,687,12,690.16,11.59,697.77Zm112-100A236,236,0,1,1,303.61,812.9,234.5,234.5,0,0,1,167,694.67Z" style="fill:#50bfa5"/><path d="M328.34,148.29l9-16.48L328.87,115a2.58,2.58,0,0,1,2.77-3.7l18.4,3.47,13.28-13.24a2.57,2.57,0,0,1,4.37,1.5l2.4,18.63,16.66,8.58a2.58,2.58,0,0,1-.07,4.63l-16.92,8-3,18.54a2.57,2.57,0,0,1-4.41,1.36L349.5,149.2,331,152.08A2.58,2.58,0,0,1,328.34,148.29Z" style="fill:#f7cc7f"/><path d="M1308,226.4l7.67-12.45-6.16-2.5a2.63,2.63,0,0,1-1.45-3.43h0a2.63,2.63,0,0,1,3.43-1.45l7.1,2.88,6.85-11.18-6.58-2.67a2.63,2.63,0,0,1-1.45-3.43h0a2.63,2.63,0,0,1,3.43-1.45l7.52,3,8-12.8a2.63,2.63,0,0,1,3.22-1l1.15.47a2.63,2.63,0,0,1,1.25,3.81l-7.4,12.08,10.9,4.42,8-12.8a2.63,2.63,0,0,1,3.22-1l1.25.51a2.63,2.63,0,0,1,1.26,3.81l-7.4,12.08,6.16,2.5a2.63,2.63,0,0,1,1.45,3.43h0a2.63,2.63,0,0,1-3.43,1.45l-7.1-2.88L1342.11,219l6.58,2.67a2.63,2.63,0,0,1,1.45,3.43h0a2.63,2.63,0,0,1-3.43,1.45l-7.52-3-8.13,13.2a2.63,2.63,0,0,1-3.23,1.06l-1.34-.54a2.63,2.63,0,0,1-1.25-3.82l7.67-12.45-10.9-4.42-8.13,13.2a2.63,2.63,0,0,1-3.23,1.06l-1.34-.54A2.63,2.63,0,0,1,1308,226.4Zm27.78-10,6.85-11.18-10.9-4.42L1324.92,212Z" style="fill:#07345a"/><path d="M1258.85,443.15l-10.38,55.16c.87,2.8,3.56,3.52,10.22,5.38,11.91,3.31,23.83,6.63,35.62,10.35,1.86.59,3.92,3.16,4.36,5.15,2.58,11.83,4.44,23.81,7.14,35.6.84,3.66.69,5.66-2.42,8.11-12.41,9.78-24.54,19.9-36.64,29.78,4.74,13.6,24.47,43.2,34.16,51,13.17-7.28,26.75-14.51,40-22.26,4.13-2.41,6.39-2.27,10.37.8a316.88,316.88,0,0,0,29.15,19.49c4,2.46,6.28,4.48,5.61,9.75-1.72,13.67-2.61,27.44-4.1,41.14-.4,3.68.52,5.86,4.2,6.58q25.9,5.09,51.81,10.14c4.25.83,4.52-2.61,5.29-5.14,3.89-12.8,7.84-25.59,11.3-38.51,1.3-4.85,3.54-6.64,8.58-7.34,13.35-1.85,26.58-4.57,40.89-7.13l32.08,39a180.36,180.36,0,0,0,50.4-34.5l-23.75-43.4c8.58-13.62,16.8-26.07,24.28-38.94,2.16-3.73,4.09-4.51,8-4.08,13.5,1.49,27,2.56,40.56,4,2.92.3,5,.19,6.16-3.09,5.71-16.56,9.95-33.37,10.5-51,.12-3.93-1.43-5.31-4.77-6.29-13.42-3.94-26.76-8.13-40.19-12-3.25-.94-4.7-2.12-5.39-5.9-2.39-13.09-5.35-26.09-8.63-39-.84-3.29.09-4.71,2.28-6.51,12.2-10,24.33-20.18,36.79-30.54-8.85-18.39-19.42-35.2-33.6-50.18l-45.23,24.75-42.11-28c1.1-12,2.48-25.92,3.62-39.81.94-11.4,2.69-10.1-9-13.62a19,19,0,0,1-3.17-1.63l-31.09-5.85c-2.37,0-4.83.34-7.11-.12-5.94-1.21-9,.44-10.67,6.84-3.4,13.34-7.64,26.47-11.86,39.58a7.32,7.32,0,0,1-4.53,4.1c-11.59,2.74-23.45,4.48-34.85,7.82-5.58,1.63-8.14.33-11.42-3.8-9.3-11.73-19.09-23.07-29.64-35.72L1311.26,357c1.77,3.39,2.76,5.36,3.82,7.29,6.52,11.91,12.93,23.88,19.66,35.67,1.91,3.35,1.34,5.41-.76,8.52-7.21,10.7-13.74,21.86-20.88,32.61a8.07,8.07,0,0,1-6.16,2.94c-11.11-.73-22.18-2.08-33.28-3C1264.67,440.24,1261.33,440,1258.85,443.15Zm102.54,46.43a90.84,90.84,0,0,1,106.07-72.48h0a90.84,90.84,0,0,1,72.48,106.07h0a90.84,90.84,0,0,1-106.07,72.48h0a90.84,90.84,0,0,1-72.48-106.07Z" style="fill:#f47458"/><polygon points="898.2 140.78 930.86 144.72 916.92 119.36 898.2 140.78" style="fill:#355389"/><path d="M1018.16,422.27c-1,11,8.47,21.12,19,23,10.9,1.91,20.61-5.2,24.36-15.24,7.4-19.81-14.28-35.43-26-23.45-11,11.19-7.5,27.81,4.34,27.82,4.47,0,11.66-3.75,8.81-9.16a1.81,1.81,0,0,0-3.1,0c-1.44,2.45-1.32,2.54-2,3.08a6.09,6.09,0,0,1-3.88,1.12c-12.06-.21-4-27.81,10.18-21.12,7.81,3.67,10.11,12.55,7.4,20.3-2.61,7.46-9.61,13.24-17.7,12.72-9.67-.62-17.78-9.51-18.41-19a1.48,1.48,0,0,0-3,0Z" style="fill:#f47458"/><path d="M1614.74,13.51l9.76,4.19s16.3-3.64,18.13-6.7S1645.52.2,1647.8.19A7,7,0,0,1,1655,6.74c.45,3.93-6.16,14.58-5.37,15.85.5.8,6,3.36,10.12,5.17a7.9,7.9,0,0,1,4.67,6.71h0a4.21,4.21,0,0,1-3.05,4.33l-3,.84.69,3a4.21,4.21,0,0,1-3.14,5l-2.29.54.57,1.86a4.21,4.21,0,0,1-3.23,5.37l-2,.38,0,.52a4.21,4.21,0,0,1-3.51,4.47l-2,.32-26-11.17a19.45,19.45,0,0,1-6.46-4.51l-8.5-5.45a2.2,2.2,0,0,1-.82-2.75l10.09-22.67A2.19,2.19,0,0,1,1614.74,13.51Z" style="fill:#50bfa5"/><rect x="1131.08" y="478.8" width="241.89" height="123.23" rx="32.7" ry="32.7" style="fill:#5184ce"/><rect x="1106.48" y="1324.26" width="290.27" height="369.43" style="fill:#466eb6"/><path d="M2130,1440.15V607.09a71.67,71.67,0,0,0-71.67-71.67H443a71.67,71.67,0,0,0-71.67,71.67v833.07Z" style="fill:#466eb6"/><path d="M371.38,1440.15v133.5c0,27.77,18.35,50.28,41,50.28H2089c22.64,0,41-22.51,41-50.28v-133.5Z" style="fill:#5184ce"/><circle cx="1253.44" cy="511.53" r="16.33" style="fill:#184655"/><path d="M2088.79,1404V609.31c0-20.83-17.49-37.72-39.08-37.72H451.62c-21.58,0-39.08,16.89-39.08,37.72V1404Z" style="fill:#cce6ff"/><rect x="486.15" y="635.74" width="1007.51" height="703.02" style="fill:#e9ffff"/><rect x="486.15" y="635.74" width="1007.51" height="82.31" style="fill:#5184ce"/><rect x="1852.21" y="811.63" width="68.77" height="532.31" style="fill:#9bc1f9;opacity:0.6000000000000001"/><rect x="1756.17" y="973.99" width="68.77" height="369.94" style="fill:#9bc1f9;opacity:0.6000000000000001"/><rect x="1949.63" y="926.96" width="68.77" height="416.98" style="fill:#9bc1f9;opacity:0.6000000000000001"/><rect x="1660.13" y="910.56" width="68.77" height="433.38" style="fill:#9bc1f9;opacity:0.6000000000000001"/><rect x="1564.08" y="1039.05" width="68.77" height="304.88" style="fill:#9bc1f9;opacity:0.6000000000000001"/><rect x="1852.21" y="934.31" width="68.77" height="409.63" style="fill:#9bc1f9;opacity:0.30000000000000004;mix-blend-mode:multiply"/><rect x="1756.17" y="1059.26" width="68.77" height="284.68" style="fill:#9bc1f9;opacity:0.30000000000000004;mix-blend-mode:multiply"/><rect x="1949.63" y="1023.06" width="68.77" height="320.88" style="fill:#9bc1f9;opacity:0.30000000000000004;mix-blend-mode:multiply"/><rect x="1660.13" y="1010.44" width="68.77" height="333.5" style="fill:#9bc1f9;opacity:0.30000000000000004;mix-blend-mode:multiply"/><rect x="1564.08" y="1109.32" width="68.77" height="234.62" style="fill:#9bc1f9;opacity:0.30000000000000004;mix-blend-mode:multiply"/><rect x="520.91" y="751.95" width="929.93" height="119.36" style="fill:#9bc1f9;opacity:0.6000000000000001"/><rect x="852.31" y="905.2" width="598.54" height="30.59" style="fill:#9bc1f9;opacity:0.6000000000000001"/><rect x="520.91" y="905.2" width="294.45" height="353.04" style="fill:#5184ce"/><rect x="852.31" y="969.69" width="598.54" height="30.59" style="fill:#9bc1f9;opacity:0.6000000000000001"/><rect x="852.31" y="1163.16" width="598.54" height="30.59" style="fill:#9bc1f9;opacity:0.6000000000000001"/><rect x="852.31" y="1227.65" width="598.54" height="30.59" style="fill:#9bc1f9;opacity:0.6000000000000001"/><path d="M100.57,1031.8l559-1A15.2,15.2,0,0,1,674.83,1046l1.33,736.63A15.2,15.2,0,0,1,661,1797.83l-559,1a15.2,15.2,0,0,1-15.23-15.17L85.4,1047A15.2,15.2,0,0,1,100.57,1031.8Z" style="fill:#f7cc7f"/><rect x="116.74" y="1052.7" width="528.07" height="720" transform="translate(-2.54 0.69) rotate(-0.1)" style="fill:#fff"/><path d="M494.55,1020.92a5.86,5.86,0,0,0-5.87-5.85l-221.73.4a5.86,5.86,0,0,0-5.85,5.88l0,23,233.45-.42Z" style="fill:#13375b"/><path d="M377.76,987.25a35,35,0,1,0,35,34.91A35,35,0,0,0,377.76,987.25Zm.1,57.39a22.43,22.43,0,1,1,22.39-22.47A22.43,22.43,0,0,1,377.86,1044.65Z" style="fill:#13375b"/><path d="M491,1015.53a5.87,5.87,0,0,1,3.59,5.4l0,23-233.45.42a28.91,28.91,0,0,0,29,28.86l175.64-.32a28.91,28.91,0,0,0,28.86-29l0-23A5.87,5.87,0,0,0,491,1015.53Z" style="fill:#355389"/><path d="M266.95,1015.47h0a5.86,5.86,0,0,0-4.86,2.59A5.86,5.86,0,0,1,266.95,1015.47Z" style="fill:#9bc1f9"/><path d="M261.36,1019.6a5.82,5.82,0,0,1,.44-1.05A5.82,5.82,0,0,0,261.36,1019.6Z" style="fill:#9bc1f9"/><path d="M583.6,1264.62l-75.07.14-.13-75.07,75.07-.13Zm-72-2.94,68.93-.12-.12-68.93-68.93.12Z" style="fill:#184655"/><path d="M583.83,1389.53l-75.07.14-.14-75.07,75.07-.14Zm-72-2.94,68.93-.12-.12-68.93-68.93.12Z" style="fill:#184655"/><path d="M584.05,1514.44l-75.07.14-.14-75.07,75.07-.13Zm-72-2.94,68.93-.12-.12-68.93-68.93.12Z" style="fill:#184655"/><rect x="155.69" y="1191.57" width="321.27" height="10.8" transform="translate(-2.16 0.57) rotate(-0.1)" style="fill:#9bc1f9"/><rect x="155.75" y="1222.17" width="321.27" height="10.8" transform="translate(-2.21 0.57) rotate(-0.1)" style="fill:#9bc1f9"/><rect x="155.8" y="1252.77" width="321.27" height="10.8" transform="translate(-2.27 0.57) rotate(-0.1)" style="fill:#9bc1f9"/><rect x="155.92" y="1320.75" width="321.27" height="10.8" transform="translate(-2.39 0.57) rotate(-0.1)" style="fill:#9bc1f9"/><rect x="155.98" y="1351.34" width="321.27" height="10.8" transform="translate(-2.44 0.57) rotate(-0.1)" style="fill:#9bc1f9"/><rect x="156.03" y="1381.94" width="321.27" height="10.8" transform="translate(-2.5 0.57) rotate(-0.1)" style="fill:#9bc1f9"/><rect x="156.15" y="1443.14" width="321.27" height="10.8" transform="translate(-2.61 0.57) rotate(-0.1)" style="fill:#9bc1f9"/><rect x="156.2" y="1473.74" width="321.27" height="10.8" transform="translate(-2.66 0.57) rotate(-0.1)" style="fill:#9bc1f9"/><rect x="156.26" y="1504.33" width="321.27" height="10.8" transform="translate(-2.72 0.57) rotate(-0.1)" style="fill:#9bc1f9"/><polygon points="545.7 1252.35 522.39 1212.36 530.73 1207.5 544.26 1230.71 566.35 1177.72 575.26 1181.43 545.7 1252.35" style="fill:#f47458"/><polygon points="545.93 1378.9 522.62 1338.9 530.96 1334.04 544.49 1357.26 566.58 1304.26 575.49 1307.98 545.93 1378.9" style="fill:#f47458"/><polygon points="572.35 1458.04 565.62 1451.26 546.44 1470.26 527.19 1451.33 520.49 1458.13 539.66 1476.99 520.56 1495.91 527.28 1502.7 546.47 1483.69 565.72 1502.63 572.41 1495.82 553.25 1476.96 572.35 1458.04" style="fill:#f47458"/><path d="M170.48,1531.64a138.1,138.1,0,0,0-53.51,10.8l0,17.6A122.36,122.36,0,0,1,236.82,1773l26.35,0q2.84-2.55,5.56-5.28a138.35,138.35,0,0,0-98.25-236Z" style="fill:#9bc1f9;opacity:0.30000000000000004;mix-blend-mode:multiply"/><path d="M268,1156.46v-36H253.63v-3.15h33.19v3.15H272.49v36Z" style="fill:#184655"/><path d="M323.45,1153.32v3.15H294.68v-39.12h27.75v3.15H299.16v13.7H316v3.15H299.16v16Z" style="fill:#184655"/><path d="M328,1147.1l3.89-1.3a14.45,14.45,0,0,0,5,6.18,13.46,13.46,0,0,0,7.51,2,12,12,0,0,0,7.38-2.09,6.54,6.54,0,0,0,2.8-5.5,6,6,0,0,0-1.83-4.48,16.8,16.8,0,0,0-6.22-3.21q-2.39-.77-6.33-1.85a39.46,39.46,0,0,1-5.06-1.61,13.73,13.73,0,0,1-5-3.49,7.12,7.12,0,0,1-1.47-4.58,9.07,9.07,0,0,1,3.7-7.66q3.7-2.79,10.18-2.79a18,18,0,0,1,9.51,2.29,14.34,14.34,0,0,1,5.71,7l-3.8,1a12.73,12.73,0,0,0-4.63-5.4,13.09,13.09,0,0,0-7-1.75,10.6,10.6,0,0,0-6.53,1.88,5.84,5.84,0,0,0-2.5,4.89,5.11,5.11,0,0,0,1.62,3.83,12,12,0,0,0,5,2.54q1.31.4,3.8,1.08a52.39,52.39,0,0,1,9.2,3.09,13.58,13.58,0,0,1,4.8,3.82,8.2,8.2,0,0,1,1.49,4.91,9.73,9.73,0,0,1-4,8.17q-4,3-10.85,3a19.14,19.14,0,0,1-10.13-2.43A16.48,16.48,0,0,1,328,1147.1Z" style="fill:#184655"/><path d="M377.88,1156.46v-36H363.54v-3.15h33.19v3.15H382.39v36Z" style="fill:#184655"/><path d="M405.31,1156.46v-39.12h4.48v39.12Z" style="fill:#184655"/><path d="M427.82,1120.18v36.29h-4.35v-39.12h7.3l23.21,33v-33h4.35v39.12h-4.78Z" style="fill:#184655"/><path d="M499.41,1152.07a15.33,15.33,0,0,1-5.73,3.88,21.19,21.19,0,0,1-7.69,1.28q-9,0-13.71-5.2T467.56,1137q0-9.76,4.81-15.06t13.62-5.3q6.51,0,10.41,2.8t5.76,8.83l-4.22.71a14.09,14.09,0,0,0-4.5-7,12,12,0,0,0-7.51-2.25q-6.55,0-10.11,4.38t-3.57,12.42q0,8.67,3.62,13.09t10.75,4.42a13.86,13.86,0,0,0,8.64-2.5,7.9,7.9,0,0,0,3.27-6.6v-4.18h-12v-2.94h16.89v18.65h-4Z" style="fill:#184655"/><path d="M1067.71,187.73l-10.19,39.74L1088.71,210l93.16-34.35-68.65-1.9s-35.6,4.27-37.68,5.74S1067.71,187.73,1067.71,187.73Z" style="fill:#50bfa5"/><polygon points="1040.55 159.75 1181.87 175.6 1067.71 187.73 1040.55 159.75" style="fill:#96d9c9"/><polygon points="1108.24 233.79 1074.79 199.65 1181.87 175.6 1108.24 233.79" style="fill:#96d9c9"/><path d="M853.56,309.36a90.41,90.41,0,0,1,3-9.43c1.08-2.85,2.32-5.7,3.69-8.47l3,1.48c-1.32,2.67-2.52,5.42-3.56,8.17a87,87,0,0,0-2.87,9.08q-.35,1.34-.65,2.69l-3.27-.73C853.1,311.2,853.32,310.26,853.56,309.36ZM872,273a127.28,127.28,0,0,1,15-15.89l2.23,2.5A124,124,0,0,0,874.62,275Zm106.23,6-.53-.44,2.18-2.54.44.37a1.84,1.84,0,0,0,.32.15c1.75.66,6.51,1.23,9.37,0a14.19,14.19,0,0,0,6.11-5.46l2.81,1.82a17.7,17.7,0,0,1-7.56,6.7c-4,1.76-9.72.95-11.92.12A4.38,4.38,0,0,1,978.23,278.93Zm-73.9-35.19a174.4,174.4,0,0,1,18.91-10.88l1.49,3a170.8,170.8,0,0,0-18.55,10.67Zm63.72,7.66a40.72,40.72,0,0,1,2.38-9.62,48.37,48.37,0,0,1,2.31-5.15l3,1.54a44.94,44.94,0,0,0-2.15,4.79,37.31,37.31,0,0,0-2.18,8.83,31,31,0,0,0-.09,6.29l-3.34.29A34.27,34.27,0,0,1,968.05,251.41Zm18-15-.4-.25,1.77-2.84.43.27a33.69,33.69,0,0,1,13.72,17l-3.17,1.08A30.29,30.29,0,0,0,986,236.38Zm-41.61-9.54c3.83-.69,10.78-1.8,14.33-1.54,2.76.2,5.28.47,7.7.83l-.5,3.31c-2.33-.35-4.77-.61-7.44-.81-2.33-.17-7.25.38-13.5,1.5Zm41.91-7.6a74.88,74.88,0,0,1,18.22-12.39l1.46,3a71.55,71.55,0,0,0-17.41,11.83Z" style="fill:#9bc1f9"/><path d="M1026.11,203.63a64.55,64.55,0,0,1,10.73-.72l.06-3.35a68,68,0,0,0-11.29.76Z" style="fill:#9bc1f9"/><path d="M777,253.45c2,.08,7.54,1.93,15.62,17.2C802.9,290.15,818,349,818,349l-45,16.76-5.78-12.29-9.52-94.65S776.4,253.43,777,253.45Z" style="fill:#a34b3d"/><path d="M717.46,245c12.87,0,44.72,3.77,59.5,8.5,0,0,10.86,93.33-9.78,164.25-4.62,15.88,3.82,65.81,3.82,65.81l-133.37-1.76s15.8-120.72,9.85-140.21-6.09-87.45-6.09-87.45.91-.14,30-5.16A301.93,301.93,0,0,1,717.46,245Z" style="fill:#b75742"/><path d="M701.92,656.73s3,34.06,8.38,43.49-.29,25.46-.57,27.66-11.42,5.34-29.12,3.46-17.42-6-16-12.57,10.85-15.09,11.42-21.38-5.42-28.92-5.42-28.92Z" style="fill:#f7a491"/><path d="M756,455.4s92.07-5.11,112.63,7.34S854,536.3,854,536.3s-64.06-3-189.55,4.29c-29.71,1.71-32.28-77.48-26.72-84S756,455.4,756,455.4Z" style="fill:#e0973f"/><path d="M678.39,734c-18.23-1.94-16-10.9-14.5-17.7.92-4.26,6.15-9.27,9.27-14,1.63,1.3,4.28,3.59,12.2,5.93,8.22,2.43,19.49-2.38,26.67-5.39a88,88,0,0,1,2.44,23.51C714.17,728.59,696.62,735.92,678.39,734Z" style="fill:#dd513a"/><path d="M688.46,521.26c3.68,27.83,21.89,166.4,21.89,166.4l-42.26,5.24s-52-180.86-49.3-208.52,22.12-30,22.12-30S678.72,447.58,688.46,521.26Z" style="fill:#f7cc7f"/><path d="M639.94,264.45c12.47-4.68,18.57,107.68,20.25,153.93,22.08,2.12,60.57,0,70.16-.7,4.51-.34,14.9-4.14,19.38-4.73s8.76-.91,11-.52c.83.14,23.85,9.56,25.82,11.62,2.44,2.56,9,9,7.93,11.81s-12.7-7.78-12.7-7.78l-5.66-3.18c7,6.88,20.49,16,18.55,19.25s-14-6-22.65-12.25c7.41,6.69,16.62,18.67,14.5,20.54-1.91,1.68-12.38-12.19-23.57-16.18-4.15-1.48-8.28,2.62-11.55,3.11-2.4.36-6.1,1.14-8.45.47l-12.12-3.44c-4.13.37-4.23,2.82-8.4,3.7-4.84,1-12.78,2.11-18.95,3.62-35.49,8.67-47.33,12.7-58.2,12.69C612.37,456.4,610.46,275.51,639.94,264.45Z" style="fill:#f7a491"/><path d="M616.27,369.94c-2.34-47.37-2-105.76,24.56-115.72,10.48-3.93,28.95,19.7,25.63,116.68C652.28,372.07,631.47,373,616.27,369.94Z" style="fill:#a34b3d"/><path d="M829.91,689.76s-6.1,10.78-1.3,19.81,30,22.33,32.62,27.23,1.6,8.37,1.6,8.37L788,726.83l5.73-22.55,7-15.58Z" style="fill:#f7a491"/><path d="M832.47,714.39s-21,3.64-29.37-3-7.78-7.87-10.86-6.73c-2,.73-5,9.72-6.89,16a6.15,6.15,0,0,0,4.42,7.73l77.9,19.25c5.92,1.14,9.83-2.56,5.85-7.3-2.73-3.25-6.15-5.78-8-7.48C859.69,727.66,832.47,714.39,832.47,714.39Z" style="fill:#dd513a"/><path d="M822.58,477.22c6-12.52,19.49-28.83,43.3-19,22.71,9.37,28.81,32.39,21.64,56s-54.35,162.15-56,181.21l-37.67.25s6.85-109.73,8.53-136.25C804,533.86,812.28,498.9,822.58,477.22Z" style="fill:#f7cc7f"/><path d="M883.73,349.59H757.81a8.21,8.21,0,0,0-7.6,5.11l-38.77,94.89H642a3.52,3.52,0,0,0-3.52,3.52h0a3.52,3.52,0,0,0,3.52,3.52H839.6a13.79,13.79,0,0,0,12.58-8.17l39-87.27A8.24,8.24,0,0,0,883.73,349.59Z" style="fill:#184655"/><path d="M815.93,404.84c-.85,4.26-4.56,7.11-8.28,6.37s-6-4.81-5.2-9.07,4.56-7.11,8.28-6.37S816.78,400.58,815.93,404.84Z" style="fill:#fff"/><path d="M747.39,131a96.41,96.41,0,0,1-11.14-4.46c-4.08-2-9.36-4.27-12.7-4.79-7-1.08-19.1-.36-25.77,6.87-8.31,9-23.06,1.63-20.09,48.82,3.37,53.42,33.07,47.55,33.79,46.65S738,189.89,738,189.89s9,19.71,9,19S793,146.32,747.39,131Z" style="fill:#0e2e35"/><path d="M724.84,228l2.56,19.09s5.74,27.5-1.65,32.8-31.42-33.58-31.42-33.58l2.54-48.36Z" style="fill:#f7a491"/><path d="M696.06,213.62c6.1,16.5,20.64,26.64,31,30.57L724.84,228l-28-30.06Z" style="fill:#f47458"/><path d="M723.32,145.32a25.45,25.45,0,0,1,29.31,25.74,193.49,193.49,0,0,1-2.14,24.48c-3.4,22-18.44,41.43-28.38,39.7s-34.95-20.74-30.55-52.09C694.29,163.79,706.89,148,723.32,145.32Z" style="fill:#f7a491"/><path d="M698.47,186.89c-.84,4.84-4.72,8.21-8.67,7.53s-6.47-5.17-5.63-10,4.72-8.21,8.67-7.53S699.3,182,698.47,186.89Z" style="fill:#f7a491"/><path d="M692.83,176.87s12,3,16.48-4.74,20.41-24.41,40.68-17.49-17.84-16.81-19.46-16.81-21.08-.14-21.08-.14-15,12.34-15.54,13.7S689,167.51,689,167.51Z" style="fill:#0e2e35"/><path d="M714.82,209.12l21.87,4.18s-2.09,8.24-11.76,6.68C713.14,218.07,714.82,209.12,714.82,209.12Z" style="fill:#fff"/><path d="M969.21,1714.7s-4,27.92-10.89,36.93c-2.31,3-6.53,6.85-9.3,12.31-4.31,8.51-1.93,21.17,1.25,28.15,1.63,3.58-.12,3.57,3.6,4.72,11,3.42,22.73-2.34,27.42-12.95a66,66,0,0,0,5.38-23.79c1.18-25.35,9-38.24,9-38.24Z" style="fill:#f7a491"/><path d="M1089.66,1727.47s2.47,31.48.47,41.71c-1.07,5.48-7.06,16.75-4.31,21.91s5.88,6.45,5.88,6.45l71.1,1.15c3.87.06,1.31-2.44-1.81-4.75-5.11-3.78-9.24-6.28-25.57-14.22-1.06-.52-4.94-3-6.34-3.86a49.28,49.28,0,0,1-10.17-9c-5.11-5.72-5.55-33.44-5.55-33.44Z" style="fill:#f7a491"/><path d="M1145.24,1309s9,51.11,3.08,84.62-34.1,344.11-34.1,344.11l-31.36,1.78s-6.57-129.75-5.4-147.79,10.48-48.24,10.48-48.24l-3.12-104.75,39.57-137.62Z" style="fill:#e25a44"/><path d="M1053.08,1298.26s-24.69,37.38-30.57,68.31,4.31,126-7,166.52c-6.12,21.94-29.32,55.83-32.85,84.18S965.3,1719.9,965.3,1719.9l31.34,6.25,72.84-185.49L1126.62,1373l14.64-86.35Z" style="fill:#f47458"/><path d="M983.43,1778.28c-17.08,3.13-28.45-6.92-34.36-14.44-4.34,8.52-6.46,21.24-3.27,28.24,2.81,6.17,11,6,17.5,6.23,6.84.25,12.14-3.57,15.53-9.56A57.46,57.46,0,0,0,983.43,1778.28Z" style="fill:#f7cc7f"/><path d="M1129.08,1775.85c-18.8,4.85-32.71,1.55-40.48-1.6-2,5.72-4.66,12.89-3.25,17,1.73,5.06,4.18,6.21,6.36,6.26,17.18.45,62.92,1.07,76,1.24a2.15,2.15,0,0,0,1.66-3.54C1166.12,1791.34,1130.48,1776.71,1129.08,1775.85Z" style="fill:#f7cc7f"/><path d="M1257.78,1220.72c1.31-2.79-12.5-6.58-12.95-9.58s18.07-1.31,19-3.81c1.71-4.6-20.17-3.1-19.51-5.27s23.14-4.83,21.16-8.87-23,5.19-23.36,2.56,20.34-6.83,20.57-12.51c.12-3-34.43,11.64-38.05,9.61s5.72-15.41,2.92-17.82-14.93,25.55-17.12,26.36-49.6,15.15-65.72,17.53c-1.36-5.46-13.48-35.5-14.65-40.65-9.46,5.36-21.53-1.09-31.22,3.68,4.88,17.2,15.83,73.85,20.2,76.4,13.33,7.77,83.43-29.27,95-35.82s17.52-3.43,25.08-5.1S1256.47,1223.51,1257.78,1220.72Z" style="fill:#f38b80"/><path d="M1133,1053.85c3.53-16,7-32.16-2.32-49.77-7.52-14.25-20.53-22.45-35.58-24.24-42.65-5.06-33.53,34.75-93.14,43.37-18.52,2.68-35.73,5.25-51.19,14.46-27.92,16.63-38.46,43.32-19.95,86.78,45.35,106.44,153.85,13.95,170.4-4.88S1130.77,1064.16,1133,1053.85Z" style="fill:#0e2e35"/><path d="M1065.91,1104.44s-21.53,2.44-34.42,16.46,20.82,126.64,23.16,144.47-22.4,67.19-22.4,67.19,84.09,16.72,106,2.28c0,0,1.92-137.83-.42-150.57s-21.86-64.54-26.54-69.64S1065.91,1104.44,1065.91,1104.44Z" style="fill:#f7cc7f"/><path d="M1076.75,1061s-.17,1-.47,2.58c-1.45,7.81-7,33.73-10.82,40.85-4.56,8.61,15.62,36.07,35.06,32.72,5.78-1-4.89-25.23-4.38-27.8,1-4.91,2.31-11.62,3.68-18.49l2.28-11.5,3.77-19.09Z" style="fill:#f7a491"/><path d="M1076.28,1063.61c.3-1.63.47-2.58.47-2.58l29.12-.72-3.77,19.09-2.27,11.44c-4.5-.66-9.19-2.84-13.9-7a36.66,36.66,0,0,1-10.53-15.63C1075.76,1066.4,1076.06,1064.82,1076.28,1063.61Z" style="fill:#f47458;opacity:0.5"/><path d="M1094.27,991.82a34.36,34.36,0,0,0-20.48,12.75c-8.6,11.1-17.87,45.44,3.5,64.11s42.48-2.46,45.62-24.87S1125.4,991,1094.27,991.82Z" style="fill:#f7a491"/><path d="M1129.13,1038.28c-1.35,5.4-4.89,9.05-7.9,8.15s-4.37-6-3-11.41,4.89-9.05,7.9-8.15S1130.48,1032.88,1129.13,1038.28Z" style="fill:#f7a491"/><path d="M1107.45,991.92s-27.91,32-41,33.55-14.84,18.86-14.84,18.86,4.69-40,17.67-47.69S1107.45,991.92,1107.45,991.92Z" style="fill:#0e2e35"/><path d="M1070.72,1033.24c1.07,5.8-1.08,11.12-4.79,11.88s-7.59-3.32-8.65-9.12,1.08-11.12,4.79-11.88S1069.65,1027.45,1070.72,1033.24Z" style="fill:#f7a491"/><path d="M1070.32,1195.85,1160.5,1209a5,5,0,0,1,4.19,5.63l-17.6,120.3a5,5,0,0,1-5.63,4.19L1051.29,1326a5,5,0,0,1-4.19-5.63l17.6-120.3A5,5,0,0,1,1070.32,1195.85Z" style="fill:#184655"/><path d="M1137.58,1201.7a1,1,0,0,0-.85-1.14l-37.61-5.5a1,1,0,0,0-1.14.85l-.57,3.91,39.6,5.79Z" style="fill:#13375b"/><path d="M1118.62,1193.05a6,6,0,1,0,5.06,6.8A6,6,0,0,0,1118.62,1193.05Zm-1.42,9.74a3.85,3.85,0,1,1,4.36-3.25A3.85,3.85,0,0,1,1117.2,1202.79Z" style="fill:#13375b"/><path d="M1137.11,1200.69a1,1,0,0,1,.47,1l-.57,3.91-39.6-5.79a5,5,0,0,0,4.19,5.62l29.79,4.36a5,5,0,0,0,5.62-4.19l.57-3.91A1,1,0,0,0,1137.11,1200.69Z" style="fill:#355389"/><path d="M1109.54,1054.91l-20.29-.11s.43,7.71,9.35,8C1109.48,1063.19,1109.54,1054.91,1109.54,1054.91Z" style="fill:#fff"/><path d="M1007.06,1226.61l32.67,3.34s-.53,27.73,0,30.92c0,0,55.87,15.49,79.22,19.69,0,0,10.63-6,14.93-7.94s15.86-4,18.42-4.34,1.68,2.47-.51,3.45-7.88,3.66-9.49,6.93c0,0,4.61.5,7.05-.58s5.8-3.39,5.86-4.58.61-4.07,1.41-3.92c.2,0,.48,1,.75,2s.54,1.9.76,2.85c.41,1.7.88,4.18,1.07,5.3.42,2.55-1.14,9.57-1.36,12.07-.4,4.55-1.7,6.58-4.11,7.74a59.44,59.44,0,0,1-14,2.84c-11.11,1.15-21.33-2-25.79-2.55s-75.6-7.56-75.6-7.56-28.28-4.07-30.16-8.94S1007.06,1226.61,1007.06,1226.61Z" style="fill:#f7a491"/><path d="M1035.44,1116.83s-10.31,4.89-19.38,26c-8.61,20.07-11.15,120.23-11.15,120.23l34.18-5.7,17.37-46.7a85.65,85.65,0,0,0-8.85-85.18C1042.8,1118.91,1038.37,1114.93,1035.44,1116.83Z" style="fill:#f7cc7f"/><rect x="1574.37" y="635.67" width="145.07" height="145.07" style="fill:#9bc1f9;opacity:0.6000000000000001"/><rect x="1745.1" y="635.67" width="283" height="19.71" style="fill:#9bc1f9;opacity:0.6000000000000001"/><rect x="1745.1" y="677.46" width="190.98" height="19.71" style="fill:#9bc1f9;opacity:0.6000000000000001"/><rect x="1745.1" y="719.24" width="254.2" height="19.71" style="fill:#9bc1f9;opacity:0.6000000000000001"/><path d="M2125.48,1117.25c-5.93-4.82-51.79,15.3-51.21,22.31s-32,74.91-32,74.91l-56.3-44.89h0c-.5-1.62-5.84-19.08-6.09-22.21-.27-3.28-9.79-9-14.21-8.17s3.78,6.39,4.32,7.41c1.47,2.77-4.2,3.81-4.2,3.81s-16.08-5.16-16.42-10.41-11.34,9.18-10,11.19,27.53,23.13,31.32,27.72c0,0,72.83,83.25,78,85.43,4.55,1.91,20.77-26.78,36.1-45.83S2144,1132.32,2125.48,1117.25Z" style="fill:#f7a491"/><path d="M2272.42,1729.41s10,9.76,10.23,13.35.89,42-3.2,45.56-16.09,6.13-12.23,10.16c2.91,3,25.35,2.4,40.22,1.58,4.34-.24,9.78-34.87,11.5-40,2.5-7.39,8.57-24,6.3-29.19-1.11-2.51-6.4-7.67-13.85-12.49-7.84-5.06-15.34-16.34-15.34-16.34Z" style="fill:#f48c7f"/><path d="M2168.75,1752.15s9,25.3,9,25.36c.67,4,3.29,13.91,3.29,17.55,0,13.69-61.73-11.62-47.9-17.69,1.25-.55,5.18-4.93,5.59-9.59.63-7.18-5.2-16.18-5.2-16.18Z" style="fill:#f7a491"/><path d="M2071.91,1281s-4.5,45.35-4.5,46c0,73.37-14.54,216.67-11.78,230.47,6.75,33.64,79.37,205.27,79.37,205.27l39.25-4.69-42.13-207.39,9.8-80.8,26.63-163.49Z" style="fill:#50bfa5"/><path d="M2203.64,1321.16l7.45,43,20.15,176.91L2308,1714s-10.79,25.16-26.72,28.69l-122.13-177.52L2083.25,1338l2.66-50.46Z" style="fill:#96d9c9"/><path d="M2056.26,1173.06l54.42,5.56s2.5-44.62,2.5-65.9c0-25.82-2.2-59.08-5.32-58.36-8.75,2-20.54,6.84-27.55,16.48C2056,1104.2,2056.26,1173.06,2056.26,1173.06Z" style="fill:#b75742"/><path d="M2083,1108.16c-1.14,7.87-22.06,221.9-22.06,221.9,99.09,47.86,153.78,8.53,153.78,8.53s-3.24-150.29.64-170.75c2.57-13.53,5.78-103.47-3-106-11.25-3.23-24.16-6.67-38.22-8.12-12-1.25-58.65-2-67,.83C2107.14,1054.56,2087.79,1075.05,2083,1108.16Z" style="fill:#f47458"/><path d="M2310.91,1718.17s-23.06,64.94-32.09,68.08c-2.4.83-13.9,2.94-16.07,8-.65,1.53,0,6.65,0,6.65h48.08s6.08-28.61,8.48-41.19c0,0,12.73-30.72,11.31-33.51S2310.91,1718.17,2310.91,1718.17Z" style="fill:#f47458"/><path d="M2184.52,1799.58l-7.07-22.33s-14.85,6.28-22.27,5.23-21.92-5.23-21.92-5.23c-29.63,9.75-53.9,14.49-49.49,22.33h100.75Z" style="fill:#f47458"/><path d="M2048.62,1264.37a12.73,12.73,0,0,1-1.5-1.11c1.76-21,1.44-41.29-5.14-48.16l3.1-6.56c7.63,5.9,11.25,21.57,9.83,47a43.26,43.26,0,0,1-1,5.27C2051.7,1263.25,2049.69,1264.82,2048.62,1264.37Z" style="fill:#f7a491"/><path d="M2160.89,1012.35l6.39,42.1s-23.33,50.13-37.25,45.78c-11.68-3.65-4.5-48-4.5-48s6.37-23.82,4.46-35.74S2160.89,1012.35,2160.89,1012.35Z" style="fill:#f7a491"/><path d="M2130,1016.49c-1.91-11.92,30.9-4.14,30.9-4.14l.53,3.49a19.41,19.41,0,0,1-3.56,5.87c-7.33,7.89-18.79,12.63-28.69,13C2130.16,1028.27,2130.77,1021.38,2130,1016.49Z" style="fill:#f47458"/><path d="M2166.27,952.79c.93-.34,7.43,47.95-4.91,61.24s-36.4,17.63-45,7.17c-9.54-11.57-9.06-63.47,10.13-77.14S2166.27,952.79,2166.27,952.79Z" style="fill:#f7a491"/><path d="M2133.77,918.23a53.32,53.32,0,0,1,28,16c6.74.79,15.89,4.52,25.35,20.17,11.63,19.25,3,40.58-10.49,51s-13.35,22.55-13.35,22.55l-2.14-6.25a35,35,0,0,1-1.69-14.73,28.78,28.78,0,0,1,2.19-8.85c3.26-7-7-11.63-9.87-17.45-2.21-4.48-2.32-14.72-5.81-22.12l-4.16-5.65s-9.6-7.47-19-5.36S2114.73,914.35,2133.77,918.23Z" style="fill:#0e2e35"/><ellipse cx="2158.53" cy="989.38" rx="10.67" ry="6.16" transform="translate(1132.51 3130.73) rotate(-89.02)" style="fill:#f7a491"/><path d="M2132.32,1002.88l-18.61-1s.06,7.09,8.24,7.75C2131.91,1010.48,2132.32,1002.88,2132.32,1002.88Z" style="fill:#fff"/><path d="M1980,1113q6.56-6.71,12.24-13.81l81.23,79.32c5,4.88,3.27,14.73-3.84,22s-16.93,9.24-21.92,4.36l-81.23-79.32Q1973.46,1119.68,1980,1113Z" style="fill:#0e2e35"/><ellipse cx="1830.99" cy="967.4" rx="204.88" ry="206.15" transform="translate(-140.4 1601.42) rotate(-45.68)" style="fill:#c5ddf9;opacity:0.6000000000000001"/><path d="M1978.71,1109.26a204.7,204.7,0,0,1-130.44,63.84L1626,947.22c0-.43.08-.85.12-1.28a206.09,206.09,0,0,1,64.63-129.33Z" style="fill:#fff;mix-blend-mode:soft-light"/><path d="M1829.23,761.66l205.51,208.89c-.1,6.32-.47,12.69-1.16,19.1a206.51,206.51,0,0,1-25.81,80.26L1730.23,787.8A203,203,0,0,1,1829.23,761.66Z" style="fill:#fff;mix-blend-mode:soft-light"/><path d="M1669.16,1133.1c92.08,89.93,239.19,88.64,328.56-2.87s87.18-238.61-4.91-328.54-239.19-88.64-328.56,2.87S1577.07,1043.17,1669.16,1133.1Zm18.68-19.13c-81.45-79.55-83.4-209.66-4.34-290.61s209.18-82.09,290.63-2.54,83.4,209.66,4.34,290.61S1769.3,1193.52,1687.84,1114Z" style="fill:#184655"/><path d="M1679,1123c86.5,84.47,224.67,83.27,308.62-2.7s81.89-224.13-4.61-308.6-224.67-83.27-308.62,2.7S1592.48,1038.57,1679,1123Zm8.86-9.07c-81.45-79.55-83.4-209.66-4.34-290.61s209.18-82.09,290.63-2.54,83.4,209.66,4.34,290.61S1769.3,1193.52,1687.84,1114Z" style="fill:#50bfa5;opacity:0.5;mix-blend-mode:multiply"/><path d="M2325.79,1461.08l12.62-13.09a32.91,32.91,0,0,0-.85-46.53L2103,1174.09a32.91,32.91,0,0,0-46.53.85L2043.89,1188a32.91,32.91,0,0,0,.85,46.53l234.51,227.36A32.91,32.91,0,0,0,2325.79,1461.08Z" style="fill:#184655"/><path d="M2312.86,1332.33a6,6,0,0,0,0-1.38c-1.46-14.82-13.77-139.28-15.84-144.57-1.87-4.78-57.06-83.72-57.06-83.72l-27.13,37,53.08,70.8c1.19,4.5,20.34,88.52,20.34,88.52s3.93,15.31,5.68,24.49c-.8,2.21-1.59,4.3-2.29,6a55.22,55.22,0,0,1-5.72,9.19c-2.37,3.18-6.29,10.13-6.78,12-.56,2.16-1.58,6.65-2.15,9.36s-1.36,5.87-1.49,7.34a14.16,14.16,0,0,1-1.71,3.94,2.37,2.37,0,0,0,2.8,3.42c1.93-.64,3.43-3.14,4.35-4.69,2.61-4.39,4-12.41,4.66-12s2.94,14,3.3,15.56,3.11,17.33,4.66,20.22,3.6,2.4,4.14.6c.47-1.56-1.71-23.65-1.71-23.65s-.27-2.82,1-1.94,3.25,20.94,4.11,23.88,2.82,4.49,4.48,2.13c2-2.87-1.45-24.15-1.45-24.15s-.39-2.67.75-2.43,2.57,17.35,3.46,18.82,3.13,2,4.2-.46c1.26-2.9-2-21.87-2-21.87s.16-1.51.87-1,3,15,4.45,16.33a1.57,1.57,0,0,0,2.27,0c2.71-1.85-1.44-15.63-1.4-22.48s-3.14-14.55-2.19-22.71C2312.58,1334.37,2312.75,1333.12,2312.86,1332.33Z" style="fill:#f8a492"/><path d="M2283.1,1152.65l-47.15,31.65s-26.57-39.54-40.84-53.62c-17.87-17.64,6.51-71.66,18-68.6C2238.89,1068.92,2283.1,1152.65,2283.1,1152.65Z" style="fill:#f47458"/></g></g></g></svg>