<?xml version="1.0" encoding="UTF-8" standalone="no"?>
<svg
   xmlns:dc="http://purl.org/dc/elements/1.1/"
   xmlns:cc="http://creativecommons.org/ns#"
   xmlns:rdf="http://www.w3.org/1999/02/22-rdf-syntax-ns#"
   xmlns:svg="http://www.w3.org/2000/svg"
   xmlns="http://www.w3.org/2000/svg"
   xmlns:sodipodi="http://sodipodi.sourceforge.net/DTD/sodipodi-0.dtd"
   xmlns:inkscape="http://www.inkscape.org/namespaces/inkscape"
   version="1.1"
   id="svg2"
   xml:space="preserve"
   width="642.8667"
   height="228.06667"
   viewBox="0 0 642.8667 228.06667"
   sodipodi:docname="freddie-mac-seeklogo.com.eps"><metadata
     id="metadata8"><rdf:RDF><cc:Work
         rdf:about=""><dc:format>image/svg+xml</dc:format><dc:type
           rdf:resource="http://purl.org/dc/dcmitype/StillImage" /></cc:Work></rdf:RDF></metadata><defs
     id="defs6" /><sodipodi:namedview
     pagecolor="#ffffff"
     bordercolor="#666666"
     borderopacity="1"
     objecttolerance="10"
     gridtolerance="10"
     guidetolerance="10"
     inkscape:pageopacity="0"
     inkscape:pageshadow="2"
     inkscape:window-width="640"
     inkscape:window-height="480"
     id="namedview4" /><g
     id="g10"
     inkscape:groupmode="layer"
     inkscape:label="ink_ext_XXXXXX"
     transform="matrix(1.3333333,0,0,-1.3333333,0,228.06667)"><g
       id="g12"
       transform="scale(0.1)"><path
         d="M 0,10.6484 H 1119.77 V 1682.12 L 0,1682.12 V 10.6484"
         style="fill:#ffffff;fill-opacity:1;fill-rule:evenodd;stroke:none"
         id="path14" /><path
         d="M 0.0234375,1682.09 V 548.059 L 729.176,1064.56 1119.8,787.898 V 1682.09 H 0.0234375"
         style="fill:#4296d8;fill-opacity:1;fill-rule:evenodd;stroke:none"
         id="path16" /><path
         d="M 729.176,853.215 0.00390625,336.691 V 10.6016 H 1119.78 V 576.582 L 729.176,853.215"
         style="fill:#5ab634;fill-opacity:1;fill-rule:evenodd;stroke:none"
         id="path18" /><path
         d="m 620.715,251.281 h 216.488 v 301.25 H 620.715 v -301.25"
         style="fill:#ffffff;fill-opacity:1;fill-rule:evenodd;stroke:none"
         id="path20" /><path
         d="m 1411.96,1545.25 c 0,79.73 5.06,102.82 -83.59,102.82 -12.82,0 -40.36,1.41 -40.36,18.09 0,12.75 10.36,16.56 21.85,16.56 41.09,0 79.71,-4.9 120.82,-4.9 146.62,0 293.29,4.9 441.23,4.9 25.63,0 20.59,-25.71 20.59,-44.84 v -90.05 c 0,-10.22 6.4,-50.2 -12.83,-50.2 -12.93,0 -18.08,18.03 -20.65,27.06 -34.72,122.09 -111.93,123.38 -226.29,123.38 -21.9,0 -88.81,0 -109.4,-8.83 -19.25,-9.08 -16.72,-45.06 -16.72,-61.83 V 1394.8 c 0,-60.43 11.58,-60.43 64.34,-60.43 38.58,0 105.47,-1.22 155.68,5.1 32.08,3.91 38.51,51.43 44.97,88.83 1.33,7.76 5.03,21.83 16.72,21.83 6.37,0 14.14,-2.66 14.14,-12.88 -1.24,-36.04 -3.86,-74.53 -6.45,-110.64 2.59,-41.11 5.21,-79.65 6.45,-120.91 0,-20.59 -7.77,-23.17 -14.14,-23.17 -11.69,0 -15.39,14.18 -16.72,21.9 -6.46,37.29 -16.77,75.78 -44.97,82.33 -50.21,11.58 -117.1,11.58 -155.68,11.58 -51.34,0 -64.34,0 -64.34,-43.79 v -239.14 c 0,-82.371 -5.12,-105.621 83.62,-106.82 11.58,0 33.43,1.199 33.43,-15.445 0,-14.047 -10.18,-16.641 -21.85,-16.641 -48.9,0 -95.2,5.148 -143.99,5.148 -48.94,0 -97.92,-5.148 -146.71,-5.148 -11.41,0 -21.81,2.594 -21.81,16.641 0,16.636 27.57,15.445 39.07,15.445 89.96,0 83.59,25.738 83.59,106.82 v 529.84 0"
         style="fill:#100f0d;fill-opacity:1;fill-rule:evenodd;stroke:none"
         id="path22" /><path
         d="m 1977.51,1224.27 c 0,16.64 1.2,62.81 -11.8,75.78 -7.14,8.24 -24.96,9.41 -34.46,9.41 h -15.35 c -7.08,0 -14.09,2.36 -14.09,9.54 0,14.21 16.65,16.46 27.22,20.07 28.36,8.41 79.34,39 98.28,61.59 5.77,5.86 11.81,15.36 21.3,15.36 11.83,0 10.56,-10.74 10.56,-18.87 v -58.08 c 0,-4.61 -2.41,-24.75 5.91,-24.75 11.8,0 57.92,94.59 139.47,94.59 35.63,0 67.58,-21.16 67.58,-56.84 0,-29.44 -21.33,-47.21 -49.68,-47.21 -40.24,0 -42.66,44.86 -75.69,44.86 -26.03,0 -46.26,-24.71 -60.39,-42.44 -28.44,-40.27 -27.2,-71.14 -27.2,-118.45 v -186.98 c 0,-50.78 -10.57,-91.049 53.15,-96.998 11.89,-1.125 33.26,0 33.26,-15.262 0,-9.531 -5.9,-13.039 -14.26,-13.039 -37.85,0 -75.7,4.722 -111.24,4.722 -37.85,0 -75.7,-4.722 -112.36,-4.722 -8.22,0 -16.63,2.304 -16.63,11.801 0,17.73 20.12,15.375 33.13,16.507 63.87,5.95 53.28,46.215 53.28,97.001 v 222.41 h 0.01"
         style="fill:#100f0d;fill-opacity:1;fill-rule:evenodd;stroke:none"
         id="path24" /><path
         d="m 2493.89,1231.39 c 36.67,0 102.98,1.18 137.24,9.54 26,5.86 43.88,18.85 43.88,47.44 0,24.89 -14.28,51.88 -30.83,69.7 -26.09,27.25 -65.15,29.62 -102.95,29.62 -60.34,0 -118.36,-28.87 -153.79,-78.65 -10.74,-12.96 -29.53,-43.3 -29.53,-62.25 0,-18.82 27.02,-15.4 40.16,-15.4 h 95.82 z m -96.96,-28.26 c -36.75,0 -48.58,2.08 -48.58,-36.76 0,-132.49 86.35,-247.304 229.47,-247.304 116.09,0 159.85,76.829 175.19,76.829 5.9,0 9.41,-4.59 9.41,-9.313 0,-14.312 -37.85,-46.082 -46.1,-53.289 -55.59,-47.258 -113.59,-66.25 -186.88,-66.25 -155.04,0 -269.8,124.262 -269.8,272.107 0,80.47 22.47,143.15 85.15,197.52 59.14,52.25 132.57,79.38 213.13,79.38 63.8,0 128.9,-22.45 170.12,-73.34 23.79,-29.44 41.53,-80.47 41.53,-119.53 0,-9.46 -2.39,-20.04 -14.29,-20.04 h -358.35 v -0.01 0"
         style="fill:#100f0d;fill-opacity:1;fill-rule:evenodd;stroke:none"
         id="path26" /><path
         d="m 4545.69,1231.39 c 36.7,0 102.98,1.18 137.24,9.54 26.13,5.86 43.84,18.85 43.84,47.44 0,24.89 -14.11,51.88 -30.75,69.7 -26.05,27.25 -65.17,29.62 -102.94,29.62 -60.35,0 -118.34,-28.87 -153.84,-78.65 -10.6,-12.96 -29.46,-43.3 -29.46,-62.25 0,-18.82 27.06,-15.4 40.12,-15.4 h 95.79 z m -96.95,-28.26 c -36.65,0 -48.54,2.08 -48.54,-36.76 0,-132.49 86.25,-247.304 229.48,-247.304 116.08,0 159.84,76.829 175.18,76.829 6.04,0 9.41,-4.59 9.41,-9.313 0,-14.312 -37.81,-46.082 -46.06,-53.289 -55.55,-47.258 -113.6,-66.25 -186.98,-66.25 -155.04,0 -269.78,124.262 -269.78,272.107 0,80.47 22.54,143.15 85.15,197.52 59.23,52.25 132.58,79.38 213.11,79.38 63.81,0 129.08,-22.45 170.13,-73.34 23.82,-29.44 41.61,-80.47 41.61,-119.53 0,-9.46 -2.48,-20.04 -14.28,-20.04 h -358.43 v -0.01 0"
         style="fill:#100f0d;fill-opacity:1;fill-rule:evenodd;stroke:none"
         id="path28" /><path
         d="m 4141.87,1575.78 c 0,30.73 21.47,59.21 53.42,59.21 30.75,0 49.56,-28.48 49.56,-56.79 0,-32.04 -17.61,-59.22 -51.96,-59.22 -31.85,0 -51.02,26 -51.02,56.8 z m 92.38,-573.9 c 0,-50.853 -10.56,-91.095 53.34,-96.997 11.79,-1.149 32.97,0 32.97,-15.285 0,-9.586 -5.68,-13.067 -13.8,-13.067 -38.16,0 -75.96,4.727 -111.46,4.727 -37.9,0 -75.65,-4.727 -112.34,-4.727 -8.34,0 -16.69,2.313 -16.69,11.809 0,17.73 20.23,15.394 33.14,16.551 63.94,5.902 53.21,46.148 53.21,96.999 v 222.4 c 0,16.64 1.33,62.79 -11.8,75.75 -7.1,8.23 -24.85,9.4 -34.25,9.4 h -15.36 c -7.1,0 -14.37,2.39 -14.37,9.54 0,14.22 16.72,16.51 27.33,20.13 28.4,8.35 79.24,38.97 98.24,61.56 5.86,5.88 11.8,15.37 21.3,15.37 11.72,0 10.56,-10.74 10.56,-18.9 v -395.26 h -0.02 v 0"
         style="fill:#100f0d;fill-opacity:1;fill-rule:evenodd;stroke:none"
         id="path30" /><path
         d="m 1754.97,177.441 243.62,558.528 c 7.14,15.328 19.04,15.328 31.99,15.328 h 131.36 c 12.94,0 34.35,5.945 34.35,-12.961 0,-16.586 -16.49,-18.941 -28.44,-18.941 -15.31,0 -41.36,3.554 -51.99,-9.407 -14.21,-16.597 -9.58,-62.609 -9.58,-83.968 V 137.34 c 0,-18.988 -1.18,-66.2892 13.13,-82.84 11.72,-14.3398 29.44,-15.4805 46.06,-15.4805 11.78,0 36.63,2.4805 36.63,-15.3593 0,-12.961 -13,-14.1602 -22.3,-14.1602 -38,0 -75.74,4.6602 -113.59,4.6602 -47.34,0 -94.73,-4.6602 -140.99,-4.6602 -9.4,0 -22.54,1.1992 -22.54,14.1602 0,17.8398 25.03,15.3593 36.86,15.3593 17.72,0 42.57,6.0821 55.66,16.5899 20.04,16.6406 17.66,60.3006 17.66,81.7306 v 535.98 h -8.21 L 1741.93,58 c -3.59,-8.2891 -7.23,-21.1992 -17.73,-21.1992 -11.8,0 -15.4,14.0976 -17.7,22.2305 L 1473.35,659.051 h -7.54 V 171.59 c 1.09,-74.2697 -5.17,-132.5705 78.8,-132.5705 11.76,0 36.7,1.1407 36.7,-15.3593 C 1581.31,9.5 1565.91,9.5 1555.2,9.5 c -35.45,0 -71.02,4.6602 -106.38,4.6602 -35.52,0 -71.06,-4.6602 -105.4,-4.6602 -10.54,0 -18.95,2.3516 -18.95,14.1602 0,14.1992 20.3,15.3593 30.86,15.3593 66.3,0 70.24,30.7813 73.75,88.7425 V 652.07 c 0.94,64 0.4,67.328 -63.38,67.328 -11.91,0 -28.4,2.356 -28.4,18.95 0,18.906 21.22,12.957 34.3,12.957 h 137.22 c 22.35,0 23.63,-15.328 30.75,-34.231 l 215.4,-539.633"
         style="fill:#100f0d;fill-opacity:1;fill-rule:evenodd;stroke:none"
         id="path32" /><path
         d="m 2414.64,235.43 c -46.08,-23.598 -92.26,-54.348 -92.26,-111.141 0,-46.1874 37.85,-67.3984 81.65,-67.3984 41.44,0 81.62,18.9883 110.06,47.3004 28.36,29.59 29.54,47.258 29.54,86.391 v 70.996 c 0,4.613 3.63,33.012 -8.24,33.012 -3.48,0 -9.4,-3.551 -12.97,-4.66 z m 85.15,66.429 c 42.66,19.922 43.84,21.121 43.84,66.071 v 52.179 c 0,57.973 -2.31,99.821 -75.61,99.821 -72.29,0 -109.09,-32.391 -136.13,-92.852 -8.3,-17.656 -14.18,-34.25 -33.04,-42.598 -12.02,-5.769 -36.74,-15.308 -51.08,-15.308 -9.38,0 -15.3,2.348 -15.3,14.238 0,30.789 27.13,65.012 49.76,84 55.58,49.738 136.04,81.602 211.63,81.602 36.76,0 80.62,-5.91 107.8,-30.641 28.31,-23.762 23.6,-54.551 23.6,-86.512 V 152.68 c 0,-26.09 -1.15,-94.68 41.36,-94.68 29.73,0 42.68,29.5391 53.47,29.5391 4.56,0 8.12,-4.6993 8.12,-9.4493 0,-13.039 -20.11,-29.6914 -28.39,-36.6093 -23.57,-16.6407 -53.34,-34.33987 -84.05,-34.33987 -58.01,0 -63.83,82.78907 -80.38,82.78907 C 2524.67,89.9297 2447.81,0 2344.93,0 c -55.71,0 -111.28,34.3906 -111.28,93.4414 0,83.9996 110.07,133.7776 174.98,165.7306 l 91.16,42.687 v 0"
         style="fill:#100f0d;fill-opacity:1;fill-rule:evenodd;stroke:none"
         id="path34" /><path
         d="m 3158.04,397.609 c -37.95,0 -59.11,128.063 -154.9,128.063 -41.44,0 -88.83,-20.461 -119.46,-46.434 -54.66,-47.418 -85.27,-119.558 -85.27,-191.707 0,-120.742 88.6,-243.8201 221.24,-243.8201 50.79,0 99.29,16.5977 136.12,52.1289 3.37,3.4219 11.75,14.2502 17.57,14.2502 4.75,0 8.34,-4.801 8.34,-9.641 0,-11.7888 -27.24,-35.3592 -35.54,-42.4099 -48.41,-39.0977 -107.56,-58.0273812 -171.49,-58.0273812 -145.63,0 -265.08,120.6872812 -265.08,263.7772812 0,159.832 149.05,285.223 307.58,285.223 45.09,0 107.73,-12.981 145.63,-39.032 15.31,-10.671 9.41,-36.718 9.41,-52.058 -0.01,-9.5 7.18,-60.313 -14.15,-60.313"
         style="fill:#100f0d;fill-opacity:1;fill-rule:evenodd;stroke:none"
         id="path36" /><path
         d="m 3254.54,973.598 c -33.01,-39.071 -90.96,-55.664 -139.5,-55.664 -131.25,0 -204.64,121.826 -204.64,240.176 0,118.41 77.02,219.55 205.88,231.35 38.95,3.6 93.36,-10.67 121.84,-37.89 30.75,-28.48 28.39,-67.99 28.39,-104.75 V 1032.7 c 0,-23.65 3.56,-40.157 -11.97,-59.102 z m 187.33,-23.723 c -10.74,0 -23.83,-29.617 -53.51,-29.617 -37.76,0 -40.24,57.969 -40.24,71.062 v 700.48 c 0,9.36 1.29,18.71 -10.66,18.71 -8.21,0 -19.03,-8.12 -24.8,-12.89 -28.36,-18.95 -73.3,-30.78 -106.45,-36.59 -7.01,-1.3 -16.64,-4.76 -16.64,-13.08 0,-15.36 20.07,-11.95 30.89,-11.95 56.7,0 46.05,-51.93 46.05,-95.63 v -112.51 c 0,-7.05 4.75,-43.7 -9.57,-43.7 -5.78,0 -16.46,4.72 -22.5,7.12 -38.96,15.26 -82.71,26.05 -126.51,24.71 -96.24,-2.86 -149.08,-34.34 -202.2,-85.14 -53.24,-50.88 -82.92,-115.95 -82.92,-190.56 0,-141.892 105.29,-273.298 255.58,-273.298 95.83,0 164.43,79.246 182.18,79.246 13.04,0 21.25,-31.84 24.05,-38.715 10.82,-30.929 25.51,-38.07 52.97,-38.07 30.62,0 60.39,17.641 84.04,34.254 8.21,6.965 28.3,23.578 28.3,36.621 0.02,4.738 -3.44,9.547 -8.06,9.547 v 0 0"
         style="fill:#100f0d;fill-opacity:1;fill-rule:evenodd;stroke:none"
         id="path38" /><path
         d="m 3854.26,973.598 c -33.14,-39.071 -91.1,-55.664 -139.51,-55.664 -131.42,0 -204.72,121.826 -204.72,240.176 0,118.41 76.89,219.55 205.79,231.35 39.09,3.6 93.44,-10.67 121.93,-37.89 30.71,-28.48 28.4,-67.99 28.4,-104.75 V 1032.7 c 0.01,-23.65 3.54,-40.157 -11.89,-59.102 z m 187.25,-23.723 c -10.83,0 -23.79,-29.617 -53.56,-29.617 -37.67,0 -40.16,57.969 -40.16,71.062 v 700.48 c 0,9.36 1.15,18.71 -10.74,18.71 -8.25,0 -18.94,-8.12 -24.76,-12.89 -28.4,-18.95 -73.39,-30.78 -106.49,-36.59 -7.06,-1.3 -16.68,-4.76 -16.68,-13.08 0,-15.36 20.14,-11.95 30.83,-11.95 56.79,0 46.19,-51.93 46.19,-95.63 v -112.51 c 0,-7.05 4.7,-43.7 -9.59,-43.7 -5.85,0 -16.45,4.72 -22.44,7.12 -39,15.26 -82.85,26.05 -126.6,24.71 -96.15,-2.86 -148.99,-34.34 -202.2,-85.14 -53.28,-50.88 -82.93,-115.95 -82.93,-190.56 0,-141.892 105.29,-273.298 255.58,-273.298 95.84,0 164.44,79.246 182.23,79.246 12.96,0 21.21,-31.84 24,-38.715 10.83,-30.929 25.52,-38.07 52.95,-38.07 30.7,0 60.43,17.641 84.03,34.254 8.43,6.965 28.31,23.578 28.31,36.621 0.01,4.738 -3.36,9.547 -7.97,9.547 v 0 0"
         style="fill:#100f0d;fill-opacity:1;fill-rule:evenodd;stroke:none"
         id="path40" /></g></g></svg>
