<?xml version="1.0" encoding="UTF-8" standalone="no"?>
<svg
   xmlns:dc="http://purl.org/dc/elements/1.1/"
   xmlns:cc="http://creativecommons.org/ns#"
   xmlns:rdf="http://www.w3.org/1999/02/22-rdf-syntax-ns#"
   xmlns:svg="http://www.w3.org/2000/svg"
   xmlns="http://www.w3.org/2000/svg"
   xmlns:sodipodi="http://sodipodi.sourceforge.net/DTD/sodipodi-0.dtd"
   xmlns:inkscape="http://www.inkscape.org/namespaces/inkscape"
   version="1.1"
   id="svg2"
   xml:space="preserve"
   width="570.22668"
   height="63.893333"
   viewBox="0 0 570.22668 63.893333"
   sodipodi:docname="freddie-mac-seeklogo.com.eps"><metadata
     id="metadata8"><rdf:RDF><cc:Work
         rdf:about=""><dc:format>image/svg+xml</dc:format><dc:type
           rdf:resource="http://purl.org/dc/dcmitype/StillImage" /></cc:Work></rdf:RDF></metadata><defs
     id="defs6" /><sodipodi:namedview
     pagecolor="#ffffff"
     bordercolor="#666666"
     borderopacity="1"
     objecttolerance="10"
     gridtolerance="10"
     guidetolerance="10"
     inkscape:pageopacity="0"
     inkscape:pageshadow="2"
     inkscape:window-width="640"
     inkscape:window-height="480"
     id="namedview4" /><g
     id="g10"
     inkscape:groupmode="layer"
     inkscape:label="ink_ext_XXXXXX"
     transform="matrix(1.3333333,0,0,-1.3333333,0,63.893333)"><g
       id="g12"
       transform="scale(0.1)"><path
         d="m 2909.62,275.523 h 121.14 v -29.16 h -87.74 v -51.422 h 82.71 v -28.089 h -82.71 V 87.8633 h -33.4 V 275.523"
         style="fill:#4ca6e1;fill-opacity:1;fill-rule:nonzero;stroke:none"
         id="path14" /><path
         d="m 3044.01,215.09 h 30.48 v -21.211 h 0.53 c 3.53,7.43 8.48,13.434 14.85,18.031 6.36,4.59 13.79,6.891 22.26,6.891 1.23,0 2.56,-0.039 3.98,-0.133 1.41,-0.086 2.65,-0.309 3.71,-0.656 v -29.164 c -2.12,0.535 -3.94,0.879 -5.44,1.062 -1.5,0.168 -2.96,0.262 -4.37,0.262 -7.25,0 -13.08,-1.324 -17.5,-3.969 -4.41,-2.652 -7.86,-5.832 -10.33,-9.543 -2.48,-3.711 -4.16,-7.519 -5.04,-11.398 -0.89,-3.895 -1.32,-6.985 -1.32,-9.285 V 87.8594 h -31.81 V 215.09"
         style="fill:#4ca6e1;fill-opacity:1;fill-rule:nonzero;stroke:none"
         id="path16" /><path
         d="m 3218.16,164.199 c 0,4.059 -0.58,7.949 -1.73,11.656 -1.14,3.711 -2.97,6.985 -5.44,9.817 -2.47,2.824 -5.61,5.078 -9.41,6.758 -3.79,1.679 -8.26,2.519 -13.37,2.519 -9.55,0 -17.64,-2.883 -24.27,-8.621 -6.61,-5.738 -10.28,-13.117 -11,-22.129 z m 31.8,-14.308 v -4.246 c 0,-1.415 -0.08,-2.825 -0.27,-4.239 h -96.75 c 0.36,-4.597 1.55,-8.797 3.6,-12.586 2.02,-3.812 4.71,-7.07 8.07,-9.808 3.35,-2.746 7.15,-4.903 11.39,-6.504 4.26,-1.586 8.66,-2.379 13.26,-2.379 7.95,0 14.66,1.461 20.15,4.371 5.48,2.918 9.98,6.938 13.51,12.059 l 21.21,-16.961 c -12.55,-16.9691 -30.75,-25.4496 -54.61,-25.4496 -9.9,0 -18.99,1.5508 -27.3,4.6407 -8.31,3.0898 -15.51,7.4687 -21.59,13.1209 -6.11,5.649 -10.88,12.59 -14.33,20.809 -3.44,8.211 -5.15,17.531 -5.15,27.961 0,10.25 1.71,19.57 5.15,27.968 3.45,8.391 8.19,15.54 14.18,21.469 6.02,5.91 13.14,10.512 21.34,13.781 8.22,3.274 17.1,4.903 26.64,4.903 8.85,0 17.01,-1.449 24.52,-4.371 7.51,-2.918 14.01,-7.25 19.48,-12.992 5.48,-5.739 9.76,-12.903 12.87,-21.469 3.08,-8.571 4.63,-18.602 4.63,-30.078"
         style="fill:#4ca6e1;fill-opacity:1;fill-rule:nonzero;stroke:none"
         id="path18" /><path
         d="m 3296.08,152.008 c 0,-4.949 0.75,-9.903 2.24,-14.844 1.51,-4.945 3.75,-9.367 6.77,-13.258 3,-3.89 6.8,-7.058 11.4,-9.539 4.6,-2.472 9.98,-3.711 16.17,-3.711 5.83,0 11.03,1.192 15.63,3.578 4.59,2.383 8.53,5.524 11.8,9.411 3.26,3.882 5.73,8.261 7.41,13.121 1.68,4.863 2.52,9.757 2.52,14.711 0,4.941 -0.84,9.886 -2.52,14.839 -1.68,4.95 -4.15,9.368 -7.41,13.262 -3.27,3.883 -7.21,7.059 -11.8,9.539 -4.6,2.473 -9.8,3.707 -15.63,3.707 -6.19,0 -11.57,-1.187 -16.17,-3.578 -4.6,-2.379 -8.4,-5.519 -11.4,-9.41 -3.02,-3.891 -5.26,-8.262 -6.77,-13.121 -1.49,-4.86 -2.24,-9.762 -2.24,-14.707 m 104.69,-64.1408 h -30.21 v 19.0778 h -0.54 c -4.41,-7.4177 -10.55,-13.0817 -18.42,-16.9567 -7.86,-3.8906 -16.29,-5.8399 -25.31,-5.8399 -9.71,0 -18.42,1.8204 -26.1,5.4375 -7.7,3.6172 -14.23,8.4805 -19.62,14.5821 -5.38,6.09 -9.54,13.25 -12.45,21.469 -2.92,8.207 -4.39,17.004 -4.39,26.371 0,9.355 1.51,18.105 4.51,26.242 3,8.129 7.24,15.195 12.73,21.203 5.48,6.004 12,10.735 19.62,14.184 7.59,3.441 15.9,5.168 24.91,5.168 5.83,0 11.04,-0.668 15.64,-1.989 4.59,-1.332 8.61,-2.961 12.06,-4.91 3.44,-1.937 6.39,-4.058 8.87,-6.355 2.47,-2.301 4.51,-4.504 6.11,-6.633 h 0.79 v 76.012 h 31.8 V 87.8672"
         style="fill:#4ca6e1;fill-opacity:1;fill-rule:nonzero;stroke:none"
         id="path20" /><path
         d="m 3448.22,152.008 c 0,-4.949 0.75,-9.903 2.25,-14.844 1.5,-4.945 3.75,-9.367 6.76,-13.258 3.01,-3.89 6.8,-7.058 11.4,-9.539 4.6,-2.472 9.98,-3.711 16.17,-3.711 5.83,0 11.04,1.192 15.63,3.578 4.6,2.383 8.53,5.524 11.8,9.411 3.27,3.882 5.74,8.261 7.43,13.121 1.67,4.863 2.51,9.757 2.51,14.711 0,4.941 -0.84,9.886 -2.51,14.839 -1.69,4.95 -4.16,9.368 -7.43,13.262 -3.27,3.883 -7.2,7.059 -11.8,9.539 -4.59,2.473 -9.8,3.707 -15.63,3.707 -6.19,0 -11.57,-1.187 -16.17,-3.578 -4.6,-2.379 -8.39,-5.519 -11.4,-9.41 -3.01,-3.891 -5.26,-8.262 -6.76,-13.121 -1.5,-4.86 -2.25,-9.762 -2.25,-14.707 m 104.7,-64.1408 h -30.22 v 19.0778 h -0.53 c -4.42,-7.4177 -10.57,-13.0817 -18.42,-16.9567 -7.87,-3.8906 -16.31,-5.8399 -25.31,-5.8399 -9.73,0 -18.42,1.8204 -26.11,5.4375 -7.69,3.6172 -14.23,8.4805 -19.61,14.5821 -5.39,6.09 -9.55,13.25 -12.46,21.469 -2.92,8.207 -4.38,17.004 -4.38,26.371 0,9.355 1.5,18.105 4.5,26.242 3.01,8.129 7.25,15.195 12.73,21.203 5.48,6.004 12.01,10.735 19.61,14.184 7.6,3.441 15.91,5.168 24.92,5.168 5.83,0 11.03,-0.668 15.63,-1.989 4.59,-1.332 8.62,-2.961 12.06,-4.91 3.45,-1.937 6.42,-4.058 8.89,-6.355 2.47,-2.301 4.5,-4.504 6.09,-6.633 h 0.8 v 76.012 h 31.81 V 87.8672"
         style="fill:#4ca6e1;fill-opacity:1;fill-rule:nonzero;stroke:none"
         id="path22" /><path
         d="m 3728.71,164.199 c 0,4.059 -0.57,7.949 -1.72,11.656 -1.15,3.711 -2.96,6.985 -5.43,9.817 -2.48,2.824 -5.61,5.078 -9.41,6.758 -3.8,1.679 -8.26,2.519 -13.38,2.519 -9.54,0 -17.63,-2.883 -24.27,-8.621 -6.62,-5.738 -10.28,-13.117 -10.98,-22.129 z m 31.82,-14.308 v -4.246 c 0,-1.415 -0.09,-2.825 -0.27,-4.239 h -96.74 c 0.35,-4.597 1.54,-8.797 3.57,-12.586 2.02,-3.812 4.73,-7.07 8.09,-9.808 3.35,-2.746 7.16,-4.903 11.39,-6.504 4.24,-1.586 8.66,-2.379 13.26,-2.379 7.95,0 14.66,1.461 20.13,4.371 5.49,2.918 9.98,6.938 13.53,12.059 l 21.2,-16.961 c -12.55,-16.9691 -30.74,-25.4496 -54.6,-25.4496 -9.9,0 -18.99,1.5508 -27.3,4.6407 -8.3,3.0898 -15.51,7.4687 -21.61,13.1209 -6.08,5.649 -10.86,12.59 -14.31,20.809 -3.44,8.211 -5.16,17.531 -5.16,27.961 0,10.25 1.72,19.57 5.16,27.968 3.45,8.391 8.18,15.54 14.19,21.469 5.99,5.91 13.11,10.512 21.34,13.781 8.21,3.274 17.09,4.903 26.63,4.903 8.83,0 17.01,-1.449 24.52,-4.371 7.51,-2.918 14,-7.25 19.48,-12.992 5.48,-5.739 9.76,-12.903 12.86,-21.469 3.09,-8.571 4.64,-18.602 4.64,-30.078"
         style="fill:#4ca6e1;fill-opacity:1;fill-rule:nonzero;stroke:none"
         id="path24" /><path
         d="m 3803.5,275.523 h 52.22 l 48.77,-133.32 h 0.79 l 48.25,133.32 h 52.48 V 87.8633 h -33.14 V 238.684 h -0.52 L 3915.34,87.8633 h -23.32 l -56.2,150.8207 h -0.51 V 87.8633 H 3803.5 V 275.523"
         style="fill:#78c42b;fill-opacity:1;fill-rule:nonzero;stroke:none"
         id="path26" /><path
         d="m 4112.45,145.91 h -7.15 c -5.13,0 -10.52,-0.219 -16.18,-0.66 -5.65,-0.449 -10.87,-1.422 -15.63,-2.918 -4.78,-1.5 -8.75,-3.617 -11.92,-6.363 -3.19,-2.739 -4.78,-6.489 -4.78,-11.27 0,-3 0.66,-5.519 1.98,-7.551 1.34,-2.031 3.06,-3.671 5.18,-4.894 2.12,-1.242 4.51,-2.125 7.15,-2.652 2.65,-0.532 5.31,-0.801 7.96,-0.801 10.94,0 19.25,2.922 24.91,8.75 5.66,5.832 8.48,13.777 8.48,23.847 z m 0.54,-41.879 h -0.8 c -3.18,-5.6599 -8.31,-10.3005 -15.37,-13.9138 -7.07,-3.6172 -15.11,-5.4375 -24.12,-5.4375 -5.13,0 -10.47,0.6601 -16.05,1.9922 -5.55,1.3164 -10.68,3.5312 -15.36,6.6211 -4.7,3.0859 -8.58,7.156 -11.66,12.195 -3.1,5.032 -4.65,11.262 -4.65,18.692 0,9.543 2.7,17.129 8.09,22.789 5.39,5.648 12.32,9.98 20.81,12.996 8.48,2.996 17.89,4.988 28.22,5.957 10.33,0.969 20.46,1.457 30.35,1.457 v 3.18 c 0,7.953 -2.88,13.824 -8.61,17.632 -5.74,3.789 -12.6,5.688 -20.55,5.688 -6.71,0 -13.15,-1.406 -19.34,-4.238 -6.19,-2.825 -11.31,-6.27 -15.37,-10.332 l -16.44,19.351 c 7.25,6.711 15.6,11.75 25.05,15.102 9.44,3.359 19.03,5.039 28.76,5.039 11.31,0 20.63,-1.59 27.96,-4.77 7.32,-3.179 13.11,-7.34 17.36,-12.461 4.25,-5.129 7.2,-10.871 8.88,-17.226 1.69,-6.364 2.52,-12.723 2.52,-19.082 V 87.8594 h -29.68 v 16.1716"
         style="fill:#78c42b;fill-opacity:1;fill-rule:nonzero;stroke:none"
         id="path28" /><path
         d="m 4254.94,179.84 c -2.47,3.531 -6.19,6.488 -11.13,8.879 -4.94,2.383 -9.97,3.578 -15.11,3.578 -5.83,0 -10.95,-1.195 -15.38,-3.578 -4.4,-2.391 -8.07,-5.528 -10.98,-9.41 -2.92,-3.891 -5.09,-8.262 -6.5,-13.121 -1.42,-4.86 -2.13,-9.77 -2.13,-14.711 0,-4.946 0.76,-9.86 2.26,-14.707 1.49,-4.875 3.76,-9.243 6.77,-13.122 2.99,-3.89 6.75,-7.031 11.26,-9.41 4.51,-2.39 9.75,-3.582 15.77,-3.582 4.94,0 9.9,0.973 14.83,2.91 4.95,1.954 8.93,4.782 11.94,8.493 l 19.88,-20.153 c -5.3,-5.6482 -12.06,-10.0271 -20.28,-13.1169 -8.22,-3.0899 -17.09,-4.6407 -26.64,-4.6407 -9.36,0 -18.25,1.5079 -26.64,4.5118 -8.39,2.9961 -15.73,7.4218 -22,13.2458 -6.28,5.828 -11.23,12.899 -14.84,21.211 -3.62,8.301 -5.43,17.766 -5.43,28.36 0,10.246 1.81,19.519 5.43,27.832 3.61,8.3 8.52,15.371 14.71,21.203 6.19,5.836 13.38,10.336 21.61,13.519 8.21,3.18 17,4.77 26.36,4.77 9.37,0 18.42,-1.774 27.17,-5.305 8.74,-3.539 15.69,-8.387 20.81,-14.578 l -21.74,-19.078"
         style="fill:#78c42b;fill-opacity:1;fill-rule:nonzero;stroke:none"
         id="path30" /><path
         d="m 3323.67,274.926 v 39.672 l -123.68,80.488 -123.68,-80.488 v -39.672 l 123.68,80.828 123.68,-80.828"
         style="fill:#78c42b;fill-opacity:1;fill-rule:nonzero;stroke:none"
         id="path32" /><path
         d="m 3289.75,346.879 v 48.207 h -33.94 v -26.129 l 33.94,-22.078"
         style="fill:#78c42b;fill-opacity:1;fill-rule:nonzero;stroke:none"
         id="path34" /><path
         d="m 3580.38,215.09 h 31.81 V 87.8594 h -31.81 z m -4.5,43.207 c 0,5.125 1.91,9.582 5.7,13.379 3.79,3.801 8.62,5.703 14.44,5.703 5.83,0 10.74,-1.813 14.72,-5.43 3.97,-3.633 5.95,-8.183 5.95,-13.652 0,-5.477 -1.98,-10.027 -5.95,-13.652 -3.98,-3.629 -8.89,-5.438 -14.72,-5.438 -5.82,0 -10.65,1.898 -14.44,5.703 -3.79,3.797 -5.7,8.254 -5.7,13.387"
         style="fill:#4ca6e1;fill-opacity:1;fill-rule:nonzero;stroke:none"
         id="path36" /><path
         d="M 0.00390625,359.664 H 121.137 v -29.16 H 33.4023 V 279.09 H 116.098 V 250.996 H 33.4023 V 172.008 H 0.00390625 v 187.656"
         style="fill:#4ca6e1;fill-opacity:1;fill-rule:nonzero;stroke:none"
         id="path38" /><path
         d="m 115.629,42.2227 h 0.215 l 18.261,62.0113 h 11.981 l 18.137,-62.0113 h 0.222 l 17.149,62.0113 h 11.543 L 170.277,26.3945 H 158.949 L 140.031,88.957 h -0.215 L 120.902,26.3945 h -11.32 L 86.7109,104.234 H 98.4805 L 115.629,42.2227"
         style="fill:#707370;fill-opacity:1;fill-rule:nonzero;stroke:none"
         id="path40" /><path
         d="m 233.051,57.0664 c -0.071,2.0508 -0.422,3.9805 -1.035,5.7734 -0.637,1.8008 -1.543,3.3594 -2.754,4.668 -1.211,1.3203 -2.727,2.3711 -4.512,3.1445 -1.797,0.7657 -3.898,1.1485 -6.32,1.1485 -2.196,0 -4.266,-0.3828 -6.211,-1.1485 -1.953,-0.7734 -3.633,-1.8242 -5.059,-3.1445 -1.433,-1.3086 -2.605,-2.8672 -3.523,-4.668 -0.918,-1.7929 -1.446,-3.7226 -1.582,-5.7734 z m 10.554,-4.1797 v -1.7578 c 0,-0.5898 -0.039,-1.1719 -0.105,-1.7617 h -41.445 c 0.066,-2.1797 0.554,-4.2383 1.472,-6.168 0.918,-1.9179 2.141,-3.5976 3.684,-5.0195 1.543,-1.418 3.32,-2.5274 5.332,-3.3281 2.02,-0.8008 4.16,-1.2032 6.434,-1.2032 3.527,0 6.562,0.7735 9.121,2.3125 2.57,1.5352 4.582,3.4063 6.054,5.6094 l 7.258,-5.832 c -2.793,-3.6914 -6.066,-6.4102 -9.844,-8.1602 -3.781,-1.7422 -7.968,-2.6211 -12.589,-2.6211 -3.954,0 -7.625,0.6602 -10.997,1.9844 -3.367,1.3164 -6.269,3.168 -8.679,5.5469 -2.422,2.3906 -4.328,5.2734 -5.723,8.6328 -1.398,3.3789 -2.09,7.1172 -2.09,11.2187 0,4.0274 0.684,7.75 2.039,11.1563 1.36,3.4141 3.254,6.3242 5.676,8.7422 2.43,2.4219 5.281,4.3125 8.594,5.6601 3.301,1.3633 6.863,2.0391 10.691,2.0391 3.809,0 7.285,-0.6289 10.41,-1.8711 3.125,-1.25 5.762,-3.0351 7.93,-5.3867 2.168,-2.3399 3.84,-5.1836 5.012,-8.5234 1.18,-3.3282 1.765,-7.0899 1.765,-11.2696"
         style="fill:#707370;fill-opacity:1;fill-rule:nonzero;stroke:none"
         id="path42" /><path
         d="m 296.332,77.0234 c 2.898,1.9375 6.328,2.9102 10.281,2.9102 3.516,0 6.692,-0.8125 9.504,-2.4219 2.821,-1.6054 5.047,-4.2773 6.649,-8.0195 1.769,3.3711 4.23,5.9531 7.375,7.75 3.152,1.793 6.601,2.6914 10.339,2.6914 3.372,0 6.262,-0.5625 8.684,-1.6992 2.422,-1.1406 4.434,-2.6602 6.043,-4.5703 1.613,-1.8985 2.805,-4.1328 3.574,-6.6993 0.774,-2.5703 1.164,-5.3242 1.164,-8.25 V 26.3945 h -10.343 v 28.918 c 0,2.1211 -0.184,4.1328 -0.547,6.043 -0.371,1.9101 -0.996,3.5859 -1.875,5.0586 -0.879,1.457 -2.051,2.6406 -3.504,3.5195 -1.477,0.8789 -3.34,1.3203 -5.617,1.3203 -2.344,0 -4.356,-0.5 -6.043,-1.4922 -1.692,-0.9844 -3.067,-2.2695 -4.121,-3.8359 -1.075,-1.582 -1.848,-3.3594 -2.317,-5.3438 -0.476,-1.9687 -0.723,-3.9882 -0.723,-6.039 V 26.3945 h -10.32 v 31 c 0,2.0508 -0.195,3.9297 -0.558,5.6094 -0.372,1.6797 -0.985,3.1328 -1.864,4.3438 -0.879,1.2031 -2.023,2.1562 -3.41,2.8632 -1.394,0.6954 -3.113,1.043 -5.176,1.043 -3.808,0 -6.972,-1.5586 -9.511,-4.6797 -2.528,-3.1094 -3.789,-7.2695 -3.789,-12.4726 V 26.3945 H 279.895 V 67.293 c 0,1.3906 -0.04,3.1914 -0.118,5.3906 -0.066,2.2031 -0.175,4.1406 -0.312,5.8203 h 9.777 c 0.145,-1.3203 0.262,-2.8008 0.332,-4.4492 0.067,-1.6524 0.106,-3.0234 0.106,-4.1211 h 0.332 c 1.32,2.7773 3.418,5.1523 6.32,7.0898"
         style="fill:#707370;fill-opacity:1;fill-rule:nonzero;stroke:none"
         id="path44" /><path
         d="m 404.582,51.2383 c -2.578,0 -5.223,-0.1094 -7.977,-0.3281 -2.746,-0.2188 -5.234,-0.6602 -7.48,-1.3243 -2.238,-0.6562 -4.082,-1.6445 -5.547,-2.9687 -1.465,-1.3164 -2.199,-3.0703 -2.199,-5.2774 0,-1.5273 0.312,-2.8242 0.93,-3.8437 0.632,-1.0273 1.453,-1.8672 2.48,-2.5273 1.016,-0.6602 2.156,-1.1211 3.406,-1.3672 1.243,-0.2657 2.532,-0.3907 3.848,-0.3907 4.836,0 8.555,1.4493 11.152,4.3399 2.61,2.8984 3.918,6.539 3.918,10.9375 v 2.75 z m 2.531,8.9101 c 0,3.8829 -1.172,6.7618 -3.527,8.6329 -2.352,1.871 -5.457,2.7968 -9.336,2.7968 -2.937,0 -5.711,-0.5703 -8.309,-1.6992 -2.597,-1.1406 -4.785,-2.5937 -6.543,-4.3516 l -5.5,6.6055 c 2.571,2.4141 5.704,4.3242 9.395,5.7149 3.703,1.3906 7.687,2.0898 11.934,2.0898 3.742,0 6.984,-0.5352 9.726,-1.5859 2.754,-1.0743 5.012,-2.5235 6.777,-4.3516 1.758,-1.8281 3.067,-4.0039 3.946,-6.4922 0.879,-2.4883 1.32,-5.168 1.32,-8.0195 V 36.7305 c 0,-1.7617 0.059,-3.6133 0.176,-5.5508 0.105,-1.9492 0.301,-3.5391 0.594,-4.7891 h -9.336 c -0.594,2.4883 -0.879,4.9883 -0.879,7.4766 h -0.332 c -1.914,-2.7852 -4.317,-4.9492 -7.196,-6.4883 -2.902,-1.543 -6.339,-2.3086 -10.285,-2.3086 -2.058,0 -4.199,0.2774 -6.445,0.8281 -2.227,0.5469 -4.266,1.4414 -6.094,2.6914 -1.836,1.25 -3.347,2.9024 -4.558,4.9454 -1.211,2.0546 -1.809,4.582 -1.809,7.5859 0,3.957 1.047,7.0977 3.176,9.4062 2.129,2.3125 4.91,4.0743 8.359,5.2696 3.438,1.2109 7.332,2.0039 11.66,2.375 4.325,0.3554 8.68,0.5469 13.086,0.5469 v 1.4296"
         style="fill:#707370;fill-opacity:1;fill-rule:nonzero;stroke:none"
         id="path46" /><path
         d="m 442.063,55.8594 h 0.332 l 21.886,22.6484 h 13.848 L 453.723,54.8711 480.227,26.3906 H 465.93 l -23.535,27.0469 h -0.332 V 26.3906 H 431.73 v 83.1174 h 10.333 V 55.8594"
         style="fill:#707370;fill-opacity:1;fill-rule:nonzero;stroke:none"
         id="path48" /><path
         d="m 522.883,57.0664 c -0.086,2.0508 -0.418,3.9805 -1.055,5.7734 -0.613,1.8008 -1.543,3.3594 -2.742,4.668 -1.203,1.3203 -2.715,2.3711 -4.504,3.1445 -1.805,0.7657 -3.906,1.1485 -6.328,1.1485 -2.195,0 -4.266,-0.3828 -6.199,-1.1485 -1.953,-0.7734 -3.645,-1.8242 -5.071,-3.1445 -1.425,-1.3086 -2.605,-2.8672 -3.515,-4.668 -0.918,-1.7929 -1.453,-3.7226 -1.602,-5.7734 z m 10.558,-4.1797 v -1.7578 c 0,-0.5898 -0.039,-1.1719 -0.117,-1.7617 h -41.457 c 0.078,-2.1797 0.567,-4.2383 1.496,-6.168 0.918,-1.9179 2.137,-3.5976 3.68,-5.0195 1.535,-1.418 3.312,-2.5274 5.324,-3.3281 2.02,-0.8008 4.16,-1.2032 6.434,-1.2032 3.515,0 6.574,0.7735 9.133,2.3125 2.566,1.5352 4.578,3.4063 6.043,5.6094 l 7.265,-5.832 c -2.793,-3.6914 -6.074,-6.4102 -9.844,-8.1602 -3.777,-1.7422 -7.976,-2.6211 -12.597,-2.6211 -3.953,0 -7.625,0.6602 -10.996,1.9844 -3.367,1.3164 -6.27,3.168 -8.68,5.5469 -2.414,2.3906 -4.328,5.2734 -5.715,8.6328 -1.406,3.3789 -2.09,7.1172 -2.09,11.2187 0,4.0274 0.676,7.75 2.043,11.1563 1.348,3.4141 3.242,6.3242 5.664,8.7422 2.43,2.4219 5.293,4.3125 8.602,5.6601 3.301,1.3633 6.855,2.0391 10.684,2.0391 3.82,0 7.285,-0.6289 10.421,-1.8711 3.106,-1.25 5.75,-3.0351 7.93,-5.3867 2.168,-2.3399 3.836,-5.1836 5.008,-8.5234 1.172,-3.3282 1.769,-7.0899 1.769,-11.2696"
         style="fill:#707370;fill-opacity:1;fill-rule:nonzero;stroke:none"
         id="path50" /><path
         d="m 580.492,70.5938 c 1.238,2.5585 3.367,4.7578 6.375,6.6015 3.008,1.8242 6.387,2.7461 10.117,2.7461 3.371,0 6.27,-0.5703 8.692,-1.707 2.414,-1.1328 4.426,-2.6602 6.047,-4.5586 1.601,-1.9141 2.8,-4.1445 3.574,-6.7149 0.769,-2.5703 1.141,-5.3203 1.141,-8.2382 V 26.3945 h -10.321 v 28.875 c 0,2.1328 -0.176,4.1524 -0.5,6.0586 -0.32,1.9141 -0.937,3.6055 -1.816,5.0742 -0.879,1.4688 -2.071,2.6485 -3.574,3.5313 -1.504,0.8789 -3.465,1.3203 -5.887,1.3203 -4.094,0 -7.473,-1.5586 -10.11,-4.6914 -2.636,-3.1172 -3.953,-7.2891 -3.953,-12.5 v -27.668 h -10.343 v 83.1215 h 10.343 V 70.5938 h 0.215"
         style="fill:#707370;fill-opacity:1;fill-rule:nonzero;stroke:none"
         id="path52" /><path
         d="m 673.176,52.5039 c 0,2.4883 -0.379,4.8594 -1.153,7.1211 -0.769,2.2695 -1.894,4.2578 -3.359,5.9766 -1.473,1.7226 -3.289,3.0898 -5.469,4.1132 -2.168,1.0196 -4.648,1.5391 -7.441,1.5391 -2.793,0 -5.281,-0.5195 -7.441,-1.5391 -2.168,-1.0234 -3.993,-2.3906 -5.458,-4.1132 -1.476,-1.7188 -2.609,-3.7071 -3.371,-5.9766 -0.769,-2.2617 -1.152,-4.6328 -1.152,-7.1211 0,-2.4922 0.383,-4.8594 1.152,-7.1211 0.762,-2.2695 1.895,-4.2773 3.371,-6.039 1.465,-1.75 3.29,-3.1407 5.458,-4.1602 2.16,-1.0313 4.648,-1.5313 7.441,-1.5313 2.793,0 5.273,0.5 7.441,1.5313 2.18,1.0195 3.996,2.4102 5.469,4.1602 1.465,1.7617 2.59,3.7695 3.359,6.039 0.774,2.2617 1.153,4.6289 1.153,7.1211 m 10.781,0.0625 c 0,-4.043 -0.711,-7.7422 -2.148,-11.1133 -1.426,-3.3711 -3.407,-6.289 -5.938,-8.7422 -2.527,-2.4531 -5.508,-4.3554 -8.965,-5.7187 -3.445,-1.3477 -7.136,-2.0274 -11.093,-2.0274 -3.965,0 -7.665,0.6797 -11.114,2.0274 -3.445,1.3633 -6.406,3.2656 -8.894,5.7187 -2.5,2.4532 -4.465,5.3711 -5.879,8.7422 -1.446,3.3711 -2.16,7.0703 -2.16,11.1133 0,4.0274 0.714,7.707 2.16,11.0469 1.414,3.332 3.379,6.2109 5.879,8.6289 2.488,2.4141 5.449,4.3047 8.894,5.6601 3.449,1.3516 7.149,2.0313 11.114,2.0313 3.957,0 7.648,-0.6797 11.093,-2.0313 3.457,-1.3554 6.438,-3.246 8.965,-5.6601 2.531,-2.418 4.512,-5.2969 5.938,-8.6289 1.437,-3.3399 2.148,-7.0195 2.148,-11.0469"
         style="fill:#707370;fill-opacity:1;fill-rule:nonzero;stroke:none"
         id="path54" /><path
         d="m 711.938,77.0234 c 2.89,1.9375 6.328,2.9102 10.281,2.9102 3.527,0 6.691,-0.8125 9.511,-2.4219 2.825,-1.6054 5.04,-4.2773 6.653,-8.0195 1.758,3.3711 4.219,5.9531 7.371,7.75 3.144,1.793 6.594,2.6914 10.332,2.6914 3.379,0 6.262,-0.5625 8.684,-1.6992 2.421,-1.1406 4.433,-2.6602 6.054,-4.5703 1.61,-1.8985 2.801,-4.1328 3.563,-6.6993 0.773,-2.5703 1.164,-5.3242 1.164,-8.25 V 26.3945 h -10.344 v 28.918 c 0,2.1211 -0.176,4.1328 -0.547,6.043 -0.371,1.9101 -0.984,3.5859 -1.863,5.0586 -0.891,1.457 -2.051,2.6406 -3.527,3.5195 -1.454,0.8789 -3.329,1.3203 -5.606,1.3203 -2.344,0 -4.355,-0.5 -6.043,-1.4922 -1.691,-0.9844 -3.066,-2.2695 -4.121,-3.8359 -1.066,-1.582 -1.836,-3.3594 -2.305,-5.3438 -0.48,-1.9687 -0.722,-3.9882 -0.722,-6.039 V 26.3945 h -10.332 v 31 c 0,2.0508 -0.188,3.9297 -0.547,5.6094 -0.371,1.6797 -0.996,3.1328 -1.887,4.3438 -0.867,1.2031 -2.012,2.1562 -3.398,2.8632 -1.387,0.6954 -3.114,1.043 -5.164,1.043 -3.809,0 -6.985,-1.5586 -9.512,-4.6797 -2.531,-3.1094 -3.789,-7.2695 -3.789,-12.4726 V 26.3945 H 695.5 V 67.293 c 0,1.3906 -0.039,3.1914 -0.105,5.3906 -0.071,2.2031 -0.188,4.1406 -0.332,5.8203 h 9.785 c 0.144,-1.3203 0.261,-2.8008 0.332,-4.4492 0.066,-1.6524 0.097,-3.0234 0.097,-4.1211 h 0.34 c 1.321,2.7773 3.43,5.1523 6.321,7.0898"
         style="fill:#707370;fill-opacity:1;fill-rule:nonzero;stroke:none"
         id="path56" /><path
         d="m 828.43,57.0664 c -0.067,2.0508 -0.418,3.9805 -1.043,5.7734 -0.617,1.8008 -1.535,3.3594 -2.746,4.668 -1.211,1.3203 -2.723,2.3711 -4.512,3.1445 -1.797,0.7657 -3.895,1.1485 -6.316,1.1485 -2.2,0 -4.27,-0.3828 -6.211,-1.1485 -1.954,-0.7734 -3.633,-1.8242 -5.059,-3.1445 -1.438,-1.3086 -2.598,-2.8672 -3.527,-4.668 -0.918,-1.7929 -1.446,-3.7226 -1.582,-5.7734 z m 10.558,-4.1797 v -1.7578 c 0,-0.5898 -0.039,-1.1719 -0.117,-1.7617 h -41.437 c 0.07,-2.1797 0.558,-4.2383 1.476,-6.168 0.918,-1.9179 2.137,-3.5976 3.68,-5.0195 1.543,-1.418 3.32,-2.5274 5.332,-3.3281 2.023,-0.8008 4.16,-1.2032 6.426,-1.2032 3.535,0 6.574,0.7735 9.132,2.3125 2.567,1.5352 4.579,3.4063 6.055,5.6094 l 7.254,-5.832 c -2.793,-3.6914 -6.062,-6.4102 -9.844,-8.1602 -3.777,-1.7422 -7.968,-2.6211 -12.597,-2.6211 -3.946,0 -7.618,0.6602 -10.985,1.9844 -3.371,1.3164 -6.261,3.168 -8.683,5.5469 -2.422,2.3906 -4.325,5.2734 -5.723,8.6328 -1.394,3.3789 -2.09,7.1172 -2.09,11.2187 0,4.0274 0.684,7.75 2.043,11.1563 1.356,3.4141 3.25,6.3242 5.672,8.7422 2.434,2.4219 5.293,4.3125 8.594,5.6601 3.301,1.3633 6.867,2.0391 10.683,2.0391 3.821,0 7.286,-0.6289 10.422,-1.8711 3.114,-1.25 5.762,-3.0351 7.93,-5.3867 2.168,-2.3399 3.836,-5.1836 5.008,-8.5234 1.183,-3.3282 1.769,-7.0899 1.769,-11.2696"
         style="fill:#707370;fill-opacity:1;fill-rule:nonzero;stroke:none"
         id="path58" /><path
         d="m 919.906,52.5586 c 0,2.4219 -0.363,4.7617 -1.093,7.043 -0.735,2.2695 -1.836,4.2773 -3.301,6.039 -1.465,1.7578 -3.282,3.1485 -5.442,4.1797 -2.168,1.0313 -4.675,1.5391 -7.527,1.5391 -2.648,0 -5.051,-0.5078 -7.207,-1.5391 -2.16,-1.0312 -4.016,-2.4219 -5.559,-4.1797 -1.543,-1.7617 -2.722,-3.7695 -3.574,-6.039 -0.84,-2.2813 -1.258,-4.6641 -1.258,-7.1524 0,-2.4922 0.418,-4.8789 1.258,-7.1484 0.852,-2.2735 2.031,-4.2695 3.574,-5.9922 1.543,-1.7188 3.399,-3.1016 5.559,-4.1172 2.156,-1.0312 4.559,-1.543 7.207,-1.543 2.852,0 5.359,0.5313 7.527,1.5938 2.16,1.0664 3.977,2.4805 5.442,4.2383 1.465,1.7617 2.566,3.7695 3.301,6.0468 0.73,2.2618 1.093,4.6133 1.093,7.0313 M 885.609,0.00390625 H 875.266 V 78.5078 h 10.117 v -8.1406 h 0.332 c 1.68,2.793 4.152,5.082 7.402,6.8711 3.254,1.8008 7.043,2.6992 11.348,2.6992 3.887,0 7.402,-0.6992 10.598,-2.0898 3.171,-1.3868 5.917,-3.3399 8.222,-5.8282 2.305,-2.4922 4.07,-5.4023 5.313,-8.7422 1.238,-3.3398 1.875,-6.9101 1.875,-10.7187 0,-3.8047 -0.637,-7.4023 -1.875,-10.7695 -1.243,-3.3789 -3,-6.3086 -5.254,-8.8008 -2.278,-2.4883 -5.02,-4.4453 -8.235,-5.8789 -3.211,-1.4297 -6.843,-2.1524 -10.859,-2.1524 -3.719,0 -7.234,0.8125 -10.527,2.4219 -3.282,1.6133 -5.887,3.8906 -7.782,6.8203 h -0.332 V 0.00390625"
         style="fill:#707370;fill-opacity:1;fill-rule:nonzero;stroke:none"
         id="path60" /><path
         d="m 984.23,52.5039 c 0,2.4883 -0.39,4.8594 -1.16,7.1211 -0.773,2.2695 -1.886,4.2578 -3.359,5.9766 -1.477,1.7226 -3.293,3.0898 -5.461,4.1132 -2.168,1.0196 -4.648,1.5391 -7.449,1.5391 -2.793,0 -5.285,-0.5195 -7.442,-1.5391 -2.168,-1.0234 -3.984,-2.3906 -5.461,-4.1132 -1.464,-1.7188 -2.597,-3.7071 -3.367,-5.9766 -0.773,-2.2617 -1.152,-4.6328 -1.152,-7.1211 0,-2.4922 0.379,-4.8594 1.152,-7.1211 0.77,-2.2695 1.903,-4.2773 3.367,-6.039 1.477,-1.75 3.293,-3.1407 5.461,-4.1602 2.157,-1.0313 4.649,-1.5313 7.442,-1.5313 2.801,0 5.281,0.5 7.449,1.5313 2.168,1.0195 3.984,2.4102 5.461,4.1602 1.473,1.7617 2.586,3.7695 3.359,6.039 0.77,2.2617 1.16,4.6289 1.16,7.1211 m 10.774,0.0625 c 0,-4.043 -0.715,-7.7422 -2.141,-11.1133 -1.433,-3.3711 -3.418,-6.289 -5.945,-8.7422 -2.531,-2.4531 -5.52,-4.3554 -8.957,-5.7187 -3.445,-1.3477 -7.148,-2.0274 -11.113,-2.0274 -3.946,0 -7.645,0.6797 -11.094,2.0274 -3.457,1.3633 -6.414,3.2656 -8.914,5.7187 -2.492,2.4532 -4.453,5.3711 -5.879,8.7422 -1.426,3.3711 -2.141,7.0703 -2.141,11.1133 0,4.0274 0.715,7.707 2.141,11.0469 1.426,3.332 3.387,6.2109 5.879,8.6289 2.5,2.4141 5.457,4.3047 8.914,5.6601 3.449,1.3516 7.148,2.0313 11.094,2.0313 3.965,0 7.668,-0.6797 11.113,-2.0313 3.437,-1.3554 6.426,-3.246 8.957,-5.6601 2.527,-2.418 4.512,-5.2969 5.945,-8.6289 1.426,-3.3399 2.141,-7.0195 2.141,-11.0469"
         style="fill:#707370;fill-opacity:1;fill-rule:nonzero;stroke:none"
         id="path62" /><path
         d="m 1034.69,65.3125 c -1.17,1.9102 -2.82,3.457 -4.95,4.668 -2.12,1.2226 -4.5,1.8242 -7.15,1.8242 -1.16,0 -2.33,-0.1328 -3.51,-0.3828 -1.18,-0.2578 -2.21,-0.668 -3.14,-1.211 -0.92,-0.5468 -1.64,-1.25 -2.2,-2.0898 -0.54,-0.8477 -0.82,-1.8906 -0.82,-3.1406 0,-2.1953 1,-3.8282 2.97,-4.8867 1.98,-1.0704 4.94,-2.0313 8.91,-2.918 2.49,-0.582 4.8,-1.2813 6.92,-2.082 2.12,-0.8086 3.98,-1.8204 5.56,-3.0313 1.57,-1.2109 2.8,-2.6602 3.68,-4.3398 0.89,-1.6914 1.32,-3.6602 1.32,-5.9375 0,-3.0821 -0.59,-5.6797 -1.77,-7.8125 -1.15,-2.1211 -2.72,-3.8594 -4.67,-5.2188 -1.94,-1.3516 -4.16,-2.332 -6.65,-2.9101 -2.49,-0.5938 -5.06,-0.879 -7.69,-0.879 -3.97,0 -7.83,0.7696 -11.6,2.3086 -3.77,1.543 -6.92,3.8789 -9.41,7.0391 l 7.37,6.2617 c 1.39,-2.0508 3.31,-3.7695 5.78,-5.1719 2.46,-1.3867 5.14,-2.082 8.07,-2.082 1.32,0 2.59,0.125 3.8,0.3828 1.21,0.2578 2.32,0.6797 3.3,1.2617 1,0.5899 1.78,1.3594 2.36,2.3086 0.58,0.961 0.88,2.1602 0.88,3.6329 0,2.414 -1.15,4.2187 -3.45,5.3828 -2.32,1.1757 -5.71,2.2734 -10.18,3.3047 -1.76,0.4375 -3.53,0.9687 -5.33,1.5898 -1.8,0.6211 -3.43,1.4883 -4.89,2.5859 -1.48,1.1055 -2.67,2.4727 -3.58,4.1211 -0.92,1.6524 -1.37,3.6836 -1.37,6.1016 0,2.793 0.56,5.1875 1.7,7.2109 1.14,2.0117 2.62,3.6602 4.46,4.9414 1.82,1.2813 3.91,2.2383 6.27,2.8555 2.33,0.6211 4.75,0.9336 7.24,0.9336 3.74,0 7.36,-0.7344 10.84,-2.1914 3.48,-1.4727 6.17,-3.6016 8.09,-6.3789 l -7.16,-6.0508"
         style="fill:#707370;fill-opacity:1;fill-rule:nonzero;stroke:none"
         id="path64" /><path
         d="m 1080.76,65.3125 c -1.18,1.9102 -2.83,3.457 -4.95,4.668 -2.12,1.2226 -4.51,1.8242 -7.15,1.8242 -1.17,0 -2.34,-0.1328 -3.52,-0.3828 -1.17,-0.2578 -2.21,-0.668 -3.13,-1.211 -0.91,-0.5468 -1.64,-1.25 -2.2,-2.0898 -0.55,-0.8477 -0.81,-1.8906 -0.81,-3.1406 0,-2.1953 0.98,-3.8282 2.97,-4.8867 1.97,-1.0704 4.93,-2.0313 8.89,-2.918 2.49,-0.582 4.82,-1.2813 6.94,-2.082 2.11,-0.8086 3.96,-1.8204 5.54,-3.0313 1.58,-1.2109 2.82,-2.6602 3.69,-4.3398 0.88,-1.6914 1.31,-3.6602 1.31,-5.9375 0,-3.0821 -0.57,-5.6797 -1.76,-7.8125 -1.17,-2.1211 -2.73,-3.8594 -4.66,-5.2188 -1.95,-1.3516 -4.16,-2.332 -6.65,-2.9101 -2.49,-0.5938 -5.07,-0.879 -7.71,-0.879 -3.95,0 -7.82,0.7696 -11.6,2.3086 -3.77,1.543 -6.9,3.8789 -9.39,7.0391 l 7.36,6.2617 c 1.4,-2.0508 3.31,-3.7695 5.77,-5.1719 2.46,-1.3867 5.16,-2.082 8.09,-2.082 1.31,0 2.58,0.125 3.79,0.3828 1.21,0.2578 2.31,0.6797 3.3,1.2617 0.98,0.5899 1.77,1.3594 2.36,2.3086 0.59,0.961 0.88,2.1602 0.88,3.6329 0,2.414 -1.14,4.2187 -3.46,5.3828 -2.3,1.1757 -5.7,2.2734 -10.16,3.3047 -1.77,0.4375 -3.55,0.9687 -5.35,1.5898 -1.78,0.6211 -3.42,1.4883 -4.89,2.5859 -1.46,1.1055 -2.66,2.4727 -3.56,4.1211 -0.93,1.6524 -1.39,3.6836 -1.39,6.1016 0,2.793 0.58,5.1875 1.71,7.2109 1.13,2.0117 2.62,3.6602 4.45,4.9414 1.83,1.2813 3.92,2.2383 6.27,2.8555 2.34,0.6211 4.77,0.9336 7.26,0.9336 3.73,0 7.34,-0.7344 10.84,-2.1914 3.46,-1.4727 6.16,-3.6016 8.07,-6.3789 l -7.15,-6.0508"
         style="fill:#707370;fill-opacity:1;fill-rule:nonzero;stroke:none"
         id="path66" /><path
         d="m 1109.13,26.3945 h -10.34 v 52.1172 h 10.34 z m 1.65,70.9219 c 0,-1.9141 -0.68,-3.4922 -2.02,-4.7305 -1.35,-1.25 -2.96,-1.8711 -4.85,-1.8711 -1.89,0 -3.49,0.6407 -4.8,1.918 -1.3,1.2891 -1.97,2.8438 -1.97,4.6836 0,1.8984 0.67,3.4886 1.97,4.7816 1.31,1.277 2.91,1.918 4.8,1.918 1.89,0 3.5,-0.641 4.85,-1.918 1.34,-1.293 2.02,-2.8832 2.02,-4.7816"
         style="fill:#707370;fill-opacity:1;fill-rule:nonzero;stroke:none"
         id="path68" /><path
         d="m 1169.27,52.5039 c 0,2.4102 -0.37,4.75 -1.1,7.0195 -0.74,2.2618 -1.83,4.2735 -3.3,6.0313 -1.47,1.7461 -3.29,3.1367 -5.44,4.1601 -2.17,1.0196 -4.67,1.5391 -7.53,1.5391 -2.64,0 -5.04,-0.5195 -7.2,-1.5391 -2.16,-1.0234 -4.02,-2.414 -5.57,-4.1601 -1.53,-1.7578 -2.72,-3.7695 -3.56,-6.0313 -0.84,-2.2695 -1.26,-4.6484 -1.26,-7.1289 0,-2.4804 0.42,-4.8593 1.26,-7.1289 0.84,-2.2617 2.03,-4.2539 3.56,-5.9726 1.55,-1.7188 3.41,-3.0899 5.57,-4.1094 2.16,-1.0313 4.56,-1.5313 7.2,-1.5313 2.86,0 5.36,0.5352 7.53,1.5821 2.15,1.0625 3.97,2.4687 5.44,4.2187 1.47,1.7617 2.56,3.7696 3.3,6.043 0.73,2.2617 1.1,4.5977 1.1,7.0078 m -34.63,-17.8594 v -8.25 h -10.01 v 83.1215 h 10.33 V 70.7031 h 0.34 c 1.74,2.5625 4.2,4.7422 7.35,6.5391 3.12,1.793 6.86,2.6914 11.18,2.6914 3.88,0 7.39,-0.6875 10.58,-2.082 3.19,-1.3985 5.92,-3.336 8.23,-5.8282 2.3,-2.4921 4.08,-5.4101 5.32,-8.7421 1.24,-3.3399 1.86,-6.9063 1.86,-10.7149 0,-3.8242 -0.62,-7.4141 -1.86,-10.7812 -1.24,-3.3711 -3.01,-6.3086 -5.26,-8.8008 -2.27,-2.4883 -5.01,-4.4531 -8.23,-5.8789 -3.22,-1.4297 -6.84,-2.1407 -10.86,-2.1407 -3.73,0 -7.27,0.8165 -10.64,2.4688 -3.36,1.6523 -6.07,4.0508 -8.11,7.2109 h -0.22"
         style="fill:#707370;fill-opacity:1;fill-rule:nonzero;stroke:none"
         id="path70" /><path
         d="m 1201.03,26.3945 h -10.32 v 83.1215 h 10.32 V 26.3945"
         style="fill:#707370;fill-opacity:1;fill-rule:nonzero;stroke:none"
         id="path72" /><path
         d="m 1253.37,57.0664 c -0.07,2.0508 -0.42,3.9805 -1.03,5.7734 -0.63,1.8008 -1.55,3.3594 -2.76,4.668 -1.21,1.3203 -2.71,2.3711 -4.51,3.1445 -1.8,0.7657 -3.9,1.1485 -6.32,1.1485 -2.18,0 -4.26,-0.3828 -6.21,-1.1485 -1.95,-0.7734 -3.63,-1.8242 -5.06,-3.1445 -1.43,-1.3086 -2.59,-2.8672 -3.52,-4.668 -0.91,-1.7929 -1.45,-3.7226 -1.58,-5.7734 z m 10.56,-4.1797 v -1.7578 c 0,-0.5898 -0.04,-1.1719 -0.11,-1.7617 h -41.44 c 0.06,-2.1797 0.55,-4.2383 1.47,-6.168 0.92,-1.9179 2.14,-3.5976 3.68,-5.0195 1.55,-1.418 3.32,-2.5274 5.34,-3.3281 2.02,-0.8008 4.15,-1.2032 6.43,-1.2032 3.53,0 6.56,0.7735 9.12,2.3125 2.57,1.5352 4.59,3.4063 6.06,5.6094 l 7.25,-5.832 c -2.79,-3.6914 -6.07,-6.4102 -9.84,-8.1602 -3.78,-1.7422 -7.97,-2.6211 -12.59,-2.6211 -3.96,0 -7.63,0.6602 -11,1.9844 -3.37,1.3164 -6.26,3.168 -8.68,5.5469 -2.42,2.3906 -4.32,5.2734 -5.72,8.6328 -1.39,3.3789 -2.08,7.1172 -2.08,11.2187 0,4.0274 0.67,7.75 2.03,11.1563 1.36,3.4141 3.25,6.3242 5.67,8.7422 2.44,2.4219 5.3,4.3125 8.6,5.6601 3.3,1.3633 6.86,2.0391 10.69,2.0391 3.81,0 7.3,-0.6289 10.41,-1.8711 3.13,-1.25 5.77,-3.0351 7.93,-5.3867 2.17,-2.3399 3.84,-5.1836 5.02,-8.5234 1.17,-3.3282 1.76,-7.0899 1.76,-11.2696"
         style="fill:#707370;fill-opacity:1;fill-rule:nonzero;stroke:none"
         id="path74" /><path
         d="m 1288.28,81.2695 h 3.1 c 2.61,0 5.01,0.1289 5.01,3.1407 0,2.5312 -2.18,2.9218 -4.19,2.9218 h -3.92 z m -2.96,8.4571 h 7.36 c 4.53,0 6.67,-1.7852 6.67,-5.4493 0,-3.4335 -2.18,-4.875 -5.01,-5.1875 l 5.45,-8.4101 h -3.19 l -5.18,8.1875 h -3.14 v -8.1875 h -2.96 z m 6.36,-23.4571 c 7.54,0 13.38,6.0235 13.38,14 0,7.7969 -5.84,13.8203 -13.38,13.8203 -7.62,0 -13.46,-6.0234 -13.46,-13.8203 0,-7.9765 5.84,-14 13.46,-14 m 0,30.2227 c 8.89,0 16.35,-7.0234 16.35,-16.2227 0,-9.3711 -7.46,-16.4023 -16.35,-16.4023 -8.94,0 -16.44,7.0312 -16.44,16.4023 0,9.1993 7.5,16.2227 16.44,16.2227"
         style="fill:#707370;fill-opacity:1;fill-rule:nonzero;stroke:none"
         id="path76" /><path
         d="m 134.387,299.234 h 30.48 v -21.207 h 0.535 c 3.528,7.43 8.477,13.43 14.836,18.032 6.367,4.586 13.789,6.886 22.274,6.886 1.23,0 2.558,-0.039 3.976,-0.125 1.414,-0.093 2.657,-0.312 3.711,-0.664 v -29.16 c -2.121,0.531 -3.937,0.883 -5.441,1.063 -1.504,0.168 -2.957,0.257 -4.363,0.257 -7.258,0 -13.086,-1.32 -17.5,-3.968 -4.415,-2.653 -7.864,-5.828 -10.332,-9.539 -2.481,-3.711 -4.161,-7.52 -5.04,-11.403 -0.89,-3.886 -1.328,-6.976 -1.328,-9.277 v -68.121 h -31.808 v 127.226"
         style="fill:#4ca6e1;fill-opacity:1;fill-rule:nonzero;stroke:none"
         id="path78" /><path
         d="m 308.527,248.348 c 0,4.054 -0.566,7.949 -1.718,11.66 -1.153,3.707 -2.969,6.976 -5.438,9.808 -2.473,2.829 -5.605,5.079 -9.406,6.758 -3.809,1.68 -8.262,2.52 -13.387,2.52 -9.551,0 -17.629,-2.879 -24.258,-8.617 -6.621,-5.743 -10.293,-13.122 -10.996,-22.129 z m 31.817,-14.313 v -4.238 c 0,-1.422 -0.098,-2.832 -0.274,-4.242 h -96.746 c 0.36,-4.602 1.543,-8.801 3.582,-12.59 2.024,-3.809 4.727,-7.07 8.086,-9.809 3.352,-2.738 7.149,-4.902 11.387,-6.5 4.25,-1.59 8.664,-2.383 13.262,-2.383 7.949,0 14.66,1.461 20.136,4.372 5.481,2.918 9.981,6.937 13.528,12.058 l 21.211,-16.957 c -12.551,-16.973 -30.754,-25.453 -54.61,-25.453 -9.902,0 -18.996,1.555 -27.304,4.645 -8.313,3.089 -15.508,7.468 -21.602,13.121 -6.094,5.648 -10.871,12.586 -14.316,20.808 -3.438,8.207 -5.168,17.528 -5.168,27.957 0,10.25 1.73,19.571 5.168,27.973 3.445,8.387 8.171,15.539 14.179,21.469 6.004,5.906 13.125,10.511 21.336,13.777 8.223,3.273 17.102,4.902 26.641,4.902 8.84,0 17.012,-1.449 24.523,-4.371 7.508,-2.918 13.992,-7.25 19.481,-12.992 5.48,-5.734 9.758,-12.894 12.851,-21.469 3.098,-8.57 4.649,-18.597 4.649,-30.078"
         style="fill:#4ca6e1;fill-opacity:1;fill-rule:nonzero;stroke:none"
         id="path80" /><path
         d="m 386.457,236.152 c 0,-4.949 0.742,-9.898 2.246,-14.836 1.504,-4.953 3.75,-9.371 6.758,-13.261 3,-3.895 6.809,-7.063 11.406,-9.543 4.602,-2.469 9.981,-3.711 16.164,-3.711 5.828,0 11.043,1.191 15.645,3.582 4.59,2.383 8.515,5.519 11.785,9.414 3.273,3.875 5.742,8.254 7.422,13.117 1.68,4.859 2.519,9.758 2.519,14.707 0,4.942 -0.839,9.895 -2.519,14.84 -1.68,4.949 -4.149,9.371 -7.422,13.262 -3.27,3.882 -7.195,7.058 -11.785,9.543 -4.602,2.468 -9.817,3.707 -15.645,3.707 -6.183,0 -11.562,-1.192 -16.164,-3.578 -4.597,-2.383 -8.406,-5.524 -11.406,-9.415 -3.008,-3.886 -5.254,-8.257 -6.758,-13.121 -1.504,-4.855 -2.246,-9.754 -2.246,-14.707 M 491.156,172.016 H 460.93 v 19.074 h -0.528 c -4.422,-7.414 -10.554,-13.074 -18.418,-16.957 -7.859,-3.891 -16.296,-5.84 -25.312,-5.84 -9.715,0 -18.418,1.82 -26.113,5.437 -7.684,3.625 -14.227,8.485 -19.618,14.583 -5.382,6.089 -9.543,13.25 -12.453,21.468 -2.918,8.215 -4.375,17.004 -4.375,26.371 0,9.364 1.504,18.114 4.512,26.243 3,8.128 7.238,15.199 12.715,21.21 5.48,5.997 12.012,10.727 19.621,14.18 7.598,3.438 15.906,5.164 24.91,5.164 5.832,0 11.047,-0.668 15.645,-1.984 4.589,-1.332 8.605,-2.961 12.062,-4.914 3.445,-1.938 6.395,-4.059 8.875,-6.356 2.473,-2.3 4.512,-4.504 6.106,-6.632 h 0.789 v 76.011 h 31.808 V 172.016"
         style="fill:#4ca6e1;fill-opacity:1;fill-rule:nonzero;stroke:none"
         id="path82" /><path
         d="m 538.598,236.152 c 0,-4.949 0.75,-9.898 2.246,-14.836 1.504,-4.953 3.75,-9.371 6.765,-13.261 3.008,-3.895 6.797,-7.063 11.399,-9.543 4.597,-2.469 9.98,-3.711 16.172,-3.711 5.828,0 11.035,1.191 15.625,3.582 4.597,2.383 8.535,5.519 11.804,9.414 3.262,3.875 5.735,8.254 7.422,13.117 1.672,4.859 2.512,9.758 2.512,14.707 0,4.942 -0.84,9.895 -2.512,14.84 -1.687,4.949 -4.16,9.371 -7.422,13.262 -3.269,3.882 -7.207,7.058 -11.804,9.543 -4.59,2.468 -9.797,3.707 -15.625,3.707 -6.192,0 -11.575,-1.192 -16.172,-3.578 -4.602,-2.383 -8.391,-5.524 -11.399,-9.415 -3.015,-3.886 -5.261,-8.257 -6.765,-13.121 -1.496,-4.855 -2.246,-9.754 -2.246,-14.707 m 104.695,-64.136 h -30.215 v 19.074 h -0.535 c -4.414,-7.414 -10.559,-13.074 -18.418,-16.957 -7.871,-3.891 -16.301,-5.84 -25.312,-5.84 -9.719,0 -18.418,1.82 -26.106,5.437 -7.695,3.625 -14.227,8.485 -19.609,14.583 -5.391,6.089 -9.551,13.25 -12.461,21.468 -2.918,8.215 -4.383,17.004 -4.383,26.371 0,9.364 1.504,18.114 4.512,26.243 2.996,8.128 7.246,15.199 12.722,21.21 5.481,5.997 12.004,10.727 19.61,14.18 7.597,3.438 15.91,5.164 24.922,5.164 5.832,0 11.035,-0.668 15.636,-1.984 4.59,-1.332 8.614,-2.961 12.051,-4.914 3.445,-1.938 6.414,-4.059 8.887,-6.356 2.469,-2.3 4.511,-4.504 6.094,-6.632 h 0.8 v 76.011 h 31.805 V 172.016"
         style="fill:#4ca6e1;fill-opacity:1;fill-rule:nonzero;stroke:none"
         id="path84" /><path
         d="m 670.766,299.234 h 31.804 v -127.23 h -31.804 z m -4.504,43.207 c 0,5.125 1.894,9.582 5.703,13.379 3.789,3.805 8.605,5.703 14.433,5.703 5.832,0 10.743,-1.808 14.707,-5.425 3.985,-3.633 5.969,-8.188 5.969,-13.657 0,-5.476 -1.984,-10.027 -5.969,-13.644 -3.964,-3.633 -8.875,-5.442 -14.707,-5.442 -5.828,0 -10.644,1.903 -14.433,5.7 -3.809,3.797 -5.703,8.261 -5.703,13.386"
         style="fill:#4ca6e1;fill-opacity:1;fill-rule:nonzero;stroke:none"
         id="path86" /><path
         d="m 819.094,248.348 c 0,4.054 -0.574,7.949 -1.719,11.66 -1.16,3.707 -2.969,6.976 -5.437,9.808 -2.473,2.829 -5.618,5.079 -9.415,6.758 -3.8,1.68 -8.253,2.52 -13.378,2.52 -9.543,0 -17.629,-2.879 -24.258,-8.617 -6.621,-5.743 -10.293,-13.122 -10.989,-22.129 z m 31.808,-14.313 v -4.238 c 0,-1.422 -0.089,-2.832 -0.265,-4.242 h -96.739 c 0.344,-4.602 1.536,-8.801 3.567,-12.59 2.031,-3.809 4.734,-7.07 8.094,-9.809 3.351,-2.738 7.16,-4.902 11.386,-6.5 4.25,-1.59 8.664,-2.383 13.262,-2.383 7.949,0 14.66,1.461 20.137,4.372 5.48,2.918 9.98,6.937 13.527,12.058 l 21.192,-16.957 c -12.551,-16.973 -30.735,-25.453 -54.602,-25.453 -9.891,0 -18.984,1.555 -27.293,4.645 -8.301,3.089 -15.508,7.468 -21.602,13.121 -6.093,5.648 -10.871,12.586 -14.316,20.808 -3.449,8.207 -5.168,17.528 -5.168,27.957 0,10.25 1.719,19.571 5.168,27.973 3.445,8.387 8.172,15.539 14.188,21.469 5.996,5.906 13.105,10.511 21.339,13.777 8.211,3.273 17.09,4.902 26.629,4.902 8.84,0 17.012,-1.449 24.524,-4.371 7.508,-2.918 13.992,-7.25 19.472,-12.992 5.489,-5.734 9.766,-12.894 12.86,-21.469 3.097,-8.57 4.64,-18.597 4.64,-30.078"
         style="fill:#4ca6e1;fill-opacity:1;fill-rule:nonzero;stroke:none"
         id="path88" /><path
         d="m 893.871,359.672 h 52.227 l 48.769,-133.324 h 0.781 l 48.252,133.324 h 52.48 V 172.008 h -33.13 v 150.82 h -0.53 l -56.99,-150.82 h -23.324 l -56.203,150.82 h -0.515 v -150.82 h -31.817 v 187.664"
         style="fill:#78c42b;fill-opacity:1;fill-rule:nonzero;stroke:none"
         id="path90" /><path
         d="m 1202.83,230.055 h -7.15 c -5.13,0 -10.52,-0.219 -16.18,-0.66 -5.66,-0.45 -10.86,-1.418 -15.64,-2.918 -4.77,-1.5 -8.75,-3.618 -11.91,-6.36 -3.2,-2.742 -4.79,-6.492 -4.79,-11.269 0,-3 0.67,-5.52 1.99,-7.551 1.33,-2.027 3.05,-3.668 5.18,-4.899 2.12,-1.242 4.5,-2.121 7.15,-2.652 2.65,-0.531 5.3,-0.801 7.96,-0.801 10.94,0 19.25,2.922 24.91,8.75 5.65,5.832 8.48,13.782 8.48,23.856 z m 0.53,-41.879 h -0.8 c -3.17,-5.66 -8.31,-10.297 -15.37,-13.906 -7.07,-3.625 -15.11,-5.446 -24.11,-5.446 -5.14,0 -10.48,0.664 -16.05,1.992 -5.55,1.321 -10.69,3.532 -15.37,6.622 -4.68,3.089 -8.57,7.16 -11.66,12.199 -3.09,5.027 -4.64,11.258 -4.64,18.691 0,9.539 2.7,17.129 8.08,22.785 5.39,5.657 12.33,9.985 20.81,12.996 8.49,2.996 17.89,4.989 28.23,5.957 10.34,0.969 20.45,1.457 30.35,1.457 v 3.188 c 0,7.945 -2.88,13.816 -8.62,17.625 -5.73,3.789 -12.59,5.691 -20.54,5.691 -6.71,0 -13.16,-1.41 -19.34,-4.242 -6.19,-2.816 -11.32,-6.269 -15.37,-10.324 l -16.45,19.348 c 7.26,6.711 15.61,11.75 25.05,15.097 9.45,3.36 19.04,5.039 28.76,5.039 11.32,0 20.64,-1.586 27.96,-4.769 7.33,-3.18 13.13,-7.34 17.37,-12.461 4.24,-5.125 7.19,-10.867 8.87,-17.227 1.7,-6.363 2.53,-12.718 2.53,-19.082 v -77.398 h -29.69 v 16.168"
         style="fill:#78c42b;fill-opacity:1;fill-rule:nonzero;stroke:none"
         id="path92" /><path
         d="m 1345.33,263.984 c -2.48,3.532 -6.2,6.493 -11.14,8.879 -4.95,2.383 -9.98,3.582 -15.11,3.582 -5.83,0 -10.95,-1.199 -15.38,-3.582 -4.41,-2.386 -8.07,-5.527 -10.98,-9.41 -2.92,-3.887 -5.1,-8.258 -6.5,-13.117 -1.42,-4.859 -2.13,-9.773 -2.13,-14.707 0,-4.953 0.76,-9.863 2.25,-14.715 1.5,-4.867 3.76,-9.238 6.78,-13.117 2.99,-3.895 6.75,-7.031 11.26,-9.41 4.5,-2.395 9.75,-3.578 15.76,-3.578 4.94,0 9.9,0.964 14.84,2.91 4.95,1.945 8.92,4.777 11.94,8.484 l 19.87,-20.144 c -5.29,-5.653 -12.06,-10.032 -20.27,-13.121 -8.22,-3.09 -17.09,-4.645 -26.63,-4.645 -9.38,0 -18.26,1.516 -26.65,4.512 -8.39,3 -15.73,7.422 -22,13.254 -6.28,5.828 -11.23,12.898 -14.85,21.203 -3.61,8.301 -5.43,17.765 -5.43,28.367 0,10.238 1.82,19.516 5.43,27.824 3.62,8.301 8.53,15.371 14.72,21.203 6.19,5.84 13.38,10.34 21.61,13.52 8.2,3.179 16.99,4.769 26.36,4.769 9.36,0 18.42,-1.769 27.17,-5.3 8.74,-3.543 15.69,-8.391 20.81,-14.582 l -21.73,-19.079"
         style="fill:#78c42b;fill-opacity:1;fill-rule:nonzero;stroke:none"
         id="path94" /><path
         d="m 414.047,359.074 v 39.668 L 290.363,479.23 166.691,398.742 v -39.668 l 123.672,80.828 123.684,-80.828"
         style="fill:#78c42b;fill-opacity:1;fill-rule:nonzero;stroke:none"
         id="path96" /><path
         d="m 380.121,431.023 v 48.207 h -33.926 v -26.128 l 33.926,-22.079"
         style="fill:#78c42b;fill-opacity:1;fill-rule:nonzero;stroke:none"
         id="path98" /></g></g></svg>
