<svg xmlns="http://www.w3.org/2000/svg" xmlns:xlink="http://www.w3.org/1999/xlink" viewBox="0 0 2285.74 1465.42"><defs><linearGradient id="fb4cd7b3-c80c-4825-b697-0a9a65025974" x1="2280.54" y1="-9821.97" x2="2666.46" y2="-9821.97" gradientTransform="translate(-8808.21 857.44) rotate(73.11)" gradientUnits="userSpaceOnUse"><stop offset="0" stop-color="#40d5e6"/><stop offset="1" stop-color="#57f"/></linearGradient><linearGradient id="d34ac8ad-fed1-4bdc-930a-862ffb3790f0" x1="2236.41" y1="-10058.35" x2="2889.71" y2="-10058.35" xlink:href="#fb4cd7b3-c80c-4825-b697-0a9a65025974"/><linearGradient id="4149df0e-6a4b-4cd8-acf7-9376971917ef" x1="2516.56" y1="-10086.6" x2="2812.24" y2="-10086.6" xlink:href="#fb4cd7b3-c80c-4825-b697-0a9a65025974"/><linearGradient id="3bd04e75-cbb3-4247-87de-bd7ca2755d53" x1="386.73" y1="804.83" x2="2285.74" y2="804.83" gradientUnits="userSpaceOnUse"><stop offset="0" stop-color="#ff9f55"/><stop offset="1" stop-color="#ffd255"/></linearGradient><linearGradient id="c41ee90e-50df-4472-836f-2660920ee058" x1="123.28" y1="963.44" x2="123.28" y2="733.74" xlink:href="#3bd04e75-cbb3-4247-87de-bd7ca2755d53"/><linearGradient id="c1524e7f-43e7-43fa-98ef-9dec4bb65554" x1="179.9" y1="963.44" x2="179.9" y2="733.74" xlink:href="#3bd04e75-cbb3-4247-87de-bd7ca2755d53"/><linearGradient id="9770ca76-1bc8-498f-9500-2d72063b92c7" x1="236.52" y1="963.44" x2="236.52" y2="733.74" xlink:href="#3bd04e75-cbb3-4247-87de-bd7ca2755d53"/><linearGradient id="7a3494a9-a556-487b-bd01-61b01c9128d4" x1="293.13" y1="963.44" x2="293.13" y2="733.74" xlink:href="#3bd04e75-cbb3-4247-87de-bd7ca2755d53"/><linearGradient id="b2284428-ce3b-4c73-889a-9844b4433065" x1="1060.84" y1="1724.61" x2="1089.95" y2="70.89" gradientTransform="translate(2155.3 1539.39) rotate(-180)" xlink:href="#fb4cd7b3-c80c-4825-b697-0a9a65025974"/><linearGradient id="7fd6d5f0-9a9d-47c6-b829-84cf5a11d277" x1="1159.94" y1="331.03" x2="1376.67" y2="331.03" gradientTransform="matrix(1, 0, 0, 1, 0, 0)" xlink:href="#fb4cd7b3-c80c-4825-b697-0a9a65025974"/><linearGradient id="5128e9bf-e287-4dc7-b364-28649cdf9e69" x1="1159.94" y1="445.94" x2="1358.89" y2="445.94" gradientTransform="matrix(1, 0, 0, 1, 0, 0)" xlink:href="#fb4cd7b3-c80c-4825-b697-0a9a65025974"/><linearGradient id="6911815b-4ac7-4908-813b-a54666a747f6" x1="1159.94" y1="388.48" x2="1332.07" y2="388.48" gradientTransform="matrix(1, 0, 0, 1, 0, 0)" xlink:href="#fb4cd7b3-c80c-4825-b697-0a9a65025974"/><linearGradient id="61d8bc76-d3ee-4dc8-8166-41af398f19f2" x1="927.42" y1="554.98" x2="927.42" y2="316.99" gradientUnits="userSpaceOnUse"><stop offset="0" stop-color="#7db3e0"/><stop offset="1" stop-color="#fff"/></linearGradient><radialGradient id="36465421-3a5d-474e-9c3d-78e555e8000b" cx="1336.23" cy="856.19" r="680.32" gradientUnits="userSpaceOnUse"><stop offset="0.16" stop-color="#90c2e8"/><stop offset="0.58" stop-color="#47afff"/><stop offset="1" stop-color="#6783f5"/></radialGradient><linearGradient id="cbae61e8-a8e5-4926-804d-412e3e702dbe" x1="236.12" y1="1178.44" x2="227.39" y2="827.61" xlink:href="#3bd04e75-cbb3-4247-87de-bd7ca2755d53"/><linearGradient id="a77f3378-5498-4d16-bc78-aa470c180074" x1="193.49" y1="1179.5" x2="184.76" y2="828.67" xlink:href="#3bd04e75-cbb3-4247-87de-bd7ca2755d53"/><linearGradient id="e3f39839-6d3d-4f77-bf26-dece5ac1a77d" x1="1509.12" y1="-123.3" x2="1430.51" y2="170.76" gradientTransform="translate(2943.01 34.85) rotate(-180)" xlink:href="#3bd04e75-cbb3-4247-87de-bd7ca2755d53"/><linearGradient id="5c034d1c-8072-42ad-87dc-e91b09f3db18" x1="1505.2" y1="-124.35" x2="1426.59" y2="169.7" gradientTransform="translate(2943.01 3.39) rotate(-180)" xlink:href="#3bd04e75-cbb3-4247-87de-bd7ca2755d53"/><linearGradient id="5d198a3b-235d-4a13-8843-20cdb165e4ce" x1="919.52" y1="201.5" x2="938.44" y2="491.19" gradientTransform="matrix(1, 0, 0, 1, 0, 0)" xlink:href="#fb4cd7b3-c80c-4825-b697-0a9a65025974"/><linearGradient id="af8e5623-fcf0-45ed-9436-d50aa679647e" x1="919.52" y1="201.5" x2="938.44" y2="491.19" gradientTransform="translate(605.01 1249.82) rotate(-90)" xlink:href="#fb4cd7b3-c80c-4825-b697-0a9a65025974"/></defs><title>healthcare</title><g style="isolation:isolate"><g id="1d8c9b00-5493-4489-b249-9ea4c22789df" data-name="Layer 2"><g id="5ed8e09a-b369-42bc-8203-3031fcf0eb27" data-name="Слой 1"><rect x="1046.5" y="519.36" width="6.67" height="700.16" style="fill:#f3f3f3"/><rect x="1049.84" y="433.09" width="71.94" height="18.25" style="fill:#fff"/><rect x="1049.84" y="466.82" width="57.56" height="18.25" style="fill:#fff"/><rect x="1053.17" y="1261" width="75.49" height="24.33" style="fill:#fff"/><path d="M1325.88,164.27s177.55,210.52,64.92,346.84-143.62,2.66-143.62,2.66-67.41,12.52,49.35-158C1351.57,275.41,1325.88,164.27,1325.88,164.27Z" style="fill:url(#fb4cd7b3-c80c-4825-b697-0a9a65025974)"/><path d="M1715.05,0S1847,194.68,1617.3,418.95s-212.58,358-212.58,358S1169.93,317.34,1715.05,0Z" style="fill:url(#d34ac8ad-fed1-4bdc-930a-862ffb3790f0)"/><path d="M1361.86,692.37c-96.35,8.69,15.44-251.82,166-319.83s277.87-62.24,365.88-134C1893.7,238.54,1836.3,649.55,1361.86,692.37Z" style="fill:url(#4149df0e-6a4b-4cd8-acf7-9376971917ef)"/><rect x="383.39" y="519.36" width="6.67" height="700.16" style="fill:#e0e0e0"/><rect x="857.89" y="519.36" width="6.67" height="700.16" style="fill:#f3f3f3"/><rect x="1332.4" y="519.36" width="6.67" height="700.16" style="fill:#f3f3f3"/><rect x="386.73" y="433.09" width="113.65" height="18.25" style="fill:#e0e0e0"/><rect x="386.73" y="466.82" width="161.21" height="18.25" style="fill:#e0e0e0"/><rect x="856.12" y="433.09" width="133.43" height="18.25" style="fill:#fff"/><rect x="856.12" y="466.82" width="85.32" height="18.25" style="fill:#fff"/><rect x="1339.07" y="433.09" width="82.69" height="18.25" style="fill:#fff"/><rect x="1339.07" y="466.82" width="96.37" height="18.25" style="fill:#fff"/><rect x="1813.57" y="433.09" width="120.44" height="18.25" style="fill:#fff"/><rect x="1813.57" y="466.82" width="96.37" height="18.25" style="fill:#fff"/><rect x="861.23" y="1261" width="75.49" height="24.33" style="fill:#fff"/><rect x="1339.07" y="1261" width="75.49" height="24.33" style="fill:#fff"/><path d="M1231.93,1003.56c-109.24,0-195.89-73.47-280.71-145.39-64.32-54.53-131-110.29-208.07-137.79-235.08-83.93-355.34,69.33-356.42,70.68V744.44c1.27-1.59,22.72-29.45,84.79-56,56.51-24.21,151.31-43.53,282.08,2,82.85,28.82,151.65,87.15,218.19,143.57,135,114.44,251.55,213.27,454,58.46,153.33-117.25,297.88-229,440.09-269.8,139.1-39.93,284.12-10.7,419.87,125v42.58c-288.35-289.62-534.87-106.37-840.64,127.44C1364.11,979.58,1294.33,1003.55,1231.93,1003.56Z" style="fill:url(#3bd04e75-cbb3-4247-87de-bd7ca2755d53)"/><rect x="111.88" y="779.83" width="22.8" height="98.46" style="fill:#e0e0e0"/><rect x="168.5" y="739.83" width="22.8" height="138.45" style="fill:#e0e0e0"/><rect x="225.12" y="718.96" width="22.8" height="159.32" style="fill:#e0e0e0"/><rect x="281.73" y="710.26" width="22.8" height="168.02" style="fill:#e0e0e0"/><rect x="111.88" y="816.51" width="22.8" height="61.77" style="fill:url(#c41ee90e-50df-4472-836f-2660920ee058)"/><rect x="168.5" y="791.42" width="22.8" height="86.86" style="fill:url(#c1524e7f-43e7-43fa-98ef-9dec4bb65554)"/><rect x="225.12" y="778.32" width="22.8" height="99.96" style="fill:url(#9770ca76-1bc8-498f-9500-2d72063b92c7)"/><rect x="281.73" y="772.87" width="22.8" height="105.41" style="fill:url(#7a3494a9-a556-487b-bd01-61b01c9128d4)"/><rect x="660.81" y="218.2" width="833.68" height="1102.99" rx="59.95" ry="59.95" transform="translate(2155.3 1539.39) rotate(180)" style="fill:url(#b2284428-ce3b-4c73-889a-9844b4433065)"/><path d="M750.4,87.81h694.76a0,0,0,0,1,0,0V1265.57a0,0,0,0,1,0,0h-735a0,0,0,0,1,0,0V128.06A40.25,40.25,0,0,1,750.4,87.81Z" style="fill:#f5f5f5"/><rect x="1159.94" y="317.32" width="216.72" height="27.41" style="fill:url(#7fd6d5f0-9a9d-47c6-b829-84cf5a11d277)"/><rect x="1159.94" y="432.23" width="198.94" height="27.41" style="fill:url(#5128e9bf-e287-4dc7-b364-28649cdf9e69)"/><rect x="1159.94" y="374.78" width="172.13" height="27.41" style="fill:url(#6911815b-4ac7-4908-813b-a54666a747f6)"/><path d="M927.42,493.11a169.24,169.24,0,0,1-70.55-15.21A171.17,171.17,0,0,1,756.71,322.41c0-94.13,76.58-170.71,170.71-170.71s170.71,76.58,170.71,170.71A171.17,171.17,0,0,1,998,477.9,169.23,169.23,0,0,1,927.42,493.11Zm0-332.4c-89.16,0-161.7,72.54-161.7,161.7a162.14,162.14,0,0,0,94.87,147.29,162.17,162.17,0,0,0,133.65,0,162.14,162.14,0,0,0,94.87-147.29C1089.11,233.25,1016.57,160.71,927.42,160.71Z" style="fill:url(#61d8bc76-d3ee-4dc8-8166-41af398f19f2)"/><rect x="756.71" y="561.83" width="249.02" height="24.44" style="fill:#4e7ed6"/><rect x="756.71" y="627.59" width="249.02" height="24.44" style="fill:#e0e0e0"/><rect x="756.71" y="693.34" width="249.02" height="24.44" style="fill:#e0e0e0"/><rect x="1056.56" y="561.83" width="41.57" height="24.44" style="fill:#4e7ed6"/><rect x="1056.56" y="627.59" width="41.57" height="24.44" style="fill:#e0e0e0"/><rect x="1056.56" y="693.34" width="41.57" height="24.44" style="fill:#e0e0e0"/><path d="M2120.3,1011.49c-148,0-276.66-64-410.78-130.68-165.58-82.34-336.8-167.48-564.93-144.17-145.67,14.89-237.1,74.21-317.78,126.55-73,47.39-142.1,89.07-235.63,92.63C440,961.57,387.61,897.1,386.73,893.17V851.8h0c.19.71,33.19,73.07,204.31,72.21,84.27-.42,146.46-40.78,218.48-87.5C893.2,782.22,988.06,720.67,1141.36,705c237.27-24.25,412.69,63,582.32,147.33,177.5,88.27,346.88,171,562,98.92v34C2223.69,1006,2174.86,1011.48,2120.3,1011.49Z" style="fill:url(#36465421-3a5d-474e-9c3d-78e555e8000b)"/><rect x="1157.44" y="537.21" width="497.53" height="755.5" rx="74.73" ry="74.73" style="fill:#f5f5f5;mix-blend-mode:hard-light"/><path d="M1596.81,649.58a81.44,81.44,0,1,0-153.37,54.85q.92,2.59,2,5.08a81.44,81.44,0,0,0,151.36-59.93Zm-56.12,84.92a61,61,0,0,1-76.55-33.13q-.81-1.86-1.51-3.81a61.06,61.06,0,1,1,78.05,36.93Z" style="fill:#e0e0e0"/><path d="M1461.84,658.8l-19.46-6.08a81.56,81.56,0,0,1,75.31-57.15l.61,20.38a61.15,61.15,0,0,0-56.46,42.85Z" style="fill:#537ffd"/><path d="M1464.14,701.37l-18.69,8.13q-1.08-2.48-2-5.08a81.08,81.08,0,0,1-1.06-51.7l19.46,6.08a60.78,60.78,0,0,0,.79,38.76Q1463.32,699.5,1464.14,701.37Z" style="fill:#4ba6f3"/><path d="M1458.07,729.78a81,81,0,0,1-12.62-20.27l18.69-8.13a60.7,60.7,0,0,0,9.46,15.2Z" style="fill:#46bbed"/><rect x="1475.5" y="1122.15" width="43.9" height="143.94" style="fill:#46bbed"/><rect x="1410.24" y="1162.52" width="43.9" height="103.57" style="fill:#46bbed"/><rect x="1538.82" y="1055.44" width="43.9" height="210.65" style="fill:#46bbed"/><polygon points="1223.91 1107.32 1220.1 1104.39 1291.63 1011.31 1379.92 1016.1 1446.5 910.08 1518.22 902.67 1561.32 817.43 1565.62 819.6 1521.33 907.19 1449.33 914.62 1382.49 1021.06 1293.9 1016.25 1223.91 1107.32" style="fill:#46bbed"/><path d="M1359.21,644.47H1234.37a14.27,14.27,0,0,1-14.27-14.27h0a14.27,14.27,0,0,1,14.27-14.27h124.84a14.27,14.27,0,0,1,14.27,14.27h0A14.27,14.27,0,0,1,1359.21,644.47Z" style="fill:#4e7ed6"/><path d="M1359.21,694.26H1234.37A14.27,14.27,0,0,1,1220.1,680h0a14.27,14.27,0,0,1,14.27-14.27h124.84A14.27,14.27,0,0,1,1373.48,680h0A14.27,14.27,0,0,1,1359.21,694.26Z" style="fill:#e0e0e0"/><path d="M1359.21,744H1234.37a14.27,14.27,0,0,1-14.27-14.27h0a14.27,14.27,0,0,1,14.27-14.27h124.84a14.27,14.27,0,0,1,14.27,14.27h0A14.27,14.27,0,0,1,1359.21,744Z" style="fill:#e0e0e0"/><path d="M953.74,1122.38s-49.45-14-109.85,0l29-148.46S945.23,1050.63,953.74,1122.38Z" style="fill:#b3b7c4"/><path d="M1110.44,866.45s11.1,7.95,14.38,7,8.8.61,11.91.28,11.27-4.23,14.55-3.39c1.34.34,8.76,5.63,11.55,6s8.54.53,8.15,2.91-5.55,3.66-5.55,3.66,2.52.52,2.84,2.72c.61,4.28-1.63,5.78-1.63,5.78s2.25,2.18,2.05,4c-.44,4.05-2.65,5.44-2.65,5.44a6.9,6.9,0,0,1,.06,4.75,6.15,6.15,0,0,1-4.69,3.85s-.47,4.54-3,5.15-4.67-.27-6.74-.33-19.84-6.2-30.41-15.43a101.81,101.81,0,0,0-22.8-14.64Z" style="fill:#eea987"/><path d="M882.78,562.71s-16.57-10.63-31.52,8.27-9.57,37.08-6.45,54,18.17,55.34,11.76,72.31,1.78,25.8,1.78,25.8,51.4,13.16,45.41-64.15S882.78,562.71,882.78,562.71Z" style="fill:#fccca2"/><path d="M904.81,708.7s19.57-2.68,32.71,7.17,22.12,28.29,26.13,34.08,50.92,57.56,53.25,58.5,31.53,17,51.2,30.06,50.65,28.69,50.65,28.69l-16.81,20.61s-82.79-29.64-100-45.67C983.52,825,898.46,740.08,898.46,740.08S877.08,722.8,904.81,708.7Z" style="fill:#dbdff0"/><path d="M1047.2,1428.77s21.17,28.5,18.27,33-25.17,5.16-38.72,0-13.87-38.56-20-52.91c-2.57-6,2.93-23.74,10.65-25s16.12,2.49,16.12,2.49S1025.5,1406.55,1047.2,1428.77Z" style="fill:#1d3b54"/><path d="M1033.66,1386.1a134.47,134.47,0,0,1,6.08,23.72c1.35,9.61,15.08,30,14.44,32.6s-18.07,4.92-25.17-1.73-11.67-26-13.23-37.58c-1.46-10.78-3.29-16.11-3.29-16.11S1026.88,1379,1033.66,1386.1Z" style="fill:#eea886"/><polygon points="1006.18 1406.36 1006.18 1436.2 1010.05 1436.2 1010.05 1413.14 1006.18 1406.36" style="fill:#1d3b54"/><path d="M862.93,1429.24s20.41,28,17.5,32.54-25.17,5.16-38.72,0-13.87-38.56-20-52.91c-2.57-6,2.92-23.74,10.65-25s16.78,2.77,16.78,2.77S841.24,1407,862.93,1429.24Z" style="fill:#1d3b54"/><path d="M849.14,1386.61a191.2,191.2,0,0,0,4.19,22.59c2.58,9.36,16.45,30.65,15.81,33.23s-18.07,4.92-25.17-1.73-12.58-25.92-13.23-37.58,1.61-19.27,1.61-19.27S842.36,1379.51,849.14,1386.61Z" style="fill:#eea886"/><polygon points="821.15 1406.36 821.15 1436.2 825.02 1436.2 825.02 1413.14 821.15 1406.36" style="fill:#1d3b54"/><path d="M951.12,922.62s18.17,84.51,22.34,105.79,15.85,124.33,17.11,141.85,19,83.55,18.12,89.8,27.24,130.44,27.24,130.44-28.9,7.86-33.76,2.56c-4.13-4.5-45.65-118.05-45.65-149.34,0-43.25-32.62-98.32-36.75-108-38.34-89.89-30.15-118.77-35.16-124.61s-5.44,3.61-8.36,16.54-9.17,124.75-12.93,138.93-.84,62.16-2.93,86.36-4.49,132.62-4.49,132.62-20.93,4.81-30.88.17c-2.87-1.34-10.11-120.78-10.52-149.56s-.86-68.49-1.67-80.94C805.1,1035.95,793.7,1019,816,934.49,858.85,772.33,951.12,922.62,951.12,922.62Z" style="fill:#3b3b40"/><path d="M904.09,697.46s19,9,25.54,10.27,32.13,34.5,36.61,46.61,0,30.29-9.22,51.62-.53,28.44-4.74,49.77-.22,71.33.57,83.18S856,965.82,818.41,928c0,0,20.38-38.28,23.54-43.54s.53-34-2.37-41.35S817.39,773,817.39,773s-15.77-48.16-1.52-59.22c12.38-9.61,46.11-13,52.17-15.15S891.71,695.62,904.09,697.46Z" style="fill:#e8734d"/><path d="M910.15,739.73l11.52-13.49-10-35.52S908.31,710.5,910.15,739.73Z" style="fill:#d6c5be"/><path d="M913.14,675.58s-3.78,34.78-3,46.11c0,0-19.7,19.74-42.11-23,0,0,9.43-17.64,2.33-41.67S913.14,675.58,913.14,675.58Z" style="fill:#eea886"/><polygon points="910.15 721.69 910.15 739.73 887.47 722.78 910.15 721.69" style="fill:#eea886"/><polygon points="910.15 739.73 900.73 728.07 869.02 696.47 858.76 706.35 910.15 739.73" style="fill:#d6c5be"/><polygon points="921.67 726.24 936.19 730.25 911.67 690.72 921.67 726.24" style="fill:#fae6de"/><polygon points="900.73 728.07 887.47 745.45 860.38 699.2 869.82 694.37 900.73 728.07" style="fill:#fae6de"/><path d="M912.36,683.23l-.65,7s-15.66,2.94-36.15-22.06C875.56,668.15,890.08,685.86,912.36,683.23Z" style="fill:#a77860"/><path d="M908.39,683.74c6.17-.23,23.39-2.24,31.89-41.91,10.38-48.47-12.55-73.6-32.19-78.26s-37.75,2.17-47.81,27.5c0,0-7.35,19.75,4.58,54.93S901.78,684,908.39,683.74Z" style="fill:#eea987"/><path d="M892.63,595s26.37,1.64,50.88,38.47c0,0,11.48-44.31-18.52-64.53s-51-2.84-58.31,6c0,0-10.5,2.41-10.83,22.32s-13.72,50,15.66,64.21c0,0-2.8-22.73-.21-27.93S882.88,631.83,892.63,595Z" style="fill:#fccca2"/><path d="M872.76,624.69c-1.33-3.45-5-4.84-6.95-1.14s.38,18,5.7,19.59S875.45,631.68,872.76,624.69Z" style="fill:#eea987"/><path d="M860.38,699.2s29.79,35.63,32.91,110.54-23.46,314.15-21.81,343.34l-77.25-37.38S794.69,995,820.55,919c30.35-89.11-4.17-116.29-7.32-171.1,0,0,1.43-40.13,23.8-43.78C858,700.73,860.38,699.2,860.38,699.2Z" style="fill:#dbdff0"/><path d="M920.24,704.54s12.12,1.41,15.94,5.94S964,742.6,965.7,750.73s7.33,14.19-4.16,52c-10.28,33.89-7.7,71.85-5.57,87.05s39.12,220.61,37.09,225.88-17.43,17.83-17.43,17.83S942.51,930.85,942.86,897,956.46,762.38,920.24,704.54Z" style="fill:#dbdff0"/><polygon points="1173.63 811.5 1147.8 944.48 1062.45 927.91 1084.94 794.27 1173.63 811.5" style="fill:#616161"/><polygon points="1167.23 817.97 1144.29 936.08 1068.48 921.36 1088.46 802.67 1167.23 817.97" style="fill:#e0cec7"/><polygon points="1143.19 816.35 1144.8 808.06 1114.16 802.11 1111.35 810.16 1143.19 816.35" style="fill:#616161"/><path d="M1164,881.8s-15.29-5-19.81-2.12.89,5,.89,5-5.33-2.17-7.43,1.82,4.37,6.11,4.37,6.11a4.43,4.43,0,0,0-5,4.1c-.56,4.68,5.19,5.24,5.19,5.24s-6.67,2.63-2.46,6.9c7.1,7.19,18.92,6.13,18.92,6.13s2.92-.71,3.14-5.25c0,0,7-1.21,4.79-8.78,0,0,5.69-6.23.06-9.54C1166.65,891.38,1172.65,884.27,1164,881.8Z" style="fill:#db9c7c"/><path d="M794,958.15s-3.08,14.39,3.21,24.12c2.4,3.72.09,31.84-.12,35.36-.18,2.94-2.83,5.46-3.93,4.85s-1.33-16.17-3-21.19c-1.39-4.21-2.62-5.8-3.39-4.46s1.82,23.95,3.3,31.43-.37,23.25-4.26,20.7-16.86-37.55-15.9-49.24,5.38-26.29,5.38-26.29Z" style="fill:#eea886"/><path d="M855.82,701.31s-30.85-1.9-46.32,16.1-14.63,39.38-18.57,48.67S778,815.31,776,821.78s-3.89,42.84-6.7,72.09-2.24,83.88-2.24,83.88l29.51-5.35s1.19-52.08,1.94-82.27,25.32-83.55,34.6-106.9S879.38,716,855.82,701.31Z" style="fill:#dbdff0"/><polygon points="214.93 1043.39 265.18 1043.39 249.8 1011.49 199.54 1011.49 214.93 1043.39" style="fill:url(#cbae61e8-a8e5-4926-804d-412e3e702dbe)"/><polygon points="191.41 1043.39 203.38 1043.39 188 1011.49 176.03 1011.49 191.41 1043.39" style="fill:url(#a77f3378-5498-4d16-bc78-aa470c180074)"/><rect x="1421.76" y="8.41" width="99.5" height="18.03" transform="translate(2943.01 34.85) rotate(180)" style="fill:url(#e3f39839-6d3d-4f77-bf26-dece5ac1a77d)"/><rect x="1421.76" width="99.5" height="3.39" transform="translate(2943.01 3.39) rotate(180)" style="fill:url(#5c034d1c-8072-42ad-87dc-e91b09f3db18)"/><path d="M1787.25,1148.5s-49.45-14-109.85,0l29-148.46S1778.74,1076.75,1787.25,1148.5Z" style="fill:#b3b7c4"/><path d="M1654,1402.73s-22.53,38.19-32,44.42c-12.91,8.47-4.82,17,1.31,17s37.45,2.25,44.35-5.58,10.32-31.3,16.74-37.44,12.29-28.79-3.13-36.47C1664.28,1376.28,1654,1402.73,1654,1402.73Z" style="fill:#2d2d30"/><path d="M1662.41,1382.71s-24.5,47.95-28.94,54.55,8.37,6.6,16.32,3.46,28.56-34.95,30.79-41.06.61-15,.61-15Z" style="fill:#eea886"/><polygon points="1689.85 1409.99 1683.9 1455.84 1680.74 1455.98 1681.72 1423 1689.85 1409.99" style="fill:#2d2d30"/><path d="M1847.12,1365.5s-5.4,44-11.63,53.52c-8.46,12.92,2.38,17.54,8,15.09s35.23-12.9,38.43-22.83-3-32.82.39-41-.23-31.3-17.43-32.18C1846,1337.13,1847.12,1365.5,1847.12,1365.5Z" style="fill:#2d2d30"/><path d="M1846.86,1343.76s-3.3,53.74-4.74,61.57,10.31,2.7,16.34-3.35,12.22-43.45,11.83-49.94-5.42-14-5.42-14Z" style="fill:#eea886"/><polygon points="1882.92 1357.82 1895.78 1402.23 1892.94 1403.62 1880.67 1372.98 1882.92 1357.82" style="fill:#2d2d30"/><path d="M1633.94,962.69a133.75,133.75,0,0,0-.15,17.21c.27,4.33-6.91,30-8.08,33.22-1,2.72-2.31.52-2.67-1.59-.21-1.21.85-10.51.68-15.69-.14-4.35-.87-6.18-2-5.12s-7.42,17-8.09,24.45-7.23,23-10.19,19.58-2.5-35.23,1.62-46,12.31-23.24,12.31-23.24Z" style="fill:#eea886"/><path d="M1637.35,968.87c1.21-3.42,30.69-50.7,37.74-65.75s13.25-28.88,16.56-34.77c.22-.39.58-1.07,1.06-2,2.3-4.39,7.33-14.2,12.38-23.32l1.06-1.9.89-3.63c3.54-6.31,1.49-10.52,2.18-15.84a16.25,16.25,0,0,1,1.59-5.18l.1-.2c4.32-8.53,7.71-16,8.78-20.36,3.54-14.39,20.5-78.25,20.5-78.25s-27.39,9.66-31.65,19.47c-6.47,14.89-14.08,37.31-16.16,44.24s-21.42,64.37-25.41,76-8.07,21.46-12.51,28.93-36.51,75.1-38.76,81.24C1615.69,967.61,1636.13,972.29,1637.35,968.87Z" style="fill:#dbdff0"/><path d="M1753.08,1031.36c-1.12,5.42-8.3,28.1-16.34,53.3h0c-7.33,23-15.38,48-20.2,64-1.8,6-3.15,10.67-3.85,13.54-4.63,18.94.58,48.65,2.26,73.47s-7.8,150.69-7.8,150.69c-6.31,2.95-46.82-2.29-46.82-2.29,4.63-8.84,6.07-167.17,3.54-176.85s-4.21-36.61-1.68-47.14a41,41,0,0,0,.83-8.44c.21-13.28-2.52-35.23-4.19-59.31-2.1-30.3,9.68-105.63,11.36-112.37.16-.62.4-1.49.71-2.56C1674,966.89,1684,936.9,1684,936.9c20.24-6,35.49-7.11,46.87-4.79,15.06,3.07,23.35,12.11,27.49,23.59C1768.22,983.08,1754.54,1024.33,1753.08,1031.36Z" style="fill:#3b3b40"/><path d="M1870.31,1338.07l-32.45,26.29c-3.48-16.83-78-149.93-83.12-163s-10.49-38.29-10.49-47.55c0-1.65-.12-4.44-.35-8.06-.9-14-3.47-40.5-7.15-61.1-.69-3.84-1.41-7.48-2.17-10.8-4.08-17.77-4.79-78.47-4.83-114.16,0-15.88.09-26.82.09-26.82l1-.78c7.68-5.81,56.9-41.21,74.06-8.12a99.19,99.19,0,0,1,9.29,27.92c5.51,30,.1,63.78-4.34,94.56-3.8,26.33-11.08,63.55-13.17,91.16-1.16,15.19-.74,27.48,2.7,33.46,9.68,16.83,19.14,31.08,38.72,90.48C1844.46,1280.88,1870.31,1338.07,1870.31,1338.07Z" style="fill:#3b3b40"/><path d="M1717.73,626.48s-10.71-69.25,46.65-68S1821,594,1819.94,628s-23,31.43,1.79,78.71S1800.27,754,1800.27,754l-35.89-49.32Z" style="fill:#2d3133"/><path d="M1758.1,565.15s-38.84,6.13-40.38,61.33,10.48,67,44.46,55.46,44.72-69.25,45.49-78.2S1810.49,558.5,1758.1,565.15Z" style="fill:#eea886"/><path d="M1826.31,757.14c.15,19-21.7,64.44-25.06,78.47s-8.7,18.52-4.21,36.48,18.41,78.7,17.84,84-85,32.13-144,21.34c0,0,23-85.75,24.66-95.57s-2-46.63-2.89-57-11.35-32.72-11-43.13c.36-10.6,5.57-19.75,12.85-31.08,2.26-3.51,4.63-7.08,7-10.56,7.72-11.32,15.43-21.6,19.21-25.15a60.88,60.88,0,0,1,7.73-6.17h0a35.82,35.82,0,0,1,8-4.2l33.39-5.33s20.81,7.53,32.78,10.33C1802.61,709.58,1826,713,1826.31,757.14Z" style="fill:#e55353"/><path d="M1728.48,708.78l-19.35,30.5-17.86,28.15c0-.15,1.23-4.41,3.25-16.76.38-2.34.8-5,1.24-7.93a20.77,20.77,0,0,1,.56-2.6h0c7.64-17.62,31.28-30.91,32.14-31.35Z" style="fill:#e55353"/><path d="M1784,657.07c-3.37,6.36-6.92,45.83-6.92,45.83s-47.51,18-42.65,7.8c2.21-4.61,2.85-10.59,2.9-15.75a76.19,76.19,0,0,0-.53-9.59c-.12-1-.22-1.64-.22-1.64S1787.41,650.71,1784,657.07Z" style="fill:#eea886"/><path d="M1742.26,604.76s19.93,32.46,38.08,45.23,8.94,23,8.94,23,47.34-99.66,2.33-106.56S1719,559,1717.73,626.48C1717.73,626.48,1738.17,604.25,1742.26,604.76Z" style="fill:#2d3133"/><path d="M1763.93,681.3c-7.29,10.76-26.56,13.65-26.56,13.65h0a76.19,76.19,0,0,0-.53-9.59C1749.22,687.75,1763.93,681.3,1763.93,681.3Z" style="fill:#a77860"/><path d="M1696.4,739.93h0s-1,2.14-1.88,10.73l7-10.56s12.5-17.92,16.78-22.58a71,71,0,0,1,10.16-8.74S1703.87,720.6,1696.4,739.93Z" style="fill:#dbdff0"/><path d="M1801.72,854.35a255.16,255.16,0,0,1-27.09,7.69c-13,2.76.44,18.39.44,18.39s22.59-2.09,33.46-3.15C1813.78,876.78,1801.72,854.35,1801.72,854.35Z" style="fill:#eea886"/><path d="M1790.94,766.66s30.49-12,39.51-12.66c0,0-6.13-49-36.09-43.78S1790.94,766.66,1790.94,766.66Z" style="fill:#e55353"/><path d="M1736.44,704.58S1714.05,739,1721.63,742s48.6-4,66-36.71C1787.67,705.3,1761.59,691.93,1736.44,704.58Z" style="fill:#eea886"/><path d="M1777.25,701.51s-23.74,39.39-26.86,114.3,23.46,314.15,21.81,343.34l71.75-31s-27-195.64-36-233,19.37-86.38,22.53-141.19c0,0-2-37.6-23.8-43.78S1777.25,701.51,1777.25,701.51Z" style="fill:#dbdff0"/><path d="M1825.19,741.1s-5.36-36.18-31.87-30.21c-25.47,5.73-1.6,53.16.27,58.78s20.74,51.49,22.37,57.5c5.17,19,.33,19.45-7.46,23.94-23,13.23-70.21,12.36-75.66,16s-5.12,15,4,15.35c11.91.51,80-5.89,89.45-6.82,9.2-.9,27.53-1.67,22.72-34.39C1845.79,819.2,1825.19,741.1,1825.19,741.1Z" style="fill:#eea886"/><path d="M1736.44,704.58s-25.25,41.89-26.56,91.51-47.53,261.07-42.66,369.37l-10.75-10.41a16.58,16.58,0,0,1-5-12.91c1.86-31.12,10.07-149.92,30.38-215,23.51-75.34,3.75-125.28-.2-138.72s8.68-31.35,12.91-37.75S1708.89,714.84,1736.44,704.58Z" style="fill:#dbdff0"/><polygon points="1791.42 794.12 1812.68 927.91 1726.81 941.56 1702.19 808.3 1791.42 794.12" style="fill:#616161"/><polygon points="1787.62 802.39 1806.5 921.22 1730.23 933.34 1708.37 814.99 1787.62 802.39" style="fill:#e0cec7"/><polygon points="1764.48 809.1 1763.16 800.76 1732.32 805.66 1732.44 814.19 1764.48 809.1" style="fill:#616161"/><path d="M1774.63,862s-14.19,2.38-15.51,2.16-6.93-9.4-13.43-11-14.62-2.92-16.62-4.17-2.55,5.12,3.69,7.73,7.8,6.09-3.88,8.43c-6.46,1.3-30.63-1.4-28.62,2.68,1.18,2.4,24.46,4.11,24.46,4.11s-25.12-.11-26,1.4c-1.68,3,23.52,4.05,24.57,4,0,0-21.6,1.24-21.78,3.18-.23,2.41,21.64,1.38,21.44,1.78,0,0-17.17,1.18-17,2.65.23,1.92,15.33,2.15,18.26,1.81s32.53-3.71,37.48-4.7,13.35-1.57,13.35-1.57Z" style="fill:#eea886"/><path d="M1829.31,745s24.36,92.19,22.33,114.89-89.75,26.94-89.75,26.94V863s45.92-10.19,54.54-20.73c4.48-5.49-25.49-75.57-25.49-75.57s-26.82-43.84-1.4-55S1825.9,731.7,1829.31,745Z" style="fill:#dbdff0"/><path d="M363.7,994.85s-14.45,7.17-28.13,8.52c0,0-12.93-19-20.5-33.15-18-33.85-23.38-49.7-21.84-62.7C296,884.15,342,790.67,342,790.67l51,19.68-39.05,69.4c-3.65,7.11-8.35,18.67-13.21,28.07-6.37,12.32,1.3,40.52,5.84,52.3C346.54,960.13,354.87,982.94,363.7,994.85Z" style="fill:#eea886"/><path d="M204.29,1379.91s-1.5,8.46,4.35,19.75,32.08,40.09,30.27,51.91-32.11,10.43-51.14-10.39-47.3-42.43-46.25-47.42,29.58-31,39.51-34.42S204.29,1379.91,204.29,1379.91Z" style="fill:#353a3d"/><polygon points="214.76 1368.78 204.04 1380.33 179.94 1359.78 191.02 1346.93 214.76 1368.78" style="fill:#eea886"/><path d="M181.66,1346.93c11.76-13.33,106.65-110.43,106.65-110.43,48.4-55.78,67.33-57.26,67.33-57.26a281.53,281.53,0,0,1,28.83,2.53c2.38.33,10.16.25,12.65.65,30.82,5,31.67,1.48,20.41,26.73-18.53,41.51-204.31,161.28-204.31,161.28Z" style="fill:#248c9e"/><path d="M615.16,1397.53s15.22,6.64,28.63,8.47,45.71-3.49,54.89,5.32-10.6,34.31-40.36,38.11-67.87,10.1-71.57,6.13-6.8-39.65-3.73-50.39S615.16,1397.53,615.16,1397.53Z" style="fill:#353a3d"/><polygon points="608.77 1381.76 615.16 1397.53 583.03 1405.16 578.18 1388.28 608.77 1381.76" style="fill:#eea886"/><path d="M560.54,1182.39s-13.08-49.88,17.64,67.63c0,0,32.37,125.39,35.93,132.52.84,1.69-40.58,9.27-41.35,9-7.21-2.88-71.71-163.53-87.74-193.2C470.91,1172.19,560.54,1182.39,560.54,1182.39Z" style="fill:#248c9e"/><path d="M560.55,1182.39l-64.47,37.09s-25.37-31.16-42.17-43.87c-1.73-1.29-3.45-2.6-5.2-4-2.48-1.87-5-3.79-7.44-5.74-1.8-1.41-3.62-2.84-5.4-4.28-12.28-9.8-23.76-19.7-30.08-27-18.27-21.09,21.72-154.41,72.21-94.95C478,1039.65,545.67,1103.2,560.55,1182.39Z" style="fill:#248c9e"/><path d="M474,1023.84s-31.77,146-63.09,195.65c0,0-53.18-17.93-77.61-27.51,0,0-2.37-105.5,0-133.07C335.44,1033.19,474,1023.84,474,1023.84Z" style="fill:#248c9e"/><path d="M326.86,1075s13.4-131.18,2.3-192.22c-7.38-40.58,3.3-106.42,27.62-142a86.79,86.79,0,0,1,9.17-11.42s49.11,13,54,16.43c.7.49,6,5.19,12.74,13.42h0c14,17.14,34.61,48.17,36.62,78.29,1.46,21.91,2.66,42,4,62.79.41,6.31.85,12.69,1.3,19.2,1.1,15.62,2.36,32,3.92,50,.87,10,7.63,41.86,12.08,71.2Z" style="fill:#2aa3b8"/><path d="M448.7,1171.64c-2.48-1.87-5-3.79-7.44-5.74-1.8-1.41-3.62-2.84-5.4-4.28,2.58-8.22,16.59-45.72,22.09-72.5C457.94,1089.12,462,1130.83,448.7,1171.64Z" style="fill:#196370"/><path d="M474.67,919.58S446.08,963,441,855.74l32.35,44.64C473.78,906.7,474.21,913.07,474.67,919.58Z" style="fill:#1d6f7d"/><path d="M365.95,729.44s5.12-28.37-.84-44.87S414,712.37,414,712.37s0,2.29.09,5.73c.07,2.68.22,6.06.46,9.6.5,6.75,1.39,14.11,3.06,18.33C421.25,755.31,365.95,729.44,365.95,729.44Z" style="fill:#eea886"/><path d="M445.24,630s11.56,21.77,5.73,25.11c-4.81,2.75,5.45,24.11,6.79,27.6s-8.72,5.95-10.87,8.17-8.65,29.73-16.93,30.5-45.45-12.43-55.53-23S356.36,640,363.27,620,424.84,592,445.24,630Z" style="fill:#eea886"/><path d="M447.54,634.73s12.1-23.35-9.48-40.87-61.79,12.71-66.3,13.85-31.3,9.68-17.86,49.51c12.19,36.14,13.76,40.22,13.76,40.22s7.41-24,12.12-27.39c7.36-5.27,23.41-3.89,23.41-3.89s-7.52-20.37,4.46-23.17S435.47,630.16,447.54,634.73Z" style="fill:#3b3b40"/><path d="M390.54,654.44c-1-2.79-4.37-14.79-14.69-7.83s6.21,29.65,8,30S399.26,677.95,390.54,654.44Z" style="fill:#eea886"/><path d="M414.52,727.69c-17-4.57-31.56-23-31.56-23,4.64,4.53,31.1,13.41,31.1,13.41C414.13,720.78,414.28,724.15,414.52,727.69Z" style="fill:#a77860"/><polygon points="604.25 882.03 576.58 1024.5 485.14 1006.74 509.24 863.58 604.25 882.03" style="fill:#616161"/><polygon points="597.39 888.97 572.81 1015.5 491.61 999.73 513.01 872.58 597.39 888.97" style="fill:#e0cec7"/><polygon points="571.64 887.23 573.37 878.35 540.54 871.98 537.53 880.61 571.64 887.23" style="fill:#616161"/><path d="M593.56,982s-4,1.68-6.14,1.56c0,0-3.84-.52-6.59-.72a18.73,18.73,0,0,0-2.13-.06c-2.07.12-6.56,1-11.61-.09s-25.56-11.42-25.56-11.42L544,958.63l.59-12.19s29.91-10.17,34.73-9.69a12.51,12.51,0,0,1,1.36.21c4,.8,6.7,3.09,8.77,3.76.76.25,8.14,3.22,8.86,5.48,1,3.14.43,5.73-1,7.49,0,0,1.7,6.24-.08,10.21,0,0,1.75,5.71-1.87,10C595.34,973.92,596.46,979.91,593.56,982Z" style="fill:#eea886"/><path d="M551.44,943.64s-2.84,15.88-9.91,27.67c0,0-22.93-.91-38.84-3.28-37.94-5.67-53.85-10.83-63.37-19.81-17.12-16.14-64.83-108.73-64.83-108.73l46.19-29.25,32.49,72.71c3.54,7.16,10,17.83,14.68,27.33,6.11,12.46,33.32,23.1,45.48,26.46C513.33,936.74,536.61,943.64,551.44,943.64Z" style="fill:#eea886"/><path d="M443.71,849.76l-52.51,27.3s-10.41-20.15-13.46-26.7c-8.75-18.78-22.27-47.17-5.26-59.16,36.71-25.88,52.49,17.07,61.5,40.62C436.77,839.09,443.71,849.76,443.71,849.76Z" style="fill:#2aa3b8"/><rect x="905.17" y="228.87" width="44.49" height="187.07" style="fill:url(#5d198a3b-235d-4a13-8843-20cdb165e4ce)"/><rect x="905.17" y="228.87" width="44.49" height="187.07" transform="translate(1249.82 -605.01) rotate(90)" style="fill:url(#af8e5623-fcf0-45ed-9436-d50aa679647e)"/><path d="M276.22,388.61a106.15,106.15,0,1,0-90.79,191.9c2.16,1,4.34,2,6.53,2.83a106.15,106.15,0,0,0,84.27-194.73Zm26.54,130a79.49,79.49,0,0,1-101.08,40q-2.46-1-4.9-2.12a79.58,79.58,0,1,1,106-37.9Z" style="fill:#e0e0e0"/><path d="M160.33,521.5,136.8,533.83a106.3,106.3,0,0,1,16.73-122.08L172.87,430a79.7,79.7,0,0,0-12.54,91.53Z" style="fill:#2d5bad"/><path d="M201.68,558.61,192,583.33c-2.19-.86-4.37-1.81-6.53-2.83a105.67,105.67,0,0,1-48.63-46.67l23.53-12.33a79.23,79.23,0,0,0,36.45,35Q199.21,557.64,201.68,558.61Z" style="fill:#5d96ff"/><path d="M222.27,590.38a105.55,105.55,0,0,1-30.32-7l9.73-24.72a79.13,79.13,0,0,0,22.73,5.29Z" style="fill:#5d96ff"/><polygon points="198.21 660.34 0 660.34 0 656.4 194.27 656.4 194.27 572.43 198.21 572.43 198.21 660.34" style="fill:#5d96ff"/><rect y="615.4" width="104.33" height="23.64" style="fill:#e0e0e0"/></g></g></g></svg>