<svg id="SvgjsSvg1001" width="288" height="288" xmlns="http://www.w3.org/2000/svg" version="1.1" xmlns:xlink="http://www.w3.org/1999/xlink" xmlns:svgjs="http://svgjs.com/svgjs"><defs id="SvgjsDefs1002"></defs><g id="SvgjsG1008"><svg xmlns="http://www.w3.org/2000/svg" width="288" height="288" viewBox="0 0 517.795 229.795"><defs><clipPath id="a" clipPathUnits="userSpaceOnUse"><path d="M 0,172.346 H 388.346 V 0 H 0 Z" fill="#000000" class="color000 svgShape"></path></clipPath></defs><g clip-path="url(#a)" transform="matrix(1.33333 0 0 -1.33333 0 229.795)" fill="#000000" class="color000 svgShape"><path fill="#ffffff" d="M 0,0 C -5.388,0 -10.506,-2.101 -12.769,-3.703 -16.251,-1.084 -21,0 -26.873,0 -35.809,0 -43.186,-2.759 -44.27,-3.186 v -46.143 h 9.614 c 0.946,0 1.709,0.774 1.709,1.806 v 37.082 c 2.03,0.57 3.891,0.837 5.571,0.837 6.648,0 8.264,-2.667 8.264,-9.252 v -28.667 c 0,-0.837 0.665,-1.806 1.718,-1.806 h 7.919 c 1.083,0 1.718,0.837 1.718,1.806 v 35.648 c 1.777,1.538 4.293,2.271 6.63,2.271 5.135,0 7.214,-2.308 7.214,-8.599 v -29.32 c 0,-0.762 0.572,-1.806 1.706,-1.806 h 9.597 v 32.678 C 17.39,-4.262 9.662,0 0,0 m -150.553,-49.316 h 10.166 c 0.761,0 1.714,0.733 1.714,1.718 v 26.824 h 18.756 c 3.124,0 5.433,-2.531 5.433,-5.139 v -21.685 c 0,-0.913 0.784,-1.718 1.687,-1.718 h 10.177 v 63.703 h -10.177 c -0.857,0 -1.687,-0.754 -1.687,-1.602 v -23.927 h -19.523 c -2.593,0 -4.666,2.141 -4.666,4.537 v 19.39 c 0,0.605 -0.618,1.602 -1.714,1.602 h -10.166 z m 301.277,11.767 c -2.09,-1.757 -3.72,-2.894 -8.15,-3.037 -6.334,0 -9.053,3.866 -9.053,12.119 v 6.717 c 0,9.503 3.498,12.115 9.053,12.115 4.669,0 7.203,-0.383 8.15,-0.581 z m -8.15,37.506 c -12.493,0 -20.376,-6.774 -20.376,-21.264 v -7.268 c 0,-16.053 8.526,-21.264 17.764,-21.264 4.554,0 9.232,3.177 10.762,5.211 v -3.001 c 0,-0.766 0.69,-1.687 1.702,-1.687 h 9.631 v 46.498 c 0,0 -9.483,2.775 -19.483,2.775 M 53.76,-37.549 c -2.089,-1.757 -3.717,-2.894 -8.149,-3.037 -6.333,0 -9.057,3.866 -9.057,12.119 v 6.717 c 0,9.503 3.503,12.115 9.057,12.115 4.664,0 7.203,-0.383 8.149,-0.581 z m -8.149,37.506 c -12.491,0 -20.375,-6.774 -20.375,-21.264 v -7.268 c 0,-16.053 8.527,-21.264 17.765,-21.264 4.55,0 9.225,3.177 10.759,5.211 v -3.001 c 0,-0.766 0.693,-1.687 1.702,-1.687 h 9.628 v 46.498 c 0,0 -9.479,2.775 -19.479,2.775 m 38.484,-49.282 c 0.916,0 1.783,0.754 1.783,1.802 v 36.975 c 2.786,0.637 5.599,0.944 8.419,0.944 6.319,0 8.605,-2.351 8.605,-9.248 v -28.671 c 0,-1.176 0.893,-1.802 1.709,-1.802 h 9.652 v 30.549 c 0,14.187 -7.487,18.796 -19.619,18.796 -9.696,0 -19.286,-2.794 -20.089,-3.014 V -49.325 Z M -63.293,-0.853 c -0.915,0 -1.785,-0.753 -1.785,-1.802 v -36.643 c -2.788,-0.643 -5.596,-0.949 -8.421,-0.949 -6.314,0 -8.601,2.352 -8.601,9.248 v 28.344 c 0,1.173 -0.895,1.802 -1.71,1.802 h -9.651 v -30.222 c 0,-14.183 7.487,-18.796 19.62,-18.796 9.695,0 19.284,2.79 20.087,3.014 v 46.004 z m 236.985,-42.846 h 0.916 c 0.883,0 1.234,0.425 1.234,1.008 0,0.765 -0.728,0.893 -1.372,0.893 h -0.778 z m 0.809,2.925 c 1.543,0 2.549,-0.454 2.549,-1.821 0,-0.949 -0.422,-1.611 -1.29,-1.957 l 0.374,-0.658 c 0.304,-0.526 0.682,-1.074 1.14,-1.691 0.077,-0.111 -0.123,-0.171 -0.443,-0.171 h -0.367 c -0.379,0 -0.484,0.075 -0.549,0.151 -0.326,0.43 -0.608,0.857 -0.849,1.284 l -0.552,0.957 h -0.822 v -2.253 c 0,-0.064 -0.125,-0.139 -0.366,-0.139 h -0.497 c -0.237,0 -0.383,0.075 -0.383,0.139 v 6.159 z m -4.404,-3.192 c 0,-2.732 1.96,-4.856 4.528,-4.856 2.553,0 4.544,2.096 4.544,4.856 0,2.726 -1.958,4.851 -4.515,4.851 -2.551,0 -4.557,-2.125 -4.557,-4.851 m 10.232,0 c 0,-3.239 -2.505,-5.832 -5.692,-5.832 -3.202,0 -5.735,2.593 -5.735,5.832 0,3.245 2.521,5.831 5.752,5.831 3.201,0 5.675,-2.586 5.675,-5.831" transform="translate(172.702 105.183)" class="color87c546 svgShape"></path></g></svg></g></svg>