<svg xmlns="http://www.w3.org/2000/svg" width="352.61" height="362.19" viewBox="0 0 352.61 362.19"><title>Icon-bg</title><g id="549281df-e756-4880-be6c-26a040eecd08" data-name="Layer 2"><g id="12e13117-5116-41b0-9171-7d92d3262541" data-name="Layer 1"><path d="M344,159.17c20.89,57.34,2.8,135.34-44.83,169.95C251.3,364,173.87,355.73,116.81,314.66S23.33,199.72,41.16,146.78C59.25,93.57,131.33,61,197.3,63.09S323.13,101.84,344,159.17Z" style="fill:#f7b700"/><path d="M299.88,184.81c11,46.58-32.08,97.56-83.28,133.82-51.2,36.48-110.31,58-153.82,32.3C19.05,325.45-9.08,252.71,9.6,195.14,28.5,137.79,94,95.6,159,95.6,224.29,95.82,289.11,138.23,299.88,184.81Z" style="fill:#094abe"/><path d="M204.22,92.85c13.77,51.66.6,114.71-33.54,146-34.14,31.43-89.08,30.88-125.61-1.47S-9.12,140.64,4.65,89.17,63.49-.9,106.46,0,190.3,41.19,204.22,92.85Z" style="fill:#7bba00"/><path d="M328.41,68C352,111.86,315,182.86,270,228.92c-44.79,46-97.38,67-148.73,50.71-51.09-16.36-101-70.28-98.36-124.73S80.47,45.51,150.35,26.44,304.79,24.22,328.41,68Z" style="fill:#f60"/><circle cx="173.61" cy="184" r="146" style="fill:#fff"/></g></g></svg>