<svg xmlns="http://www.w3.org/2000/svg" viewBox="0 0 1874.7 1547.95"><title>insurance</title><g id="452871e1-5fd4-4f96-929a-751c430e96a7" data-name="Layer 2"><g id="57dea9ca-6e41-4365-89b3-db65ab1e96ae" data-name="Слой 1"><path d="M324.08,1546.24s-313-81.82-274-547.63S558.89,730.82,837,448.79s274.27-537.05,694.75-345,45.44,679.56,87.44,786.83,267,241.5,255,382.9-108,257.51-171,273l-1379.14-.21Z" style="fill:#d7e9f4"/><path d="M1451.48,290.66c4.75,15,4,29.4,1.9,40.35,21.87-45,37.75-73.83,38.18-74.61a1.5,1.5,0,0,1,2.62,1.46c-.49.87-20.45,37.08-46.49,91.92-.3.68-.5,1.1-.56,1.23l-.06.09c-13.43,28.32-28.43,61.51-43.19,97.33,12.05-17.21,34.74-46.9,52.74-54.78l6.19-2.71c10.66-4.66,25.45-11.12,38.91-17.38,31.53-64.94,74.72-142.44,30.06-177.08-40.8-31.64-69.65,16.24-88.49,64.3C1445.46,269.91,1448.19,280.26,1451.48,290.66Z" style="fill:#fff"/><path d="M1499.66,377.8c-10.94,5-23.27,10.46-35.65,15.87l-6.19,2.71c-23.15,10.14-55.88,60-59.47,65.61-24.68,61.28-48,129.16-61.46,192.88a1.5,1.5,0,0,1-2.94-.62c13.39-63.64,36.68-131.4,61.31-192.62a1.49,1.49,0,0,1,.23-.74l.2-.31c16.66-41.35,33.91-79.68,49.11-111.7,2.11-4.79,12.34-30.32,3.82-57.32-2.81-8.9-5.22-17.77-7.23-25.87-10.87,28.72-18.18,56.54-22.33,66.43-11.33,27-38.16,39-89.16,78.9s-27,192.15-27,192.15l-5.64,6.18s46.14,172.75,146.52,156,37.61-253.28,31.71-311.78C1473.63,435.2,1485.12,408,1499.66,377.8Z" style="fill:#fff"/><path d="M387.93,1189.16c-50.93-98.87-97.42-175.25-97.88-176a1.5,1.5,0,1,1,2.56-1.56c.46.76,47,77.23,98,176.19,40.14,77.92,90.09,183.77,117.16,274.93l41.37-269.82S439.76,1051.06,421.35,995.68s-184.6-54-184.6-54c23.54,61.76-33.4,187.34-33.4,187.34l18.8,58.93H183c-23.49,69.73,13.43,166.49,13.43,166.49l40.33,23.89-33.46,10.15c20.87,133.82,292.49,152.42,292.49,152.42l10.91-71.14C480.16,1377.44,428.92,1268.72,387.93,1189.16ZM400,1273.29a1.5,1.5,0,0,1-2.09.37c-40.7-28.49-88.67-36.67-121.74-38.52-35.87-2-62.38,2.8-62.64,2.84A1.5,1.5,0,1,1,213,1235c.27,0,27.14-4.92,63.36-2.89,33.46,1.87,82,10.16,123.29,39.06A1.5,1.5,0,0,1,400,1273.29Z" style="fill:#fff"/><path d="M1696.07,1260.57l-9.79.93c-105.14,9.72-143.84,26.91-158,37.39l-180.82,207.7a1.5,1.5,0,1,1-2.26-2l172.21-197.81c.41-1.36,2.12-5.24,9-10.36l25-28.74c4.08-4.69,6.72-54.86-2-94.64a76.7,76.7,0,0,1-1.58-18.48c-5.19,3.08-10.55,6.08-16.13,9-65.56,33.75-84.45-24.53-114.7-15.73s-89.74,126.29-89.74,126.29-110,226.91,15.46,265.71c0,0,265.64,34.25,300.87-64.54,17.37-48.69-37.25-78.73,4.46-136.12C1663.17,1318.46,1682.12,1290.66,1696.07,1260.57Z" style="fill:#fff"/><path d="M1686.74,1116.89l-133,152.78h0l-18.54,21.3c19.92-10.73,62-24.25,150.81-32.46q5.92-.55,11.5-1.09C1719,1209.51,1727.25,1156.29,1686.74,1116.89Z" style="fill:#fff"/><path d="M1552.41,1172.42c6.9,31.5,7.12,72.52,3.89,89.74l128.26-147.32a122.29,122.29,0,0,0-11-9c-34.9-25.36-68.57,14.12-122.53,46.88A74.7,74.7,0,0,0,1552.41,1172.42Z" style="fill:#fff"/><path d="M1439.88,953.09q-25.38,0-45-13c-44.4-29.53-51.17-99-20.11-206.63,24.25-84,66-173,96.7-233A62.6,62.6,0,0,1,1511,468.15c15-3.91,30.07-1.54,42.42,6.67l24.36,16.2-10.52,15.82-24.36-16.2c-7.78-5.18-17.41-6.64-27.1-4.11a43.59,43.59,0,0,0-27.45,22.6c-30.35,59.16-71.52,147-95.35,229.55-13.3,46.06-19.46,84.89-18.32,115.39,1.26,33.84,11.59,57.44,30.7,70.14s44.87,13.1,76.56,1.19c28.58-10.75,62-31.45,99.33-61.52,66.91-53.9,132-125.84,174.82-176.7a43.58,43.58,0,0,0,10.22-34.06c-1.42-9.92-6.49-18.23-14.27-23.41l-21.31-14.17,10.52-15.82,21.31,14.17c12.35,8.21,20.36,21.19,22.56,36.54a62.6,62.6,0,0,1-14.5,49c-43.36,51.5-109.35,124.41-177.44,179.26C1531.68,928.22,1480.36,953.09,1439.88,953.09Z" style="fill:#2e6b99"/><path d="M1702.63,626l5.54,3.68a12,12,0,0,0,16.64-3.35l23.06-34.68a12,12,0,0,0-3.35-16.64l-5.54-3.68a12,12,0,0,0-16.64,3.35l-23.06,34.68A12,12,0,0,0,1702.63,626Z" style="fill:#0e2549"/><path d="M1563,533.2l5.54,3.68a12,12,0,0,0,16.64-3.35l23.06-34.68a12,12,0,0,0-3.35-16.64l-5.54-3.68a12,12,0,0,0-16.64,3.35l-23.06,34.68A12,12,0,0,0,1563,533.2Z" style="fill:#0e2549"/><path d="M1566.49,1394.92a11.58,11.58,0,0,1-7.29-20.59c.58-.47,58.86-48.61,59.57-112.16.42-37.91-19.7-74.42-59.79-108.53-89.91-76.5-155.36-170.25-158.11-174.2a11.58,11.58,0,0,1,19-13.2c.66.94,66.55,95.28,154.08,169.76,45.64,38.83,68.5,81.43,67.94,126.61-.93,74.51-65.42,127.52-68.16,129.74A11.54,11.54,0,0,1,1566.49,1394.92Z" style="fill:#0e2549"/><circle cx="1548.56" cy="1460.33" r="86.12" style="fill:#2e6b99"/><circle cx="1548.56" cy="1462.22" r="59.87" style="fill:#fff"/><path d="M1548.56,1523.59a61.37,61.37,0,1,1,61.37-61.37A61.44,61.44,0,0,1,1548.56,1523.59Zm0-119.75a58.37,58.37,0,1,0,58.37,58.37A58.44,58.44,0,0,0,1548.56,1403.84Z" style="fill:#0e2549"/><path d="M1226.07,169.6l-93.07-98L1208.4,0l93.07,98Zm-88.83-97.87,88.94,93.63,71.05-67.49L1208.29,4.24Z" style="fill:#0e2549"/><path d="M1202.1,107.61h-.22a8.41,8.41,0,1,1,.22,0Zm0-13.86a5.43,5.43,0,1,0,3.94,1.69h0a5.4,5.4,0,0,0-3.8-1.69Z" style="fill:#0e2549"/><path d="M1228.55,135.46h-.22a8.42,8.42,0,1,1,.22,0Zm0-13.86a5.43,5.43,0,1,0,3.94,1.69h0a5.4,5.4,0,0,0-3.8-1.69Z" style="fill:#0e2549"/><path d="M1258,107.49a8.43,8.43,0,1,1,6.11-14.23h0a8.43,8.43,0,0,1-6.11,14.23Zm0-13.85a5.43,5.43,0,1,0,3.94,1.69A5.41,5.41,0,0,0,1258,93.64Z" style="fill:#0e2549"/><path d="M94.74,1264.6,0,1221.72,55.72,1098.6l94.74,42.88ZM4,1220.22l89.28,40.41L146.49,1143l-89.28-40.4Z" style="fill:#0e2549"/><path d="M316.27,635.08a18.77,18.77,0,0,0-21.72,15.22L288.25,686a18.76,18.76,0,1,0,36.94,6.5l6.29-35.72A18.78,18.78,0,0,0,316.27,635.08ZM304,704.79a15.78,15.78,0,0,1-12.79-18.25l2.88-16.38,31,5.46L322.24,692A15.78,15.78,0,0,1,304,704.79Zm24.54-48.5-2.88,16.38-31-5.46,2.88-16.38a15.76,15.76,0,1,1,31,5.46Z" style="fill:#0e2549"/><path d="M1690,998.32l-4.78-40a20.64,20.64,0,1,0-41,4.9l2.39,20h0l2.39,20a20.72,20.72,0,0,0,20.48,18.19,20.83,20.83,0,0,0,2.47-.15,20.7,20.7,0,0,0,18-22.95Zm-27.37-55a17.64,17.64,0,0,1,19.62,15.42l2.21,18.49-35,4.19-2.21-18.49A17.67,17.67,0,0,1,1662.65,943.3Zm20.73,68.37a17.65,17.65,0,0,1-31.37-8.8l-2.21-18.49,35-4.19,2.21,18.49A17.52,17.52,0,0,1,1683.38,1011.67Z" style="fill:#0e2549"/><rect x="492.01" y="295.31" width="876.82" height="1251.09" style="fill:#2e6b99"/><rect x="574.89" y="379.79" width="703.54" height="1084.74" style="fill:#fff"/><path d="M1279.93,1466H573.39V378.29h706.54Zm-703.54-3h700.54V381.29H576.39Z" style="fill:#0e2549"/><path d="M763.89,599.19a1.5,1.5,0,0,0-2.11-.2l-33.09,27.28a60,60,0,0,0-96,2.87l-4.25-4.56a1.5,1.5,0,1,0-2.19,2l4.72,5.07a60.13,60.13,0,1,0,99.57-3l33.18-27.36A1.5,1.5,0,0,0,763.89,599.19Zm-82.14,7.47a57,57,0,0,1,44.62,21.52l-53.5,44.11-38.13-40.91A57.1,57.1,0,0,1,681.75,606.67Zm57.13,57.13A57.13,57.13,0,1,1,633,634L672.6,676.4l55.58-45.83A56.81,56.81,0,0,1,738.88,663.8Z" style="fill:#0e2549"/><path d="M755.43,808.76a1.5,1.5,0,0,0-2.11-.2l-33.09,27.28a60,60,0,0,0-96,2.87l-4.25-4.56a1.5,1.5,0,1,0-2.19,2l4.73,5.07a60.13,60.13,0,1,0,99.57-3l33.19-27.36A1.5,1.5,0,0,0,755.43,808.76Zm-82.14,7.47a57,57,0,0,1,44.62,21.52l-53.5,44.11-38.13-40.91A57.1,57.1,0,0,1,673.29,816.23Zm57.13,57.13a57.13,57.13,0,1,1-105.83-29.83L664.14,886l55.58-45.83A56.8,56.8,0,0,1,730.42,873.36Z" style="fill:#0e2549"/><path d="M752.71,1018.32a1.5,1.5,0,0,0-2.11-.2l-33.09,27.28a60,60,0,0,0-96,2.87l-4.25-4.56a1.5,1.5,0,1,0-2.19,2l4.72,5.07a60.13,60.13,0,1,0,99.57-3l33.18-27.36A1.5,1.5,0,0,0,752.71,1018.32Zm-82.14,7.47a57,57,0,0,1,44.62,21.52l-53.5,44.11-38.13-40.91A57.1,57.1,0,0,1,670.57,1025.79Zm57.13,57.13a57.13,57.13,0,1,1-105.83-29.83l39.55,42.43L717,1049.7A56.81,56.81,0,0,1,727.7,1082.92Z" style="fill:#0e2549"/><path d="M1224.51,616.09H797.73a1.5,1.5,0,0,1,0-3h426.78a1.5,1.5,0,0,1,0,3Z" style="fill:#0e2549"/><path d="M1108.07,685.18H794.13a1.5,1.5,0,0,1,0-3h313.94a1.5,1.5,0,0,1,0,3Z" style="fill:#0e2549"/><path d="M1220.15,833.63H788.73a1.5,1.5,0,0,1,0-3h431.42a1.5,1.5,0,0,1,0,3Z" style="fill:#0e2549"/><path d="M991.29,902.72H785.13a1.5,1.5,0,0,1,0-3H991.29a1.5,1.5,0,0,1,0,3Z" style="fill:#0e2549"/><path d="M1224.51,1051.17H780.73a1.5,1.5,0,0,1,0-3h443.78a1.5,1.5,0,0,1,0,3Z" style="fill:#0e2549"/><path d="M1125.33,1120.26H777.13a1.5,1.5,0,1,1,0-3h348.2a1.5,1.5,0,0,1,0,3Z" style="fill:#0e2549"/><path d="M1057,1213.85H641.14a1.5,1.5,0,0,1,0-3H1057a1.5,1.5,0,0,1,0,3Z" style="fill:#0e2549"/><path d="M1053.34,1284.64H637.52a1.5,1.5,0,0,1,0-3h415.82a1.5,1.5,0,0,1,0,3Z" style="fill:#0e2549"/><path d="M760,302.46c0,151.46-70.51,274.24-157.48,274.24S445,453.92,445,302.46c0,0,58-19.49,76.44-27.93,21.59-9.87,83.71-45.27,83.71-45.27s60.72,35.68,81,45.27C704.57,283.24,760,302.46,760,302.46Z" style="fill:#d2ebfc"/><path d="M602.48,578.2c-42.62,0-82.63-28.79-112.66-81.08-29.87-52-46.32-121.15-46.32-194.66v-1.08l1-.34c.58-.19,58.13-19.56,76.3-27.87,21.28-9.72,83-44.85,83.59-45.21l.75-.43.75.44c.61.36,60.89,35.76,80.88,45.2,18.14,8.58,73.11,27.67,73.66,27.86l1,.35v1.07c0,73.51-16.45,142.64-46.32,194.66C685.11,549.4,645.1,578.2,602.48,578.2Zm-156-274.66c.33,149.9,70.18,271.66,156,271.66s155.65-121.78,156-271.67c-7.61-2.66-56-19.64-73-27.64C666.62,267,612.18,235.12,605.14,231c-7.15,4.07-63,35.71-83.08,44.9C505.1,283.65,454.35,300.88,446.5,303.53Z" style="fill:#0e2549"/><path d="M731.28,323.5c0,123.88-57.67,224.3-128.81,224.3S473.67,447.38,473.67,323.5c0,0,51.42-16.58,67.68-24,16.63-7.63,63.89-36.33,63.89-36.33s46.78,30.06,63.45,38.05C683.53,308.29,731.28,323.5,731.28,323.5Z" style="fill:#fff"/><path d="M602.48,549.3c-35,0-67.77-23.6-92.38-66.45-24.46-42.59-37.93-99.18-37.93-159.35V322.4l1-.34c.51-.17,51.52-16.64,67.52-24,16.36-7.51,63.27-36,63.74-36.25l.8-.49.79.51c.47.3,46.89,30.1,63.29,38,14.57,7,61.92,22.09,62.4,22.24l1,.33v1.1c0,60.17-13.47,116.76-37.93,159.35C670.25,525.7,637.44,549.3,602.48,549.3ZM475.17,324.59c.34,122.35,57.32,221.71,127.31,221.71s127-99.36,127.3-221.71c-7.25-2.32-48-15.49-61.74-22.06-15.58-7.46-56.42-33.53-62.83-37.64-6.31,3.81-47.92,28.89-63.24,35.92C526.9,307.74,482.74,322.14,475.17,324.59Z" style="fill:#0e2549"/><polygon points="686.15 376.96 628.5 376.96 628.5 319.31 576.46 319.31 576.46 376.96 518.81 376.96 518.81 429 576.46 429 576.46 486.65 628.5 486.65 628.5 429 686.15 429 686.15 376.96" style="fill:#0e2549"/><path d="M1677.49,442.69l-20.38-4.32,4.09-19.32L1641.88,415l4.32-20.38,19.32,4.09,4.09-19.32,20.38,4.32L1685.9,403l19.32,4.09-4.32,20.38-19.32-4.09Zm-16.82-6.63,14.51,3.07,4.09-19.32,19.32,4.09,3.07-14.51-19.32-4.09,4.09-19.32-14.51-3.07-4.09,19.32-19.32-4.09-3.07,14.51,19.32,4.09Z" style="fill:#0e2549"/><path d="M1659.17,483.2l-.75-.84c-2.82-3.15-68.92-77.69-63.88-129.48,1.28-13.16,7.13-23.76,17.4-31.52a23.78,23.78,0,0,1,19.33-4.52c24.19,4.43,48.49,39.88,53.2,47.08,7.79-4.44,48.35-26.6,71-19.8a19.5,19.5,0,0,1,12.47,10.35c5.22,10.69,5.74,22.24,1.54,34.33-17.09,49.19-105.55,92.12-109.31,93.93Zm-32.71-163.81a20.67,20.67,0,0,0-12.72,4.36c-9.57,7.23-15,17.13-16.22,29.42-4.63,47.6,55,117.81,62.38,126.34,10.06-5,91-46.47,106.76-91.71,3.93-11.3,3.45-22.08-1.41-32a16.4,16.4,0,0,0-10.64-8.79c-23.36-7-69.41,20-69.87,20.24l-1.26.74-.78-1.23c-.27-.42-26.91-42.35-52-46.94A23.68,23.68,0,0,0,1626.46,319.38Z" style="fill:#0e2549"/><path d="M1413.22,134.48a20.64,20.64,0,0,0-37.14-8.63l-23.4,32.73a20.67,20.67,0,0,0,4.79,28.8,20.43,20.43,0,0,0,11.93,3.83,21.06,21.06,0,0,0,3.45-.29,20.5,20.5,0,0,0,13.41-8.33l23.4-32.73A20.5,20.5,0,0,0,1413.22,134.48Zm-29.39,46.37a17.65,17.65,0,0,1-28.71-20.52L1366,145.19l28.71,20.52Zm23.4-32.73-10.83,15.15-28.71-20.52,10.83-15.15a17.51,17.51,0,0,1,11.46-7.12,18,18,0,0,1,3-.25,17.65,17.65,0,0,1,14.29,27.89Z" style="fill:#0e2549"/><path d="M189.46,790.42l5.83,115.48,77-26.72-64.32-95C202.24,775.71,188.94,780.17,189.46,790.42Z" style="fill:#d2ebfc"/><path d="M193.89,908,188,790.5a11.65,11.65,0,0,1,21.29-7.12L274.66,880Zm5.81-126.73a9.06,9.06,0,0,0-2.85.46,8.49,8.49,0,0,0-5.9,8.64l5.73,113.49L270,878.41l-63.22-93.35A8.31,8.31,0,0,0,199.7,781.25Z" style="fill:#0e2549"/><path d="M458.61,1540.75h0a48.62,48.62,0,0,1-61.87-30L195.61,930.81a48.62,48.62,0,0,1,30-61.87h0a48.62,48.62,0,0,1,61.87,30l201.13,579.94A48.62,48.62,0,0,1,458.61,1540.75Z" style="fill:#d2ebfc"/><path d="M442.64,1545a50.21,50.21,0,0,1-47.32-33.73L194.19,931.3a50.12,50.12,0,1,1,94.71-32.85L490,1478.39a50.12,50.12,0,0,1-30.93,63.78h0A50.19,50.19,0,0,1,442.64,1545ZM241.5,867.75A47.13,47.13,0,0,0,197,930.32l201.13,579.94a47.12,47.12,0,0,0,60,29.08h0a47.12,47.12,0,0,0,29.08-60L286.07,899.43A47.21,47.21,0,0,0,241.5,867.75Z" style="fill:#0e2549"/><path d="M358.67,1173.93a1.5,1.5,0,0,0-1.91-.93l-17.48,6.06-7.54-21.73,6.88-2.39a1.5,1.5,0,0,0-1-2.83l-6.88,2.39-7.54-21.73,17.5-6.07a1.5,1.5,0,0,0-1-2.83l-17.5,6.07-7.54-21.73,6.88-2.39a1.5,1.5,0,0,0-1-2.83l-6.88,2.39-7.54-21.73,17.49-6.07a1.5,1.5,0,0,0-1-2.83l-17.49,6.07-7.54-21.73,6.89-2.39a1.5,1.5,0,0,0-1-2.83l-6.89,2.39-7.54-21.73,17.51-6.07a1.5,1.5,0,0,0-1-2.83l-17.51,6.07-7.54-21.73,6.89-2.39a1.5,1.5,0,0,0-1-2.83l-6.89,2.39-7.54-21.73,17.5-6.07a1.5,1.5,0,0,0-1-2.83l-17.5,6.07-7.54-21.73,6.9-2.39a1.5,1.5,0,0,0-1-2.83l-6.9,2.39-7.54-21.73,17.52-6.08a1.5,1.5,0,0,0-1-2.83l-17.52,6.08-7.54-21.73,6.9-2.39a1.5,1.5,0,0,0-1-2.83l-6.9,2.39-13.88-40a13.07,13.07,0,0,0,3.06-13.47L221.7,817.73a13.08,13.08,0,0,0-16.64-8.07h0A13.08,13.08,0,0,0,197,826.3L210,863.94a13.07,13.07,0,0,0,10.66,8.67l13.89,40.05L227.76,915a1.5,1.5,0,1,0,1,2.83l6.83-2.37,7.54,21.73-17.48,6.06a1.5,1.5,0,1,0,1,2.83l17.48-6.06,7.54,21.73-6.83,2.37a1.5,1.5,0,1,0,1,2.83l6.83-2.37,7.54,21.73-17.5,6.07a1.5,1.5,0,1,0,1,2.83l17.5-6.07,7.54,21.73-6.84,2.37a1.5,1.5,0,1,0,1,2.83l6.84-2.37,7.54,21.73-17.49,6.07a1.5,1.5,0,1,0,1,2.83l17.49-6.07,7.54,21.73-6.84,2.37a1.5,1.5,0,1,0,1,2.83l6.84-2.37,7.54,21.73-17.51,6.07a1.5,1.5,0,1,0,1,2.83l17.51-6.07,7.54,21.73-6.85,2.38a1.5,1.5,0,1,0,1,2.83l6.85-2.38,7.54,21.73-17.5,6.07a1.5,1.5,0,1,0,1,2.83l17.5-6.07,7.54,21.73-6.85,2.38a1.5,1.5,0,1,0,1,2.83l6.85-2.38,7.54,21.73L310.78,1189a1.5,1.5,0,1,0,1,2.83l17.52-6.08,7.54,21.73L330,1209.8a1.5,1.5,0,1,0,1,2.83l6.81-2.36,5.62,16.22,11-3.81-5.62-16.22,6.92-2.4a1.5,1.5,0,0,0-1-2.83l-6.92,2.4-7.54-21.73,17.48-6.06A1.5,1.5,0,0,0,358.67,1173.93Z" style="fill:#0e2549"/><path d="M461,1468.68a1.5,1.5,0,0,0-1.91-.93L440.93,1474l-7.54-21.73,7.54-2.61a1.5,1.5,0,0,0-1-2.83l-7.54,2.61-7.54-21.73,18.16-6.3a1.5,1.5,0,0,0-1-2.83l-18.16,6.3-7.54-21.73,7.54-2.61a1.5,1.5,0,0,0-1-2.83l-7.54,2.61-7.54-21.73,18.14-6.29a1.5,1.5,0,0,0-1-2.83l-18.14,6.29-7.54-21.73,7.54-2.61a1.5,1.5,0,0,0-1-2.83l-7.54,2.61-7.54-21.73,18.16-6.3a1.5,1.5,0,0,0-1-2.83l-18.16,6.3-7.54-21.73,7.54-2.61a1.5,1.5,0,0,0-1-2.83l-7.54,2.61-7.54-21.73,18.11-6.28a1.5,1.5,0,0,0-1-2.83l-18.11,6.28-7.54-21.73,7.51-2.61a1.5,1.5,0,0,0-1-2.83l-7.51,2.61-7.54-21.73,18.13-6.29a1.5,1.5,0,0,0-1-2.83l-18.13,6.29L319,1122.34l-.49-1.42-9.76,3.38L346,1231.79l-18.09,6.27a1.5,1.5,0,1,0,1,2.83l18.08-6.27,7.54,21.73-7.44,2.58a1.5,1.5,0,1,0,1,2.83l7.44-2.58,7.54,21.73-18.1,6.28a1.5,1.5,0,1,0,1,2.83l18.1-6.28,7.54,21.73-7.41,2.57a1.5,1.5,0,1,0,1,2.83l7.41-2.57L380,1330,362,1336.31a1.5,1.5,0,1,0,1,2.83l18.06-6.26,7.54,21.73-7.41,2.57a1.5,1.5,0,1,0,1,2.83l7.41-2.57,7.54,21.73L379,1385.44a1.5,1.5,0,1,0,1,2.83l18.08-6.27,7.54,21.73-7.42,2.57a1.5,1.5,0,1,0,1,2.83l7.42-2.57,7.54,21.73-18.06,6.26a1.5,1.5,0,1,0,1,2.83l18.06-6.26,7.54,21.73-7.42,2.57a1.5,1.5,0,1,0,1,2.83l7.42-2.57,7.54,21.73-18.08,6.27a1.5,1.5,0,1,0,1,2.83l18.08-6.27,1.91,5.51.49,1.42,9.76-3.38-2.4-6.93,18.14-6.29A1.5,1.5,0,0,0,461,1468.68ZM312.52,1126.16l4.09-1.42,36.29,104.64-4.09,1.42Zm37.27,107.48,4.09-1.42,7.54,21.73-4.09,1.42Zm8.52,24.56,4.09-1.42,7.54,21.73-4.09,1.42Zm8.52,24.56,4.09-1.42,7.54,21.73-4.09,1.42Zm8.52,24.56,4.09-1.42,7.54,21.73-4.09,1.42Zm8.52,24.56,4.09-1.42,7.54,21.73-4.09,1.42Zm8.52,24.56,4.09-1.42,7.54,21.73-4.09,1.42ZM400.9,1381l4.09-1.42,7.54,21.73-4.09,1.42Zm8.52,24.56,4.09-1.42,7.54,21.73-4.09,1.42Zm8.52,24.57,4.09-1.42,7.54,21.73-4.09,1.42Zm8.52,24.56,4.09-1.42,7.54,21.73-4.09,1.42Zm14,27.24-4.09,1.42-1.42-4.09,4.09-1.42Z" style="fill:#0e2549"/><path d="M989.75,1540.72h0A37,37,0,0,1,977.45,1490l40.37-66.24a37,37,0,0,1,50.72-12.31h0a37,37,0,0,1,12.31,50.72l-40.37,66.24A37,37,0,0,1,989.75,1540.72Z" style="fill:#a1c5e2"/><path d="M1086.61,1433.92a38.36,38.36,0,0,0-70.08-10.94l-40.37,66.24a38.41,38.41,0,0,0,65.59,40l40.37-66.24A38.14,38.14,0,0,0,1086.61,1433.92Zm-47.42,93.71a35.41,35.41,0,0,1-60.47-36.86l19.4-31.84,60.47,36.85Zm40.37-66.24-19.4,31.84-60.47-36.85,19.4-31.84a35.41,35.41,0,0,1,60.47,36.86Z" style="fill:#0e2549"/><path d="M1044.53,1521.77s-10.11,19.44-22.4,21.86-29.9,5.16-44.72-15.36,5.1-46.57,5.1-46.57l15.13-24.83,63,38.42Z" style="fill:#0e2549"/><path d="M1142.07,1271.54v-83.24h192.18v83.24c30.29,3.18,54,30.33,54,63.35v211.38H1088.11V1334.89C1088.11,1301.87,1111.91,1274.36,1142.07,1271.54Z" style="fill:#d2ebfc"/><polygon points="1088.11 1491.21 1251.39 1491.21 1253.22 1360.72 1088.11 1360.72 1088.11 1491.21" style="fill:#fff"/><path d="M1335.74,1270.21v-83.4H1140.57v83.39c-30.37,3.59-54,31.72-54,64.7v212.88H1389.7V1334.89C1389.7,1301.72,1366.6,1274.16,1335.74,1270.21Zm-66.82-80.4h16.24V1270h-16.24Zm-18,0h15V1270h-15Zm-19.71,0h16.71V1270h-16.71Zm-21.33,0h18.33V1270h-18.33Zm-22,0h19V1270h-19Zm-23,0h20V1270h-20Zm-21.26,0h18.26V1270h-18.26Zm-54,172.41H1251.7l-1.78,127.49H1089.61Zm297.09,182.55H1089.61v-52.06h163.27l1.87-133.49H1089.61v-24.32c0-31.91,23.07-59.07,52.54-61.85h152.74v-3h-6.73v-80.24h44.58v83.09l1.34.14c30,3.15,52.61,29.75,52.61,61.86Z" style="fill:#0e2549"/><polygon points="1278.43 1476.09 1278.49 1507.5 1322 1507.5 1325.63 1477.69 1278.43 1476.09" style="fill:#fff"/><path d="M1323.33,1509H1277l-.06-34.46,50.39,1.72Zm-43.35-3h40.69l3.27-26.86-44-1.5Z" style="fill:#0e2549"/><path d="M1431.61,1112v61.27l-53.5-3.27,7.74-55.52Z" style="fill:#8daec4"/><path d="M1276.1,1505.6s-62.89,20-65.06,36.41h112.77V1505.6Z" style="fill:#e2474b"/><polygon points="1453.85 1476.77 1455.04 1508.55 1498.55 1508.55 1500.62 1476.09 1453.85 1476.77" style="fill:#fff"/><path d="M1500,1510h-46.37l-1.3-34.75,49.92-.73Zm-43.48-3h40.66l1.87-29.44-43.61.64Z" style="fill:#0e2549"/><path d="M1452.65,1506.65s-62.89,20-65.06,36.41h112.77v-36.41Z" style="fill:#e2474b"/><polygon points="1383.48 1536.81 1383.48 1546.27 1503.3 1546.27 1503.3 1535.46 1383.48 1536.81" style="fill:#0e2549"/><polygon points="1327.34 1535.14 1327.34 1545.22 1207.51 1545.22 1207.51 1534.41 1327.34 1535.14" style="fill:#0e2549"/><path d="M1448.42,1520a1.53,1.53,0,0,1-.43-.06l-21.74-6.51a1.5,1.5,0,0,1,.86-2.87l21.74,6.51a1.5,1.5,0,0,1-.43,2.94Z" style="fill:#0e2549"/><path d="M1458.75,736.15l-2.7-1.3c.22-.45,21.59-45.46,10.36-67.86-3.12-6.23-8.59-10.17-16.27-11.71h-45c-.26,0-34.21,2.18-34.67,22.53-.45,19.82,3.95,41.51,4,41.73l-2.94.6c0-.22-4.51-22.24-4.05-42.4.53-23.12,36.08-25.38,37.59-25.46h45.41l.14,0c8.71,1.71,14.94,6.2,18.51,13.34C1481,689.37,1459.66,734.26,1458.75,736.15Z" style="fill:#e2474b"/><path d="M1437.55,1526.53a1.53,1.53,0,0,1-.43-.06l-21.74-6.51a1.5,1.5,0,1,1,.86-2.87l21.74,6.51a1.5,1.5,0,0,1-.43,2.94Z" style="fill:#0e2549"/><path d="M1422.48,1533a1.53,1.53,0,0,1-.43-.06l-21.74-6.51a1.5,1.5,0,0,1,.86-2.87l21.74,6.51a1.5,1.5,0,0,1-.43,2.94Z" style="fill:#0e2549"/><path d="M1275,1516.76a1.53,1.53,0,0,1-.43-.06l-21.74-6.51a1.5,1.5,0,1,1,.86-2.87l21.74,6.51a1.5,1.5,0,0,1-.43,2.94Z" style="fill:#0e2549"/><path d="M1264.09,1523.27a1.53,1.53,0,0,1-.43-.06l-21.74-6.51a1.5,1.5,0,1,1,.86-2.87l21.74,6.51a1.5,1.5,0,0,1-.43,2.94Z" style="fill:#0e2549"/><path d="M1249,1529.77a1.53,1.53,0,0,1-.43-.06l-21.74-6.51a1.5,1.5,0,0,1,.86-2.87l21.74,6.51a1.5,1.5,0,0,1-.43,2.94Z" style="fill:#0e2549"/><polygon points="1514.58 927.41 1512.84 1090.84 1511.81 1188.23 1508.68 1482.55 1439.42 1482.55 1408.44 1182.34 1403.78 1137.17 1394.81 1181.61 1334.09 1482.55 1267.42 1482.55 1294.89 1181.61 1294.89 1181.6 1307.56 1042.71 1314.94 961.89 1408.5 945.73 1444.72 939.47 1514.58 927.41" style="fill:#0e2549"/><path d="M1396.16,622s4.9,51.45.78,57.14-27.87,16.17-27.87,16.17l39.83,117.12,85.06-8.22,5.52-87.08s-38.83-31.63-41.17-38.13c-3.24-9-3.25-57-3.25-57Z" style="fill:#fff"/><path d="M1407.87,814.08l-40.66-119.54,1.26-.55c6.5-2.87,24.08-11.29,27.26-15.68,2.76-3.81.81-36.45-1.06-56.12a1.5,1.5,0,1,1,3-.28c.83,8.69,4.74,52.31.5,58.16-3.82,5.27-21.9,13.7-27.23,16.11l39,114.7,82.61-8,5.39-85c-6.07-5-38.71-31.85-41-38.29-3.29-9.13-3.34-55.55-3.34-57.52a1.5,1.5,0,1,1,3,0c0,.48,0,47.86,3.16,56.5,1.62,4.48,25.23,24.86,40.71,37.47l.6.49-5.65,89.12Z" style="fill:#0e2549"/><path d="M1162.61,723.1c13,7.35,64.67,62,64.67,62l-37.07,17.7s-30.07-56.18-35.4-56.89c-10-1.35-40.24-.44-50-7-14.77-9.89-22.4-22.49-20.64-26.41,1-2.12,26.55,13.23,32.17,13.38C1132.2,726.29,1153.33,717.87,1162.61,723.1Z" style="fill:#fff"/><path d="M1189.56,804.76l-.68-1.26c-14.23-26.57-31-54.84-34.36-56.14-2.6-.34-6.87-.54-11.81-.77-13.22-.62-31.32-1.46-38.74-6.43-14.9-10-23.47-23.16-21.17-28.27a1.8,1.8,0,0,1,1.05-1c1.6-.57,4.5.69,15.2,6,6.61,3.29,14.83,7.38,17.33,7.44,6.28.16,13.51-1.11,20.49-2.34,10.55-1.86,20.51-3.62,26.49-.24h0c13.06,7.38,62.91,60,65,62.25l1.42,1.5ZM1085.4,714c.08,3.74,6.58,14.57,20.24,23.71,6.72,4.5,24.34,5.32,37.21,5.92,5,.23,9.34.44,12.16.81,1.32.18,4.06.55,20.79,29.45,6.7,11.56,13,23.19,15,27l33.92-16.2c-8.39-8.81-51.43-53.73-62.9-60.21-5-2.85-14.49-1.18-24.49.58-7.12,1.26-14.5,2.56-21.09,2.38-2.94-.08-9.26-3.12-18.58-7.75C1093.39,717.48,1087.68,714.63,1085.4,714Z" style="fill:#0e2549"/><path d="M1356.11,690.76c-25.71,9.38-19.5,146.69-19.5,146.69-4.2,16.15-14.08,102.6-14.08,102.6L1502.73,976,1524,868.06s13.3-181.66-57.3-192.3c-6.78-1-27.48,8.66-49.6,6.52-9.6-.93-14.49,10.52-19.26-6.28C1397.81,676,1361.7,688.71,1356.11,690.76Z" style="fill:#e2474b"/><polygon points="1515.62 1097.01 1513.26 1188.31 1511.81 1188.23 1408.44 1182.34 1403.78 1137.17 1394.81 1181.61 1294.89 1181.61 1294.89 1181.6 1307.56 1042.71 1344.66 975.97 1408.5 945.73 1440.68 930.49 1444.72 939.47 1512.84 1090.84 1515.62 1097.01" style="fill:#091a33"/><path d="M1398,855.32,1380.86,679c-11.79,0-62.16,31.7-62.16,31.7-.8-1.63-43,75.41-54.61,104.09-1.34,3.31-62.26-63.54-61.91-59.59,0,0-35.95,11-35.69,17.23s55.82,113.24,96.78,132.57c7.59,3.58,50.79-24,53-65.1l-5.57,101.28-18.51,224.68,90.36.14,13.15-209.34Z" style="fill:#a1c5e2"/><path d="M1462.27,672.34,1396.7,859.07c-.17,14.88-3.47,74.66,0,137.9,4.7,85.89,16.58,178.17,16.58,173,0-2.08,110.26,4.87,110.26,4.87l5.31-176.27s41.77-28.9,41.77-110.74c0-91.7-5-122.86-17.21-168.87C1551.65,712.35,1486.27,672.34,1462.27,672.34Z" style="fill:#a1c5e2"/><path d="M1425.47,522.5c-10.71-.23-36.71-1.12-39.14,17.77-2.77,21.56-2.68,49.74-2.39,64.61a11.83,11.83,0,0,0,10.32,11.51l65.09,8.35a11.83,11.83,0,0,0,13-8.92c4.85-19.69,14.74-61.43,13.19-68.11C1480.24,525,1442.42,522.87,1425.47,522.5Z" style="fill:#0e2549"/><path d="M1452.5,638.18c4-3.2,7.25-17.47,9.76-33.89a1.38,1.38,0,0,1,.81-1.06c4.6-2,11.48-6.65,12.35-14.85.75-7.1-4.56-6.27-8.87-4.51a1.09,1.09,0,0,1-1.48-1.18c2.23-19.91,3.37-37.47,3.37-37.47l-77.34-9.92S1389,553,1387.18,573c-.08.9-2.91,48.71-1.61,53.24a13.34,13.34,0,0,0,4.8,6.57s4.44,4.7,32.55,8.3Z" style="fill:#fff"/><path d="M1422.93,642.6h-.19c-26.55-3.41-32.44-7.81-33.35-8.66a14.74,14.74,0,0,1-5.25-7.28c-1.42-4.92,1.51-53.34,1.55-53.79,1.79-19.76,3.91-37.57,3.93-37.75l.18-1.5L1470,543.9l-.09,1.41c0,.17-1.15,17.45-3.31,36.92,3.72-1.41,6.52-1.43,8.33-.07,1.61,1.21,2.27,3.36,1.95,6.38-1,9.7-9.51,14.43-13.18,16-3.11,20.33-6.48,31.71-10.29,34.77a1.5,1.5,0,1,1-1.88-2.34c1.78-1.43,5.34-7.61,9.22-33a2.87,2.87,0,0,1,1.7-2.21c3.15-1.37,10.59-5.44,11.46-13.63.14-1.31.12-3-.77-3.67s-3.17-.47-6,.71a2.54,2.54,0,0,1-2.51-.33,2.62,2.62,0,0,1-1-2.41c1.84-16.45,3-31.45,3.27-36L1392.42,537c-.55,4.7-2.26,19.76-3.75,36.16-.16,1.87-2.84,48.59-1.66,52.69a11.87,11.87,0,0,0,4.3,5.81l.16.14s5,4.43,31.65,7.84a1.5,1.5,0,0,1-.19,3Z" style="fill:#0e2549"/><path d="M1434.22,587.12h-.2a2.5,2.5,0,0,1-2.3-2.69l.13-1.61a2.5,2.5,0,1,1,5,.39l-.12,1.61A2.5,2.5,0,0,1,1434.22,587.12Z" style="fill:#0e2549"/><path d="M1400.24,583.81l-.3,0a2.5,2.5,0,0,1-2.19-2.78l.22-1.89a2.5,2.5,0,0,1,5,.59l-.22,1.89A2.5,2.5,0,0,1,1400.24,583.81Z" style="fill:#0e2549"/><path d="M1443.78,575.13a1.49,1.49,0,0,1-.73-.19,17.34,17.34,0,0,0-12.26-1.4,1.5,1.5,0,0,1-.88-2.87,20.1,20.1,0,0,1,14.6,1.65,1.5,1.5,0,0,1-.73,2.81Z" style="fill:#0e2549"/><path d="M1412.21,604.67a1.5,1.5,0,0,1-.5-.09c-1.12-.4-6.75-2.55-6.93-6-.14-2.55.2-3.17,4.36-10.81.9-1.64,2-3.63,3.28-6,.62-1.41,2.1-5.43,1.92-7.9,0-.1-.28-.63-1.45-1.33-3.36-2-11-3.54-15.8-1.45a1.5,1.5,0,1,1-1.2-2.75c5.44-2.36,14.16-1,18.58,1.65,1.8,1.09,2.76,2.32,2.85,3.66.27,3.77-2.1,9.16-2.2,9.38l-.05.1c-1.32,2.45-2.41,4.45-3.32,6.11-4,7.3-4.09,7.56-4,9.21,0,.9,2.69,2.52,4.94,3.31a1.5,1.5,0,0,1-.5,2.92Z" style="fill:#0e2549"/><path d="M1490.43,1009a1.49,1.49,0,0,1-.91-.31l-49.75-37.79a1.5,1.5,0,0,1,1.81-2.39l49.75,37.79a1.5,1.5,0,0,1-.91,2.69Z" style="fill:#0e2549"/><path d="M1315.31,1000.11a1.5,1.5,0,0,1-.68-2.84l53.52-27.17a1.5,1.5,0,1,1,1.36,2.68L1316,999.95A1.49,1.49,0,0,1,1315.31,1000.11Z" style="fill:#0e2549"/><path d="M1382.3,673.77l-35.94,39.71,29.13,11.71-16.75,44L1397.25,850a.3.3,0,0,0,.56-.16Z" style="fill:#fff"/><path d="M1397.51,851.68a1.79,1.79,0,0,1-1.62-1l-38.78-81.45L1373.56,726l-29.76-12,39.69-43.85,15.81,179.5a1.8,1.8,0,0,1-1.79,2Zm-1.2-1.7h0Zm-35.95-80.9,35.36,74.26-14.62-166-32.19,35.56,28.5,11.45Z" style="fill:#0e2549"/><path d="M1462.27,672.34,1497,725l-39.19,3.41,8.8,46.62-66.49,74.08a.6.6,0,0,1-1-.61Z" style="fill:#fff"/><path d="M1399.69,850.82a2.11,2.11,0,0,1-1.1-.32,2.07,2.07,0,0,1-.86-2.54l64.15-179,37.77,57.27-40,3.48,8.63,45.72-67,74.63A2.08,2.08,0,0,1,1399.69,850.82Zm.86-1.84v0Zm62.12-173.31-60.59,169L1465,774.59l-9-47.52,38.33-3.33Z" style="fill:#0e2549"/><path d="M1519.05,1176.38H1519l-106.7-4.91-.38-.85c-9.34-21-17.44-192.26-17.78-199.54l2.18-121.26a1.52,1.52,0,0,1,1.53-1.47,1.5,1.5,0,0,1,1.47,1.53L1397.13,971c.08,1.66,8.2,173.47,17.18,197.52l104.82,4.82a1.5,1.5,0,0,1-.07,3Z" style="fill:#0e2549"/><circle cx="1412.38" cy="922.24" r="4.41" style="fill:#fff"/><path d="M1412.38,928.16a5.91,5.91,0,1,1,5.91-5.91A5.92,5.92,0,0,1,1412.38,928.16Zm0-8.83a2.91,2.91,0,1,0,2.91,2.91A2.92,2.92,0,0,0,1412.38,919.33Z" style="fill:#0e2549"/><path d="M1378.69,1167.36h-88.05l.12-1.61,27-361.52a1.5,1.5,0,0,1,3,.22l-26.91,359.91h84.82a1.5,1.5,0,0,1,0,3Z" style="fill:#0e2549"/><polygon points="1481.15 681 1460.26 664.72 1417.07 682.28 1430.92 698.8 1481.15 681" style="fill:#e2474b"/><path d="M1430.44,700.57l-15.84-18.9L1460.5,663l23.73,18.49Zm-10.9-17.68L1431.4,697l46.67-16.55-18-14.06Z" style="fill:#0e2549"/><polygon points="1369.37 682.85 1383.94 667.42 1417.07 682.28 1404.58 697.52 1369.37 682.85" style="fill:#e2474b"/><path d="M1405,699.33l-38.25-15.93,16.79-17.79,35.9,16.1Zm-33.08-17,32.18,13.4,10.54-12.86-30.37-13.62Z" style="fill:#0e2549"/><polygon points="1430.92 698.8 1417.07 682.28 1403.3 698.8 1409.32 705.9 1393.22 794.02 1399.13 848.51 1421.45 786.24 1420.87 707.25 1430.92 698.8" style="fill:#0e2549"/><rect x="1261.59" y="1464.52" width="75.71" height="21.5" style="fill:#0e2549"/><rect x="1437.55" y="1461.05" width="75.71" height="21.5" style="fill:#0e2549"/><path d="M1337.73,1466l-.3,0a1.5,1.5,0,0,1-1.17-1.77l33.67-166.85c-7.12,1.68-27,5.85-33.57,1.62a5,5,0,0,1-2.37-3.38,4.49,4.49,0,0,1,.93-3.55c3.69-4.9,18.31-7.44,25.46-8.42-6.21-4.8-9-8.26-8.15-10.29s3.66-1.62,4.6-1.49c7.43,1,13.63,5.14,16.67,7.53l8.23-40.56a1.5,1.5,0,1,1,2.94.6l-9.28,45.71-2-1.88c-.08-.07-7.62-7.18-17-8.43-.49-.07-.87-.06-1.12-.09,1.06,1.69,5.21,5.39,9.84,8.71l3.21,2.31-3.93.41c-6.43.66-23.84,3.34-27.12,7.69a1.48,1.48,0,0,0-.37,1.22,2,2,0,0,0,1,1.38c5.52,3.54,26.06-.65,33.51-2.57l2.32-.6-34.61,171.51A1.5,1.5,0,0,1,1337.73,1466Z" style="fill:#a1c5e2"/><path d="M1509.88,1461.28h0a1.5,1.5,0,0,1-1.49-1.51l.8-170.21c-6.66,3-25.34,11-32.62,8.07a5,5,0,0,1-3-2.86,4.49,4.49,0,0,1,.23-3.66c2.67-5.52,16.52-10.84,23.35-13.18-7-3.51-10.38-6.37-10-8.52s3.28-2.29,4.23-2.35c7.49-.47,14.37,2.41,17.81,4.17l.24-41.39a1.5,1.5,0,0,1,3,0l-.27,46.64-2.29-1.46c-.09-.06-8.87-5.58-18.3-5a8.53,8.53,0,0,0-1.11.13c1.37,1.45,6.15,4.28,11.34,6.65l3.6,1.64-3.78,1.16c-6.18,1.89-22.75,7.88-25.13,12.79a1.48,1.48,0,0,0-.13,1.26,2,2,0,0,0,1.28,1.16c6.11,2.41,25.45-5.67,32.38-9l2.16-1-.82,175A1.5,1.5,0,0,1,1509.88,1461.28Z" style="fill:#a1c5e2"/><path d="M1469.53,550.91s-77.76,6.07-103.2-14.3c-14.51-11.62,3.48-38.24,16.79-39.92,10-1.26,20.49,13.8,31,15,8.1.94,27.17,4.83,37.63,6.95C1473,522.94,1480.5,541.41,1469.53,550.91Z" style="fill:#0e2549"/><polygon points="1527.11 963.34 1433.47 1004.79 1465.38 1069.98 1557.45 1028.24 1527.11 963.34" style="fill:#fff"/><path d="M1464.67,1072l-33.22-67.9,96.4-42.68,31.61,67.61Zm-29.16-66.42,30.57,62.48,89.37-40.51-29.08-62.2Z" style="fill:#0e2549"/><path d="M1515.62,976c-1.79,15.54-13,43-21.29,54.79-4,5.76-17.58,26.75-19,32.09-.88,3.24,15.4-4.71,16.15-4.9l1,6.1s3.23,3.12,6.09,1.9c2.45-1,3.66-4.9,6-5.49.22-.05,4.73.68,6.31.29,2-.5,3.53-4.52,5-5.75,1.07-.9,4.93.68,6.65-.45,2.76-1.81,1.7-5.66,3.63-7s4.59,1.38,7.67-1-9.57-20.22-9.33-24.29c.83-14.25,58.49-93.71,29.95-148.31C1541.61,849.53,1521.67,923.4,1515.62,976Z" style="fill:#fff"/><path d="M1497.14,1067.74c-3,0-5.6-2.48-5.73-2.61l-.36-.35-.77-4.7h0c-11.74,5.27-14.46,5.64-15.82,4.48a2,2,0,0,1-.59-2.12c1.58-5.8,15.77-27.61,19.25-32.56,8-11.34,19.23-38.54,21-54.1l1.49.17-1.49-.17c4.89-42.5,19.72-105.42,33.74-108,3-.56,5.65,1.31,7.87,5.54,21.75,41.6-6,97.88-20.86,128.11-4.88,9.9-8.73,17.72-8.92,21-.08,1.33,2.49,6.21,4.36,9.77,4.54,8.66,7,13.65,4.38,15.62a7.08,7.08,0,0,1-6.05,1.07c-.72-.13-1.4-.25-1.67-.07s-.6,1.13-.81,2c-.36,1.54-.84,3.64-2.85,5-1.37.9-3.19.7-4.81.52a9.87,9.87,0,0,0-1.78-.1,13,13,0,0,0-1.36,1.9c-1.09,1.7-2.33,3.63-4.14,4.08a20.41,20.41,0,0,1-5.86-.16l-.61-.07a7,7,0,0,0-2.08,2.11,9.57,9.57,0,0,1-3.54,3.25A5,5,0,0,1,1497.14,1067.74Zm-3.3-4.47c.77.62,2.65,1.93,4.11,1.31a7.45,7.45,0,0,0,2.34-2.32c1.07-1.38,2.17-2.81,3.9-3.24a4,4,0,0,1,1.51.06,22.84,22.84,0,0,0,4.8.23c.65-.16,1.7-1.8,2.34-2.79a12,12,0,0,1,2-2.65c1-.83,2.43-.68,4-.51a6.41,6.41,0,0,0,2.84,0c1-.66,1.27-1.8,1.57-3.13s.67-2.91,2-3.84a4.89,4.89,0,0,1,3.9-.41c1.28.23,2.39.43,3.59-.41.31-1.61-3.07-8.05-5.1-11.93-3-5.69-4.82-9.29-4.69-11.34.23-3.87,4-11.53,9.22-22.14,14.66-29.76,41.94-85.14,20.89-125.4-1.53-2.93-3.09-4.27-4.66-4-4.86.9-11.51,14.53-17.77,36.44a456.88,456.88,0,0,0-13.53,69c-1.84,16-13.39,43.86-21.55,55.48-4.46,6.35-15.74,24.08-18.37,30.38,1.61-.36,5-1.56,11.84-4.64a17.27,17.27,0,0,1,2.05-.87l1.58-.4Z" style="fill:#0e2549"/><path d="M1531.78,1017.64s43.85-28.37,51.18-89-19-162.08-19-162.08L1511,818.66s12,82.3,8,101.13-32.43,97.86-32.43,97.86Z" style="fill:#a1c5e2"/><path d="M1531.78,1019.14h-47.21l.5-1.88c4.7-17.74,10.8-33.06,16.69-47.87,8.05-20.24,15-37.71,16.41-56.35,4.25-56.62-14.59-103.34-14.78-103.81a1.5,1.5,0,0,1,2.78-1.14c.19.47,19.3,47.86,15,105.17-1.43,19.1-8.81,37.63-16.61,57.24-5.65,14.2-11.49,28.87-16.07,45.64h43.3a1.5,1.5,0,0,1,0,3Z" style="fill:#0e2549"/><polygon points="1448.05 806.28 1448.05 836.31 1494.23 836.4 1494.23 806.28 1448.05 806.28" style="fill:#fff"/><path d="M1495.73,837.9l-49.18-.1v-33h49.18Zm-46.18-3.09,43.18.09V807.78h-43.18Z" style="fill:#0e2549"/><path d="M1481,806.28h-18.86a7.31,7.31,0,0,1,7.31-7.31h4.25a7.31,7.31,0,0,1,7.31,7.31Z" style="fill:#fff"/><path d="M1482.47,807.78h-21.86v-1.5a8.82,8.82,0,0,1,8.81-8.81h4.25a8.82,8.82,0,0,1,8.81,8.81Zm-18.67-3h15.47a5.82,5.82,0,0,0-5.61-4.31h-4.25A5.82,5.82,0,0,0,1463.81,804.78Z" style="fill:#0e2549"/><path d="M1486.22,817.11h-29a1.5,1.5,0,0,1,0-3h29a1.5,1.5,0,0,1,0,3Z" style="fill:#0e2549"/><path d="M1481,825.11h-19.42a1.5,1.5,0,0,1,0-3H1481a1.5,1.5,0,0,1,0,3Z" style="fill:#0e2549"/><circle cx="1457.4" cy="746.52" r="11.02" style="fill:#ebf4fe"/><path d="M1457.4,759a12.52,12.52,0,1,1,12.52-12.52A12.53,12.53,0,0,1,1457.4,759Zm0-22a9.52,9.52,0,1,0,9.52,9.52A9.53,9.53,0,0,0,1457.4,737Z" style="fill:#e2474b"/><path d="M1383.92,790.19l-2.9-.78c1.59-5.85,1-49-10.68-63.51-2.63-3.26-5.54-4.75-8.9-4.57a10.74,10.74,0,0,0-7.69,4c-11.86,13.4-9.22,54.64-9.19,55.05l-3,.2c-.12-1.75-2.76-42.9,9.93-57.24a13.77,13.77,0,0,1,9.77-5c4.32-.24,8.16,1.67,11.39,5.67C1385.21,739.5,1385.63,783.9,1383.92,790.19Z" style="fill:#e2474b"/><path d="M1382,793.9a3.36,3.36,0,1,1,3.36-3.36A3.37,3.37,0,0,1,1382,793.9Zm0-3.73a.36.36,0,1,0,.36.36A.36.36,0,0,0,1382,790.17Z" style="fill:#e2474b"/><path d="M1342.79,785.29a3.36,3.36,0,1,1,3.36-3.36A3.37,3.37,0,0,1,1342.79,785.29Zm0-3.73a.36.36,0,1,0,.36.36A.36.36,0,0,0,1342.79,781.56Z" style="fill:#e2474b"/><path d="M1362.79,720.3l-2.85-.93c.07-.22,7.05-21.87,7.5-41.63.2-8.85,5.19-20.21,27.81-24l.5,3c-16.54,2.8-25.05,9.92-25.31,21.15C1370,698,1362.86,720.08,1362.79,720.3Z" style="fill:#e2474b"/><path d="M1458.75,736.15l-2.7-1.3c.29-.6,28.46-60,2.89-76.2l1.6-2.54C1488.36,673.69,1460,733.61,1458.75,736.15Z" style="fill:#e2474b"/><path d="M1384.3,591.54s-7.9,32.69,1.46,41.12,49.13,13,56.27,9.87,19.73-40.11,19.73-40.11-15.87,6-24.67,5.94-30.63.26-40.57-5.9A54.88,54.88,0,0,1,1384.3,591.54Z" style="fill:#0e2549"/><path d="M1421,612.22c.52,2.37-6.47,9.51-12.48,8.44-9.8-1.76-10.6-12.23-8.36-11.24.88.39,3.8,3.83,9.71,4.71C1416.29,615.07,1420.7,610.63,1421,612.22Z" style="fill:#fff"/><path d="M1835.33,1547.95H92.06a1.5,1.5,0,0,1,0-3H1835.33a1.5,1.5,0,0,1,0,3Z" style="fill:#0e2549"/><polygon points="461.9 792.93 464.16 751.73 508.84 751.73 521.94 799.71 461.9 792.93" style="fill:#fff"/><polygon points="329.56 1346.79 295.79 1492.5 249.07 1535.27 326.75 1522.25 323.26 1490.39 400.94 1344.28 329.56 1346.79" style="fill:#fff"/><path d="M244.32,1537.58l50.11-45.88,33.93-146.38,75.12-2.63-78.68,148,3.6,32.81Zm86.44-189.34-33.62,145-43.32,39.66L325.11,1521l-3.39-30.91.22-.41,76.46-143.81Z" style="fill:#0e2549"/><polygon points="546.17 1344.28 538.58 1492.5 585.29 1535.27 507.61 1522.25 511.1 1490.39 491.31 1344.28 546.17 1344.28" style="fill:#fff"/><path d="M590,1537.58,506,1523.49l3.63-33.09-20-147.62h58.15l-7.64,149.09ZM509.26,1521l71.28,11.95L537,1493.13l7.55-147.35H493l19.58,144.59Z" style="fill:#0e2549"/><path d="M505.78,1500.77c-3.76,27.86,4.51,45.47,4.51,45.47h7.13l2.11-20.65,26.75,20.82,57.44-.14v-6.49s-20-13.78-22.18-9.37C574.89,1544,507.9,1485.08,505.78,1500.77Z" style="fill:#e2474b"/><path d="M597.39,1375.07l-336.89-5S396,1063.94,413.18,995c4.82-19.37,9.69-33.28,14.19-43.26,11.53-25.51,20.71-25.39,20.71-25.39l107.07,1s19.56,10.46,29.43,59.49c.31,1.56.62,3.15.91,4.79C595,1044.86,597.39,1375.07,597.39,1375.07Z" style="fill:#e2474b"/><path d="M328.58,1500.77c3.76,27.86-4.5,45.47-4.5,45.47H317l-2.12-20.65-26.32,20.82-57.88-.14v-6.49s20-13.78,22.18-9.37C259.48,1544,326.46,1485.08,328.58,1500.77Z" style="fill:#e2474b"/><path d="M498.22,588.67s28.13,4,43.63,31.22,13.36,31.51,5.81,48.33-11.67,25.88-.38,36.5c7.24,6.81,4.95,22.32.24,27.37-6.74,7.22-18.86,22-17,30.12,6.87,29.29,26.49,39,26.49,39l-165.72.18S348,784,374,731.77c4.25-8.54,26-18.53,29.12-29.07,2.17-7.2-4.85-27.82,1.32-35.81,11.25-14.58,19.27-13.25,19.14-31.11C423.48,626.21,438.75,574,498.22,588.67Z" style="fill:#0e2549"/><path d="M534.82,734.42s-41.31-15.56-54-16.19.42,16.19.42,16.19l45.69,20.44Z" style="fill:#fff"/><path d="M527.76,756.88l-47.48-21.24-.23-.29c-1.4-1.79-8.24-11-5.69-15.9,1-2,3.22-2.88,6.54-2.71,12.77.64,52.75,15.65,54.45,16.29l1.41.53ZM482.2,733.21l43.9,19.64,6.77-17.55c-7.35-2.72-41.12-15-52.12-15.57-1.4-.07-3.18.06-3.72,1.1C475.82,723.14,479.26,729.35,482.2,733.21Z" style="fill:#0e2549"/><path d="M457.24,681.53s2.13,52.27.13,55c-6.83,9.41-27.07,17.7-31.69,18.94s75.53,31.82,75.53,31.82l38.48-18.86-14.83-13.38s-12.47-6.27-17.95-11.93-8.14-58.84-8.14-58.84Z" style="fill:#fff"/><path d="M501.29,788.95l-.61-.23c-.19-.07-19.19-7.32-37.94-14.82-38.89-15.55-38.83-16.77-38.75-18.31a1.69,1.69,0,0,1,1.3-1.54c5.24-1.41,24.41-9.58,30.81-18.3,1.21-3.16.42-34.83-.36-54.15l-.07-1.67,44.53,3,.07,1.33c1,20.34,4,54,7.72,57.87,5.24,5.41,17.42,11.57,17.54,11.63l.18.09,16.63,15Zm-72.65-32.84c9.2,4.89,47.58,20.06,72.5,29.57L537,768.08l-13-11.76c-1.63-.83-12.88-6.67-18.17-12.14s-8-49-8.49-58.48l-38.54-2.57c.66,16.67,1.79,51.53-.22,54.3C452.35,746,435.87,753.49,428.64,756.11Z" style="fill:#0e2549"/><path d="M459,687.34c-5.44-5-14.81-14.79-13.85-22.78s9.88-5.65,12.45-4c1.71,1.13,6.05-38.93,6.05-38.93l62,6.34s3.77,35.61-1.87,57.21S507.17,711,491,709.24a38,38,0,0,1-18.52-6.88Z" style="fill:#fff"/><path d="M497.38,711.13a59.22,59.22,0,0,1-6.52-.4,39.77,39.77,0,0,1-19.23-7.16,1.5,1.5,0,1,1,1.76-2.43,36.81,36.81,0,0,0,17.8,6.6c15.13,1.68,25.62-1.57,31.19-22.91,4.92-18.87,2.53-49.08,1.95-55.47L465,623.31c-4.1,37.46-5.73,38.23-6.61,38.65a1.63,1.63,0,0,1-1.6-.11c-1.46-1-5.31-2.1-7.78-1-1.35.63-2.12,1.88-2.35,3.83-.64,5.3,4.24,13.14,13.38,21.5a1.5,1.5,0,0,1-2,2.21c-7.08-6.48-15.31-15.91-14.33-24.07.45-3.77,2.46-5.45,4.07-6.2,2.93-1.36,6.77-.68,9.27.41,1.25-4.62,3.5-21.72,5.16-37.08l.16-1.48,64.73,6.61.13,1.21c.15,1.46,3.73,36.13-1.91,57.75C519.83,706.49,509.07,711.13,497.38,711.13Z" style="fill:#0e2549"/><path d="M562.1,758.89c22.63,17.94,82.61,105.29,81.06,113.1-8,39.9-77.83,58.5-77.83,58.5l-17.81-28.12,35.39-20.53-23.6-32.38-4.16,78-41.59.72s-82.12,4.13-102.35-11.82c-30.13-23.75-43.86-119.89-11.61-153,10.92-11.22,20.57-12.37,25.89-12.38,16,0,86.16,64.95,106,.8C534.3,742.5,556,754,562.1,758.89Z" style="fill:#2e6b99"/><path d="M513.32,667.83h-.06a2.5,2.5,0,0,1-2.44-2.56l0-2a2.5,2.5,0,0,1,2.5-2.44h.06a2.5,2.5,0,0,1,2.44,2.56l0,2A2.5,2.5,0,0,1,513.32,667.83Z" style="fill:#0e2549"/><path d="M485.79,664.75h-.06a2.5,2.5,0,0,1-2.44-2.56l0-2a2.45,2.45,0,0,1,2.56-2.44,2.5,2.5,0,0,1,2.44,2.56l0,2A2.5,2.5,0,0,1,485.79,664.75Z" style="fill:#0e2549"/><path d="M477.91,654.18a1.5,1.5,0,0,1-.58-2.88,17.44,17.44,0,0,1,12.75-.06,1.5,1.5,0,0,1-1.19,2.76h0a14.64,14.64,0,0,0-10.4.07A1.49,1.49,0,0,1,477.91,654.18Z" style="fill:#0e2549"/><path d="M504.27,680.11a5.71,5.71,0,0,1-3-.69l-.75-.58.15-1A1.5,1.5,0,0,1,503,677a4.51,4.51,0,0,0,3.2-.35c.35-.24.82-.72.78-2a26.89,26.89,0,0,0-.93-4.91c-.32-1.32-.69-2.82-1-4.54-1.07-5.27-1-8.09.07-9.73a4.58,4.58,0,0,1,3.36-1.77l.51-.09c4.09-.83,10.92,1.81,11.68,2.11a1.5,1.5,0,0,1-1.11,2.79c-1.85-.73-7.25-2.52-10-2l-.58.11c-.86.15-1.23.24-1.4.5-.32.48-.7,2.07.39,7.45.34,1.67.7,3.13,1,4.43a28.46,28.46,0,0,1,1,5.53,5,5,0,0,1-2.63,4.93A6.89,6.89,0,0,1,504.27,680.11Zm-.69-1.65h0Zm0-.14a1.37,1.37,0,0,1,0,.14S503.59,678.37,503.6,678.32Z" style="fill:#0e2549"/><path d="M521.44,961.84l52.15,8.09Z" style="fill:#fff"/><path d="M573.59,971.43l-.23,0-52.15-8.09a1.5,1.5,0,1,1,.46-3l52.15,8.09a1.5,1.5,0,0,1-.23,3Z" style="fill:#0e2549"/><path d="M512.13,879.87l-.25,0a1.5,1.5,0,0,1-1.23-1.73c9.85-59.26-11.15-94.62-11.36-95a1.5,1.5,0,0,1,2.56-1.56c.22.36,21.79,36.67,11.76,97A1.5,1.5,0,0,1,512.13,879.87Z" style="fill:#0e2549"/><path d="M534.19,628.4s-61.93,6.74-76.56,33.56a11,11,0,0,0-9.62-.55l9.46-46.83Z" style="fill:#0e2549"/><path d="M487.16,685.45s12,14,20.6,1.82a8.26,8.26,0,0,0-7.86-1.09S495.21,683.89,487.16,685.45Z" style="fill:#e2474b"/><path d="M458.63,720.67s11.93,14.88,8,14a29.63,29.63,0,0,1-5.89-2.09.55.55,0,0,0-.68.83c2.6,3.63,7.48,11.41,3.41,13.91-5.37,3.29-18-3.75-18.3-10.87C444.86,730,444.67,723,458.63,720.67Z" style="fill:#fff"/><path d="M460.08,749.68a16.75,16.75,0,0,1-7.63-2.15c-3.9-2.06-8.54-6.17-8.77-11-.3-6.25-.72-14.82,14.7-17.36l.87-.14.55.69c10.43,13,9.34,14.76,8.82,15.6a2,2,0,0,1-2.31.83,25.29,25.29,0,0,1-3.26-1c2.15,3.42,4,7.37,3.36,10.31a4.64,4.64,0,0,1-2.16,3.11A7.93,7.93,0,0,1,460.08,749.68ZM458,722.3c-11.91,2.23-11.63,8-11.33,14.1.14,2.87,3,6.28,7.18,8.48,3.51,1.86,7,2.32,8.84,1.18a1.62,1.62,0,0,0,.79-1.15c.41-2-1.32-6-4.63-10.61a2.05,2.05,0,0,1,2.53-3.06,32.18,32.18,0,0,0,4,1.56A89,89,0,0,0,458,722.3Z" style="fill:#0e2549"/><path d="M584.58,986.92c-3.08,1.55-6.45,4.89-9.62,11.42-9.68,19.88-20.2,11-20.2,11l.39-21.28h-7.63s-10.86-4.41-16.7,6.25-17.19,12-20.2,12.06,4.92-67.06,4.92-67.06l-81.92.52c7.61-13.47,14.45-13.47,14.45-13.47l107.07,1S574.71,937.89,584.58,986.92Z" style="fill:#c13344"/><path d="M625.73,836.78s17,28.64,10.56,39.23c-21.58,35.33-59.11,42.08-59.11,42.08s-11.35-42.08-9.85-43.58S625.73,836.78,625.73,836.78Z" style="fill:#1e5272"/><path d="M554.75,972.53s-11.29,33.27,0,36.84S575,972.53,575,972.53Z" style="fill:#0e2549"/><path d="M510.62,969.55s-11.29,33.27,0,36.84,20.2-36.84,20.2-36.84Z" style="fill:#0e2549"/><path d="M552,838.25S505,865,505.61,888.75s2.38,85,2.38,85h31.49v4.75h45.16s-8.32-60,0-74.86,32.61-27.2,32.61-29.57,1.67-37.25,1.67-37.25Z" style="fill:#a1c5e2"/><path d="M591.42,657.47c-7.59-.74-26-2.79-28.75,10.5-3.13,15.16-4.6,35.17-5.2,45.75a8.42,8.42,0,0,0,6.7,8.73l45.76,9.46a8.43,8.43,0,0,0,9.71-5.63c4.51-13.72,13.79-42.82,13.05-47.65C630.18,662.19,603.44,658.65,591.42,657.47Z" style="fill:#0e2549"/><path d="M579.76,718.79s-1.73,24.88-8.69,30.82-15.56,7.83-17.34,8.42,8.61,19,8.61,19l56.74-11.88s-16.64-11.29-16-17.53,10-28.85,10-28.85Z" style="fill:#fff"/><path d="M561.58,778.74l-.54-1c-9.88-17.5-9.12-19.47-8.87-20.12a1.77,1.77,0,0,1,1.09-1.05l1.06-.31c3-.85,10-2.85,15.78-7.83,5.31-4.54,7.7-23,8.16-29.79l.1-1.4h37l-.87,2.08c-.09.22-9.35,22.47-9.91,28.41-.35,3.69,8.79,11.66,15.39,16.14l2.92,2Zm-6.42-19.57c.73,2.53,4.39,9.79,8,16.18l52.31-11c-5.14-3.8-14.39-11.45-13.87-16.9s6.91-21.41,9.28-27.2H581.14c-.49,5.46-2.65,25-9.1,30.46S558.07,758.35,555.16,759.18Z" style="fill:#0e2549"/><path d="M602,755.91c-7.13,7.33-28.05,15-35.18.71s-36.09-27.35-36.09-27.35l-12.62,21.58,12.45,11.35s5.35,77.24,18.12,83.18S623,848.93,623,848.93l-2.74-47,25-.49s-9.44-44.29-18.16-49.68C612.32,742.62,605.42,752.39,602,755.91Z" style="fill:#e2474b"/><path d="M614.34,798.24s7.22,22.83,6.46,37.63c-.83,16.07-7.64,24.16-10.88,26.83-4.12,3.4-21.78,6-20.41,10.88s7.12-.43,9.34.29c1.08.35-20.15,11.2-9.4,16s33.47-17.1,35.45-21.45c1-2.13,12.6-10.46,16.37-27.74,3.94-18.11,0-45.15,0-45.15Z" style="fill:#fff"/><path d="M592.79,892a9.67,9.67,0,0,1-3.95-.78c-2.43-1.07-3.75-2.58-3.92-4.48-.29-3.23,3-6.5,6.94-9.52a3.9,3.9,0,0,1-1.67-.38,4.19,4.19,0,0,1-2.12-2.82c-1.23-4.43,5.48-6.66,12.6-9,3.42-1.13,7-2.31,8.31-3.42,1.57-1.29,9.46-8.62,10.34-25.75.74-14.36-6.32-36.88-6.39-37.1l-.56-1.76,30.2-3.11.21,1.42c.16,1.12,3.94,27.53,0,45.69-3,13.82-10.9,22.09-14.7,26.06a18.87,18.87,0,0,0-1.77,2C624.41,873.09,605.27,892,592.79,892Zm5.59-19.67a3,3,0,0,1,.93.14l.89.29.17,1c.16,1.09-.41,1.49-2.82,3.13-2.71,1.85-9.9,6.75-9.64,9.62.07.73.79,1.41,2.15,2,9.45,4.18,31.55-16.45,33.48-20.7a12.88,12.88,0,0,1,2.33-2.81c3.6-3.78,11.1-11.63,13.93-24.63,3.33-15.29.9-37.41.17-43.19l-23.67,2.44c1.68,5.69,6.65,23.72,6,36.4-.92,17.92-9,25.89-11.43,27.91-1.78,1.47-5.42,2.68-9.27,4C598,869,590.49,871.5,591,873.18a1.53,1.53,0,0,0,.55.93c.65.31,2.27-.35,3.45-.84A9.67,9.67,0,0,1,598.38,872.3Z" style="fill:#0e2549"/><path d="M539.47,980a1.5,1.5,0,0,1-1.5-1.48c0-.59-.89-59.44.22-85.19,1.15-26.66,26.32-36.89,26.58-37a1.5,1.5,0,0,1,1.1,2.79c-.24.09-23.61,9.64-24.68,34.33-1.11,25.66-.23,84.42-.22,85A1.5,1.5,0,0,1,539.5,980Z" style="fill:#0e2549"/><path d="M541.9,893.37s18,4.67,28,0,8.68-13.06,13-11.53.59,10.73.59,10.73,6.07.93,21.44-11.95c2-1.67,4.62,13.49-.37,19.42s-13.33,14-27.33,14.33-40.33,2-40.33,2Z" style="fill:#fff"/><path d="M535,918l5.75-26.46,1.51.39c.17,0,17.6,4.47,27,.09a17.51,17.51,0,0,0,8.32-8.1c1.25-2.16,2.66-4.6,5.81-3.49a4.3,4.3,0,0,1,2.53,2.36c1,2.33.41,5.72-.24,8,2.77-.74,8.61-3.19,18.29-11.3a2,2,0,0,1,2.77.18c2.3,2.31,3.88,15.53-1,21.35-5.24,6.21-13.9,14.52-28.44,14.87-13.81.33-40,2-40.27,2Zm8-22.81-4.25,19.57c6.4-.39,26.77-1.6,38.41-1.88,13.33-.32,21.35-8,26.22-13.8,3.51-4.16,2.64-13.62,1.58-16.55C590.21,894.68,584,894.15,583.28,894l-1.87-.29.71-1.76c.86-2.12,1.91-6.17,1.09-8a1.3,1.3,0,0,0-.79-.76c-.63-.23-.8-.28-2.22,2.16a20.38,20.38,0,0,1-9.65,9.31C561.79,898.81,547.7,896.21,543,895.18Z" style="fill:#0e2549"/><polygon points="494.07 881.7 491.92 928.63 555.15 927.43 555.15 885.87 494.07 881.7" style="fill:#2e6b99"/><path d="M555.15,887.37H555c-10.11-.7-99-7.09-107.15-14.56s-6.83-39.56-6.64-43.19a1.52,1.52,0,0,1,1.58-1.42,1.5,1.5,0,0,1,1.42,1.58c-.5,9.45-.46,35.19,5.67,40.81,5.59,5.12,66.05,11,105.33,13.78a1.5,1.5,0,0,1-.1,3Z" style="fill:#0e2549"/><path d="M608.9,775.72c.67,2.32,0,24,0,24l36.33,1.7L636.72,770Z" style="fill:#e2474b"/><path d="M645.23,802.91h-.07l-40.69-1.78,4.95-29.68a1.5,1.5,0,1,1,3,.49L608,798.28l37.3,1.63a1.5,1.5,0,0,1-.06,3Z" style="fill:#0e2549"/><path d="M606.63,882.74s-6.23,13.91-21.23,15.69Z" style="fill:#fff"/><path d="M585.4,899.93a1.5,1.5,0,0,1-.17-3c13.94-1.65,20-14.68,20-14.81a1.5,1.5,0,0,1,2.74,1.23c-.27.6-6.76,14.71-22.42,16.56Z" style="fill:#0e2549"/><path d="M607.45,889.62s-7.68,13.38-21.09,14.63Z" style="fill:#fff"/><path d="M586.35,905.74a1.5,1.5,0,0,1-.14-3c12.49-1.17,19.86-13.75,19.93-13.88a1.5,1.5,0,1,1,2.6,1.49c-.33.57-8.23,14.06-22.25,15.37Z" style="fill:#0e2549"/><path d="M610,726.18c5.62-2.79,15.59-8.6,16.69-15.36s-6.75-6.94-9.25-6.16c-1.66.52,4.21-33.24,4.21-33.24L569.41,662S558,690.21,557.48,709.2s7.54,25,21.16,27.36a32.29,32.29,0,0,0,16.75-1.27Z" style="fill:#fff"/><path d="M584.84,738.59a38.16,38.16,0,0,1-6.45-.56c-12-2.05-23-7-22.41-28.87.48-19,11.57-46.57,12-47.73l.46-1.13,54.86,9.9-.26,1.47c-2.23,12.82-4.34,26.92-4.49,31.23,2.34-.25,5.54.15,7.59,1.93a6.38,6.38,0,0,1,1.94,6.23c-1.14,7-10.14,12.81-17.5,16.46a1.5,1.5,0,1,1-1.33-2.69c9.37-4.65,15.16-9.85,15.87-14.26a3.52,3.52,0,0,0-.95-3.48c-1.66-1.44-5-1.42-6.37-1a1.6,1.6,0,0,1-1.55-.33c-.7-.61-1.86-1.64,3.58-33.14l-49.52-8.94c-2.11,5.43-11,29.18-11.38,45.55-.47,18.6,7.27,23.67,19.92,25.84a31.08,31.08,0,0,0,16-1.2,1.5,1.5,0,1,1,1,2.82A32.38,32.38,0,0,1,584.84,738.59Z" style="fill:#0e2549"/><path d="M570.54,674.48c-6.86-1.84-19.4-7.23-15.17-20.63s5.86-7.88,5.86-7.88,2.2,3.65,3.26,4-1.34.65,4.71-9.93c0,0,10.7.23,13.75,7.64s7,4.48,9.36,1.59c2-2.46,5.57,2,5.81,5,.92,3.5,17,5.2,21.22,8.54,6.6,5.29,8.81,7.4,6.55,17.15-.43,1.87-7.26,19.56-7.26,19.56l-1.88-20.48S581.75,677.48,570.54,674.48Z" style="fill:#0e2549"/><circle cx="495.07" cy="815.53" r="5.5" style="fill:#fff"/><path d="M495.07,822.53a7,7,0,1,1,7-7A7,7,0,0,1,495.07,822.53Zm0-11a4,4,0,1,0,4,4A4,4,0,0,0,495.07,811.53Z" style="fill:#0e2549"/><circle cx="498.31" cy="845.91" r="5.5" style="fill:#fff"/><path d="M498.31,852.91a7,7,0,1,1,7-7A7,7,0,0,1,498.31,852.91Zm0-11a4,4,0,1,0,4,4A4,4,0,0,0,498.31,841.91Z" style="fill:#0e2549"/><path d="M568.52,700.37a2,2,0,0,1-1.91-2.59l.52-1.69a2,2,0,0,1,3.82,1.17l-.52,1.69A2,2,0,0,1,568.52,700.37Z" style="fill:#0e2549"/><path d="M591.94,705.37a2,2,0,0,1-1.91-2.59l.52-1.69a2,2,0,1,1,3.82,1.17l-.52,1.69A2,2,0,0,1,591.94,705.37Z" style="fill:#0e2549"/><path d="M601,697.56a1.5,1.5,0,0,1-1-.37,12.29,12.29,0,0,0-8.35-2.85,1.5,1.5,0,1,1-.26-3A15.31,15.31,0,0,1,602,694.94a1.5,1.5,0,0,1-1,2.63Z" style="fill:#0e2549"/><path d="M576.74,713c-1.72,0-4.38-2.59-4.41-2.62-1.7-1.77-1.63-3.23-1.28-4.15a4,4,0,0,1,2.36-2.23,4.65,4.65,0,0,0,2.46-2.24,1.5,1.5,0,0,1,2.6,1.5,7.6,7.6,0,0,1-3.8,3.46c-.68.32-.75.38-.83.59,0,.61,1.93,2.22,2.95,2.67h.09a1.5,1.5,0,0,1,1.32,1.66,1.56,1.56,0,0,1-1,1.28A1.37,1.37,0,0,1,576.74,713Zm.24-2.94h0Z" style="fill:#0e2549"/><path d="M577.18,691.08a1.49,1.49,0,0,1-.76-.21c-4.84-2.87-8.3-2.19-8.34-2.18a1.5,1.5,0,1,1-.67-2.92c.19,0,4.6-1,10.54,2.52a1.5,1.5,0,0,1-.77,2.79Z" style="fill:#0e2549"/><path d="M581.83,718.81c.35,1.59-5.09,5.37-9.63,4-7.42-2.27-7.85-9.11-6.16-8.21a19.17,19.17,0,0,0,7.3,4.17C578.17,720.1,581.59,717.75,581.83,718.81Z" style="fill:#0e2549"/></g></g></svg>