<svg xmlns="http://www.w3.org/2000/svg" width="1139.43" height="220" viewBox="0 0 1139.43 220"><title>logo-white</title><g id="9b70746a-99cf-4c5a-9cea-3c45f6101706" data-name="Layer 2"><g id="2a655773-c863-4022-a35c-bb2efcdbb1de" data-name="Layer 1"><path d="M160.39,54.14a21.46,21.46,0,0,1-13.75-37.93A101,101,0,0,0,77.21,14.8,21.45,21.45,0,1,1,44,34a100.66,100.66,0,0,0-.49,151.5c1-14.94,9.32-34.31,46.94-31.28-.16,29.41-8.38,42.4-24.1,46.46a101,101,0,0,0,80.42,3,40,40,0,0,1-7.71-5.44l-.26-37.43c-27.72.51-26.83-12.26-53.14-14.69C55.23,143.4,42.4,165,40.89,169.11v.59c-.21.22-.22,0,0-.59L39.63,68.28c57.48-3.32,44.8,32,78.86,49.73C168.05,143.79,187,99.7,187,99.7s-.36,38.51-.78,76A100.66,100.66,0,0,0,181,38.63,21.46,21.46,0,0,1,160.39,54.14ZM184.12,67.3c-.22,40.69-15.87,50-45.45,47.6C138.67,114.91,123.95,62.45,184.12,67.3Z" style="fill:none"/><path d="M181.84,32.68a21.73,21.73,0,0,1-.85,6,21.46,21.46,0,1,1-22.38-27.33c.59,0,1.17-.09,1.77-.09a21.52,21.52,0,0,1,21.46,21.46Z" style="fill:#fff"/><path d="M86.81,32.68A21.45,21.45,0,0,1,44,34c0-.45-.07-.9-.07-1.36A21.49,21.49,0,0,1,60.34,11.83a21.75,21.75,0,0,1,5-.61A21.47,21.47,0,0,1,86.81,32.68Z" style="fill:#fff"/><path d="M110,0A109.67,109.67,0,0,0,69.83,7.58a21.33,21.33,0,0,1,11,3.55A21.59,21.59,0,0,1,83.23,13a100.87,100.87,0,0,1,58.54,1.5,21.68,21.68,0,0,1,1.62-1.5,21.41,21.41,0,0,1,9.07-4.45A109.61,109.61,0,0,0,110,0Z" style="fill:#ff6624"/><path d="M138.67,114.91c29.58,2.36,45.24-6.91,45.45-47.6C123.95,62.45,138.67,114.91,138.67,114.91Z" style="fill:#ff6624"/><path d="M90.58,155.34c-.16,29.41-8.39,42.4-24.1,46.46a58.28,58.28,0,0,1-16.4,1.42c-1.61,0-3.26-.14-5-.28,0,0-.39-1.41-.79-3.73-.18-1-.36-2.3-.5-3.69a52.21,52.21,0,0,1-.19-8.9c.07-1.1.19-2.22.34-3.35C46,168.95,55.71,152.54,90.58,155.34Z" style="fill:#ff6624"/><path d="M37.14,187.12c.07-1.1.19-2.22.34-3.35s.36-2.22.62-3.34A100.62,100.62,0,0,1,40.68,37,21.42,21.42,0,0,1,40,32.7c0-.45-.07-.9-.07-1.36a21.24,21.24,0,0,1,1.23-7.09,110,110,0,0,0-4,168.07A49.92,49.92,0,0,1,37.14,187.12Z" style="fill:#ff6624"/><path d="M40.9,169.71v-.59C40.69,169.68,40.69,169.92,40.9,169.71Z" style="fill:#231f20"/><path d="M187,99.71s-.37,38.51-.79,76c0,4.61-.1,9.2-.15,13.71,0,2.31-.06,4.6-.09,6.85-8.93,10.15-18.18,12.55-26.1,11.77a34.93,34.93,0,0,1-13.19-4.29,39.78,39.78,0,0,1-7.72-5.44l-.25-37.43c-27.72.52-26.83-12.26-53.14-14.69C55.22,143.4,42.41,165,40.9,169.11L39.63,68.28c57.48-3.32,44.8,32,78.86,49.74C168.06,143.79,187,99.71,187,99.71Z" style="fill:#fff"/><path d="M193.52,180.81a109.95,109.95,0,0,0-8-151.48,21,21,0,0,1,.53,4.59,21.73,21.73,0,0,1-.85,6c-.18.62-.39,1.22-.62,1.81a100.66,100.66,0,0,1,9.06,123.5c0,3.05-.07,6.12-.1,9.19Z" style="fill:#ff6624"/><path d="M138.83,206.46A100.9,100.9,0,0,1,76.61,205,29.47,29.47,0,0,1,67,209.3c-1,.25-1.94.45-3,.63a110.07,110.07,0,0,0,85.79,2.63,39.35,39.35,0,0,1-5.42-2.46A43.27,43.27,0,0,1,138.83,206.46Z" style="fill:#ff6624"/><path d="M269.71,110.86c0-35,22.59-58.63,56.25-58.63,33.5,0,56.1,23.61,56.1,58.63s-22.59,58.63-56.1,58.63C292.3,169.49,269.71,145.88,269.71,110.86ZM326,152.15c22.44,0,37.71-16.71,37.71-41.28S348.4,69.58,326,69.58c-22.59,0-37.87,16.71-37.87,41.28S303.37,152.15,326,152.15Z" style="fill:#ff6624"/><path d="M398.42,87.73H414l.16,12.21c6.08-9.64,13.71-13.81,23.37-13.81,7.48,0,14.8,2.57,19.48,6.91l-7.79,14.62a21.26,21.26,0,0,0-12.93-4.34c-12.47,0-20.41,9.48-20.41,25.06v38.71H398.42Z" style="fill:#ff6624"/><path d="M476.17,53.68c6.7,0,11.38,4.66,11.38,11.24,0,6.26-4.67,10.92-11.37,10.92A10.68,10.68,0,0,1,465.1,64.92C465.1,58.34,469.78,53.68,476.17,53.68Zm-8.73,34.05h17.45v79.35H467.44Z" style="fill:#ff6624"/><path d="M502,179h17.14c-.31,11.73,8.88,19.44,23.53,19.44,14,0,23.37-6.75,23.37-16.87,0-10-8.73-16.06-23.06-16.06-25.55,0-41.76-15.42-41.76-39.51,0-23.13,17.3-40,41.14-40,8.1,0,15.43,1.93,20.88,5.3l9.82-12.37,12.62,10L575,101.71c6.54,7.87,9.19,14.94,9.19,24.25,0,14.14-6.86,24.74-19.63,30.52,12.31,4.66,19.17,13.49,19.17,25.22,0,20.08-16.21,32.93-41,32.93C517.3,214.63,501.1,200.33,502,179Zm40.67-29.72c14.34,0,24-9.32,24-23.29,0-14.14-9.51-23.61-24-23.61s-24,9.48-24,23.61C518.71,139.94,528.37,149.25,542.7,149.25Z" style="fill:#ff6624"/><path d="M610.17,53.68c6.7,0,11.38,4.66,11.38,11.24,0,6.26-4.67,10.92-11.37,10.92a10.68,10.68,0,0,1-11.06-10.92C599.11,58.34,603.78,53.68,610.17,53.68Zm-8.73,34.05h17.45v79.35H601.44Z" style="fill:#ff6624"/><path d="M640.24,87.73h15.58L656,98.17c6.54-8,15.74-12,26.65-12,19.79,0,32.88,14.46,32.88,37.11v43.85H698.05V124.36c0-14-7-22-18.7-22-12.78,0-21.66,9.64-21.66,23v41.76H640.24Z" style="fill:#ff6624"/><path d="M775.12,52.64h9.19v50.28h69V52.64h9.19V165.08h-9.19v-53h-69v53h-9.19Z" style="fill:#fff"/><path d="M888.4,131V85.73h8.88v44.82c0,17.51,8.88,27.15,24.15,27.15,16.36,0,27.42-12.37,27.42-28.43V85.73h8.88v79.35h-8.1l-.16-14.3c-6.08,9.64-16.52,15.42-28.83,15.42C900.71,166.21,888.4,153,888.4,131Z" style="fill:#fff"/><path d="M990.93,149.34l-.16,15.74h-8.1V52.64h8.88v47.87c5.92-10,17.45-16.22,31.32-16.22,22.44,0,38.49,16.71,38.49,41.12s-16,41.12-38.49,41.12C1008.54,166.53,996.7,159.78,990.93,149.34Zm31,8.67c17.92,0,30.54-13,30.54-32.61s-12.62-32.61-30.54-32.61c-17.76,0-30.39,13-30.39,32.61S1004.18,158,1021.94,158Z" style="fill:#fff"/><path d="M1073.83,153l5-6.59c6.39,7.07,17.14,11.73,29,11.73,13.87,0,22.91-5.78,22.91-14.62,0-8.19-5.61-11.73-24.15-15.1-22-3.7-30.07-9.8-30.07-22.17,0-13.33,12.31-22,31.63-22,12.15,0,21.35,3.21,29.76,10.12l-4.67,6.58c-7.17-5.78-14.65-8.51-24.78-8.51-15,0-23.22,5-23.22,13.81,0,7.71,5.3,10.92,22.44,14,23.22,4,31.79,10.28,31.79,23.45,0,13.65-12.62,22.81-31.79,22.81C1093.77,166.53,1081.46,161.07,1073.83,153Z" style="fill:#fff"/></g></g></svg>