<svg xmlns="http://www.w3.org/2000/svg" width="1139.38" height="220" viewBox="0 0 1139.38 220"><title>logo-new</title><g id="79c99e55-a26d-415e-b9a7-e190166eefa8" data-name="Layer 2"><g id="6ba306b7-3dfd-4a4b-b28d-16bb143848e8" data-name="Layer 1"><path d="M181.75,32.68a21.73,21.73,0,0,1-.85,6,21.46,21.46,0,1,1-22.38-27.33c.59,0,1.17-.09,1.77-.09a21.52,21.52,0,0,1,21.46,21.46Z" style="fill:#f7b700"/><path d="M86.72,32.68A21.45,21.45,0,0,1,43.91,34c0-.45-.07-.9-.07-1.36A21.49,21.49,0,0,1,60.25,11.83a21.75,21.75,0,0,1,5-.61A21.47,21.47,0,0,1,86.72,32.68Z" style="fill:#f60"/><path d="M138.58,114.91c29.58,2.36,45.24-6.91,45.45-47.6C123.86,62.45,138.58,114.91,138.58,114.91Z" style="fill:#094abe"/><path d="M90.49,155.34c-.16,29.41-8.39,42.4-24.1,46.46A58.28,58.28,0,0,1,50,203.22c-1.61,0-3.26-.14-5-.28,0,0-.39-1.41-.79-3.73-.18-1-.36-2.3-.5-3.69a52.21,52.21,0,0,1-.19-8.9c.07-1.1.19-2.22.34-3.35C45.91,169,55.62,152.54,90.49,155.34Z" style="fill:#7bba00"/><path d="M36.32,32.73a29.09,29.09,0,0,1,.42-4.8,110,110,0,0,0,.34,164.4,49.92,49.92,0,0,1,0-5.2c.07-1.1.19-2.22.34-3.35s.36-2.22.62-3.34a100.62,100.62,0,0,1-.56-140.32,29.05,29.05,0,0,1-1-5.55C36.41,34,36.32,33.35,36.32,32.73Z" style="fill:#f7b700"/><path d="M40.81,169.71v-.59C40.6,169.68,40.6,169.92,40.81,169.71Z" style="fill:#231f20"/><path d="M186.91,99.71s-.37,38.51-.79,76c0,4.61-.1,9.2-.15,13.71,0,2.31-.06,4.6-.09,6.85C177,206.42,167.7,208.82,159.78,208a34.93,34.93,0,0,1-13.19-4.29,39.78,39.78,0,0,1-7.72-5.44l-.25-37.43c-27.72.52-26.83-12.26-53.14-14.69C55.13,143.4,42.32,165,40.81,169.11L39.54,68.28C97,65,84.34,100.28,118.4,118,168,143.79,186.91,99.71,186.91,99.71Z" style="fill:#737373"/><path d="M188.91,32.66v0Z" style="fill:#231f20"/><path d="M148.39,7a109.88,109.88,0,0,0-73.1-1.4,29,29,0,0,1,10.5,6.74,100.86,100.86,0,0,1,53.47,1.42A28.48,28.48,0,0,1,148.39,7Z" style="fill:#094abe"/><path d="M193.45,174.42l0,6.39a110,110,0,0,0-4.52-148,28.43,28.43,0,0,1-2.38,11.32,100.65,100.65,0,0,1,7,121.15C193.55,168.28,193.48,171.35,193.45,174.42Z" style="fill:#7bba00"/><path d="M138.74,206.46A100.9,100.9,0,0,1,76.52,205a29.47,29.47,0,0,1-9.61,4.3c-1,.25-1.94.45-3,.63a110.07,110.07,0,0,0,85.79,2.63,39.35,39.35,0,0,1-5.42-2.46A43.27,43.27,0,0,1,138.74,206.46Z" style="fill:#f60"/><path d="M269.62,110.86c0-35,22.59-58.63,56.25-58.63,33.5,0,56.1,23.61,56.1,58.63s-22.59,58.63-56.1,58.63S269.62,145.88,269.62,110.86Zm56.29,41.29c22.44,0,37.71-16.71,37.71-41.28s-15.31-41.29-37.71-41.29c-22.59,0-37.87,16.71-37.87,41.28S303.28,152.15,325.91,152.15Z" style="fill:#0553b8"/><path d="M398.33,87.73h15.58l.16,12.21c6.08-9.64,13.71-13.81,23.37-13.81,7.48,0,14.8,2.57,19.48,6.91l-7.79,14.62a21.26,21.26,0,0,0-12.93-4.34c-12.47,0-20.41,9.48-20.41,25.06v38.71H398.33Z" style="fill:#0553b8"/><path d="M476.08,53.68c6.7,0,11.38,4.66,11.38,11.24,0,6.26-4.67,10.92-11.37,10.92A10.68,10.68,0,0,1,465,65.57q0-.33,0-.65C465,58.34,469.69,53.68,476.08,53.68Zm-8.73,34H484.8v79.35H467.35Z" style="fill:#0553b8"/><path d="M501.91,179h17.14c-.31,11.73,8.88,19.44,23.53,19.44,14,0,23.37-6.75,23.37-16.87s-8.73-16.06-23.06-16.06c-25.55,0-41.76-15.42-41.76-39.51,0-23.13,17.3-40,41.14-40,8.1,0,15.43,1.93,20.88,5.3L573,78.93l12.62,10-10.68,12.78c6.54,7.87,9.19,14.94,9.19,24.25,0,14.14-6.86,24.74-19.63,30.52,12.31,4.66,19.17,13.49,19.17,25.22,0,20.08-16.21,32.93-41,32.93C517.21,214.63,501,200.33,501.91,179Zm40.67-29.72c14.34,0,24-9.32,24-23.29,0-14.14-9.51-23.61-24-23.61s-24,9.48-24,23.61c0,14,9.7,23.26,24,23.26Z" style="fill:#0553b8"/><path d="M610.08,53.68c6.7,0,11.38,4.66,11.38,11.24,0,6.26-4.67,10.92-11.37,10.92A10.68,10.68,0,0,1,599,65.55q0-.31,0-.63C599,58.34,603.69,53.68,610.08,53.68Zm-8.73,34H618.8v79.35H601.35Z" style="fill:#0553b8"/><path d="M640.15,87.73h15.58l.18,10.44c6.54-8,15.74-12,26.65-12,19.79,0,32.88,14.46,32.88,37.11v43.85H698V124.36c0-14-7-22-18.7-22-12.78,0-21.66,9.64-21.66,23v41.76H640.15Z" style="fill:#0553b8"/><path d="M775,52.64h9.19v50.28h69V52.64h9.19V165.08h-9.19v-53h-69v53H775Z" style="fill:#f60"/><path d="M888.31,131V85.73h8.88v44.82c0,17.51,8.88,27.15,24.15,27.15,16.36,0,27.42-12.37,27.42-28.43V85.73h8.88v79.35h-8.1l-.16-14.3c-6.08,9.64-16.52,15.42-28.83,15.42C900.62,166.21,888.31,153,888.31,131Z" style="fill:#f60"/><path d="M990.84,149.34l-.16,15.74h-8.1V52.64h8.88v47.87c5.92-10,17.45-16.22,31.32-16.22,22.44,0,38.49,16.71,38.49,41.12s-16,41.12-38.49,41.12C1008.45,166.53,996.61,159.78,990.84,149.34Zm31,8.67c17.92,0,30.54-13,30.54-32.61s-12.62-32.61-30.54-32.61c-17.76,0-30.39,13-30.39,32.61s12.64,32.6,30.4,32.6Z" style="fill:#f60"/><path d="M1073.74,153l5-6.59c6.39,7.07,17.14,11.73,29,11.73,13.87,0,22.91-5.78,22.91-14.62,0-8.19-5.61-11.73-24.15-15.1-22-3.7-30.07-9.8-30.07-22.17,0-13.33,12.31-22,31.63-22,12.15,0,21.35,3.21,29.76,10.12l-4.67,6.58c-7.17-5.78-14.65-8.51-24.78-8.51-15,0-23.22,5-23.22,13.81,0,7.71,5.3,10.92,22.44,14,23.22,4,31.79,10.28,31.79,23.45,0,13.65-12.62,22.81-31.79,22.81C1093.68,166.53,1081.37,161.07,1073.74,153Z" style="fill:#f60"/></g></g></svg>