<svg width="0" height="0" class="hidden">
    <symbol id="ai" xmlns="http://www.w3.org/2000/svg" viewBox="0 0 1080 1080" fill="currentColor">
        <path
            d="M248.73,1024c-16.38-7.54-21.16-20.55-21.06-38.1.55-95.47.34-191,0-286.43,0-4.72-2-10.7-5.2-14-60.16-60.88-96.36-133.71-105.39-218.63C105.47,357.3,135.35,259.8,209.49,177.3c57.87-64.4,130.07-103.58,215.65-116.84,162-25.1,317.56,57.44,388.82,201.14,23,46.35,34.92,95.55,37.78,147.12a29.19,29.19,0,0,0,4.64,13.82q50,75.65,100.51,151c14.61,21.91,10.3,37.84-13.38,49.69-27.57,13.8-55,27.89-82.84,41.16-7.18,3.42-9.09,7.57-9,15,.41,27.72.38,55.46.11,83.18-.41,41.6-24.33,73.33-63.93,84.27-8.37,2.31-17.4,3-26.14,3-41.91.3-83.82.14-125.73.14H625v11.06c0,41.59-.56,83.2.27,124.78.35,17.57-4.69,30.56-21.06,38.11Zm319.52-56.94V956.17c0-40.65.9-81.32-.3-121.94-.87-29.17,10.17-42,41.67-41.23,49.76,1.24,99.56.33,149.35.33,26.2,0,36.15-9.83,36.16-35.71,0-34,.15-68.06-.07-102.09-.09-14.46,5.89-24.61,18.91-31,18.09-8.85,36-18,54-27l27.23-13.67c-2.35-3.73-4.1-6.65-6-9.48-24.28-36.42-48.17-73.11-73-109.13-12.92-18.72-24.83-37.21-21.8-61.38.3-2.43-.58-5-.81-7.5-8-87-46.35-158.61-113.68-213.18-76.29-61.82-164.4-83.22-260.78-64C266.21,149.77,153.2,293.33,173.69,463c9,74.63,41.71,138,96.74,189.43,9.92,9.27,14.48,19.48,14.42,33.2-.37,90.12-.19,180.24-.19,270.36,0,3.63,0,7.26,0,11.1Z">
        </path>
        <path
            d="M343,453c-9,0-18.66.14-28.36,0-17.63-.31-30-12.24-29.93-28.53s12.56-27.88,30.33-28.13c9.41-.13,18.82,0,27.1,0l21.68-52.42c-5.55-5.1-12.78-11.19-19.36-17.91-12.67-12.95-13.26-29.64-1.92-41.33,11.55-11.91,28.86-11.51,42,1.37,6.73,6.57,12.89,13.73,17.73,18.93,17.42-6.63,32.67-12.26,47.72-18.39,2.11-.86,4.4-4.15,4.55-6.45.55-8.47,0-17,.31-25.49.58-16.31,12.64-28.33,28.15-28.4s27.81,11.91,28.38,28.14c.36,10.32.07,20.66.07,29.52l52.43,21.77c4.92-5.47,10.88-12.76,17.55-19.34,13.22-13.07,30.32-13.66,42-1.94s11,28.56-2,42.06c-6.31,6.58-16.32,12.35-17.9,19.9-1.41,6.78,6.81,15.34,10.07,23.4,3.39,8.39,5.92,17.12,9.13,26.59,9.11,0,18.49-.08,27.88,0,18.36.2,31,11.93,30.89,28.53s-12.69,28-31.28,28.15c-9.11.09-18.22,0-27.82,0-2.46,7.71-4.57,15.19-7.21,22.47-6.87,19-18.66,34.82-31.74,49.86a60.19,60.19,0,0,0-15.36,42.41q.34,13.22,0,26.45c-.49,16.82-11.91,28.73-28.61,28.86q-56.21.46-112.42,0c-16.83-.12-28.32-11.81-29-28.5a92.7,92.7,0,0,1,0-11.33c2-24.88-5.85-46.22-21.61-65.41a175.94,175.94,0,0,1-20.22-30.62C350.89,476.73,347.62,465.13,343,453ZM511.44,566c-.67-34.28,13.78-61.77,36-86,1.48-1.62,2.7-3.48,4-5.24,13.09-17.4,18.33-37.26,16.33-58.61A84.87,84.87,0,0,0,503.39,342c-35.65-8.58-71.79,5.84-92,36.71-19.1,29.16-18,69.18,4.37,97.23,21.24,26.6,38,54.66,39.14,90.1Z">
        </path>
        <path d="M482.39,736.62c-17.64,0-35.29.09-52.93,0-18.48-.12-31.18-11.66-31.29-28.18s12.55-28.41,31-28.47q53.88-.19,107.75,0c18.54.06,31.2,11.6,31.29,28.15s-12.62,28.37-31,28.5S500.67,736.62,482.39,736.62Z"></path>
    </symbol>
    <symbol id="building" xmlns="http://www.w3.org/2000/svg" viewBox="0 0 1080 1080" fill="currentColor">
        <title>building</title>
        <path
            d="M75.52,970.16q0-417.3,0-834.61a43.54,43.54,0,0,0,1.95-4.82c9.66-35.07,40.09-55.93,76.17-51,37.1,5.05,74.06,11.1,111.08,16.73q110.61,16.82,221.21,33.67c31.65,4.82,63.32,9.51,94.92,14.6,29.1,4.69,56.12,31.1,56,71.85q-.8,387.7-.29,775.41c0,3-.28,6-.43,9H472.87c-.15-3.61-.43-7.23-.43-10.84q0-93.38,0-186.75c0-45.15-27.86-73.1-72.72-73.19q-43.51-.09-87,0c-44.66.1-72.39,27.71-72.45,72.28q-.12,95.19,0,190.38c0,2.71.28,5.41.43,8.12H106.37Q83.17,993.35,75.52,970.16ZM260,236.76v0c-10.27,0-20.55-.31-30.81.07-15.21.57-26.67,11.91-27.83,27-1.11,14.33,9.43,29,24.42,29.94a547.63,547.63,0,0,0,66.93.07c15.68-1,25.44-14.86,24.46-30.57-.92-14.71-12.68-25.95-28.16-26.45C279.3,236.5,269.63,236.76,260,236.76Zm-.29,116.17c-10.27,0-20.55-.33-30.81.08-15.13.61-26.59,12.19-27.57,27.22-.91,14,9.3,28.61,23.83,29.5a538.79,538.79,0,0,0,68.7-.07c15.12-1,24.36-15.15,23.27-30.56-1-14.31-12.61-25.56-27.52-26.12C279.63,352.6,269.65,352.9,259.68,352.92Zm0,116.12c-10.27,0-20.55-.33-30.81.08-15.13.61-26.59,12.19-27.57,27.22-.91,14,9.3,28.61,23.83,29.5a538.8,538.8,0,0,0,68.7-.07c15.12-1,24.36-15.15,23.27-30.56-1-14.31-12.61-25.56-27.52-26.12C279.63,468.72,269.65,469,259.68,469Zm0,116.12c-10.27,0-20.55-.33-30.81.08-15.13.61-26.59,12.19-27.57,27.22-.92,14,9.3,28.61,23.83,29.5a538.77,538.77,0,0,0,68.7-.07c15.12-1,24.36-15.14,23.28-30.55-1-14.31-12.6-25.56-27.52-26.12C279.63,584.84,269.65,585.14,259.68,585.16Zm193.43-348.4c-10,0-20-.26-29.91.06-15.35.5-27.15,11.76-28.26,26.49s8.8,29.36,23.84,30.3a537.93,537.93,0,0,0,68.71-.11c14.58-1,24.3-15.3,23.41-29.74A28.77,28.77,0,0,0,483,236.85C473.06,236.48,463.08,236.78,453.11,236.76Zm.16,116.15v-.06h-29c-.6,0-1.21,0-1.81.07-14.76.88-26.34,12-27.5,26.36-1.2,14.79,8.67,29.45,23.68,30.42a530.55,530.55,0,0,0,68.71,0c15-1,24.82-15.79,23.52-30.52A28.77,28.77,0,0,0,483.18,353C473.22,352.6,463.24,352.91,453.27,352.91ZM453.48,469c-10,0-20-.24-29.91.05-15.82.46-27.81,12-28.67,27s9.69,29.24,25.27,30.14a578.45,578.45,0,0,0,65.18.06c15.64-.86,26.29-14.78,25.56-29.91s-12.81-26.83-28.43-27.33C472.83,468.74,463.15,469,453.48,469Zm-.28,116.16v-.05h-29c-.6,0-1.21,0-1.81.07-14.74.89-26.31,12-27.44,26.42-1.16,14.8,8.73,29.41,23.74,30.37a537.84,537.84,0,0,0,68.71-.07c14.61-.94,24.35-15.21,23.51-29.67a28.76,28.76,0,0,0-27.8-27C473.16,584.84,463.17,585.14,453.2,585.14Z">
        </path>
        <path
            d="M676.08,1001c-.15-3.61-.43-7.23-.43-10.84q0-271.6,0-543.21V434.07c16.76,3.47,32.32,6.67,47.86,9.93,74.14,15.55,148.26,31.26,222.44,46.62,30.56,6.33,50.19,23.61,57.28,54.39a10.46,10.46,0,0,0,1.27,2.4V942.94c-4.74,10.56-8.27,21.9-14.5,31.49-10,15.39-26.24,22.27-43.56,26.57ZM831.15,594.59c-9.67,0-19.35-.13-29,0-17.1.28-29.76,12.57-29.87,28.78s12.62,29,29.49,29.18q28.56.37,57.12,0c16.87-.22,29.57-13.08,29.44-29.23s-12.94-28.46-30-28.73C849.29,594.47,840.22,594.59,831.15,594.59Zm-1.22,174.17c9.37,0,18.74.11,28.11,0,17.55-.26,30.45-12.83,30.28-29.33-.17-16.1-13-28.49-30-28.65q-28.11-.27-56.22,0c-17.07.18-29.73,12.62-29.81,28.82s12.67,28.79,29.56,29.14C811.19,768.91,820.56,768.75,829.93,768.76Zm.29,116.09c10,0,20,.29,29.92-.07a28.93,28.93,0,0,0-.33-57.86q-29.46-.53-58.93,0A28.75,28.75,0,0,0,772.27,856c.07,15.77,12.6,28.4,28.94,28.83C810.87,885.08,820.55,884.87,830.22,884.85Z">
        </path>
        <path d="M946.42,1001c17.32-4.3,33.54-11.19,43.56-26.57,6.24-9.58,9.76-20.93,14.5-31.49V1001Z"></path>
        <path d="M75.52,970.16q7.62,23.22,30.84,30.84H75.52Z"></path>
    </symbol>
    <symbol id="cloud-1" xmlns="http://www.w3.org/2000/svg" viewBox="0 0 1080 1080" fill="currentColor">
        <title>cloud-1</title>
        <path
            d="M512.4,1011c-17.83-2.44-35.7-4.63-53.48-7.37-35.65-5.49-90.14-22.76-112.66-35.2L376,922.17c106.49,44,215.14,46.13,323.52,1.65,71.64-29.4,130.36-76.08,176.22-138.57,86.33-117.64,113.81-292,26.49-449.78l48.57-27.67c9.56,20.91,19.79,41,28.08,61.92a444.8,444.8,0,0,1,30.6,134.67,65.67,65.67,0,0,0,1.52,8v55.2a64.07,64.07,0,0,0-1.61,8c-4.72,62.42-20.51,121.94-49.65,177.31C887.05,891,773.46,974.49,620.21,1003.79c-17.36,3.32-35.07,4.85-52.61,7.21Z">
        </path>
        <path
            d="M567.6,69C585.75,71.47,604,73.48,622,76.51a422,422,0,0,1,84.82,23.42l-26,47.47c-172.31-51.5-327.16-20.11-449.21,115.73C109.86,398.71,95.15,555.69,165,723.33l-49.08,24.16c-8.43-21.94-17.31-42.71-24.41-64.07a429,429,0,0,1-21-107.9A63,63,0,0,0,69,567.6q0-27.6,0-55.2a81.56,81.56,0,0,0,1.61-8.91c2.9-40.53,10.5-80.26,24.84-118.2Q192.13,129.54,460.67,76.07c17-3.4,34.48-4.76,51.73-7.07Z">
        </path>
        <path
            d="M553.95,707.66c-54.58,0-109.16.5-163.73-.13-66.94-.77-123.33-45.95-139.8-110.84-21-82.65,35-167.29,119.2-179.72,5.94-.88,7.9-2.8,8.91-8.78A132.79,132.79,0,0,1,503.06,297.53c60.69-3.16,115.81,37.48,132.55,98.11,1.4,5.06,4,6.67,8.56,7.75,37.18,8.84,62.17,31.63,75.44,67.22,1.83,4.92,4.2,6.39,9.12,6.83,56.66,5.1,100.66,50.7,105.08,108.6,4.08,53.45-33.4,104.71-87.08,117.94-11.16,2.75-23,3.54-34.57,3.62-52.74.37-105.48.16-158.21.16Z">
        </path>
        <path d="M890,188c-.41,44.37-36.63,80-80.73,79.44-43.64-.56-79.4-36.8-79.25-80.32.15-44.56,36.6-80.2,81.49-79.67A79.53,79.53,0,0,1,890,188Z"></path>
        <path d="M169.56,873c.82-44.36,37.46-79.87,81.3-78.82s79.16,37.38,78.47,80.87c-.71,45-36.8,79.8-81.89,79C203.75,953.39,168.75,916.94,169.56,873Z"></path>
    </symbol>
    <symbol id="dataanalytics" xmlns="http://www.w3.org/2000/svg" viewBox="0 0 1080 1080" fill="currentColor">
        <title>dataanalytics</title>
        <path
            d="M820.49,290.83l-65.33,65.29c-13.72-25-25.91-53.2-43.3-77.74-53.38-75.36-127.35-117.92-219-128.7-145.43-17.11-283.17,70.56-329.4,209-58.22,174.28,45.83,359.9,225.44,402.17,136.15,32,278.11-33.81,345-160.3,3.43-6.48,7-9.86,14.65-10.27,16.32-.87,30.44-8.14,42-19.22,13.92-13.34,26.76-27.82,40.19-41.68,6.1-6.29,12.53-12.28,18.89-18.48-11.48,134.48-126.57,310.64-335,342C304.09,884.55,115.12,748.51,67.25,554.7,14.3,340.31,143.73,137.37,338.72,74.43,541,9.12,747.45,125.9,820.49,290.83Z">
        </path>
        <path d="M689,854c68-41.71,123.92-95.22,164.79-164.46a66.09,66.09,0,0,1,5.6,4.45c43.28,43.24,86.77,86.28,129.71,129.86,48.91,49.64,47,125.84-3.66,171.3-44.22,39.64-115.59,38.6-160-4.14-45.27-43.53-89-88.63-133.44-133.06A43.16,43.16,0,0,1,689,854Z"></path>
        <path
            d="M252.75,610.26c-10.5-17.91-20.05-33.84-29.06-50.07-1.06-1.9-.12-6.5,1.57-8.11,35.48-33.94,71-67.85,107-101.24,12.47-11.56,28-10.06,41.24,2.89,19.63,19.25,39,38.79,58.33,58.34,2.49,2.52,4.22,5.8,6.63,9.2,4.43-4.19,7.07-6.55,9.56-9q70.85-70.82,141.68-141.66c17.69-17.68,32-17.71,49.79,0,30.8,30.75,61.51,61.59,93.11,93.24,3.11-3,5.91-5.51,8.59-8.18q89.25-89.22,178.5-178.46c12.13-12.11,24.62-14.56,37.12-7.57,18.08,10.11,21,31.67,5.83,47.29-20.32,20.88-41,41.38-61.8,61.81Q829.46,449,757.85,519c-17.89,17.54-32.24,17.49-49.87-.13q-42.72-42.7-85.35-85.49c-2.5-2.52-4-6-6-9l-4.07.39c-2.06,3-3.73,6.34-6.25,8.86Q536.25,503.93,466,574c-19.1,19.09-33,19.18-51.84.29-20.79-20.85-41.51-41.75-62.73-63.1Z">
        </path>
    </symbol>
    <symbol id="devops" xmlns="http://www.w3.org/2000/svg" viewBox="0 0 1080 1080" fill="currentColor">
        <title>devops</title>
        <path
            d="M1026,633.49c-5.66,22.92-8.6,46.94-17.44,68.55-34.64,84.63-97.86,136.21-188.19,151.05-82.88,13.61-153-13.78-211.88-74.15l50.35-67.16c3.52,4.77,6,9.2,9.48,12.71,60.49,61.4,146.77,68.87,213.85,16.62,49.09-38.23,68.75-90,60.92-151.7C929.24,480.55,824.21,432,736.06,459.13c-35.4,10.88-63,33.81-85.15,62.45-21.19,27.46-40.18,56.67-59.38,85.62C560.65,653.8,532.07,702,499.37,747.28c-30.35,42-69.28,75.52-118.95,93.93C318.21,864.27,256,861.8,195.77,835.37c-75.18-33-119.68-91.85-136.57-171.65C31.56,533.22,117,402.07,248,376.34c29.44-5.78,60.37-4,90.62-5.54,6.56-.34,13.16,0,19.86,0L268,280.45,325.37,223,513.82,411.47,326.37,598.93l-54.95-55.37,90.9-91c-5.57-.57-7.9-1.08-10.2-1-28.09,1-56.62-.83-84.17,3.54-77.56,12.3-134.28,82.91-132.37,161.37,1.83,75.27,45.32,134.15,113.7,152.49,66.58,17.86,124,.53,168.78-51.07,25.53-29.44,47-62.56,68.85-95,31.94-47.4,60.9-96.89,94.28-143.22,30.1-41.77,68.86-75,118.15-93.45,61.87-23.2,123.77-20.9,183.8,5,76,32.8,120.86,92.07,138.06,172.62,2.09,9.81,3.22,19.82,4.8,29.74Z">
        </path>
    </symbol>
    <symbol xmlns="http://www.w3.org/2000/svg" viewBox="0 0 934.5 930.9" id="digitaltransformation" fill="currentColor">
        <title>digitaltransformation</title>
        <g id="64181597-aeee-4d13-a906-6f1cd4b20ff5">
            <g id="d6acfbf0-6e0c-42f9-8372-24551f7a2654">
                <path
                    d="M0,403.41c7.28-15.8,19.78-21.69,36.78-20.2,8.41.74,16.95.13,26.15.13a417.47,417.47,0,0,1,60.36-144.89c-7.46-7.14-15.2-14.29-22.65-21.73-14.81-14.79-14.85-29.7-.21-44.39q36.07-36.19,72.26-72.25c14-13.92,29.26-14.06,43.11-.29,7.54,7.49,14.74,15.31,22.55,23.46a417.24,417.24,0,0,1,144.94-60.1c0-10.41,0-20.93,0-31.44C383.35,10.85,394,.07,414.56.05c34.67,0,69.34-.1,104,0,17.24.07,28.89,11.38,28.93,28.42q.21,99.9,0,199.81a23.61,23.61,0,0,1-.34,3.06c-120.82-31.51-221.51-2-290,104.46-55.48,86.18-54.31,178.69,2.88,263.78,69.22,103,168.72,131.11,287.51,99.69v7.79q0,95.8,0,191.6c0,21.82-10.51,32.17-32.57,32.18q-50.18,0-100.36,0c-20.63,0-31.27-10.81-31.32-31.6,0-10.29,0-20.58,0-29.53-25.82-8.55-51.08-15.37-75.05-25.29-23.74-9.83-46.18-22.79-72-35.78-5.79,6.38-12.82,14.7-20.47,22.41-13.76,13.87-29.14,13.69-43.09-.21q-36.2-36.05-72.25-72.26-22-22.15.19-44.41c7.29-7.27,15-14.14,21.26-20-12.6-25.1-25.63-47.81-35.59-71.8-9.85-23.72-16.61-48.73-25.26-74.77-6.83,0-15.62-.62-24.29.13-17,1.47-29.48-4.44-36.78-20.21Z">
                </path>
                <path
                    d="M934.5,248.27c-1.1,3.41-2.25,6.82-3.3,10.25-12.49,40.52-55.79,62-95.33,46.79-6.07-2.34-9.79-1.61-14.48,2.4-18.94,16.19-38.3,31.89-57.26,48.06a37.43,37.43,0,0,1-25.76,9.43c-42.25-.25-84.5-.11-126.75-.11h-8.69V310.32h9.87c37.69,0,75.38.13,113.07-.19a21.18,21.18,0,0,0,12.16-4.3q24.92-19.91,49-40.87c2.28-2,4.06-6.6,3.48-9.48-8.39-41.47,14.77-80,54-89.16,40.63-9.45,78.47,14.86,88.54,56.84a17.09,17.09,0,0,0,1.5,3.2Z">
                </path>
                <path
                    d="M934.5,704.56c-1,3.12-2.09,6.23-3,9.37-11.28,37.94-49.81,60.06-87.92,50.45a72.55,72.55,0,0,1-53.27-85.29c1.42-6.81.53-10.83-5.1-15.26-15.77-12.38-30.75-25.76-46.51-38.16a24.2,24.2,0,0,0-13.76-4.86c-40.4-.37-80.81-.22-121.91-.22V566.36c2.46-.16,5.09-.49,7.71-.49,42.55,0,85.1.13,127.65-.13a37.41,37.41,0,0,1,25.76,9.44q28.79,24.54,58.19,48.37c2.67,2.15,7.85,3.65,10.84,2.57,45.5-16.3,88.62,6.57,99.84,53.34a17.09,17.09,0,0,0,1.5,3.2Z">
                </path>
                <path
                    d="M934.5,476.41c-1,3.13-2.09,6.23-3,9.38a73.28,73.28,0,0,1-62.63,52.37c-28.61,3.18-57.46-11.87-71.24-38-3-5.78-6.36-7.43-12.53-7.41-57.17.21-114.33.13-171.5.13H603V438.09h9.72q86.66,0,173.32.07c4.86,0,8-.68,10.7-5.79,14.7-27.92,43.71-43.29,73.05-39.5,31.66,4.1,55.57,25.94,63.08,57.55a28.39,28.39,0,0,0,1.66,4.1Z">
                </path>
                <path d="M547.56,465.49c0,55-.07,110.1.11,165.14,0,5.44-1,8.57-6.58,11-115.78,50.92-251.56-27.19-265.74-153-11.64-103.35,56.6-194.48,159.52-212.3,36.22-6.27,71.4-1.3,105.43,12.62,5.69,2.33,7.45,5.3,7.42,11.43C547.45,355.39,547.56,410.44,547.56,465.49Z"></path>
                <path d="M602.76,109.55V54.79c16.29,0,32.61-.58,48.86.22,9.76.48,15.24-2,20.55-11.17,16.48-28.53,50.74-41,82.09-31.61a73,73,0,0,1,52.4,72.82c-1,31.84-24.21,60.35-55.31,68-32.29,7.9-65.61-6.47-81.34-35.84-3.23-6-6.62-8-13.24-7.79C638.92,109.87,621.05,109.55,602.76,109.55Z"></path>
                <path d="M602.75,876.13V821.38c18.58,0,36.75-.25,54.9.14,5.88.13,9-1.53,11.89-6.94,17.31-32.48,54.6-46.77,88.72-34.53A72.93,72.93,0,0,1,730,921.54c-26.88-1.52-47.36-14.58-60.21-38.3-3.17-5.85-6.62-7.32-12.66-7.22C639.24,876.34,621.34,876.13,602.75,876.13Z"></path>
            </g>
        </g>
    </symbol>
    <symbol id="idea" xmlns="http://www.w3.org/2000/svg" viewBox="0 0 1080 1080" fill="currentColor">
        <title>idea</title>
        <path
            d="M540.57,723.52c-49.05,0-98.1-.23-147.15.21-9.14.08-15.57-2.62-22.51-8.59-31.91-27.44-57.49-59.5-74.57-98.05-61.36-138.44,3.11-299.44,143-357.43,159.21-66,339.72,33.78,366.2,204,15.27,98.21-16.17,181.06-90.16,247.87-10,9-19.79,12.53-33.17,12.3C635,723,587.79,723.52,540.57,723.52Zm28-237c0-9.18-.15-16.17,0-23.14.33-12.38-4.21-22-15.57-27.66s-21.69-2.71-31.36,4.85c-33.58,26.23-67.32,52.27-100.92,78.48-14.3,11.16-17.14,27-7.44,40,9.83,13.09,26.55,14.44,41.22,3.16,16.89-13,33.66-26.13,50.51-39.18,2.47-1.91,5-3.71,8.72-6.42,0,9.81-.09,17.71,0,25.6.15,11,5,19.33,14.73,24.47,10.14,5.35,20.2,4.51,29.18-2.4q53.56-41.2,106.75-82.88c8.8-6.92,12.06-16.73,9.16-27.85-5.15-19.76-27.37-26.84-44.39-13.95C609.35,454.6,589.83,470,568.55,486.54Z">
        </path>
        <path d="M393.45,880.09V778.84h295V880.09Z"></path>
        <path d="M437.67,936h207c-10,42-57.7,75.31-106,74.49C492.87,1009.7,445.84,975.1,437.67,936Z"></path>
        <path d="M568.53,131.12c0,9.11.2,18.23-.05,27.34C568,174,556.33,185.84,541.43,186c-15.26.18-27.43-11.83-27.65-27.86q-.38-27.79,0-55.6c.2-16.09,12.23-28.09,27.5-28s26.92,12.09,27.23,28.3C568.69,112.28,568.54,121.7,568.53,131.12Z"></path>
        <path d="M358.22,134.14c0-13.58,8-24.19,19.92-27.59s25.68,1.56,31,13.13c8.75,19,16.83,38.35,24,58,4.77,13.09-2.4,26.94-14.79,32.52s-28.18,1.71-34.1-10.6c-9.46-19.64-17.12-40.15-25.39-60.36C358.07,137.35,358.32,135,358.22,134.14Z"></path>
        <path d="M724,137c-8.31,20.55-14.89,46-30.07,67.51-6.74,9.53-21.48,10.47-31.75,4.92-10.73-5.79-17.55-18.57-13.45-30,7.36-20.52,15.67-40.77,24.84-60.56,5.14-11.1,19-15.62,30.55-12.3C716.06,110,724,120.55,724,137Z"></path>
        <path d="M865.62,401.93c-13.48,0-24.09-8.07-27.45-19.94s1.7-25.73,13.21-31c19-8.72,38.34-16.85,58-24,13.17-4.77,26.87,2.4,32.48,14.89s1.65,28.16-10.66,34.07c-19.65,9.43-40.15,17.09-60.35,25.36C869,402.11,866.64,401.83,865.62,401.93Z"></path>
        <path d="M868.48,615.48c20.78,8,46,15.09,67.63,30,9.53,6.58,10.47,21.54,5,31.74-5.83,10.82-18.44,17.61-30,13.5-20.53-7.33-40.77-15.65-60.56-24.81-11.1-5.14-15.67-19-12.39-30.53C841.58,623.47,852.14,615.5,868.48,615.48Z"></path>
        <path d="M214.95,401.93a44.23,44.23,0,0,1-7.58-2c-17.43-7.06-34.89-14.06-52.11-21.58-14.94-6.53-21.1-22.11-15-36.2,6-13.76,21-20,35.81-14.23q26.26,10.29,52.14,21.56c12.71,5.54,19.14,18.66,16.19,31.34S230.23,402.1,214.95,401.93Z"></path>
        <path d="M215.9,615.5c14.29-.1,25.13,8.13,28.34,20.41,3,11.56-1.89,25.16-13,30.31-19.26,8.88-38.87,17.17-58.85,24.25-13.42,4.75-27.69-3.39-32.59-16.28-4.8-12.63,0-27.8,12.49-33.59,19-8.81,38.54-16.3,57.92-24.19C212.35,615.51,214.93,615.64,215.9,615.5Z"></path>
        <path d="M163,481.43c9.13,0,18.27-.2,27.4,0,16.12.43,27.57,11.48,27.93,26.6s-10.54,27.23-26.65,27.82c-19.45.71-39,.73-58.42-.07-16-.66-26.78-13.23-26.11-28.28.66-14.8,11.87-25.57,27.55-26C144.09,481.19,153.54,481.43,163,481.43Z"></path>
        <path d="M919.54,481.43c9.44,0,18.88-.26,28.31.06,15.59.52,26.77,11.49,27.28,26.3s-10,27.26-25.46,27.93c-20,.86-40.18.86-60.23,0-15.44-.66-26-13.19-25.49-27.92s11.71-25.79,27.28-26.31C900.66,481.18,910.1,481.44,919.54,481.43Z"></path>
        <path d="M226.19,224.82c.34-14.66,5.11-23.27,15.48-28.27s20.78-4.1,29,3.53c15.17,14.08,29.86,28.73,43.92,43.93,9.55,10.32,8.1,26.72-1.74,36.51s-26.14,11.26-36.5,1.66c-15.18-14.07-29.73-28.86-43.84-44C228.69,234.05,227.42,227.54,226.19,224.82Z"></path>
        <path d="M856.2,224.92c-1.77,3.27-4.16,10.72-9,16-12.29,13.51-25.5,26.19-38.61,38.92-11.79,11.45-28.38,11.54-39.28.65s-10.71-27.65.67-39.31c13-13.3,26.09-26.47,39.45-39.39,8.69-8.4,19.08-10.53,30.31-5.6C850.29,200.79,855.39,209.27,856.2,224.92Z"></path>
    </symbol>
    <symbol id="innovation" xmlns="http://www.w3.org/2000/svg" viewBox="0 0 1080 1080" fill="currentColor">
        <title>innovation</title>
        <path
            d="M71.6,918.44c1.38-5,2.57-10,4.18-14.9a82.92,82.92,0,0,1,76.89-56.62c14-.27,27.93,0,44.21,0-51.84-17-76.62-52.64-68.83-96.51,7.34-41.38,42.71-70.05,84.7-68.67C253.4,683,287.16,715,291.59,756.25c4.48,41.81-23,78.32-67.41,90.59q17.89,0,35.77,0c51.85.09,86.92,35.14,87,87q0,22.95,0,45.89c0,21.93-10.59,32.35-32.8,32.35-68.53,0-137.07-.37-205.59.27-17.07.16-29.65-4.59-37-20.46Q71.6,955.16,71.6,918.44Z">
        </path>
        <path
            d="M513.29,470.09c-24.32,0-48.41.1-72.49-.15-2.46,0-5.1-1.79-7.32-3.25-64.3-42.25-96.89-123.07-80.52-199.46,16.33-76.17,78.38-136.47,153.76-149.42,108-18.55,207.88,50.63,224.78,158.92,12.3,78.84-16.48,142.68-81.31,189.75-2.37,1.72-5.4,3.53-8.15,3.56-23.81.28-47.63.16-72.2.16-.24-3.14-.62-5.76-.62-8.38,0-35.17-.2-70.35.21-105.52a20.43,20.43,0,0,1,5.2-12.57C587.4,330.16,600.89,317.25,614,304c12.72-12.88,13.5-29.22,2.13-40.78-11-11.23-28.37-10.59-40.82,1.76-11,11-21.85,22.15-33.62,34.1-12-12.13-23.18-23.75-34.71-35-16.42-16-41.62-9.44-47,12.14-2.62,10.43.79,19.25,8.2,26.71,13.8,13.88,27.74,27.63,41.33,41.72,2.29,2.37,4.41,6.14,4.44,9.28.29,37.31.18,74.63.13,111.94A28.4,28.4,0,0,1,513.29,470.09Z">
        </path>
        <path
            d="M554.43,846.84c14.64,0,27.45-.07,40.25,0,48.76.31,84.29,35.93,84.59,84.82q.15,25.24,0,50.48c-.12,18.46-11.35,29.86-29.71,29.88q-107.85.12-215.7,0c-18.47,0-30-11.33-29.87-29.66.18-22.6-1.11-45.48,1.9-67.74,5.18-38.23,39.27-66.63,77.82-67.66,14.35-.38,28.73-.06,43.3-.67-22.56-5.44-41.07-16.8-53.94-36.16s-16.78-40.34-12.25-63.07c7.7-38.63,43.49-66.58,83.89-65.39,40,1.18,72.64,31.12,78.89,72.41S603.9,830.88,554.43,846.84Z">
        </path>
        <path
            d="M858.77,846.92c-46.73-15.18-73.27-51.63-66.82-93.18,6.62-42.62,40.93-72.48,82.88-72.11,41.7.36,76.33,31.65,81.24,73.94,3.73,32.13-13,77.35-67.36,91.27,12.34,0,24.68,0,37,0,50.09.17,85.63,35.5,85.87,85.39.08,16.83.13,33.66,0,50.48-.16,17.83-11.52,29.29-29.35,29.31q-108.31.14-216.62,0c-17.84,0-29.44-11.49-29.3-29.3.19-22.91-1.08-46.09,2-68.65,5.11-37.63,39.27-66,77.37-67.09C830,846.57,844.4,846.92,858.77,846.92Z">
        </path>
        <path d="M642.52,525.88c0,24.83.4,48.95-.15,73-.34,14.67-12.11,25.72-27,25.79q-73.82.34-147.63,0c-14.48-.07-26.42-10.79-26.82-24.95-.69-24.39-.19-48.81-.19-73.88Z"></path>
        <path d="M358.39,128.5c-2.12,11.69-6.89,19.69-16.29,24.73s-19.35,5.12-27.71-1.24c-13.82-10.51-27.21-21.68-40-33.46C264,108.88,264,92.81,273,82s24.8-13.64,36.21-5a439.47,439.47,0,0,1,39.15,33C353.23,114.55,355.14,122.22,358.39,128.5Z"></path>
        <path d="M788.39,70.88c11.47,1.21,21.66,7.81,25.92,17.71,4.48,10.42,2.72,22.56-5.89,30.34C796,130.17,783.17,141,769.88,151.25c-11.7,9-27.76,6.5-37-4.55a27.37,27.37,0,0,1,2.75-37.95c11.83-10.55,23.95-20.82,36.5-30.48C776.72,74.73,782.92,73.28,788.39,70.88Z"></path>
        <path d="M241.46,334.72c-7.63,0-15.26.17-22.87,0-15.7-.43-27.47-12.1-27.62-27.13a27.4,27.4,0,0,1,26.18-27.67c16.14-.63,32.34-.62,48.48,0a27.42,27.42,0,0,1,26.25,27.61c-.1,15.08-11.82,26.76-27.55,27.2C256.72,334.9,249.09,334.72,241.46,334.72Z"></path>
        <path d="M841.75,334.72c-7.63,0-15.26.17-22.88,0-15.31-.42-26.93-11.61-27.54-26.28-.6-14.49,10.4-27.68,25.31-28.42a502.19,502.19,0,0,1,50.3,0c14.9.76,25.9,14,25.26,28.47-.65,14.72-12.21,25.81-27.59,26.23C857,334.9,849.37,334.72,841.75,334.72Z"></path>
        <path d="M294.5,543.31c-11.55-1-21.59-7.4-25.64-17.45-4.41-10.93-3.12-21.6,5.44-29.57a511.12,511.12,0,0,1,39.89-33.52c11-8.31,26.71-5.66,35.63,4.49,9.17,10.42,9.68,27-.52,36.59C336.46,516,322.63,527.08,308.72,538,304.92,541,299.29,541.6,294.5,543.31Z"></path>
        <path d="M787.92,543.8c-5.63-2.68-11.91-4.52-16.76-8.22-11.61-8.88-22.69-18.49-33.73-28.09-12.71-11.06-14.42-27.93-4.37-39.84s26.66-12.92,40-2c11.56,9.47,23.1,19,34.25,28.91a26.79,26.79,0,0,1,7.28,30.87C810.48,535.75,800.21,542.41,787.92,543.8Z"></path>
    </symbol>
    <symbol id="Research" xmlns="http://www.w3.org/2000/svg" viewBox="0 0 1080 1080" fill="currentColor">
        <title>Research</title>
        <path
            d="M93.6,55.63H792.24c8.93,5,19.05,8.66,26.52,15.3C829.85,80.78,831,95.21,831,109.38q0,188.34,0,376.68c0,3,0,6,0,9.24-143.14-21.39-256.38,57.26-305.87,153-28.68,55.48-39.06,114.35-29.73,176,12.69,83.86,57,148.6,127,200h-12q-248.91,0-497.83,0a149.64,149.64,0,0,1-16-.93c-20.36-2.21-35.6-16.34-39-36.58A119.19,119.19,0,0,1,56.06,967Q56,540.11,56,113.27a122.06,122.06,0,0,1,1.2-18.85C60.09,76.3,70.32,64.14,87.78,58.18,89.78,57.5,91.67,56.49,93.6,55.63ZM443.31,249.17c79.83,0,159.67-.55,239.49.23,39.94.39,63-39.94,45-73.69-9.39-17.61-25.76-23.28-44.49-23.29q-240-.12-479.93,0a69.64,69.64,0,0,0-11.29,1c-25.05,4.15-40.65,24.63-38.91,50,1.55,22.56,19.72,46.26,52.52,46C284.91,248.7,364.11,249.17,443.31,249.17Zm-120,97.64v0c-42.24,0-84.52-1.08-126.71.36C164.91,348.2,146.27,377,155,407.56c6.4,22.33,24.78,35.52,50.8,35.57q116.82.23,233.64,0a85.89,85.89,0,0,0,10.35-.9c24.58-3,42.35-23.85,41.84-49-.53-26.44-16.65-45.4-42.62-46.11C407.15,346,365.2,346.81,323.27,346.81Z">
        </path>
        <path
            d="M1025.12,981.46c-3.8,13.28-9.87,24.9-21.34,33.53-16.68,12.56-37.14,14.08-53.18.55-17.06-14.39-32.56-30.66-48.54-46.32-7.41-7.26-14.32-15-21.63-22.76-49.13,30.32-100.51,36.9-154.33,20.62C682,953.74,646.86,927.3,621.44,888.86c-51.58-78-40.31-182.18,26-245.12,69.23-65.71,173-73,247.36-19.48s110.1,163.49,52.92,255c17.47,17.52,34.86,35.33,52.67,52.69,11.21,10.92,21.31,22.33,24.73,38.18ZM782.31,685.39c-53.29.24-96.59,43.91-96.35,97.18.23,52.81,44.78,96.93,97.37,96.42s96.38-45.05,96-97.91C879,728.71,834.83,685.15,782.31,685.39Z">
        </path>
    </symbol>
    <symbol id="setting" xmlns="http://www.w3.org/2000/svg" viewBox="0 0 1080 1080" fill="currentColor">
        <title>setting</title>
        <path
            d="M427.87,77H652.13a52.7,52.7,0,0,0,0,5.4c4.23,42.23,8.38,84.48,13,126.66.3,2.71,4.28,6,7.29,7.26,29.34,12.17,57.2,27,82.12,46.72,7.33,5.8,12.77,5.9,20.86,2.19,35.52-16.32,71.35-32,107.08-47.81,2.9-1.29,5.88-2.4,9.09-3.7,23.47,40,46.4,79.19,69.45,118.32C975,355.59,989,379,1003,402.55v1.81a5.93,5.93,0,0,0-1.68.54c-35.87,25.34-71.79,50.62-107.45,76.25-2.14,1.54-3.25,5.9-3.19,8.92.52,25.51,1.7,51,2.09,76.53.15,10.07-4.82,22-.9,29.74,4.21,8.33,16.09,12.82,24.71,18.86q43.18,30.27,86.42,60.45v1.81c-1.81,2.73-3.75,5.39-5.41,8.21q-50.51,86-101,172.07c-1.63,2.78-3.29,5.54-5,8.5-2.72-1-4.69-1.68-6.58-2.52C847.35,847,809.68,830.3,772.12,813.39c-5.47-2.46-9.43-2.62-14.6,1.46a333.61,333.61,0,0,1-85.19,48.52c-5.26,2.06-7.37,4.55-7.77,10.24-1,14.71-3,29.35-4.37,44q-4.11,42.68-8.06,85.37H427.87a52.53,52.53,0,0,0,0-5.4c-4.23-42.23-8.38-84.48-13-126.67-.3-2.73-4.24-6.09-7.24-7.33-30.49-12.58-59.11-28.41-85.09-48.76-4.72-3.69-8.3-4.2-13.72-1.76-37,16.72-74.15,33.11-111.26,49.57-2.9,1.29-5.91,2.35-9.14,3.63-17.52-29.87-34.49-59-51.61-88Q107,727.83,77,677.45v-1.81a5.77,5.77,0,0,0,1.68-.52c35.87-25.34,71.79-50.62,107.45-76.26,2.14-1.54,3.25-5.91,3.18-8.93-.55-24.91-1.8-49.81-2.17-74.73-.16-10.67,5-23.15.94-31.55-4.12-8.56-16.5-13.21-25.36-19.42q-42.82-30-85.71-59.89,0-.9,0-1.81c1.81-2.73,3.75-5.39,5.41-8.21q50.51-86,101-172.07c1.63-2.78,3.3-5.54,5.22-8.75,3.74,1.61,6.75,2.88,9.73,4.2q55.25,24.53,110.47,49.11c4.31,1.93,7.78,3.06,12.29-.54a331,331,0,0,1,87.45-49.88c5.13-2,6.44-5,6.85-10,1.21-15,3.09-29.94,4.53-44.92C422.63,133.33,425.23,105.16,427.87,77ZM707.06,557.38c-9.54,61.58-39.67,107.26-94.22,132.69-77.31,36-145,16.65-203.42-43.3L364.8,683.3c48,62.71,136.46,96.46,218.82,78.63,102.32-22.15,160.49-89.43,182.43-191l25.2,20.68,37.81-45.38c-24.57-20.47-48.58-40.55-72.67-60.54-14.31-11.88-25.44-12.64-41.25-2.93q-36.56,22.46-73,45c-2.19,1.35-4.19,3-6.56,4.73l30.75,49.85Zm1.23-170c-60.19-61.31-131.83-87.27-214.59-68.74C392.9,341.22,335.33,408.44,314,509l-25.3-20.62L251,533.77c24.78,20.65,49,40.92,73.36,61.12,13.4,11.13,24.72,12,39.74,2.79q37.77-23.08,75.37-46.43c1.68-1,3.17-2.38,5-3.79l-30.71-49.79-39.64,24.22c2.42-44.58,33.43-106.91,97.66-134.42,72.24-30.93,136.38-14.7,193,39.38Z">
        </path>
    </symbol>
    <symbol id="ux" xmlns="http://www.w3.org/2000/svg" viewBox="0 0 1080 1080" fill="currentColor">
        <title>ux</title>
        <path
            d="M52.62,705.91q0-23.8,0-47.6A46.77,46.77,0,0,0,54.27,652c13.11-109.56,68.66-190.73,164.19-245,5.36-3,7.32-6,7.7-12.27,1.09-18.31,2.22-36.76,5.35-54.8,28.88-166.36,194-281.77,360.59-252.37C743.25,114.26,851.41,241,853.91,394.75c.1,6.42,2.38,9.3,7.69,12.25,79.09,43.85,131.31,109.21,155.27,196.51,4.91,17.89,7.08,36.52,10.51,54.81v47.6c-.57,2.76-1.13,5.52-1.71,8.27-4.69,22.27-7.21,45.27-14.4,66.7-64.94,193.64-289,275.12-464.46,169.37-5.05-3-8.61-2.95-13.63.1-69,41.88-143.27,55.21-222.86,41.39C192.18,971.24,89.8,875.82,62.2,759,58.06,741.54,55.77,723.63,52.62,705.91ZM588.79,909.6c91.12,44.05,181,43.31,265.57-13.22,87.21-58.27,125.7-142.75,113.2-247.08-9.58-80-52.21-140.73-120.06-184.92-.86,2.42-1.21,3.29-1.49,4.19-.46,1.51-.9,3-1.3,4.57-23,88-74.33,154.24-153.2,199.17-6.22,3.54-8.91,6.95-9,14.47C681.8,748.22,664.8,805,630.4,855.93,618.06,874.21,603.39,890.91,588.79,909.6ZM231.12,466.42C126.58,526.48,69.46,676.58,142,806.68,217.4,942,382,971.57,491,908.18c-.16-.6-.14-1.35-.51-1.77-1.66-1.91-3.41-3.74-5.15-5.58-56.7-60-86.23-131.16-87.79-213.67-.15-7.91-3-11.59-9.46-15.15-56.45-31.39-99.88-75.74-128.27-133.76C248.45,515.08,240.51,490.26,231.12,466.42Zm564.53-89.13c-6.45-125.5-119.42-246.08-271.87-236.1C368.75,151.33,285.46,283.84,285,379.85c2.82-.59,5.59-1.12,8.34-1.76q126.84-29.7,238.74,37c6,3.6,10.05,3.66,16.05,0,49.79-30.55,104.07-46.69,162.47-45.73C738.87,369.8,767.11,374.49,795.65,377.29Zm-509.4,62c14.38,76.1,53.43,134,118.07,176.56,14.32-61.47,43.39-113.53,88.17-158C425.81,422.9,358,417.11,286.25,439.26Zm507.5,0C722.1,417,654.24,422.89,587.56,457.89c44.93,44.64,73.8,96.73,88.16,157.94C740.34,573.13,779.21,515.35,793.75,439.28ZM454.81,699.9c6.08,70.16,34.17,127.51,85.27,174.56,51-47.54,79.35-104.7,84.91-174.41C567.88,715.29,512.17,715.47,454.81,699.9ZM622.26,641c-10.91-59.76-38-108.95-82.3-149.29-44.57,41.06-71.65,90.09-82.16,149.24C512.81,659,567,659,622.26,641Z">
        </path>
    </symbol>
    <symbol id="finance" xmlns="http://www.w3.org/2000/svg" viewBox="0 0 1080 1080" fill="currentColor">
        <title>finance</title>
        <path
            d="M540.1,68c260.44,0,471.82,211.41,471.9,471.84.08,260.79-211.8,472.48-472.57,472.16C279,1011.68,67.86,800.08,68,539.64S279.7,68,540.1,68Zm54.56,762.6c0-12.15,0-23.4,0-34.66,0-14.58,0-14.58,14.21-17.92,80.84-19,124.94-75.84,121.68-157.91-1.68-42.31-19.67-76.25-55.65-99.54-9.71-6.28-19.88-12.63-30.75-16.21-33.06-10.89-66.71-20-99.84-30.71-14.82-4.79-30.08-9.93-43.08-18.17-19.22-12.18-16.58-35.94,3.59-46.33,34.64-17.85,70.27-2.78,80.33,34.16H714.78c2.17-23.05-5.34-55.1-18.19-77.37-23.76-41.18-62.4-60.15-107.25-70.13V250H483.58v45.85c-4.5,1-8.16,1.81-11.82,2.56-74.4,15.29-118.61,69.94-116.35,143.89C357,494,379.86,532.1,426.85,555.31c29.59,14.62,61.55,21.42,93,30.2,18.67,5.21,37.79,10.35,55,19,25.73,13,25.2,43.58.08,57.8-18.83,10.65-39,11.64-59.24,4.52-18.18-6.4-29-19.25-30.82-39a25.06,25.06,0,0,0-1.06-4.14h-135c3.46,91.78,54.84,140.12,140.69,158.39V830.6Z">
        </path>
    </symbol>
    <symbol id="healthcare" xmlns="http://www.w3.org/2000/svg" viewBox="0 0 1080 1080" fill="currentColor">
        <title>healthcare</title>
        <path
            d="M1026,363.39v43.66a30.13,30.13,0,0,0-1.55,5.35c-4.4,43.85-19.35,84-41.65,121.81-3.58,6.07-7.49,7.8-14.24,7.78q-110-.37-220.08.06c-7.57,0-11.08-2.64-14.42-8.91-30.17-56.57-60.46-113.07-91.31-169.27-3.71-6.77-10-13.54-16.72-16.95-14.51-7.31-29.58.18-37.57,17Q534.66,477.3,481,590.74c-1.66,3.51-3.45,7-5.7,11.49-2.93-4.43-4.89-7.29-6.75-10.2q-34.86-54.78-69.72-109.55c-14.38-22.48-38.6-22.28-52.38.37-10.51,17.27-21,34.58-31.1,52.08-2.82,4.87-5.8,7.09-11.77,7.07q-97.23-.36-194.47,0c-5.88,0-9.47-1.72-11.85-7-10-22.09-21.7-43.57-29.71-66.35C60.82,449.54,58.35,428.92,54,409q0-22.78,0-45.56c1.41-8.69,2.67-17.42,4.26-26.08C91.61,155.67,299.38,34.53,483.19,141.62c19.81,11.54,38.07,25.76,57.67,39.16,6.36-5,13.36-10.89,20.68-16.32,60.8-45.14,128.09-69.1,204.65-61.54,119.1,11.76,220.74,98.86,251,215.05C1021,332.87,1023.09,348.24,1026,363.39Z">
        </path>
        <path
            d="M146.7,598.8h12.35c54.4,0,108.8-.21,163.2.14,14.52.09,24.76-5.35,31.8-18,6-10.68,12.56-21,19.37-32.3C400.31,590.89,426.5,631.9,452.51,673c4.93,7.79,10.82,13.94,20.08,16.16,13.77,3.3,26.28-3.45,33.44-18.47Q536.38,607,566.52,543.16l50.55-106.68c2.27,3.86,4,6.65,5.59,9.55,23.82,44.22,47.86,88.32,71.28,132.75C701.47,593,712.06,599.1,728.18,599c63.89-.45,127.78-.19,191.67-.19h12.2c-3,3.49-4.83,5.82-6.88,7.87Q744.27,786.74,563.32,966.75c-15.84,15.76-31.34,15.72-47,.14Q335,786.55,153.76,606.18C152,604.41,150.28,602.55,146.7,598.8Z">
        </path>
    </symbol>
    <symbol id="insurance" xmlns="http://www.w3.org/2000/svg" viewBox="0 0 1080 1080" fill="currentColor">
        <title>insurance</title>
        <path
            d="M1011.93,389.83c0,49.51.17,99,0,148.52-.73,183.08-80.61,321.88-235.51,417.82-70.74,43.81-147.67,72.71-229.5,87.9-9.17,1.7-19.49-.75-28.92-2.86-104.92-23.5-201.31-65.46-284-135.29C140.6,827,86.16,726.6,72.22,604.89a649.56,649.56,0,0,1-4-71.42c-.4-113.06-.18-226.12-.18-339.18,0-19.86,2.52-23.34,21.85-26.18,153.31-22.55,300.17-66.58,441-131.12,5.44-2.49,14.16-2,19.74.61,101.24,46.84,206.45,82.1,315,107,42.32,9.72,85.41,16.1,128.16,23.93,13.65,2.5,18,7.31,18,21.13Q1012,289.76,1011.93,389.83Zm-472-153.5C372.53,236.38,236.48,372.65,236.67,540c.18,166.83,136.13,302.84,302.91,303.05,167.26.21,303.66-136,303.76-303.28S707.29,236.27,539.89,236.32Z">
        </path>
        <path
            d="M607.42,607.12c0,27.46,0,53.4,0,79.33,0,15.87-5.78,21.74-21.41,21.78q-45.8.12-91.6,0c-16.29,0-21.78-5.71-21.81-22.39,0-25.88,0-51.76,0-78.72-26.12,0-51.28,0-76.44,0-20,0-24.68-4.73-24.68-24.84q0-44.22,0-88.44c0-15.81,5.72-21.49,21.6-21.53,26-.07,51.91,0,79.51,0,0-3.73,0-7.05,0-10.38,0-23.51-.08-47,0-70.54.06-13.79,6.15-20.1,19.78-20.16q47.9-.22,95.81,0c12.94.07,19.1,6.47,19.18,19.7.15,26.63,0,53.27,0,80.87,3.89.19,7.25.48,10.61.48,23.86,0,47.73-.13,71.59.09,12.44.12,18.8,6.5,18.87,18.93q.26,47.9,0,95.81c-.05,13.7-6.24,19.9-20,20C661.9,607.23,635.29,607.12,607.42,607.12Z">
        </path>
    </symbol>
    <symbol id="telecom" xmlns="http://www.w3.org/2000/svg" viewBox="0 0 1080 1080" fill="currentColor">
        <title>telecom</title>
        <path
            d="M742.41,56c15,3.21,30.35,5.14,44.85,9.83,101.3,32.71,162.53,101.24,182,206.23,2.28,12.32,3.07,25,3.35,37.57.39,17.75-12.73,31.33-29.42,31.75-16.89.42-30.37-12.11-30.85-30.07-1.31-49-16.72-92.68-49.6-129.36-37.4-41.71-84.55-63.39-140.54-65.43C704.1,115.86,691.6,108,688,94c-3.9-15.19,2.53-27.32,19.36-36.6.46-.26.68-1,1-1.45Z">
        </path>
        <path
            d="M338.95,487.35a300.19,300.19,0,0,1-15.26-94.2c-.37-77.62,22.65-147.31,72.28-207.61,12.23-14.85,24.34-15.28,38.22-1.41q87.58,87.5,175,175.12c2.64,2.65,4.52,6.06,7.42,10,16.86-16.9,31.56-32.32,47.11-46.84,5.25-4.9,12.26-9.31,19.14-10.76,13.75-2.89,25.5,3.81,31.46,15.43,6.15,12,4.29,25.42-5.74,35.61-15.68,15.93-31.72,31.51-49.55,49.16,3.47,2.38,6.73,4,9.15,6.37q86.31,86.09,172.46,172.35c15.57,15.58,15.16,26.91-2,40.77-50,40.48-107.19,63.39-171.29,69.57a322.37,322.37,0,0,1-114.1-9.42c-2.64-.7-5.21-1.67-7.92-2.56,39.44-76.69,10.54-146.38-28.46-182.46C475.44,468.12,407.68,449.61,338.95,487.35Z">
        </path>
        <path d="M594.34,891.36H236.18l70.57-174.59c31,30.58,66.81,47.08,109.69,46.84,42.54-.24,78-16.71,108.72-47.59Z"></path>
        <path
            d="M416.3,952c88.53,0,177.06-.16,265.58.25,8.43,0,17.76,1.91,25.08,5.87,14.2,7.68,19.76,24.91,15.1,40.06-4.92,16-18.14,25.8-35.38,25.81q-156.89.07-313.79,0-114.36,0-228.73,0c-19.29,0-34.22-13.56-36.54-32.62-2-16.39,9.49-33.48,26.24-37.95,5.36-1.43,11.21-1.35,16.84-1.35Q283.51,951.91,416.3,952Z">
        </path>
        <path d="M415.76,526.73c49.42,0,88.46,39.29,88.39,88.86A88.8,88.8,0,0,1,416,704.11c-48.46.27-89.17-40.25-89.22-88.81C326.71,566.34,366.56,526.68,415.76,526.73Z"></path>
        <path d="M722.2,165.7c69.1.66,131.87,57.45,139.32,126.1.68,6.24,1.6,12.52,1.53,18.77-.18,17.07-13.09,30.37-29.38,30.81-16.54.45-29.63-11.8-31-29-3.38-43.71-26.12-73.57-63.87-83.47a84.67,84.67,0,0,0-17.63-2.73c-21.1-.92-34.18-12.65-34-31S701,165.49,722.2,165.7Z"></path>
    </symbol>
    <symbol id="blockchain" xmlns="http://www.w3.org/2000/svg" viewBox="0 0 1080 1080" fill="currentColor">
        <title>blockchain</title>
        <path d="M58,669.05q95.17,54,190.42,107.91c6.81,3.83,9.4,7.86,9.36,15.94-.39,72.14-.23,144.28-.23,216.42V1021c-4-2.16-6.93-3.67-9.81-5.32-54.93-31.38-109.77-62.91-164.83-94.06-10.24-5.79-19.54-12-24.92-22.86Q58,783.91,58,669.05Z"></path>
        <path
            d="M553.16,59a90.61,90.61,0,0,0,8.3,5.54q88.18,46.15,176.43,92.18c2.77,1.45,5.5,2.95,9.37,5-3.22,2-5.68,3.56-8.22,5q-95.53,54.33-191,108.77c-5.91,3.38-10.23,3.38-16.14,0q-95-54.38-190.2-108.26c-2.69-1.53-5.3-3.19-8.87-5.35,3.6-2,6.37-3.7,9.23-5.19q88.22-46.09,176.43-92.18A90.6,90.6,0,0,0,526.8,59Z">
        </path>
        <path d="M822.79,1020c-.12-2.74-.33-5.14-.33-7.53q0-111-.08-222.06c0-5,.52-8.49,5.68-11.39q94.62-53.1,188.94-106.72c1.06-.6,2.2-1.05,4.23-2,.28,2.83.7,5.09.71,7.36Q1022,783,1022,888.38c0,12.12-4.65,21.37-15,27.32Q916.56,967.59,826,1019.21A13.72,13.72,0,0,1,822.79,1020Z"></path>
        <path
            d="M511.32,560.67c-15-7.5-28.62-14.36-42.28-21.18q-73.92-36.93-147.88-73.78c-4.52-2.25-7.27-4.39-7.25-10.35.25-78.08.17-156.16.19-234.24,0-1.23.21-2.45.41-4.79,3.2,1.67,5.9,3,8.5,4.47q90.54,51.69,181.08,103.38c4.48,2.55,7.84,4.61,7.81,11.09-.31,73.06-.19,146.12-.21,219.19C511.69,556,511.51,557.54,511.32,560.67Z">
        </path>
        <path d="M765.9,216.37c0,42.11,0,82.86,0,123.61,0,38.26-.07,76.51.09,114.77,0,4.85-.92,7.93-5.75,10.33q-93.37,46.33-186.54,93.05c-1.32.66-2.73,1.14-5,2.09-.17-3.55-.4-6.22-.41-8.89q0-107.24-.06-214.48c0-4.83.16-8.54,5.43-11.52q94-53.23,187.65-107C762.33,217.71,763.5,217.37,765.9,216.37Z">
        </path>
        <path
            d="M511.71,670.2c0,4.05,0,7.12,0,10.18,0,72.74-.09,145.48.15,218.23,0,6.72-1.7,10.52-7.81,14-60.45,34.29-120.68,69-181,103.53-2.41,1.38-4.88,2.65-8.27,4.48-.29-3-.7-5.26-.7-7.54q-.05-111.46-.11-222.93c0-5.07.88-8.46,5.87-11.29Q412.58,726.25,505,673.19C506.84,672.16,508.85,671.47,511.71,670.2Z">
        </path>
        <path
            d="M569,669.85c32.84,18.77,64.62,37,96.41,55.1,31.29,17.87,62.66,35.58,93.77,53.76,3.07,1.79,6.42,6.34,6.44,9.63.36,75.93.28,151.87.25,227.8a42.39,42.39,0,0,1-.52,4.31c-3-1.52-5.5-2.63-7.86-4Q666.26,964,575.17,911.21c-3.1-1.8-6.6-6.27-6.61-9.51-.37-75.93-.28-151.87-.25-227.8A32.1,32.1,0,0,1,569,669.85Z">
        </path>
        <path
            d="M493.25,615.26l-78.9,45.1c-40.52,23.15-81,46.41-121.69,69.23-3.35,1.88-9.35,2.54-12.46.8Q179.79,674.15,79.81,617.13C79,616.68,78.3,616,76.89,615c2.31-1.44,4.22-2.86,6.32-3.9q98-48.6,196.14-96.95c3.31-1.62,8.69-2.07,11.85-.51q98.11,48.5,195.88,97.7C489,612.29,490.67,613.61,493.25,615.26Z">
        </path>
        <path
            d="M586.78,614.79c3.94-2.13,6.88-3.83,9.91-5.35,63-31.53,126.09-62.93,189-94.72,6.36-3.21,11.11-2.94,17.26.13q95.74,47.88,191.72,95.29c2.73,1.36,5.4,2.85,9,4.75-3.6,2.14-6.18,3.74-8.82,5.24q-96.45,54.67-192.89,109.37c-4.5,2.56-8.11,4.41-13.67,1.2q-98.9-57-198.11-113.5C589.34,616.74,588.63,616.12,586.78,614.79Z">
        </path>
    </symbol>
    <symbol id="crm" xmlns="http://www.w3.org/2000/svg" viewBox="0 0 1080 1080" fill="currentColor">
        <title>crm</title>
        <path d="M1018,879.56c-4.34-.18-8.68-.53-13-.53q-464.71,0-929.41,0H62V794c2.56-.18,5.23-.55,7.91-.55q471.71,0,943.43,0c1.55,0,3.11.11,4.66.16Z"></path>
        <path
            d="M125.86,200.44H953.12V734H125.86ZM671,453l1.86-.49c7,15.39,15.27,30.35,20.58,46.3,4.84,14.53,13.09,18.91,27.41,17.2,5.79-.69,8.77-2.32,11-7.56,6.85-16,14.14-31.81,21.33-47.65,1.17-2.57,2.69-5,4.05-7.47l1.66.53v89.87h49.43V362.09c-15.65,0-30.83.27-46-.14-5.83-.16-8.85,1.69-11.24,7.07-10.38,23.27-21.2,46.35-31.9,69.48-1.18,2.55-2.6,5-4.54,8.7-12.42-27.12-24-52.58-35.82-77.91-1.28-2.74-4-6.76-6.15-6.83-17-.57-34-.31-51-.31V543.71H671ZM448.64,362.26v182.2c13.7,0,26.75-.47,39.74.17,8,.39,10.05-2.48,9.78-10.07-.54-15.11-.16-30.25-.16-45.17,18.06-2,18.06-2,26.11,12.05,3.71,6.48,8.49,12.58,10.92,19.5,7.06,20.17,20.55,27.18,41.28,23.77,8.85-1.46,18.13-.24,28.8-.24l-39-68c2.08-1.4,4.11-2.39,5.66-3.88,19.9-19.17,25.88-42.29,16.7-68.12-9-25.42-27.75-40.73-55.06-41.93C505.52,361.31,477.48,362.26,448.64,362.26ZM429.4,503.12l-39.63-23.63C380.23,496.42,366,502.72,348,500.75s-28.3-13.38-33.74-29.48c-4.62-13.7-3.81-27.63,1.73-41.06,7.13-17.29,23.25-26.25,41.91-24.2,14.6,1.61,25.92,7.87,32.43,21.92L428,401.08c-18.71-33.35-61.1-48-102-36.15-41.22,12-67.49,50.32-64.75,94.48,2.52,40.7,36,78.5,75.47,85.19C375,551.1,417.55,532.33,429.4,503.12Z">
        </path>
        <path d="M498.64,405.78c10,0,19-.45,27.95.12,10.46.67,15.74,8.74,15.05,21.69-.61,11.48-5.72,16.86-16.44,17-8.65.13-17.3,0-26.56,0Z"></path>
    </symbol>
    <symbol id="erp" xmlns="http://www.w3.org/2000/svg" viewBox="0 0 1080 1080" fill="currentColor">
        <title>erp</title>
        <path
            d="M421.26,65h237.5c16,6.85,21.43,19,21,36.15-.86,32.13-.12,64.31-.37,96.46,0,5.45,2,7.79,6.71,10.39q34.42,19,68.12,39.21c5,3,8.2,3.42,13.14.51,28.75-16.91,57.68-33.52,86.58-50.18C872.19,187,887,191,897.6,209.32q53.8,93.06,107.47,186.18c10.86,18.84,6.84,33.23-12.21,44.26-28.87,16.72-57.69,33.5-86.71,49.95-4.82,2.73-5.61,5.58-5.49,11,.59,25.89.76,51.82.09,77.71-.16,6.18.73,9.28,6.18,12.37,28.51,16.1,56.76,32.64,85.09,49,20.54,11.89,24.09,25.43,12.09,46.25Q951.1,778,898,869.83c-11.21,19.42-25.65,23.28-44.93,12.15-28.62-16.53-57.3-33-85.79-49.7-4.94-2.9-8.16-2.52-13.14.51-22.13,13.45-44.53,26.48-67.27,38.85-5.43,3-7.65,5.47-7.59,11.68.32,31.84-.47,63.71.39,95.53.46,17.11-5,29.3-21,36.15H421.26c-15.92-6.88-21.44-19-21-36.15.88-32.13.13-64.31.37-96.47,0-5.44-1.95-7.84-6.68-10.44-22.68-12.47-45.24-25.21-67.32-38.73-5.69-3.49-9.25-3.62-14.73-.4-28.48,16.77-57.15,33.21-85.83,49.64-18.33,10.5-33.13,6.48-43.7-11.8q-53.78-93.07-107.46-186.2c-10.86-18.84-6.89-33.17,12.21-44.22,28.88-16.7,57.72-33.46,86.75-49.91,4.82-2.73,5.56-5.62,5.43-11-.6-25.9-.77-51.83-.1-77.72.16-6.16-.65-9.32-6.14-12.41-28.79-16.22-57.35-32.87-86-49.42-19.1-11-23.06-25.38-12.19-44.23q53.69-93.12,107.46-186.2,15.93-27.57,43.68-11.76,43.42,24.87,86.64,50.08c4.87,2.86,8.05,2.71,13.12-.37q33.16-20.21,67.27-38.82c5.44-3,7.61-5.56,7.55-11.75-.31-31.85.48-63.71-.39-95.54C399.81,84,405.3,71.86,421.26,65Zm89,511.3c17.39,19.78,33,37.52,48.61,55.28,11.93,13.59,24,16.35,34.17,7.75,10.52-8.91,9.44-21.48-2.92-35.48-12.21-13.83-24.32-27.74-36.85-42l5.16-2.23c30.69-13.09,46.58-41.06,40.84-71.89-5.47-29.38-32.51-51.11-64.85-51.81-14.51-.31-29-.25-43.56,0-14,.21-22.24,7.7-22.32,21.73-.31,55-.18,110-.07,165,0,8.63,3.68,15.54,11.73,19.55,14.24,7.08,29.62-3.06,30-20.07C510.47,607.67,510.23,593.3,510.23,576.3Zm165.47-4.79c10.69,0,19.92.28,29.14-.05,36.26-1.31,65.33-31.3,65.51-67.35A67.68,67.68,0,0,0,704.87,436c-15.43-.5-30.89-.29-46.34-.19-16.81.11-24.1,7.52-24.12,24.55q-.09,79.71,0,159.42a36.67,36.67,0,0,0,1,10.08c2.76,9.49,12.14,15.25,22.3,14.15a19.7,19.7,0,0,0,17.87-19.25C676,607.5,675.7,590.24,675.7,571.51ZM366.42,477.24c16.29,0,31.42.12,46.54,0,14.35-.15,23.26-8.25,23.24-20.75s-9-20.56-23.33-20.66c-21-.15-42-.1-63,0-18.3.06-25.34,7-25.36,25.17q-.09,65.35,0,130.7c0,10.81-.22,21.64.16,32.44.38,11,7.74,19.54,18.23,19.76q37.52.79,75.07,0c10.79-.24,18.45-9.9,18.28-20.72s-8-19.61-19-20.07c-13.57-.56-27.18-.21-40.78-.31-3.27,0-6.54-.28-9.62-.41V560.75c8,0,15,0,22.14,0s14.22.19,21.32-.11c13.41-.57,21.88-10.26,20.57-23.16-1.07-10.53-9.25-17.87-21-18.1-14.39-.28-28.78-.07-43.39-.07Z">
        </path>
        <path d="M510.78,521.92V478c9.57,0,18.81-.95,27.77.23,12.06,1.59,20.09,11.26,20,21.81-.07,10.82-8.93,20.51-21.19,21.74C528.92,522.6,520.29,521.92,510.78,521.92Z"></path>
        <path d="M676,477.79c10.66,0,20.24-.89,29.58.21,13.49,1.6,23.48,13.46,23.33,25.82-.15,12.84-10.81,24-24.65,25.77-28.17,3.64-28.17,3.64-28.26-24C676,496.73,676,487.81,676,477.79Z"></path>
    </symbol>
    <symbol id="fullstack" xmlns="http://www.w3.org/2000/svg" viewBox="0 0 1080 1080" fill="currentColor">
        <title>fullstack</title>
        <path
            d="M1022.31,308.33V771.81a54.37,54.37,0,0,0-1.77,6.26c-3.52,21.77-11.61,41.69-25,59.2C966.29,875.68,927.19,893.08,879,893q-311.67-.51-623.34-.15c-22,0-44,.32-65.91-.25a135.71,135.71,0,0,1-126.49-98c-2.16-7.49-3.72-15.16-5.55-22.74q0-231.74,0-463.47c3.35-12,5.63-24.49,10.23-36,18.78-47.09,67-85.62,132.15-85.31,174.83.83,349.66.27,524.5.29,54.93,0,109.87-.55,164.78.3,62.79,1,115.65,45,129.51,106.19C1020,298.65,1021.16,303.49,1022.31,308.33Zm-380.15,23c0-16.12-9.47-28.06-22.14-30.4-14.84-2.73-27.58,4.71-33,20Q512.86,530.38,439,740a36.41,36.41,0,0,0-1.55,17.42,26.55,26.55,0,0,0,24.71,22.09c14.91,1,24.95-6.3,30.64-22.4Q566.11,549.78,639.3,342.4A103.24,103.24,0,0,0,642.16,331.29ZM262.89,546.72c3.64-2.66,6.76-4.36,9.18-6.77q67-66.81,133.82-133.79c15.82-15.89,12.23-39.24-7-47.53-11.44-4.93-23-2.24-33.29,8Q286.7,445.52,207.84,524.43c-16,16-16,31.15.06,47.22q54.22,54.29,108.48,108.54c11.76,11.76,23.44,23.6,35.34,35.22,8.38,8.18,18.54,10.53,29.54,6.77,10.72-3.66,16.9-11.73,18.5-22.9,1.56-10.9-3.41-19.24-10.92-26.72C347.49,631.4,306.27,590.09,262.89,546.72Zm554.29-13.37c-3.92,3-7.24,4.9-9.88,7.53q-65,64.81-129.85,129.78a92.46,92.46,0,0,0-6.56,6.74c-7.4,9.1-8.93,19.3-4.21,30,4.6,10.39,13.2,15.81,24.43,16.42,9.73.53,17.25-4.12,24-10.9q78.75-79,157.72-157.83c1.33-1.33,2.7-2.63,3.92-4.06,9.41-11,10.48-26.72.38-37Q802.06,438,726,362.93c-8-7.89-18.61-8.61-29-4.27-10.21,4.24-15.69,12.4-16.88,23.13-1.17,10.49,3.83,18.54,11.1,25.77C732.57,448.71,773.8,490,817.18,533.35Z">
        </path>
    </symbol>
    <symbol id="healthtech" xmlns="http://www.w3.org/2000/svg" viewBox="0 0 1080 1080" fill="currentColor">
        <title>healthtech</title>
        <path
            d="M1019.21,400.61V866.43c-.7,3-1.55,5.93-2.07,8.93-5.72,32.73-20,60.44-47.3,80.44-27.78,20.32-59.44,26.43-93.14,26.41q-334.46-.23-668.92-.1c-6.21,0-12.44,0-18.62-.48-42.67-3.4-78.77-19.21-103-56.13-16-24.4-21-51.88-20.93-80.69q.19-209.15.14-418.31a231.43,231.43,0,0,1,2.09-34.3c5-33.22,19.75-61.1,47.4-81.28,27.81-20.29,59.48-26.28,93.17-26.26q334,.25,668,.11a215.51,215.51,0,0,1,22.34.69c53.3,5.57,93.43,29.66,112.6,81.95C1014.81,378.06,1016.5,389.52,1019.21,400.61ZM629,714.53h11.16c22,0,44.09.21,66.13-.07,21.1-.27,31.81-11.36,31.85-32.51q.11-53.09,0-106.18c0-24-10.35-34.24-34.69-34.32-22-.07-44.09-.29-66.13.14-7.13.14-8.95-2.26-8.84-9.08.37-23,.32-45.95.07-68.92-.22-20.47-11.47-31.45-31.91-31.49q-53.56-.11-107.11,0c-23.23,0-33.89,10.67-34,34.22-.13,21.42,0,42.84-.05,64.27,0,3.3-.28,6.61-.48,10.86H444c-22,0-44.09-.2-66.13.07-20.63.25-31.49,11.32-31.55,31.81q-.14,54,0,108c0,22.14,10.78,33,33.14,33.13,21.73.17,43.47,0,65.2.06,3.3,0,6.6.29,10.81.49,0,4.26,0,7.61,0,11,0,21.73-.2,43.47.07,65.2s11.3,32.54,32.84,32.57q54,.09,108,0c21,0,32.16-10.84,32.48-32,.33-22,.08-44.09.09-66.13C629,722.33,629,719,629,714.53Z">
        </path>
        <path
            d="M401.43,250.79H361.83c0-9.4-.13-18.31,0-27.22.42-24.79-.47-49.72,1.84-74.34,2.46-26.21,26.9-46.54,53.31-46.62q124.35-.35,248.7-.12c29.53.05,54.43,21.75,56,51.47,1.72,31.84.39,63.85.39,96.57h-39c-.17-2.95-.52-6.21-.53-9.48,0-25.46.07-50.92-.07-76.38-.1-17.19-5.7-23-23-23q-117.36-.2-234.73,0c-17.09,0-22.65,6-22.75,23.25-.15,25.15-.12,50.3-.21,75.45C401.86,243.67,401.59,247,401.43,250.79Z">
        </path>
        <path
            d="M698.71,579.94v96H674.16c-19.55,0-39.11,0-58.66,0-19.29,0-25.32,6.15-25.35,25.75q-.06,35.85,0,71.7V784.2H494.56c-.14-3.13-.41-6.38-.42-9.63,0-25.14.06-50.28-.05-75.43-.07-16.26-6.93-23.08-23.27-23.15-24.83-.11-49.66,0-74.49,0h-10.6v-96h13.83c23.59,0,47.18.07,70.77,0,17-.07,23.73-6.8,23.78-23.61.09-27.89,0-55.78,0-84.49H590.3c0,3.36,0,6.67,0,10,0,25.14-.09,50.28,0,75.43.08,15.62,7.07,22.59,22.81,22.68,25.14.15,50.28,0,75.43,0Z">
        </path>
    </symbol>
    <symbol id="contactus" xmlns="http://www.w3.org/2000/svg" viewBox="0 0 1080 1080" fill="currentColor">
        <title>contactus</title>
        <path
            d="M510.29,65h59.38c2.69.54,5.36,1.22,8.07,1.6,18.35,2.54,36.88,4.08,55,7.65C885,124,1052,367.43,1008,620.79c-38.22,219.91-223.51,384-446.14,393.7C444.35,1019.62,338.31,985.93,246,912.73c-94.61-75-152.79-172.59-174-291.73-3-17-4.77-34.18-7.1-51.28q0-29.69,0-59.38c.75-6.08,1.58-12.15,2.24-18.24C78.36,389.42,117.73,299,187,222.45c73.33-81.06,164.07-131.56,272-150.28C476,69.22,493.21,67.36,510.29,65ZM797.6,350.45H282.42L540,578.67ZM479.18,580.64,288,729.57H792l-191.19-149c-15,13.27-29.47,26.23-44.12,39-12.33,10.74-21.22,10.67-33.52-.11C508.61,606.72,494.1,593.82,479.18,580.64Zm-31.74-28.22L248.66,376.35V707.28ZM831.83,375.94,632.61,552.42,831.83,707.6Z">
        </path>
    </symbol>
    <symbol id="culture" xmlns="http://www.w3.org/2000/svg" viewBox="0 0 1080 1080" fill="currentColor">
        <title>culture</title>
        <path
            d="M995,422.7c-14.48,24-29.58,47.68-43.06,72.25-4.16,7.58-5.26,17.58-5.36,26.5-.51,45.61-.24,91.22-.24,136.83,0,3.5,0,7,0,11H802.43c6.48-7.94,12.21-14.93,17.89-21.94,18.13-22.37,21-44.55,8.45-65.44C816.84,562.06,795.85,554,767.5,559c0-16.37-.41-32.6.11-48.8.55-17.41-5.63-31.41-17.89-43.68q-74.43-74.48-148.36-149.45c-1.67-1.68-3.37-3.34-5-5.06-9-9.59-9.8-21.07-2-29.33s19.52-8.4,29.58-.29q25.24,20.35,50.2,41c6.35,5.26,13,7,20.41,2.75,6.75-3.9,7.92-10.45,7.9-17.64q-.13-60,0-120c0-20.14-.35-40.29.16-60.42.49-19.31,16.27-31.22,32.67-25.39,10.1,3.59,16,12.59,16.08,25.12.11,28.43,0,56.87.09,85.3.05,11.2,6.6,18,16.53,17.75,9.47-.22,15.62-6.91,15.66-17.74.12-32,.45-64-.12-96C783.2,101.85,788.66,91,803,85h10.66c14.15,5.33,19.5,15.83,19,30.55-.51,14.48-.12,29-.11,43.5,0,18.35-.2,36.7.14,55,.22,11.64,8.49,18.5,19.07,16.68,8.17-1.41,13.2-8.09,13.25-18.36.13-23.68-.15-47.36.16-71a24.18,24.18,0,0,1,23.69-24c11.86-.23,23.2,10.22,24.42,22.68.34,3.52.25,7.1.26,10.65,0,31.08,0,62.15,0,93.23,0,12,6.16,19.35,15.87,19.65,9.86.3,16.63-6.92,16.76-18.69.22-20.71.07-41.43.08-62.15,0-18.75,4.91-27.92,16.9-31.6,12.41-3.81,21.8,1.33,31.76,17.38Z">
        </path>
        <path
            d="M657.3,995c-24-14.47-47.69-29.52-72.22-43-7.33-4-17-5.2-25.61-5.3-45.89-.5-91.78-.23-137.67-.23H410.71V802.57c9.36,7.58,17.85,14.67,26.57,21.46,22.63,17.62,54.76,15.29,73.14-5.5,12.73-14.4,16-31.27,10.86-51,14.36,0,28.16-.84,41.82.19,22.44,1.68,39.51-6.63,55.19-22.55,48.61-49.36,98.13-97.82,147.43-146.5,3.49-3.45,7.67-6.77,12.16-8.51,8.06-3.12,17.07.34,22.06,7.19,5.26,7.22,5.24,16.93-.94,24.7q-20.18,25.36-41,50.23c-5.24,6.3-8.9,12.65-5,20.93s11.33,9.23,19.45,9.21c58.33-.1,116.65,0,175-.1,12.79,0,23.58,3.28,29.21,15.82,7.21,16-4.85,33-23.84,33.19-28.72.28-57.44,0-86.16.13-10.45,0-17,5.78-17.64,14.8-.69,10.36,6.18,17.33,17.74,17.37,31.68.12,63.37.48,95-.14,15.66-.3,27,4.74,33.17,19.6v10.66c-5.51,14.57-16.5,19.33-31.45,19.11-32.25-.47-64.52-.25-96.78-.08-12.26.06-19.43,8.17-17.54,19.08,1.41,8.16,8.09,13.19,18.37,13.25,23.09.13,46.17.06,69.26,0,10.38,0,18.36,4.15,23,13.62,8.1,16.47-3.92,34.54-23.5,34.73-32.55.3-65.11.06-97.67.16a39.63,39.63,0,0,0-11.36,1.31c-7.39,2.27-11,7.95-10.85,15.48s4.14,13,11.63,14.91a47.17,47.17,0,0,0,11.43,1.06c21.9.1,43.81-.1,65.71.12,12,.12,21.08,7.15,23.85,17.6,2.88,10.84-2,21.59-12.55,27.72-1.73,1-3.38,2.12-5.07,3.19Z">
        </path>
        <path
            d="M422.7,85c24,14.47,47.7,29.52,72.23,43.05,7.33,4,17,5.2,25.62,5.3,45.89.5,91.78.23,137.68.23h11.08V277.41c-9.63-7.79-18.3-15.16-27.33-22-32.8-25-79-6.65-85.11,33.93-1.09,7.17-.15,14.65-.15,23.2-12.92,0-27.3.73-41.58-.17C494,311,477.78,318.67,463,333.63c-48.06,48.66-96.91,96.54-145.46,144.71-1.89,1.88-3.73,3.81-5.69,5.61-9.44,8.7-21.29,9.25-29.45,1.42-7.9-7.59-8.18-19-.27-28.79q20.05-24.9,40.5-49.48c5.07-6.11,8.07-12.44,4.38-20.28s-10.65-9.23-18.55-9.21c-58.62.1-117.25,0-175.87.1-12.78,0-23.59-3.25-29.26-15.76-7.27-16,4.78-33.06,23.76-33.25,28.72-.28,57.44,0,86.16-.13,10.45,0,17.06-5.78,17.69-14.77.72-10.36-6.16-17.36-17.7-17.4-32-.12-64-.42-95.93.11C101.92,296.79,91,291.37,85,277V264.51c7.07-13.86,18.77-18.34,33.67-17.29,8.25.58,16.58.11,24.87.1,23.7,0,47.4.14,71.09-.12,9.82-.11,16-6.25,16.34-15.16.39-9.21-5.84-16.11-15.59-17-2.64-.26-5.33-.12-8-.12-21.92,0-43.84.17-65.76-.09a24.28,24.28,0,0,1-24.26-23.49c-.39-12.2,10.41-23.68,23.36-24.7,3.24-.26,6.51-.17,9.77-.17q46.65,0,93.31,0c8.35,0,15.38-2.33,18.69-10.66,4.51-11.35-3.64-21.88-17.51-22.11-20.73-.33-41.47-.1-62.2-.1-19.15,0-28.56-5.22-31.85-17.66-3.25-12.27,1.89-21.31,17.6-30.92Z">
        </path>
        <path
            d="M85,657.3c14.22-23.49,29.17-46.59,42.25-70.7,4.53-8.36,6-19.22,6.14-29,.62-45.3.27-90.62.27-135.93,0-3.49,0-7,0-11H277.49c-8,9.8-15.27,18.56-22.3,27.53-12.75,16.27-15.78,34.34-7.79,53.41C255.24,510.33,270,521,290.1,523.35c6.91.82,14.09-.56,22.4-1,0,12.37.92,25.29-.2,38-2.13,24.39,6.9,42.8,24.34,59.82,48.53,47.36,95.82,96,143.6,144.13,1.67,1.68,3.4,3.31,5,5.09,7.6,8.73,7.66,20.38.22,28.13-7.17,7.46-18.58,8.31-27.38,1.3-17.6-14-34.84-28.49-52.36-42.6-8.69-7-19-6.89-24.16,1-2.67,4.11-3.73,9.93-3.76,15-.26,51.83-.12,103.65-.2,155.48,0,10.05.2,20.18-.95,30.14s-7.71,16.28-17.12,19.61c-8.43,3-15.82.66-22.27-4.83s-8.64-13.06-8.61-21.48q.16-42.2,0-84.4c0-10.48-5.77-17.08-14.75-17.72-10.37-.73-17.39,6.12-17.44,17.67-.13,31.69-.47,63.39.13,95.06.3,15.64-4.77,27-19.58,33.21H264.51c-13.93-7.05-18-18.79-17.26-33.69.73-14.47.17-29,.16-43.53,0-17.47.2-35-.17-52.42C247,855.1,240.54,849,231.18,849c-9.15,0-15.56,6.48-16.22,16.46-.18,2.65-.06,5.33-.06,8,0,21.62.19,43.24-.1,64.86a24.23,24.23,0,0,1-23.46,24.28c-12.17.43-23.68-10.37-24.73-23.33-.26-3.24-.2-6.51-.2-9.77q0-46.64,0-93.29c0-8.36-2.28-15.39-10.6-18.71-11.38-4.55-21.89,3.64-22.07,17.47-.28,20.73-.08,41.46-.09,62.19,0,19.05-5.32,28.61-17.72,31.88S94.72,927.2,85,911.46Q85,784.38,85,657.3Z">
        </path>
    </symbol>
    <symbol id="jobs" xmlns="http://www.w3.org/2000/svg" viewBox="0 0 1080 1080" fill="currentColor">
        <title>jobs</title>
        <path
            d="M1010.62,525.32V837.77a29.3,29.3,0,0,0-1.56,4.27c-11.17,55.2-52.87,89.85-109,89.88q-359.7.15-719.41,0c-64.64,0-111-46.73-111-111.37q-.05-142.41,0-284.82c0-3.22,0-6.45,0-10.37,3.43,1,5.77,1.59,8.06,2.35,141.84,47.23,283.77,94.22,425.43,142,25.29,8.53,49,8.52,74.29,0Q793.8,596.95,1010.62,525.32Z">
        </path>
        <path
            d="M1010.62,462.83q-84.34,28.34-168.69,56.65c-94.85,31.66-189.78,63.07-284.55,94.94-12,4-22.72,3.86-34.71-.16Q301.33,540,79.68,466.75C71.29,464,69.21,460.25,69.39,452c.55-25.41.16-50.85.21-76.27.12-62.81,46.73-109.72,109.68-110,64-.24,128-.05,192.06-.05h12.17c0-14.34-.31-27.71.06-41.07,1-37.35,26-67.25,62.47-75a85.25,85.25,0,0,1,17.33-1.53c51.16-.11,102.31-.29,153.47,0,39.86.23,70.52,25,78.37,62.84,1.35,6.53,1.37,13.38,1.51,20.09.23,11,.06,22,.06,34.62H708c62.8,0,125.62,1.12,188.38-.31s106.39,43.73,112.9,91.13a14.59,14.59,0,0,0,1.38,3.38ZM462,265H618v-38H462Z">
        </path>
    </symbol>
    <symbol id="oh" xmlns="http://www.w3.org/2000/svg" viewBox="0 0 1080 1080" fill="currentColor">
        <title>oh</title>
        <path d="M850.07,206.12A93.83,93.83,0,0,1,846.4,232a92.67,92.67,0,1,1-96.64-118c2.55,0,5.05-.39,7.64-.39a92.93,92.93,0,0,1,92.67,92.67Z"></path>
        <path d="M439.72,206.12a92.62,92.62,0,0,1-184.86,5.7c0-1.94-.3-3.89-.3-5.87a92.8,92.8,0,0,1,70.86-89.86A93.92,93.92,0,0,1,347,113.45,92.71,92.71,0,0,1,439.72,206.12Z"></path>
        <path d="M663.66,561.19C791.39,571.39,859,531.36,859.92,355.65,600.1,334.67,663.66,561.19,663.66,561.19Z"></path>
        <path d="M456,735.78c-.69,127-36.23,183.09-104.07,200.62a251.66,251.66,0,0,1-70.82,6.13c-7,0-14.08-.6-21.59-1.21,0,0-1.68-6.09-3.41-16.11-.78-4.32-1.55-9.93-2.16-15.93a225.45,225.45,0,0,1-.82-38.43c.3-4.75.82-9.59,1.47-14.47C263.5,794.55,305.43,723.69,456,735.78Z"></path>
        <path
            d="M222.07,206.32a125.61,125.61,0,0,1,1.81-20.75c-187.56,167.19-213,453.94-53.79,652a475,475,0,0,0,55.24,57.93,215.58,215.58,0,0,1-.09-22.45c.3-4.75.82-9.59,1.47-14.47s1.55-9.59,2.68-14.42C64.2,675.65,64.06,406.87,227,238.22a125.45,125.45,0,0,1-4.5-24C222.48,211.62,222.07,209,222.07,206.32Z">
        </path>
        <path d="M241.48,797.83v-2.55C240.57,797.7,240.57,798.73,241.48,797.83Z"></path>
        <path
            d="M872.35,495.56s-1.6,166.29-3.41,328.18c0,19.91-.43,39.73-.65,59.2,0,10-.26,19.86-.39,29.58-38.56,43.83-78.5,54.19-112.7,50.82a150.83,150.83,0,0,1-57-18.52,171.78,171.78,0,0,1-33.34-23.49L663.83,759.7c-119.7,2.25-115.86-52.94-229.46-63.43-131.05-12-186.37,81.22-192.89,99L236,359.84C484.2,345.5,429.45,498,576.52,574.62,790.57,685.9,872.35,495.56,872.35,495.56Z">
        </path>
        <path d="M881,206s0,.07,0,.1,0,.09,0,.13Z"></path>
        <path d="M706,95.13a474.46,474.46,0,0,0-315.65-6,125.33,125.33,0,0,1,45.33,29.12,435.53,435.53,0,0,1,230.88,6.13A123,123,0,0,1,706,95.13Z"></path>
        <path d="M900.59,818.17l-.09,27.59c160.21-187,150.3-464.18-19.53-639.26a122.75,122.75,0,0,1-10.26,48.86A434.61,434.61,0,0,1,901,778.48C901,791.65,900.72,804.91,900.59,818.17Z"></path>
        <path d="M664.35,956.52a435.7,435.7,0,0,1-268.67-6.3,127.25,127.25,0,0,1-41.5,18.57c-4.32,1.08-8.38,1.94-13,2.72a475.29,475.29,0,0,0,370.45,11.36,169.92,169.92,0,0,1-23.4-10.62A186.84,186.84,0,0,1,664.35,956.52Z"></path>
    </symbol>
    <symbol id="instagram" xmlns="http://www.w3.org/2000/svg" viewBox="0 0 1080 1080" fill="currentColor">
        <title>instagram</title>
        <path
            d="M56,806.46q0-266.52,0-533c.66-2,1.51-4,2-6.05,3.15-14.08,5-28.56,9.5-42.21,33.46-102.66,125.1-168.9,233.16-169.07q61.42-.1,122.84,0,177.64,0,355.29-.08c34.48-.06,68,5.38,99,20.19,95,45.37,144.35,120.9,145.89,226.56.68,46.92.12,93.86.12,140.79q0,167.72.07,335.44c.06,34.48-5.44,68-20.28,99-45.43,95-121,145-226.68,145.59-157.8.91-315.6.07-473.4.35-41.07.07-80.13-7.86-116.28-27.24C118.8,960,76.66,903.24,60.17,827.43,58.66,820.47,57.39,813.45,56,806.46Zm886.6-265.57h.15q0-118.11-.09-236.22a262.07,262.07,0,0,0-1.93-31c-8.9-73.24-77.46-136-151.14-136.24-165-.64-330.08-.27-495.11-.19a174.84,174.84,0,0,0-21.57,1.87C200.39,148.19,137.68,216.95,137.4,290c-.62,165.35-.25,330.71-.18,496.06A158,158,0,0,0,139,805.76c9.46,74.59,77.37,136.42,152.67,136.72,164.41.66,328.82.27,493.22.18a173.49,173.49,0,0,0,21.57-1.84c73.28-9.27,135.39-77.72,136-151.44C943.14,706.56,942.61,623.72,942.61,540.89Z">
        </path>
        <path d="M540.13,298c133.6.11,241.8,108.51,241.69,242.12S673.25,782,539.67,781.84,297.88,673.3,298,539.7,406.48,297.92,540.13,298ZM700.81,539.57a160.9,160.9,0,1,0-160.3,161.27A160.61,160.61,0,0,0,700.81,539.57Z"></path>
        <path d="M802.17,338.16a60.1,60.1,0,0,1-60.48-60.48c.11-33.43,27.71-61,60.71-60.59,32.79.39,60,27.6,60.39,60.38C863.18,310.46,835.59,338.08,802.17,338.16Z"></path>
    </symbol>
    <symbol id="whatsapp" xmlns="http://www.w3.org/2000/svg" viewBox="0 0 1080 1080" fill="currentColor">
        <title>whatsapp</title>
        <path
            d="M68.16,1016.9c10.13-37,19.8-72.18,29.43-107.41,11.74-42.93,23.6-85.83,34.93-128.88a22,22,0,0,0-1.68-14.69C34.21,588.1,57.07,376.19,191.46,224.55,273.3,132.21,376.77,79.18,499.9,68.2c208-18.54,396.23,94.91,478.47,286.46,78.48,182.78,27.69,404.45-122.17,535.29-78.07,68.16-168.35,108-271.49,117.2-90.61,8.09-176.71-9.17-257.64-51-6.34-3.28-11.81-4-18.7-2.12q-114.73,30.44-229.6,60.33C75.93,1015.13,73.07,1015.74,68.16,1016.9Zm113.26-112.1c3-.64,4.54-.91,6-1.3,42.43-11.08,84.94-21.86,127.22-33.48,10.27-2.82,18.27-1.89,27.66,3.51C457.22,939.47,577,949.19,698.62,896.7c169.24-73,260.55-245.29,230.58-427.93-29.07-177.15-186.69-316.2-366.5-323-99.29-3.75-188.63,24.41-265.61,87.45-88.9,72.8-137.51,167.5-144.67,282.21-5.32,85.26,16.38,164.16,62.88,236,4.09,6.32,5,11.82,3,19.22C205.8,814.72,193.93,859,181.43,904.81Z">
        </path>
        <path
            d="M390.3,320.31c21.46-5.6,31.05,7.65,38.22,26.27,10.41,27.06,21.79,53.77,33.31,80.39,4.25,9.81,4.08,18.4-2.36,26.89-9.36,12.36-18.31,25.05-28.11,37.05-6.32,7.73-7.14,14.72-2,23.38,38.49,65.05,92.43,112,162.78,140,9.16,3.64,16.68,2.13,22.93-5.64,11.79-14.66,23.78-29.16,35.44-43.92,8.13-10.29,13-13,24.52-7.76q50.35,23,99.8,47.91c4,2,7.41,9.58,7.32,14.5-.89,49.89-15.56,74.07-69.37,96.58-30.42,12.73-61.91,9.54-93.19.82C506.33,725.19,422.87,654,356,560.19c-21-29.48-40-59.9-48-95.73-11.35-51.07,1.29-95.31,38.93-132.11C358.88,320.72,373.28,318,390.3,320.31Z">
        </path>
    </symbol>
    <symbol id="csr" xmlns="http://www.w3.org/2000/svg" viewBox="0 0 512 512" fill="currentColor">
        <title>csr</title>
        <path
            d="M268.77,474H243.23c-7-.88-14-1.7-21-2.65-24.14-3.29-39.31-22.87-35-45.77,1-5.29,3.62-10.26,5.66-15.81a168.45,168.45,0,0,1-54.2-36.39,172.56,172.56,0,0,1-37-54.57c-.84.45-1.34.7-1.83,1-25,14.41-53.63,1-58.59-27.49-1.35-7.79-2.16-15.68-3.22-23.53V243.23c.25-1.24.52-2.47.74-3.72,2.31-13.38,3.21-27.2,7.15-40.08C71.76,114.84,127.73,61.94,214.26,42.14,223.46,40,233,39.34,242.38,38h26.4c8.26,1.12,16.55,2.05,24.77,3.41A38.1,38.1,0,0,1,325,85.58c-1,5.54-3.55,10.81-5.46,16.42a172,172,0,0,1,90.56,91.54l2.1-1.2c24.54-14.46,53.61-1.15,58.57,26.95,1.4,7.92,2.18,16,3.24,23.94v24.7c-.24,1.23-.52,2.46-.72,3.7-1.78,11.47-2.44,23.25-5.48,34.37-24.12,88.25-80.6,143.29-170.06,163.76C288.26,471.93,278.44,472.62,268.77,474Zm30.12-83.7c-24.58-29-19-65.7,0-86.61,10-11,22.23-18,36.88-20.34,20.6-3.33,38.64,2.54,55.08,16.86l6.31-31.41c-9.25,0-17.32.06-25.39,0-22-.21-38.15-15.83-39.12-37.73-.37-8.29-5.52-13.28-13.91-13.34s-16.77.4-25.1-.19a46.86,46.86,0,0,1-15.56-3.62c-16.29-7.29-24.79-25-21.18-42.62A38.19,38.19,0,0,1,293,141.18c13-.33,26.1-.09,39.16-.13,1.16,0,2.32-.17,4.55-.34-39-26.5-79.76-32.26-123.81-18.47,37.08,42.83,7.86,106-46,107.76-.34,7.71,5,13.19,13.14,13.23,17.17.08,34.34-.2,51.5.12a38.21,38.21,0,0,1,37.11,35.32c1.33,19.7-12,37.5-31.38,40.31-9.88,1.43-20.08.76-30.14.89-9.85.13-14.57,4.67-15.09,14.38-.71,13.23-6.79,23.47-17.81,30.78-1.12.75-2.28,1.44-3.51,2.21C203.63,394.33,255.74,405.63,298.89,390.3ZM157.36,119.89c8.22-4.15,15.49-7.85,22.79-11.51,32.5-16.26,66.64-22.52,102.77-17a22.23,22.23,0,0,0,8.81-.38c5.38-1.42,8.87-7,8.45-12.36-.51-6.51-5-11.22-12-12.37a191.73,191.73,0,0,0-81.4,3.76c-86.2,23-145.83,103.17-143,192.41a210.63,210.63,0,0,0,3.19,27.85c1,6.11,6.69,10,12.7,9.88,5.31-.07,10.46-3.75,11.58-9a24.75,24.75,0,0,0,.09-8.85c-3.3-21-2.16-41.82,2.47-62.54,4.34-19.45,13-37.11,22.08-54.61,1.21-2.33,2.4-4.67,4-7.74l4.34,9.15c3.16,6.65,5.75,13.65,9.59,19.87a37.26,37.26,0,0,0,47.32,14.32,38.1,38.1,0,0,0,21.43-45.45c-3.41-12-11.14-20.15-22.35-25.23C172.89,126.86,165.58,123.59,157.36,119.89ZM353.5,392.62c-.09.57-.06.79-.13.82-4.86,2.61-9.73,5.22-14.61,7.79-25.07,13.18-51.54,21.49-80.07,21.52-10.16,0-20.34-1.32-30.48-2.34-8.95-.9-15.4,3.25-16.3,11-.85,7.29,4.57,13.23,12.95,14.54a192.42,192.42,0,0,0,54.67,1c44.34-5.74,82.41-24.36,113.57-56.32,34.24-35.12,52.68-77.57,55-126.56.62-13.36-1-26.88-2.43-40.24-1-9.53-10.63-14.55-18.55-10.52-5.68,2.89-7.72,8.28-6.37,16.49a162.12,162.12,0,0,1-.87,57.53c-4.07,21.12-12.48,40.53-22.72,59.26-1.31,2.39-2.59,4.79-4.18,7.72C389,345.67,385.6,337.73,381.8,330c-8.05-16.39-27.16-25.27-44.65-21a38.71,38.71,0,0,0-29.07,38.74c.58,15.62,8,27.22,22.15,34.17C337.93,385.71,345.81,389.1,353.5,392.62Zm-231.24-179a4.63,4.63,0,0,0-.61,1.12q-21.26,70.77,24.47,128.83a4.68,4.68,0,0,0,2.63,1.8c12.8,1.6,17.83-5.85,18-14.36.45-18,13.83-33.41,31.61-35.79,9.49-1.27,19.23-.63,28.86-.86a31.77,31.77,0,0,0,5.92-.34,12.72,12.72,0,0,0-2.85-25.16c-16.17-.11-32.34,0-48.51,0-24.78,0-41-16.45-40.72-41.2,0-1.09-.36-2.7-1.12-3.19C134.19,220.7,128.25,217.22,122.26,213.61Zm274.83,29.57C396,237.69,395,232.86,394,228A141.57,141.57,0,0,0,363.91,166c-1.64-2-2.93-2.5-5.63-1.74a56,56,0,0,1-14.14,2.28c-16.3.27-32.61.06-48.92.13-7.87,0-13.61,5.51-13.63,12.74s5.68,12.69,13.56,12.77c4.68.05,9.36-.13,14,0,6.64.25,13.45-.12,19.86,1.3,16.82,3.72,28.44,18.52,29.14,35.86.31,7.73,4.5,13.37,11.23,13.71C378.27,243.51,387.2,243.18,397.09,243.18Z">
        </path>
    </symbol>
</svg>