<svg id="Layer_1" data-name="Layer 1" xmlns="http://www.w3.org/2000/svg" viewBox="0 0 122.88 121.4"><title>person-insurance</title><path d="M32.66,109.86h.19a1.1,1.1,0,0,1,.31,0H56.6a1.56,1.56,0,0,1,1.56,1.56v8.45a1.56,1.56,0,0,1-1.56,1.57H32a1.56,1.56,0,0,1-1.56-1.57v-8.45A1.56,1.56,0,0,1,32,109.82h.33a1.5,1.5,0,0,1,.37,0ZM94.53,10.69c1.68,34-10.86,54-33.08,62.37C40,65.22,27.31,46,28.25,10.18,39.53,10.77,50.6,8.33,61.33,0,70.85,6,83,11.75,94.53,10.69ZM41.18,49.51c3.74-4.21,11.66-3.21,14.88-7.64a1.33,1.33,0,0,0,.3-.61c0-.08-3.18-4.57-3.46-5v0c-.75-1.17-2.14-2.79-2.14-4.18a2.24,2.24,0,0,1,1.51-2c-.07-1.18-.12-2.38-.12-3.56,0-.7,0-1.41,0-2.1a7.09,7.09,0,0,1,.24-1.3,7.53,7.53,0,0,1,3.34-4.25,9.38,9.38,0,0,1,1.81-.86c1.16-.42.59-2.36,1.85-2.38,2.94-.08,7.77,2.61,9.66,4.66A7.45,7.45,0,0,1,71,25l-.12,5.15a1.69,1.69,0,0,1,1.24,1.06c.4,1.63-1.28,3.65-2.07,4.94s-3.49,5.06-3.49,5.08a1.11,1.11,0,0,0,.25.6c3.25,4.46,11.25,3.42,15,7.72,5-8.51,7.4-19.81,6.69-34.15C79,16.3,69.12,11.63,61.35,6.71a38.74,38.74,0,0,1-27,8.3C34,29.8,36.4,41.11,41.18,49.51Zm48.14,56.65h-23a1.55,1.55,0,0,1-1.49-1.62l0-1,.06-1c0-.59.09-1.26.16-2s.14-1.45.21-2c.19-1.67.36-3.12.59-4.42a17.65,17.65,0,0,1,1-3.65,12.43,12.43,0,0,1,1.86-3.18,22.5,22.5,0,0,1,3.17-3.18s.72-.6.79-.65h0c.3-.25.59-.48.85-.67h0c.31-.23.59-.44.86-.61a8.77,8.77,0,0,1,.91-.55c3.12-1.71,7-5.84,10.38-9.39,1.43-1.52,2.77-2.94,4-4.06L94.94,63a.57.57,0,0,0,.11-.11,15.09,15.09,0,0,1,2-2,9.49,9.49,0,0,1,2.22-1.34,5.28,5.28,0,0,1,3.34-.25,4.37,4.37,0,0,1,1.53.75,3.7,3.7,0,0,1,1.12,1.46,4.11,4.11,0,0,1,.12,2.69,6.29,6.29,0,0,1-.8,1.78,8,8,0,0,1-1.27,1.53c-5.06,4.9-9.82,12.28-14.89,17.34a.6.6,0,0,0-.14.42.58.58,0,0,0,.19.4.6.6,0,0,0,.42.14.58.58,0,0,0,.37-.15.69.69,0,0,1,.11-.13L105.69,70a8.92,8.92,0,0,0,.94-1,8.24,8.24,0,0,0,.74-1.11,1.43,1.43,0,0,1,.14-.2c1.73-2.55,6.63-15.76,8.23-19.58a1.48,1.48,0,0,1,.3-.45,6.16,6.16,0,0,1,1.48-1.22,4.28,4.28,0,0,1,1.77-.6,2.84,2.84,0,0,1,.92,0,2.66,2.66,0,0,1,.81.31l.08.05a2.79,2.79,0,0,1,.75.71l.08.1a4.27,4.27,0,0,1,.5,1,9.47,9.47,0,0,1,.36,4.35,26.07,26.07,0,0,1-1.3,5.45l-2.77,9.71c-.29,1-.47,1.68-.59,2.13l-.48,1.8a38.23,38.23,0,0,1-2.45,7.33,35.54,35.54,0,0,1-5.34,7.46c-2.34,2.7-4.65,5.12-6.91,7.38S98.47,98,96.31,100h0l-3,2.79-.07.08c-1,.92-1.9,1.83-2.79,2.71a1.55,1.55,0,0,1-1.18.54Zm.83,3.7h.07a1.47,1.47,0,0,1,.36,0h.34a1.56,1.56,0,0,1,1.56,1.56v8.45a1.56,1.56,0,0,1-1.56,1.57H66.28a1.56,1.56,0,0,1-1.56-1.57v-8.45a1.56,1.56,0,0,1,1.56-1.56H89.72a1.1,1.1,0,0,1,.31,0Zm-33.61-3.7h-23a1.55,1.55,0,0,1-1.18-.54c-.89-.88-1.83-1.79-2.79-2.71l-.08-.08L26.57,100h0c-2.16-2-4.36-4.12-6.64-6.4S15.36,89,13,86.26A35.42,35.42,0,0,1,7.68,78.8a38.23,38.23,0,0,1-2.45-7.33l-.48-1.8c-.12-.45-.3-1.1-.6-2.13L1.39,57.83a26.07,26.07,0,0,1-1.3-5.45A9.47,9.47,0,0,1,.45,48a4.27,4.27,0,0,1,.5-1L1,47a2.79,2.79,0,0,1,.75-.71l.08-.05a2.66,2.66,0,0,1,.81-.31,2.84,2.84,0,0,1,.92,0,4.28,4.28,0,0,1,1.77.6,6.35,6.35,0,0,1,1.48,1.22,1.29,1.29,0,0,1,.29.45c1.61,3.83,6.51,17,8.24,19.58a1.43,1.43,0,0,1,.14.2A8.24,8.24,0,0,0,16.25,69a8.92,8.92,0,0,0,.94,1l16.28,15.5a.69.69,0,0,1,.11.13.58.58,0,0,0,.37.15.6.6,0,0,0,.42-.14.58.58,0,0,0,.19-.4.56.56,0,0,0-.15-.42C29.84,79.67,24.26,72.1,19.53,67.52A8.45,8.45,0,0,1,18.25,66a6.54,6.54,0,0,1-.79-1.78,4.11,4.11,0,0,1,.12-2.69,3.7,3.7,0,0,1,1.12-1.46,4.29,4.29,0,0,1,1.53-.75,5.28,5.28,0,0,1,3.34.25,9.49,9.49,0,0,1,2.22,1.34,15.09,15.09,0,0,1,2,2c1.56,1.74,3.75,3.66,5.46,5.33,1.18,1.12,2.52,2.54,4,4.06,3.35,3.55,7.26,7.68,10.38,9.39a8.77,8.77,0,0,1,.91.55c.27.17.55.38.86.61h0c.26.19.54.42.85.67h0c.07,0,.78.66.79.65a23.05,23.05,0,0,1,3.17,3.18,12.43,12.43,0,0,1,1.86,3.18,17.65,17.65,0,0,1,1,3.65c.23,1.3.4,2.75.59,4.42.07.57.14,1.25.21,2s.12,1.42.16,2l.06,1,.05,1a1.55,1.55,0,0,1-1.49,1.62h-.07Z"/></svg>