<?xml version="1.0" encoding="utf-8"?>

<svg version="1.1" id="Icons" xmlns="http://www.w3.org/2000/svg" xmlns:xlink="http://www.w3.org/1999/xlink" x="0px" y="0px"
	 viewBox="0 0 32 32" style="enable-background:new 0 0 32 32;" xml:space="preserve">
<style type="text/css">
	.st0{fill:none;stroke:#000000;stroke-width:2;stroke-linecap:round;stroke-linejoin:round;stroke-miterlimit:10;}
	
		.st1{fill:none;stroke:#000000;stroke-width:2;stroke-linecap:round;stroke-linejoin:round;stroke-miterlimit:10;stroke-dasharray:3;}
	.st2{fill:none;stroke:#000000;stroke-width:2;stroke-linejoin:round;stroke-miterlimit:10;}
	.st3{fill:none;}
</style>
<path class="st0" d="M25.9,15c-0.1-1.5-0.6-2.9-1.3-4.2c-0.9-1.7-0.6-3.9,0.8-5.3c-1.7-1.7-4.3-1.7-6,0c-0.1,0.1-0.2,0.2-0.3,0.3
	C18,5.3,16.6,5,15.1,5l3.8,7.4c0.1,0.3-0.1,0.6-0.3,0.6h-2.8c-0.3,0-0.5,0.3-0.3,0.6l3.2,6.9c0.2,0.4-0.2,0.7-0.6,0.5L8,13h2.5
	c0.3,0,0.5-0.3,0.3-0.6l-2.6-5C7.4,8.1,6.6,8.8,6,9.6c-1.3,1.8-2,4-2,6.4c0,2,0.6,4,1.5,5.6L10,29h4l-0.3-2.1C14.1,27,14.5,27,15,27
	c0.8,0,1.6,0,2.3-0.1L17,29h4l2.2-3.3c2.4-0.9,4.5-2.1,5.8-3.6V15H25.9z"/>
<path class="st0" d="M5.9,22.4c-0.2,0.6-0.8,1.1-1.4,1.1C3.7,23.5,3,22.8,3,22"/>
<rect y="-288" class="st3" width="536" height="680"/>
</svg>
