<?xml version="1.0" encoding="iso-8859-1"?>
<!-- Generator: Adobe Illustrator 19.0.0, SVG Export Plug-In . SVG Version: 6.00 Build 0)  -->
<svg version="1.1" id="Layer_1" xmlns="http://www.w3.org/2000/svg" xmlns:xlink="http://www.w3.org/1999/xlink" x="0px" y="0px"
	 viewBox="0 0 500 500" style="enable-background:new 0 0 500 500;" xml:space="preserve">
<g>
	<g>
		<path d="M314.996,214.852h-33.72V181c0-7.224-6.276-13.028-13.504-13.028h-36.088c-7.22,0-12.908,5.804-12.908,13.028v33.852
			h-34.108c-7.228,0-12.768,5.768-12.768,12.992v36.488c0,7.224,5.544,13.02,12.768,13.02h34.108v33.564
			c0,7.228,5.688,13.316,12.908,13.316h36.088c7.228,0,13.504-6.088,13.504-13.316v-33.564h33.72c7.228,0,13.16-5.796,13.16-13.02
			v-36.488C328.156,220.62,322.224,214.852,314.996,214.852z"/>
	</g>
</g>
<g>
	<g>
		<path d="M334.444,0H165.512C136.792,0,113.3,23.38,113.3,52.092v395.832c0,28.712,23.432,52.076,52.148,52.076l168.968-0.184
			c28.72,0,52.096-23.364,52.096-52.08L386.7,52.084C386.704,23.268,363.276,0,334.444,0z M225.576,31.252h49.004
			c4.312,0,7.812,3.5,7.812,7.812c0,4.316-3.5,7.812-7.812,7.812h-49.004c-4.32,0-7.812-3.496-7.812-7.812
			C217.764,34.752,221.256,31.252,225.576,31.252z M196.12,33.704c2.896-2.896,8.164-2.928,11.056,0
			c1.452,1.444,2.304,3.476,2.304,5.548c0,2.032-0.852,4.064-2.304,5.508c-1.436,1.444-3.476,2.304-5.508,2.304
			c-2.068,0-4.056-0.86-5.548-2.304c-1.436-1.444-2.264-3.476-2.264-5.508C193.856,37.18,194.684,35.148,196.12,33.704z
			 M248.5,484.512c-12.896,0-23.38-10.492-23.38-23.384c0-12.892,10.484-23.384,23.38-23.384c12.888,0,23.38,10.492,23.38,23.384
			C271.88,474.02,261.388,484.512,248.5,484.512z M363.312,421.892H140.648V74.22h222.664V421.892z"/>
	</g>
</g>
<g>
</g>
<g>
</g>
<g>
</g>
<g>
</g>
<g>
</g>
<g>
</g>
<g>
</g>
<g>
</g>
<g>
</g>
<g>
</g>
<g>
</g>
<g>
</g>
<g>
</g>
<g>
</g>
<g>
</g>
</svg>
