<svg xmlns="http://www.w3.org/2000/svg" viewBox="0 0 448.92 391.98"><title>ux</title><g id="7e8079e3-e1b9-4304-8005-cbec38a80236" data-name="Layer 2"><g id="4ca48776-1ec9-4c03-b3fa-43136c093000" data-name="OBJECTS"><path d="M276.17,145c88.94-31.32,180.36,12.08,125.17,109.22-53.69,94.49,25.36,119.53,25.36,119.53L103.35,372c-65.81-23.81-121.8-127.34-60.21-159.9,0,0,39.19-7.54,42.7-34.89s-12.07-49.77,13.07-67,67.41-12.46,106.58,21C235.67,157.06,276.17,145,276.17,145Z" style="fill:#ccf"/><ellipse cx="227.13" cy="377.98" rx="221.25" ry="14" style="fill:#ccf"/><path d="M430,101.63a5.47,5.47,0,1,1-5.47,5.47A5.47,5.47,0,0,1,430,101.63Zm0,1.71a3.75,3.75,0,1,0,3.75,3.75A3.76,3.76,0,0,0,430,103.35Z" style="fill:#8380f9"/><path d="M424.41,73.85a5.47,5.47,0,1,1-5.47,5.47A5.47,5.47,0,0,1,424.41,73.85Zm0,1.71a3.75,3.75,0,1,0,3.75,3.75A3.76,3.76,0,0,0,424.41,75.56Z" style="fill:#5446cf"/><path d="M407.79,66.15a.86.86,0,0,0,.86.86h3.78a.86.86,0,0,0,0-1.71h-3.78A.86.86,0,0,0,407.79,66.15Z" style="fill:#6c5ef1"/><path d="M401.17,66.15A.86.86,0,0,0,402,67h3.78a.86.86,0,0,0,0-1.71H402A.86.86,0,0,0,401.17,66.15Z" style="fill:#6c5ef1"/><path d="M406.37,60.84v3.4a.86.86,0,1,0,1.71,0v-3.4a.86.86,0,0,0-1.71,0Z" style="fill:#6c5ef1"/><path d="M406.37,68.06v3.4a.86.86,0,0,0,1.71,0v-3.4a.86.86,0,1,0-1.71,0Z" style="fill:#6c5ef1"/><path d="M414,95.35a.86.86,0,0,0,.86.86h3.78a.86.86,0,0,0,0-1.71h-3.78A.86.86,0,0,0,414,95.35Z" style="fill:#5446cf"/><path d="M407.34,95.35a.86.86,0,0,0,.86.86H412a.86.86,0,1,0,0-1.71h-3.78A.86.86,0,0,0,407.34,95.35Z" style="fill:#5446cf"/><path d="M412.53,90v3.4a.86.86,0,1,0,1.71,0V90a.86.86,0,1,0-1.71,0Z" style="fill:#5446cf"/><path d="M412.53,97.26v3.4a.86.86,0,1,0,1.71,0v-3.4a.86.86,0,1,0-1.71,0Z" style="fill:#5446cf"/><path d="M46.28,95.15a5.47,5.47,0,1,1-5.47-5.47A5.47,5.47,0,0,1,46.28,95.15Zm-1.71,0a3.75,3.75,0,1,0-3.75,3.75A3.76,3.76,0,0,0,44.57,95.15Z" style="fill:#6c5ef1"/><path d="M69.65,61a5.47,5.47,0,1,1-6.6-4A5.47,5.47,0,0,1,69.65,61Zm-1.67.4a3.75,3.75,0,1,0-2.76,4.53A3.76,3.76,0,0,0,68,61.38Z" style="fill:#8380f9"/><path d="M63.47,88.1a.86.86,0,0,0-.86.86v3.78a.86.86,0,1,0,1.71,0V89A.86.86,0,0,0,63.47,88.1Z" style="fill:#5446cf"/><path d="M63.47,81.48a.86.86,0,0,0-.86.86v3.78a.86.86,0,1,0,1.71,0V82.34A.86.86,0,0,0,63.47,81.48Z" style="fill:#5446cf"/><path d="M68.77,86.68h-3.4a.86.86,0,1,0,0,1.71h3.4a.86.86,0,0,0,0-1.71Z" style="fill:#5446cf"/><path d="M61.56,86.68h-3.4a.86.86,0,0,0,0,1.71h3.4a.86.86,0,1,0,0-1.71Z" style="fill:#5446cf"/><path d="M44.43,75.1a.86.86,0,0,0-.86.86v3.78a.86.86,0,0,0,1.71,0V76A.86.86,0,0,0,44.43,75.1Z" style="fill:#5446cf"/><path d="M44.43,68.49a.86.86,0,0,0-.86.86v3.78a.86.86,0,1,0,1.71,0V69.34A.86.86,0,0,0,44.43,68.49Z" style="fill:#5446cf"/><path d="M49.73,73.68h-3.4a.86.86,0,1,0,0,1.71h3.4a.86.86,0,1,0,0-1.71Z" style="fill:#5446cf"/><path d="M42.52,73.68h-3.4a.86.86,0,0,0,0,1.71h3.4a.86.86,0,1,0,0-1.71Z" style="fill:#5446cf"/><rect x="214.56" y="289.71" width="46.24" height="88.55" style="fill:#2a3554"/><path d="M180,357.86H295.48a18.74,18.74,0,0,1,18.74,18.74v2.8a0,0,0,0,1,0,0H161.31a0,0,0,0,1,0,0v-2.8A18.74,18.74,0,0,1,180,357.86Z" style="fill:#2a3554"/><polygon points="260.8 292.42 214.56 301.23 214.56 289.71 260.8 289.71 260.8 292.42" style="fill:#161631"/><rect x="80.74" y="81.35" width="310.13" height="208.36" rx="5.95" ry="5.95" style="fill:#2a3554"/><path d="M382.65,95.72V275.34a6,6,0,0,1-6,6H95a5.78,5.78,0,0,1-2.1-.38A6,6,0,0,1,89,275.34V95.72a6,6,0,0,1,6-6H376.6a6,6,0,0,1,6,6Z" style="fill:#fff"/><path d="M382.65,95.72v8.94H89V95.72a6,6,0,0,1,6-6h281.6A6,6,0,0,1,382.65,95.72Z" style="fill:#e3e3ff"/><path d="M128.78,97.29h0a2,2,0,0,0,2,2H329.12a2,2,0,0,0,2-2h0a2,2,0,0,0-2-2H130.76A2,2,0,0,0,128.78,97.29Z" style="fill:#fff"/><path d="M106.16,97.29v1.47a.55.55,0,0,1-.82.47l-1.27-.73-1.27-.73a.55.55,0,0,1,0-.95l1.27-.73,1.27-.73a.55.55,0,0,1,.82.47Z" style="fill:#2a3554"/><path d="M112.78,97.29v1.47a.55.55,0,0,0,.82.47l1.27-.73,1.27-.73a.55.55,0,0,0,0-.95l-1.27-.73-1.27-.73a.55.55,0,0,0-.82.47Z" style="fill:#2a3554"/><circle cx="356.67" cy="97.17" r="2.93" style="fill:#5446cf"/><circle cx="345.82" cy="97.17" r="2.93" style="fill:#6c5ef1"/><circle cx="367.53" cy="97.17" r="2.93" style="fill:#8380f9"/><rect x="102.11" y="124.35" width="24.98" height="113.17" style="fill:#e3e3ff"/><rect x="102.11" y="124.35" width="24.98" height="7.51" style="fill:#2a3554"/><rect x="347.12" y="181.85" width="24.98" height="55.68" style="fill:#e3e3ff"/><rect x="347.12" y="181.85" width="24.98" height="7.99" style="fill:#2a3554"/><rect x="347.69" y="124.74" width="24.98" height="32.45" style="fill:#e3e3ff"/><rect x="347.69" y="124.74" width="24.98" height="7.99" style="fill:#2a3554"/><rect x="138.38" y="124.75" width="198.76" height="112.78" style="fill:#e3e3ff"/><rect x="227.89" y="156.17" width="61.42" height="61.42" style="fill:#6c5ef1"/><circle cx="207.32" cy="177.49" r="30.65" style="fill:#8380f9"/><polygon points="219.71 227.84 184.27 227.84 201.99 197.14 219.71 166.45 237.43 197.14 255.15 227.84 219.71 227.84" style="fill:#5446cf"/><rect x="138.38" y="124.75" width="198.76" height="9.68" style="fill:#2a3554"/><path d="M168.65,230.5a.47.47,0,0,1-.47-.47V141a.47.47,0,0,1,.95,0V230A.47.47,0,0,1,168.65,230.5Z" style="fill:#2a3554"/><circle cx="168.63" cy="141.19" r="1.44" style="fill:#2a3554"/><circle cx="168.63" cy="230.02" r="1.44" style="fill:#2a3554"/><path d="M306.57,230.5a.47.47,0,0,1-.47-.47V141a.47.47,0,0,1,.95,0V230A.47.47,0,0,1,306.57,230.5Z" style="fill:#2a3554"/><circle cx="306.54" cy="141.19" r="1.44" style="fill:#2a3554"/><circle cx="306.54" cy="230.02" r="1.44" style="fill:#2a3554"/><path d="M14.24,343.61l-5.8,7.45A12,12,0,0,0,13.8,357l6.93-8.58Z" style="fill:#f5ab86"/><path d="M12.84,354.65s2.71-.56,3.64.34,3.26,13.17,5.44,15.85,0,4.11-1.36,4.65S0,357.58,0,357.58s4.75-6.31,7-7.53S10.41,353.35,12.84,354.65Z" style="fill:#8380f9"/><path d="M13.28,361.44a.47.47,0,0,1-.26-.27.46.46,0,0,1,.29-.6,7.73,7.73,0,0,1,3.62-.36,3.27,3.27,0,0,1,2.51,2.25.46.46,0,0,1-.36.56.48.48,0,0,1-.58-.35,2.34,2.34,0,0,0-1.8-1.55,6.84,6.84,0,0,0-3.06.33A.5.5,0,0,1,13.28,361.44Z" style="fill:#fff"/><path d="M13.06,359.54a.47.47,0,0,1-.26-.27.46.46,0,0,1,.29-.6,7.73,7.73,0,0,1,3.62-.36,3.26,3.26,0,0,1,2.51,2.25.46.46,0,0,1-.36.56.48.48,0,0,1-.58-.35,2.34,2.34,0,0,0-1.8-1.55,6.81,6.81,0,0,0-3.06.33A.5.5,0,0,1,13.06,359.54Z" style="fill:#fff"/><path d="M14.06,363.47a.47.47,0,0,1-.26-.27.46.46,0,0,1,.29-.6,7.74,7.74,0,0,1,3.62-.36,3.27,3.27,0,0,1,2.51,2.25.47.47,0,0,1-.36.56.49.49,0,0,1-.58-.35,2.34,2.34,0,0,0-1.8-1.55,6.8,6.8,0,0,0-3.06.33A.5.5,0,0,1,14.06,363.47Z" style="fill:#fff"/><path d="M50.88,242.38l-5.23,49.7a123.09,123.09,0,0,0-11.87,17.3c-4.2,7.65-22.09,35-22.09,35l8.56,7,44.65-50.11,9.88-59.41Z" style="fill:#161642"/><path d="M59,357.91l.88,9.64a12.38,12.38,0,0,0,8.08,1l-.82-11.27Z" style="fill:#f5ab86"/><path d="M66.25,367.18s1.7-2.35,3.07-2.27,12.09,8.35,15.73,9,3,3.33,2.33,4.7-28.82.59-28.82.59-1-9.09-.15-11.68S63.42,367.83,66.25,367.18Z" style="fill:#8380f9"/><path d="M71.73,372.13a.48.48,0,0,1-.6-.67,7.46,7.46,0,0,1,2.35-2.78,3.34,3.34,0,0,1,3.43-.05.48.48,0,1,1-.53.81,2.38,2.38,0,0,0-2.41.08,6.59,6.59,0,0,0-2,2.37A.48.48,0,0,1,71.73,372.13Z" style="fill:#fff"/><path d="M70.2,370.86a.48.48,0,0,1-.6-.67A7.46,7.46,0,0,1,72,367.41a3.34,3.34,0,0,1,3.43-.05.48.48,0,1,1-.53.81,2.38,2.38,0,0,0-2.41.08,6.56,6.56,0,0,0-2,2.37A.48.48,0,0,1,70.2,370.86Z" style="fill:#fff"/><path d="M73.75,373.11a.48.48,0,0,1-.6-.67,7.46,7.46,0,0,1,2.35-2.78,3.34,3.34,0,0,1,3.43-.05.48.48,0,0,1-.53.81,2.38,2.38,0,0,0-2.41.08,6.56,6.56,0,0,0-2,2.37A.48.48,0,0,1,73.75,373.11Z" style="fill:#fff"/><path d="M23.69,243.82s10.44,37.13,24,57.16c0,0,2,19.49,5.49,29.87,1.52,4.54,5.37,31.59,5.37,31.59l1.67-.24,1-.15L68.64,361,65.31,296.6,49,245.76l-21.07-1.62-1.12-.08Z" style="fill:#2a3554"/><path d="M26.8,244.06l23.1,57c0,.07,3.45,15.53,5.39,26.4,1.74,9.67,4.27,26.51,4.95,34.79l1-.15c-.69-8.36-3.17-24.92-4.95-34.82-1.95-10.88-5.4-26.36-5.43-26.52L27.92,244.14Z" style="fill:#161642"/><path d="M73.27,190.57c2.95,11.23,11.4,19.49,11.4,19.49,4.87,2.5,17.9,7.75,22.51,7a37.42,37.42,0,0,1,.83-9.15c-6.25-.44-17.26-7.73-17.26-7.73C81.42,181.59,80.53,161,80.53,161,73.8,167.61,73.27,190.57,73.27,190.57Z" style="fill:#6c5ef1"/><path d="M23.84,230.63c0,.36-.06.71-.1,1.06-.57,6.35-1,11.27-1.18,13.69a102,102,0,0,0,18.11,4.91l.83.14.44.07,1,.15,1.09.16a98.2,98.2,0,0,0,12.55.92c.85,0,1.7,0,2.55,0h.16l.65,0h.39a103.27,103.27,0,0,0,14.83-1.51c.11-1.1.27-2.72.45-4.77,0-.38.07-.77.11-1.18h0c.26-2.93.58-6.59.92-10.72l.09-1.07c.23-2.75.47-5.7.71-8.77,0-.36.06-.71.08-1.07.25-3.15.5-6.43.75-9.75.15-2,.3-4.08.45-6.13s.29-4.16.43-6.23c0-.45.06-.9.09-1.35,1.3-19.56,2.12-37.57.94-39.69-.82-1.47-2.83-3.29-5.22-5.17l-.89-.69c-1-.78-9.59-4.59-10.65-5.35l-9.29-1.51c-.06,0-9.27,2.23-9.33,2.25l-1.22.56a53.2,53.2,0,0,0-9,4.88,9.19,9.19,0,0,0-.8.67,5.26,5.26,0,0,0-.49.52,3,3,0,0,0-.4.79c-1.51,4-3.57,20.1-5.47,37.64q-.2,1.89-.4,3.79l-.18,1.67c0,.38-.08.77-.12,1.15l-.06.58q-.15,1.43-.29,2.85l-.22,2.1C25.28,215,24.47,223.62,23.84,230.63Z" style="fill:#8380f9"/><path d="M46.25,199.39A42.69,42.69,0,0,0,66,210.12a.57.57,0,0,0,.7-.51h0a.57.57,0,0,0-.43-.59A41.57,41.57,0,0,1,47,198.56a.56.56,0,0,0-.95.34h0A.57.57,0,0,0,46.25,199.39Z" style="fill:#6c5ef1"/><path d="M46.15,190.78v0a.52.52,0,0,0,.08.26c.31.5.66,1,1.07,1.54a22.73,22.73,0,0,0,13.33,8.31h.14a.52.52,0,0,0,.1-1,21.4,21.4,0,0,1-13.75-9.43A.52.52,0,0,0,46.15,190.78Z" style="fill:#6c5ef1"/><path d="M46.2,167.21h0a.52.52,0,0,0,.63.45,36.9,36.9,0,0,0,14.3-7,35.36,35.36,0,0,0,6.8-6.92.52.52,0,0,0-.86-.59A37.36,37.36,0,0,1,46.6,166.66.51.51,0,0,0,46.2,167.21Z" style="fill:#6c5ef1"/><path d="M73.15,122.94s5.39-1.35,5.24-5.46c-.13-3.5-2.56-1.73-2-4.4s-.49-5.46-3.67-4.76c-2.1.46-4.28,1.34-7.87-.39-5.2-2.51-6.71,1.09-10.73,1-5.93-.17-7.67,3.3-7.84,6.07S48,121.32,48,121.32Z" style="fill:#2a3554"/><path d="M71.73,128.79s2.46-2.72,3.87-.16-1.55,9.5-5.38,7.39Z" style="fill:#f88265"/><path d="M71.3,133.9a.34.34,0,0,0,.35-.22,5.24,5.24,0,0,1,3.21-2.84.34.34,0,0,0-.18-.65A5.84,5.84,0,0,0,71,133.44a.34.34,0,0,0,.2.44Z" style="fill:#f8664d"/><path d="M73.7,133a.34.34,0,0,0,.33-.49,3.09,3.09,0,0,0-1.17-1.14.34.34,0,1,0-.33.59,2.45,2.45,0,0,1,.9.86A.34.34,0,0,0,73.7,133Z" style="fill:#f8664d"/><path d="M49.13,126.73s-1.93-3.12-3.78-.85-.2,9.62,4,8.24Z" style="fill:#f88265"/><path d="M48.64,131.83a.34.34,0,0,1-.3-.28,5.24,5.24,0,0,0-2.64-3.37.34.34,0,0,1,.3-.61,5.84,5.84,0,0,1,3,3.86.34.34,0,0,1-.27.39Z" style="fill:#f8664d"/><path d="M46.44,130.51a.34.34,0,0,1-.24-.55,3.09,3.09,0,0,1,1.36-.91.34.34,0,0,1,.22.64,2.45,2.45,0,0,0-1,.68A.34.34,0,0,1,46.44,130.51Z" style="fill:#f8664d"/><path d="M53.82,140.64l-.65,7.1s1.79,3.81,4.63,4.32,5.69-2.62,5.69-2.62l.67-7.35Z" style="fill:#f5ab86"/><path d="M53.82,140.64l-.29,3.15c1.73,2.31,5.09,3.15,10.21,2.87l.42-4.57Z" style="fill:#f88265"/><path d="M48,121.72a68.82,68.82,0,0,0,.1,9.05h0a.12.12,0,0,0,0,0h0c.07.69.16,1.33.26,1.92.06.34.14.7.22,1.07,1.2,5.44,4.4,13.43,14.53,10.83,4.26-1.09,6.8-5.16,8.32-9.69.09-.27.17-.54.25-.8l.15-.5.07-.24,0-.09v0a50.87,50.87,0,0,0,1.58-9.66A7.45,7.45,0,0,0,70.32,117c-5.86-4.07-12.49-3.35-16.94-2.1A7.41,7.41,0,0,0,48,121.72Z" style="fill:#f5ab86"/><ellipse cx="55.67" cy="127.6" rx="1.38" ry="0.88" transform="translate(-76.45 171.45) rotate(-84.79)" style="fill:#2a3554"/><ellipse cx="66.27" cy="128.56" rx="1.38" ry="0.88" transform="translate(-67.78 182.88) rotate(-84.79)" style="fill:#2a3554"/><path d="M52.38,123s3.59-1.51,6.4-.36l-.25,1.56s-4.1-.26-6.14.62A2.69,2.69,0,0,1,52.38,123Z" style="fill:#2a3554"/><path d="M69.64,124.4s-3.39-2-6.35-1.2l0,1.59s4.13.28,6.05,1.42A2.71,2.71,0,0,0,69.64,124.4Z" style="fill:#2a3554"/><path d="M59.79,134.16a3.61,3.61,0,0,1-1.2-.37.34.34,0,0,1,.31-.6,2,2,0,0,0,1.34.25.37.37,0,0,0,.19-.3,51.31,51.31,0,0,0,.27-5.19.34.34,0,1,1,.68,0,50.15,50.15,0,0,1-.28,5.31,1,1,0,0,1-.57.78A1.43,1.43,0,0,1,59.79,134.16Z" style="fill:#f88265"/><path d="M63.8,137.12c-.37,1.27-1.44,3.56-4.31,3.3s-3.48-2.5-3.62-4Z" style="fill:#fff"/><path d="M48,121.72a69.46,69.46,0,0,0,.1,9.06l1.52,0s-.15-2.36-.18-3.9-.06-4.4,1.27-4.63.86-3.54,2.79-4.78,6-1.26,8.49.61,5.65.39,6.85.79,2.71,2.23,2.11,3.76.67,2.61.85,4.27-1.27,6-1.27,6l1.41.42a50.83,50.83,0,0,0,1.58-9.65A7.44,7.44,0,0,0,70.33,117c-5.86-4.07-12.5-3.35-16.94-2.1A7.42,7.42,0,0,0,48,121.72Z" style="fill:#2a3554"/><path d="M62.59,129a4.09,4.09,0,1,1,3.7,4.45A4.1,4.1,0,0,1,62.59,129Zm.64.06A3.46,3.46,0,1,0,67,125.93,3.46,3.46,0,0,0,63.22,129.05Z" style="fill:#fff"/><path d="M51.44,128a4.09,4.09,0,1,1,3.7,4.45A4.1,4.1,0,0,1,51.44,128Zm.64.06a3.45,3.45,0,1,0,3.75-3.13A3.46,3.46,0,0,0,52.08,128Z" style="fill:#fff"/><path d="M73.16,126.59a.49.49,0,0,1-.15.66,5.43,5.43,0,0,0-2.61,1,.32.32,0,0,1-.41-.49A5.92,5.92,0,0,1,73.16,126.59Z" style="fill:#fff"/><path d="M52.46,126.6a.32.32,0,0,1-.28.12.32.32,0,0,1-.17-.07,9.93,9.93,0,0,0-4.13-1.88.43.43,0,0,1,0-.64,10.26,10.26,0,0,1,4.53,2A.32.32,0,0,1,52.46,126.6Z" style="fill:#fff"/><path d="M59.46,127.79a2.58,2.58,0,0,1,1.85-.87,2.35,2.35,0,0,1,1.58,1.18l.56-.3a3,3,0,0,0-2.08-1.52A3.18,3.18,0,0,0,59,127.37Z" style="fill:#fff"/><path d="M40.13,245.15l-1.77-3.63a5.94,5.94,0,0,1,2.74-7.95l102.6-49.92,7,14.32L48.08,247.9A6,6,0,0,1,40.13,245.15Z" style="fill:#5446cf"/><rect x="149.92" y="173.73" width="15.92" height="23.77" transform="translate(255.72 -37.56) rotate(64.06)" style="fill:#8380f9"/><path d="M193.1,183.56a31.4,31.4,0,0,1-21,4l-7-14.32s5.46-9.55,14.18-11.63a25,25,0,0,1,5.06-.72h0c11.84-.34,10.07,10.91,28-1.77C212.32,159.13,206.71,175.5,193.1,183.56Z" style="fill:#fff"/><path d="M193.1,183.56c-6-.92-5.64-11.16-4.58-15.2,1.27-4.83-4-7.35-4.18-7.45,11.84-.34,10.07,10.91,28-1.77C212.32,159.13,206.71,175.5,193.1,183.56Z" style="fill:#5446cf"/><path d="M58.56,227.23l1.48.68a3.55,3.55,0,0,0,3.82-.62,21.09,21.09,0,0,1,1.69-1.41c1.11-.6,3.71-1.29,4.44-1s0,1.53-.77,1.88a13.06,13.06,0,0,0-2.68,1.34c-.8.62,2.33,4.05,3.72,5.16s4.55,1.53,4.22,3-2.49.67-2.49.67.07,1.46-2.1,1.64a1.75,1.75,0,0,1-1.62,1.4,2,2,0,0,1-2,1.31c-1.47-.21-6-.89-11.75-9.32Z" style="fill:#f5ab86"/><path d="M59,226.42S38,209.18,31.29,200.1c0,0,1.21-10.81,2.54-19.46a79.31,79.31,0,0,0,.8-16.94,30.21,30.21,0,0,0-1.31-8.09s-6.1,1.79-10.09,22.1a210,210,0,0,0-3.39,24.41,9.25,9.25,0,0,0,2,6.41c4.45,5.66,15.62,18,32,23.88C53.77,232.41,58.13,229,59,226.42Z" style="fill:#6c5ef1"/><path d="M121.1,210.5s-3.22-2.61-5.17-2.51,1.85,4.31,1.85,4.31-4.61-5-6-4.18,2.93,5.9,2.93,5.9-3.65-2.94-4.8-2.38,1.87,4.37,1.87,4.37-3.13-2-4-1.71,1.25,3.84,2.94,5.17,3-1.27,3-1.27,2.38-1,2.53-2.14c0,0,2.33-.6,2.92-1.85C119.06,214.21,122.54,212.82,121.1,210.5Z" style="fill:#f5ab86"/><rect x="398.77" y="215.64" width="19.27" height="154.6" transform="translate(-27.95 43.53) rotate(-5.9)" style="fill:#6c5ef1"/><rect x="402.11" y="216.23" width="1.28" height="154.6" transform="translate(-28.04 42.95) rotate(-5.9)" style="fill:#5446cf"/><rect x="407.76" y="215.64" width="1.28" height="154.6" transform="translate(-27.95 43.53) rotate(-5.9)" style="fill:#5446cf"/><rect x="413.4" y="215.06" width="1.28" height="154.6" transform="translate(-27.86 44.11) rotate(-5.9)" style="fill:#5446cf"/><rect x="406.3" y="361.77" width="19.27" height="8.08" transform="translate(-35.39 44.68) rotate(-5.9)" style="fill:#2a3554"/><path d="M406.76,370.82l.24,2.29a9.64,9.64,0,0,0,10.58,8.59h0a9.64,9.64,0,0,0,8.59-10.58l-.24-2.29Z" style="fill:#8380f9"/><polygon points="410.04 215.06 390.87 217.04 395.24 203.58 396.14 200.78 398.71 192.88 402.57 200.44 404.08 203.39 410.04 215.06" style="fill:#f5ab86"/><path d="M402.57,200.44a10,10,0,0,1-3,.76,7,7,0,0,1-3.43-.42l2.57-7.91Z" style="fill:#2a3554"/><path d="M278.76,45.21s-5.55,25.05-12.64,33.18H276.5s7.53-5.69,7.8-14.5S278.76,45.21,278.76,45.21Z" style="fill:#6c5ef1"/><path d="M306.46,36.92q-10.24,3.61-20.54,7a7.06,7.06,0,0,1-8.73-4l0-.05c-2.29-5.44-7-11.63-8-14.43v0c-.2-.45-.39-.91-.56-1.37-2.46-6.71-2.7-20.48,12.59-23.74,0,0,12.6-2.94,18.21,8.4,0,0,2.52,5.25,4.32,9.07,2,4.35,3.6,5.77,5,6.83a7,7,0,0,1-2,12.2Z" style="fill:#2a3554"/><path d="M280.61,54c-.41,3.54-1.53,7.13,0,12.77a23.23,23.23,0,0,0,2.61,5.67,4.51,4.51,0,0,0,.24.42l.09.75c.9,6.29.67,3,.57,8.13h32.53l-.76-40.9-10.27-.91h0l-1.77-.16h-.1l-2.77-.25-.73-.06a26,26,0,0,0-10.95,1.7l-.12,0-1.54.6-.09,0-1.51.58-7.23,2.79C279.13,46.84,280.28,52.38,280.61,54Z" style="fill:#8380f9"/><path d="M283.42,72.87c0,.25.06.5.09.75,1.78.38,7.38,1.17,16.89-1.11q1.85-.44,3.9-1a.53.53,0,1,0-.3-1c-13.72,4.08-20.73,2-20.8,2h0Z" style="fill:#6c5ef1"/><path d="M274.43,24.5s-3-1.9-3.8.84,3.73,8.4,7,5.47Z" style="fill:#f88265"/><circle cx="275.03" cy="31.22" r="0.74" transform="translate(5.52 94.31) rotate(-19.65)" style="fill:#fff"/><path d="M276,29.11a.34.34,0,0,1-.39-.11,5.15,5.15,0,0,0-3.78-1.81.32.32,0,0,1-.33-.33.35.35,0,0,1,.35-.32,5.74,5.74,0,0,1,4.32,2.08.32.32,0,0,1-.09.45Z" style="fill:#f8664d"/><path d="M273.49,28.89a.35.35,0,0,1-.19,0,.31.31,0,0,1-.25-.39,3.07,3.07,0,0,1,.87-1.35.35.35,0,0,1,.48,0,.32.32,0,0,1,0,.46,2.44,2.44,0,0,0-.68,1A.35.35,0,0,1,273.49,28.89Z" style="fill:#f8664d"/><path d="M295.31,32.25l2.83,7.91s-2.66,4.15-5.44,5.42-5-1.75-5-1.75l-2.63-7.36Z" style="fill:#f5ab86"/><path d="M295.59,33l1.13,3.16C295.56,39,292.41,41,287.08,42l-1.72-4.8Z" style="fill:#f88265"/><path d="M274.25,28c.36.73.75,1.47,1.16,2.2,2.75,4.82,8,9.22,12.43,8.68,9.59-1.16,10.79-9.44,10.37-15.09,0-.63-.58-1.18-.69-1.9a54.89,54.89,0,0,0-.78-5.61c-.34-1.28-.71-2.53-1.05-3.66a7.72,7.72,0,0,0-7-5.52c-4.66-.17-11.31.76-15.95,6.3a7.79,7.79,0,0,0-1.36,7.48A58.36,58.36,0,0,0,274.25,28Z" style="fill:#f5ab86"/><path d="M286.5,28.06a.37.37,0,0,0-.19-.7l-1.25.22.08-4.93a.37.37,0,1,0-.73,0l-.09,5.81,2.13-.38Z" style="fill:#f88265"/><path d="M274.57,18.06c-2.9,2.82-.33,6.55-.76,9,0,.16-.1.21-.21.17a57.55,57.55,0,0,1-3-7.25,7.89,7.89,0,0,1,1.51-7.67c4.93-5.72,11.93-6.74,16.82-6.62a7.86,7.86,0,0,1,7.33,5.57c.35,1.15.72,2.43,1.07,3.73-.45.55-1.8,1.21-1.53,2.15.72,2.5,1.2,4.22.63,4.26-1,.06-2.54-2.71-2.24-5,0,0-1.25-1-4.93-1.1a66.29,66.29,0,0,1-9.55-1.06,7.93,7.93,0,0,1-2.89-1.2A7.81,7.81,0,0,1,274.57,18.06Z" style="fill:#2a3554"/><ellipse cx="279.53" cy="24.07" rx="0.93" ry="1.46" transform="translate(8.19 95.44) rotate(-19.66)" style="fill:#2a3554"/><ellipse cx="288.98" cy="20.7" rx="0.93" ry="1.46" transform="translate(9.87 98.4) rotate(-19.65)" style="fill:#2a3554"/><path d="M275.89,21.31a17.82,17.82,0,0,1,3.53-1.61.66.66,0,0,1,.89.39h0a.59.59,0,0,1-.49.63,20.29,20.29,0,0,0-4.87,2.09.69.69,0,0,1,.07-.64A2.24,2.24,0,0,1,275.89,21.31Z" style="fill:#2a3554"/><path d="M290,16.45a17.83,17.83,0,0,0-3.76.94.66.66,0,0,0-.45.86h0a.59.59,0,0,0,.77.18,20.29,20.29,0,0,1,5.12-1.4c0-.19-.22-.35-.45-.46A2.24,2.24,0,0,0,290,16.45Z" style="fill:#2a3554"/><path d="M283.41,31.48a4.16,4.16,0,0,0,5.19,2c2.87-1,2.95-3.34,2.72-4.84Z" style="fill:#fff"/><path d="M289.3,35.59a3.59,3.59,0,0,1-1.75.1.36.36,0,0,1,.15-.7h0a2.89,2.89,0,0,0,1.36-.08,3.05,3.05,0,0,0,1.17-.83.36.36,0,0,1,.56.45A3.75,3.75,0,0,1,289.3,35.59Z" style="fill:#f88265"/><path d="M295.79,16.84s1.37-3.81,3.56-2.2,2.4,8.6-1.64,8.32Z" style="fill:#f5ab86"/><circle cx="299.27" cy="22.56" r="0.74" transform="translate(9.85 102) rotate(-19.66)" style="fill:#fff"/><path d="M297.78,20.75a.31.31,0,0,0,.21-.32,4.86,4.86,0,0,1,1.59-3.64.31.31,0,0,0-.41-.48,5.41,5.41,0,0,0-1.81,4.16.31.31,0,0,0,.34.29Z" style="fill:#f88265"/><path d="M299.46,19.05a.31.31,0,0,0,.09-.54,2.87,2.87,0,0,0-1.43-.5.31.31,0,1,0,0,.63,2.28,2.28,0,0,1,1.1.37A.31.31,0,0,0,299.46,19.05Z" style="fill:#f88265"/><path d="M364.39,74.84,251,74.88l.27,135.78L359.28,81ZM268.06,91.89l60,0-59.86,71.88Z" style="fill:#8380f9"/><polygon points="252.8 184.31 252.79 182.97 258.57 182.97 258.58 184.3 252.8 184.31" style="fill:#2a3554"/><polygon points="252.78 176.58 252.78 175.25 258.56 175.24 258.56 176.58 252.78 176.58" style="fill:#2a3554"/><polygon points="252.76 168.86 252.76 167.52 258.54 167.52 258.55 168.85 252.76 168.86" style="fill:#2a3554"/><polygon points="252.75 161.13 252.75 159.8 258.53 159.79 258.53 161.13 252.75 161.13" style="fill:#2a3554"/><polygon points="252.73 153.41 252.73 152.07 258.51 152.07 258.51 153.41 252.73 153.41" style="fill:#2a3554"/><polygon points="252.72 145.68 252.72 144.35 258.5 144.35 258.5 145.68 252.72 145.68" style="fill:#2a3554"/><polygon points="252.7 137.96 252.7 136.62 258.48 136.62 258.48 137.96 252.7 137.96" style="fill:#2a3554"/><polygon points="252.69 130.23 252.69 128.9 258.46 128.9 258.47 130.23 252.69 130.23" style="fill:#2a3554"/><polygon points="252.67 122.51 252.67 121.18 258.45 121.17 258.45 122.51 252.67 122.51" style="fill:#2a3554"/><polygon points="252.66 114.79 252.65 113.45 258.43 113.45 258.44 114.78 252.66 114.79" style="fill:#2a3554"/><polygon points="252.64 107.06 252.64 105.73 258.42 105.72 258.42 107.06 252.64 107.06" style="fill:#2a3554"/><polygon points="252.63 99.34 252.62 98 258.4 98 258.41 99.33 252.63 99.34" style="fill:#2a3554"/><polygon points="252.61 91.61 252.61 90.28 258.39 90.28 258.39 91.61 252.61 91.61" style="fill:#2a3554"/><polygon points="252.59 83.89 252.59 82.55 258.37 82.55 258.38 83.89 252.59 83.89" style="fill:#2a3554"/><polygon points="364.39 74.83 251.02 74.88 251.03 81.01 359.28 80.97 364.39 74.83" style="fill:#6c5ef1"/><path d="M293.48,89.39l-1.52.1a3.34,3.34,0,0,1-3.15-1.81,19.86,19.86,0,0,0-1-1.8c-.78-.9-2.83-2.36-3.56-2.36s-.5,1.35.05,1.91a12.25,12.25,0,0,1,1.91,2.07c.49.81-3.39,2.78-5,3.29s-4.5-.17-4.69,1.2,2,1.42,2,1.42-.54,1.26,1.3,2.14a1.64,1.64,0,0,0,1,1.76,1.84,1.84,0,0,0,1.33,1.82c1.36.3,5.6,1.23,13.41-4.28Z" style="fill:#f5ab86"/><path d="M294.93,95.77s13.16-.17,33.14-12.25l3.09-2h0c.41-6.14-3.47-16.47-6.19-25.5-1.79-6-4.15-13.17-9.11-15.19a19,19,0,0,0-2.6,7.44,38.36,38.36,0,0,0,2.13,13.41c1.4,4.17,2.38,9.51,3.66,13.68l.12.57c-.16,0-5.44,3-12.65,6.29-7.9,3.64-14.19,7.23-14.19,7.23Z" style="fill:#6c5ef1"/><path d="M277.33,75.2s-.92,3.92-2.47,5-1.15-4.41-1.15-4.41-.54,6.62-2.14,6.79-1.26-6.27-1.26-6.27-1,4.43-2.26,4.68-1.16-4.46-1.16-4.46-1.19,3.42-2.09,3.72-1.33-3.69-.82-5.71,3-.79,3-.79,2.39-.68,3.21.14c0,0,2.14-.92,3.34-.32C273.56,73.56,277.05,72.56,277.33,75.2Z" style="fill:#f5ab86"/><path d="M376.88,301.23v26.29H257.76a6.79,6.79,0,0,1-6.79-6.79V308a6.79,6.79,0,0,1,6.79-6.79Z" style="fill:#8380f9"/><path d="M376.88,304.55v19.64H268.8a6.27,6.27,0,0,1-6.27-6.27v-7.08a6.27,6.27,0,0,1,6.27-6.28Z" style="fill:#fff"/><rect x="273.5" y="308.54" width="103.38" height="1.73" style="fill:#ccf"/><rect x="273.5" y="313.5" width="103.38" height="1.73" style="fill:#ccf"/><rect x="273.5" y="318.47" width="103.38" height="1.73" style="fill:#ccf"/><path d="M359.22,327.52v26.29H240.09a6.79,6.79,0,0,1-6.79-6.79V334.3a6.79,6.79,0,0,1,6.79-6.79Z" style="fill:#6c5ef1"/><path d="M359.22,330.84v19.64H251.13a6.27,6.27,0,0,1-6.27-6.27v-7.08a6.27,6.27,0,0,1,6.27-6.28Z" style="fill:#fff"/><rect x="255.83" y="334.83" width="103.38" height="1.73" style="fill:#ccf"/><rect x="255.83" y="339.8" width="103.38" height="1.73" style="fill:#ccf"/><rect x="255.83" y="344.76" width="103.38" height="1.73" style="fill:#ccf"/><path d="M382.66,353.81V380.1H263.53a6.79,6.79,0,0,1-6.79-6.79V360.59a6.79,6.79,0,0,1,6.79-6.79Z" style="fill:#5446cf"/><path d="M382.66,357.13v19.64H274.57a6.27,6.27,0,0,1-6.27-6.27v-7.08a6.27,6.27,0,0,1,6.27-6.28Z" style="fill:#fff"/><rect x="279.27" y="361.12" width="103.38" height="1.73" style="fill:#ccf"/><rect x="279.27" y="366.09" width="103.38" height="1.73" style="fill:#ccf"/><rect x="279.27" y="371.05" width="103.38" height="1.73" style="fill:#ccf"/><path d="M184.5,58.27l.48-6.1-5.56-.44a13.7,13.7,0,0,0-1.18-3.53l4.49-3.84-4-4.65-4.36,3.73a13.72,13.72,0,0,0-3.91-2.15l.44-5.56-6.1-.48-.42,5.33a13.67,13.67,0,0,0-5.23,1.67l-3.72-4.36-4.65,4,3.84,4.49a13.5,13.5,0,0,0-1.71,3.31l-5.57-.44-.48,6.1,5.33.42A13.67,13.67,0,0,0,153.89,61l-3.81,3.25,4,4.65L158,65.5a13.67,13.67,0,0,0,4.3,2l-.42,5.33,6.1.48.44-5.56a13.77,13.77,0,0,0,4.81-1.89L177,70.26l4.65-4-4.06-4.75a13.61,13.61,0,0,0,1.61-3.68Zm-13-3.58a5.61,5.61,0,1,1-5.15-6A5.61,5.61,0,0,1,171.49,54.69Z" style="fill:#ccf"/><path d="M165.9,45a9.44,9.44,0,1,0,9.44,9.44A9.44,9.44,0,0,0,165.9,45Zm5.59,9.65a5.61,5.61,0,1,1-5.15-6A5.61,5.61,0,0,1,171.49,54.69Z" style="fill:#b6b6ef"/><path d="M426.32,136.09a13.61,13.61,0,0,0-3.68,1.61l-4.75-4.06-4,4.65,4.38,3.75a13.77,13.77,0,0,0-1.89,4.81l-5.56.44.48,6.1,5.33-.42a13.67,13.67,0,0,0,2,4.3l-3.37,3.94,4.65,4,3.25-3.81a13.67,13.67,0,0,0,5.23,1.67l.42,5.33,6.1-.48-.44-5.57a13.5,13.5,0,0,0,3.3-1.71l4.49,3.84,4-4.65-4.36-3.72a13.67,13.67,0,0,0,1.67-5.23l5.33-.42-.48-6.1-5.56.44a13.72,13.72,0,0,0-2.14-3.91l3.72-4.36-4.65-4L436,137a13.7,13.7,0,0,0-3.53-1.18l-.44-5.56-6.1.48Zm9.19,12.84a5.61,5.61,0,1,1-6-5.15A5.61,5.61,0,0,1,435.51,148.93Z" style="fill:#ccf"/><path d="M429.69,139.92a9.44,9.44,0,1,0,9.44,9.44A9.44,9.44,0,0,0,429.69,139.92Zm5.82,9a5.61,5.61,0,1,1-6-5.15A5.61,5.61,0,0,1,435.51,148.93Z" style="fill:#b6b6ef"/><path d="M133.7,340.56a4.06,4.06,0,0,1-2.45.91,6.15,6.15,0,0,1-1.73-.12,9.54,9.54,0,0,1-2.37-.79s.38-16.17-6.16-27.31-15.2-26.53-8.27-34.42,18.08,3.08,21.74,21.55S133.7,340.56,133.7,340.56Z" style="fill:#6c5ef1"/><path d="M131.25,341.47a6.15,6.15,0,0,1-1.73-.12,96,96,0,0,0-11.07-51.11.86.86,0,1,1,1.48-.89A97.74,97.74,0,0,1,131.25,341.47Z" style="fill:#5446cf"/><path d="M156.13,314.46c-15.3,24.74-14.25,30.46-14.25,30.46l-2-.36-1.71-.3-2.44-.43c-1.36-11,7.07-57.35,22.1-57.35C173.12,286.48,161.34,306,156.13,314.46Z" style="fill:#6c5ef1"/><path d="M155.55,300.23c-.14.24-13,23.1-15.68,44.34l-1.71-.3C141,322.69,153.9,299.62,154,299.37a.87.87,0,0,1,1.51.85Z" style="fill:#5446cf"/><path d="M127,342.76l-1.76.47-1.69.46-1,.27c.06-.22-.7-2.11-11.47-16.5-4.44-5.95-16.3-21.93-5.43-24.62C115.63,300.39,127.31,334.48,127,342.76Z" style="fill:#6c5ef1"/><path d="M125.26,343.23l-1.69.46c-3.11-13.86-15.71-30.87-15.84-31.05a.87.87,0,1,1,1.39-1C109.67,312.35,122.06,329.06,125.26,343.23Z" style="fill:#5446cf"/><path d="M118.18,337.9h26.08a4.07,4.07,0,0,1,4.07,4.07v37.38a0,0,0,0,1,0,0H114.11a0,0,0,0,1,0,0V342A4.07,4.07,0,0,1,118.18,337.9Z" style="fill:#8380f9"/><path d="M174.29,330.21l10.07,6.86a2.79,2.79,0,0,0,3.87-.73l17.39-25.5,7.19-10.55-14.68-10-4.26,6.25-20.32,29.8A2.79,2.79,0,0,0,174.29,330.21Z" style="fill:#8380f9"/><path d="M193.87,296.53a38.46,38.46,0,0,0,11.74,14.31l7.19-10.55-14.68-10Z" style="fill:#6c5ef1"/><path d="M163,328.88h1.86a4.59,4.59,0,0,1,4.59,4.59v50.21a0,0,0,0,1,0,0h-11a0,0,0,0,1,0,0V333.47a4.58,4.58,0,0,1,4.58-4.58Z" transform="translate(98.58 742.96) rotate(-145.71)" style="fill:#2a3554"/><path d="M189.69,229.75A50,50,0,1,0,259.17,217,50,50,0,0,0,189.69,229.75ZM196,234.1a42.3,42.3,0,1,1,10.82,58.83A42.34,42.34,0,0,1,196,234.1Z" style="fill:#445279"/><path d="M189.41,249.48a42.1,42.1,0,1,0,1.6-5.69A42.34,42.34,0,0,0,189.41,249.48Z" style="fill:#fff;opacity:0.5"/><path d="M209.87,221.38,256.13,292A42.14,42.14,0,0,0,270.4,273l-37.48-57.18A42.14,42.14,0,0,0,209.87,221.38Z" style="fill:#fff;opacity:0.5"/><path d="M191,243.79l37,56.52a42,42,0,0,0,14.64-1.62L198.34,231A42,42,0,0,0,191,243.79Z" style="fill:#fff;opacity:0.5"/></g></g></svg>